<svg width="390" height="537" viewBox="0 0 390 537" fill="none" xmlns="http://www.w3.org/2000/svg">
<mask id="mask0_1347_39973" style="mask-type:alpha" maskUnits="userSpaceOnUse" x="0" y="0" width="390" height="537">
<rect width="390" height="537" fill="#D9D9D9"/>
</mask>
<g mask="url(#mask0_1347_39973)">
<circle opacity="0.3" cx="254" cy="210" r="210" fill="#006686"/>
<g clip-path="url(#clip0_1347_39973)">
<path d="M134.989 136.877L107.298 126.987L53.2617 230.68L80.4436 296.197L177.513 407.334C177.513 407.334 244.491 436.939 245.141 437.1C245.79 437.261 305.65 458.617 313.412 459.588C321.179 460.56 329.752 455.542 332.339 451.178C334.926 446.809 387.83 355.734 403.203 324.186C418.571 292.644 431.518 255.433 431.518 255.433L291.571 196.873L134.989 136.877Z" fill="#FFCE1F"/>
<path d="M281.866 282.935C281.866 282.935 296.378 285.768 305.625 275.657C314.867 265.54 317.862 253.033 319.724 244.597C321.587 236.162 320.696 230.363 320.696 230.363C320.696 230.363 332.218 212.103 333.154 212.808C334.09 213.512 347.55 211.408 348.522 197.527C349.498 183.641 341.726 167.761 338.167 162.26C334.609 156.758 322.251 145.434 313.467 142.203C304.678 138.966 275.559 128.291 256.627 132.821C237.7 137.351 232.435 148.675 224.552 149.969C216.67 151.262 191.994 149.818 186.775 147.226C181.555 144.634 142.72 135.76 134.152 140.36C125.58 144.956 126.229 153.854 122.182 155.958C118.135 158.062 97.915 158.661 95.6499 156.743C93.3847 154.826 80.0958 154.468 73.8088 161.459C67.5217 168.445 68.468 188.986 71.2214 194.069C73.9698 199.153 78.0169 203.521 76.4011 206.431C74.7853 209.345 65.2364 214.036 66.2079 222.607C67.1794 231.179 72.8423 241.21 80.121 245.256C87.3997 249.303 242.553 289.583 242.553 289.583L281.866 282.95V282.935Z" fill="#343434"/>
<path d="M79.3111 270.483C78.8279 270 73.0039 258.544 73.0039 258.544C73.0039 258.544 73.8445 252.691 77.5493 250.909C81.2541 249.127 101.318 231.209 130.277 221.646C159.236 212.083 173.476 206.748 187.228 208.686C200.98 210.629 215.704 214.992 215.704 214.992C215.704 214.992 201.75 220.947 202.002 226.8C202.259 232.654 202.274 234.758 202.274 234.758C202.274 234.758 202.923 257.598 203.245 258.539C203.567 259.475 215.87 282.215 231.882 285.809C247.894 289.402 258.721 280.197 261.586 271.937C264.445 263.678 262.784 254.301 262.784 254.301C262.784 254.301 282.36 271.932 285.108 282.125C287.856 292.317 287.051 304.124 282.194 315.449C277.341 326.774 256.144 362.685 256.633 362.685C257.121 362.685 265.205 363.979 273.943 360.742C282.682 357.506 288.148 356.052 288.148 356.052C288.148 356.052 282.697 370.285 289.563 377.729C296.429 385.168 310.83 387.433 310.342 388.083C309.854 388.732 281.866 404.581 271.19 408.628C260.513 412.675 231.877 422.701 218.769 408.628C205.667 394.555 207.932 383.231 209.225 376.114C210.519 368.997 216.504 350.344 216.504 350.344H196.928L175.248 357.511L167.32 375.631L152.274 340.851L135.286 325.485L121.534 309.953L115.226 295.553L106.166 287.032L97.9156 262.284C97.9156 262.284 94.3568 254.14 90.798 254.789C87.2392 255.439 83.5193 261.096 82.8699 263.039C82.2206 264.982 79.3111 270.478 79.3111 270.478V270.483Z" fill="#343434"/>
<path d="M259.355 87.5173C257.468 93.4464 253.753 98.9174 248.865 102.788C246.545 104.62 242.518 105.969 241.224 108.767C239.799 111.853 241.581 115.824 243.429 118.3C244.39 119.589 242.664 121.758 241.194 121.119C236.955 119.287 232.682 117.807 228.675 115.567C215.014 115.406 199.736 108.938 194.501 95.4294C189.684 82.9925 197.169 69.1815 207.775 62.5025C218.482 55.7581 233.834 53.7499 245.754 58.4357C257.478 63.0411 263.141 75.5988 259.35 87.5173H259.355Z" fill="#FFE380"/>
<path d="M235.128 84.4271C233.351 87.4722 231.655 90.6833 229.536 93.522C229.626 94.5135 228.524 95.4799 227.562 95.1477C227.437 95.1075 227.321 95.0571 227.195 95.0118C226.264 95.0521 225.348 94.6545 224.96 93.8693C222.539 92.3191 220.45 90.0038 218.517 87.9604C216.438 85.7659 214.389 82.897 214.963 79.6859C215.592 76.1828 216.664 76.5603 219.574 77.6474C221.185 78.2564 223.284 79.5248 224.628 80.5616C225.066 79.6557 227.346 77.3001 228.182 76.6056C230.16 74.9396 233.266 74.4765 235.304 76.3237C237.776 78.5584 236.537 82.0112 235.123 84.4271H235.128Z" fill="white"/>
<path d="M188.195 456.84C188.195 456.84 183.986 430.311 179.295 409.282C174.604 388.253 159.558 355.412 154.942 347.017C150.326 338.621 144.996 332.441 137.41 327.408C129.824 322.369 118.302 303.324 116.998 299.61C115.7 295.89 109.075 291.194 107.621 289.578C106.166 287.963 101.958 276.311 100.146 268.993C98.3334 261.675 94.3517 254.316 90.6923 253.023C87.0328 251.729 82.3817 259.495 80.5997 274.861C78.8178 290.228 83.8364 296.378 88.8499 306.57C93.8635 316.762 100.986 339.246 101.147 341.188C101.147 341.188 100.986 356.555 100.664 386.809C100.342 417.058 115.065 433.144 115.065 433.144L39.6709 449.25C39.6709 449.25 42.9076 455.723 49.2248 461.546C55.5421 467.37 92.7359 495.354 94.6789 496.486C96.6219 497.619 102.285 502.471 106.327 506.029C110.374 509.588 127.519 555.047 128.49 555.853C129.462 556.663 129.784 557.795 153.568 555.853C177.352 553.91 227.07 543.164 228.962 542.102C230.85 541.04 188.195 456.85 188.195 456.85V456.84Z" fill="white"/>
<path d="M8.48702 409.579C5.98528 406.438 3.47348 403.283 1.53049 399.865C3.88625 399.583 6.12119 398.773 8.02393 397.016C11.6733 393.649 11.7639 388.832 9.45349 384.685C7.31921 380.86 4.09262 377.442 1.03214 374.347C-1.98806 371.297 -5.33545 368.332 -8.9446 365.967C-8.85399 364.678 -8.54191 363.153 -8.49157 362.856C-8.11405 360.496 -8.06874 358.251 -8.47647 355.89C-9.25166 351.406 -11.2601 347.203 -13.1528 343.096C-14.7937 339.533 -16.5606 335.999 -19.012 332.914C-21.6899 329.532 -24.9869 327.292 -28.4702 324.841C-31.42 322.757 -33.6801 320.482 -35.2456 317.195C-36.5443 314.457 -37.3496 311.473 -38.2003 308.584C-40.1081 302.106 -42.2525 295.437 -47.7845 291.124C-48.9573 290.213 -50.2812 290.248 -51.4188 290.817C-53.9155 288.522 -57.0666 287.062 -60.6707 287.48C-65.4124 288.028 -68.7447 291.848 -70.2347 296.157C-73.5015 305.589 -65.5534 312.942 -57.8065 317.296C-59.7093 318.424 -61.2798 320.125 -62.3016 322.213C-64.6121 326.93 -63.3234 332.194 -60.8871 336.563C-57.0515 343.443 -51.0715 349.116 -44.3062 353.208C-47.4472 355.07 -49.9741 357.536 -50.2661 361.789C-50.4825 365.015 -48.9271 367.849 -47.3667 370.557C-45.615 373.607 -43.7424 376.572 -41.88 379.556C-38.6232 384.781 -35.2254 390.302 -29.6683 393.337C-27.3326 394.61 -24.6195 395.436 -21.9667 395.501C-22.3342 403.036 -19.6915 410.862 -16.3089 417.506C-12.9514 424.105 -7.77176 430.044 -1.0367 433.315C2.48184 435.022 6.23697 435.132 9.32262 433.809C10.4351 434.448 11.5425 435.092 12.6499 435.731C14.8093 436.974 17.9453 435.767 18.2775 433.059C18.9218 427.749 17.5577 423.274 15.2875 419.157C14.1298 415.478 11.4519 412.332 8.49206 409.579H8.48702Z" fill="white"/>
<path d="M100.02 390.448C100.342 376.048 100.503 338.788 100.503 338.788C100.503 338.788 72.0325 272.199 71.5493 272.199C71.066 272.199 54.7217 238.779 54.7217 238.779C50.3524 236.126 -53.6736 231.597 -54.1618 234.667C-54.6451 237.742 -0.376972 373.21 -0.376972 373.21C-0.376972 373.21 9.9018 383.346 10.7122 388.113C11.5226 392.879 7.37993 398.27 8.15512 399.216C8.93031 400.162 27.0515 442.219 32.2312 443.352C37.4058 444.484 111.99 432.515 111.99 432.515C111.99 432.515 99.6926 404.853 100.02 390.453V390.448Z" fill="#FFCE1F"/>
<path d="M57.6664 324.504C46.7735 337.132 26.3619 340.514 11.3615 334.051C-3.56331 327.619 -13.3689 312.515 -12.0904 296.142C-11.4461 287.852 -8.14396 279.844 -2.27469 273.88C0.710283 270.845 4.29426 268.505 8.32624 267.105C10.0578 266.506 11.9807 265.908 13.8532 265.751C28.7227 260.467 45.8624 266.471 55.2099 279.306C59.7453 285.542 62.3879 293.006 63.3242 300.621C64.341 308.901 63.289 317.976 57.6664 324.504Z" fill="#FFE380"/>
<path d="M255.821 247.672C256.471 247.672 268.763 240.717 268.763 240.717C268.763 240.717 284.292 252.026 299.176 243.862C314.061 235.699 317.942 231.008 317.942 231.008C317.942 231.008 327.461 233.288 331.825 226.317C336.189 219.346 334.085 213.507 334.085 213.507L325.875 211.756C325.875 211.756 329.605 195.418 325.875 182.961C322.145 170.504 310.658 151.74 310.658 151.74C310.658 151.74 306.289 162.743 297.228 162.743C288.168 162.743 283.476 155.948 283.476 155.948C283.476 155.948 274.255 166.624 269.241 168.888C264.228 171.153 259.199 172.125 259.199 172.125C259.199 172.125 257.593 191.241 253.385 190.013C249.177 188.785 246.428 178.92 246.428 178.92C246.428 178.92 240.272 168.888 232.833 170.67C225.393 172.452 222.322 175.638 223.128 183.59C223.938 191.538 223.611 196.395 228.307 199.465C232.999 202.54 238.682 203.456 238.43 203.97C238.178 204.478 239.633 205.424 235.913 209.4C232.193 213.377 228.061 216.774 224.547 216.935C221.029 217.096 217.47 215.803 217.47 215.803C216.498 215.803 208.897 215.35 205.5 221.641C202.102 227.932 202.102 233.66 202.263 234.757C202.424 235.86 205.676 247.828 204.13 253.169C202.585 258.509 201.513 259.153 202.213 259.153C202.912 259.153 221.195 285.522 236.24 286.815C251.286 288.109 256.526 283.428 260.508 274.846C264.489 266.265 261.57 254.789 261.57 254.789C261.57 254.789 255.167 247.672 255.816 247.672H255.821Z" fill="white"/>
<path d="M382.338 314.322C382.338 310.28 375.382 301.22 374.899 301.054C374.415 300.893 380.461 294.259 381.644 291.511C382.827 288.763 384.669 274.202 381.644 274.852C378.619 275.501 373.927 277.927 371.501 282.291C369.075 286.659 364.867 291.995 364.061 292.322C363.251 292.644 347.722 294.909 340.604 303.324C333.487 311.735 329.002 319.018 326.872 325.485C324.748 331.958 321.909 337.781 321.909 337.781L291.903 354.28C291.254 354.28 282.375 364.472 289.568 376.119C296.761 387.765 308.998 387.469 308.998 387.469L349.826 360.591C349.826 360.591 379.384 333.84 382.343 331.329C385.308 328.817 382.343 318.368 382.343 314.327L382.338 314.322Z" fill="white"/>
<path d="M319.437 232.679C319.05 229.779 315.647 229.16 313.916 231.45C312.063 233.897 311.625 237.213 311.077 240.183C310.518 243.193 310.13 246.228 309.642 249.248C308.847 254.15 308.026 259.083 305.69 263.527C303.501 267.694 299.947 270.412 295.653 272.174C293.247 273.16 290.72 273.825 288.244 274.615C286.21 275.264 283.14 276.779 283.93 279.472L283.985 279.653C284.287 280.685 285.163 281.254 286.18 281.394C290.992 282.059 297.184 279.915 301.447 277.826C306.586 275.309 310.483 271.379 313.1 266.305C315.496 261.665 316.8 256.344 317.369 251.17C317.701 248.14 317.907 245.095 318.234 242.06C318.395 240.55 318.587 239.046 318.838 237.546C319.11 235.925 319.654 234.329 319.437 232.684V232.679Z" fill="white"/>
<path d="M346.791 186.499C345.044 173.448 338.621 161.998 328.861 153.26C326.193 150.875 323.55 148.544 320.54 146.586C317.631 144.694 314.354 142.676 310.86 142.364C310.07 142.293 309.511 143.385 310.115 143.934C312.687 146.289 316.045 147.764 318.899 149.803C321.834 151.901 324.763 154.277 327.033 157.091C331.362 162.456 335.042 168.511 337.378 175.014C339.774 181.683 341.379 188.89 340.796 196.017C340.478 199.898 339.386 204.03 336.618 206.909C335.55 208.021 334.242 208.962 332.807 209.541C331.045 210.256 329.082 210.246 327.391 211.152C325.765 212.017 324.481 214.665 326.324 216.059C329.032 218.108 333.018 216.829 335.737 215.365C338.938 213.633 341.581 211.101 343.484 208.001C347.39 201.644 347.767 193.727 346.801 186.504L346.791 186.499Z" fill="white"/>
<path d="M303.385 147.689C302.766 151.116 300.591 154.106 297.631 155.938C296.01 156.94 294.163 157.604 292.285 157.891C290.509 158.163 288.817 158.062 287.156 158.852C286.044 159.381 285.711 160.75 286.547 161.646C289.658 164.988 296.987 162.365 300.219 160.418C304.568 157.79 307.477 153.683 309.098 148.922C310.684 144.266 304.18 143.305 303.385 147.689Z" fill="white"/>
<path d="M283.426 151.469C282.913 150.1 281.292 149.803 280.19 150.724C278.559 152.083 278.04 154.176 276.978 155.958C275.977 157.634 274.668 159.189 273.183 160.458C269.8 163.357 266.03 164.484 262.094 166.331C260.1 167.268 258.686 168.113 257.865 170.313C257.095 172.376 257.297 174.661 256.889 176.805C256.451 179.086 255.756 181.355 254.724 183.439C253.713 185.493 251.996 187.128 251.498 189.398C251.297 190.325 252.041 191.301 253.043 191.054C257.261 190.023 260.065 183.937 261.253 180.148C261.973 177.847 262.129 175.492 262.26 173.106C262.315 172.079 262.285 171.133 263.196 170.73C264.062 170.343 265.527 170.574 266.493 170.343C270.857 169.291 274.814 166.769 277.884 163.548C280.331 160.981 284.861 155.299 283.426 151.484V151.469Z" fill="white"/>
<path d="M202.254 239.368C202.083 234.531 201.403 230.253 197.598 226.951C196.385 225.899 194.23 227.731 194.874 229.12C196.525 232.689 196.626 237.007 196.465 240.873C196.269 245.669 196.082 250.456 195.634 255.237C194.723 264.936 193.128 274.565 191.029 284.077C186.876 302.926 180.649 321.338 173.803 339.367C169.882 349.69 165.709 359.917 161.471 370.114C159.875 373.959 164.461 376.511 167.028 373.25C167.169 373.069 167.315 372.887 167.456 372.706C167.899 372.142 168.241 371.342 168.327 370.532C183.574 333.619 198 295.759 201.504 255.65C201.972 250.265 202.445 244.773 202.249 239.368H202.254Z" fill="white"/>
<path d="M280.724 273.694C278.534 270.297 275.871 267.236 272.896 264.503C269.891 261.74 266.821 258.811 263.076 257.15C262.149 256.737 261.299 258.041 261.757 258.811C263.488 261.715 266 263.894 268.24 266.421C270.45 268.912 272.619 271.51 274.537 274.232C278.715 280.167 280.94 286.78 280.543 294.078C280.12 301.724 277.542 309.369 274.734 316.425C271.875 323.608 268.381 330.518 264.581 337.243C260.327 344.767 255.681 352.05 251.025 359.328C250.179 360.652 249.787 362.479 251.181 363.616C252.404 364.613 254.559 364.089 255.389 362.796C264.359 348.799 273.45 334.691 279.737 319.239C285.717 304.532 289.955 288.008 280.719 273.694H280.724Z" fill="white"/>
<path d="M320.102 374.83C316.956 375.827 314.243 378.076 311.494 379.858C308.575 381.756 305.595 383.558 302.565 385.274C296.459 388.732 290.373 392.164 284.006 395.124C271.054 401.143 257.392 405.749 243.374 408.497C235.723 409.997 226.969 410.48 220.319 405.628C219.247 404.848 217.727 406.403 218.462 407.485C220.37 410.284 222.408 412.176 225.509 413.595C228.721 415.065 232.36 415.835 235.884 415.81C243.771 415.745 251.609 413.535 259.134 411.341C273.681 407.098 287.73 401.189 300.873 393.639C304.669 391.46 308.303 389.008 311.867 386.477C315.189 384.116 319.423 381.64 321.733 378.207C322.574 376.959 322.231 374.156 320.107 374.83H320.102Z" fill="white"/>
<path d="M260.518 80.2395C260.387 73.3692 256.587 65.4823 251.226 61.0581C246.227 56.9309 239.608 54.4043 233.11 54.4496C228.871 54.4798 224.542 55.1844 220.48 56.3773C216.373 57.5802 211.847 59.1103 208.369 61.6621C206.154 63.2878 207.574 66.5443 210.262 65.6634C213.946 64.4555 217.304 62.4926 221.089 61.4708C224.759 60.4793 228.413 60.0666 232.204 60.5095C238.471 61.2393 244.737 63.615 248.392 69.0155C251.86 74.1393 252.993 80.5163 251.719 86.5359C250.38 92.8677 246.328 98.2481 241.717 102.627C239.362 104.862 234.811 107.212 235.138 110.871C235.47 114.591 236.976 117.782 239.664 120.334C240.816 121.431 242.945 119.533 242.331 118.21C241.254 115.894 240.474 113.433 240.263 110.901C243.212 109.069 244.959 105.707 247.783 103.644C255.389 98.0921 260.694 89.9082 260.513 80.2395H260.518Z" fill="white"/>
<path d="M261.399 301.271C257.915 301.401 254.155 302.816 251.648 305.262C248.92 307.929 247.783 311.573 246.907 315.187C245.15 322.42 241.788 328.948 236.552 334.298C231.197 339.769 224.27 343.549 216.78 345.104C212.768 345.94 208.676 346.171 204.594 345.819C200.411 345.457 196.369 344.364 192.251 343.645C190.343 343.312 188.476 346.584 190.293 347.772C197.325 352.372 206.959 352.634 215.003 351.3C222.906 349.986 230.452 346.569 236.618 341.455C242.452 336.613 247.229 330.307 250.189 323.321C251.744 319.652 252.368 315.806 253.607 312.062C254.991 307.894 258.65 307.059 262.023 304.935C263.312 304.124 263.332 301.2 261.404 301.276L261.399 301.271Z" fill="white"/>
<path d="M28.0171 334.464C38.6734 334.298 47.3766 331.404 54.3483 324.257C60.1219 318.338 62.7797 311.357 61.4005 303.037C61.0884 301.145 61.7277 300.037 63.132 299.826C64.5314 299.615 65.4677 300.531 65.7747 302.398C67.8335 314.991 62.669 324.665 52.6771 331.51C37.7673 341.727 21.9868 341.48 6.4931 332.788C-4.7471 326.482 -11.8647 316.888 -14.0493 303.878C-17.1954 285.134 -3.93165 265.993 14.9245 262.973C32.6129 260.14 46.8481 266.144 57.2175 280.916C57.3937 281.163 57.5648 281.415 57.7108 281.681C58.345 282.859 58.2544 283.956 57.0916 284.706C55.949 285.446 54.907 285.144 54.0463 284.102C51.9976 281.631 50.12 278.984 47.8498 276.734C35.7539 264.755 15.0302 263.391 2.16917 273.608C-11.6634 284.601 -14.1299 304.064 -3.24707 318.323C4.78668 328.847 15.6242 334.167 28.0221 334.469L28.0171 334.464Z" fill="white"/>
<path d="M63.3083 416.193C61.7731 415.775 59.1203 415.025 56.4525 414.335C55.8082 414.169 54.9474 413.918 54.4591 414.189C50.996 416.127 47.3465 416.092 43.6871 415.206C41.6434 414.713 39.6903 413.822 37.7322 413.022C36.3429 412.453 35.5426 411.436 36.1718 409.856C36.6802 408.577 37.8933 408.386 39.5796 408.955C42.0914 409.8 44.6485 410.51 47.1955 411.245C47.5328 411.341 47.9304 411.341 48.2778 411.275C48.9573 411.144 49.6218 410.938 50.2963 410.762C49.8533 410.289 49.4305 409.8 48.9674 409.347C47.9808 408.366 46.7425 407.546 46.0378 406.398C45.2525 405.11 44.5277 403.534 44.5025 402.075C44.427 397.645 48.5345 395.33 52.3701 397.59C56.2813 399.89 58.0129 403.529 57.731 407.988C57.6253 409.69 58.1991 410.364 59.7042 410.792C64.5919 412.181 69.1927 411.834 73.3102 408.643C75.1425 407.223 75.0469 406.926 72.9831 406.021C69.2531 404.385 66.0215 402.085 63.5852 398.788C62.9459 397.922 62.367 396.956 61.9845 395.954C60.7009 392.577 62.4677 389.693 66.0718 389.235C71.6542 388.525 80.6192 392.401 80.6796 401.481C80.6896 403.066 81.3188 403.353 82.6326 403.162C84.485 402.89 86.3475 402.668 88.1999 402.377C89.6496 402.15 90.9885 402.236 91.3862 403.917C91.7788 405.573 90.7519 406.463 89.2519 406.68C86.5035 407.083 83.735 407.314 80.9816 407.697C80.3473 407.787 79.4765 408.034 79.1946 408.497C75.8523 414.048 70.587 415.78 63.2983 416.188L63.3083 416.193ZM67.446 393.664C67.2698 393.719 66.7765 393.886 66.2832 394.047C66.4544 394.54 66.5299 395.099 66.8168 395.521C68.8756 398.576 71.7448 400.605 75.1073 402.014C76.3103 402.517 76.2751 401.838 76.2046 400.992C75.8825 397.072 72.1827 393.84 67.4511 393.664H67.446ZM52.2896 407.047C52.5816 406.836 52.8785 406.624 53.1705 406.408C53.0447 404.621 52.2544 403.121 50.8399 401.994C50.4422 401.677 49.7879 401.677 49.2493 401.531C49.2895 402.15 49.1083 402.915 49.4053 403.363C50.2661 404.662 51.3181 405.829 52.2946 407.047H52.2896Z" fill="white"/>
<path d="M46.4002 281.495C46.2945 278.712 43.526 277.534 41.4571 279.376C39.6098 281.012 37.8782 282.839 36.3983 284.812C31.5609 291.254 26.8393 297.782 22.1479 304.336C21.2972 305.518 20.7234 305.876 19.2838 305.091C16.2183 303.41 12.9564 302.232 9.36239 303.389C6.30191 304.376 4.40925 307.854 5.72304 310.466C6.04519 310.723 6.51836 311.201 7.07206 311.538C11.6728 314.357 16.2787 317.165 20.9046 319.933C23.1496 321.272 24.5087 320.915 25.8829 318.63C32.4166 307.708 38.9655 296.791 45.3935 285.809C46.1133 284.581 46.4556 282.93 46.3952 281.5L46.4002 281.495Z" fill="white"/>
<path d="M79.0289 358.628C80.5994 358.523 81.7723 358.935 81.9384 360.536C82.1045 362.116 81.1129 362.816 79.6481 362.992C72.8576 363.807 66.0672 364.633 59.2717 365.438C47.5483 366.832 35.8249 368.216 24.1014 369.606C23.0796 369.726 22.0578 369.847 21.0359 369.963C19.3295 370.159 18.2271 369.46 18.0711 368.086C17.915 366.717 18.8161 365.77 20.5476 365.559C23.6132 365.176 26.6787 364.824 29.7442 364.457C43.7529 362.791 57.7566 361.125 71.7653 359.464C74.2318 359.172 76.6983 358.895 79.0289 358.623V358.628Z" fill="white"/>
<path d="M40.5563 355.322C40.1234 355.211 39.7207 355.03 39.3633 354.738C36.4488 352.372 41.0194 350.973 42.5597 350.736C46.4306 350.143 50.3065 349.554 54.1774 348.96C61.9242 347.777 69.666 346.589 77.4129 345.406C78.3592 345.26 79.3408 345.12 80.2519 345.401C81.1629 345.683 81.9834 346.524 81.9079 347.475C81.7972 348.884 80.0656 349.448 78.6662 349.675C69.8623 351.084 61.0584 352.493 52.2596 353.902C49.4155 354.355 46.5715 354.813 43.7275 355.266C42.6855 355.432 41.5479 355.573 40.5512 355.322H40.5563Z" fill="white"/>
<path d="M27.1011 352.397C28.6062 352.312 29.8545 352.704 29.9804 354.421C30.0961 355.991 29.0642 356.645 27.6045 356.806C24.6598 357.124 21.7151 357.491 18.7704 357.808C17.3056 357.964 15.9867 357.647 15.8106 355.921C15.6394 354.245 16.7367 353.605 18.272 353.439C21.2167 353.122 24.1564 352.75 27.1011 352.397Z" fill="white"/>
<path d="M72.2539 198.418C66.9534 208.721 61.658 219.019 56.3575 229.322C56.0202 229.971 55.7132 230.625 55.3508 231.264C54.6511 232.498 53.6141 233.001 52.3004 232.321C50.9715 231.637 50.8758 230.479 51.4497 229.206C51.6007 228.874 51.7718 228.557 51.9329 228.229L70.2203 192.63C70.5072 193.777 70.8595 194.9 71.2723 196.002C71.5592 196.757 71.8663 197.598 72.2438 198.413L72.2539 198.418Z" fill="#FFE380"/>
<path d="M199.223 149.989C191.692 148.59 184.293 146.566 176.863 144.714C169.574 142.897 162.22 141.151 154.75 140.225C149.299 139.55 143.032 139.591 137.852 141.82C128.605 138.146 119.353 134.467 110.112 130.793C107.368 129.7 107.887 129.157 106.271 132.302C102.078 140.446 97.8848 148.59 93.6968 156.733C92.7908 156.512 91.8696 156.361 90.9585 156.321C90.2437 156.285 89.5289 156.336 88.8242 156.457C93.0726 148.197 97.3211 139.943 101.575 131.683C102.934 129.046 104.388 126.439 106.055 123.988C110.399 117.606 114.874 116.191 122.021 119.06C128.716 121.743 135.235 124.863 141.955 127.471C161.586 135.086 181.227 142.696 200.874 150.281C200.32 150.19 199.777 150.09 199.228 149.989H199.223Z" fill="#FFE380"/>
<path d="M433.601 257.014C431.683 266.829 427.993 276.065 424.092 285.205C413.431 310.209 400.842 334.273 387.9 358.145C370.645 389.97 352.685 421.387 333.572 452.139C332.902 453.222 332.213 454.289 331.503 455.346C327.879 460.736 324.949 462.281 317.091 462.236C310.794 462.004 303.455 460.147 296.177 458.033C274.839 451.837 254.201 443.709 233.789 435.037C215.663 427.336 197.713 419.223 179.687 411.28C179.028 410.988 178.157 410.772 177.82 410.238C177.352 409.524 176.878 408.296 177.201 407.732C177.583 407.057 178.761 406.67 179.657 406.504C180.206 406.403 180.88 406.947 181.484 407.224C212.894 421.623 244.511 435.515 277.069 447.167C288.254 451.168 299.514 454.973 311.252 457.027C314.278 457.555 317.394 457.626 320.474 457.721C323.318 457.807 325.457 456.352 326.983 454.032C329.082 450.841 331.176 447.645 333.154 444.383C360.905 398.652 387.357 352.206 410.683 304.039C417.07 290.832 423.126 277.474 427.45 263.411C427.928 261.851 428.301 260.255 428.718 258.675C428.93 257.88 428.814 257.437 427.878 257.064C396.543 244.663 365.224 232.236 333.909 219.784C334.422 217.67 334.523 215.511 334.085 213.512C336.537 212.169 340.221 211.479 342.265 209.4C343.206 208.444 342.889 206.481 343.81 205.167C358.478 210.935 373.101 216.819 387.649 222.894C398.989 227.63 410.109 232.915 421.319 237.989C422.975 238.734 424.561 239.645 426.136 240.551C433.41 244.738 435.227 248.734 433.606 257.014H433.601Z" fill="#FFE380"/>
<path d="M378.064 301.95C377.133 300.938 377.058 300.526 378.084 299.579C379.544 298.225 380.934 296.736 382.061 295.105C385.826 289.649 386.586 283.534 385.273 277.192C384.442 273.155 381.215 271.716 377.511 273.573C375.965 274.348 374.435 275.39 373.297 276.663C371.329 278.868 369.442 281.213 367.932 283.745C364.997 288.642 360.935 291.562 355.267 292.548C346.861 294.018 340.342 298.618 335.117 305.252C328.603 313.526 324.42 322.938 321.405 332.949C321.133 333.85 320.499 334.822 319.749 335.38C302.292 348.33 283.003 357.159 261.55 361.064C261.092 361.145 260.613 361.085 260.14 361.095C260.291 360.657 260.367 360.184 260.593 359.796C263.593 354.526 266.664 349.297 269.614 344.002C275.251 333.89 280.985 323.819 285.012 312.907C288.243 304.149 290.201 295.206 288.027 285.849C287.685 284.364 288.027 284.148 289.411 284.117C299.187 283.941 306.566 279.472 311.695 271.273C313.236 268.817 314.615 266.23 315.773 263.577C319.558 254.845 321.123 245.604 321.586 236.162C321.652 234.823 321.924 234.304 323.404 234.234C324.743 234.168 326.162 233.705 327.365 233.076C333.4 229.941 337.035 222.919 336.068 216.22C335.877 214.912 336.209 214.589 337.417 214.358C340.166 213.829 342.516 212.465 344.49 210.477C348.658 206.285 350.857 201.141 351.023 195.312C351.119 191.965 350.888 188.452 349.971 185.251C348.169 178.98 346.141 172.729 343.579 166.734C338.847 155.676 330.32 148.046 319.88 142.489C309.873 137.154 299.353 133.289 288.007 131.834C282.852 131.18 277.773 129.806 272.609 129.298C262.033 128.256 251.935 129.947 242.779 135.74C238.833 138.236 234.917 140.778 230.915 143.184C220.903 149.214 210.216 150.774 198.906 147.739C189.135 145.117 179.43 142.233 169.605 139.847C158.908 137.255 148.025 135.891 136.971 136.666C129.305 137.205 125.515 140.225 123.335 147.508C122.902 148.957 122.454 150.412 121.9 151.811C120.753 154.725 118.472 156.22 115.437 156.285C113.212 156.336 110.942 156.154 108.757 155.737C101.534 154.353 94.3108 153.26 86.9113 153.759C75.6812 154.509 68.936 160.332 66.842 171.299C65.6994 177.289 66.1826 183.248 67.1944 189.197C68.0199 194.034 69.4394 198.619 72.5099 202.565C75.0721 205.862 75.6308 205.313 71.8254 208.167C67.2951 211.565 64.5467 215.878 64.1591 221.591C63.8923 225.471 64.597 229.201 65.9913 232.799C68.2817 238.698 72.3136 243.062 77.8004 246.147C79.8742 247.31 79.8591 247.33 77.8809 248.795C76.7584 249.625 75.6409 250.466 74.5335 251.306C72.7012 252.701 72.7717 252.665 71.6794 250.662C68.8404 245.448 66.1675 240.133 62.9862 235.135C60.1825 230.731 55.8736 228.033 50.694 227.067C48.0815 226.583 45.4086 226.312 42.7559 226.216C32.5123 225.864 22.2587 225.758 12.0202 225.3C-3.06571 224.621 -18.1365 223.715 -33.2174 222.904C-33.2174 223.025 -33.2174 223.141 -33.2174 223.262C-39.9424 223.262 -46.6775 223.136 -53.4025 223.307C-58.6828 223.438 -62.5034 226.09 -64.4867 231.033C-65.6545 233.952 -66.5605 236.977 -67.5522 239.962C-69.022 244.361 -69.0421 248.744 -67.532 253.159C-64.0236 263.416 -60.5654 273.699 -57.0771 283.961C-56.3824 285.995 -56.3472 285.96 -58.3808 285.663C-62.3121 285.084 -65.8508 286 -68.9113 288.572C-74.106 292.926 -75.4148 299.222 -72.3392 305.287C-70.0287 309.827 -66.48 313.29 -62.4581 316.289C-61.4514 317.044 -61.3758 317.412 -62.3826 318.237C-66.0018 321.212 -67.1545 325.113 -66.3944 329.647C-65.2417 336.583 -61.6376 342.165 -56.5787 346.851C-54.671 348.617 -52.5115 350.107 -50.4628 351.718C-49.9796 352.1 -49.3454 352.402 -50.2716 353.021C-53.0954 354.919 -53.5132 357.707 -52.9193 360.747C-52.4914 362.942 -51.9679 365.136 -51.2783 367.255C-47.3319 379.35 -40.6421 389.285 -28.8985 395.083C-26.8297 396.1 -24.8464 396.89 -25.4907 399.754C-25.5008 399.81 -25.4807 399.875 -25.4605 399.935C-23.1451 407.067 -21.0309 414.28 -18.4436 421.316C-16.5207 426.556 -12.6398 430.336 -7.742 433.018C-3.02544 435.605 1.9579 437.412 7.28857 438.258C8.08893 438.389 9.04029 439.033 9.48325 439.718C12.1763 443.895 14.6528 448.208 17.371 452.376C19.9785 456.367 23.789 458.688 28.4049 459.82C32.9855 460.942 37.5712 460.459 42.1518 459.971C43.4354 459.835 44.3264 460.107 45.2626 460.932C62.654 476.299 81.1478 490.225 100.306 503.296C101.564 504.152 102.702 505.365 103.507 506.654C113.383 522.478 121.186 539.233 125.877 557.353C126.421 559.461 127.558 560.287 129.154 559.904C130.719 559.532 131.323 558.188 130.85 556.104C130.795 555.873 130.704 555.641 130.644 555.41C126.592 539.294 119.726 524.375 111.657 509.91C108.325 503.941 104.096 499.27 98.3478 495.45C82.376 484.83 67.2447 473.062 52.6924 460.56C52.1991 460.132 51.7863 459.614 51.3333 459.141C51.9272 458.944 52.5061 458.662 53.1152 458.572C60.9778 457.449 68.8354 456.347 76.698 455.26C91.2805 453.242 105.873 451.249 120.456 449.205C121.855 449.009 122.756 449.371 123.748 450.448C127.151 454.153 130.714 457.706 134.218 461.32C134.56 461.667 134.918 461.994 135.295 462.301C136.634 463.389 138.038 463.409 139.045 462.372C140.097 461.29 139.991 459.81 138.723 458.506C135.466 455.159 132.073 451.933 128.953 448.47C113.479 431.282 104.912 411.109 103.316 388.037C102.234 372.389 103.236 356.761 103.754 341.123C103.814 339.351 103.638 337.459 103.064 335.788C99.1784 324.418 94.5726 313.335 88.517 302.921C82.6125 292.775 81.1326 282.019 83.6545 270.654C84.6713 266.079 85.975 261.584 88.9902 257.839C90.3694 256.133 91.4114 256.078 92.549 257.94C94.0189 260.356 95.4082 262.893 96.3545 265.55C98.1364 270.563 99.5307 275.722 101.182 280.791C102.722 285.502 104.761 290.026 108.481 293.414C112.996 297.516 116.127 302.433 118.387 308.025C120.999 314.467 125.248 319.697 130.614 324.061C132.964 325.973 135.265 327.961 137.721 329.738C146.097 335.793 151.811 343.781 155.369 353.439C158.153 360.999 160.997 368.549 164.078 375.993C174.236 400.544 181.091 425.967 184.635 452.29C184.957 454.666 185.224 457.243 186.342 459.271C201.181 486.018 214.228 513.619 226.364 541.679C226.576 542.178 226.792 542.691 227.094 543.134C227.834 544.246 228.906 544.558 230.114 544.08C231.423 543.562 231.927 542.49 231.625 541.136C231.474 540.436 231.136 539.767 230.849 539.102C218.779 511.289 205.998 483.823 191.093 457.384C190.63 456.564 190.343 455.597 190.177 454.666C188.415 444.705 186.875 434.699 184.917 424.779C181.741 408.738 176.506 393.312 170.511 378.127C170.183 377.306 170.048 376.189 170.334 375.389C172.081 370.481 173.934 365.609 175.872 360.772C176.113 360.163 177.004 359.444 177.633 359.398C185.224 358.905 192.226 356.58 198.87 352.976C199.605 352.578 200.597 352.483 201.458 352.533C205.027 352.745 208.58 353.182 212.144 353.298C213.755 353.349 213.78 353.651 213.186 354.989C209.174 364.039 206.501 373.431 206.215 383.407C205.897 394.636 209.21 404.345 218.275 411.517C226.027 417.652 235.083 418.598 244.501 417.708C253.687 416.832 262.446 414.179 270.943 410.711C301.492 398.249 328.125 379.335 354.411 359.882C356.409 358.402 358.272 356.736 360.16 355.12C366.381 349.8 372.673 344.561 378.769 339.1C381.87 336.326 384.351 332.929 385.323 328.792C387.714 318.585 385.187 309.6 378.084 301.93L378.064 301.95ZM317.026 237.531C316.402 246.283 314.816 254.825 311.167 262.883C309.148 267.332 306.601 271.424 302.901 274.726C299.187 278.042 294.702 279.266 289.899 279.683C289.421 279.729 288.802 279.568 288.47 279.809C286.406 281.294 286.064 279.673 285.419 278.289C280.788 268.344 273.545 260.507 265.3 253.491C263.548 252.001 261.721 250.582 259.863 249.223C258.847 248.478 259.088 248.14 260.045 247.652C262.687 246.298 265.325 244.934 267.907 243.47C268.818 242.951 269.488 242.961 270.384 243.5C274.406 245.936 278.684 247.733 283.381 248.412C289.819 249.333 295.925 248.125 301.819 245.589C307.069 243.329 311.61 240.037 315.556 235.915C315.964 235.492 316.442 235.145 316.89 234.762C316.955 235.376 317.041 236.001 317.081 236.62C317.101 236.917 317.046 237.224 317.026 237.526V237.531ZM313.689 231.224C307.115 238.744 299.031 243.434 288.898 244.149C283.441 244.537 278.473 242.921 273.787 240.289C266.76 236.328 261.072 230.831 256.018 224.621C255.786 224.339 255.565 224.047 255.343 223.76C254.447 222.607 253.41 221.822 251.94 222.783C250.737 223.569 250.566 225.048 251.83 226.412C255.696 230.58 259.637 234.687 263.669 238.698C264.686 239.71 265.058 240.057 263.533 240.883C253.667 246.228 243.373 250.395 232.289 252.444C231.871 252.514 231.463 252.635 231.056 252.746C229.817 253.088 229.198 253.924 229.38 255.182C229.586 256.551 230.542 257.15 231.871 257.009C232.948 256.898 234.036 256.702 235.073 256.395C240.927 254.633 246.776 252.867 252.59 251.004C253.722 250.642 254.377 250.692 255.474 251.377C257.719 252.776 258.479 254.729 258.962 257.125C259.773 261.076 260.327 265.052 259.647 269.038C257.931 279.14 248.185 286.005 237.826 284.666C230.532 283.725 224.296 280.645 218.909 275.722C213.297 270.588 208.943 264.488 205.369 257.814C205.062 257.24 205.022 256.42 205.107 255.746C205.892 249.535 206.703 243.289 204.8 237.168C203.733 233.731 204.05 230.469 205.001 227.177C206.501 221.978 211.012 218.45 216.367 218.223C216.75 218.203 217.198 218.384 217.535 218.596C219.967 220.106 222.534 219.985 225.076 219.109C230.029 217.398 234.302 214.474 238.027 210.885C239.089 209.863 239.331 207.86 239.663 206.244C239.895 205.132 240.071 204.362 241.36 204.08C242.784 203.763 243.615 202.767 243.137 201.247C242.658 199.752 241.475 199.465 240.056 199.872C235.828 201.075 232.329 199.651 229.586 196.53C225.197 191.548 223.712 185.694 225.504 179.257C227.175 173.277 233.522 170.781 238.636 174.314C241.093 176.01 243.021 178.602 244.838 181.043C245.578 182.035 245.165 183.807 245.679 185.05C246.424 186.847 247.194 188.865 248.563 190.118C251.477 192.791 255.519 191.83 258.087 188.191C260.664 184.536 261.746 180.278 262.577 175.995C262.989 173.891 263.659 172.623 265.959 172.034C268.149 171.47 270.268 170.373 272.201 169.16C275.866 166.855 279.555 166.941 283.255 168.712C284.926 169.512 286.411 170.741 287.891 171.883C288.933 172.683 289.96 173.428 291.057 172.215C292.235 170.922 291.349 169.885 290.332 168.979C287.146 166.135 283.572 164.072 279.002 163.543C280.049 162.164 280.924 160.946 281.896 159.814C282.027 159.658 282.842 159.768 282.983 159.99C286.401 165.35 291.606 166.387 297.314 165.647C302.947 164.922 307.351 162.189 309.621 156.688C309.868 156.084 310.105 155.485 310.512 154.468C310.799 154.977 310.93 155.183 311.036 155.394C314.177 161.47 317.318 167.545 320.434 173.635C320.61 173.977 320.585 174.42 320.65 174.817C320.258 174.747 319.845 174.722 319.472 174.591C309.153 170.917 300.254 176.212 298.874 187.275C298.326 191.668 298.769 196.203 299.005 200.663C299.081 202.112 299.051 203.089 297.606 203.723C296.841 204.06 295.96 204.468 295.512 205.117C295.084 205.736 294.822 206.848 295.104 207.468C295.326 207.951 296.68 208.414 297.198 208.172C298.99 207.317 300.843 206.375 302.252 205.021C302.952 204.342 303.027 202.666 302.871 201.513C302.232 196.747 301.784 192.016 302.645 187.219C304.563 176.453 314.519 174.707 322.201 180.434C322.674 180.792 323.036 181.496 323.172 182.1C324.149 186.409 325.543 190.707 325.83 195.066C326.082 198.866 325.251 202.777 324.566 206.582C322.935 215.651 319.865 224.152 313.684 231.224H313.689ZM324.642 229.392C323.842 229.699 322.82 229.447 321.904 229.452C322.024 228.597 321.979 227.681 322.291 226.906C323.831 223.101 325.442 219.321 327.088 215.556C327.3 215.058 327.974 214.287 328.236 214.363C329.343 214.675 331.004 213.935 331.432 215.727C331.659 216.663 331.744 217.635 331.83 218.178C331.84 222.738 328.447 227.958 324.642 229.397V229.392ZM68.6894 222.814C68.634 218.787 70.1391 215.37 73.3757 212.813C74.6593 211.801 75.958 210.794 77.151 209.677C79.6376 207.357 80.0957 204.81 77.9665 202.253C70.6626 193.49 70.129 183.198 71.2566 172.648C72.1626 164.162 77.2617 159.456 85.7737 158.465C87.6362 158.248 89.5137 158.153 91.3862 158.002C91.4114 157.896 91.4416 157.79 91.4617 157.675C97.321 158.586 103.165 159.597 109.039 160.372C111.657 160.715 114.365 160.896 116.972 160.619C121.447 160.141 124.518 157.518 126.154 153.331C126.884 151.474 127.463 149.551 127.996 147.628C128.938 144.236 131.082 142.016 134.565 141.689C138.889 141.282 143.273 140.985 147.602 141.186C161.203 141.82 174.246 145.363 187.253 149.118C192.941 150.764 198.704 152.319 204.533 153.301C213.554 154.826 222.191 152.969 230.2 148.67C234.891 146.149 239.381 143.234 243.851 140.33C251.15 135.594 259.124 133.274 267.792 133.601C272.08 133.767 276.399 134.099 280.622 134.814C289.094 136.248 297.551 137.768 305.63 140.914C312.093 143.431 318.315 146.37 324.028 150.341C331.236 155.344 336.687 161.802 340.11 169.88C343.211 177.198 346.075 184.617 346.553 192.675C346.861 197.844 345.421 202.51 342.043 206.501C338.671 210.482 334.236 210.724 329.56 209.899C329.243 209.838 328.81 208.957 328.87 208.509C329.288 205.203 329.912 201.931 330.3 198.619C330.939 193.128 329.233 187.929 327.974 182.704C325.105 170.756 319.563 160.025 312.762 149.888C311.866 148.549 310.804 147.709 309.148 148.096C307.467 148.489 306.717 149.667 306.425 151.333C305.136 158.782 299.358 162.642 291.988 161.082C288.576 160.357 286.562 158.354 285.928 154.916C285.646 153.401 285.691 151.579 283.617 151.242C281.539 150.905 281.05 152.707 280.27 154.02C275.951 161.273 270.213 166.734 261.716 168.712C259.848 169.145 259.159 170.479 258.756 172.205C257.986 175.507 257.181 178.799 256.179 182.035C255.736 183.449 254.92 184.808 254.024 186.001C252.872 187.536 251.195 187.295 250.491 185.508C250.063 184.416 250.098 183.142 249.831 181.975C249.6 180.943 249.484 179.755 248.89 178.945C247.194 176.599 245.497 174.173 243.398 172.215C239.316 168.395 234.388 167.288 229.057 169.15C223.837 170.967 221.421 175.18 220.626 180.309C219.549 187.244 221.24 193.556 225.725 199.017C227.774 201.508 230.371 203.265 233.462 204.236C235.41 204.85 236.009 206.808 234.423 208.167C231.005 211.081 227.416 213.829 222.962 214.982C221.965 215.239 220.555 215.118 219.72 214.574C213.403 210.467 206.3 208.746 199.016 207.669C180.976 205.001 163.499 208.011 146.314 213.316C124.649 220.015 104.801 230.474 86.0506 243.097C84.6562 244.033 83.6243 244.114 82.1243 243.364C73.5922 239.136 68.8052 232.482 68.6844 222.819L68.6894 222.814ZM-62.8004 250.999C-63.797 248.085 -63.7769 245.166 -62.8507 242.247C-61.9598 239.418 -61.0789 236.584 -60.1225 233.776C-58.8791 230.102 -56.1912 228.325 -52.3958 228.325C-43.4207 228.325 -34.4406 228.184 -25.4807 228.516C-3.9768 229.301 17.5271 230.318 39.031 231.274C42.4136 231.425 45.8163 231.591 49.1688 232.06C53.1907 232.628 56.4576 234.757 58.7579 238.089C60.5801 240.722 62.2865 243.465 63.7161 246.329C68.1961 255.262 72.5301 264.277 76.8943 273.271C77.2064 273.905 77.5084 274.635 77.5084 275.325C77.5688 279.774 77.5386 284.223 77.5386 289.07C77.0554 288.104 76.698 287.434 76.3708 286.75C69.5955 272.662 62.8453 258.564 56.0297 244.491C52.0279 236.227 51.6252 238.054 45.4187 237.823C27.9065 237.173 10.3943 236.453 -7.11782 235.824C-18.6298 235.412 -30.1469 235.084 -41.664 234.788C-43.2244 234.742 -44.8352 234.913 -46.3453 235.281C-49.1088 235.95 -50.4779 237.777 -50.2111 240.611C-50.0299 242.513 -49.5568 244.441 -48.9074 246.243C-38.6639 274.877 -28.365 303.49 -18.0862 332.109C-17.7993 332.894 -17.5224 333.679 -17.2355 334.474C-17.452 334.54 -17.608 334.62 -17.6533 334.585C-22.4907 330.025 -28.0428 326.456 -33.6705 322.973C-34.3853 322.531 -35.0799 321.615 -35.246 320.809C-37.0732 312.182 -40.8435 304.316 -44.664 296.464C-45.2983 295.17 -46.0785 293.872 -47.055 292.83C-49.1138 290.635 -50.2162 288.003 -51.1524 285.23C-55.0233 273.815 -58.9244 262.409 -62.8054 251.004L-62.8004 250.999ZM-63.6712 308.307C-65.4682 306.409 -66.9934 304.134 -68.1663 301.789C-70.7385 296.615 -65.6243 290.58 -60.3943 290.706C-57.3892 290.953 -54.3438 291.536 -52.3454 294.466C-51.53 295.664 -50.3773 296.7 -49.8185 297.999C-46.8084 304.985 -43.9241 312.026 -41.0398 319.058C-40.8485 319.516 -40.9592 320.094 -40.929 320.618C-41.4425 320.558 -41.9811 320.578 -42.4693 320.422C-50.4075 317.91 -57.8523 314.452 -63.6762 308.307H-63.6712ZM-61.0839 329.909C-62.0856 325.772 -60.9329 323.019 -57.359 321.005C-56.7902 320.688 -55.7985 320.603 -55.2398 320.885C-49.9091 323.572 -44.3117 325.475 -38.528 326.894C-38.0548 327.01 -37.5615 327.096 -37.1387 327.317C-27.3029 332.461 -17.8849 339.326 -13.1582 349.715C-12.3025 351.582 -10.2941 357.199 -10.3192 361.2C-10.3394 364.326 -11.5978 366.475 -15.6046 365.106C-16.405 364.834 -17.2355 364.583 -17.9604 364.165C-28.4153 358.19 -39.0011 352.428 -49.2346 346.096C-55.1945 342.417 -59.3875 336.94 -61.0839 329.909ZM-47.05 363.279C-47.4124 362.006 -47.6037 360.682 -47.8453 359.378C-48.1322 357.848 -47.3671 357.123 -45.9225 356.922C-44.0348 356.66 -42.2982 356.721 -40.5163 357.758C-34.7628 361.11 -28.9539 364.376 -23.0796 367.507C-19.6617 369.329 -16.113 370.929 -12.1062 371.04C-11.6481 371.055 -11.1548 371.257 -10.7471 371.503C-5.30569 374.709 0.00483704 378.147 4.26836 382.853C6.1862 384.972 7.74664 387.494 9.09566 390.035C11.8189 395.184 2.19448 395.667 -0.634445 395.788C-6.95674 396.055 -13.2388 395.481 -19.2691 393.518C-20.6685 393.065 -22.9336 391.585 -24.3531 391.585C-36.887 386.114 -43.4711 375.907 -47.0601 363.284L-47.05 363.279ZM-6.4131 367.869C-6.07082 367.396 -5.8745 367.119 -5.67316 366.837C-5.39127 367.316 -5.08925 367.784 -4.84763 368.277C-4.81239 368.352 -5.14462 368.71 -5.16476 368.695C-5.57751 368.453 -5.96511 368.176 -6.4131 367.869ZM10.0017 403.283C11.2903 406.534 12.6494 409.76 13.9381 413.012C14.1545 413.58 14.1696 414.235 14.2753 414.844C14.2954 414.864 14.3861 414.803 14.3861 414.803L14.3156 414.874C12.1763 412.966 9.96146 411.2 8.02852 409.161C6.00498 407.032 4.25829 404.636 2.4059 402.346C1.77165 401.556 1.96294 401.053 3.01498 400.922C3.67439 400.841 4.32877 400.736 4.98315 400.595C8.67283 399.805 8.64262 399.81 10.0068 403.267L10.0017 403.283ZM9.70473 433.129C-0.423035 433.295 -11.0944 426.4 -14.6985 416.968C-16.7724 411.557 -18.2976 405.93 -20.0946 400.414C-20.593 398.874 -20.1198 398.803 -18.6802 399.08C-14.3562 399.91 -9.99205 400.575 -5.63288 401.219C-4.62112 401.37 -3.81573 401.456 -3.3174 402.548C-0.996872 407.611 2.59214 411.648 6.87581 415.151C8.65269 416.605 10.339 418.196 11.8793 419.892C13.8978 422.127 14.7938 424.875 14.8844 427.205C14.8945 431.554 13.3995 433.069 9.70977 433.124L9.70473 433.129ZM111.994 434.297C114.008 437.176 115.85 440.181 117.818 443.085C118.483 444.071 118.347 444.388 117.184 444.549C103.855 446.351 90.5255 448.168 77.2013 450.01C67.1793 451.394 57.1774 452.95 47.1352 454.163C41.9253 454.787 36.6399 455.139 31.3999 455.049C27.1364 454.978 23.648 452.774 21.3023 449.094C19.1177 445.667 17.0086 442.199 14.9297 438.711C14.7283 438.369 14.824 437.422 15.0656 437.292C19.158 435.072 20.1496 431.378 20.1043 427.14C20.1043 426.979 20.1748 426.818 20.2956 426.339C21.1413 427.809 21.8007 429.072 22.5658 430.27C24.1615 432.772 25.6917 435.334 27.4787 437.689C30.3378 441.454 34.3094 442.778 38.9202 442.214C54.9172 440.231 70.9042 438.213 86.9012 436.204C94.5927 435.238 102.289 434.236 109.991 433.346C110.63 433.275 111.622 433.753 111.999 434.292L111.994 434.297ZM97.6985 341.979C98.1616 342.975 98.3076 344.198 98.2975 345.311C98.1817 358.281 97.7085 371.257 97.925 384.222C98.1716 399.503 101.715 414.114 108.606 427.824C109.387 429.379 108.999 429.702 107.489 429.888C95.5189 431.357 83.5589 432.877 71.5938 434.372C61.3704 435.646 51.147 436.904 40.9236 438.167C39.9622 438.283 38.9907 438.359 38.0292 438.469C34.6365 438.867 31.8982 437.659 30.0156 434.871C28.0173 431.911 25.8981 428.967 24.388 425.751C20.2654 416.988 16.4549 408.079 12.4934 399.236C12.0706 398.295 12.1159 397.605 12.9062 396.82C14.8391 394.882 15.1763 392.476 14.5572 389.904C13.7115 386.396 11.839 383.396 9.44299 380.804C7.1879 378.363 4.60058 376.234 2.21965 373.909C1.5099 373.209 0.75988 372.399 0.432693 371.493C-14.7892 329.587 -29.9657 287.666 -45.1271 245.74C-45.6808 244.21 -46.0332 242.599 -46.3956 241.014C-46.6876 239.72 -46.1641 238.869 -44.7647 238.759C-43.4358 238.653 -42.1069 238.487 -40.778 238.532C-27.927 238.94 -15.0761 239.398 -2.23012 239.821C-0.533768 239.876 1.16258 239.821 2.85893 239.821C2.85893 239.921 2.85893 240.022 2.85893 240.118C18.1915 240.621 33.5291 241.109 48.8567 241.693C49.6117 241.723 50.6436 242.493 51.0212 243.203C53.1353 247.154 55.1941 251.14 57.0968 255.202C70.6676 284.112 84.1982 313.043 97.7035 341.979H97.6985ZM174.512 351.124C172.479 356.957 170.254 362.725 168.1 368.519C167.943 368.936 167.631 369.294 167.395 369.681C167.148 369.294 166.816 368.931 166.655 368.508C164.541 363.022 162.366 357.566 160.368 352.035C156.467 341.239 150.079 332.35 140.767 325.54C136.418 322.359 136.508 322.218 137.988 317.095C142.307 302.051 145.579 286.775 147.874 271.303C148.081 269.884 147.779 268.283 147.326 266.894C146.641 264.77 145.639 262.742 144.728 260.698C144.159 259.425 143.178 258.76 141.799 259.339C140.439 259.908 140.178 261.051 140.656 262.369C141.028 263.391 141.381 264.448 141.914 265.389C143.48 268.177 143.49 271.041 142.966 274.147C140.535 288.617 137.399 302.926 133.337 317.029C132.738 319.113 132.753 319.088 131.208 317.658C127.719 314.442 125.062 310.627 123.275 306.248C120.687 299.942 117.214 294.295 112.075 289.684C109.024 286.946 107.419 283.201 106.17 279.371C104.539 274.363 103.115 269.28 101.418 264.297C100.588 261.841 99.4351 259.48 98.2472 257.17C97.5928 255.892 96.6867 254.699 95.6951 253.657C92.7051 250.506 89.0607 250.466 85.9297 253.506C82.8743 256.465 81.334 260.291 79.985 264.211C79.8138 264.7 79.542 265.163 79.3205 265.641C78.9833 265.178 78.5705 264.76 78.3188 264.262C77.3372 262.309 76.4866 260.291 75.4245 258.388C74.7499 257.175 75.0016 256.521 76.0587 255.71C85.0639 248.785 94.5021 242.518 104.343 236.866C121.775 226.855 140.002 218.767 159.693 214.318C171.165 211.721 182.758 210.387 194.526 211.575C199.837 212.108 205.062 213.059 210.463 215.017C209.748 215.4 209.446 215.591 209.124 215.737C204.855 217.629 202.172 220.906 200.859 225.33C200.552 226.367 200.235 227.057 198.901 227.213C197.214 227.409 196.812 228.914 197.536 230.776C198.694 233.761 200.053 236.71 200.798 239.801C202.177 245.513 201.246 251.261 200.31 256.954C194.999 289.241 185.254 320.326 174.502 351.124H174.512ZM302.182 389.98C287.151 398.672 271.884 406.866 254.925 411.255C247.606 413.148 240.197 414.245 232.611 412.956C220.852 410.963 212.119 401.44 210.946 389.517C209.829 378.187 212.728 367.658 216.916 357.33C217.339 356.293 217.122 355.015 217.44 353.912C217.565 353.449 218.25 352.986 218.769 352.825C221.945 351.854 225.317 351.345 228.307 349.981C239.628 344.832 246.851 335.813 251.296 324.433C252.504 321.343 253.365 318.106 254.216 314.885C254.553 313.602 255.132 312.756 256.259 312.097C258.56 310.748 260.795 309.288 263.06 307.874C264.348 307.074 265.078 305.992 264.203 304.547C263.317 303.087 262.028 303.274 260.734 304.079C257.956 305.8 255.056 307.371 252.429 309.308C251.336 310.114 250.586 311.629 250.103 312.978C248.623 317.13 247.727 321.534 245.915 325.525C241.284 335.753 234.116 343.564 223.153 347.168C215.945 349.538 208.56 349.161 201.196 347.918C198.151 347.409 195.145 346.71 192.12 346.071C190.716 345.774 189.548 345.975 189.014 347.48C188.551 348.773 189.276 349.77 190.983 350.384C191.4 350.535 191.778 350.787 192.176 350.993C191.788 351.24 191.431 351.607 191.013 351.728C187.404 352.724 183.8 353.786 180.15 354.597C178.031 355.07 177.95 354.843 178.716 352.729C186.125 332.073 192.608 311.135 197.979 289.855C199.978 281.933 201.579 273.915 203.371 265.933C203.471 265.48 203.637 265.042 203.859 264.282C204.387 265.057 204.76 265.585 205.122 266.124C209.295 272.441 214.072 278.239 220.359 282.572C227.864 287.746 236.11 290.444 245.276 288.753C257.709 286.468 265.854 275.078 264.333 262.46C264.182 261.202 264.031 259.948 263.86 258.529C264.162 258.62 264.399 258.625 264.535 258.75C271.219 264.75 277.053 271.414 281.065 279.547C285.309 288.154 285.173 296.952 282.57 305.931C280.159 314.246 276.49 322.022 272.342 329.577C266.483 340.257 260.462 350.847 254.432 361.437C254.095 362.031 253.143 362.484 252.419 362.6C249.61 363.047 246.771 363.334 243.942 363.682C241.969 363.923 241.063 364.718 241.259 366.138C241.516 368.005 242.905 368.252 244.39 368.035C251.221 367.034 258.107 366.299 264.842 364.854C271.693 363.38 278.392 361.19 285.158 359.318C285.616 359.197 286.084 359.122 286.547 359.026C286.502 359.534 286.547 360.068 286.411 360.551C284.659 366.495 284.287 372.364 287.388 378.021C290.579 383.834 295.401 387.473 301.95 388.772C302.312 388.842 302.65 389.104 302.992 389.27C302.725 389.502 302.489 389.789 302.187 389.965L302.182 389.98ZM375.96 335.41C370.333 340.992 364.025 345.889 358.005 351.074C356.032 352.775 354.124 354.582 351.995 356.077C338.464 365.579 324.878 375.006 311.308 384.459C311.016 384.66 310.668 384.836 310.321 384.911C302.373 386.567 293.322 381.615 290.473 374.045C288.842 369.721 289.638 365.478 290.861 361.215C291.777 358.019 293.393 355.91 296.655 354.451C306.309 350.122 315.199 344.415 323.625 338.018C324.571 337.298 325.261 335.954 325.598 334.766C328.921 323.185 333.823 312.479 342.516 303.863C346.1 300.304 350.49 298.205 355.398 297.123C356.938 296.781 358.458 296.383 359.978 295.971C363.799 294.924 366.905 292.785 369.235 289.594C370.947 287.238 372.437 284.721 374.264 282.462C375.613 280.786 377.264 279.331 378.91 277.927C379.917 277.066 380.717 277.308 381.059 278.802C382.605 285.557 379.101 294.194 373.222 297.908C372.885 298.115 372.411 298.331 372.064 298.251C366.754 297.108 362.591 299.63 358.7 302.624C351.945 307.834 345.909 313.813 340.941 320.769C339.053 323.411 337.427 326.295 336.053 329.25C334.221 333.196 333.39 337.398 334.045 341.813C335.062 348.673 341.344 351.793 347.298 348.21C348.899 347.243 349.166 347.792 349.332 349.226C349.513 350.746 350.283 351.818 351.955 351.547C353.651 351.27 353.852 349.976 353.681 348.487C352.926 341.853 351.285 340.187 344.661 339.427C343.372 339.281 342.32 339.653 341.978 341.017C341.641 342.356 342.305 343.217 343.553 343.68C343.991 343.841 344.424 344.027 344.918 344.228C342.456 345.955 339.823 345.321 338.938 342.698C337.488 338.395 338.656 334.318 340.478 330.397C340.664 330 341.59 329.793 342.189 329.763C347.626 329.446 352.539 330.901 356.666 334.504C358.579 336.17 360.306 338.053 362.072 339.88C363.089 340.922 364.166 341.44 365.405 340.408C366.638 339.382 366.421 338.169 365.495 337.041C360.064 330.448 353.671 325.54 344.676 325.243C343.518 325.203 343.392 324.816 344.067 323.99C346.262 321.323 348.411 318.62 350.701 316.033C351.079 315.605 352.126 315.474 352.765 315.62C360.024 317.266 365.541 321.272 369.004 327.941C369.759 329.391 370.428 330.886 371.148 332.355C371.752 333.568 372.739 334.051 374.002 333.533C375.256 333.015 375.724 331.963 375.17 330.699C374.299 328.706 373.539 326.602 372.311 324.836C370.781 322.626 370.272 320.24 370.02 317.694C369.91 316.546 369.799 315.399 369.598 314.266C369.391 313.083 368.702 312.031 367.458 312.263C366.633 312.414 365.546 313.209 365.284 313.964C364.755 315.474 364.332 315.701 362.883 314.9C360.779 313.738 358.493 312.877 356.263 311.941C355.539 311.634 355.141 311.347 355.936 310.753C359.233 308.297 362.41 305.659 365.883 303.49C368.918 301.598 371.908 302.433 374.546 304.784C383.244 312.54 384.16 327.262 375.94 335.415L375.96 335.41Z" fill="black"/>
<path d="M77.5385 289.07C77.0553 288.104 76.6979 287.434 76.3707 286.75C69.5954 272.662 62.8452 258.564 56.0296 244.491C52.0278 236.227 51.6252 238.054 45.4186 237.823C27.9065 237.173 10.3943 236.453 -7.11788 235.824C-18.6299 235.412 -30.147 235.084 -41.664 234.788C-43.2245 234.742 -44.8352 234.913 -46.3453 235.281C-49.1088 235.95 -50.478 237.777 -50.2112 240.611C-50.03 242.513 -49.5568 244.441 -48.9075 246.243C-38.6639 274.877 -28.365 303.49 -18.0863 332.109C-17.7993 332.894 -17.5225 333.679 -17.2356 334.474C-17.452 334.54 -17.6081 334.62 -17.6534 334.585C-22.4907 330.025 -28.0429 326.456 -33.6705 322.973C-34.3853 322.531 -35.08 321.615 -35.2461 320.809C-37.0733 312.182 -40.8435 304.316 -44.6641 296.464C-45.2983 295.17 -46.0786 293.872 -47.0551 292.83C-49.1139 290.635 -50.2162 288.003 -51.1525 285.23C-55.0234 273.815 -58.9245 262.409 -62.8055 251.004C-63.8021 248.09 -63.782 245.171 -62.8558 242.252C-61.9648 239.423 -61.084 236.589 -60.1276 233.781C-58.8842 230.107 -56.1962 228.33 -52.4009 228.33C-43.4258 228.33 -34.4457 228.189 -25.4858 228.521C-3.9819 229.306 17.522 230.323 39.0258 231.279C42.4085 231.43 45.8112 231.596 49.1637 232.065C53.1856 232.633 56.4525 234.762 58.7528 238.094C60.575 240.727 62.2814 243.47 63.711 246.334C68.191 255.267 72.525 264.282 76.8892 273.276C77.2013 273.91 77.5033 274.64 77.5033 275.33C77.5637 279.779 77.5335 284.228 77.5335 289.075L77.5385 289.07Z" fill="black"/>
<path d="M14.271 414.844C12.1669 412.971 9.95713 411.205 8.02419 409.166C6.00065 407.037 4.25397 404.641 2.40158 402.351C1.76733 401.561 1.95861 401.058 3.01065 400.927C3.67007 400.847 4.32444 400.741 4.97882 400.6C8.6685 399.81 8.63831 399.815 10.0024 403.272C11.2911 406.524 12.6501 409.75 13.9388 413.002C14.1552 413.57 14.1703 414.225 14.276 414.834L14.271 414.844Z" fill="black"/>
<path d="M117.185 444.549C103.855 446.351 90.5263 448.168 77.2021 450.01C67.1801 451.394 57.1781 452.95 47.136 454.163C41.9261 454.787 36.6407 455.139 31.4007 455.048C27.1371 454.978 23.6488 452.773 21.3031 449.094C19.1185 445.667 17.0094 442.199 14.9305 438.711C14.7291 438.369 14.8248 437.422 15.0664 437.292C19.1588 435.072 20.1504 431.378 20.1051 427.14C20.1051 426.979 20.1756 426.818 20.2964 426.339C21.142 427.809 21.8014 429.072 22.5666 430.27C24.1622 432.772 25.6925 435.334 27.4794 437.689C30.3386 441.454 34.3101 442.778 38.921 442.214C54.918 440.231 70.905 438.213 86.902 436.204C94.5935 435.238 102.29 434.236 109.992 433.346C110.631 433.275 111.622 433.753 112 434.292C114.013 437.171 115.856 440.176 117.824 443.08C118.488 444.066 118.352 444.383 117.19 444.544L117.185 444.549Z" fill="black"/>
<path d="M238.214 117.958C237.852 114.968 237.509 112.482 237.263 109.98C237.107 108.41 237.872 107.247 239.055 106.216C242.472 103.231 245.845 100.186 249.192 97.1208C250.25 96.1544 251.281 95.6058 252.545 96.6476C253.612 97.5284 253.672 98.9377 252.424 100.146C249.379 103.09 246.288 105.994 243.061 108.732C241.868 109.744 241.249 110.766 241.768 112.145C242.588 114.329 243.565 116.458 244.607 118.547C244.999 119.337 245.744 119.956 246.353 120.631C247.189 121.557 247.677 122.568 246.952 123.751C246.192 124.989 245.065 125.095 243.771 124.672C238.501 122.951 233.437 120.782 228.902 117.565C227.241 116.388 225.595 115.849 223.556 115.789C216.675 115.577 210.156 113.901 204.106 110.509C187.087 100.966 187.741 83.9138 194.335 73.0321C200.421 62.9859 209.784 57.3588 220.918 54.4698C227.955 52.6427 235.048 52.4263 242.125 54.3893C256.043 58.2447 263.76 70.6111 261.037 84.7845C260.579 87.1551 259.914 89.4955 259.199 91.8057C258.686 93.4818 257.493 94.1411 256.199 93.6277C254.614 92.9986 254.599 91.7755 254.951 90.3109C255.676 87.3162 256.657 84.3214 256.869 81.2764C257.679 69.5995 251.196 60.6807 239.694 58.5013C224.175 55.562 210.866 60.1723 200.487 72.1412C195.292 78.1307 193.48 85.3331 195.277 93.2201C196.399 98.1425 199.424 101.776 203.406 104.681C208.792 108.606 214.903 110.559 221.482 111.183C222.992 111.324 224.532 111.264 226.007 111.546C227.326 111.797 228.685 112.21 229.848 112.864C232.672 114.455 235.395 116.232 238.209 117.963L238.214 117.958Z" fill="#FFCE1F"/>
<path d="M237.242 80.0231C237.041 84.2861 235.173 88.665 232.536 92.7167C231.358 94.5236 229.979 96.2449 228.438 97.7498C226.994 99.1541 225.881 98.9477 224.512 97.5284C221.351 94.2619 218.18 91.0104 215.054 87.7137C212.537 85.0562 211.228 81.9759 212.175 78.2614C212.935 75.2868 215.421 73.8021 218.28 74.8943C220.057 75.5687 221.728 76.6609 223.239 77.8387C224.457 78.7899 225.146 79.1473 225.831 77.4159C226.108 76.7062 226.677 76.0871 227.195 75.5033C229.249 73.188 231.932 72.3324 234.172 73.3139C236.829 74.4715 237.277 76.8069 237.252 80.0281L237.242 80.0231ZM232.843 79.0215C232.742 78.7446 232.541 78.196 232.339 77.6474C231.766 77.9041 230.955 77.9997 230.663 78.4426C229.807 79.7412 229.007 81.1152 228.448 82.5648C227.265 85.625 225.614 86.0175 223.183 83.803C221.582 82.3383 219.841 81.0196 218.119 79.6909C217.777 79.4241 217.238 79.414 216.79 79.2832C216.665 79.7815 216.317 80.3603 216.458 80.768C216.881 81.996 217.259 83.3751 218.084 84.3012C220.621 87.145 223.349 89.8226 226.052 92.5153C226.274 92.7368 227.135 92.762 227.265 92.5707C230.079 88.5694 232.37 84.3365 232.848 79.0164L232.843 79.0215Z" fill="white"/>
<path d="M273.173 206.29C273.193 204.654 274.336 203.582 275.725 204.1C284.192 207.241 293.182 209.355 299.977 215.933C300.239 216.185 300.637 216.406 300.717 216.713C300.888 217.368 301.19 218.259 300.898 218.691C300.546 219.21 299.665 219.451 298.965 219.638C298.095 219.864 297.083 219.703 296.293 220.065C289.19 223.287 281.952 221.575 277.462 215.229C275.81 212.893 274.763 210.125 273.475 207.533C273.268 207.115 273.243 206.602 273.173 206.3V206.29ZM289.573 217.987C290.745 217.735 291.928 217.514 293.091 217.212C293.539 217.096 293.937 216.789 294.355 216.567C294.032 216.235 293.756 215.848 293.388 215.576C289.175 212.45 284.171 211.122 279.324 209.43C279.118 209.36 278.861 209.415 278.629 209.41C278.66 209.682 278.619 209.994 278.735 210.216C280.884 214.272 283.93 217.75 289.573 217.982V217.987Z" fill="black"/>
<path d="M235.928 180.278C239.155 180.132 241.385 181.753 242.885 184.406C243.71 185.865 244.315 187.476 244.838 189.081C245.367 190.697 244.556 191.623 243.031 192.303C242.09 192.725 241.163 193.546 240.635 194.432C239.986 195.509 239.356 196.264 238.083 195.826C236.749 195.368 236.563 194.13 237.086 193.123C237.791 191.774 238.742 190.501 239.824 189.429C240.444 188.815 240.705 188.477 240.353 187.647C239.16 184.798 237.66 183.822 234.756 184.174C233.457 184.33 232.173 184.33 231.917 182.724C231.64 180.998 232.979 180.621 234.297 180.394C234.831 180.304 235.385 180.319 235.928 180.283V180.278Z" fill="black"/>
<path d="M309.471 194.044C307.301 193.999 305.172 193.808 302.987 193.506C302.595 193.455 302.247 193.053 301.88 192.811C302.177 192.484 302.419 192.036 302.786 191.85C303.969 191.251 305.192 190.737 306.41 190.204C308.711 189.202 315.672 192.358 312.763 193.803C312.315 194.024 311.791 194.039 311.288 194.044C310.679 194.054 310.07 194.054 309.471 194.039V194.044Z" fill="black"/>
<path d="M272.126 176.745C275.348 176.831 278.076 177.203 279.43 180.258C279.642 180.742 279.833 181.305 279.793 181.809C279.742 182.413 279.591 183.178 279.183 183.515C278.927 183.726 278.016 183.429 277.588 183.112C275.454 181.542 273.365 179.906 271.296 178.24C270.923 177.938 270.732 177.41 270.455 176.982C270.948 176.901 271.442 176.811 271.935 176.74C272.111 176.715 272.297 176.74 272.126 176.74V176.745Z" fill="black"/>
</g>
</g>
<defs>
<clipPath id="clip0_1347_39973">
<rect width="508.155" height="507" fill="white" transform="translate(-74 53)"/>
</clipPath>
</defs>
</svg>
