<svg width="289" height="316" viewBox="0 0 289 316" fill="none" xmlns="http://www.w3.org/2000/svg">
<g clip-path="url(#clip0_1197_11152)">
<path d="M126.085 125.454C124.733 125.649 115.054 129.379 109.402 132.262C103.751 135.144 92.3665 148.221 92.3665 148.221L69.0895 143.279C69.0895 143.279 51.0071 117.322 50.9812 117.931C50.9585 118.54 50.2683 128.233 40.9517 129.279C31.6383 130.322 22.3832 124.224 22.2083 124.356C22.0333 124.489 26.3562 142.926 32.3998 152.133C38.4402 161.341 46.7037 171.383 46.7037 171.383H95.0723C95.0723 171.383 215.689 223.912 216.192 223.708C216.691 223.504 241.724 222.711 241.724 222.711C241.724 222.711 253.672 236.419 261.414 239.405C269.155 242.391 274.486 240.918 277.902 239.405C281.317 237.893 287.669 224.022 287.089 214.385C286.509 204.747 285.786 198.069 283.229 189.033C280.672 179.998 262.765 141.919 262.765 141.919L241.53 100.566C241.53 100.566 166.708 98.8304 168.212 98.6361C169.715 98.4417 126.088 125.454 126.088 125.454H126.085Z" fill="black"/>
<path d="M221.451 29.0108C215.66 20.8853 209.325 16.0631 203.515 13.5533C197.704 11.0467 184.191 5.83585 171.064 8.34572C157.936 10.8523 143.704 13.2651 139.018 22.1354C134.332 31.0057 135.735 37.6415 136.121 42.6709C136.506 47.7036 139.209 52.4384 138.629 57.403C138.049 62.3677 134.769 67.653 131.292 71.183C127.818 74.713 122.799 79.8461 122.604 85.4811C122.41 91.1129 124.341 97.6742 126.273 100.761C128.204 103.847 129.17 106.548 127.818 108.863C126.467 111.179 119.594 119.521 119.604 125.263C119.613 131.005 124.785 139.322 131.707 140.313C138.632 141.301 147.096 137.612 149.909 133.366C152.722 129.12 152.249 121.792 155.379 117.931C158.513 114.074 161.128 110.35 165.49 109.44C169.852 108.53 203.272 117.708 206.567 116.759C209.863 115.81 223.762 109.058 223.762 109.058C223.762 109.058 244.612 116.497 253.491 132.262C262.37 148.03 273.18 167.503 273.18 167.503C273.18 167.503 289.591 153.817 287.854 139.927C286.117 126.037 278.009 122.371 278.009 119.861C278.009 117.352 281.868 105.777 275.501 96.1294C269.13 86.4818 252.528 83.4214 244.997 74.4377C237.469 65.454 234.378 49.4881 232.45 44.1607C230.518 38.83 221.445 29.014 221.445 29.014L221.451 29.0108Z" fill="#343434"/>
<path d="M214.5 219.884C215.271 219.602 233.626 219.731 235.35 221.299C237.074 222.863 251.565 268.222 253.882 272.659C256.199 277.096 258.231 281.102 257.742 284.813C257.253 288.524 249.825 287.708 249.825 287.708C249.825 287.708 228.204 240.753 224.536 239.409C220.867 238.065 173.957 239.409 173.957 239.409H132.838C132.838 239.409 111.988 226.435 110.251 225.817C108.514 225.201 37.0853 227.316 37.0853 227.316C37.0853 227.316 25.7077 196.346 24.7355 193.603C23.7634 190.86 19.421 176.698 21.563 174.991C23.705 173.284 47.6398 173.009 47.8634 173.252C48.087 173.495 39.9792 147.444 39.9792 147.444L44.9469 145.077L119.603 141.922L124.273 149.186L182.6 150.051L192.483 153.701L194.658 156.68L214.5 219.887V219.884Z" fill="white"/>
<path d="M83.4189 102.62C84.7702 101.528 88.0529 102.302 83.4189 79.5353C78.7849 56.7684 73.1884 33.4639 73.1884 33.4639L18.9414 35.4977C18.9414 35.4977 19.259 46.0682 20.9797 51.4377C22.7005 56.8072 30.9898 98.8305 32.3962 100.952C33.8026 103.073 39.5611 103.649 40.705 104.096C41.849 104.543 83.4189 102.62 83.4189 102.62Z" fill="#FFE380"/>
<path d="M207.03 119.453C207.769 118.76 208.141 116.72 206.573 116.756C203.958 116.82 201.553 116.001 199.602 114.612C199.632 114.327 199.586 114.035 199.434 113.763C192.651 101.395 197.107 86.9611 201.291 74.5089C206.323 72.4849 210.066 67.7501 210.876 62.3806C210.98 61.6908 210.63 60.8002 209.794 60.8099C199.648 60.9071 192 52.5452 189.139 43.4514C187.609 38.5968 187.441 33.6905 187.223 28.6545C187.068 25.0241 186.566 21.1055 184.083 18.3787C184.537 17.705 184.501 16.7335 183.494 16.672C179.848 16.4453 176.274 16.8727 172.774 17.6889C166.26 17.5107 159.831 20.108 154.51 23.7676C151.619 25.7528 148.982 28.3533 147.663 31.6599C146.243 35.2093 146.26 39.0437 145.718 42.7745C144.568 50.7413 141.658 58.6498 142.53 66.798C143.243 73.4726 146.691 79.6971 152.07 83.7452C156.412 87.0097 161.707 88.5642 167.012 88.4411C168.908 94.1668 170.622 99.9314 171.957 105.793C171.909 105.949 171.879 106.114 171.883 106.292C171.938 108.97 167.249 108.944 165.496 109.44C163.214 110.087 161.348 111.47 160.09 113.478C157.55 117.533 158.143 122.734 161.192 126.342C168.454 134.927 182.346 132.611 191.611 129.104C197.324 126.941 202.581 123.631 207.03 119.453Z" fill="white"/>
<path d="M41.8492 104.543C41.564 104.229 41.1589 103.95 40.7053 104.096C37.2087 105.23 33.4658 103.442 31.3271 100.602C30.8539 99.9735 30.4521 99.3129 30.1119 98.6263C30.2642 98.3381 30.3355 98.0077 30.2544 97.6677C29.6355 95.0121 29.0165 92.3533 28.3911 89.6977C28.7411 89.8466 29.0911 89.9956 29.4378 90.1511C29.8364 90.3292 30.2512 90.2482 30.6044 90.0248C32.9344 90.9348 35.287 91.6894 37.698 91.8448C38.7706 91.9161 39.8141 90.5138 39.1336 89.5519C34.1399 82.5211 26.0806 78.8032 18.1185 75.9501C21.735 74.6417 25.6075 74.292 29.4799 75.0303C33.8742 75.8659 38.7188 79.4024 42.9121 76.0213C43.5861 75.474 43.8551 74.3665 43.1227 73.7447C42.3288 73.0678 41.4765 72.4784 40.5789 71.9797C40.9289 71.7206 41.2562 71.4323 41.551 71.1214C42.157 72.0023 43.6866 71.4226 44.0042 70.2794C44.555 68.2877 44.0592 66.7073 42.9607 65.4475C42.1084 63.0121 39.4576 61.1921 36.8457 62.005C34.4866 61.2763 32.0854 60.8488 30.4586 60.5573C24.3955 59.4822 18.1056 59.1356 12.4281 56.6679C16.6765 53.4228 21.829 51.5315 27.244 51.5121C28.6925 51.5056 30.1248 51.6352 31.5539 51.8651C33.0316 52.0983 34.6324 52.3509 35.9481 51.4441C38.1387 49.935 38.0674 46.9199 35.4102 46.0714C32.3997 45.1095 29.0133 44.5234 25.87 44.2578C22.5646 43.9793 19.2106 44.2869 16.1223 45.5564C13.2642 46.7353 10.7203 48.6266 8.46165 50.709C6.28399 52.7104 4.21651 55 3.07583 57.769C0.421809 64.2169 3.89893 71.4874 5.7817 77.6892C7.95288 84.8334 10.1143 91.9808 12.2952 99.125C15.74 110.421 19.3564 126.481 33.1288 129.004C39.0753 130.095 46.9012 127.984 50.0737 122.43C51.8139 119.382 50.8385 116.357 49.0141 113.614C46.8785 110.398 44.4481 107.406 41.8557 104.546L41.8492 104.543Z" fill="white"/>
<path d="M55.2325 145.073C54.0724 144.688 39.9824 147.441 39.9824 147.441L64.3677 225.816L184.411 238.499H218.729L191.988 151.92L127.439 150.226L119.61 141.919L55.239 145.073H55.2325Z" fill="#FFE380"/>
<path d="M256.468 212.765C258.98 208.779 260.198 204.186 259.258 199.118C258.607 195.611 256.951 192.285 254.527 189.668C251.649 186.559 247.887 185.063 244.034 183.525C241.027 182.326 237.239 180.607 235.482 177.695C235.631 177.258 235.622 176.779 235.359 176.341C235.093 175.901 234.828 175.464 234.562 175.023C234.539 174.836 234.52 174.648 234.517 174.45C234.487 173.647 234.04 173.31 233.509 173.281C230.858 168.903 228.188 164.531 225.456 160.207C224.238 158.274 222.695 156.298 220.466 155.498C219.383 155.106 218.197 154.996 217.069 155.178C211.557 150.543 205.28 146.968 197.879 145.378C193.523 144.442 188.753 144.209 184.395 145.258C183.316 145.517 182.182 147.732 183.786 148.127C187.224 148.969 190.656 149.818 194.091 150.67C196.894 151.363 200.643 152.108 201.311 155.43C201.311 155.45 201.324 155.466 201.327 155.485C200.857 155.715 200.387 155.948 199.92 156.178C197.451 156.92 195.137 158.115 192.992 159.582C192.966 159.601 192.943 159.624 192.921 159.647C192.866 159.673 192.814 159.699 192.759 159.725C189.593 161.289 186.187 162.662 183.186 164.521C181.261 165.716 179.803 168.55 182.123 170.182C183.037 170.823 184.268 170.949 185.351 170.875C185.769 170.849 186.32 170.726 186.874 170.661C186.044 172.057 185.989 173.938 187.084 175.37C189.171 178.1 192.302 177.446 195.296 177.277C195.286 177.316 195.28 177.349 195.273 177.384C194.891 179.758 197.004 181.52 199.175 181.785C201.926 182.122 205.024 180.817 207.623 180.056C208.971 179.661 210.381 179.016 211.778 178.874C212.335 178.816 213.135 178.803 213.479 179.327C213.521 179.395 213.563 179.496 213.592 179.609C212.983 179.881 212.465 180.49 212.523 181.173C212.782 184.188 213.754 187.074 215.371 189.59C216.217 191.449 217.248 193.201 218.592 194.743C221.175 197.709 224.656 199.753 228.541 199.895C229.857 201.359 230.852 203.147 231.898 204.789C233.324 207.033 234.75 209.271 236.179 211.515C237.608 213.759 239.031 216.001 240.46 218.242C241.027 219.132 241.481 220.382 242.569 220.671C243.499 220.913 244.536 220.91 245.492 220.871C247.216 220.8 248.898 220.421 250.467 219.777C253.429 219.385 256.047 217.422 257.039 214.524C257.304 213.75 256.987 213.066 256.471 212.769L256.468 212.765Z" fill="white"/>
<path d="M235.349 222.711C236.179 222.892 241.72 222.711 241.72 222.711C241.72 222.711 258.205 235.147 257.816 236.193C257.427 237.239 256.669 239.425 258.172 244.947C259.676 250.468 278.786 311.288 276.469 313.387C274.152 315.485 105.833 314.905 87.871 315.871C69.9053 316.836 58.7384 311.926 56.4862 310.854C54.2372 309.782 26.4235 247.333 26.5434 244.943C26.6633 242.557 33.2254 228.543 36.3137 227.734C39.4019 226.927 107.742 222.461 109.674 224.307C111.605 226.153 132.84 239.399 132.84 239.399C132.84 239.399 220.679 237.731 221.836 238.117C222.993 238.502 235.349 222.704 235.349 222.704V222.711Z" fill="#FFE380"/>
<path d="M249.829 287.708C251.374 288.094 261.148 289.719 257.817 282.112C250.214 264.747 236.889 224.236 235.35 222.711C233.811 221.185 235.279 220.949 233.551 220.683C231.824 220.418 214.5 219.884 214.5 219.884C214.5 219.884 217.783 236.581 218.554 236.772C219.325 236.967 226.25 241.355 228.58 244.947C230.91 248.538 249.829 287.705 249.829 287.705V287.708Z" fill="white"/>
<path d="M184.897 237.126C184.897 237.126 165.657 194.238 165.077 193.995C164.497 193.752 89.2773 198.085 89.2773 198.085L99.5272 223.919C99.5272 223.919 109.754 224.424 111.747 225.817C113.74 227.209 130.582 238.006 131.713 238.706C132.843 239.409 184.9 237.126 184.9 237.126H184.897Z" fill="white"/>
<path d="M36.6824 226.212C36.6824 226.212 23.3961 184.069 22.2004 181.018C21.0046 177.971 21.4356 176.005 23.9567 174.985C26.4779 173.964 47.642 173.929 47.8656 174.479C48.0892 175.033 65.922 225.962 64.3666 225.81C62.8079 225.658 36.6824 226.208 36.6824 226.208V226.212Z" fill="white"/>
<path d="M158.752 10.8135C154.212 11.1665 149.922 13.9063 146.642 16.9375C143.188 20.1275 140.404 24.1012 138.68 28.4829C136.833 33.1756 136.247 38.0755 136.794 43.079C137.413 48.727 139.157 54.4624 138.548 60.1849C137.336 71.5684 123.178 76.1185 122.779 87.923C122.623 92.5541 125.151 96.6735 127.131 100.68C127.64 101.706 128.145 102.781 128.531 103.889C127.342 103.108 125.929 102.645 124.396 102.626C119.976 102.571 116.32 105.978 115.948 110.366C115.621 114.23 118.21 117.575 121.784 118.592C121.032 120.985 120.763 123.502 121.068 126.011C121.24 127.423 121.57 128.845 122.147 130.153C122.766 131.562 123.968 132.676 124.892 133.884C125.096 134.153 125.378 134.117 125.585 133.949C127.044 135.73 128.917 137.158 131.11 138.02C132.958 138.745 134.613 135.575 132.643 134.755C129.027 133.25 126.512 129.781 125.799 125.969C125.459 124.152 125.546 122.193 126.188 120.448C126.486 119.635 126.904 118.88 127.374 118.155C128.194 117.779 128.946 117.216 129.587 116.597C131.178 115.065 132.121 113.005 132.164 110.79C132.17 110.531 132.16 110.279 132.141 110.026C132.854 107.471 132.75 104.809 131.736 102.001C130.281 97.956 127.653 94.3774 126.648 90.164C125.436 85.0957 128.56 80.7399 131.81 77.184C135.252 73.4208 139.205 69.8876 140.994 64.9715C144.698 54.7895 138.69 44.4295 140.45 34.0953C141.273 29.2537 143.577 24.7424 146.798 21.057C150.204 17.1578 154.501 14.8422 159.038 12.5137C159.87 12.0862 159.857 10.7358 158.752 10.82V10.8135ZM118.647 110.622C118.709 107.697 121.068 105.45 123.991 105.56C126.308 105.647 128.246 107.144 128.985 109.229C128.631 110.638 127.896 111.917 127.001 113.171C126.191 114.304 125.345 115.415 124.6 116.578C124.584 116.587 124.564 116.597 124.548 116.603C124.383 116.377 124.124 116.212 123.767 116.169C121.013 115.846 118.586 113.485 118.644 110.619L118.647 110.622Z" fill="white"/>
<path d="M63.8123 138.545C61.6995 135.047 59.5964 131.543 57.477 128.048C56.4433 126.345 55.3934 124.651 54.3337 122.961C53.4134 121.494 52.3893 119.447 50.7723 118.692C50.0659 118.365 49.3691 119.185 49.3691 119.823C49.3659 121.643 50.7269 123.576 51.6084 125.114C52.6032 126.85 53.6078 128.58 54.6286 130.299C56.7187 133.816 58.8186 137.324 60.9153 140.834C61.3009 141.479 62.2309 141.589 62.8596 141.281C63.1707 141.129 63.3813 140.928 63.6147 140.679C64.1364 140.122 64.198 139.179 63.8156 138.545H63.8123Z" fill="white"/>
<path d="M85.0708 95.4559C84.4713 90.6369 83.4149 85.8374 82.5788 81.0509C80.8419 71.1151 79.0174 61.1922 77.2319 51.2661C76.7393 48.5263 76.2402 45.7832 75.7477 43.0434C75.2551 40.3198 75.0866 37.1979 73.9394 34.6653C73.3497 33.3602 71.8072 34.2379 71.7359 35.3875C71.5641 38.1468 72.3969 41.0614 72.8539 43.7786C73.3335 46.6285 73.8131 49.4816 74.2927 52.3315C75.2486 57.9925 76.2014 63.6535 77.1444 69.3144C78.0679 74.862 79.0369 80.4032 80.0025 85.9443C80.4984 88.7877 80.9974 91.6312 81.4867 94.4746C81.7524 96.0129 82.6792 100.414 79.9701 100.278C78.0712 100.184 77.1087 103.445 79.2702 103.611C83.7519 103.951 85.5309 99.1478 85.0708 95.4559Z" fill="white"/>
<path d="M212.543 112.999C210.997 113.786 209.805 114.615 207.98 114.447C206.324 114.291 204.83 113.414 203.703 112.219C200.751 109.084 200.537 104.446 200.621 100.385C200.715 95.7894 201.149 91.2101 201.836 86.6665C202.164 84.4999 202.562 82.3463 203.022 80.2056C203.45 78.1977 204.318 75.8336 203.92 73.7868C203.9 73.803 203.878 73.8192 203.858 73.8354C203.635 73.2104 202.847 72.8347 202.16 73.6476C200.559 75.5421 200.122 78.6802 199.587 81.0509C198.985 83.7259 198.479 86.4268 198.093 89.144C197.351 94.371 196.752 99.9024 197.176 105.181C197.539 109.683 199.208 114.479 203.291 116.901C206.574 118.851 214.319 116.581 216.185 112.649C216.72 111.525 213.761 112.377 212.537 112.999H212.543Z" fill="white"/>
<path d="M210.588 57.5941C208.718 57.0371 206.855 56.6226 205.076 55.7903C203.307 54.9645 201.69 53.8536 200.205 52.5906C197.214 50.0419 194.836 46.8681 193.073 43.3673C190.976 39.2057 189.91 34.5746 189.171 30.0018C188.782 27.5859 188.523 25.1537 188.319 22.7151C188.125 20.4093 188.173 17.9383 187.35 15.7588C186.948 14.6965 185.629 15.26 185.412 16.1377C184.787 18.6346 185.066 21.3064 185.208 23.8551C185.354 26.4751 185.561 29.0983 185.947 31.6956C186.673 36.5987 187.985 41.4436 190.241 45.8706C192.166 49.65 194.858 53.1671 198.18 55.8227C201.285 58.3066 205.484 60.6222 209.567 60.6319C210.98 60.6351 212.396 58.1285 210.591 57.5941H210.588Z" fill="white"/>
<path d="M275.324 202.904C274.291 201.887 272.975 201.738 271.63 201.414C269.858 200.987 268.373 199.818 266.854 198.862C265.22 197.836 263.59 196.812 261.957 195.786C260.615 194.944 258.872 193.444 257.21 193.875C256.756 193.992 256.276 194.448 256.344 194.963C256.568 196.631 258.237 197.479 259.54 198.367C261.208 199.5 262.877 200.634 264.546 201.767C265.956 202.726 267.375 203.804 268.966 204.455C269.903 204.837 271.04 204.873 271.993 205.249C271.97 205.534 272.048 205.812 272.304 205.977C273.263 206.599 274.19 206.528 275.055 205.744C275.911 204.973 276.203 203.772 275.321 202.904H275.324Z" fill="white"/>
<path d="M65.028 214.793C64.2989 212.322 63.573 209.851 62.8471 207.376C61.3986 202.438 59.9111 197.508 58.4626 192.57C55.5947 182.783 52.8046 172.977 50.0015 163.17C49.2173 160.424 48.4363 157.675 47.6586 154.925C46.9003 152.237 46.236 149.309 44.9462 146.825C44.3111 145.598 42.5709 146.89 42.6325 147.91C42.788 150.388 43.5657 152.907 44.1814 155.304C44.8198 157.801 45.5101 160.285 46.1809 162.775C47.5225 167.753 48.89 172.721 50.2834 177.682C53.0411 187.511 55.854 197.324 58.7219 207.12C59.5255 209.863 60.3616 212.6 61.1912 215.337C61.606 216.703 62.024 218.073 62.4388 219.44C62.8601 220.816 63.1485 222.319 64.0882 223.449C65.1317 224.709 66.7131 223.498 66.8038 222.176C66.9658 219.767 65.702 217.082 65.0248 214.799L65.028 214.793Z" fill="white"/>
<path d="M127.811 189.137C127.633 188.399 127.397 187.67 127.183 186.944C126.697 185.306 126.204 183.67 125.715 182.032C124.765 178.848 123.813 175.661 122.863 172.478C121.94 169.385 121.039 166.286 120.076 163.206C119.567 161.58 119.078 159.945 118.54 158.326C118.099 156.991 117.785 155.715 116.411 155.103C116.084 154.957 115.695 155.226 115.562 155.511C114.93 156.855 115.209 158.015 115.562 159.401C115.961 160.971 116.411 162.529 116.842 164.09C117.727 167.299 118.67 170.493 119.597 173.689C120.497 176.795 121.395 179.897 122.296 183.003L123.644 187.66C123.855 188.389 124.069 189.121 124.289 189.846C124.629 190.967 124.853 191.206 125.611 192.029C126.269 192.745 127.559 192.366 127.688 191.342C127.789 190.542 128.009 189.94 127.811 189.134V189.137Z" fill="white"/>
<path d="M60.3397 308.108C59.6948 305.504 58.0908 303.004 56.9371 300.591C55.67 297.939 54.4192 295.28 53.1878 292.611C50.8027 287.446 48.4533 282.261 46.172 277.05C43.923 271.907 41.7356 266.739 39.6131 261.544C38.4951 258.811 37.3933 256.071 36.2947 253.331C35.2739 250.779 34.0749 248.23 33.268 245.604C32.3574 242.644 34.5481 239.881 35.8994 237.391C37.4937 234.45 39.0589 231.571 40.2352 228.443C40.7084 227.186 39.2436 226.276 38.3914 227.403C38.009 227.909 37.6428 228.424 37.2896 228.938C36.9299 228.89 36.5378 228.974 36.1975 229.236C34.7976 230.318 33.1028 232.287 33.1028 234.211C32.6037 235.05 32.1014 235.892 31.6024 236.73C30.358 238.826 28.9548 240.921 28.5044 243.36C28.0799 245.665 28.3975 248.101 29.2238 250.284C29.9367 252.165 30.9932 254.827 32.5843 256.2C32.7884 256.524 33.1967 256.618 33.6083 256.531C33.9226 257.311 34.2337 258.092 34.5481 258.869C39.033 269.98 43.7383 281.014 48.8325 291.863C50.2 294.775 51.5869 297.68 52.9933 300.575C53.7257 302.084 54.4646 303.59 55.2099 305.093C55.9779 306.644 56.6519 308.367 57.7602 309.704C58.8426 311.009 60.6962 309.549 60.3397 308.108Z" fill="white"/>
<path d="M274.878 166.888C275.354 166.934 275.941 166.493 276.369 166.143C284.029 159.896 288.378 151.907 288.942 141.981C289.302 135.656 287.947 129.839 283.641 124.943C282.759 123.942 281.942 122.877 281.149 121.801C280.018 120.282 279.622 118.534 279.826 116.675C279.998 115.133 280.18 113.585 280.491 112.066C281.592 106.664 281.149 101.489 277.846 96.9327C276.226 94.7013 274.291 92.6351 272.221 90.8118C268.151 87.23 263.261 84.8659 258.588 82.1779C255.237 80.2542 251.906 78.269 248.72 76.0895C244.345 73.0938 241.371 68.9647 239.757 63.9029C239.041 61.665 238.334 59.4207 237.793 57.1408C235.965 49.4558 233.451 42.0525 228.762 35.5851C225.725 31.4009 222.604 27.275 219.37 23.2431C212.918 15.2018 204.431 10.3861 194.486 8.01223C184.803 5.69991 175.062 5.66753 165.302 7.44872C159.161 8.56926 153.179 10.2339 147.624 13.1745C138.962 17.7602 134.309 24.8558 133.978 34.7463C133.761 41.1878 134.782 47.4187 136.73 53.5266C137.125 54.7572 137.274 55.9555 137.102 57.2477C136.441 62.2091 134.75 66.62 130.725 69.8909C129.717 70.7103 128.78 71.6235 127.867 72.5497C120.666 79.8526 119.088 89.2249 123.498 98.4774C124.227 100.012 124.976 101.538 125.747 103.05C127.186 105.865 126.927 108.472 124.918 110.923C123.728 112.38 122.591 113.88 121.428 115.36C118.929 118.537 117.659 122.093 118.206 126.167C118.3 126.86 118.067 127.129 117.432 127.297C110.912 129.023 105.717 132.825 101.21 137.686C100.967 137.949 100.717 138.224 100.542 138.535C100.157 139.221 100.257 139.882 100.84 140.397C101.427 140.915 102.098 140.944 102.733 140.478C103.047 140.245 103.303 139.927 103.579 139.639C107.62 135.361 112.247 132.003 117.973 130.312C118.803 130.066 119.201 130.102 119.613 131.002C124.409 141.456 138.081 144.792 147.177 137.716C151.75 134.156 154.242 129.305 155.483 123.741C155.794 122.345 156.079 120.95 156.377 119.551C156.669 120.176 156.759 120.778 156.818 121.384C157.456 127.968 160.872 131.909 167.343 133.353C173.484 134.726 179.57 134.085 185.597 132.576C195.598 130.076 203.78 124.564 210.89 117.284C211.139 117.028 211.402 116.762 211.71 116.597C215.281 114.693 218.852 112.801 222.442 110.936C222.747 110.777 223.227 110.732 223.541 110.852C230.615 113.676 237.2 117.29 242.783 122.579C248.574 128.058 253.153 134.451 256.893 141.44C261.407 149.886 265.798 158.4 270.228 166.895C273.167 172.533 276.385 178.051 278.935 183.861C284.447 196.401 286.525 209.52 284.298 223.155C283.608 227.358 282.328 231.38 279.775 234.885C277.389 238.152 274.194 239.849 270.134 239.312C267.901 239.017 265.629 238.495 263.552 237.65C256.536 234.794 250.911 230.001 245.907 224.421C245.677 224.162 245.512 223.841 245.321 223.55C245.658 223.469 245.988 223.342 246.329 223.32C253.422 222.87 257.554 218.792 259.758 212.364C261.099 208.448 261.251 204.429 260.688 200.368C260.445 198.626 260.098 196.9 259.771 194.995C260.257 195.274 260.629 195.472 260.989 195.692C264.949 198.156 268.906 200.627 272.866 203.098C273.206 203.306 273.533 203.542 273.896 203.694C274.684 204.028 275.335 203.769 275.759 203.066C276.168 202.399 276.061 201.732 275.478 201.204C275.16 200.916 274.778 200.695 274.411 200.459C264.511 194.089 254.44 188.01 244.135 182.326C243.678 183.278 243.205 184.221 242.719 185.163C246.743 187.427 250.762 189.704 254.77 191.993C255.234 192.256 255.746 192.716 255.901 193.192C257.46 198.02 258.429 202.962 257.554 208.021C257.175 210.223 256.381 212.425 255.393 214.44C253.545 218.213 250.263 219.984 246.121 220.224C243.708 220.364 241.806 219.46 240.415 217.513C237.109 212.888 234.173 208.047 231.626 202.982C230.965 203.876 230.304 204.763 229.627 205.65C230.651 207.616 231.698 209.569 232.825 211.473C237.602 219.544 243.13 227.041 250.399 233.09C255.25 237.129 260.513 240.464 266.747 241.964C274.107 243.735 279.775 241.294 283.553 234.742C284.059 233.868 284.509 232.958 284.911 232.028C286.956 227.326 287.84 222.351 288.119 217.273C288.696 206.742 287.095 196.521 283.449 186.621C281.042 180.082 277.726 173.987 274.35 167.921C274.01 167.309 273.582 166.772 274.878 166.891V166.888ZM205.157 118.453C197.548 125.305 188.731 129.551 178.513 130.736C175.12 131.132 171.728 131.145 168.364 130.403C162.868 129.192 160.318 126.377 159.87 120.794C159.718 118.893 159.848 116.969 159.857 115.055C159.857 114.272 160.181 113.728 160.933 113.346C163.649 111.963 166.543 111.266 169.55 110.943C170.124 110.881 170.324 111.098 170.435 111.597C170.999 114.1 171.595 116.594 172.123 119.104C172.188 119.402 171.964 119.845 171.737 120.104C171.29 120.619 170.713 121.021 170.253 121.529C169.66 122.184 169.644 122.925 170.24 123.583C170.804 124.201 171.546 124.289 172.198 123.783C173.137 123.051 174.035 122.258 174.877 121.419C175.558 120.742 175.506 119.874 175.299 118.977C173.419 110.777 171.559 102.568 169.696 94.3613C169.437 93.2342 169.197 92.104 168.934 90.977C168.811 90.4459 168.921 90.203 169.54 90.1576C175.542 89.7237 180.989 87.5474 186.239 84.7752C186.304 84.7428 186.368 84.7104 186.43 84.678C187.425 84.0886 187.736 83.2531 187.269 82.4337C186.829 81.6597 186.025 81.5302 184.991 81.9674C181.803 83.3179 178.675 84.8788 175.386 85.9184C169.038 87.9198 162.751 87.6996 156.785 84.4093C149.812 80.5651 146.241 74.4313 145.058 66.7528C143.794 58.5625 145.285 50.641 147.495 42.7876C148.062 40.7765 148.499 38.7265 148.93 36.6797C149.07 36.0288 149.319 35.6434 149.919 35.2807C152.456 33.7456 154.997 33.8914 157.605 35.0216C159.287 35.7503 160.314 37.4311 160.191 39.2382C160.146 39.8924 159.929 39.7207 159.533 39.494C158.85 39.0989 158.156 38.665 157.408 38.448C155.787 37.9816 153.911 38.9629 153.992 40.3296C154.073 41.68 154.413 42.9949 154.332 44.3972C154.277 45.3396 155.544 45.7509 156.555 45.3104C157.761 44.7858 158.548 43.3382 158.461 41.8063C158.448 41.5667 158.409 41.3303 158.38 41.0485C159.961 41.9294 160.013 42.0427 159.507 43.5908C158.561 46.4828 156.973 49.0153 155.084 51.373C154.135 52.5583 154.138 53.0732 155.113 54.2099C155.726 54.9256 156.351 55.6219 156.977 56.3247C157.466 56.8752 158.043 57.1408 158.678 56.6064C159.31 56.0753 159.161 55.4762 158.697 54.8868C158.127 54.1613 157.168 53.4359 157.132 52.6781C157.1 51.9624 158.072 51.2208 158.568 50.4662C160.982 46.8099 162.719 42.9398 162.427 38.4059C162.336 37.023 162.051 35.7697 160.946 34.8143C160.706 34.6071 160.428 34.335 160.363 34.0468C160.049 32.6089 158.914 32.1814 157.722 31.7766C155.369 30.9734 153.013 30.6463 150.619 31.5758C150.09 31.7798 149.912 31.6794 150 31.0674C150.165 29.8918 150.505 28.9072 151.477 28.0685C156.52 23.7126 161.941 20.0855 168.594 18.6767C173.231 17.6922 177.914 17.5206 182.622 17.9513C182.937 17.9804 183.429 18.3691 183.475 18.6443C184.184 23.2495 184.836 27.8612 185.494 32.4729C185.513 32.6121 185.474 32.7579 185.461 32.9004C183.786 32.3692 182.133 31.7151 180.422 31.3394C177.655 30.7338 174.877 31.0641 172.149 31.7313C171.151 31.9741 170.681 32.7125 170.856 33.5513C171.037 34.4354 171.818 34.9212 172.855 34.6751C177.447 33.5966 181.773 34.1504 185.737 36.7898C186.213 37.1105 186.608 37.7128 186.812 38.2699C188.293 42.3342 189.583 46.4763 191.197 50.4888C192.325 53.2837 194.042 55.8065 196.437 57.7108C197.633 58.6661 199.055 59.3527 200.416 60.0846C200.922 60.3534 200.996 60.4765 200.565 60.8813C197.461 63.8089 198.456 63.8057 199.901 66.5455C200.157 67.0216 200.365 67.5948 200.76 67.9057C201.11 68.1777 201.829 68.3623 202.147 68.181C202.458 67.9996 202.694 67.2256 202.568 66.8499C202.283 66.0079 201.777 65.2307 201.308 64.4631C200.987 63.9352 201.064 63.5725 201.479 63.1321C202.869 61.6553 204.415 60.8554 206.57 61.1145C208.625 61.3671 208.673 61.2116 208.271 63.2616C207.708 66.1633 206.842 68.9712 204.775 71.1896C203.978 72.0478 202.996 72.7829 201.982 73.3691C200.753 74.0751 199.846 73.8613 198.841 72.8606C198.359 72.3813 197.976 71.7984 197.539 71.2705C196.975 70.5872 196.265 70.4155 195.513 70.8787C194.703 71.3806 194.483 72.2226 195.05 72.9319C195.961 74.0751 196.998 75.1373 198.09 76.1056C198.55 76.5137 198.803 76.7177 198.598 77.3946C196.774 83.4215 195.371 89.5456 194.7 95.8154C194.211 100.398 194.032 104.993 195.296 109.492C196.398 113.404 198.491 116.464 202.769 117.394C203.683 117.591 204.623 117.675 205.679 117.828C205.475 118.067 205.323 118.281 205.135 118.453H205.157ZM273.329 165.003C273.225 165.104 272.856 165.114 272.772 165.016C272.555 164.786 272.425 164.472 272.273 164.184C268.52 156.969 264.78 149.75 261.015 142.541C257.91 136.598 254.375 130.937 250.062 125.775C243.882 118.385 236.319 112.895 227.462 109.155C226.798 108.873 226.088 108.747 226.746 107.717C226.94 107.416 226.707 106.603 226.402 106.282C226.098 105.962 225.446 105.845 224.957 105.865C224.568 105.877 224.186 106.224 223.813 106.441C220.181 108.53 216.59 110.706 212.899 112.688C210.462 114 207.821 114.738 204.976 114.579C202.024 114.414 200.011 113.018 198.893 110.298C197.568 107.076 197.396 103.691 197.519 100.278C197.782 92.9298 199.415 85.8277 201.346 78.7742C201.719 77.4075 202.234 76.5849 203.628 75.9729C206.301 74.7973 208.048 72.5433 209.351 69.9621C210.67 67.3422 211.314 64.5344 211.651 61.6488C211.726 60.9914 211.979 60.7582 212.624 60.6222C214.247 60.2854 215.861 59.8741 217.455 59.411C218.602 59.0774 219.046 58.3131 218.768 57.4161C218.486 56.5158 217.692 56.1757 216.548 56.519C213.311 57.4938 210.018 58.1059 206.625 58.0864C201.884 58.0638 198.197 56.1595 195.633 52.0952C192.934 47.8171 191.385 43.0888 190.076 38.2666C188.238 31.4851 187.072 24.5806 186.514 17.5756C186.372 15.7685 185.795 15.1759 183.851 14.9621C171.216 13.5696 159.87 16.4162 150.233 25.0631C148.499 26.6176 147.226 28.2012 146.921 30.6366C146.156 36.7769 144.16 42.6645 142.861 48.6947C141.283 56.0462 140.719 63.4559 142.76 70.8204C145.631 81.1707 152.378 87.5247 162.891 89.8435C163.033 89.8727 163.176 89.9018 163.318 89.9212C165.671 90.271 165.658 90.2742 166.164 92.5639C167.21 97.2889 168.241 102.017 169.339 106.732C169.563 107.685 169.281 107.915 168.4 108.008C165.613 108.293 162.933 109.003 160.369 110.159C156.617 111.853 154.232 114.641 153.367 118.696C152.945 120.671 152.586 122.669 152.044 124.612C150.888 128.784 148.83 132.433 145.388 135.167C137.462 141.459 123.249 138.269 121.285 125.73C120.906 123.314 121.405 121.027 122.74 118.987C123.709 117.51 124.837 116.137 125.896 114.715C126.567 113.818 127.264 112.937 127.918 112.031C130.051 109.08 130.394 105.92 128.917 102.6C128.08 100.722 127.131 98.8887 126.253 97.0266C122.507 89.0792 123.816 81.1901 129.95 74.8653C130.958 73.829 132.018 72.838 133.12 71.9053C137.417 68.2878 139.283 63.4818 140.087 58.1026C140.391 56.0786 140.197 54.1743 139.568 52.2409C137.812 46.8423 136.827 41.2946 137.073 35.6045C137.167 33.3473 137.511 31.0706 138.016 28.8619C139.144 23.9491 142.255 20.4061 146.315 17.6112C150.891 14.4634 156.076 12.7826 161.39 11.4483C167.097 10.0201 172.907 9.33355 179.288 9.31088C185.895 9.34974 192.84 10.3375 199.541 12.7988C206.032 15.1791 211.664 18.8548 216.049 24.1952C219.763 28.7162 223.295 33.3991 226.707 38.15C230.803 43.8498 232.948 50.4111 234.575 57.1667C235.133 59.4823 235.836 61.7654 236.513 64.0486C238.418 70.4738 242.161 75.6069 247.761 79.247C251.815 81.8864 256.115 84.1502 260.231 86.6989C263.792 88.9043 267.389 91.0903 270.707 93.6293C274.249 96.34 276.809 99.8894 277.675 104.42C278.18 107.073 277.681 109.67 277.286 112.28C277.017 114.061 276.809 115.859 276.706 117.659C276.586 119.709 277.218 121.597 278.381 123.275C279.185 124.431 280.027 125.574 280.974 126.614C285.306 131.362 286.304 137.048 285.714 143.179C284.924 151.372 281.191 158.005 274.949 163.293C274.353 163.799 273.893 164.456 273.332 165.003H273.329Z" fill="black"/>
<path d="M68.4154 141.793C67.777 142.233 67.0998 142.184 66.5294 141.644C66.2183 141.349 65.9656 140.986 65.7096 140.636C61.338 134.645 56.9665 128.657 52.6015 122.666C51.908 121.707 51.908 121.701 51.4122 122.795C49.3512 127.323 45.55 129.528 40.9128 130.516C35.5269 131.663 30.5008 130.626 25.8053 127.809C25.4391 127.592 25.0696 127.381 24.7035 127.167C24.6322 127.235 24.5609 127.3 24.4896 127.368C25.2997 129.638 26.0872 131.922 26.9265 134.182C29.9467 142.327 33.2261 150.368 37.8148 157.772C40.0151 161.321 42.6983 164.572 45.1676 167.957C45.4009 168.277 45.7056 168.559 45.887 168.902C46.2435 169.595 46.1236 170.259 45.5208 170.758C44.9149 171.254 44.2343 171.273 43.6348 170.758C43.1974 170.386 42.8312 169.929 42.4488 169.495C36.6223 162.875 32.4938 155.229 28.9194 147.243C24.2336 136.763 20.6463 125.901 17.409 114.897C16.3525 111.308 14.7484 107.879 13.3939 104.378C13.2027 103.882 13.0115 103.387 12.8203 102.888C13.7892 102.833 14.7614 102.755 15.7271 102.655C15.8276 102.642 15.9313 102.636 16.0317 102.623C17.1303 105.469 18.2483 108.306 19.3922 111.14C20.737 114.476 21.5634 118.022 22.6003 121.481C22.8369 122.28 23.067 122.944 24.0813 123.067C24.5317 123.122 24.94 123.569 25.3516 123.861C29.2856 126.63 33.5567 128.272 38.4629 127.773C40.8739 127.527 43.1358 126.853 45.1903 125.532C47.6369 123.965 48.8521 121.594 49.4678 118.87C49.5521 118.498 49.2993 117.97 49.0595 117.607C46.9208 114.385 44.7463 111.179 42.5849 107.969C42.3807 107.671 42.1733 107.37 42.0113 107.05C41.6095 106.246 41.7845 105.544 42.5233 105.064C43.2719 104.579 43.9751 104.744 44.5422 105.427C44.7269 105.651 44.8792 105.9 45.0445 106.136C52.8186 117.112 60.5927 128.094 68.3668 139.069C68.5548 139.335 68.7687 139.594 68.9048 139.882C69.2612 140.636 69.1057 141.317 68.4187 141.796L68.4154 141.793Z" fill="black"/>
<path d="M47.5397 13.3202C47.4003 13.7574 46.8332 14.2788 46.3796 14.3565C44.2116 14.7225 42.0145 14.9524 39.8336 15.2342C38.0837 15.137 37.145 15.9467 37.0176 17.6631C36.943 18.7448 36.943 19.8426 36.7356 20.8984C36.6449 21.355 36.1232 21.7274 35.7991 22.1355C35.4848 21.7631 34.976 21.4295 34.8885 21.0053C34.4705 19.0654 34.2015 17.0963 33.7965 15.1532C33.7252 14.8067 33.3006 14.3242 32.9831 14.2723C31.5572 14.0359 30.1152 13.9064 28.6731 13.7866C27.5195 13.6894 26.3496 13.7315 25.2154 13.5534C24.7456 13.4789 24.3405 12.9899 23.9062 12.6887C24.2757 12.3033 24.59 11.675 25.0242 11.5779C26.6056 11.2184 28.2194 11.037 29.83 10.7974C30.1865 10.7456 30.5526 10.7488 30.9091 10.71C32.7724 10.5027 32.7919 10.5059 33.1127 8.61462C33.5048 6.26345 33.8645 3.90579 34.2437 1.55462C34.2858 1.30525 34.2631 0.987874 34.4089 0.825948C34.7103 0.485902 35.0959 0.0357454 35.4751 0.00336002C35.7538 -0.0225483 36.282 0.505333 36.363 0.858333C36.9204 3.39734 37.4356 5.94931 37.8731 8.51099C37.9833 9.13279 38.2425 9.31415 38.7837 9.49227C41.428 10.3505 44.069 11.2314 46.6809 12.1932C47.0763 12.3389 47.6175 13.0514 47.5332 13.3235L47.5397 13.3202Z" fill="#FFCE1F"/>
<path d="M109.402 50.5535C109.026 50.9745 108.705 51.6805 108.267 51.7615C106.783 52.0303 105.263 52.1566 103.757 52.176C102.933 52.189 102.665 52.3638 102.733 53.1961C102.807 54.1321 102.749 55.0745 102.749 56.0104C102.797 56.0104 102.843 56.0169 102.895 56.0169C102.755 57.4548 102.635 58.8895 102.473 60.3274C102.399 60.9913 102.059 61.639 101.329 61.4576C100.915 61.3572 100.445 60.7516 100.331 60.2918C99.8193 58.19 99.4142 56.0622 98.9994 53.9378C98.8212 53.0148 98.3384 52.6488 97.3792 52.5808C95.6941 52.4578 94.0122 52.2181 92.3466 51.9202C91.9382 51.8489 91.6045 51.3631 91.2383 51.0652C91.6109 50.7381 91.9415 50.2167 92.366 50.1228C94.0187 49.7536 95.6973 49.488 97.3759 49.2484C98.0337 49.1545 98.306 48.8921 98.3416 48.2282C98.4518 46.392 98.63 44.5557 98.7532 42.7195C98.7953 42.0653 98.8666 41.4435 99.6637 41.3528C100.438 41.2654 100.704 41.8418 100.921 42.4539C101.504 44.1218 102.065 45.8026 102.729 47.438C102.898 47.8493 103.381 48.28 103.805 48.4063C105.254 48.8468 106.757 49.0994 108.206 49.5431C108.666 49.6856 109.01 50.207 109.405 50.5535H109.402Z" fill="#FFCE1F"/>
<path d="M102.133 78.4858C101.549 79.0072 101.271 79.4412 100.892 79.5545C100.107 79.7942 99.2681 79.9885 98.4547 79.9723C97.5863 79.9529 97.3043 80.322 97.2168 81.0669C97.0678 82.3235 96.9738 83.5897 96.7145 84.8268C96.6206 85.2932 96.209 85.9539 95.8266 86.0413C95.0521 86.2194 94.8577 85.5231 94.7864 84.8592C94.6633 83.6383 94.4818 82.4206 94.3911 81.1965C94.3198 80.2119 93.879 79.7035 92.8777 79.6063C91.9088 79.5157 90.9431 79.3408 89.9807 79.1788C89.6274 79.1206 89.2321 79.0752 88.9469 78.8906C88.584 78.6607 88.3118 78.2882 88.0039 77.9773C88.3442 77.7085 88.652 77.2649 89.0247 77.2001C90.2302 76.9896 91.4583 76.805 92.6768 76.8244C93.6004 76.8406 93.8888 76.4844 93.9536 75.678C94.0411 74.5996 94.1577 73.5211 94.2647 72.4427C94.323 71.85 94.3911 71.2121 95.172 71.1926C95.9336 71.1732 96.0567 71.7464 96.1345 72.3747C96.2933 73.6669 96.4683 74.9526 96.7243 76.2221C96.7923 76.5362 97.1715 76.9443 97.4761 77.0187C98.526 77.2713 99.6213 77.3361 100.671 77.5887C101.112 77.6956 101.481 78.081 102.126 78.4955L102.133 78.4858Z" fill="#FFCE1F"/>
<path d="M172.421 62.8762C169.99 62.5362 167.543 62.3225 165.567 62.1055C163.606 62.2447 162.119 62.2609 160.657 62.4747C158.729 62.7564 156.811 63.1321 154.925 63.6049C154.542 63.7021 154.047 64.4502 154.095 64.842C154.137 65.1821 154.886 65.7132 155.281 65.6808C155.975 65.6225 156.124 65.9949 156.422 66.4095C158.509 69.3242 161.302 70.775 164.922 70.2277C168.438 69.6934 171.037 67.5786 173.295 65.0104C174.089 64.1069 173.652 63.0446 172.417 62.8762H172.421ZM169.805 65.3084C167.537 67.1576 165.116 68.7477 162.038 67.8182C160.865 67.462 159.844 66.539 158.817 65.7812C158.233 65.3505 158.444 65.0331 159.147 64.9683C161.15 64.7773 163.156 64.557 164.721 64.3919C166.649 64.5376 168.12 64.6445 169.595 64.7643C169.744 64.7773 169.883 64.8971 170.032 64.9683C169.958 65.0849 169.906 65.2274 169.802 65.3084H169.805Z" fill="black"/>
<path d="M180.195 38.7587C182.321 38.4738 183.879 39.5392 185.059 41.3399C185.393 41.8483 185.746 42.4604 185.069 42.8231C184.77 42.985 183.944 42.7324 183.75 42.4248C183.053 41.314 181.945 41.3431 180.901 41.1682C180.337 41.0743 180.341 41.4079 180.48 41.8321C180.94 43.2053 180.341 44.2999 179.488 45.2941C178.941 45.9353 178.131 46.2462 177.457 45.7799C176.951 45.4269 176.653 44.6756 176.439 44.0408C176.316 43.6781 176.598 43.1955 176.585 42.7713C176.575 42.373 176.53 41.9001 176.309 41.5989C175.869 40.9933 176.037 40.5237 176.442 40.0412C177.395 38.9077 178.665 38.6389 180.192 38.7587H180.195Z" fill="black"/>
<path d="M195.095 158.102C194.262 158.481 193.465 158.141 192.988 157.156C192.625 156.408 192.269 155.654 191.99 154.873C191.731 154.145 191.306 153.921 190.535 153.944C184.167 154.122 177.8 154.255 171.432 154.41C164.089 154.588 156.746 154.792 149.403 154.964C138.475 155.217 127.548 155.45 116.624 155.689C115.114 155.722 115.066 155.735 115.454 157.195C117.182 163.685 118.928 170.175 120.698 176.656C121.799 180.697 122.982 184.72 124.068 188.765C124.321 189.701 124.729 189.976 125.708 189.969C136.888 189.869 148.067 189.811 159.251 189.785C160.359 189.785 161.487 189.989 162.576 190.235C164.611 190.685 166.202 191.838 167.274 193.632C167.757 194.435 168.237 195.268 168.541 196.148C171.069 203.403 174.614 210.207 177.806 217.17C180.729 223.543 183.454 230.004 186.264 236.426C186.394 236.724 186.514 237.028 186.611 237.336C186.896 238.24 186.601 238.939 185.733 239.279C184.858 239.619 184.164 239.279 183.766 238.437C183.445 237.751 183.192 237.035 182.881 236.342C178.406 226.468 173.911 216.603 169.458 206.716C168.438 204.446 167.55 202.111 166.639 199.795C166.412 199.225 166.173 198.94 165.482 198.947C141.272 199.241 117.062 199.51 92.8515 199.792C90.8197 199.814 90.9882 199.675 91.7465 201.466C94.838 208.792 97.9198 216.117 101.005 223.446C101.118 223.712 101.212 223.987 101.309 224.259C101.685 225.363 101.387 226.196 100.496 226.506C99.634 226.811 98.9114 226.432 98.4771 225.376C97.2717 222.436 96.131 219.466 94.8866 216.541C92.8223 211.687 90.6739 206.868 88.6161 202.007C87.955 200.446 87.3458 198.846 86.9504 197.207C86.2343 194.247 87.4236 192.097 90.4114 191.511C93.2274 190.954 96.1439 190.811 99.0248 190.695C106.002 190.413 112.985 190.254 119.965 190.044C121.249 190.005 121.239 190.002 120.908 188.803C118.112 178.634 115.292 168.469 112.541 158.287C111.955 156.127 111.54 153.921 111.922 151.644C112.279 149.504 113.458 148.034 115.532 147.476C117.094 147.062 118.731 146.939 120.328 146.651C120.633 146.596 120.912 146.385 121.2 146.249C120.892 146.142 120.581 145.932 120.276 145.938C114.926 146.142 109.573 146.369 104.223 146.592C97.6087 146.868 90.9914 147.143 84.3742 147.421C83.509 147.46 82.6405 147.512 81.7753 147.557C70.3847 148.021 58.9973 148.484 47.6068 148.947C46.1258 149.008 44.6416 149.125 43.1607 149.122C42.3052 149.122 42.1043 149.332 42.3635 150.187C44.0681 155.783 45.7337 161.396 47.4058 167.005C51.5343 180.85 55.5559 194.733 59.8366 208.529C61.6319 214.317 63.9651 219.939 66.0715 225.629C66.5154 226.824 66.3275 227.656 65.4363 228.035C64.5517 228.417 63.7059 228.054 63.2587 226.853C60.932 220.59 58.4497 214.375 56.4146 208.018C53.4041 198.629 50.7047 189.14 47.9243 179.677C47.6392 178.712 47.2795 178.379 46.2425 178.385C38.8248 178.44 31.4039 178.43 23.9863 178.408C23.1275 178.408 22.8877 178.563 23.0368 179.486C23.9571 185.222 25.6746 190.74 27.5574 196.207C30.9438 206.045 34.4274 215.852 37.8818 225.664C38.4392 227.251 38.2999 228.054 37.2985 228.443C36.2907 228.838 35.5745 228.339 35.001 226.798C30.1077 213.698 25.3506 200.546 21.5591 187.077C20.6355 183.793 20.0522 180.374 19.7087 176.976C19.3555 173.472 21.1054 171.678 24.6474 171.338C26.2288 171.189 27.8231 171.134 29.4142 171.121C34.2978 171.085 39.1878 171.092 44.0713 171.082C44.9614 171.082 45.2757 170.643 45.0143 169.764C43.1283 163.468 41.2066 157.179 39.3887 150.861C39.0063 149.533 38.7697 148.072 38.8799 146.706C39.1554 143.237 41.2909 141.239 45.0921 140.747C46.9878 140.501 48.9127 140.404 50.8246 140.339C67.5686 139.795 84.3159 139.322 101.057 138.71C105.461 138.551 109.845 137.936 114.242 137.602C115.497 137.508 116.78 137.56 118.024 137.725C119.956 137.984 121.569 138.972 122.448 140.708C123.222 142.233 123.724 143.911 124.214 145.563C124.402 146.197 124.616 146.362 125.228 146.327C130.646 146.022 136.068 145.728 141.489 145.449C146.8 145.177 152.112 144.863 157.423 144.682C165.489 144.406 173.558 144.235 181.624 144.021C182.022 144.008 182.466 143.904 182.806 144.037C183.338 144.248 184.038 144.523 184.232 144.963C184.43 145.401 184.261 146.213 183.941 146.609C183.519 147.133 183.594 147.438 183.889 147.92C184.809 149.407 186.248 149.841 187.862 149.983C188.542 150.041 189.216 150.187 189.893 150.207C190.166 150.213 190.483 150.032 190.717 149.854C191.799 149.002 192.774 149.167 193.354 150.411C194.207 152.247 195.01 154.103 195.791 155.974C196.19 156.927 195.885 157.733 195.098 158.092L195.095 158.102Z" fill="#FFCE1F"/>
<path d="M221.975 220.965C220.193 220.965 218.599 221.007 217.011 220.949C216.113 220.917 215.899 221.127 216.201 222.028C217.743 226.655 219.234 231.299 220.741 235.937C221.263 237.547 221.065 238.353 220.07 238.693C219.027 239.049 218.362 238.505 217.818 236.834C212.072 219.174 206.33 201.518 200.584 183.858C200.575 183.823 200.565 183.787 200.555 183.755C200.082 182.262 200.319 181.426 201.307 181.109C202.302 180.791 202.992 181.322 203.472 182.806C207.147 194.108 210.828 205.411 214.47 216.726C214.762 217.633 215.148 217.908 216.12 217.94C221.288 218.102 226.457 218.297 231.613 218.64C234.691 218.844 236.94 220.56 238.071 223.404C239.218 226.283 240.126 229.262 241.079 232.216C246.147 247.9 251.695 263.41 258.147 278.585C258.762 280.036 259.333 281.565 259.556 283.113C260.033 286.413 257.748 289.276 254.417 289.483C252.8 289.583 251.128 289.211 249.517 288.874C248.457 288.654 248.065 287.767 248.367 286.902C248.655 286.076 249.391 285.762 250.415 285.982C251.364 286.186 252.32 286.481 253.279 286.513C255.778 286.591 257.129 284.93 256.338 282.582C255.473 280.02 254.352 277.542 253.331 275.036C247.07 259.666 241.503 244.053 236.607 228.197C236.234 226.992 235.774 225.81 235.278 224.647C234.478 222.779 232.997 221.791 230.991 221.629C227.925 221.383 224.86 221.176 221.979 220.965H221.975Z" fill="#FFCE1F"/>
<path d="M169.54 178.43C169.015 178.31 168.38 178.336 167.991 178.038C167.132 177.381 166.523 177.724 165.706 178.145C163.879 179.091 162.051 178.88 160.431 177.598C159.903 177.18 159.455 177.051 158.778 177.119C158.347 177.161 157.67 176.782 157.466 176.396C157.326 176.137 157.822 175.545 158.026 175.098C158.179 174.767 158.47 174.421 158.444 174.104C158.295 172.384 158.642 170.859 159.987 169.686C161.338 168.504 163.01 168.783 163.957 170.314C165.019 172.041 164.637 174.113 163.027 175.457C162.8 175.648 162.634 175.911 162.44 176.141C162.745 176.238 163.046 176.393 163.357 176.416C164.446 176.494 165.169 175.966 165.752 175.056C166.063 174.567 166.591 174.013 167.11 173.909C167.887 173.751 168.16 174.508 168.312 175.166C168.474 175.865 168.976 176.192 169.585 176.037C170.477 175.814 171.458 175.577 172.152 175.033C173.247 174.175 174.161 173.08 175.098 172.037C175.6 171.477 176.099 171.001 176.841 171.503C177.641 172.047 177.454 172.802 176.919 173.375C175.72 174.664 174.553 176.024 173.163 177.077C172.175 177.825 169.579 178.485 169.537 178.424L169.54 178.43ZM160.684 173.216C160.752 173.411 160.852 173.689 160.953 173.971C161.225 173.825 161.526 173.712 161.766 173.521C161.951 173.372 162.187 173.109 162.168 172.921C162.113 172.4 161.938 171.892 161.811 171.38C161.487 171.71 161.128 172.011 160.855 172.377C160.722 172.556 160.752 172.857 160.687 173.216H160.684Z" fill="white"/>
<path d="M168.133 160.049C163.619 160.165 159.101 160.291 154.587 160.398C153.421 160.427 152.824 159.977 152.815 159.129C152.805 158.287 153.401 157.817 154.542 157.782C163.57 157.513 172.601 157.241 181.63 156.978C181.986 156.969 182.456 156.881 182.683 157.066C183.088 157.393 183.574 157.882 183.603 158.332C183.629 158.711 183.13 159.252 182.725 159.495C182.362 159.712 181.818 159.653 181.351 159.666C176.944 159.789 172.537 159.903 168.133 160.023C168.133 160.032 168.133 160.042 168.133 160.055V160.049Z" fill="white"/>
<path d="M157.287 166.007C156.927 166.007 156.447 166.098 156.233 165.907C155.851 165.564 155.41 165.055 155.381 164.595C155.336 163.789 155.965 163.426 156.758 163.413C159.144 163.374 161.529 163.323 163.914 163.293C167.997 163.248 172.08 163.219 176.163 163.183C176.344 163.183 176.526 163.183 176.704 163.19C177.511 163.219 178.033 163.614 178.052 164.433C178.072 165.308 177.543 165.752 176.685 165.771C174.264 165.823 171.843 165.865 169.423 165.9C168.483 165.913 160.388 166.007 157.28 166.004L157.287 166.007Z" fill="white"/>
<path d="M243.295 181.866C242.349 181.345 241.403 180.83 240.45 180.318C239.838 179.988 239.29 179.36 238.94 178.744C237.644 176.445 236.536 174.042 235.194 171.772C225.44 155.294 211.211 145.264 192.214 142.22C189.535 141.79 186.793 141.712 184.188 142.774C182.14 143.61 181.171 145.196 181.336 147.276C181.491 149.245 182.733 150.738 184.826 151.172C186.197 151.457 187.619 151.544 189.026 151.576C192.237 151.648 195.121 152.674 197.779 154.41C197.976 154.536 198.122 154.744 198.294 154.912C198.116 155.012 197.95 155.129 197.766 155.216C193.294 157.341 188.779 159.375 184.376 161.622C182.626 162.516 181.002 163.747 179.534 165.062C177.69 166.72 177.71 169.013 179.563 170.658C180.497 171.487 181.764 171.973 182.943 172.468C183.514 172.708 183.86 172.834 183.77 173.55C183.621 174.67 184.042 175.71 184.91 176.341C185.97 177.112 187.14 177.854 188.378 178.217C189.593 178.566 190.951 178.434 192.247 178.489C192.655 178.505 192.976 178.421 193.034 179.052C193.277 181.74 194.872 183.586 197.555 183.894C199.13 184.069 200.799 183.871 202.364 183.544C204.726 183.052 207.047 182.329 209.37 181.646C210.303 181.374 210.608 181.666 210.809 182.585C211.606 186.242 212.86 189.73 214.788 192.962C217.381 197.301 221.127 199.908 226.143 200.65C226.85 200.754 227.261 201.064 227.601 201.725C228.097 202.68 228.587 203.636 229.082 204.591C229.264 204.944 229.449 205.297 229.63 205.65C230.304 204.766 230.968 203.875 231.629 202.982C231.454 202.642 231.289 202.295 231.117 201.952C230.774 201.249 230.437 200.543 230.106 199.834C229.533 198.597 228.765 197.878 227.365 197.738C222.154 197.224 218.596 194.351 216.528 189.681C215.423 187.187 214.691 184.525 213.784 181.941C213.534 181.228 213.806 180.921 214.526 180.921C214.814 180.921 215.106 180.905 215.394 180.875C216.389 180.778 216.985 180.156 216.953 179.285C216.921 178.411 216.279 177.757 215.255 177.883C212.429 178.226 209.594 178.589 206.803 179.133C204.681 179.551 202.63 180.309 200.527 180.817C199.366 181.099 198.151 181.183 197.053 180.493C195.931 179.79 195.799 179.088 196.832 178.291C197.911 177.462 199.088 176.707 200.322 176.134C205.054 173.929 210.102 172.808 215.258 172.235C217.507 171.982 219.801 171.924 222.063 172.015C224.15 172.096 224.934 173.041 225.003 175.153C225.032 176.086 224.886 177.022 224.818 177.961C224.737 179.114 225.152 179.787 226.036 179.933C226.957 180.088 227.695 179.538 227.819 178.366C227.968 176.898 228.12 175.396 227.964 173.945C227.618 170.732 225.304 168.945 221.512 168.796C216.519 168.601 211.612 169.353 206.826 170.658C203.495 171.568 200.254 172.828 197.001 174.016C194.541 174.916 192.111 175.83 189.421 175.331C189.35 175.318 189.266 175.331 189.207 175.292C188.459 174.839 187.717 174.379 186.968 173.919C187.461 173.297 187.849 172.53 188.472 172.083C189.726 171.176 191.045 170.308 192.451 169.673C197.999 167.157 203.715 165.143 209.788 164.314C213.23 163.841 216.571 164.246 219.795 165.544C220.362 165.774 220.923 166.03 221.49 166.266C222.579 166.723 223.418 166.493 223.794 165.632C224.173 164.77 223.836 163.915 222.728 163.494C220.741 162.736 218.732 162.004 216.677 161.467C215.294 161.104 213.816 161.101 212.384 160.936C207.422 161.12 202.743 162.484 198.112 164.067C194.207 165.402 190.371 166.888 186.949 169.278C185.733 170.13 182.781 169.609 181.767 168.524C181.303 168.022 181.274 167.555 181.803 167.134C182.71 166.419 183.572 165.599 184.586 165.078C188.886 162.856 193.157 160.547 197.587 158.614C203.145 156.182 208.907 156.787 214.62 158.209C215.462 158.416 216.276 158.811 217.125 158.889C217.727 158.944 218.589 158.811 218.939 158.413C219.516 157.762 219.814 157.921 220.32 158.364C223.525 161.153 226.412 164.236 228.907 167.682C231.824 171.707 234.251 176.018 236.354 180.513C236.837 181.546 237.537 182.261 238.535 182.815C239.65 183.437 240.765 184.062 241.879 184.687C242.165 184.846 242.446 185.005 242.728 185.163C243.214 184.224 243.688 183.278 244.145 182.326C243.863 182.174 243.587 182.015 243.305 181.866H243.295ZM211.648 154.481C209.027 154.229 206.392 154.119 203.761 154.047C202.957 154.025 202.328 153.879 201.683 153.377C198.712 151.055 195.478 149.241 191.677 148.72C190.141 148.513 188.575 148.48 187.023 148.393C185.276 148.292 184.508 147.888 184.418 146.984C184.324 146.1 185.092 145.524 186.793 145.258C190.121 144.743 193.352 145.384 196.56 146.149C203.715 147.849 210.261 150.893 216.191 155.375C214.681 155.064 213.181 154.627 211.651 154.481H211.648Z" fill="black"/>
<path d="M75.4887 224.327C87.9745 224.094 97.8518 223.922 107.729 223.712C110.639 223.65 113.189 224.602 115.561 226.179C121.132 229.884 126.69 233.612 132.292 237.271C132.967 237.712 133.887 238.003 134.684 237.99C154.332 237.679 173.979 237.326 193.627 236.967C200.934 236.834 208.242 236.643 215.552 236.523C217.173 236.497 218.809 236.575 220.42 236.763C223.919 237.168 226.596 238.933 228.34 242C229.678 244.354 230.977 246.738 232.212 249.15C241.195 266.684 250.155 284.227 259.122 301.77C259.287 302.091 259.452 302.418 259.546 302.764C259.757 303.525 259.491 304.147 258.798 304.5C258.065 304.869 257.365 304.73 256.876 304.047C256.584 303.639 256.38 303.166 256.15 302.716C246.451 283.803 236.752 264.89 227.053 245.98C226.872 245.627 226.654 245.287 226.492 244.927C224.752 241.038 221.599 239.506 217.51 239.567C213.096 239.632 208.682 239.72 204.269 239.81C195.477 239.988 186.685 240.196 177.894 240.354C163.386 240.617 148.874 240.837 134.366 241.109C132.999 241.135 131.858 240.788 130.724 240.021C125.273 236.332 119.752 232.744 114.314 229.036C111.845 227.352 109.213 226.681 106.238 226.759C93.2534 227.106 80.262 227.274 67.2771 227.672C58.2748 227.951 49.2822 228.527 40.2832 228.916C37.2727 229.045 35.2117 230.344 33.8798 233.09C32.0683 236.831 30.0462 240.468 28.1926 244.186C27.9723 244.623 28.0824 245.377 28.306 245.863C35.6945 262.036 43.1122 278.197 50.5266 294.36C52.9829 299.713 55.4393 305.07 57.8956 310.423C58.0447 310.75 58.197 311.081 58.3072 311.424C58.5729 312.243 58.2618 312.868 57.523 313.218C56.7809 313.568 56.0971 313.39 55.6208 312.687C55.4198 312.389 55.2773 312.052 55.1282 311.725C45.1375 289.985 35.1533 268.241 25.1432 246.511C24.5567 245.241 24.6118 244.156 25.2794 242.926C27.1103 239.561 28.8342 236.138 30.6068 232.741C30.9925 232.002 31.3878 231.274 31.7896 230.545C33.3419 227.711 35.7723 226.199 38.9578 225.969C43.6112 225.629 48.2679 225.279 52.9278 225.088C61.3144 224.748 69.7075 224.521 75.4919 224.33L75.4887 224.327Z" fill="black"/>
<path d="M77.1392 47.2469C76.2546 47.4542 75.493 46.9651 75.2662 45.9094C74.8093 43.7558 74.4075 41.5892 74.0056 39.4226C73.7367 37.9588 73.7529 37.9653 72.2201 37.962C57.8222 37.9426 43.4244 37.9199 29.0298 37.894C26.1717 37.8875 23.3135 37.8746 20.4553 37.8681C19.1169 37.8681 19.1105 37.8681 19.4637 39.1959C19.6128 39.7529 19.8202 40.297 19.966 40.854C20.2252 41.8483 19.8688 42.6093 19.0392 42.8846C18.2063 43.1631 17.3379 42.8101 17.1013 41.8224C16.6023 39.7659 15.9995 37.677 15.9218 35.5817C15.7954 31.9351 17.7592 29.8722 21.6219 29.3475C23.6537 29.069 25.7277 29.0301 27.7855 29.014C33.7189 28.9751 60.123 29.0658 67.3916 29.0884C68.218 29.0884 69.0476 29.2407 69.8642 29.3864C73.4709 30.0179 75.6778 32.1586 76.4263 35.7145C77.0939 38.8947 77.6577 42.0944 78.2346 45.2941C78.4225 46.3434 77.9883 47.0396 77.1425 47.2372L77.1392 47.2469Z" fill="#FFCE1F"/>
<path d="M87.8219 98.3316C87.3779 101.149 85.9067 103.254 83.1944 104.096C80.9746 104.783 78.6252 105.265 76.3082 105.372C71.9399 105.57 50.8827 105.515 44.7418 105.764C41.6989 105.887 38.6625 105.936 35.6715 105.233C32.6416 104.527 30.7102 102.762 30.0232 99.6464C29.3329 96.5407 28.5487 93.4576 27.8066 90.3615C28.9408 90.8085 30.101 91.2068 31.274 91.5566C31.8833 93.9725 32.4795 96.3885 33.011 98.8206C33.4387 100.777 34.5567 102.036 36.4622 102.189C39.8389 102.457 43.235 102.564 46.6246 102.558C53.6404 102.545 60.653 102.354 67.6721 102.354C71.9042 102.354 76.1429 102.681 80.3265 101.797C83.8036 101.062 85.1452 99.5914 84.8147 96.0419C84.4874 92.5022 83.8068 88.9657 82.9675 85.5037C80.4529 75.1372 78.4567 64.6767 76.8137 54.145C76.7554 53.7855 76.7197 53.4261 76.7068 53.0666C76.6808 52.1209 77.2026 51.47 78.0516 51.4149C79.014 51.3534 79.5487 51.891 79.714 52.7816C79.9408 54.022 80.0996 55.2785 80.2973 56.5286C82.031 67.4878 84.3772 78.3239 87.015 89.0985C87.7506 92.1136 88.3145 95.1772 87.8219 98.3283V98.3316Z" fill="#FFCE1F"/>
<path d="M110.287 168.618C109.237 168.362 108.197 168.051 107.137 167.824C106.188 167.62 105.825 167.167 105.812 166.124C105.766 162.902 104.149 160.573 101.294 159.148C99.8944 158.449 98.3973 158.06 97.0363 159.265C96.0479 160.136 96.0155 161.707 96.8742 163.507C97.8853 165.619 99.444 167.245 101.379 168.533C102.134 169.039 102.153 169.482 101.298 169.771C100.51 170.033 99.525 170.253 98.7829 170.013C96.4594 169.259 94.1878 168.333 91.9421 167.364C90.4093 166.704 89.2686 167.215 89.1261 168.793C88.9673 170.535 88.5622 170.979 86.8512 170.46C84.4823 169.741 82.1848 168.776 79.9066 167.789C79.3752 167.559 78.9053 166.891 78.6687 166.318C77.797 164.178 76.342 162.769 74.0445 162.341C73.0658 162.16 72.1455 162.328 71.6108 163.316C71.1085 164.252 71.4099 165.12 72.0677 165.803C72.92 166.684 73.85 167.494 74.806 168.258C75.9532 169.175 75.9629 169.913 74.6731 170.668C74.187 170.953 73.5908 171.247 73.0593 171.225C71.3094 171.15 69.5628 170.953 67.8226 170.749C67.1323 170.668 66.8569 170.289 66.8666 169.489C66.912 166.305 64.433 163.608 61.5683 163.601C58.9791 163.595 57.7379 165.606 58.9888 167.857C59.3842 168.576 59.948 169.214 60.5086 169.819C60.904 170.247 61.0692 170.49 60.6318 171.056C59.8151 172.115 60.3725 173.394 61.7076 173.518C62.5891 173.598 63.4899 173.394 64.3876 173.356C64.9385 173.333 65.538 173.245 66.0305 173.424C68.2017 174.217 70.4248 174.625 72.732 174.431C74.5046 174.282 76.1379 173.751 77.4244 172.446C77.9267 171.931 78.3382 171.001 78.8794 170.927C79.5048 170.839 80.2307 171.493 80.9145 171.817C81.2418 171.973 81.5723 172.118 81.9093 172.251C84.0708 173.109 86.2646 173.832 88.6464 173.592C89.9589 173.462 91.025 172.886 91.5986 171.681C91.9324 170.988 92.2402 171.072 92.8365 171.306C94.4147 171.921 95.9993 172.578 97.639 172.954C100.358 173.576 102.905 173.333 104.72 170.778C104.862 170.577 105.413 170.545 105.737 170.616C107.111 170.914 108.456 171.348 109.837 171.597C110.883 171.785 111.564 171.27 111.716 170.418C111.875 169.511 111.356 168.87 110.284 168.608L110.287 168.618ZM63.1367 168.012C62.884 167.711 62.6344 167.41 62.3849 167.108L62.5081 166.985C62.7705 167.27 63.0395 167.559 63.3052 167.847C63.2501 167.899 63.1951 167.954 63.14 168.009L63.1367 168.012ZM102.208 165.499C101.314 164.395 100.423 163.284 99.5283 162.179C101.324 162.461 102.467 163.88 102.49 165.366C102.396 165.411 102.302 165.457 102.208 165.499Z" fill="white"/>
<path d="M75.5547 69.1168C74.0122 60.9978 72.4567 52.882 70.8915 44.763C70.5739 43.1114 69.9744 42.6418 68.2796 42.6709C61.9184 42.7843 55.5572 42.9009 49.1927 43.0337C47.2321 43.0725 46.5063 43.9696 46.8595 45.8965C48.3372 53.9184 49.8214 61.937 51.3185 69.9556C51.6328 71.6558 52.2874 72.1416 53.979 72.1319C57.1612 72.1125 70.1721 71.6202 73.4969 71.5846C75.088 71.5716 75.8431 70.6454 75.5514 69.1168H75.5547ZM71.3322 68.5954C68.6263 68.5695 57.926 68.9873 55.2882 69.0261C54.5396 69.0391 54.2285 68.848 54.0859 68.0546C52.8318 61.1306 51.5421 54.2131 50.2199 47.2988C50.0385 46.3467 50.2329 46.052 51.2342 46.039C56.4742 45.9775 61.7175 45.8706 66.9575 45.7281C67.8065 45.7054 68.0495 46.0163 68.1954 46.7936C69.4851 53.7467 70.8073 60.6999 72.1456 67.6433C72.2914 68.3914 72.0549 68.5986 71.3355 68.5922L71.3322 68.5954Z" fill="white"/>
<path d="M153.959 180.548C151.937 173.317 149.912 166.085 147.877 158.857C147.377 157.085 146.908 156.742 145.009 156.755C137.737 156.81 130.468 156.865 123.196 156.923C121.359 156.939 120.743 157.736 121.255 159.469C123.482 166.982 125.721 174.489 127.963 181.996C128.391 183.427 128.884 183.771 130.4 183.771C133.978 183.771 148.301 183.401 151.882 183.375C153.953 183.363 154.52 182.576 153.953 180.548H153.959ZM150.168 180.804C143.981 180.849 137.798 180.937 131.615 181.066C130.715 181.083 130.374 180.791 130.131 179.952C128.258 173.543 126.353 167.141 124.405 160.751C124.12 159.825 124.256 159.556 125.244 159.569C128.423 159.611 131.609 159.585 134.791 159.585V159.465C137.902 159.465 141.01 159.491 144.121 159.446C144.937 159.433 145.333 159.647 145.563 160.476C147.332 166.882 149.14 173.271 150.962 179.661C151.188 180.448 151.169 180.798 150.168 180.804Z" fill="white"/>
<path d="M258.172 244.95C259.151 244.969 259.54 245.604 259.767 246.439C260.693 249.853 261.633 253.263 262.563 256.676C267.605 275.172 272.645 293.664 277.684 312.159C278.137 313.824 277.875 314.669 276.812 314.944C275.759 315.216 275.124 314.63 274.663 312.939C268.733 291.134 262.806 269.329 256.879 247.521C256.451 245.944 256.951 244.956 258.169 244.95H258.172Z" fill="black"/>
<path d="M156.203 210.706C156.002 210.068 155.367 209.977 154.751 210.255C153.993 210.596 153.27 211.055 152.482 211.282C151.491 211.567 150.441 211.839 149.42 211.823C147.832 211.797 147.294 210.505 148.095 209.184C148.652 208.267 149.096 207.263 149.423 206.243C149.673 205.479 149.631 204.598 148.766 204.148C147.897 203.697 147.148 204.073 146.523 204.711C145.522 205.734 145.032 206.978 144.922 208.406C144.89 208.827 144.731 209.41 144.426 209.601C142.216 210.997 139.883 212.186 137.262 212.529C136.526 212.626 135.68 212.205 134.951 211.881C134.364 211.622 134.306 211.159 134.76 210.573C135.262 209.925 135.758 209.2 135.981 208.432C136.131 207.908 136.004 207.049 135.648 206.703C135.288 206.35 134.439 206.243 133.895 206.385C132.336 206.794 131.467 208.225 131.438 209.935C131.432 210.388 131.312 211.026 131.004 211.253C129.708 212.218 128.392 213.209 126.947 213.912C125.148 214.789 124.406 214.414 123.489 212.633C122.906 211.502 122.238 211.379 121.114 212.014C120.022 212.629 118.897 213.264 117.708 213.598C117.04 213.782 116.175 213.455 115.456 213.203C114.856 212.995 114.701 212.587 115.245 211.978C116.107 211.013 116.933 209.99 117.624 208.892C118.33 207.762 118.087 206.418 117.235 205.605C116.389 204.795 115.222 204.695 114.014 205.32C112.04 206.343 110.922 208.811 111.418 211.026C111.749 212.484 111.616 212.807 110.206 213.352C109.726 213.539 109.153 213.552 108.621 213.543C107.892 213.526 107.283 213.659 107.173 214.488C107.066 215.321 107.649 215.625 108.336 215.78C109.83 216.12 111.133 215.628 112.296 214.757C112.85 214.339 113.21 214.297 113.767 214.786C114.879 215.767 116.25 216.214 117.701 215.897C118.884 215.638 119.996 215.081 121.159 214.718C121.441 214.631 121.963 214.676 122.096 214.864C123.415 216.681 125.233 217.018 127.112 216.237C128.823 215.528 130.395 214.456 131.963 213.439C132.511 213.086 132.783 212.963 133.302 213.465C134.296 214.433 135.531 214.922 136.96 214.893C137.527 214.799 138.133 214.802 138.661 214.602C140.709 213.802 142.751 212.979 144.754 212.076C145.347 211.813 145.658 211.716 146.06 212.341C146.74 213.397 147.78 214.009 149.031 214.122C151.565 214.352 153.788 213.397 155.859 212.082C156.16 211.888 156.323 211.101 156.196 210.699L156.203 210.706ZM113.758 210.314C113.576 208.979 114.134 207.801 115.018 207.393C115.184 207.315 115.404 207.351 115.602 207.338C115.595 207.538 115.67 207.794 115.576 207.93C115.028 208.695 114.441 209.426 113.761 210.311L113.758 210.314Z" fill="#FFE380"/>
<path d="M87.881 182.346C79.4167 182.521 70.9523 182.696 62.4912 182.864C62.1315 182.87 61.6876 182.942 61.4348 182.764C61.0945 182.527 60.7316 182.093 60.7024 181.717C60.6765 181.407 61.0589 180.966 61.3732 180.752C61.6357 180.574 62.0667 180.603 62.4232 180.597C79.3162 180.276 96.206 179.959 113.099 179.642C113.17 179.642 113.245 179.638 113.316 179.635C114.139 179.632 115.053 179.609 115.04 180.749C115.027 181.789 114.188 181.824 113.384 181.841C104.884 182.006 96.3843 182.181 87.8843 182.352C87.8843 182.352 87.8843 182.346 87.8843 182.342L87.881 182.346Z" fill="white"/>
<path d="M89.1741 188.357C80.8977 188.577 72.6181 188.797 64.3417 189.017C64.0889 189.024 63.8362 189.027 63.5834 189.033C62.8121 189.053 62.1511 188.842 62.1543 187.945C62.1543 187.058 62.8121 186.86 63.5834 186.838C73.1982 186.566 82.8129 186.287 92.4277 186.012C99.7286 185.805 107.03 185.601 114.334 185.393C115.818 185.351 116.469 185.675 116.401 186.501C116.301 187.748 115.306 187.638 114.444 187.66C106.022 187.89 97.5996 188.117 89.1774 188.344C89.1774 188.347 89.1774 188.353 89.1774 188.357H89.1741Z" fill="white"/>
<path d="M61.3794 91.9906C56.5737 92.1881 51.7679 92.3921 46.9589 92.5865C45.3062 92.6545 44.5479 92.214 44.4831 91.168C44.4151 90.1025 45.0988 89.5681 46.7774 89.5001C54.8724 89.1763 62.9705 88.8719 71.0655 88.5577C72.8381 88.4897 74.6074 88.4023 76.38 88.3504C77.7572 88.3116 78.4507 88.8233 78.4734 89.8207C78.4961 90.7923 77.8966 91.3234 76.5582 91.385C71.4997 91.6084 66.4379 91.806 61.3794 92.01C61.3794 92.0003 61.3794 91.9938 61.3794 91.9841V91.9906Z" fill="white"/>
<path d="M45.2279 85.4778C44.9751 85.4778 44.7191 85.4843 44.4696 85.4584C43.6238 85.371 43.1409 84.8722 43.0988 84.0464C43.0535 83.1688 43.5039 82.5696 44.4048 82.479C45.4126 82.3786 46.4269 82.3526 47.4379 82.3332C56.518 82.1421 65.5981 81.9576 74.6749 81.773C74.8564 81.7697 75.0378 81.7632 75.2161 81.773C76.2401 81.8377 76.8396 82.4077 76.8266 83.2951C76.8137 84.1533 76.1817 84.7621 75.1739 84.7945C72.4972 84.8787 69.8205 84.9597 67.1438 84.9953C64.7199 85.0277 50.1082 85.4746 45.2246 85.4746L45.2279 85.4778Z" fill="white"/>
<path d="M156.23 233.327C150.521 233.446 144.811 233.566 139.098 233.686C138.738 233.693 138.297 233.806 138.031 233.647C137.623 233.404 137.131 232.996 137.066 232.595C137.017 232.294 137.526 231.782 137.905 231.571C138.249 231.38 138.748 231.439 139.182 231.429C150.712 231.186 162.242 230.95 173.772 230.713C173.843 230.713 173.917 230.713 173.989 230.713C174.835 230.703 175.823 230.619 175.842 231.808C175.862 233 174.841 232.954 174.015 232.97C168.088 233.093 162.161 233.2 156.23 233.314C156.23 233.317 156.23 233.323 156.23 233.327Z" fill="#FFE380"/>
<path d="M153.394 226.921C147.503 227.05 141.612 227.183 135.724 227.306C135.367 227.313 134.939 227.355 134.67 227.183C134.35 226.979 133.951 226.555 133.967 226.247C133.987 225.872 134.353 225.457 134.67 225.172C134.842 225.017 135.221 225.075 135.51 225.069C147.328 224.826 159.146 224.589 170.965 224.35C171.182 224.346 171.457 224.265 171.603 224.369C172.028 224.67 172.64 224.991 172.734 225.402C172.89 226.095 172.336 226.51 171.61 226.532C169.912 226.591 168.214 226.665 166.515 226.672C162.144 226.691 153.394 226.84 153.394 226.924V226.921Z" fill="#FFE380"/>
<path d="M149.872 221.053C144.052 221.163 138.235 221.276 132.415 221.386C132.163 221.39 131.91 221.396 131.657 221.383C130.999 221.344 130.52 221.04 130.51 220.34C130.5 219.602 130.957 219.223 131.68 219.204C133.919 219.136 136.161 219.071 138.401 219.025C148.122 218.825 157.844 218.63 167.566 218.439C167.887 218.433 168.285 218.371 168.519 218.53C168.865 218.766 169.335 219.194 169.309 219.505C169.277 219.897 168.839 220.292 168.499 220.603C168.353 220.735 168.013 220.664 167.76 220.671C161.798 220.797 155.835 220.923 149.872 221.046C149.872 221.049 149.872 221.053 149.872 221.056V221.053Z" fill="#FFE380"/>
<path d="M56.0072 78.6866C55.6118 78.6866 55.2003 78.7319 54.8211 78.6542C54.0693 78.4988 53.6059 78.013 53.5703 77.2293C53.5379 76.4488 53.9202 75.9144 54.6915 75.7233C55.0382 75.6359 55.4044 75.6035 55.7609 75.5938C61.5388 75.4481 67.3135 75.3056 73.0914 75.1695C74.4103 75.1372 75.1524 75.6974 75.1621 76.6884C75.1719 77.6697 74.4719 78.2494 73.1173 78.2591C70.1555 78.285 58.7487 78.6898 56.0039 78.6898L56.0072 78.6866Z" fill="white"/>
<path d="M184.284 217.176C184.173 217.176 184.066 217.176 183.96 217.179C183.217 217.189 182.644 216.927 182.602 216.111C182.56 215.278 183.156 214.964 183.866 214.929C185.888 214.831 187.913 214.776 189.938 214.712C193.519 214.602 197.097 214.498 200.678 214.391C200.749 214.391 200.823 214.391 200.895 214.388C201.65 214.365 202.334 214.521 202.366 215.431C202.398 216.328 201.76 216.558 200.985 216.58C198.147 216.671 184.932 217.176 184.284 217.176Z" fill="white"/>
<path d="M194.703 222.529C192.104 222.617 189.502 222.666 186.906 222.666C186.582 222.666 186.184 222.785 185.947 222.64C185.539 222.393 185.027 222.031 184.93 221.629C184.774 220.981 185.26 220.554 185.941 220.509C187.094 220.434 188.251 220.386 189.408 220.343C193.886 220.188 198.368 220.042 202.847 219.89C202.918 219.89 202.992 219.89 203.067 219.884C203.874 219.848 204.7 220.23 204.522 221.143C204.279 222.387 202.373 222.157 201.505 222.209C199.243 222.342 196.975 222.449 194.706 222.526L194.703 222.529Z" fill="white"/>
<path d="M196.998 229.029C194.133 229.168 191.271 229.372 188.397 229.211C187.93 229.185 187.418 228.971 187.273 228.527C187.179 228.239 187.266 227.915 187.444 227.669C187.905 227.044 188.789 226.963 189.564 226.937C192.885 226.827 196.207 226.717 199.528 226.603C201.343 226.542 204.486 225.817 206.194 226.503C206.787 226.743 207.439 227.64 206.933 228.038C206.029 228.754 203.07 228.955 201.845 228.926C200.225 228.887 198.608 228.948 196.994 229.026L196.998 229.029Z" fill="white"/>
<path d="M173.459 191.167C172.979 191.158 172.337 190.96 172.065 190.617C171.488 189.892 172.153 189.053 173.31 189.007C176.952 188.865 180.598 188.742 184.24 188.616C186.009 188.554 187.775 188.496 189.545 188.434C190.345 188.408 191.061 188.593 191.081 189.539C191.1 190.491 190.378 190.701 189.587 190.704C186.845 190.711 176.09 191.223 173.459 191.171V191.167Z" fill="white"/>
<path d="M176.112 196.64C175.467 196.64 174.858 196.556 174.654 195.805C174.433 195.008 175.013 194.448 176.109 194.448C179.9 194.448 183.695 194.464 187.486 194.477C188.86 194.48 190.231 194.484 191.605 194.5C192.367 194.51 193.021 194.759 193.018 195.637C193.018 196.508 192.383 196.77 191.605 196.77C189.006 196.77 178.675 196.644 176.112 196.644V196.64Z" fill="white"/>
<path d="M33.987 192.223C33.1964 192.226 32.4478 192.107 32.3992 191.164C32.3441 190.131 33.1445 189.963 33.9611 189.95C38.7734 189.856 43.5824 189.775 48.3946 189.684C49.1723 189.668 49.9339 189.746 49.9857 190.72C50.044 191.789 49.2145 191.906 48.4205 191.912C45.9966 191.932 36.3753 192.213 33.9903 192.226L33.987 192.223Z" fill="#FFE380"/>
<path d="M40.4202 213.53C39.623 213.533 38.9004 213.397 38.8907 212.429C38.8842 211.525 39.5712 211.347 40.3262 211.327C45.2098 211.217 50.0901 211.107 54.9736 210.997C55.7773 210.978 56.4869 211.182 56.4869 212.134C56.4869 213.089 55.7513 213.271 54.9606 213.271C52.501 213.274 42.8085 213.52 40.4202 213.533V213.53Z" fill="#FFE380"/>
<path d="M32.0849 185.811C31.9034 185.811 31.7219 185.821 31.5437 185.811C30.8534 185.785 30.309 185.536 30.2896 184.762C30.2701 183.946 30.7919 183.625 31.5502 183.606C33.5723 183.557 35.5944 183.495 37.6165 183.457C40.4682 183.405 43.3231 183.366 46.1781 183.321C46.3239 183.321 46.4665 183.321 46.6123 183.321C47.309 183.337 47.8502 183.596 47.8664 184.363C47.8859 185.176 47.3641 185.513 46.6026 185.513C44.0749 185.516 34.3954 185.805 32.0849 185.805V185.811Z" fill="#FFE380"/>
<path d="M1.06254 67.491C0.547292 65.5479 0.24916 63.5271 0.0579665 61.5224C-0.304977 57.7495 1.04958 54.4916 3.75221 51.9396C5.68359 50.1131 7.84828 48.5067 10.0551 47.0138C12.0545 45.6601 14.2354 44.5687 16.3612 43.406C19.3296 41.7803 22.5151 41.8677 25.6681 42.5478C28.9152 43.2474 32.1071 44.1865 35.3153 45.0674C36.0704 45.2779 36.8092 45.6277 37.4865 46.0325C39.5831 47.2761 40.1146 49.3099 38.8864 51.4247C37.5221 53.7694 35.3898 54.7053 32.752 54.4786C31.0961 54.3329 29.4564 54.0187 27.8069 53.8341C24.2812 53.439 21.0503 54.5207 17.8616 56.0525C19.4787 56.3019 21.0957 56.5092 22.6998 56.8103C27.5995 57.7268 32.5219 58.5494 37.3698 59.6862C39.3304 60.146 41.1742 61.2212 42.9695 62.2057C44.4537 63.0186 45.5166 64.3367 46.1777 65.9236C47.2795 68.563 46.6378 70.8461 44.2852 72.4751C43.7181 72.8702 43.6111 73.0937 44.0259 73.7123C45.468 75.8529 44.8555 77.945 42.4413 79.0267C39.4989 80.3448 36.4527 80.2055 33.4099 79.3991C30.5484 78.6445 27.7032 77.8284 24.8418 77.0674C24.3719 76.9443 23.8631 76.9702 23.3155 77.1483C23.7011 77.3006 24.0932 77.4333 24.4691 77.6114C27.9009 79.2178 31.3877 80.7204 34.7288 82.4952C36.1935 83.2692 37.4573 84.5192 38.6272 85.7305C39.3239 86.4494 39.8553 87.4631 40.134 88.4346C41.0414 91.6181 38.841 94.2025 35.5681 93.6973C33.5913 93.3928 31.5692 92.8941 29.7577 92.065C25.1302 89.9438 20.3569 88.3537 15.3632 87.4015C15.1882 87.3659 15.0034 87.34 14.8349 87.2785C13.9665 86.9708 13.5128 86.3684 13.7267 85.4422C13.9308 84.5646 14.5822 84.1662 15.4442 84.3379C17.2848 84.7038 19.1028 85.222 20.9531 85.5232C24.1483 86.0543 26.9287 87.6412 29.8874 88.7973C31.5336 89.4386 33.2219 89.9665 34.907 90.5073C35.3088 90.6336 35.7625 90.6304 36.1967 90.6433C37.0101 90.6628 37.3828 90.1575 37.1624 89.458C36.9421 88.7585 36.6148 87.9683 36.0833 87.5181C34.6542 86.3102 33.1765 85.1184 31.5627 84.1857C27.1847 81.6596 22.4405 80.0015 17.5797 78.664C16.7858 78.447 16.0275 78.1037 15.2627 77.7896C14.4817 77.4722 14.0248 76.9055 14.1285 76.0213C14.229 75.1534 14.8771 74.8393 15.6192 74.6611C19.9777 73.6216 24.3201 73.4046 28.6916 74.713C31.3845 75.5226 34.1098 76.2642 36.8708 76.7759C38.0536 76.9994 39.3855 76.6723 40.6039 76.397C41.7802 76.1347 41.8807 75.678 40.9895 74.8976C40.0984 74.1171 39.1327 73.3884 38.1119 72.7893C33.2575 69.9394 27.9333 68.4399 22.3952 67.8602C18.3412 67.436 14.2452 67.4489 10.162 67.3032C9.07646 67.2643 8.37974 66.8077 8.29872 65.9074C8.21123 64.9585 8.83665 64.2298 9.99354 64.2298C13.1758 64.2298 16.3645 64.1974 19.5338 64.4177C25.0816 64.803 30.4998 65.888 35.6361 68.0934C37.1268 68.7314 38.611 69.4439 39.9785 70.3086C40.8988 70.8915 41.5339 70.5385 42.2501 70.1142C43.0311 69.6511 43.8121 69.039 43.4945 68.061C43.1802 67.1056 42.7362 66.0078 41.9941 65.4216C40.74 64.4339 39.2753 63.6242 37.7781 63.0542C33.5298 61.435 29.0221 60.8941 24.5566 60.2076C19.5176 59.4303 14.4785 58.6563 9.44588 57.8564C8.25983 57.6686 7.71866 57.0047 7.86449 56.0752C8.00383 55.1943 8.67139 54.8348 9.83475 54.8219C10.6092 54.8122 11.4161 54.7182 12.1485 54.4818C14.0766 53.8665 15.9983 53.2188 17.8746 52.4545C22.3693 50.6247 26.9644 50.2232 31.7053 51.2271C32.402 51.3761 33.1701 51.457 33.8571 51.3275C34.5278 51.2012 35.2473 50.8806 35.7528 50.4369C36.7087 49.5949 36.5888 48.8338 35.3898 48.4225C30.8757 46.8745 26.3422 45.3427 21.5008 45.2585C20.5156 45.2423 19.4236 45.4075 18.5551 45.8349C14.5627 47.8072 10.6449 49.909 7.21961 52.8108C3.98553 55.5506 2.43654 58.9154 3.29205 63.187C3.52537 64.3561 3.74249 65.5317 4.05358 66.6814C7.22285 78.3822 11.1472 89.824 15.4701 101.13C15.6516 101.622 15.8428 102.111 16.0307 102.603C15.9303 102.616 15.8266 102.623 15.7261 102.636C14.7604 102.736 13.7882 102.814 12.8193 102.869C12.6281 102.377 12.4402 101.884 12.2522 101.389L1.06254 67.491Z" fill="black"/>
<path d="M119.172 152.807C119.532 152.386 119.707 151.81 119.545 151.262C119.379 150.718 118.952 150.372 118.446 150.245C117.623 149.973 116.625 150.236 116.113 151.013C115.714 151.615 115.523 152.399 116.064 152.988C116.191 153.124 116.333 153.218 116.482 153.283C116.738 153.529 117.082 153.685 117.467 153.694C117.827 153.704 118.171 153.613 118.472 153.445C118.76 153.328 119.016 153.079 119.175 152.807H119.172Z" fill="white"/>
<path d="M45.2117 143.279C43.572 143.189 42.2142 145.209 43.1799 146.631C43.5817 147.221 44.34 147.57 45.0464 147.395C45.3802 147.311 45.6848 147.146 45.9408 146.926C46.3135 146.751 46.6343 146.437 46.8255 146.071C47.4639 144.844 46.563 143.357 45.2085 143.283L45.2117 143.279Z" fill="white"/>
<path d="M94.3074 195.274C94.1389 194.749 93.7663 194.354 93.264 194.14C93.251 194.134 93.2381 194.127 93.2251 194.124C92.9108 194.004 92.6256 193.975 92.3469 194.008C92.2951 194.011 92.2432 194.014 92.1946 194.021C91.6826 194.085 91.2775 194.38 90.9502 194.759C90.9113 194.801 90.8789 194.85 90.8465 194.898C90.7396 195.034 90.6488 195.183 90.5711 195.339C90.2665 195.967 90.26 196.654 90.584 197.269C90.8336 197.745 91.365 198.023 91.8867 198.078C92.4603 198.14 93.0922 197.913 93.5265 197.544C94.1551 197.01 94.5732 196.1 94.3074 195.277V195.274Z" fill="white"/>
<path d="M25.6921 174.285C25.6305 173.922 25.4328 173.721 25.1185 173.553C24.681 173.32 24.2046 173.184 23.7088 173.281C23.0121 173.417 22.4061 173.99 22.2473 174.683C22.1307 175.185 22.27 175.681 22.6297 176.014C22.7853 176.283 23.0218 176.5 23.3264 176.652C23.7736 176.876 24.344 176.552 24.6291 176.215C24.8916 175.904 25.1574 175.593 25.4231 175.282C25.6596 175.007 25.7536 174.631 25.6953 174.282L25.6921 174.285Z" fill="white"/>
<path d="M22.5356 31.6146C21.8453 31.268 20.9736 31.4397 20.3871 31.9125C20.1473 32.1036 19.982 32.3432 19.888 32.6055C19.4927 33.2856 19.4441 34.1536 19.9917 34.8175C20.5296 35.4684 21.2944 35.653 22.0851 35.368C22.7883 35.1154 23.336 34.4094 23.4915 33.6904C23.6795 32.8322 23.3165 32.0097 22.5323 31.6178L22.5356 31.6146Z" fill="white"/>
</g>
<defs>
<clipPath id="clip0_1197_11152">
<rect width="289" height="316" fill="white"/>
</clipPath>
</defs>
</svg>
