<svg width="390" height="494" viewBox="0 0 390 494" fill="none" xmlns="http://www.w3.org/2000/svg">
<circle opacity="0.3" cx="221" cy="210" r="210" fill="#006686"/>
<g clip-path="url(#clip0_1347_39832)">
<path d="M15.4838 214.784C15.4838 214.784 -0.45784 225.006 1.24923 231.84C2.9563 238.673 17.9346 256.593 17.9346 256.593C17.9346 256.593 26.6671 241.9 41.5289 238.248C56.3907 234.595 62.874 228.497 62.874 228.497C62.874 228.497 51.2068 217.607 40.2475 215.757C29.2882 213.906 15.4838 214.789 15.4838 214.789V214.784Z" fill="#FFE380"/>
<path d="M260.294 123.226C260.294 123.226 259.062 103.567 250.925 100.157C242.788 96.7466 234.083 96.89 234.083 96.89C234.083 96.89 219.306 123.508 220.301 127.779C221.295 132.049 248.909 144.861 252.466 146.711C256.024 148.562 270.541 158.241 275.949 151.977C281.357 145.712 281.643 142.723 281.5 140.872C281.357 139.022 278.933 127.917 274.806 126.636C270.679 125.354 260.289 123.221 260.289 123.221L260.294 123.226Z" fill="black"/>
<path d="M276.379 93.0451C279.654 94.4701 297.872 100.157 296.873 107.564C295.533 117.526 282.925 139.165 282.925 139.165C282.925 139.165 275.38 125.753 271.822 124.987C268.265 124.22 261.508 124.22 261.508 124.22C261.508 124.22 257.592 106.282 252.466 102.442C247.341 98.6017 235.848 96.9123 234.965 96.8989C234.083 96.8854 238.38 83.9349 238.38 83.9349L256.315 81.6809L276.383 93.0451H276.379Z" fill="#FFE380"/>
<path d="M95.098 248.066L106.864 189.09L165.693 153.164C165.693 153.164 204.597 145.95 205.735 146.33C206.873 146.711 244.639 189.085 244.639 189.085L243.685 267.989L348.255 267.411V135.137L324.912 126.407C324.912 126.407 311.439 128.684 306.694 133.81C301.949 138.937 296.707 143.53 292.639 141.213C288.57 138.896 288.736 128.787 294.395 122.661C300.054 116.535 307.644 113.148 307.832 108.864C308.02 104.58 306.694 101.541 306.694 101.541C306.694 101.541 297.585 95.0886 293.409 90.5312C289.234 85.9739 286.769 81.681 286.769 81.681L267.033 76.1064C267.033 76.1064 247.52 85.49 242.188 83.4555C236.857 81.4211 234.58 78.5711 236.287 76.1064C237.995 73.6373 256.741 60.7316 261.508 60.9243C266.271 61.1125 288.293 65.8581 288.293 65.8581L295.69 63.9401C295.69 63.9401 302.142 52.9524 316.376 52.3833C330.611 51.8142 338.013 54.8524 345.034 57.317C352.055 59.7861 384.897 76.3664 396.273 98.9065C407.649 121.447 423.792 201.946 427.963 227.376C432.139 252.811 439.16 305.384 430.051 331.957C420.942 358.531 392.097 363.612 380.331 365.149C368.565 366.691 328.496 367.049 328.496 367.049C328.496 367.049 217.505 375.989 216.748 375.801C215.991 375.613 49.5582 472.41 48.9891 472.598C48.4201 472.786 37.4115 492.911 35.1354 493.005C32.8593 493.099 21.6626 494.426 -0.350128 481.52C-22.3628 468.614 -31.055 429.248 -31.4717 426.29C-31.8884 423.328 -26.7269 416.422 -24.8316 412.434C-22.9319 408.451 95.1069 248.066 95.1069 248.066H95.098Z" fill="white"/>
<path d="M-10.7005 368.922C-6.00494 374.331 -2.44742 379.879 -2.30405 379.314C-2.16068 378.745 14.7756 349.559 30.1482 337.747C45.5208 325.93 65.0199 316.251 65.4456 316.394C65.8712 316.533 108.938 314.539 121.277 298.6C133.621 282.656 130.771 252.05 129.208 243.083C127.644 234.116 126.645 228.564 126.645 228.134C126.645 227.704 114.108 226.713 111.268 215.461C108.427 204.218 109.444 194.395 116.837 194.534C124.23 194.678 131.26 201.655 131.26 201.655C131.26 201.655 159.536 195.677 171.553 182.153C183.578 168.633 192.97 154.061 192.97 154.061C192.97 154.061 218.163 162.225 225.422 171.335C232.68 180.446 236.377 191.975 236.377 191.975C236.377 191.975 235.243 234.112 225.847 245.503C216.452 256.889 201.509 265.574 195.958 266.569C190.407 267.563 174.465 265.713 174.465 265.713L170.195 285.784C170.195 285.784 200.94 271.552 215.175 268.415C224.786 266.3 243.295 266.914 254.294 267.537H254.388C257.825 267.738 260.518 267.931 261.965 268.038H262.014C262.74 268.097 263.139 268.133 263.139 268.133C263.139 268.133 262.431 267.178 261.355 265.78C259.026 262.742 254.989 257.602 252.753 255.464C249.966 252.798 246.35 247.241 245.96 242.482C245.96 242.469 246.404 231.656 246.404 231.656L248.801 173.625C240.611 155.701 223.392 143.44 195.967 138.48C188.592 137.144 181.038 136.606 173.565 136.884C150.593 137.736 128.401 146.295 114.695 163.224C96.5358 185.662 90.9306 205.504 82.104 213.758C73.2775 222.017 56.7758 231.885 40.9059 238.409C25.0315 244.934 19.6235 249.491 14.3544 263.015C9.08983 276.535 11.5093 287.5 4.25092 294.329C-3.00751 301.163 -19.8049 315.113 -20.5128 331.908C-21.2252 348.704 -15.3871 363.509 -10.6916 368.922H-10.7005Z" fill="black"/>
<path d="M-21.8036 408.639C-21.8036 408.639 -3.75168 409.723 20.1832 423.301C44.118 436.879 45.9415 470.416 46.3717 473.266C46.7973 476.116 37.9752 490.773 36.2681 492.624C34.5611 494.479 225.708 489.066 229.279 487.829C232.85 486.593 237.806 450.775 239.943 444.228C241.695 438.855 249.392 428.683 255.947 417.735C257.385 415.342 258.761 412.918 260.011 410.494C266.149 398.583 265.338 378.171 265.051 373.471C265.016 372.834 264.989 372.485 264.989 372.485C264.989 372.485 330.319 366.646 331.031 366.933C331.744 367.219 312.67 348.856 310.394 319.957C308.969 301.902 316.824 285.905 322.922 276.44C325.113 273.035 327.08 270.476 328.303 268.97C329.123 267.962 329.611 267.429 329.611 267.429C329.611 267.429 322.021 267.406 310.757 267.42C297.006 267.433 277.785 267.496 260.239 267.72C244.629 267.917 230.341 268.235 222.424 268.76C204.574 269.929 187.283 277.458 179.51 281.289C176.79 282.624 175.235 283.516 175.235 283.516C175.235 283.516 177.399 286.38 179.68 289.821C181.078 291.936 182.521 294.266 183.533 296.287C186.19 301.602 190.935 309 182.014 323.806C173.094 338.612 154.119 339.181 138.177 332.728C122.236 326.275 107.898 307.929 107.898 307.929C107.898 307.929 98.3231 312.419 94.5281 312.796C90.7331 313.177 65.4452 315.691 65.4452 315.691C65.4452 315.691 62.1699 316.26 43.074 328.363C23.9781 340.462 4.96735 367.52 1.03348 373.654C-2.90039 379.784 -21.8036 408.652 -21.8036 408.652V408.639Z" fill="#343434"/>
<path d="M173.555 136.884C182.754 138.484 191.907 140.267 200.819 143.153C212.419 146.913 223.97 152.85 232.42 161.817C236.596 166.249 239.979 171.268 242.205 176.946C244.809 183.6 245.481 190.895 245.077 197.985C244.67 205.275 242.918 212.226 241.005 219.243C239.132 226.117 237.322 233.238 237.953 240.416C238.545 247.188 241.636 252.776 246.229 257.66C248.895 260.497 252.927 263.687 254.294 267.536H254.388L261.964 268.038H262.014C261.848 267.263 261.619 266.51 261.351 265.78C259.021 262.742 254.984 257.602 252.748 255.464C249.961 252.798 246.345 247.241 245.956 242.482C245.548 239.968 245.646 237.378 245.924 234.873C246.045 233.793 246.206 232.722 246.399 231.656C247.501 225.517 249.634 219.566 250.978 213.485C252.69 205.715 253.51 197.769 252.811 189.82C252.309 184.111 250.938 178.689 248.796 173.621C240.606 155.696 223.387 143.436 195.962 138.475C188.587 137.14 181.033 136.602 173.56 136.88L173.555 136.884Z" fill="white"/>
<path d="M175.235 283.507C175.235 283.507 177.399 286.371 179.68 289.812C189.058 286.375 198.61 281.338 208.122 279.407C228.034 275.36 248.079 276.544 268.376 275.513C278.323 275.006 288.283 274.859 298.234 275.083C306.492 275.271 314.7 275.858 322.922 276.44C325.113 273.035 327.08 270.476 328.303 268.97C322.496 268.213 316.631 267.734 310.753 267.42C305.062 267.106 299.359 266.954 293.695 266.864C282.534 266.685 271.369 266.972 260.235 267.72C232.967 269.535 223.186 265.52 196.813 272.703C194.094 274.039 175.235 283.512 175.235 283.512V283.507Z" fill="white"/>
<path d="M239.822 336.111C241.547 341.112 244.764 345.316 247.56 349.743C260.338 369.993 262.722 395.195 255.947 417.731C257.386 415.338 258.761 412.914 260.011 410.489C266.15 398.579 265.339 378.167 265.052 373.466C264.882 372.704 264.698 371.952 264.501 371.194C262.444 363.245 259.357 355.533 255.136 348.484C251.512 342.425 243.07 333.602 246.942 325.912C247.914 323.981 247.461 321.776 245.718 320.405C244.316 319.298 241.511 318.944 240.526 320.844C238.003 325.702 238.057 330.99 239.822 336.111Z" fill="white"/>
<path d="M36.6359 85.4318C37.3439 88.9181 37.7785 92.4851 38.8179 95.8729C42.474 107.793 46.2869 119.663 50.1581 131.516C51.0183 134.133 52.1788 136.692 53.514 139.102C57.2552 145.847 62.4033 148.253 69.9709 146.68C73.6583 145.909 77.3502 144.91 80.845 143.525C91.9477 139.125 103.158 135.06 114.552 131.471C117.634 130.499 120.654 129.181 123.504 127.653C130.444 123.943 132.985 118.812 131.148 111.172C129.503 104.347 127.272 97.6609 125.135 90.9615C122.711 83.3436 120.175 75.7615 117.549 68.2153C116.644 65.6117 115.506 63.053 114.158 60.6466C110.578 54.252 105.896 52.0518 98.7805 53.6784C92.0329 55.2244 85.3614 57.102 78.6899 58.9527C70.8894 61.1126 63.0798 63.2591 55.3644 65.6924C50.7764 67.1398 46.5154 69.4028 42.8145 72.5709C38.8851 75.9318 36.8779 80.1575 36.6315 85.4273L36.6359 85.4318Z" fill="#FFCE1F"/>
<path d="M283.001 134.724C282.831 134.397 282.669 134.178 282.593 133.931C280.55 127.057 275.581 123.62 268.851 122.334C266.92 121.966 264.949 121.774 262.986 121.662C261.857 121.599 261.454 121.245 261.324 120.089C260.827 115.675 259.783 111.391 258.036 107.282C254.724 99.4845 248.698 95.6487 240.409 95.0885C236.632 94.8331 236.637 94.8645 237.981 91.3289C238.608 89.6843 239.253 88.0487 239.813 86.3817C240.329 84.8536 239.831 83.6616 238.595 83.1821C237.295 82.6758 236.09 83.2807 235.508 84.8894C231.153 96.8855 225.933 108.496 220.045 119.815C219.172 121.496 218.598 123.369 218.132 125.215C217.388 128.155 218.074 130.888 220.175 133.071C221.493 134.437 223.007 135.688 224.624 136.674C226.802 138 229.114 139.134 231.457 140.142C240.364 143.987 249.267 147.832 258.251 151.493C261.79 152.936 265.473 154.096 269.183 155.01C273.368 156.041 277.122 154.849 279.658 151.26C281.522 148.62 283.082 145.739 284.542 142.849C287.835 136.333 291.097 129.795 294.153 123.167C295.864 119.466 297.424 115.644 298.544 111.727C299.624 107.94 298.494 104.288 295.596 101.622C293.19 99.4039 290.542 97.2708 287.652 95.7831C277.181 90.3878 266.566 85.2659 255.992 80.0722C254.344 79.2611 253.017 79.66 252.448 80.9684C251.879 82.268 252.457 83.3479 254.187 84.1994C263.47 88.7567 272.781 93.2602 282.02 97.9072C284.865 99.3367 287.643 100.986 290.223 102.85C294.296 105.794 295.107 108.554 293.508 113.3C292.746 115.563 291.751 117.763 290.689 119.91C288.351 124.642 285.9 129.316 283.489 134.012C283.373 134.24 283.198 134.437 282.992 134.729L283.001 134.724ZM237.591 99.5249C238.07 99.5249 238.55 99.5069 239.029 99.5249C247.287 99.9013 251.619 103.06 254.514 110.808C254.608 111.059 254.724 111.301 254.778 111.561C255.522 115.258 256.364 118.942 256.96 122.661C257.359 125.153 258.139 126.04 260.634 126.111C262.337 126.161 264.044 126.246 265.738 126.421C273.704 127.25 277.459 130.516 278.928 137.995C279.255 139.649 279.649 141.477 279.278 143.05C277.817 149.23 273.466 151.636 267.418 149.915C267.059 149.812 266.687 149.736 266.347 149.593C253.73 144.296 241.095 139.035 228.522 133.635C226.806 132.9 225.319 131.547 223.858 130.328C222.631 129.307 222.129 127.814 222.608 126.268C223.222 124.297 223.943 122.338 224.817 120.47C227.685 114.344 230.673 108.272 233.554 102.151C234.795 99.5069 234.728 99.4756 237.591 99.5204V99.5249Z" fill="black"/>
<path d="M20.3451 212.36C20.6901 211.948 20.838 211.751 21.0082 211.571C26.7836 205.652 32.5142 199.692 38.3567 193.835C41.4438 190.743 44.5802 187.669 47.9361 184.882C52.0536 181.463 54.845 181.386 59.2359 184.483C61.969 186.41 64.4915 188.668 66.9737 190.927C72.0635 195.56 77.0638 200.297 82.1043 204.984C82.6106 205.455 83.1259 205.934 83.7039 206.311C84.6896 206.951 85.6663 206.79 86.4594 205.957C87.3062 205.06 87.3376 204.052 86.5893 203.053C86.4325 202.842 86.2398 202.649 86.0427 202.466C79.4832 196.358 72.9955 190.165 66.315 184.187C64.0345 182.148 61.3865 180.441 58.6893 178.98C55.0421 177.004 51.2202 177.25 47.7299 179.495C45.5435 180.902 43.3839 182.457 41.5513 184.286C29.8483 195.973 18.2079 207.718 6.63478 219.539C4.59615 221.623 2.88461 224.051 1.21787 226.458C-1.28673 230.065 -1.63622 234.062 0.138054 238.028C1.23578 240.484 2.67403 242.854 4.31837 244.983C7.77283 249.45 12.1144 253.013 16.8145 256.114C18.1497 256.992 19.4311 256.723 20.1704 255.572C20.8649 254.492 20.5736 253.313 19.3729 252.377C19.0772 252.148 18.7366 251.978 18.4588 251.731C15.0044 248.648 11.3796 245.731 8.18504 242.397C6.46901 240.605 5.33993 238.176 4.23772 235.891C3.23857 233.82 3.27443 231.463 4.69923 229.626C7.73253 225.718 10.9898 221.986 14.1979 218.212C14.4712 217.894 15.0268 217.728 15.4793 217.661C24.5523 216.312 33.5581 216.294 42.3713 219.221C48.402 221.224 53.8279 224.383 58.9581 228.084C59.3882 228.398 59.8139 228.739 60.2843 228.972C61.3327 229.483 62.2916 229.258 62.9995 228.353C63.7074 227.448 63.6895 226.471 62.9412 225.57C62.7038 225.288 62.417 225.037 62.1168 224.818C53.8996 218.75 45.0596 214.009 34.741 212.831C30.5696 212.356 26.3311 212.499 22.1239 212.369C21.6221 212.351 21.1158 212.369 20.3451 212.369V212.36Z" fill="#FFCE1F"/>
<path d="M44.2487 141.863C46.4352 143.817 48.5858 145.815 50.8037 147.733C51.5743 148.396 51.8297 149.059 51.6774 150.09C51.1487 153.729 50.7275 157.381 50.2705 161.029C50.1226 162.221 50.3243 163.301 51.4489 163.941C52.6407 164.622 53.707 164.233 54.6703 163.39C56.5118 161.772 58.434 160.231 60.1634 158.497C61.2477 157.408 62.211 157.359 63.5552 157.896C66.5706 159.106 69.6442 160.164 72.6909 161.284C73.9544 161.75 75.2179 162.014 76.1991 160.796C77.1669 159.59 76.6965 158.403 76.002 157.242C74.5548 154.818 73.1658 152.353 71.6738 149.956C71.0869 149.019 71.2527 148.499 72.1084 147.876C74.3084 146.281 76.4366 144.587 78.6052 142.947C79.7477 142.078 80.8454 141.164 80.2361 139.506C79.6491 137.933 78.2826 137.919 76.8981 137.978C75.7287 138.022 74.5548 137.987 73.3854 137.987C73.3854 138.018 73.3854 138.045 73.3854 138.076C72.0009 138.161 70.6164 138.211 69.2409 138.345C68.2731 138.439 67.8296 138.134 67.6279 137.117C66.8663 133.254 66.0105 129.405 65.1861 125.547C65.083 125.081 64.98 124.61 64.868 124.144C64.5857 122.993 63.9047 122.231 62.6904 122.119C61.4628 122.007 60.6473 122.679 60.2038 123.75C59.1061 126.412 57.726 129.011 57.0809 131.785C56.1399 135.804 53.7967 137.14 49.9524 136.826C48.6396 136.718 47.2999 137.005 45.9737 137.113C44.7326 137.216 43.6438 137.583 43.2092 138.896C42.8015 140.124 43.3571 141.061 44.2532 141.863H44.2487Z" fill="#FFE380"/>
<path d="M265.011 108.676C265.011 114.371 269.46 118.758 275.195 118.812C280.209 118.857 284.255 114.989 284.667 108.165C284.932 103.76 279.026 98.8887 273.833 98.9021C268.735 98.9156 265.007 103.043 265.011 108.671V108.676Z" fill="white"/>
<path d="M66.7628 110.862C67.5514 111.911 68.6536 111.987 69.7961 111.615C80.4149 108.133 91.0337 104.642 101.652 101.152C102.768 100.784 103.481 100.063 103.525 98.8349C103.57 97.6026 102.871 96.8363 101.805 96.4016C95.1468 93.6905 88.4888 90.9929 81.8263 88.2997C81.4364 88.1429 81.0063 88.0936 80.1461 87.8875C79.5457 88.3625 78.5017 88.8285 77.9999 89.6306C74.2049 95.6757 70.5085 101.783 66.7897 107.873C66.1893 108.859 66.019 109.881 66.7628 110.862Z" fill="#FFE380"/>
<path d="M48.1289 468.211C47.4613 464.841 46.955 461.794 46.2516 458.796C40.5614 434.49 25.1529 419.138 1.89914 411.35C-4.23465 409.297 -10.709 408.258 -17.0399 406.815C-18.0033 406.595 -18.6081 406.537 -17.8509 405.39C-6.72134 388.447 3.96912 371.212 16.5907 355.286C29.6827 338.764 45.9872 326.602 65.3878 318.514C66.2391 318.16 67.2428 318.043 68.1792 318.034C79.815 317.9 91.3299 316.739 102.325 312.778C105.645 311.581 107.419 312.016 109.807 314.602C117.532 322.977 126.287 330.115 136.973 334.494C145.504 337.989 154.312 339.638 163.56 338.186C179.206 335.73 190.403 320.53 188.915 306.495C188.36 301.261 186.558 296.435 184.014 291.887C182.687 289.521 181.204 287.222 179.6 285.035C178.731 283.852 179.004 283.471 180.142 282.839C189.045 277.892 198.562 274.755 208.531 272.829C218.675 270.87 228.917 269.92 239.231 269.97C251.185 270.028 263.13 270.463 275.084 270.471C290.985 270.494 306.887 270.27 322.788 270.162C323.241 270.162 323.689 270.288 324.141 270.355C323.935 270.704 323.778 271.094 323.518 271.399C314.625 281.791 310.247 293.993 309.024 307.463C307.886 320.024 308.737 332.401 312.559 344.482C314.965 352.1 318.966 358.759 324.724 364.333C325.082 364.679 325.324 365.149 325.624 365.557C325.118 365.642 324.616 365.763 324.105 365.803C311.179 366.735 298.248 367.645 285.318 368.582C279.251 369.021 273.189 369.487 267.131 369.975C266.195 370.051 265.689 369.868 265.46 368.828C262.503 355.407 256.539 343.312 249.039 331.912C248.327 330.832 248.062 329.905 248.519 328.664C249.075 327.167 249.487 325.616 249.904 324.07C250.303 322.578 249.783 321.48 248.569 321.068C247.278 320.633 246.131 321.243 245.634 322.757C244.908 324.985 244.249 327.239 243.586 329.488C243.156 330.958 243.739 332.172 244.55 333.369C250.428 342.076 255.213 351.338 258.591 361.304C264.645 379.153 263.484 396.571 255.46 413.568C251.243 422.499 245.822 430.668 239.478 438.21C237.905 440.083 236.982 442.046 236.552 444.443C234.083 458.137 231.498 471.805 228.966 485.486C228.635 487.269 229.307 488.416 230.736 488.658C232.161 488.9 233.133 488.076 233.478 486.243C236.032 472.62 238.595 458.998 241.095 445.366C241.395 443.735 242.023 442.4 243.089 441.127C249.272 433.733 254.586 425.757 258.901 417.121C265.375 404.157 268.162 390.499 266.656 376.038C266.531 374.819 266.845 374.461 268.018 374.376C281.478 373.417 294.933 372.337 308.397 371.445C327.345 370.19 346.311 369.155 365.254 367.86C377.177 367.045 389.046 365.718 400.543 362.156C414.123 357.948 424.661 350.173 430.172 336.671C431.817 332.643 433.161 328.444 434.164 324.209C436.808 313.024 437.247 301.615 436.929 290.171C436.302 267.388 432.892 244.933 428.85 222.564C425.28 202.788 421.637 183.022 417.846 163.287C414.638 146.577 410.413 130.113 405.373 113.851C401.851 102.473 396.129 92.4177 387.984 83.787C373.386 68.3495 355.845 57.5185 335.719 50.8775C330.141 49.0357 324.392 48.4532 318.514 49.56C315.489 50.1291 312.34 50.0798 309.342 50.7475C303.634 52.0157 299.283 55.2601 296.609 60.5702C296.443 60.8973 296.25 61.444 296.017 61.4754C293.19 61.8384 290.882 64.0386 287.652 63.2589C281.393 61.7532 275.053 60.5254 268.699 59.4634C264.654 58.7867 260.608 59.432 256.719 60.7674C250.105 63.0348 243.99 66.2702 238.519 70.6259C236.951 71.8717 235.499 73.3684 234.343 74.9995C232.076 78.1901 232.824 81.524 236.077 83.7108C238.953 85.6422 242.211 86.0679 245.571 85.9245C252.153 85.6512 258.063 83.2224 263.569 79.866C265.689 78.5754 267.485 78.3559 269.802 79.1221C274.654 80.7354 279.614 82.0259 284.493 83.563C285.291 83.8139 286.173 84.5085 286.554 85.2389C290.488 92.8031 295.919 98.8033 303.8 102.397C306.739 103.737 307.344 106.296 305.251 108.738C303.661 110.598 301.81 112.229 300.117 114.008C297.545 116.71 294.807 119.291 292.513 122.213C288.678 127.102 287.056 132.703 288.57 138.892C289.798 143.915 293.436 145.519 297.899 142.92C300.793 141.235 303.486 139.192 306.197 137.211C311.636 133.241 317.403 129.979 324.096 128.675C324.822 128.536 325.678 128.639 326.386 128.89C332.659 131.117 338.895 133.438 345.177 135.634C346.172 135.983 346.512 136.396 346.512 137.413C346.445 167.302 346.463 197.187 346.311 227.076C346.252 238.924 345.813 250.768 345.549 262.612C345.5 264.834 345.504 264.857 343.376 264.888C321.287 265.22 299.198 265.565 277.114 265.851C273.274 265.901 269.434 265.677 265.59 265.636C264.627 265.627 264.035 265.345 263.583 264.449C261.441 260.178 258.403 256.643 254.613 253.748C254.443 253.618 254.295 253.461 254.115 253.345C248.098 249.45 246.848 243.818 248.327 237.248C249.778 230.8 251.427 224.396 252.762 217.926C255.146 206.382 255.782 194.776 253.461 183.125C250.383 167.683 241.664 156.171 228.671 147.684C218.133 140.796 206.483 136.812 194.104 134.998C176.365 132.394 159.115 134.325 142.466 141.11C126.811 147.491 114.436 157.905 105.188 171.967C99.3859 180.79 94.0003 189.883 88.3997 198.836C86.249 202.273 84.058 205.683 81.8044 209.053C76.0245 217.697 68.3853 224.181 58.8777 228.416C52.5467 231.239 46.1575 233.919 39.8355 236.76C33.7286 239.502 27.9174 242.765 23.0381 247.447C15.2958 254.882 11.0976 264.202 8.72742 274.482C8.08221 277.287 7.43253 280.092 6.80975 282.902C5.47903 288.911 2.59808 294.029 -1.87347 298.268C-4.43182 300.688 -6.98572 303.117 -9.46344 305.622C-24.1684 320.477 -27.1659 337.738 -19.7955 357.007C-16.9324 364.495 -12.5908 371.181 -7.51889 377.338C-6.31812 378.799 -6.43011 379.466 -7.33072 380.851C-15.5479 393.452 -23.6845 406.107 -31.848 418.748C-32.081 419.107 -32.314 419.465 -32.5246 419.837C-33.34 421.284 -33.0936 422.629 -31.9018 423.328C-30.7503 424.004 -29.5226 423.664 -28.6355 422.288C-26.4042 418.842 -24.1998 415.374 -22.0267 411.883C-21.5428 411.103 -21.0141 410.772 -20.0822 410.906C-10.8076 412.232 -1.70767 414.262 6.88144 418.08C26.1834 426.657 38.1912 441.203 42.3043 462.04C43.0167 465.643 43.4916 469.3 43.8949 472.952C44.0024 473.906 43.6484 475.072 43.1332 475.914C40.3508 480.467 37.4519 484.944 34.5978 489.452C34.3111 489.9 33.993 490.348 33.8092 490.836C33.3881 491.97 33.63 492.974 34.6964 493.623C35.7583 494.273 36.7708 494.063 37.5549 493.117C38.0299 492.548 38.3973 491.885 38.7916 491.253C51.9418 470.201 66.0106 449.775 80.9755 429.969C81.9298 428.705 82.9872 428.042 84.5061 427.867C85.6666 427.737 86.827 427.522 87.9561 427.222C89.2465 426.877 89.7797 425.9 89.4974 424.641C89.2151 423.382 88.3011 422.727 87.0062 422.907C85.1065 423.171 83.153 423.341 81.3563 423.942C80.1869 424.332 78.9772 425.223 78.2513 426.227C68.5331 439.675 58.8956 453.181 49.2356 466.669C48.9309 467.095 48.6218 467.516 48.1245 468.202L48.1289 468.211ZM172.378 185.164C172.472 185.043 172.57 184.926 172.664 184.805C175.057 182.224 177.414 179.607 179.874 177.093C180.272 176.686 181.254 176.417 181.764 176.609C184.296 177.582 186.774 178.698 189.238 179.831C190.806 180.553 192.061 180.374 192.724 179.173C193.396 177.954 193.001 176.717 191.433 175.892C189.314 174.781 187.145 173.737 184.932 172.836C183.812 172.379 183.758 172.088 184.385 171.08C187.369 166.285 190.277 161.441 193.136 156.574C193.669 155.665 194.077 155.414 195.116 155.803C202.424 158.577 209.405 161.978 215.843 166.437C220.122 169.399 224.011 172.791 227.228 176.905C227.591 177.371 227.913 177.864 228.474 178.657C227.506 178.474 226.986 178.384 226.475 178.272C223.048 177.528 219.611 177.394 216.161 178.142C208.302 179.845 203.351 185.213 202.59 193.1C202.218 196.949 203.221 200.624 204.678 204.155C205.09 205.154 204.991 205.8 204.162 206.512C202.908 207.588 201.734 208.762 200.573 209.94C199.444 211.087 199.373 212.382 200.314 213.337C201.241 214.278 202.549 214.251 203.728 213.167C205.417 211.612 207.07 210.021 208.706 208.412C210.198 206.942 210.31 205.952 209.521 203.944C208.822 202.161 208.092 200.368 207.639 198.518C205.695 190.609 209.158 184.649 216.77 182.717C221.892 181.418 226.699 182.731 231.413 184.631C231.686 184.743 232.013 185.003 232.094 185.258C232.82 187.642 234.159 190.062 234.07 192.428C233.662 203.241 232.99 214.049 230.947 224.719C229.455 232.512 227.067 239.901 221.892 246.13C217.662 251.22 212.756 255.536 207.151 259.049C202.227 262.132 196.886 264.005 191.057 264.283C177.969 264.915 166.544 260.479 156.355 252.587C148.035 246.143 141.538 238.032 135.862 229.24C132.358 223.818 134.083 224.813 127.81 224.531C119.463 224.154 113.835 219.718 111.936 212.145C110.596 206.817 111.748 202.071 115.713 198.191C118.092 195.86 120.511 195.551 123.236 197.447C125.185 198.8 126.972 200.467 128.536 202.255C129.889 203.801 131.399 204.285 133.223 203.873C145.186 201.171 156.494 196.891 166.558 189.721C168.421 188.395 170.173 186.912 171.974 185.5C172.109 185.392 172.243 185.285 172.378 185.177V185.164ZM350.84 207.87C350.899 201.068 350.939 194.265 350.961 187.476V187.113C350.961 170.336 350.961 153.558 350.957 136.785C350.957 133.21 350.258 132.367 346.817 131.381C340.096 129.463 333.465 127.299 327.224 124.077C326.543 123.727 325.557 123.75 324.759 123.884C316.896 125.175 310.014 128.67 303.661 133.362C301.174 135.199 298.661 137.01 296.062 138.686C294.041 139.99 293.405 139.676 292.934 137.319C291.985 132.524 293.405 128.267 296.447 124.655C299.05 121.563 302.043 118.803 304.835 115.868C306.452 114.169 308.11 112.498 309.566 110.669C310.973 108.904 311.6 106.838 311.067 104.508C310.986 104.163 311.412 103.405 311.739 103.311C314.88 102.402 316.968 100.26 318.505 97.5441C319.096 96.4955 319.71 96.2312 320.888 96.3208C325.651 96.6882 328.734 94.9092 329.782 90.8269C330.297 88.8193 331.211 88.8731 332.771 89.1285C335.889 89.6439 338.954 89.2585 341.848 87.9634C345.549 86.3099 346.875 83.1462 345.325 79.4045C344.657 77.8002 343.748 76.2318 342.668 74.874C340.979 72.75 339.061 70.8096 337.224 68.8021C336.812 68.354 336.283 68.0224 337.206 67.5205C338.21 66.9782 338.788 65.9521 338.255 64.9797C337.838 64.2223 336.821 63.362 336.032 63.3216C332.901 63.1693 329.755 63.2768 326.614 63.3978C325.736 63.4292 324.831 63.7429 324.002 64.0834C321.287 65.1947 320.279 67.4712 321.39 70.1957C322.672 73.3459 325.028 75.6941 327.573 77.8316C328.505 78.6158 329.603 78.4545 330.45 77.5403C331.288 76.6351 331.323 75.6 330.553 74.6365C330.024 73.9733 329.33 73.4401 328.783 72.7903C327.824 71.6521 326.883 70.4915 326.023 69.2726C325.866 69.0485 326.041 68.2374 326.211 68.1882C327.515 67.8073 328.859 67.2381 330.091 68.4615C332.735 71.0964 335.481 73.6283 338.022 76.3573C339.2 77.6254 340.119 79.1849 340.925 80.7354C341.794 82.4113 341.387 83.2538 339.576 83.917C338.636 84.262 337.61 84.6026 336.633 84.5712C334.518 84.504 332.296 84.5488 330.32 83.9214C321.399 81.0759 314.683 75.5193 310.852 66.8707C309.042 62.7794 310.041 59.4858 313.715 56.9315C315.471 55.7082 317.523 54.7178 319.585 54.1711C324.594 52.8492 329.594 53.6961 334.388 55.2869C353.726 61.6995 370.599 72.0957 384.614 86.9552C391.967 94.7524 397.487 103.706 400.516 114.035C403.455 124.055 406.591 134.048 408.872 144.229C412.577 160.764 415.812 177.407 418.953 194.059C423.38 217.527 427.927 240.977 430.535 264.745C431.933 277.493 432.771 290.26 432.274 303.081C431.942 311.573 430.84 319.961 428.497 328.171C424.258 343.021 414.974 352.889 400.144 357.518C393.45 359.61 386.644 361.255 379.686 361.846C364.493 363.137 349.268 364.1 334.052 365.136C333.29 365.189 332.318 364.916 331.736 364.441C324.813 358.759 319.688 351.804 316.999 343.182C313.285 331.29 312.501 319.137 313.737 306.787C315.113 293.039 320.387 281.083 329.912 271.027C330.674 270.221 331.458 269.88 332.551 269.862C335.804 269.808 339.057 269.669 342.31 269.539C345.289 269.418 345.307 269.405 345.231 272.34C345.159 275.168 345.002 277.991 344.971 280.818C344.958 282.194 345.773 283.023 347.149 283.095C348.466 283.167 349.232 282.409 349.496 281.15C349.581 280.738 349.599 280.303 349.608 279.877C350.222 255.984 350.63 231.893 350.832 207.852L350.84 207.87ZM172.405 282.006C172.629 281.159 172.772 280.666 172.888 280.169C173.74 276.431 174.685 272.708 175.384 268.939C175.639 267.577 175.967 267.344 177.297 267.644C187.033 269.862 196.698 269.777 205.681 265.022C221.502 256.647 232.242 244.284 235.378 226.072C237.094 216.111 237.945 206.086 238.528 196.017C238.617 194.44 239.074 192.791 238.77 191.299C237.421 184.725 234.751 178.707 230.409 173.526C220.516 161.728 207.308 155.225 193.104 150.363C191.456 149.799 190.371 150.583 189.887 152.317C189.717 152.931 189.637 153.608 189.318 154.136C186.048 159.505 182.759 164.864 179.394 170.175C179.089 170.658 178.198 170.963 177.553 170.999C175.644 171.116 173.713 170.923 171.813 171.093C167.36 171.496 163.152 172.854 159.115 174.736C157.664 175.413 157.18 176.641 157.744 177.855C158.3 179.047 159.501 179.401 161.024 178.805C161.521 178.613 161.992 178.326 162.503 178.196C165.948 177.295 169.389 176.394 172.853 175.565C173.422 175.431 174.071 175.642 174.685 175.695C174.34 176.202 174.049 176.757 173.646 177.21C162.794 189.318 148.667 195.444 133.267 199.203C132.752 199.329 131.955 198.97 131.511 198.58C130.023 197.29 128.747 195.744 127.187 194.552C121.251 190.008 115.381 190.891 110.73 196.788C102.159 207.655 108.517 225.476 122.483 228.304C123.634 228.537 124.168 229.034 124.454 230.195C126.533 238.655 128.007 247.21 128.608 255.903C129.195 264.395 129.056 272.851 127.178 281.217C124.719 292.178 118.872 300.558 108.557 305.389C104.906 307.1 101.097 308.575 97.2262 309.699C86.8494 312.715 76.1769 313.576 65.4102 313.571C64.42 313.571 63.3806 313.961 62.4486 314.364C61.5883 314.736 60.8939 315.489 60.0381 315.865C42.4521 323.636 27.3215 334.709 15.2824 349.734C9.01865 357.554 3.24777 365.772 -2.67099 373.865C-3.51779 375.021 -3.84933 374.936 -4.63342 373.878C-8.58075 368.546 -12.2189 363.021 -14.8445 356.913C-19.2443 346.678 -20.5303 336.17 -16.9683 325.406C-14.7728 318.774 -10.6194 313.365 -5.76703 308.467C-2.94879 305.626 -0.0140686 302.902 2.79968 300.056C6.54987 296.26 9.17099 291.775 10.551 286.617C11.5009 283.068 12.3073 279.474 13.1228 275.889C15.0225 267.559 18.1499 259.82 23.8222 253.273C28.7687 247.564 35.1355 243.925 41.8921 240.878C47.2866 238.445 52.7304 236.115 58.1921 233.838C70.5001 228.712 80.2048 220.529 87.284 209.228C89.0986 206.333 90.9312 203.456 92.7457 200.561C98.4091 191.518 103.862 182.341 109.772 173.464C117.854 161.324 128.617 152.21 142.027 146.303C158.905 138.874 176.482 136.862 194.619 139.721C206.232 141.553 217.129 145.439 226.95 152.044C238.68 159.931 246.454 170.529 249.084 184.604C251.181 195.847 250.432 207.027 248.062 218.132C246.651 224.75 244.908 231.302 243.645 237.943C242.233 245.341 244.102 251.7 250.509 256.284C251.633 257.091 252.731 257.969 253.699 258.95C255.115 260.389 256.441 261.926 257.731 263.481C258.143 263.978 258.327 264.673 258.618 265.273C257.951 265.336 257.283 265.466 256.616 265.444C242.466 265.004 228.344 265.099 214.293 267.137C200.161 269.19 186.733 273.263 174.492 280.809C173.919 281.163 173.323 281.482 172.414 282.001L172.405 282.006ZM156.911 334.104C150.652 334.099 143.944 332.611 137.551 329.761C127.416 325.244 119.261 318.111 111.703 310.183C110.784 309.22 111.515 308.991 112.196 308.624C122.026 303.359 128.133 295.198 130.987 284.493C134.41 271.659 133.899 258.708 132.035 245.749C131.3 240.64 130.131 235.595 129.19 230.513C129.118 230.119 129.159 229.527 129.405 229.299C129.593 229.119 130.234 229.267 130.57 229.451C130.861 229.612 131.014 230.029 131.22 230.343C132.609 232.431 133.931 234.564 135.396 236.594C144.518 249.271 155.222 260.057 170.285 265.609C170.675 265.753 171.114 266.573 171.056 267.016C170.214 273.72 168.493 280.178 165.558 286.299C164.6 288.302 163.766 290.408 163.202 292.555C162.238 296.22 163.497 299.388 165.993 302.099C166.867 303.049 167.964 303.202 169.008 302.395C170.102 301.544 170.227 300.446 169.461 299.281C169.049 298.658 168.565 298.08 168.197 297.435C166.885 295.118 167.763 290.574 169.837 289.113C171.141 288.19 172.543 287.406 173.865 286.505C174.564 286.03 174.918 286.2 175.398 286.85C178.471 290.982 181.07 295.373 182.786 300.244C184.448 304.967 185.062 309.749 183.677 314.687C180.34 326.593 170.007 334.108 156.906 334.099L156.911 334.104ZM244.854 81.6809C243.058 81.2507 241.194 80.9953 239.482 80.341C237.394 79.5434 237.211 78.5441 238.631 76.8457C239.41 75.9092 240.302 75.0353 241.261 74.2825C246.378 70.254 252.045 67.2068 258.206 65.1231C259.81 64.5808 261.508 64.1775 263.188 64.0431C270.55 63.4471 277.553 65.5174 284.619 67.0858C285.277 67.2337 285.497 67.4981 285.143 68.1971C283.714 71.0202 283.499 74.0181 284.059 77.0832C284.283 78.3021 284.099 78.7144 282.714 78.2797C277.88 76.774 272.996 75.4297 268.162 73.933C266.432 73.3997 264.985 73.6283 263.475 74.6096C261.643 75.7971 259.725 76.8636 257.772 77.8316C253.726 79.8346 249.496 81.2462 244.859 81.6764L244.854 81.6809ZM307.729 56.0711C307.411 56.7299 307.308 57.0077 307.156 57.2497C305.731 59.5082 305.251 61.9818 305.543 64.6077C305.964 68.3853 307.689 71.6207 309.889 74.6186C313.849 80.0184 318.89 84.1141 324.957 86.9686C325.396 87.1748 325.996 87.8469 325.933 88.1965C325.418 91.0465 324.11 92.0368 321.229 91.7097C319.867 91.5573 318.482 91.2392 317.21 90.7373C310.865 88.2323 305.798 84.1052 302.111 78.3693C299.091 73.6686 298.029 68.69 300.421 63.3306C301.864 60.0952 304.073 57.6888 307.729 56.0711ZM294.539 69.3757C294.539 69.3757 294.498 69.3801 294.476 69.3846C294.601 70.4422 294.664 71.5087 294.861 72.5528C295.793 77.4686 298.275 81.5823 301.564 85.2479C304.983 89.0613 309.011 92.0726 313.643 94.2863C314.024 94.4701 314.544 95.1467 314.454 95.4021C313.661 97.6875 310.834 99.35 308.424 98.9064C307.129 98.6689 305.789 98.3194 304.642 97.7054C296.147 93.1347 290.658 86.1844 288.62 76.7113C287.652 72.2167 288.839 69.4922 292.012 67.7535C294.462 66.4091 294.539 66.4584 294.543 69.2143C294.543 69.2681 294.543 69.3219 294.543 69.3757H294.539Z" fill="black"/>
<path d="M188.355 214.789C186.338 214.959 184.313 215.053 182.31 215.318C180.209 215.595 179.201 217.285 180.043 219.149C183.672 227.202 190.828 231.051 197.499 230.58C201.393 230.307 204.502 228.403 207.016 225.584C208.826 223.554 208.347 221.452 206.048 219.987C200.653 216.541 194.815 214.659 188.355 214.793V214.789ZM188.579 219.252C193.404 219.4 197.32 220.359 201.352 222.51C202.97 223.37 202.97 223.442 201.393 224.482C197.248 227.22 191.473 226.27 187.467 222.12C186.795 221.425 186.356 220.507 185.814 219.696L188.579 219.252Z" fill="black"/>
<path d="M121.81 215.107C121.899 216.25 122.442 217.034 123.647 217.133C124.879 217.231 125.475 216.469 125.753 215.371C125.905 214.78 126.075 214.188 126.237 213.597C126.658 214.045 127.128 214.462 127.496 214.955C128.257 215.967 129.149 216.505 130.368 215.788C131.42 215.17 131.546 214 130.704 212.719C128.024 208.627 124.395 205.674 119.856 203.864C118.678 203.393 117.58 203.478 117.029 204.774C116.491 206.037 117.105 206.889 118.266 207.485C119.682 208.211 121.617 208.695 122.289 209.873C122.894 210.935 122.097 212.795 121.917 214.305C121.886 214.569 121.846 214.834 121.81 215.112V215.107Z" fill="black"/>
<path d="M172.319 185.142C172.198 185.24 172.077 185.339 171.961 185.442C171.315 187.575 171.374 189.614 172.655 191.545C173.874 193.382 175.63 194.113 177.257 193.369C178.775 192.674 179.291 191.119 178.645 188.964C178.435 188.256 178.144 187.557 177.79 186.907C176.54 184.622 175.312 184.142 172.619 184.801C172.521 184.918 172.422 185.03 172.319 185.146V185.142Z" fill="black"/>
<path d="M218.042 196.542C217.477 195.197 217.07 193.75 216.304 192.531C215.537 191.312 214.193 190.864 212.791 191.447C211.411 192.02 210.47 193.091 210.73 194.677C210.931 195.914 211.308 197.164 211.85 198.289C212.647 199.943 214.023 200.655 215.264 200.333C216.756 199.947 217.755 198.459 218.042 196.537V196.542Z" fill="black"/>
<path d="M317.263 199.593C317.5 200.315 318.674 201.139 319.481 201.184C322.617 201.368 325.771 201.26 328.917 201.26C331.959 201.251 334.997 201.292 338.034 201.229C339.056 201.207 339.54 201.561 339.894 202.524C341.005 205.576 342.228 208.591 343.393 211.625C343.886 212.902 344.572 213.982 346.122 213.875C347.668 213.763 348.196 212.598 348.519 211.271C349.307 207.951 350.172 204.657 350.907 201.323C351.171 200.109 351.718 199.696 352.955 199.705C357.435 199.737 361.911 199.661 366.392 199.616C367.664 199.602 368.744 199.203 369.129 197.864C369.537 196.457 368.829 195.511 367.642 194.843C367.319 194.66 366.996 194.467 366.678 194.279C362.892 192.101 359.12 189.883 355.298 187.759C354.272 187.189 354.03 186.643 354.388 185.491C356.118 179.948 357.749 174.373 359.411 168.812C359.536 168.405 359.689 168.006 359.778 167.584C360.038 166.401 359.899 165.317 358.757 164.645C357.543 163.937 356.49 164.34 355.603 165.29C353.201 167.867 350.817 170.452 348.425 173.034C347.013 174.562 345.566 176.063 344.204 177.627C343.519 178.42 343.106 178.326 342.497 177.546C340.001 174.347 337.461 171.192 334.938 168.019C334.737 167.773 334.54 167.517 334.347 167.266C333.545 166.258 332.555 165.689 331.273 166.218C329.893 166.782 329.669 167.983 329.884 169.287C330.427 172.599 331.009 175.901 331.578 179.213C331.928 181.256 332.255 183.313 332.671 185.348C332.909 186.486 332.626 187.198 331.614 187.857C327.452 190.55 323.352 193.342 319.225 196.094C318.827 196.362 318.262 196.56 318.083 196.936C317.675 197.783 317.039 198.863 317.276 199.589L317.263 199.593Z" fill="#FFCE1F"/>
<path d="M312.738 388.478C313.137 389.132 313.966 389.531 314.606 390.037C314.683 389.934 314.763 389.831 314.839 389.724C320.924 389.244 327.013 388.787 333.088 388.267C334.079 388.182 334.607 388.478 335.118 389.325C339.124 396.02 343.183 402.679 347.229 409.351C347.404 409.642 347.583 409.934 347.753 410.221C348.277 411.099 349.003 411.646 350.07 411.377C351.136 411.103 351.499 410.256 351.575 409.257C351.763 406.636 351.933 404.014 352.122 401.393C352.449 396.782 352.816 392.175 353.094 387.564C353.157 386.533 353.757 386.582 354.456 386.533C360.204 386.13 365.957 385.7 371.706 385.31C372.79 385.234 373.659 384.884 373.883 383.75C374.125 382.532 373.368 381.886 372.338 381.447C367.194 379.256 362.059 377.029 356.898 374.878C355.881 374.452 355.603 374.062 356.015 372.933C358.784 365.423 361.468 357.876 364.183 350.343C364.3 350.025 364.555 349.667 364.483 349.389C364.318 348.694 364.183 347.776 363.695 347.444C363.211 347.113 362.288 347.283 361.602 347.435C361.204 347.525 360.876 347.991 360.536 348.309C354.967 353.467 349.388 358.616 343.846 363.805C343.138 364.468 342.708 364.481 341.978 363.832C337.632 359.973 333.236 356.173 328.859 352.356C328.765 352.27 328.666 352.19 328.572 352.105C327.775 351.365 326.901 350.859 325.834 351.522C324.777 352.176 324.835 353.167 325.118 354.229C326.466 359.306 327.797 364.387 329.141 369.465C329.526 370.939 329.813 372.453 330.337 373.878C330.808 375.147 330.382 375.734 329.307 376.392C324.307 379.426 319.36 382.554 314.396 385.65C314.109 385.825 313.813 385.995 313.54 386.197C312.751 386.78 312.205 387.595 312.742 388.482L312.738 388.478Z" fill="#FFCE1F"/>
</g>
<defs>
<clipPath id="clip0_1347_39832">
<rect width="470" height="445" fill="white" transform="matrix(-1 0 0 1 437 49)"/>
</clipPath>
</defs>
</svg>
