<svg width="295" height="329" viewBox="0 0 295 329" fill="none" xmlns="http://www.w3.org/2000/svg">
<g clip-path="url(#clip0_1367_11854)">
<path d="M19.3179 200.566C19.3179 200.566 18.4519 218.178 25.6289 223.753C32.8059 229.317 52.3992 232.965 67.9656 221.469C83.5211 209.973 105.842 182.304 109.977 177.195C114.102 172.086 118.573 161.607 118.573 161.607L132.19 174.781C132.19 174.781 153.765 185.812 154.187 185.833C154.609 185.855 214.84 178.007 215.208 177.725C215.576 177.444 223.153 172.703 226.379 170.657C229.605 168.611 231.423 165.103 231.423 165.103L215.208 124.455C215.208 124.455 222.872 119.833 225.957 118.567C229.042 117.3 249.09 103.563 257.782 95.8557C266.475 88.1483 282.734 65.8054 279.368 51.6679C276.001 37.5304 264.505 31.5117 258.064 30.1044C251.612 28.708 243.342 27.5497 232.127 28.34C220.912 29.1302 203.527 31.7607 203.527 31.7607C203.527 31.7607 209.698 39.782 209.557 45.2487C209.416 50.7153 205.108 59.2671 205.996 59.2671C206.883 59.2671 224.127 61.7893 224.127 61.7893C224.127 61.7893 193.146 68.9663 187.117 72.9499C181.087 76.9335 111.298 99.5037 111.298 99.5037C111.298 99.5037 81.8757 117.311 75.7596 124.878C69.6434 132.444 55.4843 156.562 55.4843 156.562L19.3179 200.566Z" fill="black"/>
<path d="M199.035 68.9988C190.634 70.8499 182.938 75.2232 177.081 81.5233C178.121 83.9265 178.889 86.4487 179.365 89.0467C180.816 97.0248 179.647 105.566 175.761 112.721C173.996 115.969 171.474 119.952 167.512 120.634C165.661 120.959 163.658 120.19 162.435 118.826C161.894 119.985 161.353 121.143 160.801 122.29C160.227 123.459 158.625 123.741 158.04 122.464C156.698 119.53 155.94 116.402 155.799 113.208C155.052 113.208 154.435 112.754 154.749 111.704C156.146 106.995 157.564 102.286 158.939 97.566L159.967 94.0262C160.27 92.9979 160.822 91.7313 160.736 90.6488C160.584 88.6137 158.073 88.8086 156.622 89.0575C151.924 89.8911 147.258 91.5473 142.658 92.8138C138.393 93.9829 134.138 95.1953 129.884 96.3969C130.458 101.517 130.707 106.681 131.281 111.812C131.909 117.441 132.536 123.07 133.143 128.71C133.218 129.446 132.439 130.247 131.703 130.171C125.814 129.5 120.64 126.296 117.598 121.37C117.219 122.821 116.84 124.271 116.44 125.711C116.234 126.469 115.39 127.313 114.524 126.934C107.401 123.806 105.29 115.568 105.604 108.434C105.95 100.565 108.646 91.7313 104.868 84.3595C104.261 84.2729 103.655 84.1755 103.049 84.0889C102.605 84.0239 102.302 83.8291 102.118 83.5693C95.9694 84.2837 89.377 83.9698 84.2243 80.3434C77.9999 75.9701 76.6034 67.9812 77.6535 60.9016C79.6236 47.7059 88.8466 36.2206 99.1412 28.2967C104.456 24.2048 110.313 20.7949 116.407 18.0129C123.606 14.7221 131.465 12.0591 139.475 12.1674C153.992 12.3622 164.708 23.263 172.578 34.337C180.502 45.4976 187.203 59.2671 199.63 66.1626C200.918 66.8771 200.377 68.7065 199.035 68.9988Z" fill="#999999"/>
<path d="M177.136 117.365C177.082 117.452 177.028 117.527 176.974 117.614C176.952 117.646 176.931 117.69 176.898 117.722C176.823 117.841 176.736 117.96 176.66 118.079C176.628 118.123 176.595 118.177 176.563 118.22C176.541 118.253 176.519 118.285 176.498 118.318C175.989 124.358 170.079 128.612 165.164 131.124C159.687 133.927 153.332 135.432 147.173 135.14C144.304 134.999 141.338 134.555 138.816 133.126C136.315 131.708 134.735 129.359 133.836 126.664C132.905 123.882 132.472 120.786 132.213 117.874C131.953 114.994 132.158 111.974 133.674 109.441C136.055 105.479 140.537 104.029 144.889 103.228C142.745 100.305 138.047 100.121 134.702 99.9151C130.156 99.6336 126.194 98.3779 122.676 95.4118C120.608 93.669 118.909 91.6447 117.382 89.4905C110.14 83.1904 104.176 75.5587 99.8782 66.9745C99.3586 67.0394 98.8715 66.8013 98.9148 66.1626C99.7916 53.952 103.894 42.4233 110.801 32.3127C111.212 31.6957 112.359 31.4684 112.792 32.2045C115.575 36.8701 118.984 41.1243 122.979 44.8157C130.026 51.3432 138.653 56.0953 147.974 58.4335C149.045 58.7042 150.301 58.6609 150.94 59.6243C151.665 60.7068 152.152 62.0708 152.704 63.2399C153.906 65.7837 155.043 68.3601 155.93 71.0231C157.294 75.1149 158.052 79.4124 157.63 83.6775C157.868 83.8507 158.041 84.1322 158.074 84.5435C158.81 92.2185 155.768 99.3738 154.555 106.811C153.57 112.84 154.242 119.963 159.427 123.795C160.412 122.355 161.397 120.916 162.404 119.487C163.129 118.447 164.601 119.032 164.439 120.255C164.265 121.522 165.532 122.474 166.658 122.648C167.74 122.821 168.844 122.388 169.797 121.847C169.689 121.327 169.884 120.623 170.23 120.277C171.67 118.891 173.12 117.506 174.571 116.12C175.004 115.709 175.578 115.741 175.967 116.044C176.703 115.806 177.613 116.499 177.104 117.343L177.136 117.365Z" fill="white"/>
<path d="M208.052 56.55C207.976 57.3835 207.37 58.3145 206.396 58.217C203.819 57.9572 201.232 57.9681 198.645 58.0547C196.134 58.1413 193.633 58.531 191.132 58.6284C188.643 58.7258 186.034 58.3578 183.544 58.1846C181.812 58.0655 180.091 57.9139 178.359 57.8057C178.207 57.9681 178.023 58.1088 177.828 58.1954C177.958 62.3522 176.757 66.4657 174.397 69.9297C173.812 70.7957 172.394 70.7849 172.037 69.7457C170.078 64.0409 164.373 60.5877 162.587 54.7639C161.364 50.7694 162.717 45.9956 166.386 44.0038C165.726 42.5099 165.131 40.9728 164.633 39.414C163.908 37.1407 163.269 34.77 161.786 32.8648C158.235 28.2967 151.708 31.5875 147.269 32.8865C145.343 33.4494 137.538 36.935 137.549 32.3669C137.549 30.2777 139.919 28.892 141.348 27.7662C142.214 27.0843 143.08 26.4131 143.935 25.7311C142.745 25.9585 141.565 26.1966 140.385 26.4239C138.566 26.7703 136.239 27.6147 134.377 27.0734C132.97 26.6621 131.822 25.3198 132.277 23.7935C132.277 23.3713 132.439 22.9816 132.872 22.7001C132.915 22.6677 132.97 22.646 133.013 22.6135C133.229 22.4187 133.468 22.2671 133.727 22.1697C136.65 20.3619 139.681 18.8248 142.853 17.5474C141.078 17.5907 139.248 17.818 137.733 16.6489C136.011 15.3283 135.633 13.0009 137.116 11.3555C138.75 9.5369 141.954 9.24462 144.206 9.01729C145.786 8.85492 147.378 8.82244 148.947 8.90904C148.222 8.45439 147.573 7.91314 147.215 7.04714C146.479 5.29349 147.313 3.08518 149.272 2.64135C151.48 2.1434 154.501 3.38828 156.503 4.18933C158.852 5.13111 161.082 6.39764 163.15 7.85902C168.725 11.8318 172.795 17.266 176.183 23.144C176.649 23.1115 177.103 23.328 177.385 23.9125C177.85 24.8976 178.121 25.926 178.326 26.976C178.37 27.0843 178.413 27.2033 178.456 27.3224C179.874 30.072 181.184 32.8648 182.462 35.6036C182.483 35.6469 182.494 35.701 182.505 35.7443C182.721 35.8092 182.949 35.8525 183.187 35.8742C184.529 35.9933 185.936 35.4953 187.203 35.1381C188.534 34.77 189.866 34.3912 191.197 34.0231C193.644 33.3411 196.209 32.3344 198.764 32.1504C203.798 31.7715 205.649 36.3938 206.71 40.4748C208.063 45.725 208.517 51.1591 208.052 56.55Z" fill="white"/>
<path d="M34.9708 137.64C34.462 137.781 31.8965 141.018 31.8965 141.018C31.8965 141.018 35.2847 191.192 37.1358 193.844C38.9869 196.496 60.5503 207.592 62.7153 208.988C64.8803 210.384 79.7323 214.736 82.3952 214.39C85.0582 214.043 88.4248 213.556 88.7062 211.066C88.9877 208.577 93.8914 182.921 94.595 180.399C95.2987 177.877 97.6802 161.477 97.6802 161.477L34.9708 137.651V137.64Z" fill="#FFE380"/>
<path d="M51.6525 205.784C51.2195 207.808 48.3509 208.685 46.6514 209.302C44.5621 210.071 42.408 210.612 40.1997 210.872C35.6207 211.402 30.9659 210.817 26.6684 209.172C25.5426 208.739 25.6941 207.613 26.3328 206.866C24.9905 206.044 23.7997 204.939 22.8255 203.478C19.1558 198.011 20.1625 190.596 22.3708 184.751C21.7105 178.83 21.0502 172.919 20.4007 166.998C19.8053 161.704 19.2207 156.411 18.6037 151.117C18.1924 147.567 17.1207 142.003 22.0028 141.115C23.9513 140.758 26.073 141.288 27.9674 141.765C30.0241 142.284 32.0268 143.042 33.9103 144.016C37.5583 145.911 40.6868 148.519 43.2415 151.724C43.9018 152.557 43.025 153.802 42.1482 153.986C37.5583 154.95 32.7304 154.722 28.2813 153.174C27.307 152.839 26.3328 152.232 25.3152 152.016C24.0054 151.745 22.5657 153.737 22.9446 154.051C23.41 154.419 25.2395 155.393 25.7482 155.686C27.621 156.757 30.8793 157.991 32.8278 158.922C36.4975 160.676 40.362 160.037 42.8518 163.393C44.5621 165.71 44.4972 169.379 42.2564 171.035C43.2523 172.995 43.9451 175.127 43.6095 177.346C43.393 178.721 42.7977 180.042 41.8775 181.07C43.025 182.239 43.3822 184.145 42.6136 185.779C41.4337 188.291 38.8249 189.135 36.3135 188.789C35.5016 192.794 38.5218 196.669 41.7043 198.834C43.6528 200.155 45.8287 201.086 48.0045 201.963C49.6607 202.634 52.1288 203.467 51.6525 205.741V205.784Z" fill="white"/>
<path d="M261.626 183.993C261.258 185.454 259.883 186.191 258.649 186.84C257.003 187.717 255.336 188.572 253.691 189.449C250.487 191.17 247.553 192.837 243.819 191.982C240.127 191.138 236.501 189.492 233.004 188.085C229.454 186.645 225.936 185.108 222.482 183.43C220.047 182.239 216.843 180.735 216.28 177.801C216.096 176.87 217.373 175.636 218.098 176.643C222.266 171.652 229.226 169.996 235.516 170.906C242.649 171.923 249.426 175.441 255.791 178.645C257.729 179.62 262.383 181.016 261.626 183.993Z" fill="#343434"/>
<path d="M133.423 169.996C131.15 169.423 117.998 174.359 113.516 176.881C109.035 179.403 93.1109 187.435 93.1109 187.435C93.1109 187.435 91.747 197.34 90.3614 201.692C88.9866 206.044 86.0855 211.229 87.0164 211.911C87.9582 212.593 96.5533 223.147 96.5533 223.147L100.082 227.759L40.7611 241.063C40.7611 241.063 45.7514 256.618 47.1803 259.649C48.6092 262.68 49.735 265.906 49.735 265.906C49.735 265.906 39.3647 257.906 37.3945 258.826C35.4244 259.747 10.4835 274.88 8.37261 276.558C6.27256 278.236 1.49872 279.578 2.76525 283.324C4.03178 287.069 15.4305 301.217 17.2924 302.971C19.1652 304.725 46.2169 326.039 48.8799 326.039C51.5428 326.039 63.6019 318.895 65.5612 317.347C67.5206 315.809 79.7204 305.699 81.9612 302.971C84.2019 300.243 84.4834 300.524 83.3684 297.58C82.2426 294.636 78.7461 291.984 78.7461 291.984C78.7461 291.984 111.167 283.789 115.703 283.324C120.238 282.858 135.978 280.617 137.569 278.658C139.161 276.699 138.154 272.91 136.13 268.98C134.105 265.051 119.297 239.677 120.184 239.958C121.072 240.24 134.246 237.577 134.246 237.577C134.246 237.577 144.054 261.23 145.742 266.88C147.42 272.531 153.872 276.688 157.801 277.11C161.731 277.532 202.065 273.462 206.914 273.462C211.764 273.462 215.975 273.18 216.256 271.362C216.538 269.543 215.141 265.754 215.141 265.754L237.571 246.832C237.571 246.832 241.024 253.944 250.052 253.003C259.08 252.061 277.699 240.142 282.571 238.649C287.442 237.155 292.519 229.004 292.519 229.004C292.519 229.004 267.849 183.712 267.145 183.441C266.441 183.181 244.51 192.35 244.51 192.35L218.909 181.428C218.909 181.428 201.946 164.118 199.705 161.174C197.464 158.229 185.135 146.593 181.281 147.015C177.416 147.437 166.331 164.638 163.961 169.985C161.579 175.333 154.153 185.822 154.153 185.822C154.153 185.822 139.388 171.501 133.402 169.985L133.423 169.996Z" fill="#FFE380"/>
<path d="M195.841 199.375C189.313 200.415 182.721 201.345 176.41 198.91C175.046 198.39 173.671 200.458 174.84 201.432C176.875 203.132 178.109 205.6 178.207 208.263C178.326 211.348 176.659 213.827 174.656 216.013C172.578 218.276 170.261 220.333 167.804 222.173C165.314 224.046 162.435 225.453 160.107 227.51C159.609 227.943 159.663 229.014 160.529 228.852C161.092 228.744 161.666 228.592 162.218 228.386C162.359 228.69 162.64 228.917 163.084 228.96C167.338 229.393 171.625 229.415 175.879 229.014C178.044 228.809 180.209 228.473 182.342 228.04C182.937 227.921 183.554 227.802 184.171 227.65C185.795 227.91 187.332 227.607 188.642 226.178C189.724 224.998 190.233 223.537 190.385 222.021C190.677 221.448 190.937 220.841 191.153 220.17C192.312 216.598 193.275 212.95 194.217 209.313C194.293 209.01 194.282 208.761 194.217 208.566C195.159 206.087 196.1 203.608 197.053 201.14C197.389 200.241 196.945 199.224 195.851 199.397L195.841 199.375Z" fill="white"/>
<path d="M236.067 248.445C228.814 253.295 222.168 258.902 216.149 265.213C215.467 265.928 214.233 266.166 213.811 265.029C211.981 260.05 209.762 255.222 207.121 250.621C204.512 246.064 201.373 241.874 198.569 237.447C198.136 236.754 198.981 235.628 199.706 235.888C199.814 235.78 199.955 235.693 200.096 235.639C200.507 235.488 200.918 235.325 201.319 235.163C203.765 233.355 206.396 231.818 208.983 230.205C210.423 229.307 211.852 228.386 213.27 227.456C213.919 227.033 214.547 226.525 215.218 226.092C216.16 225.171 217.069 224.208 217.924 223.201C218.455 222.573 219.494 222.292 220.035 223.082C225.513 230.93 231.001 238.757 236.478 246.605C236.868 247.157 236.619 248.077 236.067 248.445Z" fill="white"/>
<path d="M58.1146 289.559C56.9888 288.357 55.6898 287.036 54.2501 285.965C54.3042 285.543 54.3259 285.11 54.2934 284.655C54.1202 281.516 51.8686 278.853 49.4113 277.088C46.0772 274.696 41.9962 273.841 38.4889 274.967C37.9151 274.469 37.3198 274.014 36.7027 273.624C34.148 272 31.1278 271.741 28.7788 273.862C27.1984 275.28 26.1483 277.445 25.672 279.621C24.2539 280.401 22.9874 281.505 21.8941 282.663C19.7507 284.915 18.0729 287.859 18.1595 291.053C18.2461 294.062 20.0105 296.855 22.3812 298.619C25.0333 300.6 29.0927 302.062 32.8707 301.997C33.9965 304.086 35.6094 305.915 37.2981 307.063C39.777 308.751 42.9704 309.552 45.9581 309.217C49.7577 310.17 54.196 308.362 57.1404 305.504C59.327 303.382 61.2322 300.698 61.5137 297.58C61.7951 294.441 60.193 291.756 58.1146 289.548V289.559ZM46.6509 305.688C44.172 304.627 42.44 301.91 43.4575 299.182C44.6591 295.967 49.4654 295.729 50.9052 298.911C52.399 302.202 49.6819 305.006 46.6509 305.699V305.688ZM37.5579 297.223C36.8976 297.894 36.0532 298.262 35.1548 298.446C35.0249 298.046 34.9166 297.645 34.8408 297.223C34.7975 296.963 34.7651 296.595 34.7651 296.194C34.8841 296.151 34.9924 296.108 35.1115 296.054C35.7068 295.783 35.9233 294.906 35.6744 294.408C36.2156 294.473 36.811 294.408 37.4497 294.192C37.612 294.138 37.7636 294.073 37.9151 294.008C38.6079 294.95 38.4023 296.346 37.5471 297.223H37.5579ZM35.7068 290.002C35.2089 289.353 35.014 288.411 34.8733 287.632C34.765 287.058 34.7001 286.474 34.6893 285.878C35.8584 286.885 36.7136 288.498 36.8759 289.84C36.4862 289.84 36.0857 289.894 35.7068 289.992V290.002ZM28.7247 283.02C28.5948 282.674 28.519 282.295 28.4865 281.895C29.1469 281.797 29.8613 281.808 30.4567 282.003C29.8288 282.252 29.2335 282.587 28.7247 283.02ZM31.2361 287.967C31.2686 288.216 31.301 288.465 31.3335 288.704C31.5284 289.873 31.9614 291.172 32.6325 292.232C32.4485 292.503 32.2861 292.774 32.1346 293.055C31.5284 292.341 31.0845 291.421 30.7598 290.663C30.4675 289.981 30.0562 288.974 29.9154 287.989C30.3701 288.054 30.8139 288.043 31.2361 287.989V287.967ZM40.1126 287.61C39.4198 285.261 37.6553 282.977 35.3496 282.014C35.447 281.765 35.5661 281.526 35.696 281.299C36.2481 280.314 36.9517 279.567 37.7528 279.037C38.5213 279.892 39.225 280.801 39.8853 281.7C40.6539 282.761 43.0787 285.64 41.942 286.95C40.9678 288.076 41.7039 289.277 42.7214 289.461C42.1477 291.247 42.007 293.326 43.1869 294.679C42.4292 295.242 41.7905 295.945 41.2709 296.736C41.8771 294.863 41.5956 292.774 40.1559 291.258C40.4915 290.089 40.459 288.768 40.1234 287.599L40.1126 287.61ZM47.2571 291.215C46.8783 291.55 45.969 292.622 45.5576 292.081C45.1896 291.605 45.6009 290.338 45.7525 289.851C46.2829 288.162 47.3437 286.69 49.3139 287.123C49.7036 287.21 50.0716 287.34 50.4397 287.524C49.7361 289.007 48.4587 290.165 47.2571 291.215ZM45.0164 278.853C47.1164 279.794 49.7252 281.754 50.5804 284.103C50.4722 284.07 50.3531 284.038 50.2448 284.016C48.3721 283.627 46.6726 284.189 45.3411 285.315C45.1787 283.865 44.4534 282.403 43.6416 281.158C42.9596 280.119 42.2127 279.048 41.3791 278.019C42.5807 278.03 43.8256 278.322 45.0164 278.853ZM29.8613 277.023C31.1711 274.999 33.2387 275.302 35.0357 276.569C35.1223 276.623 35.1981 276.688 35.2738 276.753C34.4511 277.435 33.7042 278.268 33.0655 279.275C33.0114 279.361 32.9573 279.459 32.9031 279.546C32.0371 278.939 30.9763 278.582 29.8397 278.539C29.5799 278.539 29.3309 278.539 29.0819 278.56C29.3092 277.987 29.5799 277.456 29.8613 277.012V277.023ZM21.9482 292.785C20.3136 289.353 22.5652 285.456 25.488 283.28C25.672 284.395 26.1267 285.434 26.8303 286.268C26.3648 288.628 27.404 291.074 28.6381 293.142C29.3309 294.311 30.2618 295.361 31.366 295.956C31.3119 296.779 31.3768 297.612 31.55 298.435C27.8479 297.926 23.6477 296.324 21.959 292.785H21.9482ZM36.7785 301.542C36.7244 301.477 36.6811 301.401 36.627 301.336C38.0017 300.817 39.2358 299.983 40.1992 298.76C40.275 298.663 40.3508 298.565 40.4157 298.457C39.6688 300.47 39.658 302.765 40.5889 304.768C39.0951 304.01 37.7636 302.884 36.7677 301.542H36.7785ZM57.6167 300.21C56.6641 301.942 55.0836 303.685 53.2109 304.833C53.2325 304.789 53.265 304.746 53.2867 304.703C54.6831 302.376 55.0295 299.334 53.7846 296.866C52.897 295.112 51.2732 293.954 49.433 293.477C49.866 293.088 50.2557 292.698 50.5912 292.373C51.5114 291.464 52.3774 290.457 53.0377 289.342C53.5248 289.775 53.9903 290.219 54.4125 290.62C57.1512 293.153 59.6626 296.443 57.6059 300.2L57.6167 300.21Z" fill="white"/>
<path d="M162.252 274.349C160.357 274.09 158.82 274.425 157.088 273.321C155.464 272.282 154.328 270.669 153.288 269.089C150.993 265.57 148.948 261.89 147.042 258.144C145.159 254.442 143.535 250.621 142.041 246.756C141.294 244.84 140.601 242.892 139.963 240.943C139.4 239.233 138.956 236.592 137.397 235.498C136.899 235.141 136.109 235.412 135.893 235.996C135.135 238.086 135.968 240.478 136.553 242.535C137.224 244.884 137.949 247.222 138.783 249.517C140.407 253.988 142.355 258.361 144.531 262.594C146.62 266.642 148.883 271.059 151.914 274.49C154.468 277.38 159.751 280.271 162.966 276.688C163.702 275.865 163.345 274.512 162.219 274.36L162.252 274.349Z" fill="white"/>
<path d="M131.865 234.557C129.808 234.784 128.109 235.65 125.955 235.401C123.768 235.152 121.679 234.189 119.774 233.117C116.104 231.039 112.694 228.495 109.425 225.832C106.156 223.158 103.038 220.289 99.8123 217.561C98.1669 216.176 96.4998 214.79 94.7895 213.48C93.4038 212.42 91.5636 210.698 89.7233 210.926C88.9872 211.023 88.63 211.835 88.7491 212.474C88.9548 213.589 89.9831 214.292 90.8058 215.028C91.6069 215.743 92.4404 216.436 93.2631 217.139C95.0384 218.666 96.7596 220.257 98.4916 221.827C101.891 224.901 105.268 228.018 108.84 230.898C112.38 233.745 116.191 236.592 120.423 238.324C124.06 239.807 130.35 240.781 133.045 237.014C133.814 235.932 133.337 234.394 131.865 234.568V234.557Z" fill="white"/>
<path d="M73.7886 288.195C72.836 287.816 71.8185 287.913 70.8442 287.578C69.8375 287.22 68.9499 286.701 68.1272 286.008C66.5684 284.687 65.5075 282.847 64.5765 281.05C62.26 276.569 60.2357 271.914 58.0491 267.367C55.7866 262.648 53.5567 257.928 51.2726 253.219C50.1793 250.967 49.0535 248.737 47.9385 246.497C46.7585 244.115 45.6977 241.528 44.009 239.46C42.8724 238.064 40.9996 239.644 41.3244 241.127C41.9522 243.974 43.4244 246.648 44.6152 249.29C45.7302 251.736 46.8235 254.182 47.971 256.618C50.3849 261.728 52.8097 266.837 55.2237 271.946C56.382 274.404 57.5619 276.861 58.7419 279.307C59.846 281.613 60.8636 283.995 62.2708 286.138C63.4724 287.967 64.9879 289.613 66.8931 290.717C68.7442 291.789 71.4504 292.698 73.4639 291.605C74.6547 290.955 75.4016 288.844 73.767 288.206L73.7886 288.195Z" fill="white"/>
<path d="M54.2179 322.12C53.0596 321.633 51.7606 322.055 50.5482 321.709C49.3575 321.373 48.2533 320.756 47.225 320.085C44.9625 318.602 42.8516 316.881 40.6866 315.257C35.9561 311.707 31.2472 308.124 26.6249 304.432C22.3057 300.99 17.9433 297.515 13.9163 293.726C12.1302 292.048 10.4523 290.273 9.02343 288.281C7.57288 286.246 6.77183 283.995 5.58107 281.819C4.76919 280.336 2.63666 281.884 2.72326 283.161C3.08049 288.271 7.39968 292.958 10.8529 296.357C15.1829 300.633 19.9892 304.454 24.7414 308.232C29.7642 312.226 34.8952 316.091 40.0263 319.945C42.3645 321.698 44.6702 323.658 47.3549 324.87C49.574 325.866 52.8756 326.505 54.586 324.329C55.1272 323.636 55.1056 322.51 54.2071 322.131L54.2179 322.12Z" fill="white"/>
<path d="M96.0782 162.235C95.6993 161.758 95.0173 161.704 94.541 162.105C92.8848 163.523 92.7874 166.078 92.4085 168.102C91.9647 170.462 91.5533 172.822 91.142 175.192C90.3517 179.815 89.5723 184.448 88.7821 189.07C88.0135 193.616 87.3424 198.185 86.498 202.709C85.7944 206.433 84.6145 210.135 81.2154 212.235C79.3102 213.415 79.7107 216.652 82.2871 215.71C86.2599 214.249 88.5115 210.135 89.6698 206.282C91.0662 201.627 91.5317 196.604 92.3219 191.819C93.1554 186.786 93.9673 181.741 94.79 176.697C95.1905 174.229 95.6019 171.761 95.9591 169.293C96.1431 168.059 96.3272 166.824 96.4679 165.58C96.5978 164.41 96.8467 163.231 96.0673 162.235H96.0782Z" fill="white"/>
<path d="M185.482 149.147C184.28 147.513 181.855 148.065 180.221 148.79C178.435 149.58 177.006 151.042 175.848 152.579C173.141 156.162 170.771 160.048 168.4 163.858C166.029 167.669 163.734 171.523 161.537 175.441C160.389 177.487 159.318 179.576 158.257 181.666C157.413 183.343 155.735 185.563 156.222 187.511C156.384 188.171 157.207 188.388 157.77 188.117C159.426 187.316 160.14 185.162 160.974 183.625C161.959 181.817 162.966 180.02 163.983 178.223C165.954 174.727 167.935 171.241 170.024 167.81C172.124 164.367 174.3 160.979 176.551 157.645C177.515 156.227 178.435 154.635 179.669 153.423C180.329 152.774 181.119 152.222 182.029 152.016C182.96 151.799 183.707 152.016 184.627 151.615C185.471 151.247 186.088 149.981 185.482 149.158V149.147Z" fill="white"/>
<path d="M200.788 200.047C200.604 199.051 199.175 199.235 198.731 199.884C197.4 201.833 196.978 204.333 196.404 206.585C195.776 209.02 195.224 211.478 194.64 213.924C194.055 216.371 193.47 218.817 192.897 221.264C192.356 223.623 191.544 226.07 191.403 228.484C191.273 230.638 194.001 230.151 194.813 228.711C195.765 226.47 196.112 223.905 196.675 221.534C197.248 219.088 197.801 216.641 198.353 214.184C198.905 211.738 199.478 209.291 199.998 206.834C200.463 204.658 201.2 202.276 200.788 200.047Z" fill="white"/>
<path d="M268.661 183.831C267.177 183.398 266.008 184.166 264.666 184.751C263.194 185.4 261.722 186.05 260.26 186.699C257.327 187.998 254.393 189.319 251.47 190.661C245.82 193.259 240.212 195.965 234.724 198.877C229.95 201.41 224.462 203.9 220.911 208.122C217.989 211.586 216.343 217.929 220.446 221.166C221.539 222.032 222.676 220.419 222.199 219.412C220.056 214.888 222.459 210.677 226.161 207.97C230.242 204.983 235.049 202.753 239.541 200.458C244.369 198.001 249.273 195.684 254.198 193.443C256.753 192.274 259.319 191.137 261.895 190.001C263.183 189.438 264.471 188.864 265.749 188.301C266.983 187.76 268.303 187.392 269.061 186.201C269.505 185.508 269.754 184.166 268.65 183.841L268.661 183.831Z" fill="white"/>
<path d="M128.509 167.82C119.156 159.713 117.023 146.311 123.15 135.605C123.443 135.086 123.486 134.155 123.075 133.678C122.252 132.704 121.451 131.719 120.617 130.766C119.838 129.89 119.167 128.948 117.987 128.656C117.034 128.407 115.919 129.186 116.017 130.247C116.19 132.195 117.792 133.895 119.123 135.432C112.672 147.296 115.54 162.408 125.846 171.187C127.675 172.746 130.327 169.401 128.509 167.831V167.82Z" fill="white"/>
<path d="M100.623 108.38C93.1973 111.909 86.2801 116.531 80.2398 122.117C77.2737 124.867 74.5025 127.822 71.9695 130.983C70.7138 132.553 69.523 134.176 68.4188 135.865C67.4013 137.391 65.5394 139.426 65.9832 141.353C66.1131 141.895 66.8167 142.306 67.358 142.143C69.2091 141.581 70.0426 139.491 71.1035 137.998C72.1751 136.493 73.2901 135.031 74.4376 133.592C76.884 130.528 79.5578 127.649 82.4481 124.997C88.1854 119.703 94.6695 115.308 101.717 111.952C103.871 110.924 103.059 107.233 100.612 108.391L100.623 108.38Z" fill="white"/>
<path d="M31.9929 223.743C30.8021 223.45 29.3191 221.025 28.7345 220.159C27.6412 218.547 26.7969 216.815 26.1365 214.985C25.4004 212.961 24.8917 210.861 24.4803 208.75C24.1014 206.791 24.1123 204.03 22.9107 202.406C22.088 201.302 20.7132 202.212 20.3993 203.24C19.9446 204.712 20.3343 206.358 20.5292 207.862C20.7132 209.215 20.9405 210.558 21.222 211.889C21.8065 214.66 22.6509 217.334 23.8849 219.889C24.9783 222.151 26.3963 224.197 28.1933 225.962C29.0268 226.774 29.9253 227.65 31.1593 227.596C32.4259 227.553 33.346 226.6 33.5625 225.388C33.779 224.186 32.913 223.613 31.982 223.753L31.9929 223.743Z" fill="white"/>
<path d="M117.532 125.029L117.359 124.574C117.154 124.055 116.775 123.795 116.353 123.741C115.238 122.918 114.025 122.334 113.105 121.165C112.023 119.779 111.265 118.209 110.756 116.531C109.479 112.31 110.042 107.839 110.648 103.552C111.243 99.2872 111.979 94.9031 111.395 90.5947C111.146 88.7545 110.691 86.9359 109.933 85.2255C109.262 83.7208 108.223 81.5125 106.404 81.3285C105.625 81.2527 105.062 82.0105 105.03 82.7141C104.986 83.7425 105.592 84.5111 106.036 85.4095C106.469 86.2864 106.837 87.1957 107.108 88.1374C107.692 90.1292 107.877 92.2293 107.877 94.2969C107.898 99.0166 106.718 103.65 106.307 108.348C105.95 112.418 106.155 116.553 107.844 120.331C109.165 123.275 111.903 127.292 115.422 127.67C116.688 127.811 118.009 126.252 117.522 125.018L117.532 125.029Z" fill="white"/>
<path d="M134.105 125.484C128.206 124.574 124.254 120.396 121.418 115.438C120.552 113.923 118.777 115.763 118.972 116.954C120.119 123.741 126.82 128.461 133.272 129.435C135.783 129.814 136.346 125.57 134.094 125.495L134.105 125.484Z" fill="white"/>
<path d="M104.694 80.0727C99.4981 80.3974 94.3995 81.3284 89.5283 78.8495C85.2307 76.652 83.4013 72.2787 83.0982 67.6672C82.4162 57.286 87.3524 47.5002 93.7717 39.6737C95.5795 37.4762 97.5171 35.4086 99.5306 33.3952C101.566 31.3601 103.947 29.4873 105.571 27.0842C106.177 26.1857 105.614 24.7893 104.402 25.3414C101.825 26.5105 99.693 28.6105 97.6362 30.5157C95.5578 32.4426 93.5768 34.4993 91.7149 36.6319C87.9153 40.9835 84.6354 45.8656 82.3837 51.1915C81.8317 52.4905 81.3121 53.9194 80.8466 55.4133C80.2512 56.236 79.8399 57.286 79.5476 58.1087C78.9089 59.8732 78.5409 61.681 78.3677 63.532C76.4083 68.1652 77.9455 74.4329 80.3486 78.4598C80.9007 79.3799 81.81 79.1634 82.4487 78.5464C83.3147 79.6613 84.3647 80.6681 85.6204 81.5232C90.9139 85.1172 98.2749 85.4311 104.359 84.0238C106.34 83.5151 106.978 79.9428 104.705 80.0835L104.694 80.0727Z" fill="white"/>
<path d="M160.931 47.5327C159.307 48.8317 158.192 50.3905 156.287 51.3647C154.425 52.3065 152.401 52.8261 150.323 53.0101C145.809 53.4107 141.316 51.906 137.473 49.6219C133.219 47.0888 129.549 43.7114 126.064 40.2258C124.191 38.3422 122.372 36.3937 120.446 34.5643C118.703 32.9081 116.862 30.9054 114.427 30.4183C113.702 30.2668 112.987 31.2627 113.236 31.923C114.232 34.4885 116.906 36.5236 118.789 38.4721C120.77 40.5289 122.697 42.6289 124.7 44.6749C128.499 48.5394 132.591 52.1117 137.473 54.5473C141.901 56.7556 146.902 57.7948 151.816 56.9613C154.046 56.5824 156.255 55.8246 158.214 54.688C160.206 53.5297 162.631 51.8086 163.497 49.5894C164.179 47.8791 162.49 46.2878 160.92 47.5435L160.931 47.5327Z" fill="white"/>
<path d="M163.204 92.186C164.99 83.645 164.037 74.6602 160.389 66.7363C159.371 64.5172 158.192 62.4063 156.763 60.4362C156.135 59.5702 155.345 58.2495 154.316 57.8165C153.688 57.5567 152.563 57.6217 152.292 58.4227C151.87 59.6568 152.303 60.4253 152.985 61.4862C153.721 62.6336 154.435 63.7703 155.085 64.961C156.395 67.3642 157.466 69.8539 158.278 72.4628C159.826 77.5181 160.486 82.963 159.891 88.224C159.22 94.2102 156.893 99.8284 155.832 105.739C155.334 108.488 155.096 111.346 155.388 114.128C155.648 116.564 156.135 119.952 158.083 121.63C159.198 122.593 161.125 121.175 160.941 119.844C160.627 117.625 159.491 115.655 159.263 113.371C159.047 111.173 159.177 108.965 159.534 106.789C160.357 101.831 162.175 97.1005 163.204 92.1968V92.186Z" fill="white"/>
<path d="M230.276 60.447C220.74 62.1357 211.354 64.712 202.326 68.2193C197.801 69.973 193.363 71.9431 189.022 74.1298C184.909 76.1974 180.157 78.3407 176.909 81.6532C176.205 82.3676 176.736 83.9914 177.873 83.6558C180.113 82.9847 182.073 81.7398 184.129 80.6465C186.1 79.5964 188.081 78.5681 190.083 77.5721C194.348 75.4613 198.711 73.5669 203.16 71.8674C211.993 68.5008 221.108 65.9785 230.417 64.3223C232.68 63.9218 232.885 59.9923 230.276 60.447Z" fill="white"/>
<path d="M253.874 59.7325C253.733 59.083 253.041 58.5959 252.402 58.5634C244.846 58.1737 237.29 57.6433 229.745 57.0695C226.021 56.7881 222.298 56.4742 218.585 56.1386C214.904 55.803 210.964 55.1102 207.283 55.4349C205.898 55.5648 205.064 58.0546 206.623 58.5634C209.99 59.6675 213.93 59.7325 217.448 60.0897C221.258 60.4686 225.08 60.8258 228.901 61.1506C236.435 61.8001 243.991 62.2764 251.547 62.6769C252.229 62.7094 253.062 62.3738 253.441 61.7784C253.896 61.0423 254.069 60.5985 253.885 59.7325H253.874Z" fill="white"/>
<path d="M280.958 55.1751C279.042 42.3475 271.681 33.7416 259.676 29.0976C254.848 27.2357 249.728 26.7811 244.597 26.4888C235.59 25.9692 226.638 26.7703 217.729 27.9935C207.153 29.4332 196.609 31.0786 186.055 32.6374C183.435 33.0271 183.446 33.0379 182.396 30.624C178.488 21.65 173.336 13.5854 165.498 7.48005C161.428 4.30832 157.109 1.59123 152.021 0.368006C150.235 -0.0649954 148.427 -0.205721 146.674 0.530381C143.708 1.77526 143.156 5.20679 145.58 7.29602C145.754 7.44757 145.916 7.59912 146.154 7.82645C144.693 7.82645 143.394 7.7615 142.105 7.83727C139.767 7.96718 137.505 8.37853 135.546 9.86156C134.95 10.3162 134.203 10.6843 133.478 10.8358C128.726 11.8209 123.952 12.925 119.676 15.2308C112.369 19.1711 105.041 23.1222 98.0801 27.6363C87.2767 34.6292 80.2513 44.5882 76.8522 57.0587C75.4233 62.2872 74.5573 67.559 76.0836 72.9065C78.0538 79.8021 82.1456 84.6084 89.5067 85.9723C93.7068 86.7517 97.9069 86.5244 102.064 85.6151C102.919 85.4311 103.298 85.5718 103.612 86.427C105.322 90.9627 105.723 95.4875 104.218 100.186C103.59 102.156 102.8 103.509 100.765 104.548C84.538 112.829 72.284 125.419 62.4116 140.52C62.2601 140.747 62.1085 140.985 62.0111 141.234C61.6863 142.078 61.8595 142.815 62.6281 143.302C63.3967 143.778 64.1544 143.67 64.7606 142.988C65.0746 142.641 65.3127 142.219 65.5725 141.829C71.667 132.747 78.4976 124.282 87.1468 117.516C91.5959 114.042 96.5213 111.162 101.241 108.023C101.49 107.861 101.804 107.796 102.096 107.687C102.139 108.012 102.204 108.337 102.237 108.672C102.334 110.004 102.269 111.368 102.529 112.667C103.687 118.512 106.773 123.286 111.059 127.335C111.568 127.811 112.196 128.201 112.824 128.515C114.881 129.554 116.667 129.088 117.955 127.183C118.269 126.729 118.518 126.231 118.745 125.733C119.286 124.531 119.275 124.531 120.098 125.57C122.317 128.374 124.969 130.615 128.401 131.784C130.122 132.368 131.854 132.531 133.554 131.6C133.781 131.481 134.333 131.567 134.506 131.762C138.1 135.811 142.831 137.186 147.973 137.348C156.113 137.597 163.507 135.183 170.186 130.55C176.215 126.371 179.668 120.667 180.123 113.273C180.264 111.032 180.567 108.846 181.216 106.67C182.169 103.433 182.299 100.088 182.071 96.7108C181.758 91.7962 180.664 87.0548 179.04 82.4325C178.759 81.6315 178.911 81.166 179.517 80.6031C182.288 78.0701 185.471 76.2298 188.87 74.7035C199.067 70.1028 209.74 66.9203 220.587 64.3006C224.008 63.4671 227.353 62.6011 231.011 62.9583C238.145 63.6619 245.311 63.9434 252.477 64.3872C253.69 64.463 254.426 63.8784 254.502 62.8934C254.578 61.8758 253.874 61.1505 252.629 61.0748C243.904 60.501 235.168 59.949 226.443 59.3861C221.096 59.0397 215.748 58.6716 210.401 58.3469C209.524 58.2927 209.307 58.0979 209.545 57.1453C210.076 54.9695 210.606 52.772 210.801 50.542C211.31 44.7398 209.394 39.4355 207.088 34.2503C206.482 32.8972 206.471 32.8972 207.976 32.6699C208.095 32.6591 208.214 32.6374 208.333 32.6266C214.547 31.8797 220.76 31.0678 226.985 30.4075C235.396 29.5198 243.817 29.4007 252.207 30.7106C260.217 31.9554 266.907 35.5277 271.898 42.0011C276.195 47.576 278.393 53.8328 277.602 60.9665C277.083 65.6971 275.448 70.0704 273.207 74.2272C268.996 82.0537 263.302 88.7219 256.829 94.7406C244.11 106.572 229.463 115.427 213.605 122.355C212.988 122.626 212.36 122.853 211.765 123.156C210.953 123.568 210.65 124.271 210.931 125.137C211.212 126.014 211.916 126.469 212.771 126.209C213.626 125.949 213.865 126.339 214.168 126.967C220.046 139.242 225.004 151.875 229.279 164.789C229.507 165.493 229.388 165.937 228.836 166.435C224.408 170.505 219.472 173.752 213.756 175.733C213.421 175.853 213.074 175.95 212.76 176.102C211.905 176.502 212.76 175.982 213.053 176.924C213.334 177.866 213.237 178.061 214.168 177.909C214.557 177.844 214.46 179.035 214.828 178.905C219.299 177.368 223.412 175.16 227.147 172.248C227.547 171.934 228.121 171.62 228.597 171.631C235.829 171.901 242.843 173.168 249.338 176.556C253.452 178.7 257.197 181.362 260.704 184.393C261.668 185.216 262.642 185.205 263.324 184.437C263.995 183.668 263.865 182.705 262.891 181.86C255.422 175.333 247.087 170.548 237.106 169.098C235.385 168.849 233.653 168.6 231.639 168.318C233.393 166.987 233.047 165.547 232.527 163.999C228.219 150.966 223.272 138.203 217.285 125.852C216.787 124.834 217.026 124.488 217.989 124.066C220.295 123.059 222.568 121.955 224.809 120.807C239.271 113.37 252.64 104.407 263.887 92.5323C269.419 86.6976 274.257 80.3541 277.624 72.9823C280.2 67.3316 281.878 61.4212 280.958 55.2076V55.1751ZM149.456 3.48561C151.069 3.73459 152.736 4.02687 154.23 4.64389C160.356 7.17695 165.379 11.2363 169.731 16.1725C169.818 16.27 169.872 16.4107 169.872 16.4107C165.531 14.473 161.147 12.5462 156.795 10.5327C155.832 10.0889 154.976 9.38525 154.089 8.78988C152.357 7.65325 150.625 6.51662 148.914 5.33669C148.406 4.99029 147.994 4.50317 147.54 4.07017C148.178 3.85366 148.86 3.38819 149.456 3.47479V3.48561ZM137.256 13.1199C137.786 12.5029 138.566 11.9508 139.334 11.7018C142.03 10.8466 144.801 11.1389 147.529 11.5611C152.714 12.3838 157.542 14.289 162.251 16.5298C162.359 16.5839 162.446 16.6488 162.662 16.7896C159.079 16.3349 155.734 15.8586 152.378 15.5014C151.058 15.3607 149.705 15.523 148.362 15.4581C145.775 15.339 143.188 15.1658 140.612 14.9926C139.713 14.9277 138.804 14.8627 137.916 14.7003C136.909 14.5055 136.606 13.8668 137.256 13.1199ZM132.32 127.162C132.233 128.677 131.562 129.078 130.09 128.71C127.297 128.006 125.132 126.306 123.357 124.152C122.209 122.767 121.256 121.208 120.282 119.681C119.784 118.902 119.265 118.231 118.247 118.372C117.175 118.523 116.851 119.324 116.634 120.288C116.309 121.782 115.909 123.265 115.454 124.715C115.184 125.592 114.577 125.765 113.82 125.17C113.549 124.942 113.235 124.758 112.986 124.509C109.306 120.796 106.556 116.553 105.701 111.281C105.322 108.965 105.831 106.746 106.405 104.516C107.151 101.625 108.104 98.7459 108.472 95.8015C109.046 91.1683 107.617 86.8383 105.614 82.7032C105.214 81.8805 104.478 81.6856 103.601 81.8913C100.256 82.7032 96.8677 83.1037 93.4145 83.0063C84.8627 82.7465 80.0456 77.9293 78.8657 69.3126C78.0754 63.5645 79.8507 58.152 81.8209 52.8477C85.2741 43.5599 91.401 36.372 99.4224 30.6997C99.8121 30.4291 100.191 30.1368 100.591 29.8879C108.299 25.2114 115.887 20.3077 124.277 16.9086C126.929 15.837 129.776 15.2524 132.525 14.4297C133.175 14.2349 133.532 14.3756 133.694 15.1009C134.041 16.6921 135.286 17.4499 136.736 17.9912C135.416 18.8247 134.041 19.4525 133.002 20.4268C131.908 21.4443 130.902 22.6784 130.252 24.0207C129.505 25.5578 129.83 27.1924 130.988 28.5456C132.136 29.8879 133.651 29.9636 135.221 29.6389C136.054 29.4657 136.866 29.1626 138.057 28.8054C137.418 29.4657 136.996 29.877 136.596 30.3209C135.61 31.4142 134.853 32.6158 135.372 34.1637C135.881 35.6684 137.115 36.3071 138.577 36.6319C140.622 37.0865 142.625 36.7185 144.487 35.9715C146.847 35.0189 149.066 33.7307 151.383 32.6591C151.935 32.3993 152.638 32.2369 153.223 32.3235C155.052 32.5833 156.871 32.9297 158.668 33.3843C159.22 33.5251 159.891 33.9905 160.129 34.4885C161.396 37.2056 162.521 39.9768 163.723 42.7155C164.026 43.3975 164.005 43.7872 163.214 44.1552C161.32 45.0429 160.833 46.829 160.476 48.7126C160.356 49.3513 160.064 50.109 159.588 50.5095C157.867 51.9493 156.135 53.389 154.251 54.5906C150.43 57.037 146.36 57.2319 142.16 55.5107C136.877 53.3457 132.276 50.1198 128.022 46.3852C122.501 41.5464 117.782 36.0148 113.668 29.9528C112.12 27.6687 110.193 27.6254 108.602 29.8337C101.804 39.3165 97.8095 49.8167 97.0734 61.4861C96.911 64.0841 96.8027 66.6821 96.7811 69.2801C96.7811 71.1312 97.5713 71.6725 99.3574 71.1204C100.158 70.8714 100.223 71.456 100.44 71.8565C102.941 76.4788 105.744 80.8954 109.035 84.9981C113.235 90.2374 117.998 94.8489 123.93 98.118C124.796 98.5943 125.651 99.1464 126.582 99.4062C128.152 99.85 128.747 100.792 128.996 102.394C130.003 108.889 131.194 115.362 132.201 121.857C132.471 123.589 132.406 125.397 132.309 127.162H132.32ZM164.037 48.2904C164.329 47.8574 164.686 47.4677 165.011 47.0564C165.304 47.4136 165.639 47.7492 165.899 48.1172C166.949 49.6544 166.971 51.0833 165.834 52.6962C165.152 53.6704 164.99 55.0128 164.557 56.2901C163.777 55.2942 162.987 54.3416 162.273 53.324C162.143 53.14 162.251 52.6312 162.424 52.4364C163.312 51.4297 163.918 50.3472 163.875 48.9616C163.875 48.7342 163.907 48.4636 164.037 48.2796V48.2904ZM119.719 84.1646C120.477 84.3811 121.235 84.7274 121.993 84.7274C122.491 84.7274 123.205 84.3377 123.443 83.9156C123.79 83.2877 123.346 82.7356 122.664 82.4542C121.993 82.1836 121.04 82.0645 120.737 81.5665C120.412 81.0253 120.694 80.116 120.737 79.3691C121.365 70.9147 117.63 64.3764 111.72 58.8015C110.724 57.8597 109.5 58.1304 108.959 59.4185C108.699 60.0356 108.396 60.2521 107.747 60.2412C105.701 60.2196 103.644 60.2196 101.598 60.2521C100.851 60.2629 100.537 60.0789 100.624 59.2453C101.685 49.6002 105.106 40.8644 110.54 32.8539C111.178 31.923 111.406 32.54 111.752 33.0271C115.844 38.8618 120.412 44.2851 125.857 48.8858C128.737 51.3214 131.919 53.3998 134.961 55.6406C135.113 55.7489 135.253 55.8679 135.394 55.987C135.372 56.1169 135.351 56.2468 135.329 56.3767C132.785 56.5283 130.241 56.7231 127.687 56.7989C127.178 56.8097 126.582 56.4633 126.171 56.1169C125.446 55.4999 124.72 55.2834 123.93 55.8463C123.086 56.4417 123.032 57.2427 123.497 58.1412C124.19 59.516 125.283 60.1113 126.81 60.2088C130.739 60.4361 134.593 59.7974 138.436 59.1371C140.092 58.8556 141.64 58.8773 143.307 59.3211C145.104 59.7974 147.031 59.7325 148.904 59.9706C149.282 60.0139 149.856 60.2412 149.964 60.5335C152.27 66.4765 154.587 72.4194 156.763 78.4056C157.347 80.0186 157.585 81.7722 157.802 83.4826C157.888 84.2295 157.694 85.1496 157.304 85.7991C155.431 88.9276 153.201 91.8178 150.246 93.9937C144.325 98.3453 137.775 99.3629 130.75 97.252C123.432 95.0545 117.998 90.1941 113.149 84.5867C107.996 78.6546 104.001 71.9647 100.754 64.8311C100.169 63.5645 100.202 63.5429 101.566 63.532C105.073 63.532 108.58 63.4996 112.088 63.5429C112.542 63.5429 113.105 63.9001 113.408 64.2573C117.619 69.3234 118.962 75.1798 118.096 81.6315C117.89 83.1903 118.215 83.6991 119.708 84.1213L119.719 84.1646ZM133.24 106.497C133.153 106.258 133.034 106.009 132.98 105.76C132.742 104.57 132.514 103.368 132.32 102.167C132.255 101.755 132.103 101.333 132.872 101.344C135.892 101.387 138.912 101.355 141.932 101.366C141.986 101.366 142.041 101.441 142.149 101.539C141.012 101.939 139.832 102.177 138.858 102.751C137.137 103.747 135.535 104.938 133.889 106.064C133.673 106.204 133.467 106.356 133.251 106.507L133.24 106.497ZM175.988 117.452C174.938 121.435 172.524 124.509 169.309 126.934C162.543 132.044 154.933 134.544 146.425 133.819C142.376 133.473 138.739 132.076 136.314 128.515C136.065 128.147 135.784 127.66 135.805 127.248C136.098 122.55 135.037 118.004 134.355 113.414C134.247 112.688 134.355 111.844 134.625 111.162C136.173 107.254 139.529 105.717 143.296 104.819C143.534 104.765 144.011 105.079 144.151 105.338C145.645 108.023 147.107 110.718 148.525 113.446C148.665 113.717 148.557 114.236 148.395 114.54C148.146 114.973 147.68 115.276 147.399 115.698C146.923 116.412 147.02 117.148 147.626 117.744C148.232 118.328 149.023 118.48 149.661 117.928C150.592 117.148 151.48 116.282 152.227 115.33C152.941 114.442 152.508 113.5 152.01 112.58C150.019 108.911 148.103 105.208 146.111 101.55C145.602 100.608 145.829 100.24 146.814 99.8717C150.549 98.4644 153.591 96.0613 156.189 93.0736C156.438 92.7813 156.622 92.4349 156.838 92.1101C156.968 92.1967 157.087 92.2833 157.206 92.3699C156.838 93.7231 156.459 95.0654 156.124 96.4185C155.171 100.315 153.991 104.169 153.353 108.12C152.66 112.396 152.941 116.705 154.825 120.731C155.247 121.652 155.788 122.55 156.438 123.319C157.661 124.758 159.371 124.791 160.66 123.405C161.266 122.756 161.72 121.944 162.164 121.164C162.5 120.569 162.716 120.612 163.009 121.164C163.323 121.749 163.647 122.334 164.005 122.907C164.881 124.358 166.018 124.748 167.36 123.73C170.002 121.749 172.513 119.606 175.068 117.506C175.36 117.267 175.544 116.889 175.782 116.575C175.869 116.629 175.966 116.694 176.064 116.748C176.053 116.986 176.064 117.224 176.009 117.452H175.988ZM167.09 119.92C166.548 120.288 166.289 120.179 165.996 119.649C165.379 118.502 164.719 117.387 164.091 116.25C163.647 115.438 163.063 114.832 162.045 114.94C161.082 115.038 160.67 115.73 160.378 116.553C160.01 117.549 159.62 118.545 159.209 119.519C159.079 119.822 158.808 120.071 158.614 120.342C158.408 120.082 158.137 119.844 157.997 119.552C156.492 116.347 156.026 112.927 156.611 109.517C157.358 105.23 158.278 100.933 159.588 96.7865C162.143 88.7219 161.753 80.8846 158.624 73.1122C156.892 68.8038 155.193 64.4846 153.418 60.1871C153.028 59.2453 153.212 58.8881 154.132 58.4335C155.68 57.6757 157.152 56.7339 158.581 55.7705C159.198 55.3592 159.523 55.3158 159.999 55.9329C165.693 63.3155 170.749 71.1096 174.386 79.7263C176.973 85.8533 178.748 92.2075 178.748 100.099C179.149 108.326 174.386 114.832 167.09 119.93V119.92ZM171.723 61.2696C171.03 59.8082 169.991 58.7041 168.302 58.5201C167.479 58.4335 167.176 58.0438 167.284 57.3077C167.447 56.1927 167.62 55.0777 167.891 53.9844C168.053 53.2916 168.378 53.0426 168.897 53.8545C170.413 56.2468 172.318 58.2494 174.938 59.5051C175.176 59.6134 175.436 60.0464 175.414 60.2954C175.198 62.6119 174.797 64.896 173.574 66.9311C172.816 68.1868 172.372 68.1435 171.614 66.9203C170.445 65.0259 169.255 63.1315 168.075 61.2371C168.183 61.1505 168.28 61.0531 168.389 60.9557C168.778 61.4428 169.211 61.8975 169.536 62.4279C169.958 63.1099 170.467 63.5645 171.268 63.1856C172.156 62.7635 172.08 62.0274 171.723 61.2696ZM197.053 67.7105C193.265 69.2585 189.4 70.6657 185.741 72.4843C183.046 73.8158 180.61 75.6777 178.11 77.3773C177.492 77.7886 177.276 77.8644 176.94 77.1283C176.129 75.3422 175.208 73.5885 174.397 71.8024C174.267 71.5209 174.321 70.8931 174.516 70.7632C176.118 69.6915 176.995 68.1219 177.536 66.3682C178.001 64.8744 178.38 63.3264 178.607 61.7784C178.748 60.815 179.116 60.5768 179.971 60.7392C180.469 60.8258 180.989 60.8474 181.498 60.9016C183.078 60.8691 184.637 60.6634 186.217 60.6418C187.365 60.6309 188.588 60.6418 189.649 60.999C192.691 62.0165 195.3 63.7486 197.475 66.1192C198.461 67.1909 198.45 67.1368 197.042 67.7105H197.053ZM215.196 61.9624C214.655 62.2006 214.417 62.3413 214.157 62.4171C210.346 63.5429 206.525 64.6362 202.715 65.7837C202.065 65.9785 201.708 65.9244 201.221 65.3723C199.868 63.846 198.396 62.4279 196.783 60.7717C202.931 61.1722 208.885 61.5619 215.207 61.9732L215.196 61.9624ZM207.424 46.8615C207.846 50.4662 207.045 53.9086 206.006 57.3185C205.767 58.0871 205.215 57.9572 204.685 57.9247C200.636 57.6649 196.588 57.3293 192.528 57.1669C190.147 57.0803 187.755 57.3185 185.362 57.3293C183.122 57.3293 180.87 57.4267 178.662 57.1453C175.945 56.7989 173.725 55.2726 172.383 52.9235C170.597 49.7843 169.06 46.5043 167.555 43.2135C165.921 39.6304 164.448 35.9823 162.922 32.356C162.402 31.1219 161.536 30.4399 160.194 30.2126C157.823 29.8013 155.474 29.3358 153.125 28.8054C151.945 28.5456 150.982 28.7945 150.019 29.4657C147.55 31.1977 144.909 32.5941 141.921 33.1895C141.12 33.3519 140.276 33.3519 139.453 33.3519C138.815 33.3519 138.674 32.9838 139.15 32.54C139.756 31.9771 140.352 31.3709 141.066 30.9704C144.335 29.1518 147.594 27.3115 150.939 25.6661C154.1 24.1073 157.466 24.5186 160.8 25.1248C163.041 25.5362 165.304 25.8934 167.555 26.2831C168.573 26.4563 169.255 26.045 169.547 25.0707C169.818 24.1506 169.276 23.2305 168.226 23.0573C164.578 22.4294 160.93 21.7691 157.271 21.3253C153.71 20.8923 150.441 22.0505 147.258 23.566C146.446 23.9557 145.472 24.1398 144.563 24.1614C142.095 24.2155 139.702 24.5511 137.386 25.4171C136.433 25.7743 135.459 26.1099 134.463 26.3697C133.554 26.6079 132.958 25.9908 133.435 25.2006C134.03 24.2264 134.82 23.2738 135.74 22.6243C138.328 20.7948 141.337 19.9288 144.422 19.3876C146.392 19.052 148.406 18.9221 150.397 18.6948C155.301 18.8355 160.021 19.9505 164.773 20.8814C166.592 21.2387 168.399 21.6717 170.218 21.9206C171.192 22.0505 172.21 21.7799 173.206 21.834C173.595 21.8557 174.158 22.1588 174.321 22.4944C176.442 26.662 178.532 30.8513 180.556 35.073C181.119 36.2422 181.444 37.5087 181.898 38.7319C182.32 39.8685 183.111 40.3448 184.052 40.0526C184.994 39.7603 185.373 38.8943 185.07 37.7577C184.691 36.3071 184.68 36.2746 186.142 36.0365C191.316 35.1921 196.49 34.4019 201.654 33.5467C202.607 33.3843 203.126 33.6117 203.559 34.5426C205.367 38.5046 206.915 42.5315 207.424 46.8832V46.8615Z" fill="black"/>
<path d="M179.322 275.324C178.932 274.458 178.109 274.155 177.232 274.555C176.312 274.966 175.988 275.713 176.334 276.698C176.713 277.77 177.124 278.842 177.416 279.946C178.337 283.388 178.055 286.658 175.923 289.645C175.479 290.273 175.165 290.739 174.634 289.624C173.26 286.777 170.066 285.348 167.003 286.073C163.874 286.82 162.933 289.483 164.979 291.973C166.57 293.921 168.67 295.014 171.149 295.339C171.733 295.415 172.112 295.469 171.961 296.238C170.943 301.152 168.767 305.374 164.74 308.492C162.229 310.44 159.393 310.819 156.34 310.04C155.604 309.856 155.323 309.563 155.528 308.73C155.885 307.203 156.318 305.634 156.286 304.086C156.243 301.867 156.113 299.561 155.463 297.472C154.5 294.376 151.588 293.845 149.217 296.075C148.763 296.508 148.351 296.995 147.994 297.515C144.996 301.932 145.818 307.041 150.159 310.538C150.895 311.133 151.003 311.555 150.505 312.356C148.167 316.188 144.996 319.035 140.763 320.583C135.902 322.369 131.648 321.33 127.957 317.725C127.275 317.054 127.188 316.719 128.033 316.047C131.93 312.984 134.376 308.979 135.221 304.075C135.589 301.91 135.534 299.712 133.553 298.273C131.616 296.866 129.559 297.45 127.621 298.424C121.635 301.412 119.221 307.799 121.711 314.142C122.133 315.225 121.917 315.56 120.845 315.744C115.606 316.654 110.799 315.636 106.545 312.421C101.371 308.513 99.6062 301.629 102.161 295.664C103.471 292.611 105.506 290.078 107.692 287.621C108.959 286.203 110.41 285.586 112.271 285.358C118.095 284.666 123.919 283.94 129.711 282.988C132.168 282.587 134.625 281.819 136.909 280.823C139.745 279.567 140.709 277.164 139.919 274.155C139.572 272.791 139.096 271.427 138.446 270.182C133.467 260.742 128.444 251.325 123.421 241.907C123.237 241.56 123.032 241.214 122.783 240.911C122.198 240.207 121.44 240.077 120.661 240.51C119.86 240.954 119.643 241.701 119.936 242.546C120.087 242.989 120.379 243.379 120.596 243.79C125.5 253.003 130.436 262.204 135.296 271.438C135.935 272.639 136.303 273.992 136.704 275.313C137.007 276.298 136.628 277.153 135.729 277.629C134.798 278.117 133.824 278.658 132.807 278.842C128.715 279.61 124.612 280.444 120.477 280.92C111.579 281.949 102.8 283.486 94.1395 285.792C87.1466 287.653 80.0562 289.136 73.0091 290.804C68.928 291.767 65.6805 290.598 63.4831 286.961C61.6969 283.995 59.835 281.061 58.2546 277.987C54.5632 270.766 51.0126 263.459 47.4079 256.196C47.1914 255.774 47.0398 255.2 46.6826 255.005C46.1197 254.702 45.3728 254.442 44.7991 254.561C43.9872 254.735 43.6624 255.514 43.8681 256.347C43.9872 256.835 44.247 257.289 44.4526 257.755C44.9506 258.88 45.4594 260.017 45.9573 261.143C44.9181 260.515 43.8681 259.92 42.8505 259.249C39.5922 257.084 36.2798 257.062 32.9456 259.01C30.943 260.179 28.9837 261.435 27.0244 262.68C23.9392 264.661 20.8757 266.675 17.7798 268.634C17.4659 268.84 16.7947 268.948 16.5674 268.764C14.4132 266.988 12.1832 265.289 10.2564 263.286C8.11303 261.067 7.13878 258.199 7.04135 255.103C6.95475 252.18 7.73415 249.647 10.4729 248.066C11.2848 247.601 11.5987 247.644 11.6528 248.694C11.7935 251.455 12.9193 253.814 14.9869 255.644C17.5633 257.928 20.4752 257.105 21.5577 253.858C22.7809 250.188 21.417 245.219 17.2277 244.05C16.7839 243.931 16.4916 243.747 16.9246 243.249C18.9056 240.954 23.9284 239.017 27.1218 241.939C28.3775 243.087 29.3409 244.581 30.3043 246.01C30.9863 247.027 31.7657 247.59 32.9998 247.579C34.9699 247.568 36.9401 247.622 38.9102 247.59C39.8087 247.568 40.4582 247.687 40.8263 248.683C41.1835 249.625 42.1794 249.939 42.9804 249.517C43.814 249.073 44.182 248.38 43.8356 247.449C43.4567 246.453 43.0887 245.457 42.634 244.494C42.2552 243.693 42.4284 243.444 43.2944 243.271C59.0556 240.153 74.806 236.992 90.5565 233.853C94.4968 233.063 98.4371 232.283 102.367 231.482C103.471 231.255 104.012 230.508 103.871 229.577C103.731 228.657 102.984 228.148 101.858 228.235C101.782 228.094 101.663 227.975 101.49 227.878C100.873 227.531 100.169 227.131 99.433 226.763C99.119 226.524 98.8159 226.265 98.5345 225.983C98.5128 225.821 98.4587 225.658 98.3505 225.496C97.701 224.522 96.7267 223.991 95.6767 223.905C95.6009 223.807 95.5143 223.721 95.3736 223.677C94.5401 223.407 94.0746 223.807 93.4792 224.316C93.4359 224.316 93.3926 224.327 93.3385 224.338C79.818 226.979 66.2867 229.588 52.7771 232.294C48.6528 233.128 44.5393 234.091 40.5123 235.293C36.9617 236.364 36.1715 238.562 37.7195 241.885C38.8236 244.288 38.8236 244.158 36.1282 244.288C34.1256 244.386 32.9023 243.801 31.7441 242.037C26.2017 233.658 16.156 237.23 13.1467 242.686C12.7028 243.498 12.1075 243.834 11.2739 244.083C7.13878 245.338 4.51912 248.023 3.83714 252.364C3.07939 257.116 4.31344 261.414 7.34445 265.062C8.95738 267.01 11.0141 268.612 12.9193 270.301C13.5147 270.831 13.7096 271.048 12.876 271.492C11.3064 272.325 9.72596 273.148 8.26458 274.133C6.5001 275.313 4.74644 276.536 3.17682 277.954C0.741184 280.173 0.102507 282.977 1.41234 286.03C2.21339 287.902 3.06857 289.851 4.34592 291.399C7.04135 294.679 9.79091 297.98 12.941 300.795C20.367 307.452 27.9661 313.904 35.6411 320.28C38.3798 322.564 41.4541 324.469 44.4851 326.375C47.8842 328.518 51.4456 328.572 54.8663 326.396C59.7484 323.279 64.5872 320.107 69.361 316.849C71.0389 315.701 72.5111 314.229 74.0266 312.854C74.8818 312.075 74.9251 311.176 74.2864 310.451C73.6153 309.693 72.6952 309.693 71.7642 310.44C71.5802 310.592 71.407 310.754 71.2338 310.916C65.7671 315.993 59.4886 319.912 53.0477 323.614C50.7745 324.913 48.5337 324.956 46.3362 323.592C44.0305 322.164 41.6381 320.81 39.5381 319.1C33.0106 313.763 26.5372 308.351 20.1829 302.808C16.4808 299.572 12.9085 296.162 9.54193 292.579C7.73415 290.663 6.29442 288.314 5.03872 285.976C3.45827 283.031 3.88044 281.483 6.5434 279.426C8.28623 278.084 10.1914 276.958 12.0642 275.8C17.2277 272.617 22.4129 269.478 27.5873 266.296C30.0012 264.813 32.3827 263.254 34.8184 261.803C36.821 260.602 38.8453 260.645 40.8263 261.966C43.316 263.622 45.8599 265.213 48.3172 266.923C48.9559 267.367 49.5296 268.049 49.8868 268.753C51.3915 271.697 52.6905 274.75 54.2601 277.662C56.436 281.667 58.6659 285.662 61.1232 289.504C63.5372 293.272 67.0986 294.993 71.6451 294.397C72.1864 294.322 72.7817 294.354 73.2797 294.159C76.0076 293.142 77.8479 294.549 79.5799 296.346C79.8505 296.627 80.1319 296.909 80.3809 297.212C82.2537 299.431 82.2753 300.903 80.2294 302.982C79.1036 304.118 77.7504 305.038 76.4839 306.034C75.6071 306.727 75.3581 307.626 75.8994 308.394C76.5056 309.228 77.3283 309.39 78.1834 308.87C80.4675 307.496 82.5351 305.872 84.0073 303.599C85.4903 301.325 85.5878 298.987 84.1156 296.714C83.347 295.534 82.3511 294.506 81.3876 293.466C80.933 292.979 80.8464 292.763 81.5717 292.568C88.6296 290.76 95.6767 288.942 102.735 287.134C102.919 287.091 103.135 287.134 103.373 287.134C102.183 288.952 100.948 290.598 99.9634 292.373C95.9148 299.658 97.0298 308.34 102.886 313.742C108.537 318.97 115.248 320.572 122.728 318.678C123.692 318.44 124.19 318.591 124.818 319.317C129.418 324.61 135.87 326.169 142.376 323.549C147.236 321.601 150.906 318.267 153.482 313.72C153.807 313.136 154.067 312.832 154.835 313.081C160.194 314.803 164.794 313.395 168.659 309.487C172.404 305.699 174.624 301.109 175.316 295.815C175.425 294.949 175.695 294.322 176.453 293.77C177.297 293.153 178.055 292.351 178.651 291.485C182.277 286.235 181.682 280.79 179.246 275.313L179.322 275.324ZM171.17 291.897C170.142 291.475 169.146 290.955 168.172 290.414C167.901 290.262 167.771 289.873 167.577 289.602C167.912 289.461 168.259 289.32 168.378 289.266C170.077 289.32 171.268 290.1 171.701 291.237C171.928 291.821 171.787 292.146 171.17 291.897ZM16.221 247.254C17.8014 247.796 18.6133 249.084 18.8298 251.26L17.888 253.403C17.3251 252.894 16.5349 252.483 16.2318 251.855C15.6689 250.675 15.3117 249.376 15.0302 248.099C14.8137 247.135 15.3766 246.973 16.221 247.265V247.254ZM125.922 313.471C125.37 313.915 125.164 313.677 124.915 313.136C122.793 308.513 125.056 302.906 129.765 301.131C131.464 300.492 132.038 300.903 131.973 303.263C131.453 307.117 129.364 310.667 125.922 313.471ZM152.508 307.03C152.411 307.691 152.205 307.853 151.62 307.366C149.109 305.244 148.968 301.044 151.317 298.706C151.924 298.1 152.346 298.132 152.508 298.987C152.757 300.254 152.93 301.531 153.125 302.7C152.909 304.237 152.703 305.623 152.497 307.019L152.508 307.03Z" fill="#FFCE1F"/>
<path d="M75.2395 214.649C74.6008 213.978 73.843 213.924 73.1069 214.465C72.5332 214.888 72.0244 215.375 71.494 215.851C64.252 222.194 56.1766 226.763 46.3691 227.639C42.2339 228.008 38.1637 227.715 34.2559 226.243C26.5701 223.353 22.8138 217.367 21.3849 209.616C21.1793 208.49 21.0494 207.343 20.8762 206.119C21.1468 206.195 21.2442 206.195 21.2875 206.238C21.4499 206.412 21.5906 206.596 21.7422 206.78C24.9355 210.579 29.0382 212.593 33.9744 212.82C40.686 213.123 46.6397 210.742 52.3229 207.494C53.5136 206.812 53.8167 205.86 53.2646 204.961C52.7017 204.052 51.8141 203.976 50.5692 204.615C48.7506 205.546 46.9537 206.541 45.0593 207.31C41.0757 208.912 36.973 209.941 32.6105 209.324C25.8665 208.371 20.4756 201.789 21.1684 195.154C21.3416 193.497 21.6447 191.863 21.937 190.228C21.4499 188.388 20.7896 185.866 20.1834 183.463C19.6746 185.411 19.1225 187.338 18.7112 189.297C17.174 196.777 16.6544 204.29 18.3756 211.813C20.5298 221.242 26.018 227.65 35.5441 230.205C40.5452 231.547 45.6113 231.396 50.6666 230.432C58.9045 228.863 65.9299 224.879 72.2734 219.553C73.3018 218.687 74.3301 217.821 75.2719 216.879C75.9431 216.197 75.9106 215.364 75.2395 214.66V214.649Z" fill="black"/>
<path d="M115.238 263.037C114.501 260.309 113.051 258.047 110.496 256.683C107.92 255.308 105.527 255.947 103.341 257.646C102.767 258.09 102.529 258.177 102.442 257.311C102.356 256.445 102.183 255.601 101.999 254.745C101.49 252.353 100.959 249.961 99.4871 247.926C98.069 245.955 96.0339 245.414 93.8689 246.464C93.1003 246.832 92.3859 247.363 91.7255 247.915C91.0327 248.478 90.4374 249.149 89.8095 249.777C89.2033 249.116 88.6188 248.424 87.9801 247.785C85.3063 245.165 82.1562 244.559 79.0061 246.053C78.4108 246.334 77.718 246.962 77.2633 246.821C76.7978 246.67 76.5705 245.761 76.2349 245.198C74.0916 241.701 70.8332 241.376 68.2569 244.559C67.2285 245.826 66.3733 247.298 65.713 248.792C63.2882 254.28 62.8552 260.05 63.6454 265.928C63.8727 267.606 64.1759 269.273 64.5439 270.918C64.7604 271.892 65.4965 272.379 66.5141 272.152C67.4667 271.936 67.8455 271.254 67.7481 270.29C67.7156 270.02 67.6507 269.749 67.6182 269.478C67.3043 266.707 66.8172 263.936 66.7197 261.154C66.5465 256.467 67.4991 251.974 69.9672 247.915C70.4652 247.092 71.3853 246.529 72.0998 245.847C72.7276 246.648 73.4313 247.417 73.9617 248.283C74.3622 248.932 74.622 249.647 74.0158 250.47C72.3054 252.754 71.3745 255.395 70.9198 258.177C70.5193 260.602 70.3569 263.048 71.1472 265.43C71.4827 266.436 72.0889 267.27 73.2472 267.443C74.4596 267.627 75.3581 267.053 75.921 266.09C76.5056 265.072 77.036 264.001 77.3932 262.886C78.5731 259.238 78.8654 255.492 78.3675 251.682C78.3025 251.216 78.4541 250.545 78.7788 250.231C81.0304 248.077 83.596 248.142 85.761 250.361C86.3022 250.924 86.7244 251.606 87.2115 252.212C87.7419 252.873 87.7095 253.511 87.3631 254.28C85.5769 258.199 84.9166 262.334 85.3063 266.61C85.3929 267.606 85.6527 268.656 86.0965 269.543C86.9084 271.178 88.8028 271.438 90.0152 270.063C90.6972 269.283 91.2384 268.309 91.5957 267.335C93.122 263.091 93.2627 258.794 91.9529 254.464C91.8121 253.988 91.7255 253.284 91.9637 252.938C92.6781 251.92 93.4792 250.924 94.421 250.091C95.7308 248.932 96.5968 249.095 97.2138 250.718C97.9175 252.537 98.4695 254.453 98.8268 256.369C99.3788 259.335 99.8335 262.29 99.119 265.376C98.7293 267.075 99.0324 268.969 99.2381 270.756C99.4005 272.141 100.288 272.845 101.284 272.791C102.345 272.737 103.049 271.903 103.135 270.442C103.2 269.338 103.146 268.233 103.146 267.129C103.146 266.458 103.233 265.776 103.146 265.116C102.821 262.799 104.088 261.295 105.755 260.05C107.173 258.989 108.634 258.989 109.782 260.331C110.723 261.424 111.709 262.788 111.903 264.152C112.217 266.242 111.925 268.439 111.784 270.582C111.709 271.773 112.066 272.585 113.029 272.802C114.003 273.018 114.761 272.498 115.053 271.319C115.735 268.569 115.952 265.787 115.216 263.016L115.238 263.037ZM74.4813 261.273C74.3081 261.251 74.1457 261.219 73.9617 261.186C74.2215 259.573 74.4813 257.971 74.7411 256.358C74.9143 256.391 75.0767 256.412 75.2607 256.445C75.0009 258.058 74.7411 259.66 74.4813 261.273ZM88.976 264.888C88.8028 264.867 88.6404 264.845 88.4564 264.823C88.6512 263.102 88.8569 261.381 89.0518 259.649C89.2141 259.671 89.3873 259.682 89.5497 259.703C89.3549 261.435 89.16 263.156 88.9652 264.888H88.976Z" fill="black"/>
<path d="M185.309 243.422C183.902 243.325 182.473 243.282 181.065 243.422C179.463 243.574 177.915 244.137 176.941 245.479C176.162 246.551 175.74 246.388 174.863 245.598C171.929 242.979 168.346 242.416 165.521 244.191C164.46 244.862 164.005 244.624 163.247 243.812C160.108 240.435 156.471 240.164 153.418 243.13C150.073 246.388 148.374 250.599 146.913 254.919C146.62 255.785 147.097 256.477 147.941 256.78C148.785 257.084 149.511 256.813 149.954 256.023C150.149 255.687 150.257 255.297 150.398 254.929C151.535 251.974 152.78 249.084 154.782 246.605C157.023 243.834 158.809 243.834 161.158 246.518C161.212 246.583 161.256 246.637 161.31 246.702C161.894 247.265 161.916 247.796 161.526 248.575C159.589 252.385 159.459 256.282 161.223 260.19C161.873 261.63 162.771 262.929 164.601 262.897C165.965 262.875 167.036 261.63 167.523 259.606C168.368 256.12 167.935 252.721 166.69 249.398C166.073 247.774 166.333 247.114 168.054 246.778C168.931 246.605 170.024 246.648 170.793 247.038C173.304 248.272 175.361 249.939 174.809 253.62C175.047 255.254 175.317 257.278 175.642 259.303C175.805 260.309 176.378 261.002 177.461 260.97C178.532 260.926 179.03 260.234 179.171 259.205C179.561 256.434 179.463 253.717 178.63 251.022C178.099 249.3 179.117 247.309 180.871 246.962C182.159 246.702 183.523 246.724 184.854 246.778C186.132 246.832 186.943 246.453 187.117 245.447C187.301 244.397 186.608 243.552 185.309 243.455V243.422ZM164.135 258.263C163.247 256.153 163.161 253.825 163.832 252.169C164.633 253.49 164.817 256.856 164.135 258.263Z" fill="black"/>
<path d="M119.578 133.787C119.426 134.274 119.275 134.761 119.113 135.237C117.348 140.26 116.222 145.369 116.666 150.749C116.926 153.964 117.987 156.887 119.654 159.615C121.635 162.873 124.146 165.688 127.015 168.199C127.253 168.405 127.502 168.611 127.729 168.816C128.628 169.65 128.79 170.538 128.195 171.295C127.556 172.096 126.495 172.215 125.597 171.349C123.551 169.39 121.548 167.387 119.611 165.32C118.993 164.67 118.788 164.638 118.301 165.406C115.291 170.213 112.249 174.997 109.218 179.793C109.089 179.988 108.97 180.193 108.84 180.388C108.039 181.622 107.129 181.958 106.22 181.384C105.311 180.81 105.224 179.869 106.036 178.591C109.511 173.103 112.996 167.615 116.46 162.116C116.634 161.845 116.72 161.325 116.58 161.087C111.654 152.784 112.758 144.222 115.486 135.627C115.908 134.306 115.995 133.321 114.977 132.239C114.09 131.297 114.22 130.279 115.021 129.651C115.843 129.002 116.828 129.208 117.63 130.301C118.398 131.351 119.08 132.466 119.805 133.559L119.589 133.765L119.578 133.787Z" fill="black"/>
<path d="M46.4453 40.7887C44.5293 41.1784 42.5808 41.4382 40.7189 42.0228C39.5931 42.38 38.608 43.2027 37.6013 43.8739C37.3523 44.0362 37.2549 44.4151 37.0817 44.6966C37.374 44.7507 37.6879 44.8806 37.9693 44.8373C39.7988 44.5991 41.6282 44.3393 43.4576 44.0687C44.118 43.9713 44.7891 43.6898 45.4278 43.7656C45.9041 43.8197 46.6943 44.296 46.7051 44.61C46.7268 45.0754 46.2397 45.9306 45.8716 45.9847C42.819 46.4935 39.7446 46.894 36.6595 47.2296C35.6853 47.3379 34.7435 46.9265 34.2997 45.9631C33.845 44.9672 34.094 43.9172 34.8517 43.2244C36.0858 42.0877 37.3631 40.9186 38.8245 40.15C41.8339 38.5588 45.1463 38.3531 48.4913 38.6887C49.2707 38.7644 49.9202 39.0567 49.8769 39.966C49.8227 40.9511 49.1083 41.1243 48.2748 41.1026C47.6902 41.081 47.0948 41.1026 46.4995 41.1026C46.4778 41.0052 46.467 40.897 46.4453 40.7995V40.7887Z" fill="black"/>
<path d="M58.2654 81.3501C56.3819 81.3501 55.1695 80.0619 55.5592 78.2C56.2412 74.9308 58.0273 72.3436 60.9068 70.6116C62.0109 69.9513 63.2774 69.908 64.4249 70.4709C64.8362 70.6657 65.3234 71.4776 65.2043 71.7807C65.0311 72.2137 64.2517 72.7875 63.8728 72.7009C62.3357 72.3328 61.3073 73.0473 60.4954 74.0973C59.6402 75.2123 58.9474 76.4571 58.2546 77.6804C58.0922 77.9618 58.2005 78.4056 58.1897 78.7737C58.5685 78.7304 59.034 78.817 59.3047 78.6221C60.3763 77.8319 61.3831 76.9659 62.4006 76.1107C62.6712 75.8834 62.8769 75.4721 63.1692 75.4071C63.5805 75.3205 64.2084 75.3313 64.4465 75.5803C64.728 75.8834 64.8904 76.5437 64.7496 76.9334C64.046 78.9252 60.4088 81.3501 58.2871 81.3392L58.2654 81.3501Z" fill="black"/>
<path d="M68.5493 28.3508C68.7982 28.4374 69.3936 28.5456 69.8916 28.8271C71.9591 29.9745 72.8793 31.8689 73.1824 34.1205C73.2798 34.8133 73.0308 35.4087 72.2731 35.5494C71.4828 35.701 71.104 35.2463 70.8117 34.521C70.357 33.4169 69.7833 32.3668 69.1771 31.3385C69.0472 31.1111 68.5709 31.0895 68.257 30.9704C68.1704 31.2952 67.9431 31.674 68.0297 31.9338C68.4627 33.222 68.9065 34.521 69.491 35.7443C69.8591 36.5128 70.2596 37.2165 69.4044 37.8118C68.5493 38.4072 67.9431 37.866 67.4559 37.1515C66.1245 35.1705 65.2584 33.0596 65.659 30.6132C65.8971 29.1518 66.8606 28.3291 68.5493 28.3508Z" fill="black"/>
<path d="M137.387 87.1089C137.051 86.7842 136.477 86.6326 135.99 86.5352C134.107 86.178 132.212 85.8749 130.231 85.5393C128.651 85.8532 127.006 86.0481 125.447 86.5244C124.137 86.9249 123.661 88.0182 124.029 89.0899C124.364 90.1075 126.508 91.623 127.579 91.558C129.3 91.4498 131.032 91.3632 132.743 91.1575C134.215 90.9843 135.709 90.7678 137.127 90.3348C137.711 90.1616 138.448 89.3822 138.491 88.8301C138.534 88.278 137.885 87.5852 137.387 87.0981V87.1089ZM127.341 89.1332C127.146 89.144 126.941 88.9925 126.746 88.9167C126.93 88.7652 127.125 88.4945 127.319 88.4729C129.181 88.3538 131.032 88.2672 132.894 88.1806C132.894 88.343 132.916 88.5054 132.927 88.6677C131.065 88.8193 129.214 88.9817 127.352 89.1116L127.341 89.1332Z" fill="black"/>
<path d="M135.199 63.3265C135.805 64.0409 136.531 64.6904 136.974 65.4915C137.267 66.0219 137.407 66.8987 137.169 67.4075C136.953 67.873 136.152 68.2735 135.578 68.3168C133.705 68.4467 132.958 66.9637 132.233 65.6105C131.952 65.0909 131.854 64.6796 131.107 64.8961C130.934 64.9502 130.404 64.4198 130.328 64.0842C130.068 62.9368 130.761 61.8976 131.908 61.5295C134.82 60.5877 137.592 61.2481 140.298 62.3522C140.59 62.4713 140.763 62.8935 140.98 63.1857C140.601 63.3048 140.222 63.5538 139.854 63.5321C138.306 63.4131 136.758 63.2074 135.21 63.0342C135.199 63.1316 135.188 63.2399 135.178 63.3373L135.199 63.3265Z" fill="black"/>
<path d="M115.931 69.1394C114.015 66.6064 111.277 66.0435 108.343 65.9785C107.986 65.9785 107.564 66.1517 107.26 66.3682C106.47 66.9419 106.481 68.2409 107.293 68.6631C107.488 68.7605 108.105 68.5549 108.126 68.4141C108.365 67.1584 109.274 67.6131 109.988 67.6672C110.032 67.6672 110.086 67.7646 110.14 67.8837C110.053 67.992 109.999 68.1219 109.956 68.2518C109.75 68.6198 109.75 69.0203 109.88 69.3668C109.891 69.5183 109.934 69.659 109.999 69.7998C110.302 71.0338 111.461 71.9972 112.825 72.0189C115.238 72.0514 114.557 69.5941 114.502 69.1394H115.931Z" fill="black"/>
<path d="M138.555 69.356C138.62 69.356 138.685 69.3344 138.75 69.3344C138.685 69.3344 138.62 69.356 138.555 69.3668V69.356Z" fill="black"/>
<path d="M115.703 71.975C115.703 71.975 115.724 71.9855 115.703 71.954V71.975Z" fill="black"/>
<path d="M294.338 222.79C293.937 220.592 293.385 218.395 292.595 216.306C288.654 205.968 283.426 196.258 278.013 186.645C277.137 185.086 275.957 183.647 274.712 182.348C272.157 179.685 269.656 179.36 266.366 181.038C264.266 182.109 262.166 183.203 260.066 184.285C259.07 184.794 258.712 185.617 259.07 186.504C259.438 187.425 260.325 187.771 261.44 187.327C262.501 186.905 263.584 186.483 264.536 185.866C265.597 185.184 265.998 185.465 266.506 186.526C272.33 198.585 278.197 210.623 284.065 222.671C285.374 225.366 286.652 228.073 288.059 230.714C288.449 231.428 288.449 231.84 287.853 232.283C285.331 234.167 282.993 236.375 280.254 237.848C273.11 241.68 265.814 245.241 258.518 248.781C256.591 249.712 254.458 250.275 252.38 250.859C247.53 252.212 243.341 251.076 239.931 247.319C238.74 246.01 237.506 244.7 236.532 243.238C231.693 235.91 226.876 228.549 222.189 221.123C220.987 219.218 220.1 217.053 219.374 214.909C218.357 211.932 218.941 210.276 221.453 208.414C223.066 207.223 224.754 206.109 226.519 205.156C235.763 200.133 245.04 195.175 254.307 190.207C255.638 189.492 256.071 188.691 255.573 187.717C255.086 186.743 254.166 186.559 252.824 187.208C250.983 188.096 249.111 188.951 247.324 189.947C246.285 190.52 245.419 190.488 244.326 190.077C236.315 187.024 228.283 184.036 220.262 181.016C220.089 180.951 219.948 180.789 219.818 180.648C215.001 175.279 210.205 169.899 205.377 164.53C201.61 160.34 197.941 156.054 193.99 152.038C191.976 149.981 189.595 148.195 187.116 146.701C183.522 144.525 179.939 145.012 176.745 147.783C175.912 148.509 175.057 149.245 174.418 150.132C172.459 152.849 170.467 155.545 168.746 158.413C163.907 166.446 159.187 174.554 154.457 182.651C153.991 183.452 153.71 183.571 153.049 182.835C151.22 180.821 149.401 178.786 147.431 176.924C145.201 174.813 142.928 172.724 140.46 170.927C137.223 168.567 133.478 167.994 129.537 168.654C125.164 169.39 121.213 171.263 117.338 173.298C110.637 176.816 103.979 180.399 97.3004 183.961C96.9215 184.166 96.5426 184.339 95.8715 184.675C96.9323 180.475 97.9174 176.632 98.87 172.778C99.9633 168.34 100.97 163.88 100.667 159.247C100.407 155.188 98.6319 152.081 94.8864 150.306C93.2951 149.548 91.6389 148.866 89.9394 148.411C76.3648 144.731 63.0392 140.271 49.8218 135.475C45.7624 134.003 41.5407 132.975 37.3297 131.979C35.1864 131.47 33.1405 132.119 31.7765 134.025C30.1094 136.341 29.8063 139.058 29.8713 141.797C29.8713 142.273 30.4667 142.977 30.943 143.15C31.4193 143.323 32.3069 143.139 32.61 142.771C33.1838 142.089 33.6709 142.187 34.342 142.414C38.921 144.005 43.5 145.564 48.079 147.134C64.0567 152.611 80.0345 158.089 96.023 163.555C96.8674 163.848 97.2571 164.129 97.0189 165.125C96.4885 167.344 96.1529 169.607 95.6117 171.826C94.2802 177.26 92.7106 182.629 91.5523 188.096C90.1667 194.645 89.095 201.248 87.9151 207.83C87.5037 210.146 86.1398 211.64 83.9098 212.138C82.3619 212.484 80.7056 212.625 79.1143 212.539C74.8926 212.3 70.8982 210.991 67.0986 209.226C59.2071 205.556 51.4239 201.67 43.5541 197.946C40.4257 196.463 38.304 194.407 38.1849 190.726C38.1524 189.752 37.4705 189.232 36.5179 189.265C35.4895 189.308 34.9266 189.925 34.9482 190.964C35.0132 194.104 35.9658 196.875 38.5746 198.823C39.6138 199.592 40.7396 200.263 41.8979 200.848C47.3862 203.608 52.842 206.444 58.4277 209.02C62.8552 211.056 67.38 212.939 71.9807 214.53C76.4947 216.089 81.1711 216.76 85.8908 215.093C86.1614 214.996 86.6702 215.288 86.9408 215.548C91.5848 219.867 96.088 224.36 100.894 228.495C105.311 232.294 109.998 235.78 114.664 239.276C117.835 241.647 121.462 242.567 125.402 241.701C127.394 241.268 129.364 240.684 131.313 240.056C132.2 239.774 132.601 239.839 132.991 240.77C135.513 246.886 138.111 252.97 140.676 259.075C142.755 264.022 144.844 268.937 147.983 273.354C151.036 277.64 155.052 279.459 160.324 278.874C168.659 277.943 177.016 277.207 185.362 276.352C186.185 276.266 186.553 276.471 186.813 277.272C187.7 280.054 189.097 282.577 191.337 284.493C192.344 285.359 192.799 286.149 192.366 287.48C192.16 288.119 192.279 288.898 192.377 289.58C192.734 291.854 194.044 293.586 195.765 294.96C201.61 299.626 208.235 302.137 215.77 301.78C219.991 301.574 223.423 299.702 225.577 295.924C226.01 295.166 226.335 295.296 226.919 295.675C228.835 296.92 230.968 297.558 233.241 297.818C242.702 298.901 251.157 291.908 253.603 284.125C253.895 283.194 254.372 282.88 255.259 282.609C263.649 280.098 269.278 274.707 271.432 266.166C272.947 260.147 271.367 254.366 268.996 248.802C268.639 247.958 268.769 247.709 269.516 247.33C273.38 245.371 277.245 243.412 281.044 241.333C284.411 239.493 287.572 237.35 290.278 234.6C293.526 231.309 295.149 227.434 294.305 222.79H294.338ZM223.401 186.32C223.315 186.104 223.239 185.887 223.055 185.368C225.88 186.461 228.435 187.457 231 188.453C234.194 189.698 237.387 190.932 240.57 192.177C240.905 192.307 241.208 192.545 241.522 192.729C241.241 192.924 240.97 193.151 240.667 193.324C234.735 196.669 228.781 199.992 222.871 203.359C221.637 204.063 220.457 204.853 219.342 205.719C215.802 208.447 214.817 211.434 216.04 215.721C216.43 217.074 217.004 218.384 217.556 219.683C217.794 220.246 217.772 220.571 217.253 220.96C211.288 225.355 205.334 229.75 199.402 234.178C198.774 234.643 198.482 234.513 198.157 233.886C197.648 232.911 197.042 231.98 196.533 231.006C195.613 229.263 194.293 227.975 192.398 227.336C191.716 227.109 191.597 226.752 191.781 226.092C194.13 217.756 196.458 209.421 198.763 201.075C199.002 200.198 199.521 200.144 200.236 200.09C205.15 199.689 210.043 199.148 214.763 197.676C216.776 197.048 218.779 196.225 220.576 195.132C224.072 193.01 224.884 190.12 223.39 186.31L223.401 186.32ZM178.845 203.911C177.969 202.818 176.94 201.833 175.803 200.62H177.416C183.056 200.588 188.685 200.577 194.325 200.49C195.299 200.48 195.451 200.685 195.191 201.605C192.95 209.518 190.742 217.453 188.545 225.377C188.371 226.016 188.198 226.34 187.386 226.362C183.1 226.449 178.802 226.492 174.526 226.806C169.969 227.142 165.444 227.769 160.897 228.267C160.627 228.3 160.356 228.267 159.988 228.083C160.335 227.878 160.67 227.65 161.017 227.455C165.823 224.738 170.607 221.956 174.732 218.254C176.475 216.685 178.098 214.898 179.387 212.961C181.476 209.832 181.173 206.845 178.824 203.9L178.845 203.911ZM156.892 185.043C162.142 176.21 167.327 167.333 172.632 158.522C174.007 156.238 175.684 154.127 177.276 151.983C177.763 151.334 178.423 150.793 179.04 150.251C180.978 148.552 183.197 148.184 185.362 149.569C187.527 150.966 189.714 152.481 191.489 154.322C195.722 158.717 199.716 163.339 203.808 167.864C208.051 172.573 212.36 177.227 216.527 182.012C217.913 183.603 219.082 185.422 220.1 187.273C221.366 189.59 220.879 191.04 218.616 192.437C215.575 194.32 212.132 195.045 208.679 195.641C200.539 197.048 192.312 197.308 184.074 197.059C179.982 197.059 175.879 197.07 171.787 197.048C171.344 197.048 170.802 196.929 170.456 196.68C165.996 193.367 161.579 190.023 157.119 186.699C156.416 186.18 156.47 185.736 156.881 185.032L156.892 185.043ZM126.149 238.042C125.045 238.41 123.833 238.454 122.674 238.659C120.369 238.659 118.377 237.783 116.623 236.484C112.726 233.604 108.764 230.79 105.105 227.629C99.9201 223.158 94.9947 218.373 89.9394 213.751C89.3007 213.166 89.2141 212.755 89.777 212.008C91.1193 210.244 91.2384 208.068 91.6281 205.979C92.5699 200.75 93.5658 195.532 94.5292 190.315C94.6807 189.503 95.0055 188.929 95.8065 188.507C103.2 184.632 110.561 180.681 117.944 176.794C121.527 174.9 125.164 173.103 129.158 172.161C133.034 171.252 136.595 171.901 139.605 174.434C142.43 176.816 145.104 179.392 147.648 182.077C151.88 186.559 156.308 190.802 161.33 194.385C164.221 196.453 167.154 198.444 169.98 200.577C171.95 202.071 173.898 203.63 175.641 205.394C177.925 207.711 178.066 209.573 175.966 212.073C174.266 214.108 172.307 216.003 170.185 217.594C161.969 223.753 152.833 228.3 143.307 232.034C137.678 234.243 131.897 236.094 126.16 238.042H126.149ZM164.708 274.945C162.9 275.096 161.103 275.302 159.306 275.519C156.297 275.876 153.655 275.086 151.848 272.639C150.127 270.301 148.384 267.898 147.193 265.278C143.61 257.354 140.276 249.311 136.855 241.301C135.697 238.594 135.729 238.616 138.468 237.555C141.954 236.202 145.374 234.643 148.914 233.463C150.928 232.792 153.125 232.565 155.258 232.316C162.142 231.515 169.038 230.779 175.933 230.064C178.445 229.805 180.956 229.707 184.02 229.491C185.687 229.675 187.884 229.848 190.049 230.162C191.705 230.4 192.853 231.363 193.708 232.857C197.129 238.843 200.636 244.776 204.122 250.729C204.36 251.141 204.566 251.704 204.934 251.855C205.518 252.093 206.298 252.277 206.861 252.082C207.607 251.823 207.921 251.043 207.597 250.21C207.434 249.809 207.218 249.43 207.001 249.051C204.955 245.544 202.92 242.037 200.842 238.551C200.43 237.858 200.506 237.49 201.156 237.014C207.001 232.727 212.847 228.43 218.649 224.089C219.418 223.515 219.688 223.699 220.143 224.414C224.668 231.385 229.225 238.335 233.782 245.295C234.291 246.075 235.255 246.876 235.2 247.601C235.146 248.24 233.966 248.792 233.263 249.365C227.634 253.879 222.005 258.372 216.397 262.918C215.65 263.524 215.293 263.546 214.903 262.604C214.416 261.403 213.81 260.244 213.226 259.086C212.652 257.928 211.808 257.538 210.866 257.96C209.946 258.383 209.664 259.314 210.205 260.483C211.31 262.875 212.49 265.246 213.561 267.66C214.6 269.987 214.384 270.517 211.894 270.929C209.145 271.373 206.341 271.567 203.559 271.795C190.601 272.866 177.644 273.917 164.697 274.977L164.708 274.945ZM248.234 279.654C244.694 279.091 243.038 277.229 242.94 273.906C243.092 273.18 243.168 272.433 243.406 271.741C243.915 270.247 244.781 269.922 246.123 270.745C248.494 272.195 249.944 274.393 250.604 277.002C251.416 280.206 251.167 280.119 248.234 279.654ZM255.378 279.113C254.566 279.34 254.404 279.113 254.317 278.333C253.96 275.183 252.694 272.423 250.561 270.084C249.868 269.338 249.089 268.645 248.245 268.082C244.694 265.733 241.241 267.032 240.05 271.102C238.286 277.153 241.988 282.512 248.364 283.118C250.529 283.323 250.604 283.356 249.5 285.304C246.209 291.107 241.414 294.581 234.518 294.506C232.029 294.484 229.68 293.77 227.774 292.048C227.287 291.605 227.06 290.89 226.714 290.295C225.88 288.844 225.111 287.35 224.191 285.954C223.683 285.196 222.795 285.055 221.961 285.521C221.063 286.03 220.89 286.907 221.236 287.783C221.712 288.985 222.232 290.197 222.892 291.302C223.379 292.113 223.401 292.817 223.011 293.629C221.658 296.422 219.374 297.883 216.354 298.316C213.366 298.738 210.465 298.262 207.607 297.396C203.992 296.292 200.604 294.733 197.767 292.189C196.728 291.258 195.83 290.219 195.711 288.725C195.646 287.87 195.819 287.599 196.739 287.967C199.467 289.082 202.282 289.472 205.172 288.552C206.828 288.032 208.246 287.123 209.296 285.727C210.963 283.518 210.703 280.985 208.593 279.199C206.373 277.326 203.819 277.11 201.134 277.878C198.753 278.55 196.75 279.881 195.18 281.765C194.455 282.641 193.925 282.566 193.373 281.765C192.322 280.206 191.316 278.615 190.331 277.023C189.909 276.352 190.071 275.973 190.948 275.93C194.011 275.757 197.085 275.54 200.149 275.313C204.078 275.021 208.008 274.728 211.927 274.371C212.771 274.295 213.626 274.014 214.427 273.7C217.133 272.661 218.119 270.745 217.274 267.974C216.971 266.999 217.198 266.501 217.945 265.906C224.213 260.937 230.459 255.936 236.683 250.902C237.495 250.242 237.982 250.123 238.816 250.902C243.276 255.092 248.569 255.633 254.133 253.869C257.684 252.754 261.116 251.195 264.547 249.755C265.435 249.376 265.759 249.409 266.138 250.372C267.578 254.031 268.542 257.787 268.639 261.23C268.639 269.262 262.707 277.023 255.389 279.102L255.378 279.113ZM197.746 283.897C199.348 282.23 201.199 281.039 203.559 280.855C205.053 280.747 206.709 281.613 206.904 282.566C207.066 283.388 206.103 284.558 204.62 285.11C203.754 285.434 202.801 285.553 201.762 285.802C200.539 285.488 199.251 285.164 197.973 284.817C197.399 284.655 197.324 284.352 197.757 283.897H197.746Z" fill="#FFCE1F"/>
<path d="M256.353 206.087C256.526 204.799 256.559 203.489 256.883 202.244C257.695 199.18 260.964 197.221 264.147 197.752C266.756 198.195 269.051 201.248 268.921 204.149C268.888 205.004 268.434 205.578 267.6 205.719C266.767 205.87 266.106 205.546 265.803 204.734C265.576 204.149 265.489 203.51 265.262 202.926C264.883 201.952 264.45 201.021 263.151 201.032C261.895 201.042 260.466 201.757 260.272 202.893C260.001 204.539 260.055 206.238 260.088 207.916C260.088 208.1 260.78 208.393 261.17 208.436C266.171 208.912 269.289 213.783 267.611 218.514C266.94 220.398 265.749 221.339 263.746 221.404C263.01 221.426 262.913 221.621 263.064 222.314C263.801 225.572 263.508 228.744 261.917 231.72C261.008 233.42 259.806 234.86 257.966 235.639C256.158 236.397 254.383 236.148 252.943 234.979C251.622 233.907 250.529 232.532 249.436 231.212C249.035 230.735 248.851 230.573 248.245 230.919C245.301 232.641 242.811 231.645 241.718 228.343C240.018 223.255 242.27 217.237 246.968 214.357C248.202 213.599 248.223 213.524 247.043 212.647C245.095 211.185 242.908 210.59 240.483 210.969C238.849 211.229 237.658 212.116 237.258 213.708C236.911 215.104 236.781 216.565 236.673 218.016C236.565 219.315 236.078 220.062 235.082 220.116C234.032 220.181 233.306 219.467 233.339 218.081C233.371 216.555 233.436 214.985 233.794 213.513C234.887 209.01 238.665 206.769 243.493 207.592C246.383 208.089 248.895 209.302 250.778 211.608C251.179 212.095 251.406 212.051 251.904 211.705C253.127 210.861 254.383 210.038 255.703 209.367C256.407 209.01 256.764 208.696 256.624 207.884C256.515 207.31 256.537 206.704 256.505 206.119C256.45 206.119 256.407 206.108 256.353 206.098V206.087ZM260.12 225.529C259.958 222.519 259.038 219.802 256.743 217.745C255.985 217.063 254.957 216.641 254.004 216.208C253.452 215.948 253.105 216.165 253.279 216.879C254.123 220.419 253.473 223.732 251.806 226.914C251.612 227.282 251.503 227.921 251.698 228.213C252.521 229.491 253.333 230.811 254.394 231.872C255.584 233.052 256.743 232.868 257.879 231.623C259.449 229.913 259.979 227.802 260.109 225.539L260.12 225.529ZM247.66 218.113C245.095 219.845 243.688 224.706 245.062 227.553C245.225 227.878 245.864 228.246 246.167 228.17C247.195 227.91 247.671 226.968 247.498 225.918C247.433 225.496 247.336 225.063 247.347 224.63C247.433 222.454 247.541 220.278 247.65 218.103L247.66 218.113ZM264.84 216.132C264.602 213.783 263.259 212.051 261.365 211.932C261.127 211.922 260.618 212.322 260.65 212.419C261.051 213.881 261.408 215.386 262.047 216.739C262.318 217.312 263.238 217.572 263.866 217.984C264.19 217.367 264.515 216.749 264.851 216.132H264.84ZM257.49 213.21C257.23 212.939 257.024 212.549 256.84 212.56C256.537 212.571 256.234 212.852 255.942 213.015C256.32 213.253 256.689 213.513 257.078 213.718C257.111 213.74 257.295 213.459 257.5 213.21H257.49Z" fill="white"/>
<path d="M74.2768 174.878C73.7031 175.485 73.3133 176.069 72.7829 176.437C70.304 178.115 67.8034 179.76 65.2595 181.33C64.3935 181.861 64.3935 182.272 64.9023 183.073C67.1972 186.743 69.4272 190.456 71.6679 194.158C71.8953 194.526 72.1334 194.905 72.2633 195.305C72.5339 196.117 72.2741 196.799 71.538 197.232C70.8019 197.654 70.0767 197.546 69.5029 196.907C69.2215 196.593 68.9942 196.204 68.7777 195.836C66.5477 192.166 64.2961 188.518 62.0986 184.827C61.6331 184.058 61.2976 183.874 60.4857 184.426C58.2774 185.942 56.0041 187.36 53.7633 188.821C53.0272 189.297 52.1937 189.449 51.62 188.745C51.2628 188.301 51.0896 187.522 51.187 186.948C51.2628 186.515 51.8365 186.093 52.2803 185.801C54.4128 184.383 56.5454 182.965 58.7212 181.633C59.5656 181.114 59.6089 180.702 59.1001 179.89C57.1949 176.859 55.3546 173.785 53.4927 170.722C53.287 170.386 53.0705 170.05 52.9082 169.693C52.5076 168.816 52.6808 168.037 53.5035 167.539C54.3262 167.041 55.1273 167.193 55.6902 167.994C56.2964 168.86 56.8268 169.791 57.3789 170.689C58.8728 173.146 60.4207 175.571 61.8388 178.072C62.3801 179.024 62.7914 179.014 63.6249 178.44C66.0931 176.762 68.6045 175.117 71.1592 173.569C71.6788 173.255 72.5231 173.211 73.1185 173.395C73.5515 173.525 73.8005 174.24 74.2659 174.878H74.2768Z" fill="black"/>
<path d="M121.723 186.602C128.91 186.623 133.186 189.503 135.622 195.262C135.773 195.63 136.185 196.02 136.564 196.149C138.62 196.853 140.417 197.903 141.879 199.549C142.193 199.906 142.821 200.09 143.319 200.155C149.012 200.88 153.397 206.726 152.422 212.365C152.033 214.595 150.755 216.241 148.904 217.475C146.285 219.218 143.34 220.04 140.266 220.452C138.967 220.625 138.198 220.04 138.101 219.023C138.014 218.049 138.631 217.496 139.822 217.172C141.868 216.62 143.968 216.165 145.884 215.299C149.153 213.805 149.965 211.272 148.504 207.97C147.681 206.098 146.393 204.647 144.412 203.954C144.206 203.879 143.632 204.149 143.632 204.257C143.567 209.085 141.283 212.982 138.263 216.436C136.412 218.546 134.171 220.333 131.996 222.13C131.205 222.779 130.134 223.18 129.127 223.461C126.399 224.197 124.256 222.617 123.888 219.705C123.584 217.258 124.039 214.909 124.927 212.647C125.262 211.781 125.284 211.445 124.169 211.445C122.08 211.456 120.413 210.687 119.644 208.533C119.568 208.317 119.157 208.057 118.919 208.068C113.864 208.36 109.837 205.188 108.982 200.133C108.862 199.419 108.743 199.256 107.964 199.494C107.455 199.646 106.513 199.419 106.221 199.018C105.886 198.574 105.777 197.535 106.08 197.135C107.055 195.836 108.256 194.688 109.393 193.508C109.718 193.173 110.194 192.967 110.454 192.599C113.409 188.301 117.685 186.753 121.712 186.623L121.723 186.602ZM127.178 217.8C127.157 220.3 127.698 220.636 129.592 219.651C129.733 219.575 129.874 219.51 130.004 219.423C134.442 216.501 137.733 212.625 139.649 207.656C140.049 206.617 140.082 205.437 140.19 204.312C140.212 204.117 139.703 203.64 139.53 203.673C137.581 204.106 135.644 204.506 134.269 206.249C133.403 207.343 132.245 208.209 131.205 209.161C130.805 209.529 130.253 209.789 129.96 210.222C128.348 212.614 127.373 215.245 127.178 217.8ZM122.773 189.925C120.012 190.001 117.533 190.629 115.347 192.22C114.697 192.696 114.686 192.934 115.477 193.259C118.475 194.493 120.857 196.496 122.567 199.245C123 199.938 123.238 200.014 123.844 199.44C125.869 197.557 128.218 196.214 130.989 195.803C131.963 195.662 132.05 195.348 131.552 194.547C129.495 191.224 126.334 190.077 122.751 189.914L122.773 189.925ZM124.656 208.035C126.193 207.895 127.741 207.559 128.856 206.065C129.462 205.253 130.22 204.485 131.065 203.965C132.591 203.034 132.905 201.638 133.002 200.046C133.056 199.191 132.764 198.921 131.909 199.083C127.676 199.852 124.829 202.341 123.162 206.195C122.556 207.592 122.989 208.068 124.656 208.046V208.035ZM117.739 205.015C118.529 204.528 119.601 204.203 120.034 203.489C120.369 202.948 120.164 201.681 119.72 201.14C118.508 199.678 117.133 198.304 115.639 197.135C114.87 196.528 113.701 196.442 112.716 196.117C112.565 197.145 112.251 198.185 112.305 199.202C112.446 202.006 115.022 204.615 117.75 205.004L117.739 205.015ZM137.581 200.674C137.581 200.512 137.581 200.36 137.581 200.198C137.213 200.133 136.834 200.057 136.466 199.992C136.466 200.22 136.445 200.447 136.445 200.674H137.592H137.581Z" fill="white"/>
<path d="M178.727 167.42C179.062 165.58 179.322 163.707 179.777 161.888C180.08 160.676 180.805 159.647 182.212 159.431C183.663 159.214 184.605 160.037 185.341 161.131C187.203 163.902 188.014 167.063 188.502 170.31C189.064 174.034 189.129 177.758 188.198 181.438C187.841 182.835 187.376 184.285 185.622 184.394C183.912 184.502 183.067 183.354 182.44 181.904C180.437 177.281 178.986 172.54 178.737 167.398L178.727 167.42Z" fill="black"/>
<path d="M185.687 192.35C183.056 192.307 181.757 190.921 182.082 188.626C182.439 186.05 184.713 185.043 186.834 186.526C188.945 188.009 189.324 189.027 188.48 190.802C187.884 192.047 186.889 192.458 185.687 192.35Z" fill="black"/>
<path d="M45.1352 173.244C44.7563 172.67 44.9512 172.464 45.395 172.14C46.6399 171.241 47.1595 169.985 47.1811 168.47C47.2136 166.218 46.2827 164.378 44.6156 162.982C43.295 161.877 41.8444 160.871 40.3072 160.113C37.6118 158.803 34.8298 157.71 32.0586 156.573C29.6879 155.599 27.2956 154.711 24.9141 153.748C24.6867 153.661 24.546 153.38 24.362 153.185C24.6434 153.152 24.9249 153.066 25.2063 153.098C25.4337 153.12 25.6393 153.282 25.8558 153.369C28.5946 154.376 31.2792 155.545 34.072 156.313C36.3236 156.941 38.7051 157.342 41.0325 157.374C44.4641 157.418 46.2827 154.679 45.0919 151.464C44.6589 150.295 43.8146 149.201 42.9269 148.303C42.0284 147.404 40.9026 146.657 39.7552 146.073C36.2046 144.265 32.6648 142.447 29.0059 140.888C27.1548 140.097 25.0873 139.578 23.0846 139.448C18.3108 139.134 14.522 141.126 15.2148 147.329C15.4746 149.71 15.8427 152.092 16.2216 154.462C17.6396 163.285 19.0794 172.107 20.4974 180.929C20.5624 181.373 20.5624 181.871 20.4541 182.304C20.3567 182.683 20.2701 183.073 20.1619 183.452C20.7681 185.855 21.4284 188.377 21.9155 190.217C22.0454 189.514 22.1645 188.81 22.2836 188.106C22.3918 188.106 22.5001 188.096 22.6191 188.085C22.7923 188.41 22.9439 188.756 23.1279 189.07C23.9073 190.391 24.546 191.83 25.5311 192.989C26.9059 194.601 28.4863 196.03 30.0668 197.448C30.8786 198.174 31.8637 197.99 32.4699 197.232C33.0761 196.485 32.9571 195.597 32.1343 194.829C31.8745 194.591 31.5931 194.374 31.3116 194.147C28.7136 192.036 26.7435 189.449 25.6393 186.288C24.8491 184.025 24.3295 181.676 23.6367 179.382C23.312 178.321 23.8316 178.331 24.5677 178.516C27.1657 179.165 29.7745 179.75 32.3508 180.496C34.4617 181.114 36.5618 181.817 38.5861 182.672C39.6794 183.138 40.7078 183.874 41.5305 184.729C41.9418 185.151 42.0176 186.158 41.8444 186.786C41.747 187.132 40.8052 187.403 40.2315 187.414C39.2572 187.446 38.2613 187.338 37.2979 187.143C34.5916 186.602 31.907 185.974 29.2116 185.422C27.9667 185.162 27.1115 185.692 26.9275 186.699C26.7435 187.673 27.2739 188.41 28.4755 188.68C31.2034 189.308 33.9205 189.958 36.67 190.456C38.0881 190.715 39.5711 190.791 41.0217 190.737C44.1826 190.596 46.0337 188.106 45.2976 185.032C45.1136 184.242 44.6481 183.527 44.3775 182.748C44.2909 182.488 44.28 182.055 44.4316 181.882C46.9538 179.046 47.192 176.426 45.1027 173.2L45.1352 173.244ZM19.0794 150.814C18.8953 149.331 18.6464 147.859 18.5381 147.08C18.5056 143.778 19.3608 142.912 21.9588 142.793C24.1022 142.695 26.1156 143.215 28.01 144.103C31.3658 145.662 34.7107 147.253 37.9799 148.963C39.2139 149.602 40.3289 150.544 41.3248 151.529C41.7686 151.973 41.7795 152.871 41.9851 153.553C41.3464 153.737 40.6536 154.17 40.0583 154.073C37.8608 153.705 35.6308 153.315 33.5091 152.644C30.9652 151.843 28.508 150.76 26.029 149.753C24.0697 148.952 22.6841 149.418 21.6665 151.236C21.4609 151.604 21.0279 152.167 20.8005 152.124C20.0753 151.973 19.2093 151.864 19.0794 150.814ZM40.6861 179.349C39.2247 179.057 37.7958 178.613 36.3453 178.234C32.1993 177.152 28.0641 176.047 23.9073 175.008C23.1279 174.813 22.6733 174.532 22.565 173.677C22.3593 172.042 22.0454 170.418 21.7964 168.784C21.6124 167.593 21.6124 167.615 22.7923 168.037C25.7476 169.098 28.6812 170.256 31.6905 171.176C34.2019 171.945 36.7891 172.486 39.3546 173.038C41.1516 173.428 43.1218 175.517 43.1326 177.238C43.1434 178.916 42.3315 179.663 40.6753 179.327L40.6861 179.349ZM42.7862 169.596C42.299 169.888 41.7253 169.985 41.1516 170.007C40.8918 170.007 40.6428 170.007 40.3938 169.975C37.7958 169.736 35.5226 168.87 33.0545 168.08C29.309 166.889 25.6393 165.439 21.9372 164.107C21.2768 163.869 20.9196 163.544 20.833 162.787C20.6382 161.022 20.3026 159.279 20.0644 157.526C19.9995 157.104 20.1077 156.671 20.1186 156.238C20.1186 155.642 20.4325 155.621 20.8871 155.805C22.0887 156.292 23.312 156.746 24.5135 157.223C28.7894 158.944 33.087 160.6 37.3195 162.419C38.9325 163.111 40.448 164.075 41.8877 165.092C43.2517 166.056 44.7888 168.416 42.7862 169.585V169.596Z" fill="black"/>
<path d="M115.173 72.2571C114.827 72.3653 114.48 72.4519 114.166 72.6143C113.809 72.7983 113.409 72.9823 113.03 73.1014C112.792 73.1772 112.77 73.5993 113.051 73.6318C114.026 73.7293 114.967 73.3287 115.281 72.3545C115.303 72.3003 115.238 72.2246 115.184 72.2462L115.173 72.2571Z" fill="black"/>
<path d="M136.163 70.2328C135.643 70.1354 135.134 69.9514 134.626 69.7998C134.128 69.6591 133.532 69.4318 133.132 69.1178C133.067 69.0637 132.959 69.172 133.013 69.2369C133.457 69.7565 133.803 70.1354 134.452 70.3844C135.015 70.6117 135.611 70.5034 136.174 70.3194C136.217 70.3086 136.217 70.2436 136.174 70.2328H136.163Z" fill="black"/>
<path d="M122.805 59.397C120.911 58.8774 120.9 56.117 119.504 55.0345C119.19 54.7963 118.778 55.1427 118.789 55.4891C118.8 56.2036 119.114 56.8639 119.395 57.5134C119.666 58.1196 119.893 58.8016 120.326 59.2995C121.019 60.1006 121.95 60.447 122.816 59.7434C122.914 59.6676 122.968 59.4511 122.805 59.4078V59.397Z" fill="black"/>
</g>
<defs>
<clipPath id="clip0_1367_11854">
<rect width="293.748" height="328.02" fill="white" transform="translate(0.806641)"/>
</clipPath>
</defs>
</svg>
