<svg width="390" height="415" viewBox="0 0 390 415" fill="none" xmlns="http://www.w3.org/2000/svg">
<g clip-path="url(#clip0_1367_12034)">
<path d="M68.8109 353.224C68.6401 353.207 63.4308 358.419 43.6438 357.897C23.8569 357.375 15.0053 343.647 12.4007 336.695C9.79599 329.743 10.492 314.45 12.4007 306.801C14.3093 299.153 12.7465 290.636 8.58332 280.73C4.41585 270.823 -1.13508 263.004 2.50719 254.658C6.15372 246.317 15.5263 237.278 14.1385 225.983C12.7508 214.687 7.19559 204.259 11.7089 195.392C16.2223 186.529 37.3969 163.762 39.4807 160.979C41.5644 158.2 47.3203 140.598 46.2485 122.568C45.1768 104.539 48.6781 88.6597 58.0506 76.0685C67.4232 63.4774 75.4976 54.4391 87.4108 46.7903C99.3239 39.1415 112.206 37.4057 128.526 38.0983C144.842 38.7952 169.317 45.3965 171.571 51.4805C173.826 57.5644 168.967 62.0836 168.967 62.0836C168.967 62.0836 171.495 67.6459 170.577 71.9898C169.658 76.3336 176.64 122.739 176.64 122.739C176.64 122.739 185.427 126.284 191.866 133.689C198.306 141.094 196.909 150.547 196.909 150.547L68.8066 353.216L68.8109 353.224Z" fill="black"/>
<path d="M169.18 373.541C169.18 373.541 231.974 406.039 234.924 407.95C237.875 409.861 243.776 413.858 249.331 412.815C254.886 411.772 291.561 382.37 295.613 379.864C299.665 377.359 394.441 301.987 395.654 301.004C396.871 300.02 399.095 295.578 396.333 293.193C393.57 290.807 337.681 257.394 328.133 253.157C318.585 248.92 306.087 241.793 299.144 244.055C292.201 246.312 273.982 259.352 273.982 259.352C273.982 259.352 275.681 265.954 271.095 268.737C266.509 271.516 264.306 270.657 264.306 270.657C264.306 270.657 268.717 272.777 264.054 275.013C259.391 277.249 254.434 277.078 254.434 277.078L239.476 287.408C239.476 287.408 177.989 346.08 177.814 346.948C177.639 347.816 169.176 373.541 169.176 373.541H169.18Z" fill="#FFE380"/>
<path d="M296.829 272.106C296.684 272.966 296.594 273.876 296.705 274.731C296.867 275.98 296.351 276.489 295.206 276.737C294.259 276.942 293.319 277.258 292.435 277.66C290.488 278.545 288.473 279.345 286.684 280.499C284.455 281.935 284.203 283.68 285.65 285.86C286.129 286.583 285.894 286.75 285.245 286.904C283.588 287.305 281.923 287.673 280.283 288.139C279.284 288.426 278.776 289.298 279.198 290.183C279.485 290.786 280.462 291.572 280.979 291.474C284.472 290.807 287.935 289.982 291.368 289.058C291.91 288.913 292.546 288.058 292.606 287.476C292.666 286.899 292.162 286.138 291.697 285.672C291.24 285.21 290.492 285.052 289.916 284.689C289.48 284.411 289.118 284.018 288.725 283.676C289.118 283.342 289.455 282.876 289.907 282.697C292.674 281.619 295.454 280.572 298.251 279.58C300.049 278.943 300.535 278.203 300.416 276.305C300.335 275.001 300.249 273.641 300.535 272.393C300.732 271.546 301.462 270.725 302.149 270.11C302.901 269.438 303.588 269.387 303.977 270.725C304.681 273.167 306.411 274.146 308.764 273.697C310.83 273.299 312.662 271.482 312.756 269.738C312.841 268.13 311.812 266.92 309.801 266.21C309.289 266.031 308.806 265.766 308.311 265.539C308.755 265.107 309.144 264.569 309.664 264.261C310.454 263.795 311.308 263.342 312.192 263.145C314.421 262.649 316.684 262.303 318.93 261.896C318.943 261.956 318.952 262.012 318.964 262.072C319.844 262.072 320.719 262.08 321.599 262.072C322.726 262.059 323.546 261.589 323.563 260.379C323.585 259.109 322.756 258.468 321.573 258.557C318.328 258.797 315.045 258.908 311.855 259.507C308.772 260.084 306.027 261.572 304.562 264.607C304.152 265.454 303.635 265.826 302.743 266.027C299.472 266.758 297.397 268.737 296.825 272.111L296.829 272.106ZM307.986 269.396C308.174 269.592 308.307 269.733 308.443 269.874C308.281 269.951 308.089 270.127 307.961 270.088C307.794 270.037 307.675 269.819 307.538 269.674C307.675 269.592 307.807 269.507 307.991 269.396H307.986Z" fill="white"/>
<path d="M283.4 348.372C283.379 346.644 282.09 345.811 280.894 346.358C280.416 346.576 279.997 346.944 279.579 347.273C262.426 360.681 245.274 374.093 228.126 387.505C227.972 387.624 227.819 387.744 227.669 387.872C226.815 388.599 226.478 389.471 227.195 390.438C227.908 391.395 228.835 391.378 229.774 390.733C230.214 390.429 230.641 390.1 231.064 389.771C240.94 382.032 250.808 374.289 260.689 366.555C267.802 360.988 274.933 355.447 282.034 349.868C282.645 349.389 283.097 348.709 283.4 348.372Z" fill="white"/>
<path d="M257.101 355.169C257.524 354.93 257.908 354.622 258.293 354.327C266.324 348.111 274.356 341.894 282.384 335.678C290.296 329.551 298.217 323.429 306.112 317.276C306.722 316.797 307.188 316.13 307.491 315.801C307.499 314.112 306.329 313.257 305.164 313.693C304.72 313.86 304.314 314.168 303.934 314.467C287.947 326.836 271.969 339.213 255.987 351.591C255.641 351.86 255.099 352.1 255.017 352.442C254.842 353.173 254.659 354.075 254.941 354.695C255.316 355.529 256.251 355.644 257.101 355.165V355.169Z" fill="white"/>
<path d="M276.664 299.79C262.154 311.423 247.645 323.061 233.14 334.699C232.798 334.972 232.346 335.259 232.235 335.622C232.068 336.182 231.962 336.909 232.188 337.392C232.414 337.871 233.089 338.136 233.682 338.581C234.532 337.999 235.275 337.563 235.945 337.024C250.267 325.549 264.58 314.057 278.897 302.573C280.536 301.26 280.882 300.337 280.084 299.349C279.294 298.366 278.29 298.481 276.664 299.785V299.79Z" fill="white"/>
<path d="M250.766 360.112C251.491 359.415 251.688 358.59 251.056 357.756C250.394 356.875 249.514 356.811 248.592 357.359C248.302 357.534 248.037 357.752 247.768 357.961C237.435 365.965 227.097 373.964 216.768 381.972C216.388 382.267 215.889 382.571 215.743 382.977C215.551 383.516 215.453 384.255 215.679 384.739C215.901 385.222 216.576 385.495 217.148 385.936C217.934 385.427 218.604 385.055 219.206 384.589C229.394 376.714 239.57 368.83 249.749 360.946C250.095 360.676 250.45 360.416 250.766 360.112Z" fill="white"/>
<path d="M233.874 358.714C234.587 358.269 235.189 357.97 235.706 357.56C244.699 350.462 253.683 343.348 262.667 336.238C264.097 335.105 264.413 334.169 263.67 333.202C262.936 332.245 261.924 332.309 260.485 333.403C260.408 333.463 260.331 333.523 260.254 333.583C251.458 340.539 242.666 347.495 233.874 354.456C233.417 354.819 232.828 355.148 232.602 355.631C232.346 356.183 232.23 356.965 232.435 357.508C232.615 357.987 233.315 358.269 233.874 358.71V358.714Z" fill="white"/>
<path d="M274.45 277.019C276.509 275.458 278.545 273.864 280.591 272.282C287.346 267.061 294.105 261.854 300.839 256.608C301.445 256.133 301.889 255.449 302.53 254.727C301.957 254.047 301.624 253.264 301.18 253.2C300.459 253.093 299.489 253.217 298.93 253.645C290.01 260.447 281.137 267.309 272.26 274.167C271.026 275.121 270.791 276.112 271.5 277.023C272.222 277.947 273.204 277.968 274.45 277.023V277.019Z" fill="white"/>
<path d="M291.561 351.843C291.13 352.053 290.75 352.378 290.37 352.681C284.426 357.435 278.487 362.203 272.543 366.953C270.446 368.629 268.328 370.275 266.228 371.946C264.874 373.024 264.597 373.956 265.314 374.892C266.053 375.858 267.026 375.837 268.375 374.807C268.879 374.422 269.375 374.024 269.87 373.631C277.496 367.538 285.126 361.454 292.731 355.34C293.333 354.857 293.773 354.173 294.063 353.84C294.016 352.074 292.744 351.27 291.557 351.843H291.561Z" fill="white"/>
<path d="M269.672 326.554C269.463 327.08 269.39 327.832 269.621 328.311C269.852 328.79 270.535 329.051 271.086 329.457C271.799 329.017 272.405 328.717 272.93 328.311C280.108 322.757 287.273 317.186 294.438 311.62C294.784 311.35 295.322 311.102 295.399 310.76C295.565 310.034 295.762 309.067 295.42 308.546C295.134 308.114 294.092 308.046 293.392 308.063C292.986 308.071 292.576 308.546 292.192 308.845C285.057 314.377 277.926 319.91 270.804 325.451C270.385 325.776 269.847 326.105 269.672 326.554Z" fill="white"/>
<path d="M221.409 348.414C221.588 347.692 221.836 346.679 221.486 346.212C221.14 345.755 220.09 345.704 219.355 345.717C218.954 345.725 218.552 346.221 218.168 346.52C211.451 351.775 204.739 357.029 198.031 362.292C197.651 362.592 197.151 362.887 197.002 363.293C196.801 363.832 196.69 364.567 196.908 365.054C197.122 365.542 197.788 365.828 198.36 366.281C199.107 365.807 199.748 365.478 200.307 365.042C207.028 359.796 213.74 354.537 220.453 349.278C220.798 349.009 221.324 348.761 221.409 348.414Z" fill="white"/>
<path d="M317.423 321.646C317 321.022 316.727 320.184 316.312 320.107C315.552 319.966 314.51 320.008 313.934 320.44C306.846 325.708 299.822 331.06 292.772 336.383C291.786 337.127 291.329 338.004 292.076 339.137C292.7 340.077 293.724 340.133 294.89 339.252C301.982 333.908 309.062 328.546 316.129 323.168C316.599 322.809 316.914 322.244 317.418 321.642L317.423 321.646Z" fill="white"/>
<path d="M326.617 325.776C325.755 324.835 324.811 324.985 323.893 325.712C317.633 330.676 311.369 335.635 305.135 340.633C304.687 340.992 304.443 341.612 304.008 342.258C304.49 342.843 304.806 343.6 305.263 343.694C305.925 343.835 306.864 343.724 307.377 343.322C313.637 338.44 319.849 333.493 326.058 328.542C327.164 327.661 327.36 326.593 326.613 325.776H326.617Z" fill="white"/>
<path d="M226.806 364.584C226.981 363.857 227.216 362.84 226.861 362.373C226.515 361.92 225.465 361.903 224.722 361.899C224.368 361.899 223.996 362.352 223.655 362.621C218.048 367.017 212.442 371.416 206.844 375.824C206.425 376.153 205.883 376.474 205.699 376.919C205.486 377.444 205.401 378.193 205.623 378.68C205.84 379.163 206.515 379.437 207.07 379.864C207.826 379.394 208.471 379.069 209.03 378.633C214.645 374.246 220.247 369.843 225.849 365.443C226.195 365.174 226.729 364.926 226.81 364.58L226.806 364.584Z" fill="white"/>
<path d="M246.663 311.188C252.508 306.703 258.354 302.222 264.174 297.708C264.631 297.353 264.882 296.737 265.331 296.1C264.848 295.51 264.541 294.787 264.067 294.651C263.461 294.48 262.547 294.557 262.064 294.92C256.18 299.354 250.352 303.851 244.515 308.349C243.593 309.059 243.174 309.97 243.968 311.004C244.75 312.022 245.723 311.911 246.667 311.188H246.663Z" fill="white"/>
<path d="M254.596 381.635C254.361 381.746 253.874 381.878 253.511 382.169C248.315 386.38 243.131 390.613 237.951 394.846C237.764 395 237.482 395.183 237.469 395.372C237.418 396.047 237.204 396.923 237.533 397.364C237.866 397.809 238.758 397.941 239.425 397.988C239.775 398.014 240.185 397.603 240.522 397.33C245.488 393.298 250.445 389.253 255.398 385.209C255.736 384.935 256.086 384.632 256.308 384.268C257.017 383.114 256.18 381.656 254.596 381.635Z" fill="white"/>
<path d="M223.48 329.448C224.108 329.602 225.043 329.303 225.577 328.88C229.377 325.895 233.109 322.826 236.858 319.777C237.157 319.534 237.468 319.264 237.665 318.944C238.369 317.798 237.541 316.331 235.94 316.297C235.679 316.43 235.158 316.596 234.757 316.917C230.914 320.004 227.075 323.099 223.267 326.225C221.926 327.323 222.033 329.098 223.48 329.453V329.448Z" fill="white"/>
<path d="M159.7 160.094C159.7 160.094 176.429 151.231 187.014 148.897C197.604 146.562 212.527 145.523 227.715 147.776C242.908 150.03 285.227 166.896 285.227 166.896L298.276 179.864C298.276 179.864 313.281 183.964 320.779 175.584C328.277 167.204 326.223 155.25 326.223 155.25C326.223 155.25 339.938 166.024 348.008 173.848C356.079 181.668 364.238 192.096 364.238 200.441C364.238 208.787 360.583 214.691 355.728 218.518C350.874 222.34 330.28 222.272 323.563 224.046C316.846 225.82 281.094 221.75 280.492 221.647C279.89 221.545 213.223 247.022 213.223 247.022L191.865 353.233C191.865 353.233 170.699 372.284 162.022 379.877C153.342 387.471 123.973 401.951 110.992 400.489C98.0073 399.027 87.3837 390.634 76.6235 373.896C65.8632 357.162 55.5555 318.443 50.9355 296.382C46.3154 274.317 46.1873 251.541 49.9491 239.899C53.7109 228.253 60.1329 213.396 61.3499 212.832C62.5668 212.267 68.6387 209.484 68.6387 209.484L159.704 160.103L159.7 160.094Z" fill="#343434"/>
<path d="M155.427 161.505L158.719 152.12C158.719 152.12 167.336 147.409 175.389 138.913C183.442 130.418 185.97 114.958 182.853 102.936C179.736 90.913 168.963 74.4397 155.427 62.0923C141.891 49.7491 133.21 47.4916 126.092 46.2774C118.974 45.0589 114.243 46.2774 115.136 46.2774C116.028 46.2774 120.892 48.0945 117.762 53.054C114.632 58.0178 102.659 56.8762 102.659 56.8762C102.659 56.8762 104.397 60.5274 100.75 66.2608C97.1038 71.9942 92.5905 72.3448 92.5905 72.3448C92.5905 72.3448 101.271 86.5948 100.75 100.328C100.229 114.056 98.4958 118.156 97.1038 119.234C95.7161 120.315 86.8645 120.14 85.6475 126.745C84.4306 133.351 84.2171 136.998 90.3359 142.039C96.4548 147.079 107.347 145.339 107.347 145.339C107.347 145.339 110.388 162.458 104.222 177.743C98.056 193.023 86.1685 201.998 82.8721 203.391C79.5757 204.781 75.4082 206.867 75.4082 206.867C75.4082 206.867 110.772 226.855 115.136 228.42C119.495 229.985 150.495 241.024 170.577 234.371C190.663 227.723 195.684 216.949 194.561 204.956C193.438 192.964 188.976 182.403 185.803 174.365C182.631 166.328 166.947 157.7 166.947 157.7L155.427 161.505Z" fill="white"/>
<path d="M168.137 313.582C167.573 313.924 160.028 330.928 166.945 342.95C173.858 354.973 182.33 355.435 184.585 355.447C186.839 355.46 190.14 353.22 190.14 353.22C190.14 353.22 222.732 318.833 223.795 318.636C224.859 318.439 237.929 309.922 239.031 302.449C240.132 294.976 239.031 274.295 239.031 274.295C239.031 274.295 246.951 273.034 251.435 275.227C255.918 277.425 262.994 277.985 264.057 275.009C265.124 272.034 264.257 269.614 261.307 268.045C258.356 266.475 243.429 262.303 240.303 261.956C237.178 261.61 230.931 261.781 230.931 261.781C230.931 261.781 250.026 255.526 253.668 254.308C257.315 253.089 267.588 249.468 267.208 245.966C266.828 242.465 260.44 242.388 260.44 242.388C260.44 242.388 264.433 236.667 263.045 234.367C261.657 232.062 256.034 231.152 246.729 231.716C237.425 232.28 225.2 237.278 225.2 237.278C225.2 237.278 232.767 227.586 237.925 225.654C243.083 223.721 255.555 218.74 254.441 215.234C253.326 211.728 253.672 209.787 249.505 210.497C245.337 211.207 225.2 220.245 225.2 220.245C225.2 220.245 226.729 213.293 223.795 211.207C220.866 209.12 220.17 205.644 217.566 209.467C214.961 213.289 215.546 226.671 215.546 226.671C215.546 226.671 210.089 232.024 209.226 236.475C208.364 240.925 204.722 284.548 204.722 284.548L168.137 313.578V313.582Z" fill="white"/>
<path d="M243.776 91.8107C243.776 91.8107 237.008 84.7135 235.27 81.2247C233.536 77.736 229.194 74.26 226.243 74.6063C223.293 74.9527 221.555 74.9099 222.947 78.4072C224.335 81.9045 232.529 93.2045 233.118 98.4163C233.707 103.632 238.366 120.315 245.061 125.531C251.76 130.747 256.475 134.048 256.475 134.048L296.369 177.747C296.369 177.747 310.818 183.895 319.627 175.237C328.436 166.58 326.224 155.25 326.224 155.25L295.502 127.224C295.502 127.224 290.468 103.876 286.129 94.1964C281.791 84.5168 279.011 79.6043 278.665 78.4115C278.32 77.2186 274.609 63.6612 274.468 51.6686C274.327 39.676 275.305 30.9883 272.384 30.2914C269.464 29.5945 264.916 30.2914 263.37 35.5074C261.825 40.7235 260.266 46.7091 261.654 53.7978C263.042 60.8822 264.31 70.9252 264.31 70.9252C264.31 70.9252 255.061 65.9229 250.894 69.0525C246.726 72.1822 242.213 76.3806 243.43 81.2333C244.647 86.0859 243.776 91.8193 243.776 91.8193V91.8107Z" fill="white"/>
<path d="M269.48 268.049C271.547 267.172 276.235 254.833 277.277 245.795C278.319 236.757 286.112 198.522 286.816 194.87C287.521 191.219 287.738 183.989 284.071 183.258C280.403 182.531 256.448 179.748 249.856 180.967C243.258 182.185 233.882 180.62 232.063 184.267C230.244 187.918 226.076 210.138 226.076 210.497V218.505C226.076 218.505 238.771 214.768 243.011 212.814C247.251 210.861 251.171 210.395 252.806 212.814C254.441 215.234 256.256 216.786 251.841 219.035C247.426 221.284 236.828 225.649 234.283 227.864C231.738 230.079 227.724 235.363 227.724 235.363C227.724 235.363 243.779 231.366 246.73 231.712C249.68 232.058 261.312 230.408 263.045 234.363C264.783 238.317 262.132 239.51 262.132 239.51C262.132 239.51 266.517 243.183 266.346 246.137C266.171 249.092 264.787 249.634 262.337 250.797C259.886 251.96 236.26 260.037 236.26 260.037C236.26 260.037 244.834 262.752 250.24 264.359C255.646 265.967 264.318 270.653 264.318 270.653L269.489 268.045L269.48 268.049Z" fill="black"/>
<path d="M230.663 43.2503C230.347 43.3657 230.031 43.447 229.719 43.4897C229.57 43.6052 229.42 43.7206 229.267 43.8317C224.911 46.9785 219.16 49.92 213.596 49.7917C209.595 54.9821 204.544 59.0737 198.515 61.9938C196.525 62.9558 195.573 60.5701 196.576 59.1165C198.314 56.6068 199.475 53.8235 200.112 50.8435C200.368 49.6335 200.603 48.4236 200.731 47.1965C198.698 45.9395 196.683 44.5115 194.783 42.9168C194.761 42.904 194.74 42.8954 194.719 42.8912C192.11 41.6769 189.727 40.1207 187.827 37.9445C186.034 35.888 184.74 33.2842 184.373 30.5693C184.227 29.4834 184.236 28.4872 184.402 27.5594C184.249 26.901 184.129 26.2383 184.048 25.5628C183.476 21.0308 184.893 16.3065 188.049 12.9844C191.362 9.49568 196.008 7.27673 200.423 5.51524C209.002 2.09917 218.929 0.662618 227.742 4.16848C235.804 7.38361 242.059 14.9383 242.837 23.703C243.567 31.9033 238.421 40.3943 230.667 43.2631L230.663 43.2503Z" fill="#FFE380"/>
<path d="M331.778 268.049C332.82 268.391 375.174 291.679 374.824 292.201C374.478 292.722 336.116 321.748 336.116 321.748L291.709 296.198L331.778 268.049Z" fill="#FFE380"/>
<path d="M263.576 203.216C262.675 201.57 260.549 201.254 258.939 201.921C257.841 202.378 257 203.34 256.607 204.447C256.065 205.448 255.899 206.649 256.334 207.722C257.299 210.108 260.134 210.318 262.056 208.979C263.849 207.731 264.652 205.174 263.58 203.216H263.576Z" fill="white"/>
<path d="M228.262 5.05769C227.634 4.82254 227.233 4.09144 226.686 3.7494C226.131 3.40309 225.401 3.27483 224.773 3.11236C223.176 2.69764 221.554 2.35988 219.935 2.05633C216.494 1.40646 213.185 1.16276 209.692 1.51334C204.017 2.0777 198.129 4.01448 193.526 7.44338C184.375 14.2584 178.013 25.691 185.456 35.3278C187.253 37.6537 191.348 41.2194 193.897 42.6516C195.985 43.8274 198.236 45.4734 200.635 45.5589C200.823 47.5941 200.208 49.8087 199.713 51.7199C199.111 54.0286 198.253 56.2176 197.228 58.3724C196.092 60.771 199.606 61.9168 200.546 59.6166C201.78 56.5853 202.672 53.4172 203.082 50.1679C203.27 48.6757 203.274 47.1751 203.419 45.6829C203.577 44.0668 204.282 43.0322 203.056 41.6768C202.224 40.7576 200.904 40.4925 199.798 39.9752C198.483 39.3596 197.382 38.6926 196.314 37.705C194.529 36.0504 192.843 34.1307 191.758 31.9288C189.499 27.337 189.832 21.6336 192.138 17.1401C194.662 12.2148 200.217 8.75167 205.465 7.48186C209.03 6.61822 212.689 6.53271 216.34 6.48141C218.245 6.45148 220.145 6.52416 222.045 6.62677C223.048 6.68235 224.09 6.80634 225.098 6.74648C226.088 6.6909 226.989 6.02821 227.942 6.00683C228.39 5.99828 228.821 5.25863 228.262 5.04913V5.05769Z" fill="white"/>
<path d="M316.501 192.887C314.2 190.381 311.804 187.957 309.306 185.648C306.791 183.323 304.524 181.142 301.373 179.723C299.656 178.949 298.252 181.335 298.995 182.724C300.583 185.687 302.893 187.816 305.199 190.223C307.475 192.6 309.772 194.965 312.129 197.261C314.354 199.424 318.534 195.101 316.497 192.887H316.501Z" fill="white"/>
<path d="M286.816 168.465C283.152 166.576 285.189 166.148 281.431 164.455C277.576 162.719 273.519 161.364 269.523 160C261.615 157.298 253.574 154.968 245.449 153.022C228.945 149.072 211.831 145.925 194.837 148.007C190.379 148.555 185.99 149.465 181.724 150.876C177.407 152.304 172.663 153.92 169.444 157.255C168.069 158.679 169.196 161.047 171.139 160.782C174.768 160.282 178.218 158.354 181.771 157.405C185.456 156.417 189.222 155.669 193.014 155.211C201.067 154.237 209.282 154.66 217.327 155.588C233.348 157.43 249.219 161.377 264.505 166.456C268.647 167.833 272.712 169.402 276.82 170.885C281.188 172.463 285.646 173.651 289.984 175.319C292.973 176.469 289.809 170.013 286.82 168.474L286.816 168.465Z" fill="white"/>
<path d="M115.597 397.77C112.608 396.782 109.508 396.312 106.592 395.068C103.718 393.845 100.853 391.806 98.419 389.856C93.0901 385.581 89.1532 379.869 85.7458 374.007C78.4698 361.497 73.1921 347.752 68.3116 334.16C58.5846 307.067 52.9825 277.951 56.3258 249.13C57.2097 241.507 58.3327 233.379 61.39 226.286C62.735 223.165 64.5583 220.117 67.1245 217.838C68.3927 216.714 69.7292 215.816 71.2407 215.063C72.8462 214.264 74.2553 213.144 75.8096 212.25C76.7917 211.686 77.5218 209.843 76.0701 209.309C69.5413 206.901 62.8717 212.447 59.208 217.483C54.6221 223.785 52.6195 231.481 51.1506 239.023C48.1916 254.222 47.8201 269.84 49.4811 285.219C52.8544 316.408 63.8367 346.238 78.4527 373.823C82.2999 381.087 86.9456 387.954 93.342 393.221C96.4975 395.82 99.8408 397.74 103.671 399.104C107.33 400.408 111.152 401.498 115.008 400.562C116.118 400.293 117.096 398.266 115.597 397.77Z" fill="white"/>
<path d="M166.886 317.092C164.051 317.614 161.801 319.564 159.487 321.141C157.339 322.603 155.153 324.019 152.924 325.352C148.069 328.256 143.005 330.808 137.787 332.993C136.258 333.634 134.717 334.233 133.162 334.806C133.303 334.63 133.44 334.442 133.551 334.228C134.823 331.855 133.231 329.23 132.454 326.896C131.638 324.438 130.865 321.966 130.139 319.482C128.688 314.51 127.449 309.482 126.331 304.424C125.242 299.486 124.285 294.535 123.525 289.533C122.74 284.398 122.09 279.272 120.895 274.218C120.468 272.41 117.744 273.355 117.607 274.86C116.655 285.326 118.534 296.057 120.583 306.31C121.599 311.385 122.893 316.417 124.328 321.385C125.079 323.993 125.882 326.584 126.732 329.158C127.419 331.244 127.932 335.169 130.391 335.742C130.417 335.746 130.438 335.746 130.464 335.755C127.714 336.691 124.926 337.525 122.108 338.247C119.422 338.936 116.706 339.556 113.986 340.111C111.215 340.676 108.196 340.817 105.613 342.027C104.349 342.621 103.384 345.319 105.275 345.823C108.051 346.563 111.061 345.896 113.854 345.498C116.813 345.079 119.733 344.511 122.637 343.805C128.252 342.441 133.782 340.671 139.153 338.534C144.499 336.405 149.691 333.895 154.674 331.013C157.219 329.542 159.713 327.982 162.13 326.306C164.683 324.536 167.378 322.749 168.787 319.867C169.47 318.473 168.509 316.78 166.878 317.08L166.886 317.092Z" fill="white"/>
<path d="M95.2964 41.6855C89.6387 42.6645 86.7352 46.2388 82.0041 49.4069C77.2773 52.5707 73.2165 55.6747 69.3352 59.8304C61.4913 68.2189 53.3741 78.5312 50.2741 89.5918C46.935 101.512 47.2211 114.077 46.8923 126.339C46.5721 138.272 45.812 150.897 39.4498 161.364C33.5744 171.035 23.5229 177.255 17.4425 186.777C14.0308 192.121 12.3783 198 12.2844 204.336C12.1862 210.925 13.3007 217.513 13.5569 224.097C13.685 227.411 13.5697 230.724 12.8096 233.965C12.1222 236.902 10.8711 239.656 9.56872 242.362C6.82742 248.052 3.847 253.688 3.44135 260.113C2.64714 272.653 12.1947 282.423 14.0522 294.36C16.1316 307.712 9.00082 320.688 11.0803 334.109C12.784 345.096 21.3324 354.554 31.9347 357.803C34.612 358.624 37.396 358.859 40.18 358.709C42.0032 358.611 43.122 355.708 40.8845 355.362C30.3164 353.72 21.1915 346.61 17.7286 336.4C13.6294 324.326 19.7525 311.423 20.0771 299.204C20.2436 293.004 18.6594 287.224 16.1829 281.593C13.8045 276.189 10.8198 270.943 9.47051 265.146C6.63527 252.978 16.8532 243.311 18.4075 231.716C20.0685 219.313 14.1973 206.089 19.1377 194.101C23.271 184.075 32.8826 177.64 39.6676 169.564C55.9446 150.188 50.667 124.394 53.3869 101.204C55.9617 79.258 69.0619 59.2575 88.7506 48.9366C91.1674 47.6711 93.5159 46.4483 95.8601 45.0545C97.3033 44.1951 97.615 41.275 95.2964 41.6769V41.6855Z" fill="white"/>
<path d="M106.488 147.798C105.95 145.797 103.371 147.011 103.038 148.473C102.334 151.577 102.581 154.946 102.351 158.114C102.107 161.402 101.672 164.681 101.031 167.918C99.8228 174.023 97.8458 180.005 94.7971 185.447C92.2009 190.086 88.7551 194.336 84.6602 197.731C82.5679 199.462 80.322 200.971 77.8881 202.181C76.6797 202.784 75.4371 203.323 74.1647 203.776C72.8794 204.234 71.6027 204.503 70.5352 205.401C69.7197 206.085 69.2158 208.022 70.6463 208.415C73.315 209.15 76.7437 207.29 79.1093 206.128C81.7054 204.849 84.1863 203.272 86.4707 201.497C91.2274 197.795 95.1515 193.143 98.2344 187.978C101.719 182.134 103.969 175.575 105.288 168.918C105.963 165.528 106.381 162.099 106.65 158.653C106.924 155.169 107.415 151.222 106.492 147.802L106.488 147.798Z" fill="white"/>
<path d="M192.792 133.231C190.546 130.315 186.331 127.767 182.578 128.9C181.374 129.263 180.101 131.145 181.468 132.145C183.658 133.748 186.135 134.531 187.919 136.707C189.781 138.982 190.473 141.825 189.939 144.711C189.247 148.46 194.359 148.298 195.123 145.078C196.084 141.03 195.366 136.57 192.792 133.231Z" fill="white"/>
<path d="M248.899 408.531C247.814 406.962 246.03 406.329 244.39 405.466C242.772 404.615 241.166 403.747 239.565 402.858C236.367 401.088 233.143 399.36 229.949 397.573C223.664 394.055 217.447 390.408 211.178 386.863C204.931 383.332 198.625 379.894 192.147 376.795C188.872 375.226 185.537 373.721 182.1 372.558C179.243 371.591 174.764 369.407 171.899 371.113C171.156 371.553 170.627 372.331 170.874 373.233C171.361 374.982 172.791 375.615 174.307 376.354C175.938 377.149 177.591 377.893 179.23 378.672C182.514 380.224 185.836 381.694 189.115 383.263C195.486 386.316 201.699 389.689 207.848 393.165C214.022 396.654 220.137 400.237 226.319 403.709C229.505 405.496 232.69 407.304 235.97 408.92C237.605 409.728 239.249 410.519 240.901 411.293C242.528 412.054 244.24 413.136 246.081 413.042C248.122 412.935 250.308 410.575 248.899 408.535V408.531Z" fill="white"/>
<path d="M348.261 277.164C343.688 275.95 340.421 272.179 335.963 270.7C330.72 268.968 326.698 271.443 322.56 274.449C314.118 280.576 305.664 286.698 297.209 292.812C296.518 292.855 295.924 293.15 295.467 293.582C294.677 293.958 293.939 294.561 293.4 295.134C292.26 296.331 292.884 298.332 294.498 298.571C295.19 298.674 295.873 298.751 296.513 298.49C296.594 298.52 296.676 298.55 296.761 298.575C298.904 299.678 301.086 300.739 303.285 301.761C303.418 301.85 303.546 301.944 303.674 302.043C304.921 303.026 305.971 304.172 306.987 305.386C307.671 306.203 308.555 306.429 309.404 306.284C309.605 306.305 309.827 306.284 310.066 306.19C310.638 305.976 311.185 305.745 311.719 305.497C312.901 305.844 313.994 305.023 314.498 303.962C316.411 302.701 318.068 301.124 319.503 299.093C321.894 295.702 323.085 292.094 323.918 288.075C324.315 286.142 326.125 283.013 327.966 283.017C330.212 283.026 334.405 284.561 336.646 284.377C341.467 283.979 343.572 283.795 347.872 281.649C349.324 280.922 350.541 277.763 348.269 277.16L348.261 277.164Z" fill="white"/>
<path d="M396.644 290.841C394.68 289.34 392.481 288.122 390.312 286.912C385.119 284.005 379.825 281.273 374.675 278.293C363.313 271.717 352.113 264.859 340.661 258.45C329.657 252.294 318.145 247.202 306.074 243.469C303.158 242.571 300.203 242.02 297.141 242.687C293.461 243.491 290.425 245.509 287.479 247.71C283.025 251.045 278.584 254.402 274.144 257.749C273.947 257.899 273.64 258.04 273.605 258.224C273.473 258.933 273.119 259.895 273.435 260.314C273.81 260.815 274.788 261.003 275.518 261.041C275.963 261.063 276.458 260.58 276.885 260.259C281.693 256.659 286.501 253.063 291.275 249.429C295.749 246.026 300.489 245.346 305.882 247.15C317.488 251.032 328.684 255.864 339.324 261.854C351.272 268.575 362.984 275.723 374.85 282.59C379.705 285.398 384.697 287.972 389.641 290.623C390.538 291.102 390.743 291.41 389.782 292.068C388.501 292.953 387.297 293.962 386.063 294.916C337.386 332.539 288.708 370.159 240.052 407.804C239.224 408.441 238.618 408.514 237.717 408.018C234.6 406.295 231.453 404.628 228.297 402.977C209.189 392.986 190.073 383.003 170.96 373.024C170.743 372.908 170.482 372.682 170.303 372.729C169.573 372.934 168.531 373.032 168.24 373.541C167.954 374.037 168.279 375.076 168.642 375.696C168.919 376.175 169.658 376.41 170.222 376.705C185.645 384.794 201.068 392.892 216.499 400.968C223.976 404.884 231.453 408.801 238.963 412.653C241.538 413.97 244.275 414.872 247.239 414.991C248.345 414.837 249.472 414.761 250.556 414.517C255.266 413.461 259.045 410.665 262.768 407.804C272.175 400.575 281.603 393.375 290.946 386.064C307.364 373.212 323.679 360.232 340.118 347.41C357.019 334.228 374.043 321.205 390.939 308.02C393.497 306.027 395.901 303.719 397.959 301.213C401.093 297.391 400.564 293.847 396.635 290.837L396.644 290.841ZM395.269 298.798C393.446 300.94 391.46 303.018 389.253 304.745C374.372 316.383 359.38 327.871 344.491 339.5C326.835 353.293 309.281 367.213 291.62 381.006C281.082 389.24 270.459 397.364 259.839 405.491C256.62 407.958 253.328 410.344 249.203 411.114C248.584 411.229 247.947 411.276 247.085 411.383C246.145 411.191 245.001 410.972 243.865 410.707C243.558 410.639 243.289 410.408 243.003 410.246C243.225 409.998 243.413 409.711 243.669 409.51C248.298 405.919 252.935 402.34 257.568 398.758C302.214 364.25 346.856 329.739 391.503 295.232C391.964 294.877 392.57 294.535 392.775 294.052C393.377 292.633 393.988 293.27 394.697 293.894C396.597 295.574 396.913 296.874 395.269 298.798Z" fill="#FFCE1F"/>
<path d="M395.268 298.798C393.445 300.94 391.459 303.018 389.252 304.745C374.371 316.383 359.379 327.871 344.49 339.5C326.834 353.293 309.28 367.214 291.62 381.006C281.081 389.241 270.458 397.364 259.838 405.492C256.619 407.958 253.327 410.344 249.202 411.114C248.583 411.229 247.947 411.276 247.084 411.383C246.145 411.191 245 410.973 243.864 410.708C243.557 410.639 243.288 410.408 243.002 410.246C243.224 409.998 243.412 409.711 243.668 409.51C248.297 405.919 252.934 402.341 257.567 398.758C302.213 364.251 346.856 329.739 391.502 295.232C391.963 294.877 392.57 294.535 392.775 294.052C393.377 292.633 393.987 293.27 394.696 293.894C396.596 295.574 396.912 296.874 395.268 298.798Z" fill="#FFCE1F"/>
<path d="M378.322 291.825C377.412 292.838 376.887 293.65 376.161 294.189C369.633 299.067 363.065 303.898 356.511 308.747C350.426 313.245 344.316 317.708 338.283 322.274C336.647 323.51 335.26 323.587 333.483 322.582C325.494 318.076 317.441 313.685 309.444 309.196C308.265 308.533 307.168 308.242 305.857 308.64C305.165 308.849 304.418 308.943 303.696 308.965C302.018 309.02 301.113 307.644 302.018 306.241C302.582 305.369 302.168 305.185 301.57 304.856C298.026 302.898 294.482 300.94 290.946 298.969C288.534 297.622 288.418 294.899 290.745 293.364C303.982 284.629 317.24 275.92 330.473 267.172C331.869 266.249 333.129 266.27 334.559 267.07C339.29 269.703 344.064 272.26 348.8 274.894C349.782 275.441 350.384 275.659 350.755 274.27C351.029 273.252 351.878 272.76 352.937 273.098C354.069 273.462 354.526 274.445 354.03 275.433C353.121 277.241 354.09 277.81 355.486 278.558C362.327 282.213 369.129 285.946 375.909 289.708C376.725 290.161 377.348 290.957 378.326 291.825H378.322ZM327.937 285.39C327.826 285.21 327.715 285.031 327.604 284.856C327.382 285.27 327.087 285.659 326.95 286.1C326.19 288.567 325.627 291.106 324.7 293.509C322.578 299.003 319.243 303.518 313.743 306.113C313.38 306.284 313.081 306.588 312.753 306.827C313.064 307.049 313.359 307.306 313.692 307.494C320.644 311.351 327.604 315.186 334.542 319.068C335.388 319.542 335.968 319.542 336.763 318.939C340.183 316.34 343.654 313.817 347.109 311.265C355.345 305.173 363.578 299.067 371.832 293C372.728 292.342 372.839 291.983 371.746 291.47C370.602 290.931 369.517 290.268 368.403 289.657C363.181 286.805 357.971 283.936 352.724 281.127C352.297 280.901 351.391 280.867 351.131 281.14C348.104 284.338 344.209 285.535 340.038 285.689C336.015 285.835 331.972 285.51 327.941 285.394L327.937 285.39ZM336.75 282.487C336.758 282.414 336.771 282.342 336.78 282.269C337.023 282.269 337.266 282.278 337.51 282.269C340.947 282.119 344.333 281.803 347.271 279.725C348.189 279.075 348.347 278.669 347.177 278.049C343.163 275.929 339.12 273.855 335.255 271.482C333.236 270.242 331.856 270.469 329.956 271.743C318.158 279.652 306.267 287.421 294.392 295.219C293.512 295.796 293.068 296.117 294.358 296.81C298.658 299.118 302.893 301.538 307.185 303.86C307.68 304.129 308.432 304.245 308.957 304.087C313.304 302.761 316.865 300.35 319.256 296.369C321.574 292.504 322.915 288.293 323.671 283.881C324.106 281.337 324.943 280.803 327.488 281.222C330.563 281.722 333.663 282.072 336.75 282.491V282.487Z" fill="white"/>
<path d="M199.16 58.6375C203.78 56.4955 207.542 53.8276 210.663 50.3303C211.914 48.9237 213.344 48.2567 215.172 47.9617C221 47.0211 226.586 45.2767 231.526 41.9504C238.631 37.1662 242.004 30.4324 241.377 21.8387C241.069 17.6274 238.947 14.2627 235.89 11.4751C230.984 7.00296 225.044 4.84814 218.588 3.94175C214.096 3.30898 209.638 3.55268 205.223 4.62582C199.612 5.98968 194.924 8.94829 190.833 12.9544C190.449 13.3306 190.077 13.9121 189.633 13.9805C188.946 14.0874 187.96 14.0831 187.545 13.6727C187.14 13.275 187.247 12.3088 187.238 11.5905C187.238 11.3682 187.558 11.1202 187.763 10.9107C195.27 3.16789 204.459 -0.372172 215.176 0.0297193C222.021 0.290521 228.481 2.00925 234.301 5.72033C239.69 9.15351 243.853 13.6641 244.771 20.2141C246.193 30.3725 242.453 38.5258 234.195 44.4986C228.878 48.3465 222.73 50.2704 216.333 51.4077C214.929 51.6599 213.835 52.1516 212.845 53.2376C208.302 58.2185 202.597 61.4336 196.367 63.8108C195.347 64.1998 194.352 64.358 193.57 63.3789C192.827 62.4426 193.212 61.5533 193.771 60.6811C196.068 57.1069 197.669 53.2675 198.28 49.0305C198.481 47.6453 198.434 46.5935 196.743 46.1788C195.722 45.9266 194.787 45.3152 193.826 44.8363C185.265 40.5481 181.503 33.4166 181.563 24.032C181.572 22.4459 182.157 21.6549 183.297 21.6378C184.45 21.6207 185.005 22.4031 185.12 23.9636C185.244 25.7123 185.385 27.4695 185.671 29.2011C186.384 33.5535 188.455 37.1576 192.187 39.5433C194.634 41.1082 197.302 42.3438 199.933 43.6007C201.628 44.4088 202.149 44.9347 202.05 46.8201C201.867 50.3046 201.201 53.6951 199.821 56.9187C199.634 57.3591 199.476 57.808 199.16 58.6332V58.6375Z" fill="#FFCE1F"/>
<path d="M256.324 276.835C255.859 277.455 255.586 278.066 255.12 278.404C250.803 281.512 246.456 284.582 242.11 287.647C241.153 288.323 240.15 288.417 239.407 287.369C238.664 286.322 239.091 285.42 240.051 284.736C244.39 281.657 248.715 278.558 253.1 275.548C253.6 275.202 254.51 275.15 255.107 275.343C255.577 275.492 255.859 276.232 256.324 276.835Z" fill="#FFCE1F"/>
<path d="M349.777 287.002C346.105 285.98 342.561 286.724 339.457 288.819C335.939 291.192 334.589 295.352 335.836 298.952C337.023 302.376 340.653 304.583 345.068 304.574C349.696 304.557 353.479 302.034 355.098 297.87C356.93 293.171 354.645 288.353 349.777 286.998V287.002ZM351.208 297.571C349.154 301.094 343.996 302.116 340.721 299.67C338.868 298.285 338.492 295.758 339.79 293.637C341.447 290.935 344.15 290.439 346.831 290.144C348.949 290.226 350.597 290.944 351.605 292.714C352.553 294.386 352.1 296.032 351.208 297.571Z" fill="white"/>
<path d="M351.208 297.571C349.154 301.094 343.996 302.116 340.721 299.67C338.868 298.285 338.492 295.758 339.79 293.637C341.447 290.935 344.15 290.439 346.831 290.144C348.949 290.226 350.598 290.944 351.605 292.714C352.553 294.386 352.101 296.032 351.208 297.571Z" fill="white"/>
<path d="M277.888 161.415C277.525 160.975 277.175 160.526 276.804 160.098C270.014 152.214 263.234 144.326 256.415 136.468C255.787 135.745 254.963 135.181 254.186 134.604C251.171 132.368 248.02 130.298 245.129 127.913C238.319 122.278 234.621 114.71 232.238 106.381C231.111 102.44 230.146 98.4334 228.694 94.6112C227.371 91.1224 225.594 87.7919 223.826 84.4912C222.601 82.1996 221.179 80.0234 221.034 77.3384C220.867 74.2772 222.614 72.4003 225.654 72.3789C228.852 72.3575 231.521 73.6615 233.81 75.8078C236.243 78.0866 237.781 80.9683 239.228 83.9226C240.112 85.7311 241.192 87.4455 242.183 89.2028C242.358 89.1301 242.529 89.0574 242.704 88.9847C242.58 88.1125 242.439 87.2446 242.332 86.3724C241.888 82.8024 241.914 79.2538 242.841 75.7522C244.702 68.7148 249.536 65.6793 256.889 66.9448C258.182 67.1671 259.498 67.3937 260.736 67.817C262.089 68.283 262.013 67.8042 261.816 66.7225C260.932 61.7801 259.933 56.8419 259.361 51.861C258.767 46.7305 259.143 41.5658 260.996 36.6961C261.808 34.5583 263.114 32.5147 264.587 30.7575C265.522 29.6459 267.098 28.8763 268.533 28.4188C272.474 27.1661 275.506 29.2867 275.775 33.404C275.916 35.5417 275.894 37.7093 275.753 39.8471C275.057 50.386 276.488 60.7069 278.853 70.9338C279.635 74.3071 280.536 77.6548 281.398 81.011C281.505 81.43 281.642 81.8746 281.876 82.2295C287.146 90.2631 290.105 99.2629 292.624 108.408C294.229 114.24 295.438 120.178 296.885 126.053C297.056 126.754 297.462 127.536 298 127.99C307.364 135.822 316.817 143.548 326.147 151.423C335.097 158.982 344.303 166.298 352.117 175.079C355.606 179 358.744 183.275 361.69 187.628C364.167 191.287 365.623 195.46 366.071 199.932C367.019 209.39 361.656 218.475 352.868 222.152C347.911 224.225 342.642 225.016 337.364 225.658C319.866 227.787 302.398 227.099 284.959 224.854C283.785 224.704 283.256 224.901 283.004 226.214C281.048 236.475 279.071 246.731 276.932 256.954C276.296 259.994 275.309 262.995 274.148 265.877C272.909 268.955 270.945 271.486 267.312 272.076C267.06 272.119 266.744 272.662 266.71 272.995C266.355 276.553 264.135 279.062 260.586 279.015C257.508 278.972 254.425 278.28 251.372 277.737C248.259 277.181 245.172 276.463 242.076 275.796C240.876 275.535 240.607 275.864 240.782 277.138C241.91 285.223 242.063 293.287 240.116 301.303C238.255 308.965 233.985 314.805 227.268 318.918C226.171 319.589 225.15 320.487 224.313 321.47C207.571 341.163 189.654 359.667 169.41 375.807C158.923 384.17 147.903 391.72 135.528 397.077C129.273 399.784 122.817 401.725 115.972 402.298C105.912 403.136 97.2439 399.989 89.6818 393.456C82.5937 387.325 77.3332 379.766 72.9351 371.591C70.5568 367.171 68.4858 362.579 66.3765 358.017C65.8641 356.91 65.4542 356.606 64.2202 357.021C57.2772 359.359 50.1464 360.873 42.8021 360.249C29.4756 359.116 18.9459 353.053 11.8151 341.578C7.65192 334.878 7.5409 327.524 8.88167 320.021C9.93207 314.164 11.0636 308.315 11.9945 302.436C12.8826 296.818 11.7383 291.435 9.46238 286.296C7.82272 282.594 5.95675 278.99 4.27439 275.304C3.20264 272.953 2.18639 270.567 1.31105 268.139C-0.691553 262.585 -0.422546 257.074 2.1565 251.772C3.71076 248.57 5.49987 245.479 7.20785 242.353C9.22753 238.664 11.2259 234.978 11.7895 230.707C12.3232 226.65 11.4564 222.738 10.6836 218.808C9.90218 214.837 9.03965 210.878 8.42905 206.876C7.5836 201.356 8.91156 196.208 11.5589 191.36C14.4198 186.123 18.3652 181.723 22.3363 177.337C25.6796 173.643 29.0059 169.936 32.3322 166.225C40.4793 157.148 44.2496 146.451 44.1642 134.309C44.1258 128.686 44.1471 123.069 44.1728 117.446C44.2795 93.3841 53.6606 73.3879 70.7703 56.8163C76.0863 51.6644 81.9618 47.2307 88.4777 43.6736C98.5121 38.201 109.383 36.2557 120.635 36.1445C133.09 36.0248 145.341 37.7435 157.365 40.9972C161.25 42.0489 164.948 43.5752 168.142 46.0978C171.246 48.5476 173.573 51.566 174.492 55.5037C175.239 58.7103 174.321 61.0532 171.545 62.7891C170.687 63.3235 170.713 63.7767 170.918 64.666C171.507 67.2184 172.002 69.8008 172.339 72.396C172.442 73.1827 172.143 74.2729 171.614 74.833C170.717 75.7907 171.093 76.3593 171.678 77.1888C176.703 84.286 180.747 91.892 183.305 100.238C185.76 108.246 186.759 116.36 185.025 124.663C184.85 125.493 185.158 125.852 185.875 126.237C187.762 127.25 189.663 128.272 191.409 129.503C196.05 132.774 198.207 137.417 198.459 143.013C198.561 145.288 198.548 145.331 200.824 145.126C214.817 143.881 228.519 145.515 241.871 149.7C253.315 153.287 264.626 157.289 275.992 161.107C276.573 161.3 277.158 161.466 277.743 161.646C277.786 161.569 277.833 161.492 277.875 161.411L277.888 161.415ZM164.649 318.413C164.039 318.802 163.586 319.076 163.151 319.375C148.573 329.44 132.808 337.007 115.788 341.937C113.307 342.655 110.827 343.391 108.329 344.036C107.12 344.348 106.168 343.835 105.831 342.604C105.493 341.381 106.04 340.517 107.244 340.098C107.564 339.987 107.897 339.91 108.226 339.808C112.979 338.346 117.744 336.918 122.479 335.413C125.272 334.523 125.255 334.468 124.422 331.753C119.614 316.049 115.784 300.115 113.389 283.855C112.936 280.785 112.129 277.711 113.359 274.603C113.952 273.102 114.781 272.41 116.019 272.726C117.249 273.042 117.714 274.086 117.39 275.642C117.172 276.685 116.736 277.784 116.894 278.784C117.91 285.296 118.739 291.859 120.233 298.263C122.872 309.568 125.951 320.769 128.812 332.022C129.102 333.155 129.678 332.809 130.302 332.514C135.72 329.94 141.263 327.601 146.519 324.737C159.589 317.61 171.481 308.712 183.172 299.554C189.167 294.856 195.013 289.973 200.922 285.163C201.759 284.479 202.75 284.026 202.878 282.645C203.425 276.617 204.262 270.61 204.663 264.573C205.073 258.433 205.026 252.268 205.312 246.116C205.53 241.447 206.311 236.855 208.783 232.785C210.76 229.527 212.054 226.021 212.925 222.353C213.869 218.368 214.501 214.298 215.59 210.356C216.73 206.217 219.377 205.23 223.182 207.239C223.967 207.654 224.177 207.483 224.305 206.688C224.787 203.652 225.347 200.625 225.769 197.581C225.846 197.017 225.594 196.251 225.227 195.802C222.494 192.476 219.023 190.36 214.757 189.586C213.314 189.325 212.387 188.453 212.144 186.982C211.794 184.861 211.448 182.741 211.183 180.612C211.017 179.244 211.725 178.286 212.865 178.102C214.023 177.918 214.936 178.598 215.21 179.962C215.526 181.539 215.718 183.147 216.051 184.72C216.136 185.114 216.512 185.657 216.849 185.747C220.47 186.683 223.686 188.32 226.367 190.954C226.944 191.518 227.123 191.223 227.298 190.595C227.691 189.188 228.096 187.777 228.609 186.409C229.851 183.087 232.213 180.967 235.718 180.338C238.498 179.838 241.308 179.218 244.109 179.201C253.281 179.145 262.452 179.244 271.62 179.492C275.514 179.598 279.383 180.287 283.034 181.817C287.201 183.562 289.456 186.619 289.391 191.219C289.37 192.583 289.349 193.972 289.101 195.306C287.598 203.314 286.052 211.318 284.464 219.309C284.263 220.322 284.4 220.673 285.484 220.809C302.393 222.896 319.332 223.742 336.284 221.588C341.139 220.968 346.071 220.083 350.669 218.475C359.312 215.457 363.723 206.401 361.468 197.5C360.016 191.771 356.805 186.999 353.155 182.501C346.344 174.113 338.218 167.08 330.011 160.137C329.7 159.872 329.294 159.718 328.935 159.508C328.901 159.931 328.812 160.363 328.846 160.782C329.277 166.156 327.629 170.838 323.982 174.746C318.743 180.351 312.12 182.343 304.622 181.839C303.832 181.787 303.051 181.672 301.937 181.552C302.513 182.215 302.816 182.587 303.145 182.933C306.249 186.247 309.366 189.552 312.466 192.874C313.662 194.156 313.756 195.294 312.812 196.213C311.864 197.132 310.716 196.978 309.499 195.755C309.255 195.512 309.025 195.264 308.79 195.016C300.826 186.413 292.871 177.807 284.887 169.226C284.344 168.64 283.657 168.059 282.923 167.807C271.68 163.92 260.433 160.038 249.152 156.255C238.959 152.838 228.6 150.059 217.831 149.213C201.836 147.956 186.43 150.547 171.579 156.571C171.118 156.759 170.678 156.99 170.076 157.272C170.435 157.511 170.58 157.648 170.751 157.717C179.03 161.15 184.56 167.392 188.484 175.233C194.304 186.879 197.519 199.056 195.542 212.177C194.082 221.861 189.172 229.236 180.205 233.452C176.878 235.017 173.322 236.269 169.739 237.069C158.488 239.574 147.232 238.732 136.053 236.381C119.909 232.982 104.934 226.551 90.6554 218.428C86.2061 215.897 81.8593 213.161 77.6406 210.262C76.3041 209.343 75.4288 209.261 74.0496 209.86C71.5944 210.925 69.0153 211.711 66.5387 212.733C65.689 213.084 64.8094 213.652 64.2458 214.366C57.8067 222.511 54.1687 231.921 52.0722 241.99C49.2369 255.599 49.5828 269.293 51.278 282.979C53.2336 298.751 56.5129 314.266 60.8469 329.551C64.9717 344.105 70.0742 358.278 77.6107 371.463C81.6543 378.539 86.347 385.123 92.5897 390.472C98.9434 395.914 106.202 398.702 114.648 398.24C121.779 397.847 128.461 395.786 134.888 392.853C153.291 384.452 168.684 371.771 183.51 358.299C183.698 358.128 183.774 357.837 183.907 357.602C183.638 357.547 183.364 357.444 183.095 357.44C175.158 357.256 169.675 353.237 166.131 346.375C163.082 340.466 162.279 334.104 163.022 327.567C163.36 324.583 164.081 321.637 164.675 318.435L164.649 318.413ZM125.357 40.3302C105.69 40.3174 94.1909 43.8147 82.3461 52.5408C76.065 57.1711 70.4158 62.4812 65.5951 68.6293C55.0739 82.0414 48.9508 97.138 48.4811 114.317C48.2762 121.79 48.353 129.268 48.2292 136.741C48.0499 147.43 45.0011 157.195 38.1948 165.515C33.4979 171.257 28.3697 176.64 23.5745 182.301C20.8674 185.499 18.2755 188.821 15.9313 192.288C13.1089 196.461 11.9432 201.202 12.5624 206.243C12.9168 209.142 13.5786 212.006 14.1166 214.884C14.74 218.24 15.5086 221.575 15.9869 224.952C16.9305 231.613 14.7571 237.569 11.5461 243.255C9.72285 246.488 7.90812 249.724 6.21295 253.025C3.83032 257.668 3.62963 262.486 5.4956 267.352C6.34959 269.584 7.30606 271.777 8.30949 273.949C9.90645 277.408 11.6315 280.802 13.2071 284.27C16.1107 290.653 17.1611 297.348 16.0424 304.287C15.1158 310.021 13.9416 315.707 12.9467 321.432C11.8322 327.854 12.0372 334.126 15.6837 339.825C21.7299 349.274 30.5004 354.46 41.4912 355.935C48.0413 356.815 54.4164 355.558 60.7017 353.801C64.186 352.826 64.1476 352.805 62.9349 349.41C53.904 324.134 47.9901 298.165 46.0857 271.354C45.458 262.521 45.7868 253.675 47.277 244.906C49.0789 234.298 52.3796 224.26 58.3831 215.226C58.571 214.943 58.618 214.371 58.46 214.084C57.1833 211.771 57.5932 210.843 60.1893 210.159C67.7215 208.175 74.9121 205.319 81.744 201.566C89.7587 197.166 95.7324 190.864 99.4259 182.467C104.042 171.975 105.237 160.855 105.365 149.542C105.374 148.661 104.955 148.52 104.191 148.507C98.8494 148.409 94.0756 146.562 89.7331 143.556C84.9166 140.226 82.7048 135.647 83.1104 129.742C83.6228 122.312 88.1532 117.793 95.5786 117.549C96.4027 117.523 96.77 117.28 96.9749 116.45C98.8836 108.673 99.5369 100.862 97.9058 92.9395C96.4711 85.9577 94.097 79.3179 90.839 72.9903C90.2668 71.8787 89.6904 70.7841 90.5188 69.5614C91.3642 68.3129 92.5513 68.8089 93.7084 68.8859C94.6521 68.95 95.7195 68.997 96.5522 68.6336C100.869 66.7439 101.975 60.3692 98.606 57.1284C97.7563 56.3118 97.2567 55.4097 97.8673 54.2681C98.5035 53.0838 99.5369 52.9812 100.767 53.2677C102.616 53.6995 104.486 54.2382 106.36 54.3152C108.764 54.4135 111.202 54.2168 113.598 53.9218C114.823 53.7722 115.618 52.8016 115.801 51.4848C115.98 50.2064 115.34 49.3428 114.358 48.6587C114.076 48.4621 113.67 48.3381 113.534 48.073C113.192 47.4231 112.671 46.645 112.795 46.0379C112.919 45.4222 113.641 44.7211 114.264 44.4688C115.186 44.0968 116.271 43.8831 117.257 43.9686C121.523 44.332 125.848 44.4987 130.029 45.3367C138.492 47.0426 145.665 51.5019 152.36 56.7778C157.672 60.9635 162.476 65.675 166.84 70.8397C167.126 71.1775 167.566 71.3827 167.933 71.6478C167.988 71.1903 168.189 70.6944 168.078 70.2754C167.578 68.3471 167.113 66.389 166.404 64.5335C165.345 61.7587 165.597 60.9378 168.309 59.7877C170.559 58.83 171.02 57.8338 170.192 55.5208C169.278 52.9598 167.625 50.9333 165.486 49.2958C162.766 47.2179 159.653 45.931 156.391 45.0417C145.23 41.9976 133.85 40.4627 125.353 40.3174L125.357 40.3302ZM145.904 57.5217C145.955 57.4277 146.007 57.3336 146.058 57.2396C144.282 56.145 142.535 55.0035 140.729 53.9603C134.568 50.4074 127.915 48.5433 120.818 48.2269C120.097 48.1927 119.482 48.0474 119.729 49.2317C120.665 53.661 118.581 57.2182 114.136 58.1331C111.557 58.6675 108.824 58.5136 106.16 58.5008C105.015 58.4965 104.652 58.5607 104.891 59.8732C105.728 64.4821 102.048 71.9685 96.6461 73.0459C95.7067 73.234 95.7708 73.5931 96.0825 74.3242C97.1244 76.7441 98.1662 79.1683 99.0629 81.6438C99.4985 82.8494 99.7888 82.9649 100.711 82.0371C104.264 78.4714 108.623 76.7826 113.636 76.7527C115.387 76.7398 116.275 77.4239 116.288 78.7621C116.301 80.0405 115.468 80.7972 113.828 80.8357C108.862 80.9554 104.9 83.0675 101.851 86.9111C101.441 87.4284 101.181 88.3776 101.343 88.9975C103.815 98.5574 103.423 108.057 100.963 117.54C100.305 120.067 98.3157 121.606 95.6939 121.662C93.4565 121.709 91.3258 122.064 89.716 123.885C86.4965 127.524 86.2189 134.133 89.511 137.695C93.6529 142.18 98.9177 144.42 105.066 144.215C107.983 144.117 109.289 142.547 109.26 139.627C109.247 138.443 109.772 137.605 110.942 137.396C112.189 137.173 112.962 137.797 113.316 139.024C114.076 141.662 113.141 144.51 110.622 146.391C109.661 147.109 109.426 147.845 109.452 148.956C109.614 156.9 108.871 164.767 107.09 172.514C104.883 182.117 100.984 190.843 93.8322 197.855C90.2754 201.339 86.1506 204.015 81.7696 206.324C80.2325 207.137 80.2239 207.149 81.7312 208.137C83.3239 209.18 84.9123 210.232 86.5392 211.215C105.122 222.43 124.627 231.229 146.451 233.798C154.692 234.769 162.92 234.623 171.012 232.49C184.957 228.809 191.627 220.301 191.87 205.867C192.054 194.832 188.877 184.686 183.616 175.101C180 168.508 174.812 163.719 167.788 160.962C167.207 160.735 166.558 160.47 166.169 160.021C165.584 159.35 165.076 159.397 164.389 159.748C162.22 160.863 159.995 161.877 157.873 163.074C157.19 163.459 156.562 164.203 156.237 164.929C154.5 168.854 152.86 172.822 151.195 176.781C150.439 178.577 149.636 180.359 148.979 182.194C148.167 184.455 148.654 186.525 150.208 188.346C150.746 188.974 151.378 189.539 151.857 190.206C152.51 191.116 152.424 192.07 151.622 192.861C150.862 193.613 149.978 193.639 149.081 193.079C146.024 191.172 143.714 186.401 144.606 182.899C145.358 179.949 146.677 177.14 147.762 174.275C150.025 168.303 152.313 162.343 154.555 156.361C154.769 155.797 155.332 154.839 153.808 155.109C145.631 156.562 137.475 156.075 129.354 154.63C126.86 154.185 124.401 153.557 121.95 152.907C120.635 152.561 120.05 151.47 120.413 150.337C120.814 149.093 121.762 148.755 122.962 148.944C123.299 148.999 123.624 149.115 123.952 149.196C132.099 151.222 140.328 152.283 148.744 151.573C163.368 150.342 173.539 142.928 179.206 129.452C182.767 120.974 182.323 112.239 179.902 103.577C175.469 87.7021 166.251 74.8715 154.26 63.8665C154.013 63.6399 153.731 63.3577 153.424 63.3021C150.511 62.7677 147.608 62.0836 144.666 61.8228C141.933 61.5834 139.495 62.601 137.595 64.7045C135.447 67.0773 134.772 70.2283 135.063 73.0117C135.618 78.2833 138.129 82.8708 143.082 85.4275C145.827 86.847 148.833 87.779 151.767 88.8009C153.432 89.3823 153.974 89.9381 153.688 91.6611C153.36 93.6364 152.928 95.5903 152.553 97.557C152.36 98.5574 151.848 99.2201 150.763 99.032C149.64 98.8396 149.465 97.9674 149.619 97.0054C149.828 95.7057 149.995 94.3846 150.354 93.1233C150.678 91.969 150.225 91.6782 149.218 91.3063C146.617 90.3528 143.974 89.4122 141.553 88.0911C134.508 84.2432 132.023 77.4966 131.416 70.1257C130.934 64.2769 135.503 59.1678 141.288 57.9878C142.796 57.6799 144.363 57.6585 145.904 57.5089V57.5217ZM233.015 264.398C231.017 264.398 229.014 264.419 227.016 264.389C225.808 264.372 225.086 263.696 224.996 262.503C224.915 261.379 225.509 260.661 226.602 260.379C227.076 260.259 227.567 260.195 228.02 260.019C236.995 256.556 246.222 253.931 255.509 251.456C258.208 250.737 260.732 249.113 263.131 247.586C264.882 246.471 264.634 245.641 262.687 244.765C260.33 243.7 257.824 243.55 255.364 244.034C251.013 244.884 246.645 245.735 242.401 246.988C235.206 249.113 228.101 251.546 220.957 253.854C219.424 254.35 218.34 253.991 217.9 252.803C217.451 251.601 218.007 250.596 219.51 249.998C220.731 249.51 221.969 249.053 223.216 248.63C234.437 244.829 245.642 240.972 257.495 239.527C258.601 239.39 259.707 238.753 260.663 238.116C261.184 237.77 261.731 236.881 261.633 236.355C261.517 235.744 260.8 235.085 260.181 234.773C259.425 234.392 258.503 234.264 257.64 234.183C251.931 233.649 246.325 234.559 240.821 235.859C233.284 237.638 225.825 239.75 218.34 241.742C216.589 242.208 215.466 241.849 215.073 240.57C214.68 239.296 215.376 238.339 217.131 237.774C218.57 237.313 220.056 236.971 221.448 236.402C222.302 236.056 223.199 235.53 223.784 234.841C228.31 229.484 233.635 225.269 240.257 222.78C242.354 221.994 244.438 221.122 246.414 220.078C247.994 219.245 249.455 218.154 250.881 217.06C251.85 216.316 252.222 215.243 251.637 214.054C251.069 212.9 249.98 212.678 248.883 212.9C247.315 213.22 245.706 213.545 244.245 214.178C235.906 217.787 227.844 221.938 220.244 226.945C218.664 227.984 217.191 229.232 215.829 230.553C212.853 233.443 210.692 236.889 210.184 241.062C209.684 245.171 209.356 249.322 209.283 253.457C209.104 263.829 208.322 274.137 206.687 284.381C206.593 284.971 206.337 285.646 205.935 286.061C204.817 287.211 203.638 288.327 202.379 289.319C192.216 297.323 182.019 305.284 171.87 313.3C171.187 313.839 170.585 314.647 170.273 315.455C168.509 320.03 167.228 324.745 166.985 329.666C166.652 336.332 167.839 342.647 172.143 347.995C176.759 353.729 184.107 354.887 190.188 350.791C192.562 349.192 194.898 347.405 196.836 345.319C205.154 336.387 213.305 327.302 221.555 318.302C222.464 317.31 223.489 316.348 224.638 315.673C230.68 312.103 234.523 306.981 236.145 300.127C237.875 292.833 237.759 285.501 236.769 278.143C236.431 275.633 236.367 275.642 233.861 275.522C232.486 275.458 231.619 274.71 231.628 273.517C231.64 272.226 232.362 271.516 233.622 271.452C235.227 271.375 236.837 271.349 238.447 271.358C244.019 271.388 249.322 272.953 254.677 274.235C256.504 274.671 258.426 274.868 260.305 274.868C260.988 274.868 261.944 274.116 262.26 273.461C262.465 273.038 261.906 271.892 261.376 271.537C259.404 270.221 257.41 268.831 255.228 267.946C248.114 265.06 240.595 264.333 232.994 264.398H233.015ZM272.337 102.157C274.861 102.358 276.569 102.435 278.26 102.649C279.472 102.803 280.228 103.56 280.126 104.851C280.019 106.142 279.178 106.715 277.927 106.698C277.197 106.689 276.458 106.685 275.736 106.574C274.613 106.403 274.43 106.903 274.276 107.933C273.968 109.99 273.618 112.098 272.85 114.009C271.808 116.591 269.523 117.63 266.774 117.271C263.618 116.856 260.975 115.309 258.49 113.457C252.683 109.135 248.456 103.538 245.428 96.9926C245.193 96.4796 244.903 95.8126 244.459 95.6031C239.685 93.367 237.029 89.3695 234.903 84.7563C233.942 82.6656 232.546 80.6818 230.974 79.0015C229.95 77.9028 228.318 77.2358 226.841 76.7185C225.278 76.1712 224.89 76.633 225.423 78.1678C225.838 79.3564 226.316 80.5749 227.033 81.5967C230.364 86.3468 232.396 91.6483 233.955 97.1764C234.762 100.041 235.697 102.871 236.44 105.753C239.228 116.63 245.817 124.599 255.258 130.324C257.461 131.658 259.284 133.197 260.907 135.224C264.566 139.798 268.422 144.219 272.32 148.593C279.331 156.464 286.394 164.288 293.512 172.065C297.547 176.473 302.701 178.106 308.593 177.67C317.829 176.986 327.637 169.487 324.004 156.729C323.581 155.25 322.919 154.117 321.724 153.133C312.804 145.767 303.935 138.332 295.028 130.948C293.879 129.999 293.187 128.883 292.876 127.421C291.932 122.983 291.01 118.537 289.895 114.141C287.782 105.804 285.356 97.557 281.454 89.8526C280.245 87.4712 278.695 85.2565 277.231 83.0119C277.004 82.6656 276.355 82.3364 275.971 82.4005C273.144 82.8836 270.33 83.4651 267.517 84.0252C263.118 84.9059 258.733 85.8294 254.327 86.6631C251.355 87.2232 249.561 89.1514 248.233 91.6611C248.084 91.9476 248.131 92.4393 248.268 92.7556C249.015 94.5043 249.822 96.2273 250.599 97.9631C250.911 98.6643 251.158 98.5318 251.756 98.1341C253.439 97.014 255.112 95.6587 257 95.1029C263.165 93.2773 269.421 91.7552 275.651 90.1433C276.962 89.8056 277.991 90.3956 278.307 91.5329C278.623 92.6744 278.055 93.6578 276.731 94.0768C275.433 94.4872 274.105 94.8207 272.786 95.1713C267.982 96.4454 263.165 97.6895 258.37 98.9935C256.701 99.4467 255.1 100.131 254.211 101.743C253.972 102.174 253.925 103.017 254.19 103.367C256.85 106.856 259.963 109.866 263.87 111.94C264.848 112.457 265.932 112.812 267.008 113.102C268.17 113.419 269.079 112.919 269.387 111.751C269.754 110.345 270.002 108.895 270.19 107.455C270.215 107.245 269.605 106.719 269.336 106.749C268.127 106.877 266.936 107.147 265.736 107.373C264.16 107.677 263.123 107.164 262.828 105.928C262.529 104.693 263.191 103.667 264.771 103.367C267.538 102.837 270.335 102.465 272.346 102.149L272.337 102.157ZM230.786 233.251C230.876 233.418 230.97 233.58 231.06 233.747C232.605 233.388 234.151 233.016 235.705 232.669C242.516 231.147 249.348 229.617 256.376 229.929C258.562 230.027 260.86 230.532 262.845 231.434C265.962 232.853 266.893 236.718 265.014 239.557C264.288 240.652 264.528 240.972 265.548 241.562C269.178 243.653 269.647 247.095 266.645 250.036C265.407 251.251 263.985 252.456 262.414 253.106C259.011 254.517 255.484 255.654 251.953 256.736C248.148 257.903 244.288 258.878 240.449 259.934C240.466 260.066 240.479 260.195 240.496 260.327C242.542 260.631 244.6 260.866 246.632 261.247C252.614 262.358 258.434 263.91 263.426 267.651C263.716 267.869 264.126 267.993 264.489 268.023C267.115 268.241 269.131 267.249 270.053 264.718C271.116 261.794 272.256 258.852 272.888 255.817C276.39 239.001 279.793 222.165 283.119 205.311C284.024 200.723 284.639 196.072 285.186 191.424C285.51 188.671 284.135 186.589 281.496 185.794C278.623 184.926 275.655 183.989 272.692 183.848C263.926 183.433 255.138 183.288 246.359 183.267C243.315 183.258 240.266 183.934 237.217 184.289C234.51 184.605 232.887 186.2 232.187 188.735C231.474 191.322 230.735 193.913 230.283 196.551C229.168 203.015 227.371 209.394 227.78 216.064C227.857 217.312 228.071 217.47 229.164 216.897C232.661 215.059 236.145 213.178 239.745 211.557C242.217 210.446 244.826 209.509 247.465 208.907C251.85 207.906 255.142 209.954 255.979 213.887C256.598 216.786 255.339 219.061 253.135 220.638C250.774 222.331 248.195 223.751 245.599 225.068C242.909 226.432 239.988 227.364 237.341 228.8C235.031 230.057 232.96 231.75 230.782 233.255L230.786 233.251ZM194.539 144.138C194.253 142.556 194.069 140.948 193.659 139.401C192.489 135.01 189.129 132.616 185.405 130.598C183.702 129.674 183.715 129.704 182.976 131.423C178.74 141.248 172.011 148.674 162.006 152.779C160.23 153.505 158.919 154.219 158.889 156.306C158.881 156.772 158.782 157.238 158.727 157.704C159.171 157.55 159.641 157.447 160.055 157.238C170.478 151.971 181.345 148.033 192.912 146.207C194.253 145.993 194.684 145.412 194.547 144.138H194.539ZM275.591 75.3974C275.497 74.9057 275.454 74.6278 275.386 74.3499C272.384 62.1478 270.672 49.8217 271.722 37.2177C271.812 36.1531 271.786 35.0628 271.688 33.9983C271.526 32.3009 270.702 31.6981 269.254 32.5745C267.944 33.3698 266.697 34.5541 265.894 35.8581C264.203 38.6072 263.738 41.7924 263.499 44.9733C262.871 53.3831 264.626 61.4765 266.812 69.5101C266.906 69.8607 267.128 70.2796 267.414 70.4549C270.057 72.0882 272.73 73.6743 275.591 75.3931V75.3974ZM245.945 82.1953C246.013 82.2167 246.081 82.2381 246.15 82.2594C246.261 83.3753 246.35 84.4955 246.513 85.6028C246.53 85.7311 247.042 85.9534 247.183 85.8765C248.865 84.9316 250.501 83.8969 252.196 82.982C252.772 82.6699 253.041 82.5844 252.392 82.0585C251.462 81.3017 251.304 80.3227 251.948 79.3179C252.614 78.279 253.609 78.2277 254.668 78.6424C256.304 79.2837 257.913 79.9935 259.566 80.5749C260.219 80.8058 260.992 80.9511 261.667 80.8443C264.989 80.3184 268.294 79.6984 271.603 79.0956C271.876 79.0443 272.128 78.8947 272.389 78.792C272.196 78.5484 272.051 78.2149 271.799 78.0738C268.708 76.3166 265.719 74.3114 262.465 72.9432C259.861 71.8487 256.961 71.2331 254.139 70.9552C250.467 70.596 248.438 72.1138 247.333 75.6368C246.666 77.7531 246.397 79.9977 245.949 82.1868L245.945 82.1953ZM216.866 224.037C219.014 222.695 220.829 221.57 222.631 220.425C222.866 220.275 223.088 220.048 223.216 219.8C224.454 217.436 223.592 213.007 221.568 211.237C220.329 210.155 219.864 210.211 219.501 211.767C218.574 215.739 217.78 219.736 216.862 224.033L216.866 224.037Z" fill="black"/>
<path d="M146.788 119.233C143.223 118.874 139.085 117.818 135.37 115.518C132.253 113.585 132.377 110.836 135.754 109.374C138.462 108.203 141.331 107.301 144.213 106.651C149.196 105.522 154.243 104.68 159.265 103.726C160.178 103.551 161.101 103.551 161.464 104.616C161.814 105.65 161.225 106.206 160.311 106.651C159.935 106.834 159.679 107.442 159.542 107.908C158.731 110.648 157.651 113.243 155.759 115.428C153.543 117.989 150.797 119.255 146.792 119.233H146.788ZM148.022 116.27C148.791 116.014 150.268 115.762 151.485 115.06C154.132 113.538 155.332 110.879 156.293 108.117C156.536 107.424 156.22 107.258 155.554 107.386C153.739 107.745 151.891 107.959 150.101 108.416C145.908 109.49 141.745 110.661 137.573 111.824C137.236 111.918 136.963 112.243 136.655 112.465C136.92 112.726 137.138 113.068 137.454 113.235C140.541 114.885 143.842 115.843 148.022 116.266V116.27Z" fill="black"/>
<path d="M97.9782 126.81C100.698 126.908 103.059 128.041 105.224 129.597C106.36 130.414 106.241 131.521 105.293 132.607C104.481 133.531 103.794 134.591 103.183 135.66C102.714 136.485 102.103 137.139 101.249 136.647C100.737 136.352 100.233 135.386 100.335 134.83C100.519 133.817 101.202 132.902 101.565 131.906C101.672 131.611 101.527 130.948 101.313 130.846C98.1106 129.315 96.4966 129.439 94.3701 131.782C94.1396 132.034 93.9389 132.44 93.6656 132.5C93.0593 132.628 92.1626 132.842 91.8551 132.543C91.4666 132.162 91.2232 131.089 91.4879 130.683C92.9909 128.379 95.0192 126.788 97.974 126.805L97.9782 126.81Z" fill="black"/>
<path d="M144.88 70.9255C146.528 71.5754 148.189 72.1954 149.812 72.9051C150.089 73.0248 150.2 73.5165 150.392 73.8328C150.055 73.9868 149.705 74.286 149.376 74.2647C148.309 74.1963 147.25 73.8927 146.191 73.9055C145.068 73.9226 143.941 74.1749 142.83 74.3972C142.634 74.4357 142.514 74.8461 142.361 75.0855C142.6 75.2053 142.826 75.3848 143.078 75.4319C144.649 75.7397 145.918 76.4836 146.648 77.9501C147.527 79.7244 146.545 81.2507 144.59 81.2208C142.301 81.1823 139.893 79.4722 139.188 77.3857C138.569 75.5516 140.529 72.3193 142.736 71.6053C143.381 71.3958 144.069 71.336 144.739 71.2034C144.79 71.1094 144.837 71.0111 144.889 70.917L144.88 70.9255Z" fill="black"/>
<path d="M110.921 104.047C109.324 104.03 107.638 102.97 106.707 101.174C105.772 99.3741 106.762 97.6938 108.129 96.4796C109.158 95.5647 110.392 94.7609 111.677 94.2949C112.48 94.0041 113.551 94.3889 114.482 94.5599C114.73 94.607 114.918 94.9918 115.131 95.2226C114.871 95.3124 114.606 95.3894 114.354 95.492C113.026 96.035 111.69 96.5694 110.379 97.1551C110.153 97.2577 110.033 97.5955 109.866 97.8264C110.148 97.9546 110.422 98.1299 110.716 98.1983C112.621 98.6302 113.671 99.6776 113.855 101.371C114.055 103.196 113.321 104.017 110.917 104.043L110.921 104.047Z" fill="black"/>
<path d="M195.308 28.56C195.496 28.7909 195.705 29.0046 195.91 29.2184C198.903 32.3822 201.892 35.5461 204.894 38.7013C205.141 38.9621 205.406 39.2315 205.705 39.3897C206.217 39.6676 206.747 39.5992 207.195 39.1887C207.46 38.9493 207.695 38.6629 207.93 38.385C214.932 30.0436 222.567 22.5017 230.68 15.5626C230.902 15.3745 231.128 15.1821 231.316 14.9513C231.671 14.5237 231.735 14.0149 231.53 13.4848C231.316 12.9418 230.898 12.7451 230.36 12.728C230.15 12.7665 229.899 12.7879 229.659 12.8563C224.138 14.4639 218.929 16.8282 214.403 20.8599C211.76 23.2157 209.386 25.8793 207.212 28.778C207.114 28.9148 207.02 29.0517 206.913 29.1842C206.499 29.7058 206.504 29.6973 206.064 29.2056C205.094 28.1196 204.159 26.9866 203.13 25.9819C202.481 25.3491 201.721 24.8233 200.948 24.3957C199.492 23.5962 198.041 23.7544 196.717 24.8233C196.192 25.2508 195.701 25.751 195.265 26.294C194.689 27.0166 194.736 27.8374 195.312 28.56H195.308Z" fill="white"/>
<path d="M253.066 407.757C252.968 406.65 252.379 405.637 251.298 405.231C251.23 405.205 251.162 405.184 251.093 405.166C251.038 405.141 250.982 405.115 250.923 405.094C249.168 404.44 247.259 405.508 246.512 407.142C245.888 408.501 246.055 410.459 247.408 411.332C248.147 411.81 248.963 411.999 249.838 411.84C250.769 411.674 251.627 411.135 252.216 410.395C252.793 409.668 253.147 408.694 253.066 407.757Z" fill="white"/>
</g>
<defs>
<clipPath id="clip0_1367_12034">
<rect width="400" height="415" fill="white"/>
</clipPath>
</defs>
</svg>
