<svg width="390" height="378" viewBox="0 0 390 378" fill="none" xmlns="http://www.w3.org/2000/svg">
<g clip-path="url(#clip0_1367_12032)">
<path d="M137.814 72.8506C133.17 74.4955 116.741 79.4304 119.016 97.1147C121.286 114.803 127.432 122.618 131.259 126.455C135.081 130.291 156.992 145.469 156.992 145.469L178.515 149.641C178.515 149.641 197.227 124.598 196.133 123.127C195.039 121.656 169.677 82.857 169.677 82.857L137.814 72.8506Z" fill="white"/>
<path d="M169.679 146.558L154.067 132.657L140.68 133.892C140.68 133.892 136.717 143.277 136.309 150.698C135.9 158.119 141.225 163.779 141.225 163.779C141.225 163.779 132.259 175.422 130.162 188.047C128.065 200.672 96.3262 284.838 96.3262 284.838L126.204 285.775L146.418 291.621L171.961 225.537L175.924 229.651C175.924 229.651 181.233 256.522 185.819 260.499C190.401 264.477 191.358 268.041 194.5 268.177C197.641 268.314 203.028 265.161 203.028 265.161C203.028 265.161 210.751 231.847 223.593 220.602C236.431 209.361 258.011 200.585 258.011 200.585L263.2 196.748L256.372 187.425C256.372 187.425 239.572 192.36 228.782 179.884C217.991 167.408 217.174 166.174 216.695 163.982C216.216 161.79 213.756 143.994 214.305 138.425C214.85 132.86 217.228 122.841 217.228 122.841L221.455 100.785C221.455 100.785 209.958 94.5537 196.415 98.2994C182.871 102.045 182.128 103.276 182.128 103.276L174.562 113.083L185.08 122.845L169.687 146.558H169.679Z" fill="#D5D5D5"/>
<path d="M285.326 165.39C285.734 165.254 291.616 159.084 291.542 154.149C291.472 149.214 289.012 134.406 289.012 134.406L244.001 111.244C244.001 111.244 221.533 111.94 221.269 112.42C218.673 117.132 214.524 125.12 214.549 136.411C214.574 147.702 216.299 163.563 217.826 166.6C219.354 169.637 223.515 176.507 229.599 182.665C242.156 195.364 251.906 189.244 253.046 189.381C254.185 189.518 254.73 189.381 254.73 189.381L261.669 197.883C261.669 197.883 256.232 202.955 256.096 207.616C255.96 212.278 256.373 217.934 266.75 221.737C277.128 225.541 289.998 220.656 301.168 211.317C312.343 201.977 315.236 194.362 315.236 194.362C315.236 194.362 305.404 192.261 299.938 187.873C294.473 183.485 285.326 165.39 285.326 165.39Z" fill="white"/>
<path d="M270.894 149.641C269.346 149.533 262.972 142.945 262.064 137.828C261.156 132.711 262.064 120.011 262.064 120.011C262.064 120.011 253.098 121.383 249.569 120.011C246.04 118.64 242.159 115.714 242.159 115.714C242.159 115.714 233.656 117.666 230.197 118.151C226.738 118.636 220.546 119.004 220.546 119.004C220.546 119.004 215.993 128.327 212.352 125.402C208.711 122.476 209.974 119.187 209.974 119.187C209.974 119.187 205.066 117.123 205.797 114.865C206.523 112.607 219.084 101.531 238.312 97.1102C257.54 92.6933 279.409 95.4238 288.041 110.046C296.672 124.668 294.67 137.186 294.121 141.072C293.572 144.959 291.554 146.248 291.554 146.248C291.554 146.248 288.115 139.013 280.829 141.072C273.544 143.132 270.902 149.637 270.902 149.637L270.894 149.641Z" fill="#343434"/>
<path d="M175.556 112.267C176.563 112.648 182.862 102.045 182.862 102.045C182.862 102.045 197.045 97.214 201.78 97.3963C206.515 97.5786 221.449 100.786 221.449 100.786C221.449 100.786 233.305 97.4833 238.304 95.9751C243.302 94.471 248.892 92.4573 248.892 92.4573C248.892 92.4573 245.16 82.2727 239.158 79.1112C233.156 75.9498 223.014 76.9193 219.592 74.7274C216.17 72.5355 211.786 61.9324 205.025 58.2737C198.263 54.6192 181.76 52.6055 177.384 55.1661C173.009 57.7268 170.239 65.8356 170.239 65.8356C170.239 65.8356 159.746 59.2765 147.148 62.7362C134.553 66.196 129.484 71.9845 127.115 73.9982C124.746 76.0078 110.492 88.6992 112.548 102.045C114.599 115.387 116.865 115.64 120.378 118.876C123.891 122.112 127.115 120.546 127.115 120.546C127.115 120.546 121.154 103.21 120.56 97.214C119.966 91.2184 124.931 84.6013 127.115 82.4053C129.299 80.2134 133.488 77.1431 134.946 78.0381C136.403 78.933 146.784 96.7499 149.15 99.0827C151.519 101.415 156.988 102.924 161.492 102.041C165.996 101.159 168.348 95.6519 169.678 95.9751C171.003 96.2983 176.113 95.9958 177.384 99.986C178.656 103.976 175.56 112.263 175.56 112.263L175.556 112.267Z" fill="#343434"/>
<path d="M255.059 201.861C255.059 201.861 234.655 212.547 223.452 223.038C212.253 233.53 204.179 260.951 203.027 267.804C201.876 274.658 199.824 281.789 200.233 281.925C200.641 282.062 218.139 288.82 218.139 288.82C218.139 288.82 233.285 288.708 235.881 290.73C238.478 292.756 273.032 308.112 275.079 308.522C277.127 308.932 338.727 300.708 342.554 300.024C346.376 299.34 381.343 297.832 391.04 299.887C400.736 301.942 414.804 308.539 414.804 308.539C414.804 308.539 411.725 286.968 400.6 268.356C389.471 249.743 371.643 232.846 368.914 229.693C366.182 226.54 340.37 202.822 333.947 200.08C327.528 197.337 314.278 195.368 314.278 195.368C314.278 195.368 301.94 218.588 284.408 222.156C266.881 225.719 260.463 220.648 257.866 214.341C255.27 208.035 255.051 201.865 255.051 201.865L255.059 201.861Z" fill="black"/>
<path d="M244.623 336.097C244.623 336.097 251.591 333.068 252.136 333.478C252.681 333.889 269.617 336.097 269.617 336.097L369.871 340.054L376.018 373.231L244.623 336.093V336.097Z" fill="black"/>
<path d="M254.973 200.966C242.981 206.705 230.891 212.8 221.871 222.86C212.91 232.854 207.638 245.6 204.179 258.436C203.098 262.455 202.293 266.549 201.529 270.639C200.815 274.471 199.473 279.025 200.192 282.907C200.592 285.062 203.287 283.877 203.969 282.671C205.607 279.771 205.983 275.797 206.676 272.561C207.391 269.238 208.146 265.923 209 262.633C210.672 256.178 212.522 249.805 215.221 243.698C220.212 232.403 227.642 223.196 237.953 216.401C243.865 212.506 250.279 209.406 256.616 206.286C259.798 204.72 258.63 199.214 254.973 200.962V200.966Z" fill="white"/>
<path d="M242.85 290.962C242.594 290.063 242.425 289.317 242.346 288.418C242.28 287.697 242.268 286.972 242.115 286.26C241.793 284.772 241.211 283.285 240.745 281.838C239.841 279.021 238.842 276.249 237.772 273.494C236.703 270.742 235.589 268.008 234.412 265.298C233.24 262.6 231.911 260.495 229.863 258.395C229.244 257.761 228.175 258.71 228.241 259.414C228.526 262.372 229.17 264.896 230.247 267.672C231.321 270.432 232.34 273.208 233.31 276.004C234.235 278.677 235.127 281.366 236.01 284.055C236.489 285.51 236.844 287.043 237.409 288.464C237.995 289.927 238.833 291.116 239.267 292.645C239.948 295.056 243.457 293.109 242.85 290.967V290.962Z" fill="white"/>
<path d="M343.326 294.981C340.556 291.679 337.757 288.397 334.962 285.112C332.49 282.203 329.848 278.18 326.269 276.609C324.973 276.038 323.788 277.666 324.069 278.83C324.998 282.634 328.358 285.982 330.727 288.986C333.311 292.263 335.887 295.549 338.492 298.81C340.77 301.665 345.484 297.563 343.317 294.981H343.326Z" fill="white"/>
<path d="M289.498 109.793C288.375 107.539 286.026 105.704 284.07 104.179C281.927 102.509 279.579 101.117 277.213 99.7952C272.421 97.1186 267.195 95.4653 261.754 94.7982C249.693 93.319 237.689 96.468 226.779 101.519C220.195 104.569 214.032 108.351 208.047 112.445C206.503 113.502 206.098 116.651 208.224 117.335C209.301 117.678 210.292 118.113 211.279 118.569C210.886 120.21 211.192 121.942 212.682 123.09C214.903 124.805 218.952 123.873 219.064 120.757C219.076 120.38 218.796 119.916 218.42 119.812C217.904 119.671 217.124 119.692 216.69 119.51C216.224 119.315 216.203 118.979 216.009 119.129C217.532 117.927 217.673 115.565 215.844 114.633C215.588 114.505 215.336 114.376 215.08 114.256C226.35 107.515 238.411 101.884 251.637 100.74C257.92 100.197 264.4 100.968 270.456 102.7C273.519 103.578 276.479 104.73 279.153 106.479C280.507 107.365 281.808 108.335 283.029 109.396C284.251 110.456 285.292 111.749 286.629 112.661C288.437 113.9 290.356 111.517 289.494 109.785L289.498 109.793Z" fill="white"/>
<path d="M147.032 159.449C143.667 160.576 141.092 164.873 139.259 167.761C137.108 171.15 135.213 174.705 133.723 178.434C130.76 185.876 128.716 193.641 126.57 201.343C121.653 218.99 115.569 236.128 108.795 253.137C104.935 262.832 100.77 272.404 96.3247 281.847C94.3186 286.11 100.325 288.021 102.19 284.055C106.087 275.781 109.769 267.407 113.22 258.933C116.63 250.551 119.548 242.065 122.483 233.513C125.459 224.845 128.221 216.102 130.739 207.285C132.943 199.562 134.784 191.706 137.43 184.119C138.883 179.955 140.522 175.799 142.545 171.875C143.486 170.048 144.547 168.308 145.657 166.58C146.867 164.695 148.344 163.141 148.922 160.949C149.252 159.702 148.043 159.109 147.036 159.445L147.032 159.449Z" fill="white"/>
<path d="M205.013 263.595C204.435 262.393 202.896 261.884 201.698 262.551C198.92 264.084 196.493 261.08 195.02 259.074C192.902 256.203 190.958 253.157 189.15 250.079C185.468 243.81 182.888 237.164 181.166 230.107C180.386 226.9 179.094 223.279 176.692 220.946C174.306 218.63 171.33 217.018 168.89 214.747C164.226 210.409 160.68 204.973 159.029 198.787C158.005 194.942 157.864 190.927 156.069 187.318C154.723 184.612 152.164 181.107 148.87 181.355C147.768 181.438 147.322 182.835 147.751 183.688C148.482 185.138 149.84 185.988 150.653 187.396C151.524 188.909 151.751 190.84 152.073 192.538C152.758 196.197 153.06 199.926 154.112 203.51C156.028 210.024 159.561 216.123 164.585 220.702C167.218 223.105 170.248 224.982 172.878 227.389C175.391 229.689 176.18 233.244 177.051 236.455C179.028 243.731 181.839 250.87 185.629 257.392C187.643 260.864 190.186 264.987 193.443 267.411C196.551 269.723 201.009 270.228 203.956 267.357C204.964 266.375 205.678 264.987 205.005 263.595H205.013Z" fill="white"/>
<path d="M168.956 163.538C164.758 161.284 162.467 160.621 157.918 159.213C153.39 157.808 148.775 157 144.177 155.906C144.152 155.902 144.127 155.898 144.102 155.894C142.975 152.728 142.633 149.169 142.823 145.953C142.955 143.724 143.405 141.425 144.086 139.299C144.783 137.115 146.133 135.085 146.369 132.777C146.501 131.464 145.407 130.096 143.999 130.892C139.07 133.668 137.576 141.23 137.254 146.426C136.891 152.285 138.501 157.414 140.932 162.602C141.006 162.776 141.085 162.95 141.18 163.124C141.708 164.23 143.347 164.276 144.296 163.845C145.13 163.464 146.876 161.761 147.174 160.936C154.955 162.304 159.974 164.45 167.115 167.45C169.77 168.564 171.59 164.955 168.96 163.542L168.956 163.538Z" fill="white"/>
<path d="M104.925 337.725C105.032 337.315 80.3101 272.329 76.8963 265.472C73.4826 258.614 68.2897 256.559 62.2836 253.543C56.2734 250.526 -12.9759 229.689 -15.981 229.552C-18.9861 229.415 -23.2213 229.034 -23.4937 232.307C-23.7662 235.585 -0.274416 300.844 1.36435 305.365C3.00312 309.89 13.4467 320.994 13.4467 320.994C13.4467 320.994 9.42197 327.574 12.8357 329.907C16.2495 332.235 71.1586 353.624 92.7391 355.957C114.32 358.285 134.534 355.273 140.953 354.312C147.372 353.35 180.176 346.771 182.487 344.989C184.799 343.207 185.753 340.191 184.25 336.627C182.748 333.064 165.13 325.25 163.214 324.976C161.299 324.703 117.597 313.478 117.184 313.059C116.776 312.641 95.9135 306.003 95.9135 306.003L104.92 337.73L104.925 337.725Z" fill="#343434"/>
<path d="M100.528 316.2C101.072 316.2 155.432 332.612 155.432 332.612C155.432 332.612 118.145 341.426 115.685 340.875C113.225 340.328 106.261 338.268 106.261 338.268L100.523 316.196L100.528 316.2Z" fill="#EDEDED"/>
<path d="M31.4227 290.055C30.8159 289.156 29.9656 288.195 28.9419 287.772C27.5178 287.179 25.8171 287.614 24.8512 288.853C24.5416 289.247 24.331 289.657 24.1948 290.08C23.233 292.073 24.2278 294.049 25.4249 295.765C26.1225 296.763 26.9316 297.865 28.1204 298.276C29.6478 298.802 31.2576 297.932 32.0915 296.655C33.4083 294.633 32.6818 291.928 31.4186 290.055H31.4227Z" fill="white"/>
<path d="M176.798 68.4871C169.876 65.3547 163.057 63.1421 155.358 63.3741C148.196 63.5937 141.129 65.45 134.909 69.0507C123.425 75.6885 113.526 89.0843 113.311 102.745C113.196 110.241 116.56 117.857 123.784 120.819C125.435 121.499 126.896 118.669 125.158 117.881C111.879 111.84 116.465 94.1145 122.987 84.7461C129.736 75.0545 141.307 68.7357 153.03 68.0728C160.002 67.6792 168.241 68.8228 174.297 72.5353C176.877 74.1181 179.605 69.755 176.798 68.4871Z" fill="white"/>
<path d="M222.515 75.9084C213.628 70.8534 209.422 59.4216 199.164 56.4548C193.158 54.7146 186.735 54.7394 180.63 55.9369C178.025 56.4466 175.297 57.3871 173.468 59.4216C171.837 61.2323 170.768 63.9172 172.25 66.047C172.803 66.8384 173.872 66.3743 174.232 65.6575C175.297 63.5277 176.655 62.2391 178.958 61.5637C181.402 60.8469 183.994 60.4574 186.533 60.2793C191.841 59.9063 196.634 60.9961 201.612 62.6866C203.746 63.4117 210.586 68.9391 211.775 70.8285C212.877 72.5854 214.016 74.3339 215.387 75.896C216.885 77.5989 222.635 79.1817 225.095 78.6141C226.813 78.2163 224.352 76.9608 222.52 75.9167L222.515 75.9084Z" fill="white"/>
<path d="M95.6124 122.415L82.2216 123.977C82.2216 123.977 77.586 140.041 58.8702 142.709C40.1544 145.378 25.5417 133.171 20.0805 120.011C14.6152 106.852 12.0476 91.8855 24.3157 80.9385C36.5837 69.9915 54.0529 65.4461 68.9587 72.8505C83.8645 80.2548 87.691 94.4379 88.0997 101.125C88.5084 107.813 88.0997 113.403 88.0997 113.403L95.6124 122.419V122.415Z" fill="#FFE380"/>
<path d="M117.464 54.0224C116.378 54.1053 112.597 64.1283 98.9009 65.4459C83.1778 66.9542 72.6393 51.0391 70.0553 44.19C67.4712 37.3408 63.5704 23.4934 77.2254 13.3502C90.8763 3.20281 104.35 1.28439 116.234 9.51331C128.118 17.7381 127.846 25.275 127.569 32.1988C127.297 39.1267 125.472 48.3127 125.472 48.3127V60.652C125.472 60.652 118.451 53.952 117.46 54.0307L117.464 54.0224Z" fill="#FFE380"/>
<path d="M270.894 69.465L268.892 83.7227L281.548 75.6802C281.548 75.6802 304.586 73.6706 311.686 71.4746C318.79 69.2827 327.529 62.0897 329.898 55.0831C332.268 48.0765 330.72 38.244 329.077 34.432C327.434 30.6201 318.423 13.1595 301.668 7.22191C284.913 1.28018 269.924 -1.27219 257.413 6.39736C244.901 14.0711 239.84 25.5899 240.385 33.2677C240.93 40.9456 245.665 53.1025 253.954 59.9558C262.238 66.8091 270.89 69.4609 270.89 69.4609L270.894 69.465Z" fill="#FFE380"/>
<path d="M124.539 17.5434C123.379 14.0174 119.544 9.9319 116.399 8.4734C112.915 6.85745 109.192 6.07848 105.373 5.85888C97.7038 5.42381 89.6131 6.95275 82.4801 9.76616C74.8724 12.766 69.015 20.1 68.2637 28.2916C67.4505 37.113 71.4587 45.7604 76.1273 52.9949C78.7073 56.9892 81.9064 60.6811 85.9971 63.163C88.1807 64.4848 90.3726 65.4875 92.9361 65.7112C94.0506 65.8065 95.2312 65.8811 96.3416 65.7651C97.6212 65.6325 98.4881 65.0275 99.6851 64.6008C100.519 64.3024 100.498 63.0387 99.6232 62.8688C98.8059 62.7113 97.8193 62.0857 96.9855 61.8412C96.1393 61.5926 95.3385 61.315 94.5459 60.9214C92.9526 60.1383 91.2973 59.3303 89.8278 58.3234C86.8474 56.2807 84.4945 53.5253 82.5049 50.5296C78.6866 44.7826 75.0541 37.5191 74.6165 30.5208C74.4143 27.2599 75.0417 23.9658 76.9983 21.2891C78.827 18.7865 81.2872 17.1788 83.8754 15.567C89.4604 12.0865 96.0155 10.4498 102.566 10.4125C106.224 10.3918 109.984 10.8476 113.505 11.8586C115.194 12.3434 116.787 12.9815 118.298 13.8889C119.986 14.9041 121.212 15.8902 123.169 16.3418C123.912 16.5117 124.812 18.3514 124.547 17.5434H124.539Z" fill="white"/>
<path d="M319.751 19.9799C318.199 18.2273 316.498 16.6486 314.793 15.0492C312.981 13.3504 311.635 11.2994 309.485 10.0273C305.233 7.52055 300.746 5.84244 296.04 4.42952C286.476 1.5581 276.49 1.45451 266.856 4.13948C256.834 6.93632 247.959 13.0852 244.099 23.1C240.487 32.4601 241.238 42.8974 246.122 51.6526C248.722 56.314 252.388 60.1798 256.776 63.1797C258.926 64.6506 261.259 66.0594 263.686 67.0166C264.924 67.5055 266.299 68.0358 267.616 68.243C268.998 68.4626 270.472 68.3673 271.871 68.4999C272.544 68.5662 272.895 67.5884 272.288 67.2569C270.476 66.2624 268.87 64.8454 267.124 63.7266C265.259 62.5333 263.38 61.3359 261.634 59.9685C258.32 57.3789 255.418 54.2215 253.044 50.7493C248.334 43.8504 246.761 35.2693 248.916 27.1606C253.758 8.95004 277.019 6.5344 292.635 8.82988C297.299 9.5177 301.823 11.1709 305.997 13.3545C307.053 13.9098 308.085 14.6514 309.212 15.0575C310.38 15.4801 311.222 15.5009 312.304 16.2301C314.455 17.672 316.292 19.4164 318.009 21.3556C318.876 22.3334 320.56 20.8874 319.751 19.9758V19.9799Z" fill="white"/>
<path d="M79.8475 81.9825C76.1655 77.7231 71.3854 73.9691 66.4072 71.3338C61.3464 68.653 55.0101 67.7663 49.3549 68.0936C37.5161 68.7773 26.0241 74.7771 19.6465 84.9824C13.0378 95.569 12.5672 108.207 18.6104 119.149C24.2532 129.367 34.1602 137.965 45.2889 141.57C51.1216 143.459 57.6684 142.887 63.5383 141.4C68.9664 140.02 75.1872 137.016 77.9528 131.874C78.506 130.846 77.3089 130.072 76.4627 130.689C72.5494 133.556 69.1192 136.212 64.2813 137.368C59.5838 138.495 55.0926 137.857 50.5767 136.283C45.8255 134.625 41.6523 132.661 37.7143 129.454C33.8712 126.326 30.4863 122.564 27.6257 118.52C24.7692 114.48 22.404 109.872 21.8756 104.883C21.3885 100.255 22.1026 95.511 23.9891 91.2556C27.8858 82.4673 36.286 76.8239 45.5861 75.1914C51.1959 74.2053 56.7727 74.8641 62.2297 76.3184C65.0243 77.0601 67.9923 77.6112 70.6135 78.8667C73.2636 80.1346 75.8394 81.8997 78.2211 83.6068C79.1169 84.249 80.5947 82.8692 79.831 81.9908L79.8475 81.9825Z" fill="white"/>
<path d="M278.868 42.3172C278.034 42.6321 277.25 42.9387 276.461 43.2246C275.136 43.7094 273.77 44.045 272.366 44.1942C270.047 44.4386 267.937 43.9663 266.241 42.2426C265.489 41.4802 265.019 40.5438 264.651 39.5535C264.363 38.7745 264.363 38.7911 263.52 38.7579C262.245 38.7041 260.969 38.6461 259.698 38.5466C258.889 38.4845 258.319 38.0784 258.109 37.2331C257.902 36.3962 258.134 35.7208 258.757 35.1573C259.269 34.689 259.896 34.7595 260.503 34.7968C261.267 34.8465 262.03 34.9377 262.794 34.9874C263.979 35.0661 263.983 35.0578 264.14 33.8811C264.594 30.4627 265.96 27.5043 268.519 25.1508C269.807 23.9616 271.289 23.1453 273.035 22.8553C274.843 22.5528 276.399 23.3815 277.167 25.0555C277.7 26.2115 277.745 27.438 277.596 28.6727C277.398 30.2928 276.845 31.801 276.02 33.2098C274.505 35.7829 272.21 37.2829 269.399 38.0908C269.2 38.1488 269.002 38.1903 268.804 38.2483C268.251 38.4057 268.234 38.4555 268.532 38.9775C268.961 39.7399 269.593 40.1957 270.468 40.3324C271.632 40.5148 272.763 40.349 273.881 40.0631C276.032 39.5203 277.993 38.5259 279.937 37.4983C280.251 37.3326 280.569 37.1503 280.903 37.0425C282.438 36.5412 283.731 37.6268 283.495 39.2178C283.446 39.541 283.314 39.8559 283.231 40.175C283.062 40.8421 282.851 41.505 282.756 42.1846C282.645 42.9635 282.921 43.3157 283.664 43.5643C283.784 43.6058 283.908 43.6514 284.032 43.6638C285.596 43.7839 287.144 43.7839 288.659 43.266C289.089 43.121 289.283 42.9014 289.287 42.4456C289.299 41.2067 289.505 40.001 289.955 38.8408C291.334 35.294 294.001 33.3548 297.662 32.6795C298.058 32.6049 298.479 32.6173 298.884 32.6463C301.03 32.7872 302.38 34.5937 301.807 36.6738C301.588 37.4735 301.187 38.2483 300.737 38.9485C299.297 41.1819 297.299 42.8517 295.111 44.3143C294.748 44.5546 294.376 44.7784 294.005 45.0063C293.526 45.3087 293.514 45.3129 293.761 45.8515C294.574 47.6208 295.966 48.7064 297.815 49.2077C299.441 49.6511 301.105 49.6387 302.764 49.4522C303.268 49.3942 303.916 49.4108 304.217 49.1083C304.51 48.8141 304.448 48.1594 304.531 47.6622C305.051 44.5919 306.669 42.3379 309.484 40.9788C310.785 40.349 312.167 39.9885 313.608 39.8767C314.487 39.8104 315.346 39.9098 316.159 40.2703C317.649 40.9374 318.343 42.4456 317.885 44.016C317.649 44.8157 317.212 45.5076 316.688 46.1416C314.987 48.1843 312.836 49.6428 310.525 50.8858C310.095 51.1137 309.658 51.3251 309.22 51.5322C308.944 51.6648 308.911 51.8223 309.084 52.0709C309.571 52.7711 310.178 53.3263 311.065 53.3678C311.85 53.4009 312.659 53.4175 313.422 53.2725C314.859 53.0032 315.994 54.1923 315.709 55.626C315.59 56.2268 315.288 56.6784 314.69 56.8566C311.66 57.764 307.87 57.5237 305.716 53.8567C305.171 52.9327 305.167 52.9493 304.139 53.1233C301.559 53.5584 299 53.5584 296.477 52.7711C293.633 51.8844 291.557 50.1234 290.302 47.4095C290.038 46.8377 290.038 46.8625 289.382 47.0076C288.436 47.2147 287.487 47.4219 286.529 47.5711C285.142 47.7865 283.772 47.6167 282.443 47.1857C280.432 46.5311 279.219 45.1844 278.967 43.0423C278.942 42.8185 278.905 42.5989 278.872 42.3337L278.868 42.3172ZM273.828 27.7777C273.906 26.6217 273.712 26.4353 272.499 26.9822C272.474 26.9946 272.453 27.0029 272.428 27.0153C269.754 28.5733 268.445 31.0138 267.958 33.9764C267.884 34.4197 267.995 34.4902 268.408 34.4031C271.372 33.7899 273.807 30.8066 273.824 27.7777H273.828ZM313.662 43.8295C311.259 43.7632 308.518 45.8391 308.584 47.6208C310.417 46.5932 312.118 45.4538 313.662 43.8295ZM297.637 36.682C295.454 37.0964 293.348 39.2261 293.423 40.8711C295.07 39.6861 296.527 38.356 297.637 36.682Z" fill="white"/>
<path d="M69.1276 110.875C69.4207 110.921 69.7137 110.991 70.011 111.008C71.2534 111.082 72.4547 110.854 73.6311 110.477C73.9944 110.361 74.3659 110.249 74.7167 110.096C76.0955 109.487 77.4246 110.937 77.2017 112.176C77.0903 112.798 76.8343 113.299 76.2275 113.543C73.9737 114.447 71.6745 115.089 69.2101 114.799C67.9016 114.646 66.7293 114.144 65.8005 113.208C65.4084 112.814 65.074 112.777 64.5828 112.963C62.3166 113.825 59.972 114.31 57.5406 114.293C56.2569 114.285 54.9979 114.09 53.7843 113.635C52.5129 113.154 51.4107 112.429 50.5893 111.339C50.354 111.024 50.1476 110.933 49.7554 111.049C49.1486 111.236 48.5171 111.36 47.8896 111.472C46.0032 111.799 44.2241 111.43 42.544 110.568C41.3181 109.939 40.4182 108.99 39.8692 107.714C39.6669 107.245 39.6463 107.237 39.2376 107.511C37.1241 108.919 34.7547 109.296 32.2863 109.255C31.4524 109.243 30.891 108.824 30.6145 108.033C30.342 107.262 30.4947 106.578 31.0396 105.965C31.3946 105.567 31.857 105.489 32.3564 105.447C33.2728 105.368 34.1892 105.286 35.0973 105.161C35.9807 105.041 36.7526 104.643 37.4378 104.088C38.5648 103.177 39.4977 102.103 40.1622 100.802C40.315 100.508 40.4553 100.202 40.637 99.9239C41.1983 99.0538 42.2303 98.7306 43.1096 99.1325C43.9805 99.5303 44.4057 100.442 44.1498 101.445C44.0425 101.863 43.8691 102.269 43.7081 102.671C43.3448 103.591 43.221 104.544 43.2582 105.53C43.2871 106.268 43.6132 106.81 44.253 107.142C44.6121 107.328 45.0043 107.498 45.3964 107.56C46.3334 107.714 47.2787 107.734 48.2116 107.498C48.9753 107.303 48.9918 107.299 48.9629 106.52C48.8638 103.752 49.6811 101.266 51.2993 99.0413C52.4798 97.4171 53.9618 96.1368 55.8317 95.3661C56.3435 95.1548 56.9049 95.018 57.4581 94.9642C59.3569 94.7819 60.7274 96.0498 60.7439 97.964C60.7521 98.8217 60.5375 99.638 60.2279 100.429C59.0638 103.4 57.2063 105.874 54.8534 107.995C54.5892 108.236 54.3044 108.455 54.0361 108.696C53.6233 109.06 53.5985 109.205 54.0856 109.491C54.6057 109.798 55.1712 110.1 55.7533 110.22C57.8502 110.643 59.9265 110.419 61.9657 109.831C62.4322 109.698 62.8862 109.52 63.3486 109.379C63.6705 109.28 63.7613 109.085 63.7655 108.754C63.7655 107.962 63.7242 107.154 63.8687 106.384C64.4301 103.438 66.0358 101.179 68.5703 99.5883C69.206 99.1905 69.8954 98.9295 70.6467 98.8425C72.2895 98.656 73.6063 99.6048 73.9944 101.221C74.2131 102.149 74.1141 103.056 73.8788 103.955C73.2679 106.276 72.0666 108.232 70.2462 109.794C69.8789 110.109 69.4991 110.403 69.1235 110.705C69.1235 110.763 69.1235 110.821 69.1276 110.883V110.875ZM56.4633 99.435C54.6429 100.628 53.4086 102.228 53.0165 104.411C54.519 102.998 55.6996 101.362 56.4633 99.435ZM70.1554 103.181C68.6777 104.246 67.6003 105.998 67.786 106.922C68.884 105.928 69.689 104.763 70.1554 103.181Z" fill="white"/>
<path d="M110.682 45.3625C107.763 45.2465 105.097 44.2272 103.107 41.7701C102.822 41.4179 102.587 41.3806 102.199 41.5339C100.742 42.114 99.2433 42.5284 97.6664 42.5947C96.3249 42.6485 95.0163 42.4911 93.7615 41.9648C92.4116 41.3972 91.392 40.4773 90.7275 39.168C90.4096 38.5382 90.4055 38.5423 89.8482 38.9153C88.4489 39.8475 86.9711 40.0423 85.4025 39.3876C84.449 38.9898 83.5862 38.447 82.835 37.7385C82.191 37.1336 82.0548 36.4292 82.3974 35.6461C82.6987 34.9541 83.578 34.3906 84.3169 34.49C84.6265 34.5315 84.9319 34.7096 85.2126 34.8754C85.6295 35.124 86.001 35.4472 86.4262 35.6792C87.0908 36.0438 87.5118 36.019 88.0154 35.4679C88.581 34.8505 89.0681 34.1586 89.5593 33.4749C89.8111 33.1227 89.9721 32.7083 90.2239 32.352C90.7192 31.6518 91.5407 31.341 92.3126 31.5689C93.1258 31.8134 93.5963 32.3893 93.7037 33.2304C93.7408 33.5288 93.716 33.8437 93.6913 34.1461C93.6087 35.0743 93.6541 35.9817 93.9018 36.885C94.1495 37.7924 94.7274 38.3269 95.6149 38.5672C96.4693 38.7992 97.3445 38.8655 98.1989 38.7039C99.0988 38.5382 99.9698 38.2316 100.853 37.983C101.258 37.8711 101.402 37.6266 101.369 37.1874C101.179 34.6226 101.844 32.2609 103.19 30.0938C104.717 27.6367 106.901 26.0208 109.707 25.3288C110.36 25.1672 111.086 25.1755 111.759 25.2625C113.072 25.4283 114.062 26.5263 114.215 27.8481C114.302 28.598 114.211 29.3273 113.963 30.04C113.472 31.4612 112.696 32.7166 111.813 33.9182C110.376 35.874 108.659 37.5438 106.715 38.9857C106.087 39.4498 106.083 39.5119 106.69 40.0464C107.747 40.9828 109.014 41.4096 110.401 41.5091C112.267 41.6417 113.914 40.9828 115.491 40.0796C116.002 39.7895 116.481 39.4373 117.006 39.1804C117.827 38.7785 118.785 39.1224 119.313 39.9594C119.792 40.7135 119.685 41.8115 118.979 42.3212C116.551 44.0697 113.918 45.3045 110.686 45.3625H110.682ZM110.261 29.1988C107.668 29.8825 104.998 33.2553 105.423 35.1944C107.334 33.479 109.043 31.6559 110.261 29.1988Z" fill="white"/>
<path d="M416.984 308.957C414.4 290.631 408.213 273.742 396.869 258.954C384.461 242.778 370.046 227.973 355.355 213.774C342.596 201.438 327.372 193.93 309.92 190.939C308.632 190.715 307.125 190.541 306.18 189.775C302.535 186.804 298.919 183.762 295.6 180.439C293.379 178.214 291.319 175.786 291.311 172.128C291.303 169.774 290.341 167.421 289.759 165.084C289.495 164.035 289.685 163.198 290.176 162.192C291.361 159.763 292.347 157.232 293.239 154.679C293.635 153.54 293.495 152.222 293.788 151.037C295.951 142.369 296.665 133.597 295.171 124.764C292.851 111.074 285.491 101.2 272.62 95.7801C265.974 92.9833 258.961 92.3452 251.828 92.8134C250.788 92.8797 250.363 92.6642 249.921 91.6491C248.905 89.3039 247.783 86.9794 246.429 84.8123C243.655 80.3581 239.519 77.9176 234.351 77.2464C231.762 76.9108 229.17 76.5834 226.578 76.3224C222.301 75.8873 218.854 74.1056 216.551 70.3392C215.825 69.1583 214.995 68.0479 214.219 66.9002C210.896 61.9487 206.343 58.6132 200.791 56.5871C194.368 54.246 187.718 53.7322 180.969 54.1673C175.9 54.4946 172.251 57.1091 169.733 61.4432C169.01 62.6945 167.285 63.3409 165.885 62.9141C154.757 59.5331 143.966 60.3866 134.547 67.3352C128.338 71.9179 122.456 77.2754 117.552 83.2295C109.812 92.6186 108.665 103.52 113.688 114.761C115.963 119.849 119.959 122.87 125.618 123.545C126.353 123.632 127.22 124.213 127.665 124.826C130.332 128.476 133.317 131.774 137.432 133.78C138.625 134.36 138.575 134.87 138.212 135.98C137.007 139.676 135.719 143.376 134.931 147.176C133.721 152.981 135.438 158.247 138.712 163.066C139.087 163.617 139.512 164.073 138.885 164.806C133.998 170.512 131.265 177.328 129.325 184.45C120.532 216.798 109.243 248.28 96.7848 279.36C95.5381 282.472 94.4608 285.613 91.3153 287.378C91.2699 287.403 91.2369 287.448 91.1997 287.482C89.8871 288.725 89.9366 288.704 89.1895 287.059C85.7592 279.543 82.3578 272.018 78.8409 264.543C76.7109 260.019 73.2971 256.613 68.7895 254.52C64.2901 252.436 59.7701 250.286 55.056 248.819C45.1945 245.749 35.2257 243.014 25.2445 240.337C13.3232 237.143 1.59584 233.372 -10.0407 229.274C-12.6908 228.342 -15.6339 227.878 -18.4491 227.845C-23.931 227.766 -26.8287 231.45 -25.8009 236.811C-25.3799 239.024 -24.8185 241.232 -24.0754 243.354C-19.6132 256.145 -15.2088 268.964 -10.5195 281.677C-7.27498 290.477 -3.71261 299.174 -0.0718231 307.822C2.07055 312.922 5.44302 317.19 10.0993 320.306C10.7928 320.77 10.8836 321.098 10.3924 321.868C7.90737 325.809 8.84853 329.451 12.8608 331.775C13.7442 332.289 14.6688 332.745 15.5894 333.188C39.5145 344.579 64.4346 352.911 90.4815 357.833C98.7744 359.4 107.088 360.427 115.505 359.288C132.285 357.021 149.06 354.722 165.807 352.227C170.587 351.511 175.297 350.189 179.978 348.904C183.313 347.989 185.509 345.66 186.397 342.246C187.577 337.725 186.327 333.851 182.554 331.241C179.763 329.31 176.672 327.619 173.473 326.534C166.36 324.11 159.095 322.138 151.892 319.979C151.128 319.751 150.377 319.515 149.618 319.279C149.634 319.192 149.646 319.109 149.663 319.022C149.906 318.984 150.142 318.914 150.381 318.906C155.496 318.723 160.42 317.646 165.18 315.79C165.584 315.632 166.121 315.512 166.509 315.645C170.067 316.871 173.6 318.168 177.159 319.407C177.869 319.66 178.624 319.784 179.375 319.913C180.023 320.024 180.717 319.962 181.336 320.145C184.63 321.093 187.916 322.075 191.177 323.124C191.664 323.281 192.242 323.787 192.391 324.255C193.092 326.501 194.62 327.802 196.803 328.324C198.393 328.701 200.015 329.041 201.637 329.128C207.775 329.451 213.645 330.789 219.387 333.035C223.754 334.742 228.27 336.134 232.811 337.315C235.601 338.044 238.66 337.754 241.438 338.525C283.299 350.11 325.131 361.799 366.971 373.467C372.242 374.934 377.514 376.413 382.793 377.863C383.8 378.145 384.824 378.141 385.163 376.885C385.489 375.671 384.737 375.099 383.664 374.818C382.674 374.552 381.712 374.175 380.705 373.997C379.578 373.802 379.124 373.218 378.88 372.104C376.816 362.574 374.711 353.052 372.544 343.543C372.238 342.184 372.511 341.894 373.861 341.877C378.872 341.823 383.904 341.869 388.89 341.463C399.391 340.605 407.449 333.83 409.926 323.642C410.809 319.991 410.83 316.121 411.23 312.355C411.3 311.7 411.267 311.037 411.284 310.387C411.891 310.702 412.469 311.162 413.113 311.315C414.041 311.539 415.251 311.932 415.911 311.539C416.568 311.145 417.104 309.798 416.984 308.974V308.957ZM255.295 97.1143C263.312 97.0356 270.841 98.7137 277.516 103.408C285.367 108.936 289.445 116.725 290.952 126.052C291.753 131.012 291.674 135.98 291.113 140.952C291.068 141.342 290.911 141.723 290.808 142.108C290.49 141.889 290.126 141.71 289.85 141.445C285.928 137.82 281.776 137.385 277.466 140.521C275.117 142.224 272.141 143.285 270.829 146.247C270.812 146.281 270.156 146.181 270.077 146.011C269.636 145.033 269.272 144.018 268.88 143.011C268.426 141.847 267.621 141.226 266.325 141.147C265.921 141.122 265.285 140.708 265.182 140.347C264.472 137.882 263.774 135.408 263.266 132.897C262.453 128.837 263.613 125.066 265.231 121.399C266.02 119.605 265.599 118.093 264.121 117.707C263.419 117.525 262.618 117.707 261.863 117.769C258.767 118.031 255.663 118.557 252.575 118.47C250.722 118.42 248.856 117.533 247.077 116.804C245.871 116.311 245.401 115.167 245.772 113.846C246.111 112.64 246.02 111.563 244.901 110.846C243.717 110.092 242.672 110.601 241.665 111.355C237.058 114.79 231.907 116.804 226.173 115.975C222.945 115.507 220.881 116.473 219.185 118.963C218.978 119.253 218.636 119.464 218.483 119.779C217.302 122.265 215.011 122.07 212.844 122.166C211.792 122.211 211.862 121.714 212.382 121.072C212.898 120.434 213.62 119.883 213.905 119.158C214.223 118.333 214.524 117.152 214.161 116.514C213.794 115.863 212.634 115.515 211.759 115.358C210.884 115.196 209.93 115.482 209.014 115.478C208.539 115.478 208.068 115.267 207.594 115.155C207.833 114.674 207.953 114.061 208.328 113.734C209.431 112.748 210.562 111.757 211.808 110.97C220.155 105.737 229.067 101.805 238.615 99.3601C244.088 97.9596 249.636 97.0977 255.304 97.1226L255.295 97.1143ZM173.361 61.6918C175.252 59.2679 177.613 57.7017 180.725 57.4531C182.306 57.3246 183.891 57.2707 184.721 57.2252C190.269 57.3163 194.962 57.9461 199.499 59.5621C204.527 61.352 208.642 64.3312 211.627 68.8103C212.283 69.7881 212.993 70.7411 213.6 71.748C216.663 76.8528 221.311 79.1731 227.077 79.6496C229.471 79.8526 231.849 80.2131 234.235 80.5197C238.412 81.0584 241.611 83.184 243.845 86.7225C244.798 88.2348 245.628 89.8384 246.392 91.4585C247.213 93.1863 247.13 93.1117 245.314 93.5302C240.538 94.6365 235.746 95.7138 231.032 97.048C228.237 97.8435 225.562 99.0617 222.867 100.176C221.946 100.553 221.323 100.421 220.369 100.04C218.008 99.1073 215.511 98.4816 213.022 97.9181C203.845 95.834 195.032 97.3919 186.405 100.694C185.939 100.877 185.443 100.98 184.96 101.121C184.989 100.578 184.977 100.027 185.055 99.4885C186.219 91.0027 184.469 83.0224 180.696 75.4771C179.879 73.8487 179.4 72.2121 179.45 70.5381C179.503 68.9222 178.979 67.6543 177.984 66.6515C176.668 65.3215 175.161 64.1655 173.629 63.0799C172.936 62.5909 172.857 62.3299 173.361 61.6877V61.6918ZM118.155 115.93C115.009 111.587 113.936 106.632 114.093 101.37C114.394 91.1021 119.628 83.6978 127.665 77.9135C128.565 77.263 129.436 76.5047 130.126 75.6346C138.947 64.5798 153.857 62.0813 165.353 66.1336C171.182 68.1846 175.652 71.8972 178.191 77.5779C181.898 85.8772 183.805 94.4252 180.643 103.417C180.49 103.852 180.312 104.274 180.131 104.701C180.073 104.842 179.982 104.962 179.862 105.157C179.446 103.611 179.206 102.186 178.682 100.881C177.101 96.932 174.513 95.3575 170.377 95.5646C170.034 95.5812 169.522 95.1544 169.336 94.8022C168.734 93.6711 168.28 92.4612 167.714 91.3134C164.057 83.8801 158.03 78.8292 151.058 74.7562C150.109 74.2009 149.139 74.1222 148.557 75.2409C148.02 76.2727 148.627 76.9273 149.477 77.524C152.119 79.3678 154.823 81.1495 157.316 83.184C161.539 86.6272 164.379 91.1146 166.401 96.1613C166.728 96.9858 166.666 97.4913 165.956 98.1336C164.622 99.3435 163.252 100.354 161.539 101.046C157.188 102.799 153.316 102.02 150.113 98.78C148.338 96.9817 146.943 94.7608 145.613 92.5855C143.5 89.1298 141.68 85.496 139.554 82.0528C138.571 80.4617 137.283 78.9908 135.892 77.7436C134.064 76.1069 132.334 76.3514 130.609 78.0999C130.179 78.535 129.75 78.9991 129.238 79.3264C123.063 83.2544 120.289 89.1381 119.145 96.1737C118.241 101.714 120.206 106.698 121.536 111.807C122.254 114.558 123.517 117.169 124.603 120.015C121.775 119.506 119.715 118.084 118.159 115.934L118.155 115.93ZM177.386 114.214C177.097 114.069 176.568 113.941 176.56 113.779C176.544 113.39 176.762 112.984 176.878 112.582C177.014 112.611 177.146 112.64 177.278 112.665C177.311 113.183 177.344 113.696 177.382 114.214H177.386ZM132.681 125.932C127.562 120.048 124.83 113.021 123.129 105.517C122.968 104.813 122.84 104.113 122.691 103.408C122.25 101.307 122.316 101.241 124.487 100.868C127.017 100.429 128.982 101.403 130.609 103.263C131.092 103.814 131.438 104.253 130.419 104.747C129.271 105.302 129.18 106.412 129.841 107.365C130.46 108.264 131.376 108.952 132.103 109.789C132.388 110.121 132.701 110.605 132.681 111.003C132.623 112.23 132.421 113.452 132.26 114.67C132.033 116.303 134.15 118.727 135.768 118.544C136.239 118.49 136.9 118.064 137.044 117.658C137.213 117.181 137.102 116.207 136.78 116.021C135.215 115.126 135.628 113.792 135.81 112.499C136.227 109.528 135.901 106.648 134.724 103.897C132.722 99.1985 128.437 96.8947 123.426 97.8104C122.411 97.9968 122.175 97.7772 122.312 96.7455C123.166 90.29 125.886 85.0071 131.632 81.5929C131.764 81.5141 131.897 81.4313 132.012 81.3318C133.853 79.8319 134.022 79.7117 135.372 81.7793C137.696 85.3386 139.789 89.047 141.911 92.7305C142.063 92.9874 141.791 93.7581 141.494 93.957C140.569 94.5743 139.723 95.2 140.367 96.4182C140.957 97.5328 141.956 97.3795 142.893 96.8698C143.686 96.4472 144.214 96.6336 144.709 97.3505C145.386 98.3159 146.183 99.1943 146.831 100.176C147.054 100.512 147.128 101.1 147.009 101.49C146.394 103.392 147.322 105.604 149.139 106.371C150.418 106.905 151.661 106.487 152.127 105.136C152.42 104.27 152.763 104.307 153.452 104.548C156.726 105.666 159.863 105.182 163.017 103.893C164.808 103.16 166.331 102.231 167.706 100.86C169.043 99.5216 170.645 98.1336 172.717 98.8628C174.897 99.6335 175.788 101.647 176.234 103.773C177.241 108.65 173.861 112.743 168.94 112.669C168.581 112.669 168.222 112.661 167.863 112.669C166.901 112.698 166.162 113.216 166.319 114.152C166.418 114.736 167.14 115.607 167.648 115.656C169.2 115.805 170.789 115.578 172.366 115.586C172.969 115.59 173.716 115.66 174.145 116.008C176.895 118.238 179.557 120.566 182.286 122.82C182.975 123.388 183.049 123.794 182.55 124.585C178.517 130.966 174.529 137.364 170.575 143.79C170.03 144.673 169.7 144.975 168.837 144.105C165.159 140.397 161.436 136.73 157.7 133.08C156.713 132.118 156.676 131.567 157.931 130.685C160.024 129.222 161.927 127.486 163.883 125.833C164.775 125.079 165.415 124.13 164.391 123.086C163.442 122.116 162.596 122.779 161.72 123.458C158.938 125.621 156.243 127.954 153.238 129.769C149.518 132.019 145.374 133.046 141.015 131.762C137.614 130.759 134.976 128.559 132.689 125.924L132.681 125.932ZM165.96 150.213C166.125 150.316 165.72 151.493 165.423 152.09C165.328 152.28 164.581 152.392 164.371 152.235C160.16 148.999 156.961 145.154 157.006 139.44C157.006 139.183 156.973 138.922 157.015 138.669C157.068 138.387 157.188 138.11 157.279 137.832C157.522 137.985 157.795 138.101 158.001 138.292C160.482 140.658 162.93 143.049 165.427 145.394C165.968 145.904 166.179 146.272 165.63 146.902C164.585 148.1 164.35 149.198 165.964 150.209L165.96 150.213ZM99.2656 281.71C103.1 271.803 106.956 261.9 110.799 251.997C119.108 230.584 125.804 208.648 132.045 186.559C132.891 183.551 133.965 180.601 135.063 177.672C137.003 172.505 140.26 168.216 143.744 163.973C146.026 161.205 148.156 161.504 150.831 162.523C155.657 164.363 160.494 166.173 165.328 167.988C165.758 168.15 166.207 168.262 166.657 168.369C167.755 168.626 168.932 168.809 169.291 167.367C169.613 166.045 168.598 165.664 167.557 165.291C162.988 163.646 158.439 161.943 153.886 160.265C152.635 159.809 151.397 159.324 150.133 158.914C147.269 157.986 144.557 158.334 142.113 160.132C141.267 160.758 140.891 160.592 140.379 159.734C137.643 155.131 137.201 150.229 138.547 145.162C139.327 142.245 140.437 139.415 141.374 136.539C141.659 135.686 142.134 135.35 143.079 135.437C146.414 135.74 149.576 135.002 152.66 133.738C153.089 133.56 153.902 133.647 154.175 133.95C154.451 134.248 154.315 134.969 154.315 135.503C154.315 138.193 153.844 140.973 154.369 143.554C155.496 149.131 159.363 152.856 163.95 155.831C165.436 156.793 166.616 156.3 167.64 154.642C172.771 146.347 178.005 138.118 182.979 129.732C188.415 120.566 195.804 113.535 205.022 108.347C205.373 108.144 205.872 107.974 206.008 107.659C206.248 107.104 206.516 106.317 206.289 105.882C206.062 105.439 205.257 105.119 204.688 105.086C204.196 105.057 203.651 105.463 203.173 105.749C196.58 109.603 190.5 114.09 185.728 120.16C185.258 120.757 184.969 120.807 184.25 120.413C180.688 118.441 180.461 115.022 180.626 111.641C180.696 110.22 181.918 108.886 182.447 107.452C183.004 105.94 183.829 105.078 185.46 104.461C190.318 102.625 195.218 101.034 200.386 100.446C205.909 99.8158 211.309 100.566 216.617 102.111C216.881 102.19 217.096 102.414 217.335 102.571C217.1 102.758 216.89 102.973 216.634 103.122C214.235 104.502 211.783 105.791 209.447 107.266C207.986 108.19 206.628 109.313 205.348 110.485C204.609 111.165 203.998 112.051 203.552 112.959C202.009 116.058 203.21 118.698 206.541 119.634C207.201 119.825 207.808 119.758 207.433 120.852C206.326 124.08 207.738 126.156 211.135 126.487C212.167 126.587 213.195 126.69 214.227 126.79C213.963 127.776 213.583 128.75 213.463 129.757C212.968 133.929 212.498 138.097 212.147 142.286C212.068 143.223 211.87 143.616 210.966 143.869C199.478 147.13 188.936 152.384 179.144 159.2C179.016 159.287 178.884 159.374 178.76 159.461C177.117 160.613 176.684 161.495 177.435 162.37C178.533 163.65 179.536 162.797 180.519 162.117C189.757 155.703 199.656 150.635 210.425 147.35C212.394 146.745 212.258 146.749 212.592 148.8C213.29 153.101 214.173 157.373 214.908 161.669C215.086 162.689 215.139 163.787 214.962 164.802C214.57 167.114 216.956 170.371 219.276 170.292C219.948 170.267 220.984 169.666 221.166 169.107C221.397 168.39 221.22 167.056 220.708 166.679C219.309 165.647 219.358 164.562 219.965 163.232C220.712 161.599 221.41 159.946 222.215 158.342C223.763 155.239 224.501 151.99 224.225 148.514C223.895 144.321 221.752 141.549 217.814 140.169C217.311 139.991 216.568 139.382 216.584 139.001C216.857 132.574 218.021 126.442 222.722 121.557C223.568 120.674 224.411 120.243 225.67 120.359C230.9 120.836 235.857 119.907 240.48 117.322C240.794 117.144 241.628 117.268 241.781 117.521C243.894 121.055 247.329 122.311 251.068 122.762C253.537 123.052 256.063 122.878 258.561 122.8C259.601 122.766 259.943 122.916 259.584 124.026C258.222 128.265 258.383 132.528 259.576 136.78C260.241 139.15 260.885 141.528 261.607 143.882C262.148 145.638 263.015 147.072 265.169 147.167C265.512 147.18 265.908 147.76 266.135 148.158C266.853 149.397 267.365 150.776 268.203 151.92C269.673 153.913 272.282 153.789 273.136 151.501C274.242 148.547 276.599 146.848 278.758 144.992C283.076 141.279 288.129 143.19 289.02 148.883C289.825 153.983 288.186 158.483 284.583 162.088C283.6 163.07 281.916 163.48 280.471 163.828C278.932 164.205 278.057 164.814 278.081 166.107C278.106 167.45 279.06 168.357 280.74 168.133C282.411 167.91 283.031 168.655 283.679 170.01C287.547 178.152 292.83 185.184 299.963 190.777C302.91 193.085 305.854 195.145 309.759 195.439C311.439 195.563 311.43 195.762 310.444 197.138C304.789 205.002 298.386 212.075 289.747 216.761C284.492 219.612 278.998 221.601 272.909 221.277C268.145 221.02 264.08 219.164 260.872 215.588C258.482 212.932 257.586 209.85 258.581 206.315C259.13 204.351 260.558 203.117 262.086 201.973C262.305 201.811 263.01 201.94 263.204 202.172C264.212 203.398 265.223 204.645 266.028 206.005C266.325 206.51 266.214 207.388 266.028 208.018C265.673 209.311 265.962 210.268 267.142 210.869C268.257 211.432 269.376 210.948 270.057 209.663C271.27 207.372 271.052 205.118 269.454 203.175C266.234 199.255 262.924 195.406 259.555 191.614C257.867 189.708 257.776 189.795 259.972 188.565C264.732 185.9 268.649 182.225 272.199 178.136C273.227 176.951 273.186 175.708 272.22 174.858C271.258 174.017 270.073 174.183 268.959 175.26C266.643 177.506 264.422 179.876 261.945 181.927C258.131 185.08 253.764 187.16 248.782 187.753C243.436 188.387 238.528 187.185 234.421 183.709C232.051 181.707 230.091 179.225 227.956 176.946C227.676 176.652 227.49 176.271 227.213 175.969C226.371 175.045 225.36 174.833 224.332 175.571C223.313 176.3 223.044 177.373 223.738 178.421C230.685 188.954 239.775 194.047 251.605 191.751C252.765 191.523 253.533 191.705 254.317 192.547C255.783 194.121 257.289 195.667 258.858 197.146C259.832 198.057 259.502 198.584 258.523 199.048C257.826 199.375 257.103 199.632 256.41 199.951C250.61 202.64 244.662 205.056 239.048 208.089C223.746 216.347 213.133 228.806 207.391 245.289C205.303 251.284 203.585 257.421 201.843 263.537C200.873 266.955 196.316 269.043 193.447 266.905C191.606 265.53 189.815 263.735 188.762 261.722C186.199 256.832 183.73 251.831 181.869 246.639C179.66 240.47 178.083 234.064 176.329 227.741C175.933 226.316 175.293 225.388 173.865 224.911C163.735 221.505 157.353 214.465 154.616 204.227C153.498 200.038 153.122 195.654 152.449 191.614C154.047 187.007 151.124 184.483 148.763 181.724C148.045 180.887 147.194 180.46 146.249 181.305C145.358 182.097 145.585 183.07 146.348 183.738C149.234 186.257 149.725 189.443 149.704 193.118C149.675 198.049 150.583 202.93 152.276 207.612C155.331 216.048 160.606 222.516 168.858 226.303C169.819 226.743 169.98 227.157 169.58 228.156C161.374 248.583 153.188 269.022 145.04 289.475C144.652 290.448 144.247 290.68 143.244 290.423C135.715 288.505 128.161 286.682 120.64 284.747C113.796 282.99 106.927 281.822 99.8435 282.957C98.2873 283.206 99.0345 282.261 99.245 281.718L99.2656 281.71ZM218.846 150.557C220.316 152.537 219.296 154.195 218.495 155.906C218.31 155.927 218.128 155.947 217.942 155.968C217.513 152.425 217.075 148.887 216.696 145.34C216.679 145.183 217.278 144.752 217.472 144.818C219.189 145.373 219.787 147.234 218.929 148.742C218.652 149.223 218.561 150.167 218.846 150.557ZM200.671 285.078C203.23 285.737 205.761 286.524 208.299 287.258C208.266 287.399 208.233 287.535 208.2 287.672C206.083 287.9 203.953 288.033 201.843 288.368C195.437 289.375 190.285 292.707 186.058 297.476C184.564 299.162 183.21 299.514 181.051 299C170.6 296.514 160.106 294.219 149.626 291.853C147.706 291.422 147.673 291.41 148.392 289.611C156.354 269.694 164.321 249.772 172.296 229.858C172.482 229.399 172.73 228.968 173.101 228.218C173.931 231.313 174.632 234.081 175.404 236.828C177.452 244.158 179.722 251.417 183.161 258.22C184.655 261.179 186.426 264.059 188.453 266.673C191.235 270.274 194.826 272.147 199.499 270.22C200.601 269.768 200.279 270.58 200.192 271.073C199.594 274.566 198.987 278.059 198.351 281.54C197.963 283.665 198.591 284.552 200.667 285.083L200.671 285.078ZM104.925 287.013C101.383 288.269 97.8539 289.524 94.4566 290.73C95.9179 287.942 101.825 286.491 104.925 287.013ZM1.3523 300.703C-3.32872 287.606 -8.26154 274.608 -12.988 261.531C-15.6917 254.052 -18.2139 246.515 -20.7814 238.987C-21.157 237.876 -21.3882 236.703 -21.5822 235.539C-21.9001 233.579 -21.2437 232.473 -19.2623 232.361C-17.3057 232.245 -15.217 232.299 -13.3719 232.871C-7.79922 234.582 -2.37931 236.79 3.20984 238.423C16.0269 242.156 28.91 245.653 41.7601 249.266C49.5453 251.45 57.2479 253.862 64.6327 257.243C69.7513 259.588 73.4044 263.164 75.9307 268.244C82.1762 280.815 87.27 293.858 92.4133 306.89C95.5258 314.762 98.5886 322.66 101.449 330.623C102.514 333.59 102.944 336.785 103.554 339.391C103.327 341.173 103.282 342.42 103.001 343.601C102.622 345.2 100.76 346.244 99.1665 345.875C82.6715 342.059 66.2302 338.028 50.0778 332.906C40.464 329.857 31.0194 326.389 21.8142 322.208C12.0353 317.77 5.01785 310.967 1.3523 300.699V300.703ZM96.3307 304.279C96.5123 304.122 96.6609 303.902 96.8715 303.811C104.78 300.314 112.929 298.901 121.457 301.101C119.447 301.648 117.408 302.108 115.435 302.763C112.933 303.591 110.526 304.607 109.515 307.42C109.433 307.652 108.747 307.851 108.421 307.768C104.611 306.811 100.818 305.796 97.0201 304.772C96.7641 304.702 96.5619 304.449 96.3307 304.279ZM102.06 318.57C102.448 318.611 102.857 318.599 103.224 318.711C118.493 323.136 133.754 327.574 149.019 332.016C149.345 332.111 149.655 332.272 149.968 332.397C149.968 332.496 149.977 332.592 149.981 332.687C147.599 333.163 145.225 333.652 142.844 334.112C134.563 335.707 126.287 337.311 117.998 338.865C117.176 339.022 116.264 338.981 115.459 338.778C113.177 338.214 110.91 337.572 108.677 336.83C108.116 336.644 107.459 336.06 107.282 335.513C105.569 330.308 103.947 325.079 102.308 319.85C102.18 319.436 102.143 318.993 102.064 318.562L102.06 318.57ZM169.687 329.803C173.118 330.839 176.358 332.629 179.528 334.361C181.481 335.43 182.665 337.311 182.467 339.743C182.253 342.387 180.903 344.239 178.335 344.885C173.828 346.025 169.324 347.305 164.738 347.98C148.701 350.367 132.631 352.534 116.561 354.738C114.031 355.086 111.464 355.194 109.495 355.364C102.052 355.559 95.3689 354.254 88.6859 352.953C63.9351 348.142 40.2782 340.029 17.5171 329.21C16.7782 328.862 16.0476 328.494 15.3293 328.096C13.2406 326.94 12.9764 326.115 14.1116 323.998C14.2519 323.737 14.9537 323.505 15.2055 323.638C38.9614 335.906 64.7607 341.902 90.4361 348.275C93.0655 348.929 95.7239 349.48 98.374 350.044C102.721 350.968 106.65 348.312 107.418 343.924C107.587 342.967 107.699 341.985 107.715 341.015C107.732 340.149 108.025 339.905 108.822 340.224C109.102 340.336 109.424 340.361 109.697 340.489C114.795 342.867 119.909 341.914 125.127 340.833C135.645 338.658 146.212 336.723 156.759 334.688C156.961 334.651 157.221 334.676 157.353 334.56C157.919 334.054 158.905 333.47 158.872 332.981C158.827 332.326 158.08 331.398 157.436 331.174C154.687 330.221 151.859 329.484 149.056 328.672C133.333 324.106 117.61 319.54 101.891 314.974C100.459 314.559 98.3616 311.621 98.5267 310.192C98.5433 310.047 98.9643 309.798 99.117 309.848C103.567 311.302 108.314 311.733 112.566 313.958C114.13 314.779 116.087 314.862 117.874 315.222C119.224 315.496 120.627 315.52 121.94 315.902C137.865 320.484 153.811 325.026 169.679 329.799L169.687 329.803ZM174.48 313.938C174.467 314.116 173.815 314.46 173.567 314.385C171.111 313.668 168.651 312.964 166.253 312.081C164.626 311.485 163.322 311.617 161.617 312.231C158.534 313.345 155.211 313.934 151.937 314.369C148.189 314.87 144.458 314.128 140.875 313.059C133.713 310.917 126.411 310.449 119.005 310.751C117.742 310.805 116.446 310.644 115.22 310.358C114.696 310.233 113.998 309.558 113.944 309.073C113.899 308.642 114.551 307.83 115.038 307.689C118.369 306.749 121.705 305.721 125.114 305.145C129.04 304.482 133.04 304.259 137.007 303.848C138.509 303.695 139.409 302.825 139.343 301.54C139.281 300.293 138.377 299.382 136.924 299.568C134.121 299.929 131.595 299.104 129.007 298.242C117.787 294.505 106.688 294.633 95.7693 299.473C95.1666 299.742 94.3617 300.339 94.1099 299.137C93.8952 298.13 92.3597 297.119 94.2379 296.054C101.243 292.073 108.793 290.436 116.78 290.585C122.501 290.469 128.078 291.476 133.626 292.731C148.693 296.137 163.76 299.51 178.826 302.895C180.461 303.264 180.465 303.277 179.301 304.557C176.849 307.246 174.674 310.068 174.484 313.938H174.48ZM181.357 314.812C180.729 315.123 179.941 315.106 179.227 315.243C179.169 314.489 178.864 313.635 179.115 313.014C179.685 311.609 180.325 310.13 181.311 309.019C184.482 305.464 187.755 301.996 191.123 298.628C195.012 294.741 199.775 292.715 205.27 292.387C209.142 292.155 213.014 291.886 216.885 291.629C216.91 291.72 216.935 291.816 216.956 291.907C216.374 292.197 215.796 292.495 215.205 292.773C211.4 294.604 207.887 296.842 204.886 299.879C204.205 300.567 203.016 300.952 202.013 301.068C198.818 301.433 196.308 302.879 193.972 305.083C191.111 307.785 187.966 310.188 184.878 312.641C183.8 313.494 182.579 314.186 181.353 314.808L181.357 314.812ZM193.22 319.324C192.89 319.61 192.564 319.908 192.333 320.116C190.005 319.403 187.953 318.781 185.91 318.118C185.823 318.089 185.761 317.464 185.889 317.36C190.261 313.73 194.649 310.126 199.061 306.546C199.433 306.243 199.969 306.053 200.448 305.999C200.663 305.974 201.166 306.471 201.129 306.653C200.659 309.082 200.807 311.439 201.571 313.793C201.641 314.008 201.183 314.572 200.861 314.692C199.672 315.148 198.302 315.264 197.257 315.926C195.788 316.863 194.549 318.172 193.212 319.324H193.22ZM236.815 333.412C232.146 333.13 227.795 331.655 223.498 329.969C218.491 328.009 213.509 325.974 208.105 325.349C205.055 325.001 201.996 324.744 198.962 324.288C198.166 324.168 196.795 323.364 196.845 323.037C196.981 322.092 197.493 320.919 198.24 320.41C199.338 319.66 200.915 319.627 202.033 318.897C204.081 317.547 205.393 318.756 206.999 319.738C208.324 320.546 209.909 320.895 211.358 321.495C211.746 321.657 212.2 321.91 212.39 322.254C214.809 326.579 218.611 327.541 223.16 326.882C223.659 326.811 224.477 327.126 224.737 327.524C226.441 330.13 228.939 331.419 231.87 331.866C235.688 332.455 239.333 331.821 242.582 329.608C243.292 329.128 243.766 329.041 244.435 329.67C245.438 330.611 246.544 331.444 247.956 332.612C244.043 333.292 240.456 333.636 236.815 333.42V333.412ZM374.116 370.442C374.504 372.182 374.459 372.236 372.754 371.76C331.909 360.373 291.068 348.987 250.226 337.597C249.793 337.473 249.376 337.315 248.612 337.062C251.333 336.412 253.529 335.542 256.15 336.582C260.03 338.119 264.179 337.854 268.282 337.423C269.776 337.265 271.307 337.352 272.814 337.448C281.037 337.949 289.26 338.558 297.486 338.997C311.335 339.739 325.189 340.448 339.046 341.036C347.995 341.417 356.957 341.587 365.914 341.773C367.252 341.802 367.85 342.097 368.156 343.539C370.075 352.522 372.114 361.476 374.112 370.442H374.116ZM405.497 323.476C403.09 331.506 396.444 336.793 387.561 337.187C379.59 337.539 371.598 337.373 363.615 337.406C342.972 337.497 322.382 335.939 301.779 334.85C292.785 334.373 283.782 333.909 274.808 333.138C271.625 332.865 268.521 332.935 265.376 333.238C258.168 333.926 252.336 330.889 247.163 326.235C246.825 325.933 246.705 325.2 246.747 324.686C246.862 323.169 247.23 321.665 247.267 320.149C247.287 319.216 247.436 318.678 248.422 318.566C248.823 318.52 249.227 318.408 249.615 318.284C250.85 317.878 251.514 317.037 251.242 315.715C250.982 314.451 250.057 313.838 248.852 314.103C247.064 314.493 245.153 314.795 243.597 315.678C241.318 316.979 239.238 318.669 237.215 320.368C236.146 321.267 236.27 322.664 237.141 323.509C238.024 324.371 239.217 324.321 240.291 323.343C240.86 322.825 241.389 322.262 241.975 321.769C242.222 321.562 242.573 321.487 242.879 321.359C242.875 321.707 242.941 322.08 242.85 322.399C242.33 324.247 241.087 325.519 239.457 326.393C237.116 327.648 234.635 328.034 232.022 327.416C228.712 326.629 227.346 324.628 228.448 321.383C229.211 319.146 230.276 316.822 231.824 315.085C234.26 312.359 237.203 310.088 239.948 307.64C240.328 307.304 240.811 307.088 241.232 306.794C242.383 305.961 242.701 304.768 242.07 303.728C241.426 302.68 240.212 302.373 238.974 303.115C235.073 305.444 231.585 308.29 228.683 311.808C226.375 314.609 224.53 317.663 223.886 321.321C223.824 321.678 223.552 322.216 223.28 322.287C221.368 322.763 219.391 323.091 217.678 321.781C216.101 320.571 215.437 318.856 215.734 316.875C216.097 314.439 217.455 312.5 219.065 310.739C223.255 306.169 228.464 303.015 233.876 300.161C234.466 299.85 235.085 299.585 235.634 299.216C236.613 298.557 236.926 297.612 236.419 296.531C235.915 295.454 234.994 295.118 233.855 295.387C233.608 295.445 233.372 295.557 233.141 295.669C227.56 298.425 222.239 301.582 217.666 305.87C214.628 308.717 212.105 311.903 211.321 316.179C211.284 316.386 210.57 316.693 210.322 316.594C205.513 314.659 203.685 309.521 206.566 305.199C207.957 303.123 209.889 301.267 211.92 299.796C217.311 295.889 223.577 293.892 229.954 292.271C230.631 292.102 231.494 292.325 232.183 292.599C237.017 294.542 241.933 296.328 246.635 298.574C254.437 302.303 262.082 306.351 270.288 309.206C273.611 310.366 276.814 310.83 280.331 310.362C292.554 308.738 304.801 307.308 317.04 305.821C328.417 304.433 339.793 303.09 351.17 301.685C360.276 300.563 369.374 301.341 378.451 301.917C384.919 302.332 391.371 303.247 397.782 304.234C400.37 304.627 402.863 305.754 405.352 306.67C405.843 306.852 406.409 307.544 406.475 308.066C407.139 313.262 406.999 318.433 405.484 323.48L405.497 323.476ZM410.718 304.466C405.026 301.022 398.727 299.539 392.234 298.723C380.684 297.273 369.08 296.763 357.44 296.68C351.302 296.904 345.159 297.144 339.021 297.297C338.48 297.31 337.655 296.817 337.42 296.336C335.207 291.857 332.739 287.519 329.961 283.367C328.549 281.254 326.98 277.376 323.859 278.25C323.41 278.374 322.968 278.627 322.749 279.041C322.444 279.609 322.638 280.33 322.98 280.877C326.505 286.545 325.783 285.46 329.515 291.012C331.021 293.258 332.099 295.793 333.428 298.163C334.01 299.199 333.643 299.469 332.623 299.589C318.807 301.238 304.995 302.908 291.175 304.578C286.552 305.137 281.941 305.767 277.314 306.264C276.339 306.368 275.266 306.202 274.325 305.895C267.101 303.558 260.199 300.455 253.434 297.012C249.058 294.787 244.551 292.823 240.142 290.647C239.519 290.341 238.866 289.607 238.685 288.94C237.302 283.947 236.192 278.872 234.689 273.916C233.248 269.159 231.44 264.514 229.785 259.82C229.43 258.813 228.745 258.237 227.659 258.643C226.541 259.062 226.52 260.019 226.846 260.963C227.655 263.296 228.621 265.571 229.323 267.929C231.263 274.467 233.108 281.034 234.982 287.594C235.197 288.339 235.292 288.944 234.111 288.546C229.273 286.926 224.27 286.752 219.234 287.013C218.293 287.063 217.653 286.885 217.042 286.031C216.625 285.439 215.73 285.095 214.982 284.851C211.383 283.678 207.767 282.555 204.143 281.461C203.334 281.217 202.913 280.918 203.065 279.974C205.199 266.86 208.233 254.002 213.558 241.771C218.479 230.463 226.012 221.36 236.443 214.884C241.694 211.623 247.316 208.98 252.781 206.071C253.504 205.686 254.292 205.279 254.024 206.8C253.227 211.283 254.651 215.141 257.582 218.451C261.991 223.436 267.675 225.628 273.974 225.765C280.901 225.611 286.96 223.432 292.694 220.175C301.21 215.34 307.715 208.362 313.424 200.539C313.606 200.287 313.783 200.038 313.965 199.789C316.128 196.769 316.111 196.827 319.752 197.829C332.623 201.36 343.5 208.337 352.982 217.532C360.771 225.085 368.222 232.979 375.607 240.926C382.76 248.62 389.889 256.373 395.85 265.061C397.848 267.974 399.726 270.974 401.435 274.069C406.557 283.326 409.62 293.303 411.717 303.616C411.8 304.006 411.783 304.416 411.808 304.814C411.449 304.702 411.04 304.66 410.727 304.47L410.718 304.466Z" fill="black"/>
<path d="M332.196 39.2385C329.942 27.4296 323.396 18.3761 314.013 11.2494C305.592 4.84772 295.995 1.43765 285.543 0.360348C276.069 -0.609223 266.823 0.277479 258.018 4.14747C250.262 7.55755 244.132 12.7534 241.28 21.0072C237.218 32.7664 239.41 43.6803 246.299 53.7945C251.575 61.5345 258.906 66.7552 267.223 70.7039C268.458 71.2882 268.689 71.9428 268.42 73.1983C267.587 77.06 266.856 80.9466 266.117 84.829C265.878 86.0803 265.828 87.3441 267.17 88.0775C268.416 88.7529 269.423 88.1728 270.373 87.3565C273.341 84.829 276.395 82.4051 279.256 79.7616C281.84 77.3708 285.163 77.6525 288.424 77.6401C292.408 77.6235 296.502 77.0642 300.445 76.5172C307.483 75.5394 314.285 73.6997 320.452 69.9871C325.047 67.2193 328.675 63.544 330.718 58.4807C333.232 52.2324 333.443 45.7769 332.192 39.2385H332.196ZM328.44 48.6358C328.072 56.3676 324.783 62.4046 317.984 66.3574C309.695 71.1763 300.048 72.9373 290.571 73.1693C288.994 73.2066 287.421 73.2025 285.844 73.1569C284.42 73.1154 282.893 72.8254 281.498 73.1362C280.618 73.3309 279.789 73.6997 279.074 74.2466C276.804 75.991 274.687 77.9426 272.503 79.803C272.276 79.9936 271.991 80.0972 271.731 80.2463C271.702 79.9231 271.595 79.5792 271.653 79.2726C272.119 76.6995 272.639 74.1306 273.097 71.5575C273.444 69.5935 272.879 68.6819 271.108 67.7372C267.855 66.0053 264.52 64.3934 261.444 62.3839C253.189 56.9849 247.125 49.7422 244.706 40.0009C242.44 30.8562 243.509 22.1715 250.076 14.8956C254.6 9.89032 260.528 7.12663 267.013 5.82558C285.898 2.04259 302.847 5.89602 316.865 19.6482C324.886 27.5208 328.981 37.2247 328.436 48.6358H328.44Z" fill="#FFCE1F"/>
<path d="M99.4629 120.79C99.0872 120.111 98.3112 119.643 97.6755 119.125C95.8923 117.662 94.1751 116.092 92.2721 114.807C90.2948 113.473 89.2133 111.928 89.7706 109.466C89.9068 108.878 89.7913 108.236 89.7913 107.618C89.8532 107.61 89.9192 107.602 89.9811 107.593C89.5518 104.08 89.3207 100.533 88.6602 97.0649C86.1133 83.694 78.7038 74.1143 65.7587 69.6974C52.1945 65.0691 39.1504 67 27.1589 74.8518C19.3696 79.9483 14.7959 87.2532 13.7144 96.634C12.8311 104.283 14.0942 111.633 17.2438 118.574C23.741 132.902 33.9369 142.908 50.0976 145.129C60.2232 146.521 69.255 143.932 76.1692 135.947C78.4396 133.333 80.326 130.362 82.262 127.474C82.8399 126.612 83.3807 126.214 84.4209 126.135C88.9079 125.8 93.399 125.419 97.8695 124.897C98.6868 124.801 99.8055 124.109 100.066 123.422C100.338 122.709 99.8922 121.574 99.4587 120.795L99.4629 120.79ZM91.5745 121.105C88.9822 121.366 86.3857 121.714 83.7852 121.814C81.2589 121.909 79.8678 123.426 78.5428 125.282C76.4995 128.162 74.5635 131.157 72.2024 133.759C66.7453 139.751 59.6619 141.715 51.8395 140.907C37.5158 139.432 28.2322 130.934 22.0527 118.528C18.5234 111.451 17.0291 103.906 18.2427 95.9586C19.3283 88.865 22.8577 83.2092 28.6656 79.1817C40.0544 71.2926 52.4917 69.4736 65.4574 74.2925C76.3591 78.3448 82.3735 86.843 84.4126 98.1795C85.0566 101.751 85.2671 105.402 85.6758 109.019C85.4487 115.512 84.425 113.958 89.8367 118.366C90.5136 118.918 91.2071 119.448 91.8634 120.02C92.1194 120.243 92.301 120.542 92.5239 120.811C92.2102 120.911 91.8965 121.076 91.5745 121.105Z" fill="#FFCE1F"/>
<path d="M129.803 32.7043C129.254 19.7353 123.904 10.802 113.168 5.41962C100.862 -0.749997 84.2353 2.29959 73.8909 12.4055C68.3554 17.8086 65.5773 24.3345 65.6846 32.1367C65.8869 46.27 76.0456 61.1451 89.1558 66.2995C93.6386 68.0605 98.2454 68.6572 103.017 67.7829C108.982 66.6973 113.329 63.2707 116.676 58.3689C117.919 56.5541 117.927 56.5583 119.549 58.1245C120.986 59.5208 122.422 60.913 123.855 62.3094C124.684 63.1215 125.634 63.5566 126.777 63.0552C127.945 62.5456 128.193 61.5221 128.119 60.3702C127.933 57.6024 127.76 54.8304 127.541 52.0667C127.264 48.5448 127.037 45.114 128.193 41.5921C129.213 38.4679 129.407 35.0661 129.803 32.7126V32.7043ZM123.603 41.9525C122.934 44.2936 122.736 46.5601 122.942 48.9301C123.099 50.7201 123.227 52.5142 123.347 54.3084C123.368 54.6274 123.26 54.963 123.211 55.2862C122.926 55.1039 122.6 54.9589 122.352 54.7269C121.341 53.7863 120.383 52.7794 119.339 51.8679C117.783 50.5005 116.185 50.7781 115.099 52.5474C114.484 53.5501 113.927 54.5984 113.271 55.5763C108.326 62.9143 101.085 65.5454 92.6562 62.8315C83.2901 59.8109 77.1312 53.1772 73.0364 44.4593C70.7289 39.5535 69.6185 34.3742 70.2129 28.8965C70.5844 25.4491 71.7196 22.3042 73.6597 19.4494C81.3087 8.18746 98.3816 3.33546 110.666 9.10316C120.136 13.545 124.878 21.2435 125.473 32.7913C125.011 35.1531 124.552 38.6295 123.599 41.9608L123.603 41.9525Z" fill="#FFCE1F"/>
<path d="M241.053 136.415C244.091 137.116 246.936 137.687 249.726 138.45C251.328 138.889 251.906 140.074 251.464 141.35C251.03 142.606 249.932 142.95 248.294 142.552C246.217 142.05 244.12 141.404 242.015 141.342C240.087 141.288 238.102 141.793 236.207 142.299C234.606 142.73 233.483 142.564 232.926 141.363C232.372 140.169 232.822 138.893 234.395 138.317C236.57 137.522 238.853 137.024 241.053 136.411V136.415Z" fill="black"/>
<path d="M275.662 158.583C275.625 155.086 279.662 150.097 282.692 149.65C283.22 149.571 284.158 150.056 284.352 150.52C284.55 150.992 284.24 151.899 283.852 152.355C283.377 152.906 282.585 153.18 281.928 153.573C281.247 153.984 281.227 154.253 281.833 154.928C282.539 155.716 283.018 156.785 283.357 157.808C283.658 158.72 283.253 159.569 282.222 159.822C281.198 160.07 280.575 159.528 280.273 158.562C280.182 158.272 280.203 157.866 280.009 157.7C278.965 156.801 279.031 157.907 278.824 158.425C278.465 159.325 277.9 160.037 276.888 159.689C276.327 159.494 275.922 158.836 275.658 158.587L275.662 158.583Z" fill="black"/>
<path d="M234.292 175.625C234.037 175.637 233.781 175.662 233.525 175.662C232.555 175.662 231.746 175.36 231.675 174.258C231.601 173.114 232.29 172.596 233.38 172.53C236.695 172.327 239.82 171.423 242.767 169.899C243.13 169.712 243.498 169.526 243.853 169.323C244.794 168.788 245.747 168.585 246.383 169.691C247.019 170.794 246.395 171.548 245.446 172.078C241.97 174.021 238.321 175.438 234.288 175.629L234.292 175.625Z" fill="black"/>
<path d="M244.781 145.469C245.35 145.543 246.221 145.498 246.948 145.804C247.447 146.016 248.054 146.72 248.042 147.188C248.029 147.599 247.229 148.299 246.758 148.315C245.627 148.357 245.024 148.377 245.235 149.869C245.425 151.207 243.947 152.231 242.63 151.974C241.359 151.721 239.93 149.695 239.963 148.195C240.001 146.745 240.962 145.846 242.696 145.651C243.307 145.585 243.918 145.543 244.781 145.473V145.469Z" fill="black"/>
<path d="M149.298 118.209C145.575 119.108 141.868 120.106 138.198 121.204C136.782 121.631 136.737 123.16 137.955 124.084C138.351 124.383 138.776 124.697 139.053 125.095C140.159 126.678 141.719 127.25 143.556 127.295C146.805 127.25 150.896 123.529 151.329 120.21C151.494 118.942 150.586 117.898 149.298 118.213V118.209ZM141.872 123.45C143.552 123.003 144.828 122.659 146.272 122.273C145.166 124.043 143.891 124.428 141.872 123.45Z" fill="black"/>
<path d="M168.571 108.944C167.742 108.766 166.854 108.811 166.301 108.401C165.459 107.776 165.649 106.794 166.359 106.118C167.841 104.714 169.372 103.363 170.941 102.062C171.696 101.432 172.596 101.399 173.24 102.261C173.929 103.189 173.607 104.067 172.716 104.627C171.733 105.24 171.547 105.932 171.787 107.063C171.981 107.966 171.808 108.994 171.614 109.926C171.424 110.854 170.792 111.542 169.739 111.298C168.666 111.049 168.262 110.287 168.563 109.189C168.6 109.052 168.567 108.898 168.567 108.944H168.571Z" fill="black"/>
</g>
<defs>
<clipPath id="clip0_1367_12032">
<rect width="443" height="378" fill="white" transform="translate(-26)"/>
</clipPath>
</defs>
</svg>
