<svg width="358" height="419" viewBox="0 0 358 419" fill="none" xmlns="http://www.w3.org/2000/svg">
<g clip-path="url(#clip0_1367_12033)">
<path d="M189.103 80.8511C189.103 80.8511 192.517 40.3428 192.517 34.6207C192.517 28.8986 190.812 9.64977 190.812 9.64977C190.812 9.64977 87.5726 8.20759 86.4346 8.08033C85.2967 7.95308 83.8731 24.1819 83.8731 24.1819L78.9121 93.6822C78.9121 93.6822 120.305 95.1668 121.004 97.6949C121.703 100.223 123.361 112.6 123.361 112.6L162.657 113.576L189.022 82.4205L189.108 80.8511H189.103Z" fill="#FFE380"/>
<path d="M210.903 83.0864L202.17 77.9878L210.903 7.09619C210.903 7.09619 292.342 13.6072 292.342 14.4556C292.342 15.3039 285.463 89.4701 285.203 90.3142C284.948 91.1626 282.101 109.423 281.534 109.635C280.967 109.843 274.139 111.871 274.139 111.871L217.53 86.5391L210.903 83.0864Z" fill="#FFE380"/>
<path d="M306.557 10.21C303.719 11.9066 302.218 22.4176 301.831 25.654C301.443 28.8904 298.549 48.555 300.71 48.7713C302.866 48.9876 349.702 51.3842 351.454 48.7713C353.205 46.1584 356.832 16.721 354.309 13.8918C351.786 11.0625 306.557 10.21 306.557 10.21Z" fill="#FFE380"/>
<path d="M298.6 60.8218C297.462 62.2894 290.353 107.442 291.206 109.635C292.058 111.824 294.334 113.058 298.6 113.572C302.866 114.085 340.628 116.354 342.508 115.786C344.387 115.217 347.52 115.031 348.087 111.871C348.654 108.711 351.454 60.8218 351.454 60.8218H298.6Z" fill="#FFE380"/>
<path d="M297.045 169.851C304.874 180.425 318.883 190.406 318.883 190.406C318.883 190.406 333.298 191.365 336.997 190.796C340.697 190.232 341.263 188.815 342.508 184.854C343.753 180.892 349.511 142.678 349.225 139.383C348.939 136.087 346.382 132.206 340.718 129.758C335.058 127.311 283.432 127.981 283.432 127.981C283.432 127.981 289.211 159.276 297.045 169.851Z" fill="#FFE380"/>
<path d="M68.5677 170.109L102.575 172.116H114.018L118.856 167.306L121.698 119.752L121.443 99.82L117.667 96.5199L42.1259 94.6875L36.0908 102.06L33.5293 165.04L37.6337 169.337L42.1259 160.243L53.4374 158.135L63.7515 159.293L68.5677 170.109Z" fill="#FFCE1F"/>
<path d="M126.43 219.669C126.43 219.669 125.757 190.796 126.43 184.569C127.104 178.342 134.92 165.07 139.826 160.243C144.736 155.416 156.397 140.697 156.397 140.697C156.397 140.697 153.554 127.395 153.268 119.752C152.983 112.108 158.958 99.2898 169.481 92.1128C180.004 84.9358 211.006 71.6635 225.796 76.3209C240.585 80.9741 257.024 97.6949 257.024 97.6949C257.024 97.6949 275.069 103.294 280.116 119.756C285.162 136.218 290.059 159.539 294.475 165.545C298.886 171.551 308.936 187.123 314.792 188.819C320.648 190.516 326.926 194.482 326.414 201.557C325.903 208.632 320.439 229.578 326.444 235.241C332.445 240.903 348.91 253.238 345.099 268.076C341.289 282.913 331.026 288.457 331.026 288.457L154.125 229.298L126.434 219.674L126.43 219.669Z" fill="black"/>
<path d="M145.907 335.99C145.907 335.99 141.606 339.68 132.502 350.721C123.403 361.758 116.008 377.783 111.456 385.821C106.904 393.859 104.629 401.957 109.18 402.805C113.732 403.653 191.66 417.329 242.284 418.699C292.909 420.069 310.507 416.391 308.819 414.69C307.132 412.994 297.747 393.745 294.618 387.518C291.49 381.291 278.866 366.288 278.866 366.288L209.863 343.926L145.907 335.99Z" fill="black"/>
<path d="M36.6578 264.199C36.6578 264.199 42.565 273.425 50.8803 274.786C59.1913 276.148 73.3499 277.887 73.3499 277.887L86.6645 255.024C86.6645 255.024 123.391 223.347 126.135 221.934C128.876 220.518 142.719 206.982 150.983 205.4C159.247 203.818 164.144 204.102 164.144 204.102L264.58 214.206C264.58 214.206 286.453 217.035 303.48 246.095C320.507 275.151 335.104 303.456 339.89 313.365C344.681 323.273 350.959 340.537 349.241 350.161C347.524 359.786 339.758 375.149 338.424 380.163C337.09 385.177 332.453 387.806 324.773 389.219C317.093 390.636 293.102 384.273 295.224 383.862C297.347 383.45 308.023 371.387 309.856 362.895C311.688 354.403 303.169 335.438 303.169 335.438L291.137 331.757L266.229 292.296L205.316 343.642L141.607 335.434V303.167L133.074 282.892L119.708 296.75L94.6815 316.754L70.2215 327.226L44.0567 328.923L25.5679 321C25.5679 321 17.6576 311.091 20.1892 303.167C22.7209 295.244 36.6578 264.199 36.6578 264.199Z" fill="#343434"/>
<path d="M265.662 217.595C258.191 226.303 249.88 234.897 239.302 239.809C228.749 244.708 217.216 244.403 206.168 241.387C200.542 239.851 195.13 237.624 189.828 235.202C184.641 232.827 179.296 230.486 174.45 227.461C170.218 224.823 166.463 221.226 164.873 216.403C163.505 212.263 163.859 206.711 167.656 203.899C171.565 201.01 176.969 202.698 181.248 203.653C186.094 204.738 190.85 206.134 195.526 207.784C193.548 198.745 193.016 189.426 194.004 180.23C182.736 175.886 174.723 164.676 174.284 152.633C170.469 152.167 167.175 149.503 165.555 146.021C163.659 141.923 164.6 137.609 167.315 134.127C170.001 130.683 173.858 128.328 175.984 124.435C178.205 120.367 179.062 115.714 181.38 111.692C185.647 104.291 193.203 99.8453 201.041 96.9737C205.069 95.4976 209.211 94.3226 213.367 93.2749C218.123 92.0788 223.31 91.2771 227.875 93.5803C236.114 97.733 238.1 107.069 239.076 115.476C240.461 119.124 241.778 122.797 242.98 126.504C244.476 131.115 245.315 136.137 247.276 140.578C247.515 141.126 247.847 141.707 248.252 142.275C251.632 139.7 257.117 140.15 259.597 143.798C261.677 146.873 260.991 150.771 258.8 153.469C258.489 154.954 257.978 156.396 257.347 157.673C255.553 161.308 252.386 164.48 248.303 165.358C245.034 166.058 241.59 165.18 239.238 162.903C234.997 165.889 235.879 172.51 236.412 177.066C237.158 183.466 237.929 189.867 238.692 196.268C239.054 199.313 239.216 202.486 239.868 205.485C240.512 208.458 242.6 209.353 245.354 210.002C251.73 211.504 258.17 212.857 264.58 214.189C266.191 214.524 266.766 216.297 265.667 217.582L265.662 217.595Z" fill="white"/>
<path d="M297.342 383.45C296.801 383.908 295.897 384.154 295.22 383.862C288.192 380.825 281.398 377.321 274.766 373.503C268.936 370.144 262.896 366.619 257.731 362.233C254.134 362.428 250.507 361.262 247.685 358.823C247.472 358.64 247.318 358.428 247.22 358.208C244.962 357.389 243.146 355.926 242.328 353.432C241.028 349.453 241.846 344.486 242.426 340.435C242.946 336.821 243.815 333.284 244.957 329.831C240.256 330.946 235.764 335.337 230.918 331.964C229.081 330.683 228.399 328.52 228.757 326.569C226.047 326.442 223.455 325.47 222.322 322.751C221.588 320.991 221.704 319.044 222.488 317.453C220.561 316.049 219.504 313.492 219.871 311.006C220.489 306.807 224.073 303.952 227.785 302.412C232.589 300.419 237.703 299.028 242.617 297.327C245.784 296.228 248.955 295.151 252.126 294.073C247.024 292.546 241.646 292.067 236.301 292.775C232.857 293.229 229.784 294.603 226.43 295.291C224.35 295.711 221.652 295.524 220.745 293.276C218.132 286.828 230.709 284.992 234.46 284.3C234.639 284.266 234.818 284.237 234.993 284.207C242.012 282.54 249.364 282.476 256.546 283.991C256.738 284.029 256.904 284.063 257.066 284.097C258.008 284.305 258.281 285.094 258.131 285.916C259.687 286.442 261.166 287.13 262.513 288.029C268.548 292.084 267.836 299.57 267.683 305.929C267.508 313.292 267.418 320.656 266.984 328.011C267.256 327.969 267.533 327.969 267.793 328.032C271.037 328.83 274.225 329.797 277.362 330.925C277.72 330.709 278.133 330.599 278.576 330.683C280.788 331.099 282.902 331.757 284.897 332.656C288.955 333.712 293.059 334.34 297.3 335.035C297.977 335.146 298.374 335.477 298.553 335.892C300.36 336.202 302.06 336.881 303.539 338.221C307.708 341.996 309.297 348.35 309.736 353.75C310.648 364.961 305.9 376.171 297.338 383.454L297.342 383.45Z" fill="white"/>
<path d="M105.835 205.49C105.413 209.214 103.998 212.879 102.817 216.412C101.509 220.344 100.102 224.246 98.5934 228.106C95.5205 235.983 92.064 243.703 88.4284 251.33C84.8483 258.842 81.1829 266.337 77.4025 273.751C76.3114 275.885 74.8793 276.106 72.6162 276.377C70.8474 276.589 69.0488 276.708 67.2673 276.733C63.3846 276.788 59.5274 276.347 55.7427 275.499C51.9026 274.634 48.1648 273.319 44.6614 271.537C41.7035 270.031 38.5325 268.046 39.3508 264.22C39.7472 262.354 41.0002 260.742 42.0189 259.173C42.1254 259.011 42.2277 258.846 42.3343 258.685C42.3854 258.532 42.4536 258.375 42.5559 258.218C51.2462 244.246 59.9323 230.138 70.7835 217.706C61.1385 215.093 52.0134 210.792 43.843 205.04C43.3103 204.667 43.0801 204.187 43.0673 203.695C32.425 198.385 23.0357 191.539 20.244 179.229C19.8562 177.507 21.8593 175.246 23.5855 176.582C29.7271 181.346 35.792 186.211 41.874 191.051C41.6864 188.086 41.5032 185.125 41.3156 182.16C41.2858 181.672 41.4094 181.236 41.6353 180.862C41.4137 174.754 41.2006 168.642 40.9875 162.534C40.9235 160.748 42.9182 159.395 44.4781 160.358C45.5606 161.028 46.6432 161.694 47.7258 162.36C48.6634 160.54 50.7433 159.264 52.8914 159.573C53.7481 159.7 54.4641 159.989 55.0736 160.392C55.5424 160.557 55.9856 160.795 56.4033 161.104C57.0938 160.277 57.9845 159.603 59.1737 159.166C62.5918 157.902 65.3281 160.116 65.993 163.433C66.351 165.24 66.3041 167.102 66.5854 168.918C66.9136 170.996 67.4762 173.049 68.2135 175.017C69.6796 178.949 71.9854 182.648 74.9177 185.664C80.0791 190.987 87.2521 194.432 94.651 195.123C97.8646 195.424 101.398 195.085 103.853 197.587C105.907 199.679 106.154 202.716 105.839 205.485L105.835 205.49Z" fill="white"/>
<path d="M245.831 294.854C240.265 298.378 233.889 299.375 227.803 301.628C222.377 303.634 215.724 307.888 216.675 314.607C217.118 317.733 219.202 320.414 221.141 322.789C223.102 325.19 225.152 327.591 227.543 329.576C231.191 332.613 238.952 335.286 241.919 329.784C242.69 328.359 245.03 328.469 244.702 330.382C244.174 333.474 243.922 336.626 243.398 339.731C242.891 342.704 242.375 345.673 241.902 348.655C241.459 351.442 241.084 354.242 240.568 357.02C240.15 359.294 239.362 361.453 237.474 362.933C233.915 365.728 228.08 365.677 223.801 366.097C219.108 366.56 213.934 367.37 209.25 366.53C199.055 364.698 199.349 352.897 198.182 344.804C196.6 333.856 195.079 322.9 193.894 311.91C192.756 301.343 191.665 290.493 192.219 279.855C192.206 279.706 192.219 279.55 192.245 279.397C192.245 279.312 192.245 279.231 192.257 279.151C192.343 277.696 194.175 276.754 194.981 277.67C207.06 279.057 219.223 279.588 231.375 279.282C233.199 279.236 232.7 281.556 231.899 282.358C229.452 284.784 226.226 285.492 223.059 286.536C221.418 287.079 219.398 287.766 218.371 289.259C217.399 290.671 217.425 292.754 219.138 293.543C220.788 294.306 223.225 293.704 224.943 293.56C227.164 293.369 229.376 293.182 231.592 292.991C236.029 292.618 240.465 292.249 244.902 291.88C246.59 291.74 247.298 293.937 245.836 294.862L245.831 294.854Z" fill="#999999"/>
<path d="M240.588 266.231C238.926 268.873 234.37 268.008 231.761 267.936C227.614 267.826 223.467 267.567 219.333 267.202C215.199 266.842 211.073 266.366 206.969 265.773C204.782 265.454 202.592 265.115 200.414 264.725C198.948 264.462 198.018 264.313 197.371 262.918C197.345 262.859 197.328 262.795 197.319 262.731C196.659 262.663 196.075 262.15 196.318 261.34C197.17 258.485 199.51 256.381 202.251 255.363C201.854 253.786 202.263 252.038 203.546 250.799C206.202 248.229 209.513 250.04 212.134 251.597C218.212 255.223 225.36 253.476 231.949 255.24C234.612 255.953 237.212 257.226 239.058 259.312C240.635 261.107 242.02 263.966 240.584 266.239L240.588 266.231Z" fill="#D5D5D5"/>
<path d="M247.477 275.936C245.802 276.759 243.778 276.873 241.962 277.157C239.938 277.471 237.905 277.781 235.876 278.069C219.143 280.462 201.737 281.56 185.716 275.198C184.961 274.901 184.531 274.014 184.744 273.234C186.065 268.424 189.338 262.808 194.346 261.136C194.871 260.64 196.584 262.464 197.33 262.723C206.77 266.002 215.686 265.781 225.681 266.133C230.212 266.29 234.746 266.142 239.247 265.65C240.543 265.51 241.834 265.344 243.117 265.124C243.952 264.984 245.035 264.543 245.887 264.666C247.226 264.856 248.666 266.676 249.378 267.753C251.206 270.515 250.614 274.4 247.486 275.936H247.477Z" fill="#EDEDED"/>
<path d="M48.1661 79.9689C47.3478 82.5182 44.7863 84.5966 41.9989 83.5574C39.0879 82.4715 38.2696 78.9424 37.6047 76.2744C37.2893 75.0273 36.9185 73.5851 36.7097 72.1302C36.3219 70.3699 35.9766 68.5969 35.6868 66.8238C35.2393 64.037 35.6868 61.0466 38.325 59.4772C40.9973 57.8908 44.0234 59.2609 45.481 61.7847C47.0026 64.423 47.5183 67.8758 47.9914 70.845C48.4431 73.7081 49.0825 77.1397 48.1746 79.9689H48.1661Z" fill="#FFCE1F"/>
<path d="M28.1814 79.4686C25.3472 77.3435 22.1123 75.7189 19.0436 73.9629C17.424 73.0339 15.8044 72.1007 14.1806 71.1761C12.8679 70.4253 11.5253 69.5557 9.95687 69.5175C6.88819 69.4412 4.53553 72.4274 5.26435 75.3796C5.41352 75.9862 5.66072 76.5164 5.98037 76.9787C6.01021 77.3053 6.14659 77.6404 6.42362 77.9543C8.79759 80.6478 12.6888 82.4081 15.7447 84.2702C18.8774 86.179 22.0995 88.5967 25.4665 90.0601C28.4031 91.3369 31.6081 89.7632 32.2474 86.5692C32.8654 83.4812 30.4403 81.161 28.1857 79.4686H28.1814Z" fill="#FFCE1F"/>
<path d="M25.3585 104.456C23.513 106.721 20.4869 106.628 17.8359 106.666C14.4519 106.717 10.6714 107.226 7.33423 106.662C6.90376 106.586 6.47755 106.471 6.06413 106.314C2.48401 105.585 -0.623035 103.26 0.110039 99.7141C0.710989 96.8001 3.50264 95.1755 6.31133 95.0398C9.68262 94.8744 13.1903 95.3749 16.5531 95.587C19.3532 95.7609 22.7714 95.5573 24.9365 97.6442C26.8204 99.4639 27.0335 102.408 25.3585 104.452V104.456Z" fill="#FFCE1F"/>
<path d="M239.809 85.2496C228.433 71.8203 208.031 76.1596 193.762 81.5084C178.58 87.2008 161.212 95.137 155.139 111.408C153.605 115.523 152.807 120.023 153.366 124.409C153.869 128.354 155.083 133.393 158.804 135.48C159.874 136.078 161.37 134.61 161.204 133.554C160.697 130.301 158.979 127.404 158.6 124.074C158.203 120.621 158.502 117.071 159.571 113.758C161.668 107.264 166.446 101.915 171.85 97.8856C178.018 93.2834 185.191 90.2251 192.312 87.4044C199.669 84.4903 207.43 81.7629 215.43 81.5423C223.225 81.326 230.577 83.5571 236.825 88.2188C238.479 89.4531 241.181 86.8699 239.809 85.2496Z" fill="white"/>
<path d="M160.25 130.581C159.107 129.631 157.262 131.022 157.411 132.35C157.752 135.374 158.174 138.101 156.883 140.998C155.655 143.756 153.567 146.084 151.598 148.341C146.952 153.664 142.294 158.971 137.64 164.285C133.603 168.896 129.38 173.583 127.411 179.492C125.569 185.019 126.166 190.847 126.95 196.505C127.381 199.619 127.867 202.741 127.952 205.888C128.041 209.298 127.159 212.064 126.243 215.288C125.514 217.85 129.034 218.766 130.381 216.857C133.816 211.983 133.386 205.167 132.691 199.551C131.962 193.647 130.488 187.407 131.997 181.511C133.586 175.297 138.731 170.41 142.831 165.732C147.66 160.213 152.672 154.809 157.313 149.13C159.576 146.364 161.533 143.264 162.321 139.743C163.02 136.634 162.875 132.77 160.245 130.581H160.25Z" fill="white"/>
<path d="M213.926 10.4261C213.533 8.92452 211.769 9.71348 211.228 10.5915C209.838 12.8523 209.595 15.7664 209.122 18.3284C208.615 21.0685 208.159 23.8129 207.729 26.5615C206.846 32.1945 206.028 37.8402 205.274 43.4944C203.795 54.595 202.674 65.7422 201.74 76.8979C201.63 78.234 203.074 79.0781 204.251 78.8787C205.708 78.6327 206.467 77.2881 206.578 75.9562C207.511 64.8048 208.734 53.683 210.115 42.5825C210.784 37.204 211.513 31.8297 212.302 26.4682C212.707 23.7196 213.112 20.971 213.499 18.2181C213.853 15.6985 214.586 12.9329 213.926 10.4218V10.4261Z" fill="white"/>
<path d="M311.803 44.9452C310.427 44.5889 309.216 44.7289 307.805 44.6271C306.177 44.5125 305.704 43.9908 305.764 42.3662C305.9 38.8414 306.399 35.2911 306.719 31.7789C307.017 28.4874 307.247 25.1958 307.49 21.9C307.703 19.0114 308.807 14.8164 307.098 12.2586C306.629 11.5545 305.623 11.792 305.167 12.3689C303.884 14.002 303.68 15.9701 303.45 17.9807C303.194 20.2245 302.96 22.4684 302.717 24.7165C302.226 29.2042 301.809 33.7004 301.395 38.1924C301.08 41.6239 299.797 46.1456 303.164 48.487C306.113 50.5358 309.932 49.4032 312.149 46.9133C312.613 46.3916 312.651 45.1658 311.803 44.9494V44.9452Z" fill="white"/>
<path d="M301.976 61.0722C301.827 59.121 299.201 59.1847 298.558 60.8262C297.616 63.227 297.343 65.8357 296.908 68.3595C296.452 70.9936 295.987 73.6277 295.57 76.2703L293.072 92.1088C292.284 97.1055 291.21 102.145 290.771 107.184C290.472 110.624 291.781 116.524 296.431 115.79C297.65 115.599 298.702 113.881 297.88 112.796C296.861 111.447 295.578 110.679 295.306 108.868C294.973 106.654 295.676 104.193 296.022 102.009L298.191 88.2531C298.89 83.8078 299.615 79.3667 300.292 74.9172C300.654 72.5545 300.97 70.1877 301.307 67.825C301.622 65.6151 302.146 63.3118 301.976 61.0722Z" fill="white"/>
<path d="M89.2738 6.92252C88.8689 5.97662 87.7565 6.2693 87.3346 7.04129C85.7917 9.86202 85.9068 13.8153 85.5786 16.9457C85.2249 20.3093 84.9351 23.6815 84.6282 27.0494C84.0102 33.8574 83.422 40.661 82.885 47.4732C81.7982 61.2418 80.771 75.0146 79.7353 88.7874C79.6373 90.0981 81.0353 90.9253 82.1988 90.7301C83.6223 90.4884 84.381 89.1692 84.4833 87.8627C85.536 74.2341 86.5887 60.6055 87.5903 46.9727C88.0847 40.2411 88.528 33.5095 88.9414 26.7737C89.1502 23.4143 89.3676 20.0548 89.5253 16.6912C89.6659 13.722 90.4715 9.70932 89.2696 6.91828L89.2738 6.92252Z" fill="white"/>
<path d="M32.7162 282.498C34.5191 277.416 37.3064 272.78 39.1221 267.741C39.6335 266.316 38.2526 264.784 36.8845 265.972C33.4067 268.996 31.3992 273.208 29.6561 277.412C27.866 281.721 26.4595 286.192 25.1809 290.676C22.6578 299.507 20.2753 309.352 24.5885 318.03C26.1015 321.076 28.8377 324.927 32.4179 325.687C33.4706 325.907 35.5803 325.996 36.1386 324.762C36.6799 323.574 35.1669 322.141 34.421 321.428C31.5484 318.679 29.2597 316.198 28.0834 312.287C26.6769 307.6 27.3034 302.599 28.3306 297.904C29.4643 292.707 30.9389 287.507 32.7162 282.493V282.498Z" fill="white"/>
<path d="M162.022 206.575C159.393 205.426 155.898 205.918 153.145 206.44C150.131 207.012 147.186 208.077 144.424 209.392C138.59 212.17 133.39 216.094 128.327 220.051C117.284 228.687 106.825 238.049 96.7107 247.737C93.9063 250.422 91.136 253.132 88.3827 255.868C85.5953 258.638 82.6928 261.327 80.37 264.508C79.313 265.955 80.7152 267.613 82.2666 266.561C85.7828 264.186 88.7748 261.119 91.8776 258.248C95.0059 255.351 98.1257 252.445 101.267 249.561C107.455 243.885 113.691 238.248 120.114 232.836C126.353 227.58 132.717 222.304 139.527 217.79C142.745 215.657 146.21 213.731 149.888 212.505C151.67 211.911 153.541 211.491 155.412 211.305C157.296 211.122 159.167 211.398 161.046 211.144C163.173 210.855 164.192 207.521 162.018 206.571L162.022 206.575Z" fill="white"/>
<path d="M149.914 231.699C147.6 230.304 144.544 233.956 146.85 235.546C148.806 236.895 150.191 238.787 150.707 241.035C141.56 247.478 135.402 258.049 134.268 269.145C133.582 275.876 134.924 282.392 136.8 288.839C138.858 295.935 140.955 302.883 141.612 310.281C141.965 314.243 142.012 318.23 141.756 322.196C141.616 324.363 141.373 326.527 141.049 328.677C140.797 330.336 140.06 332.401 141.33 333.793C141.957 334.476 142.703 334.471 143.47 333.971C146.01 332.308 145.95 327.795 146.244 325.063C146.624 321.56 146.794 318.026 146.717 314.501C146.573 307.668 145.503 300.881 143.679 294.294C141.82 287.592 139.276 280.924 138.948 273.913C138.692 268.411 139.877 262.918 142.251 257.951C144.996 252.208 149.266 247.402 154.594 243.907C155.31 243.44 155.796 242.388 155.736 241.548C155.446 237.48 153.464 233.841 149.918 231.703L149.914 231.699Z" fill="white"/>
<path d="M145.349 336.456C142.783 337.915 140.75 340.596 138.828 342.802C136.816 345.118 134.873 347.498 133.032 349.949C129.268 354.971 125.893 360.312 122.871 365.805C116.891 376.668 112.45 388.354 109.607 400.409C108.721 404.167 114.146 404.09 114.931 400.782C117.641 389.312 121.891 378.271 127.559 367.926C130.385 362.772 133.573 357.856 137.046 353.118C138.721 350.831 140.452 348.592 142.263 346.412C144.156 344.134 146.662 341.945 148.021 339.315C148.891 337.636 147.203 335.4 145.349 336.452V336.456Z" fill="white"/>
<path d="M204.058 350.335C203.922 346.989 203.764 343.642 203.581 340.295C203.21 333.466 202.745 326.637 202.191 319.82C201.104 306.51 200.06 292.89 197.362 279.787C197.213 279.058 196.42 278.51 195.704 278.477C195.176 278.455 194.792 278.515 194.345 278.816C192.955 279.758 192.943 280.945 193.066 282.476C193.211 284.288 193.411 286.099 193.607 287.906C193.97 291.24 194.362 294.57 194.707 297.908C195.436 304.991 196.105 312.088 196.702 319.184C197.286 326.141 197.771 333.105 198.164 340.075C198.36 343.561 198.53 347.048 198.675 350.535C198.811 353.78 198.296 357.805 199.711 360.77C200.525 362.479 203.252 361.355 203.734 359.989C204.8 356.982 204.19 353.478 204.062 350.331L204.058 350.335Z" fill="white"/>
<path d="M193.164 261.845L192.759 262.163C192.239 262.574 191.886 263.27 191.779 263.978C190.189 267.215 188.404 270.316 186.247 273.225C184.333 275.813 187.658 278.485 189.686 275.94C192.461 272.453 194.865 268.682 196.659 264.602C197.682 262.269 195.244 260.208 193.169 261.845H193.164Z" fill="white"/>
<path d="M209.19 250.333C208.265 249.005 206.147 249.646 205.623 251.028C205.116 252.36 205.687 254.244 204.382 254.982C203.078 255.72 201.595 255.949 200.368 256.882C198.283 258.468 196.86 262.065 199.707 263.669C200.939 264.36 202.929 263.134 202.298 261.611C201.749 260.284 203.773 259.978 204.604 259.681C205.844 259.245 207.012 258.685 207.958 257.747C209.71 256.008 210.682 252.479 209.182 250.333H209.19Z" fill="white"/>
<path d="M295.121 325.157C291.251 319.244 287.381 313.331 283.511 307.418C281.346 304.109 279.126 300.835 276.918 297.556C275.814 295.919 274.71 294.277 273.585 292.652C272.558 291.168 271.616 289.242 269.753 288.784C268.803 288.551 267.592 289.14 267.477 290.222C267.149 293.306 269.766 296.207 271.343 298.718C273.227 301.713 275.106 304.712 276.999 307.702C280.779 313.674 284.679 319.575 288.519 325.509C289.794 327.477 291.831 332.592 294.784 331.909C295.91 331.651 296.698 330.73 296.924 329.593C297.244 327.96 295.952 326.429 295.117 325.157H295.121Z" fill="white"/>
<path d="M323.98 335.06C324.006 335.048 324.031 335.031 324.057 335.022C324.104 334.752 324.04 334.878 323.98 335.06Z" fill="white"/>
<path d="M328.132 334.068C327.624 333.216 326.346 333.042 325.51 333.466C324.999 333.729 324.556 334.047 324.274 334.556C324.21 334.67 324.172 334.827 324.134 334.976C324.108 334.989 324.083 334.997 324.057 335.014C324.053 335.052 324.044 335.09 324.031 335.141C324.014 335.222 324.002 335.294 323.989 335.362C323.84 335.578 323.904 335.273 323.976 335.052C323.639 335.226 323.239 335.451 323.158 335.485C322.139 335.943 321.091 336.329 320.012 336.622C317.988 337.173 315.882 337.538 313.781 337.58C311.689 337.623 309.498 337.042 307.469 337.648C306.178 338.034 305.381 339.57 306.442 340.63C310.491 344.681 332.291 341.041 328.132 334.055V334.068Z" fill="white"/>
<path d="M76.8363 91.1671C76.849 92.6984 77.6162 93.6188 78.9076 93.6782C80.1905 93.7418 81.1239 92.8808 81.2603 91.4047C81.5927 87.761 81.9294 84.1174 82.1979 80.4738C83.0376 68.9957 83.9241 57.5219 84.6444 46.0354C85.2283 36.6697 85.6076 27.287 86.0423 17.9086C86.2384 13.6372 86.1957 13.6245 90.4621 13.7475C106.449 14.2056 122.427 14.6722 138.414 15.1345C155.305 15.6563 172.191 16.1738 189.078 16.6276C190.45 16.6658 190.804 17.1536 190.757 18.4049C190.476 26.515 190.39 34.6337 189.934 42.7311C189.414 51.9398 188.587 61.1316 187.867 70.3319C187.637 73.2926 187.334 76.2406 187.027 79.197C186.836 81.0676 187.547 82.268 189.014 82.4165C190.476 82.5692 191.464 81.5639 191.605 79.6551C192.858 62.2005 194.26 44.7586 195.253 27.2913C195.577 21.5565 194.98 15.7496 194.516 10.0021C194.235 6.5366 191.942 4.33515 188.634 3.4147C186.704 2.87601 184.671 2.4688 182.676 2.43063C169.459 2.15916 156.234 2.15916 143.022 1.77316C128.855 1.35748 114.7 0.564277 100.533 0.0595137C96.8722 -0.0719792 93.1642 0.00437153 89.5372 0.449751C85.3433 0.958755 83.289 3.09233 82.6668 7.24072C82.0615 11.2746 81.6396 15.3424 81.3881 19.4144C80.2374 38.0949 79.1932 56.7881 78.0552 75.4728C77.7782 80.0793 77.3008 84.6688 76.9215 89.2668C76.8704 89.8988 76.832 90.5351 76.8363 91.1714V91.1671Z" fill="#FFCE1F"/>
<path d="M200.474 78.9085C201.037 79.5406 201.915 80.2192 202.707 80.2701C203.995 80.3507 204.63 79.3412 204.745 78.0772C205.06 74.5353 205.333 70.9935 205.704 67.4602C206.927 55.8082 208.188 44.1605 209.424 32.5043C209.983 27.2318 210.558 21.9594 211.027 16.6785C211.138 15.4526 211.492 15.0878 212.753 15.1472C229.422 15.9065 246.091 16.6064 262.76 17.3359C271.548 17.7219 280.332 18.1588 289.121 18.5024C290.352 18.5491 290.698 18.9435 290.561 20.0973C289.969 25.0983 289.398 30.1035 288.865 35.1129C288.025 43.0237 287.228 50.9387 286.401 58.8453C284.918 73.1313 283.947 87.481 281.266 101.627C280.882 103.65 280.213 105.623 279.642 107.604C279.42 108.393 279.032 108.821 278.022 108.567C276.923 108.295 276.036 108.872 275.614 109.941C275.196 111.018 275.559 111.909 276.458 112.609C278.487 114.174 281.389 113.843 282.668 111.481C283.866 109.279 284.88 106.836 285.302 104.38C286.657 96.3377 287.91 88.2615 288.835 80.1641C290.259 67.6765 291.384 55.155 292.637 42.6547C293.515 33.8998 294.64 25.1576 295.215 16.3858C295.671 9.38274 293.195 6.77833 286.167 5.95968C281.3 5.39129 276.407 5.03074 271.518 4.64899C262.385 3.93214 219.705 2.01065 214.56 2.41785C209.765 2.79537 207.553 5.11982 207.063 9.94688C206.505 15.4314 206.066 20.9287 205.482 26.4174C204.613 34.587 203.59 42.7438 202.754 50.9218C201.868 59.6257 201.122 68.3467 200.333 77.0592C200.278 77.6827 200.142 78.5353 200.47 78.9085H200.474Z" fill="#FFCE1F"/>
<path d="M288.834 109.538C289.397 113.716 291.422 115.9 295.65 116.265C304.775 117.05 313.921 117.597 322.743 118.216C328.629 118.216 334.174 118.233 339.719 118.204C340.989 118.195 342.276 118.102 343.534 117.915C346.85 117.432 349.057 115.531 349.646 112.274C350.264 108.838 350.566 105.343 350.882 101.865C352.032 89.1862 353.128 76.5077 354.257 63.8292C354.645 59.4518 353.025 56.9916 348.648 56.2324C344.987 55.6003 341.241 55.2143 337.533 55.1507C325.65 54.9429 313.768 54.8114 301.885 54.9174C297.273 54.9556 295.257 57.2419 294.772 61.8738C294.52 64.3043 294.375 66.7391 294.222 69.178C294.128 70.6287 294.951 71.6679 296.238 71.757C297.653 71.8503 298.407 71.0656 298.693 69.7634C298.761 69.4538 298.769 69.1314 298.786 68.8133C298.978 65.8568 298.978 65.8653 301.876 65.9331C317.117 66.2894 332.363 66.6669 347.604 66.9596C349.113 66.9893 349.3 67.4305 349.177 68.7963C347.949 82.2637 346.807 95.7354 345.605 109.207C345.285 112.796 344.518 113.618 340.908 113.58C331.583 113.487 322.253 113.326 312.928 113.012C307.767 112.842 302.618 112.35 297.465 111.934C293.898 111.646 293.054 110.899 293.403 107.332C293.842 102.806 294.784 98.3355 295.415 93.8224C296.135 88.6814 296.775 83.5277 297.397 78.3698C297.58 76.8725 296.664 75.7781 295.326 75.6848C293.953 75.5915 293.05 76.5162 292.841 78.2214C292.338 82.3231 291.899 86.4375 291.289 90.5265C290.539 95.5572 289.597 100.558 288.834 105.585C288.638 106.878 288.66 108.248 288.834 109.546V109.538Z" fill="#FFCE1F"/>
<path d="M326.423 46.3577C320.03 46.3577 313.633 46.3704 307.24 46.345C306.021 46.3408 304.802 46.1923 303.583 46.0947C302.061 45.976 301.639 45.1022 301.818 43.6854C302.193 40.7417 302.509 37.7895 302.816 34.8415C302.905 34.0016 302.965 33.1406 302.884 32.3007C302.764 31.0282 302.001 30.2477 300.689 30.2138C299.453 30.1798 298.634 30.8585 298.485 32.0759C298.281 33.7556 298.238 35.4565 298.059 37.1447C297.829 39.3038 297.411 41.4501 297.288 43.6133C297.036 47.9484 298.933 50.1498 303.246 50.6843C304.567 50.8454 305.901 50.943 307.231 50.9472C320.235 50.9685 333.238 50.9685 346.242 50.9642C347.039 50.9642 347.836 50.8836 348.633 50.8327C352.051 50.6121 354.25 48.7373 355.009 45.5391C355.691 42.6674 355.972 39.694 356.309 36.7545C356.854 31.9656 357.349 27.164 357.77 22.3624C357.954 20.3094 358.056 18.2267 357.932 16.1737C357.685 12.1187 355.328 9.76027 351.241 9.4167C348.057 9.14947 344.861 8.97556 341.668 8.88224C331.282 8.58108 320.891 8.3393 310.504 8.08056C309.545 8.05511 308.586 8.08056 307.627 8.11873C304.026 8.27568 301.707 9.90449 300.974 13.3997C300.292 16.653 300.049 20.004 299.73 23.321C299.602 24.6699 300.574 25.5903 301.822 25.6497C303.122 25.7091 304.052 24.865 304.226 23.4101C304.533 20.8311 304.721 18.2352 305.13 15.6775C305.556 13.0137 306.093 12.5683 308.851 12.5937C314.711 12.6446 320.576 12.7464 326.432 12.9246C333.886 13.1536 341.34 13.4887 348.795 13.7687C352.993 13.9256 353.764 14.6467 353.474 18.8587C353.21 22.6635 352.66 26.4471 352.272 30.2435C351.846 34.4088 351.573 38.5912 351.015 42.7353C350.589 45.8954 349.881 46.3577 346.715 46.3662C339.947 46.3789 333.178 46.3662 326.41 46.3662V46.3577H326.423Z" fill="#FFCE1F"/>
<path d="M312.442 130.509C319.824 130.831 328.399 131.133 336.962 131.637C339.046 131.76 341.134 132.439 343.138 133.109C345.345 133.847 346.487 135.603 346.88 137.873C347.643 142.305 346.637 146.636 346.138 150.996C345.311 158.262 344.548 165.537 343.653 172.795C343.278 175.836 342.869 178.907 342.081 181.859C340.781 186.729 338.104 188.972 333.088 189.24C329.661 189.422 326.2 189.006 322.752 188.837C322.224 188.811 321.699 188.646 321.171 188.629C319.935 188.595 319.108 189.201 318.882 190.406C318.639 191.687 319.223 192.667 320.472 192.964C322.177 193.371 323.928 193.804 325.663 193.808C329.158 193.808 332.713 193.855 336.139 193.29C340.964 192.493 344.506 189.554 345.852 184.845C347.054 180.646 347.736 176.273 348.324 171.933C349.386 164.057 350.311 156.159 351.078 148.248C351.436 144.579 351.602 140.833 351.295 137.168C350.92 132.719 348.128 129.661 343.866 128.554C339.984 127.544 335.93 126.802 331.928 126.687C317.544 126.28 303.147 126.182 288.758 125.983C286.32 125.949 285.237 126.67 285.208 128.214C285.178 129.784 286.26 130.505 288.694 130.509C296.212 130.513 303.726 130.509 312.442 130.509Z" fill="#FFCE1F"/>
<path d="M214.485 57.0083C211.71 56.9744 210.644 55.7994 210.96 53.1314C212.051 43.8675 213.168 34.6121 214.314 25.3567C214.646 22.659 216.569 21.1744 219.382 21.2889C224.228 21.484 229.069 21.6918 233.915 21.8954C236.63 22.01 239.349 22.0736 242.056 22.2645C244.532 22.4384 245.444 23.6218 245.154 26.0523C244.046 35.418 242.938 44.7879 241.821 54.1536C241.54 56.512 240.526 57.4028 238.139 57.4113C234.252 57.4197 218.478 57.0677 214.485 57.0168V57.0083ZM235.68 52.8429C236.907 52.8811 237.427 52.6521 237.581 51.2862C238.424 43.7021 239.362 36.1221 240.33 28.5507C240.5 27.2103 240.219 26.6631 238.744 26.6165C232.564 26.4298 226.388 26.1541 220.213 25.8614C219.134 25.8105 218.7 26.1584 218.576 27.2188C217.66 35.278 216.718 43.333 215.742 51.3838C215.605 52.5036 216.249 52.4654 216.974 52.4654C220.17 52.4654 232.645 52.7496 235.68 52.8387V52.8429Z" fill="white"/>
<path d="M174.399 78.972C176.867 78.972 177.933 78.357 177.984 76.7918C178.039 75.163 176.965 74.4504 174.399 74.4164C153.554 74.1662 132.712 73.9159 111.867 73.6699C111.283 73.6614 110.69 73.6402 110.111 73.7166C108.866 73.8777 108.197 74.6413 108.201 75.8713C108.201 77.093 108.896 77.848 110.111 78.0558C110.579 78.1364 111.07 78.111 111.547 78.111C122.049 78.111 163.949 78.9635 174.399 78.972Z" fill="white"/>
<path d="M172.021 58.5141C172.661 58.5141 173.304 58.5141 173.935 58.4378C175.239 58.2808 175.981 57.5131 175.934 56.2024C175.891 54.9002 175.094 54.1918 173.816 54.0349C173.394 53.984 172.963 54.0052 172.537 54.0094C152.672 54.0349 132.806 54.0646 112.937 54.0985C112.301 54.0985 111.654 54.1197 111.031 54.2343C109.881 54.4463 109.267 55.1971 109.254 56.3509C109.241 57.5089 109.893 58.2554 110.993 58.5269C111.551 58.6668 112.157 58.6329 112.74 58.6329C122.701 58.6371 162.219 58.5184 172.021 58.5141Z" fill="white"/>
<path d="M173.253 48.6354C175.751 48.6354 176.79 47.9694 176.803 46.4212C176.816 44.8688 175.704 44.1349 173.313 44.1392C153.498 44.1646 133.684 44.1943 113.87 44.224C113.235 44.224 112.587 44.2325 111.96 44.3385C110.741 44.5464 110.081 45.3184 110.102 46.5485C110.123 47.787 110.874 48.4954 112.054 48.7033C112.625 48.8051 113.222 48.7626 113.806 48.7626C123.711 48.7626 163.339 48.6439 173.249 48.6354H173.253Z" fill="white"/>
<path d="M246.035 69.8055C255.352 70.1364 264.669 70.4715 273.985 70.8023C274.412 70.8193 274.838 70.8363 275.264 70.8193C276.794 70.7641 277.689 69.9752 277.719 68.6772C277.749 67.3877 276.858 66.497 275.379 66.4037C273.623 66.2934 271.867 66.2213 270.111 66.1577C252.492 65.5087 234.868 64.8639 217.249 64.2277C216.614 64.2065 215.953 64.1513 215.339 64.2701C214.214 64.4864 213.562 65.2372 213.532 66.3825C213.503 67.5277 214.069 68.3209 215.229 68.5542C215.902 68.6899 216.601 68.7493 217.291 68.7705C226.873 69.1184 236.458 69.4492 246.039 69.7886C246.039 69.7928 246.039 69.797 246.039 69.8055H246.035Z" fill="white"/>
<path d="M116.389 25.3571C115.805 25.3571 115.196 25.3104 114.642 25.4504C113.538 25.7261 112.907 26.4854 112.928 27.6434C112.95 28.7886 113.538 29.5521 114.71 29.743C115.285 29.8363 115.878 29.8575 116.462 29.8618C135.479 29.9933 154.496 30.1205 173.509 30.2435C173.986 30.2435 174.472 30.2266 174.937 30.1332C176.079 29.8957 176.693 29.1534 176.71 28.0039C176.727 26.7738 176.049 26.0061 174.869 25.7516C174.306 25.6285 173.701 25.6752 173.117 25.6752C163.634 25.6752 125.817 25.3571 116.385 25.3613L116.389 25.3571Z" fill="white"/>
<path d="M303.22 153.249C304.004 159.348 306.413 164.769 310.44 169.435C312.315 171.611 314.148 171.475 315.896 169.215C318.167 166.271 320.528 163.403 322.792 160.447C324.786 157.843 326.342 155.03 326.419 152.044C326.41 148.519 324.356 146.971 321.33 147.819C318.517 148.608 316.458 150.407 314.962 152.825C314.348 153.817 314.029 153.864 313.36 152.892C312.132 151.107 310.525 149.728 308.403 149.066C305.079 148.031 302.794 149.838 303.229 153.249H303.22Z" fill="white"/>
<path d="M128.932 88.8001C135.112 88.8001 141.288 88.8001 147.468 88.8001C147.894 88.8001 148.325 88.8213 148.747 88.7746C150.081 88.6346 150.98 87.9729 150.98 86.5604C150.98 85.1649 150.106 84.4693 148.772 84.2996C148.457 84.2572 148.133 84.2741 147.813 84.2699C135.351 84.1596 122.884 84.0493 110.422 83.9391C109.889 83.9348 109.344 83.8924 108.828 83.9857C107.635 84.202 106.914 84.9316 106.91 86.166C106.91 87.3876 107.562 88.1553 108.803 88.3377C109.327 88.4141 109.864 88.4353 110.397 88.4353C116.576 88.4437 128.932 88.677 128.932 88.7958V88.8001Z" fill="white"/>
<path d="M336.477 21.5562C332.534 25.3568 328.051 28.5593 323.844 32.0714C321.875 33.713 322.246 33.4797 321.206 31.4733C320.354 29.8233 319.556 28.1436 318.687 26.5021C317.92 25.0514 316.773 24.5721 315.567 25.1193C314.301 25.6961 313.926 26.9644 314.672 28.5084C316.079 31.4224 317.506 34.328 318.99 37.2039C320.03 39.2102 321.764 39.6683 323.452 38.2813C328.993 33.7172 334.504 29.1107 339.938 24.4194C340.513 23.9231 340.841 22.693 340.679 21.9295C340.534 21.2508 338.446 19.6559 336.477 21.5562Z" fill="black"/>
<path d="M281.888 29.6197C282.472 29.6409 283.081 29.7003 283.64 29.5688C284.739 29.31 285.575 28.5253 285.336 27.4225C285.17 26.642 284.424 25.9039 283.772 25.3313C283.444 25.0386 282.753 25.1065 282.225 25.0895C272.69 24.7756 263.152 24.4745 253.618 24.1776C251.883 24.1224 250.835 24.8986 250.732 26.2518C250.626 27.6685 251.64 28.6738 253.439 28.6907C258.447 28.7374 277.413 29.467 281.884 29.6154L281.888 29.6197Z" fill="white"/>
<path d="M279.863 50.1158C281.018 50.1158 281.994 49.8783 282.446 48.6906C283.047 47.1211 281.977 45.7638 280.038 45.6875C275.14 45.4923 270.248 45.3142 265.351 45.1572C260.453 45.0003 255.556 44.8773 250.659 44.7331C249.355 44.6949 248.324 45.0682 247.991 46.4637C247.637 47.9652 248.665 49.0935 250.48 49.1657C255.428 49.3608 275.013 50.1073 279.859 50.1243L279.863 50.1158Z" fill="white"/>
<path d="M280.311 40.0161C281.167 40.0034 282.229 39.8677 282.808 39.3544C283.298 38.9218 283.618 37.6238 283.315 37.1318C282.872 36.4107 281.841 35.6896 281.005 35.6259C277.715 35.3672 274.408 35.3545 271.105 35.2654C264.925 35.1 258.745 34.9303 252.565 34.7988C251.84 34.7818 250.881 34.7479 250.438 35.1594C249.871 35.6853 249.398 36.6736 249.449 37.4244C249.534 38.7097 250.604 39.2356 251.866 39.2399C256.767 39.2484 275.733 40.0755 280.311 40.0161Z" fill="white"/>
<path d="M139.884 114.093C144.513 114.093 149.146 114.11 153.774 114.085C155.475 114.076 156.442 113.173 156.395 111.773C156.353 110.492 155.471 109.69 153.906 109.673C150.552 109.631 147.202 109.652 143.848 109.648C137.941 109.644 132.034 109.618 126.126 109.656C125.368 109.661 124.341 109.754 123.923 110.229C123.424 110.797 123.075 111.994 123.352 112.596C123.667 113.275 124.737 113.97 125.517 114.013C128.594 114.174 131.688 114.085 134.774 114.089C136.479 114.089 138.179 114.089 139.884 114.093Z" fill="white"/>
<path d="M297.167 94.8613C297.854 91.2177 298.472 87.5613 299.252 83.9432C299.418 83.1712 300.006 82.255 300.671 81.8563C304.221 79.7269 308.666 81.8435 309.681 86.0471C311.04 91.6588 305.934 98.0511 300.019 98.1444C297.5 98.1826 296.711 97.2706 297.167 94.8613ZM303.654 84.3207C302.866 84.1595 302.469 84.3122 302.325 85.1563C301.83 87.9686 301.285 90.7723 300.76 93.5803C300.611 94.3778 300.726 94.7935 301.732 94.4626C304.259 93.627 306.591 90.5305 306.557 87.9261C306.531 85.9113 305.521 84.7024 303.654 84.3164V84.3207Z" fill="white"/>
<path d="M251.738 75.3113C251.572 75.3113 251.201 75.2986 250.83 75.3113C249.513 75.358 248.737 76.0324 248.597 77.3304C248.46 78.5732 249.283 79.553 250.638 79.6888C252.965 79.9221 255.301 80.0875 257.632 80.2529C262.35 80.5922 267.073 80.9146 271.795 81.2455C271.846 81.2455 271.902 81.2497 271.953 81.2539C274.284 81.3727 275.358 80.7577 275.469 79.2476C275.584 77.7291 274.693 76.9571 272.307 76.7747C265.521 76.2572 258.728 75.8034 251.734 75.3071L251.738 75.3113Z" fill="white"/>
<path d="M330.536 88.8808C330.003 87.3326 329.577 85.7377 328.887 84.2616C328.58 83.6084 327.676 82.7473 327.152 82.8152C326.487 82.9 325.575 83.7441 325.392 84.4228C324.403 88.1003 323.602 91.833 322.737 95.5445C322.489 96.605 322.894 97.36 323.921 97.6272C325.012 97.9114 325.66 97.2497 325.925 96.2826C326.406 94.5053 326.807 92.7026 327.617 90.8447C328.073 92.1936 328.537 93.5382 328.989 94.8871C329.321 95.8839 329.739 96.851 331.001 96.8043C332.254 96.7577 332.612 95.7821 332.872 94.7556C333.694 91.5234 334.521 88.2912 335.382 85.0675C335.685 83.9392 335.557 82.9891 334.321 82.6497C333.076 82.3062 332.454 83.0866 332.16 84.1937C331.738 85.7674 331.316 87.3411 330.898 88.9147C330.779 88.9063 330.66 88.8935 330.54 88.885L330.536 88.8808Z" fill="white"/>
<path d="M92.248 25.0347C92.67 27.3846 93.0408 30.0611 93.6673 32.6825C94.1404 34.6591 96.4291 35.2869 97.7972 33.7811C100.793 30.4853 103.653 27.0665 106.509 23.6477C107.391 22.5915 107.238 21.4293 106.164 20.5597C105.077 19.6774 103.947 19.8598 103.04 20.8693C101.407 22.6848 99.8473 24.5596 98.2362 26.392C98.0103 26.6465 97.6694 26.7993 97.3838 26.9986C97.2688 26.7059 97.1196 26.4217 97.0514 26.1206C96.898 25.4504 96.7999 24.7675 96.655 24.0973C96.3652 22.7527 95.517 22.0443 94.1447 22.2352C92.7595 22.426 92.1799 23.3677 92.2566 25.0389L92.248 25.0347Z" fill="black"/>
<path d="M27.7628 88.6222C28.334 88.1683 29.1736 87.8078 29.4464 87.2012C29.7191 86.5862 29.5188 85.7039 29.3483 84.9786C29.2674 84.6392 28.7943 84.3508 28.449 84.1175C23.2365 80.6223 18.024 77.1314 12.7902 73.6702C11.3625 72.7243 10.0412 72.9406 9.30814 74.1198C8.61342 75.2354 8.93734 76.4655 10.2884 77.3732C15.4924 80.8768 20.7177 84.355 25.9472 87.8205C26.4203 88.1344 26.9957 88.2913 27.7628 88.6222Z" fill="#FFE380"/>
<path d="M313.189 84.1765C315.772 81.2582 319.816 81.7036 321.717 85.0969C323.414 88.117 322.804 91.0268 320.912 93.733C319.309 96.032 316.88 96.9907 314.749 96.2993C312.371 95.5273 310.76 93.1519 310.738 89.8561C310.853 88.0534 311.642 85.9241 313.185 84.1765H313.189ZM315.755 92.9398C316.343 93.1604 317.6 92.3842 318.163 91.7182C319.258 90.4288 319.727 88.8381 318.998 87.1457C318.218 85.3429 316.535 85.0757 315.465 86.7003C314.762 87.7692 314.425 89.0757 313.777 90.6196C314.429 91.4425 314.928 92.6302 315.755 92.9356V92.9398Z" fill="white"/>
<path d="M93.1216 83.0865C93.9698 82.5224 94.8307 82.2085 95.2953 81.6019C97.601 78.5649 99.8344 75.4726 102.034 72.355C102.907 71.1164 102.694 69.9075 101.646 69.1271C100.58 68.3339 99.2973 68.5756 98.3341 69.8397C96.9532 71.6509 95.6149 73.496 94.2979 75.3496C93.8078 76.0368 93.4881 76.0877 93.1429 75.2648C92.8957 74.6837 92.6443 74.0856 92.2948 73.5639C91.6086 72.5459 90.6113 72.249 89.5117 72.7707C88.4291 73.2839 87.8793 74.2213 88.3524 75.3878C89.1835 77.445 90.0529 79.4938 91.0844 81.4535C91.4296 82.1024 92.3246 82.4672 93.1259 83.0823L93.1216 83.0865Z" fill="black"/>
<path d="M94.0515 57.7127C94.9295 57.1528 95.7521 56.8771 96.1911 56.3087C98.4883 53.3311 100.717 50.3025 102.908 47.2485C103.752 46.0735 103.501 44.7458 102.469 44.0205C101.416 43.2782 100.193 43.4776 99.2598 44.6653C98.0152 46.2474 96.7963 47.8508 95.6583 49.5093C94.8528 50.68 94.4735 50.3746 94.1069 49.259C93.9578 48.8094 93.7745 48.3555 93.5102 47.9695C92.8113 46.9473 91.8182 46.6928 90.7186 47.206C89.6914 47.6854 89.1459 48.5804 89.521 49.679C90.2583 51.8253 91.034 53.9716 91.9972 56.0203C92.3211 56.7075 93.2758 57.1019 94.0473 57.7127H94.0515Z" fill="black"/>
<path d="M339.009 98.0386C339.75 97.9962 340.496 97.9623 341.238 97.9114C342.291 97.8435 342.985 97.3388 342.934 96.2317C342.887 95.1119 342.116 94.7132 341.08 94.7047C340.709 94.7047 340.326 94.7598 339.968 94.6919C339.405 94.5817 338.378 95.1458 338.51 93.8945C338.6 93.0334 338.625 91.99 339.998 92.1342C340.313 92.1681 340.739 92.2487 340.935 92.0918C341.528 91.6167 342.338 91.095 342.457 90.4714C342.534 90.0685 341.643 89.3092 341.033 88.9868C340.462 88.6857 339.439 89.1183 339.716 87.8246C339.934 86.8109 339.802 85.6104 341.451 85.7886C342.184 85.8692 343.019 85.9795 343.659 85.7165C344.272 85.4662 345.078 84.7621 345.095 84.2404C345.112 83.7144 344.311 82.7812 343.765 82.6964C342.201 82.4631 340.586 82.5225 338.996 82.5649C337.837 82.5988 337.168 83.3199 336.942 84.4355C336.2 88.0622 335.429 91.6803 334.747 95.3197C334.414 97.1012 335.258 98.0174 337.095 98.0768C337.734 98.098 338.37 98.0768 339.009 98.0768C339.009 98.0599 339.009 98.0429 339.009 98.0259V98.0386Z" fill="white"/>
<path d="M14.6664 99.8286C12.3223 99.8286 9.97816 99.8074 7.63403 99.8371C5.93773 99.8583 4.94894 100.749 4.99156 102.136C5.02992 103.451 5.95904 104.248 7.63403 104.261C12.3223 104.299 17.0106 104.312 21.6946 104.291C23.3823 104.282 24.2902 103.489 24.3328 102.166C24.3754 100.77 23.3951 99.8753 21.6988 99.8541C19.3547 99.8244 17.0106 99.8456 14.6664 99.8456V99.8286Z" fill="#FFE380"/>
<path d="M45.7754 78.34C45.2469 75.6592 44.6715 72.7028 44.0748 69.7463C43.7083 67.9308 43.3502 66.1154 42.924 64.3127C42.566 62.8069 41.6028 62.1155 40.337 62.3318C38.9987 62.5608 38.2443 63.6594 38.5469 65.2034C39.4462 69.8269 40.4009 74.4376 41.3556 79.0484C41.6284 80.3718 42.468 81.1183 43.8617 80.9486C45.1787 80.7917 45.7711 79.9179 45.7754 78.3358V78.34Z" fill="#FFE380"/>
<path d="M65.9544 90.7299C74.1589 90.2379 82.3804 90.0724 90.6019 90.2633C94.7062 90.3609 98.8149 90.5093 102.911 90.8359C106.721 91.1371 111.571 90.8444 114.908 92.8423C115.846 93.4064 116.456 94.9843 115.151 95.5442C113.259 96.3586 111.418 96.0617 109.419 95.9302C107.39 95.7987 105.361 95.6969 103.333 95.6036C99.2965 95.4255 95.2603 95.2261 91.2199 95.1498C82.9941 94.9971 74.7683 95.2049 66.5596 95.7394C62.7962 95.9854 63.0562 90.2039 65.9587 90.7341L65.9544 90.7299Z" fill="white"/>
<path d="M121.166 134.967C121.265 131.514 121.397 128.057 121.674 124.613C121.925 121.478 121.968 117.877 123.485 115.048C124.133 113.843 125.689 114.972 125.931 115.854C126.78 118.921 126.319 122.361 126.196 125.495C126.059 128.957 125.914 132.418 125.868 135.883C125.77 142.526 126.136 149.143 126.221 155.777C127.001 158.763 121.725 159.039 121.452 155.934C120.843 148.99 120.962 141.932 121.162 134.971L121.166 134.967Z" fill="white"/>
<path d="M119.952 114.161C119.875 117.279 119.829 119.803 119.748 122.323C119.658 125.147 119.556 127.972 119.428 130.797C119.326 133.105 119.176 135.412 119.049 137.72C118.912 140.214 118.789 142.708 118.635 145.198C118.473 147.807 118.273 150.415 118.102 153.024C117.953 155.264 117.851 157.507 117.676 159.747C117.501 161.982 117.276 164.218 117.033 166.445C116.973 166.975 116.773 167.492 116.602 168.006C116.146 169.367 115.162 170.16 113.798 170.504C111.82 171.005 109.804 171.034 107.784 170.954C106.458 170.903 105.133 170.839 103.807 170.746C100.338 170.5 96.8689 170.224 93.3995 169.987C91.3452 169.847 89.2909 169.753 87.2366 169.635C85.7236 169.545 84.2148 169.439 82.7018 169.359C80.9117 169.261 79.1217 169.181 77.3316 169.1C75.2901 169.011 73.2443 168.926 71.2028 168.846C70.9641 168.837 70.7254 168.846 70.4867 168.837C69.5448 168.807 68.9439 169.372 68.5773 170.105C68.2023 170.852 68.2662 171.649 68.735 172.413C69.1996 173.172 69.8687 173.401 70.7041 173.431C73.0013 173.516 75.2943 173.63 77.5873 173.736C79.3134 173.817 81.0353 173.88 82.7614 173.978C86.4353 174.186 90.105 174.398 93.7746 174.64C96.5705 174.822 99.3622 175.06 102.154 175.246C104.43 175.399 106.71 175.569 108.994 175.624C110.823 175.666 112.651 175.526 114.45 175.098C118.137 174.22 120.476 171.967 121.307 168.294C121.687 166.627 121.891 164.913 122.036 163.208C122.301 160.154 122.467 157.096 122.667 154.038C122.812 151.824 122.957 149.609 123.098 147.395C123.302 144.138 123.515 140.884 123.707 137.627C123.826 135.637 123.924 133.644 124.01 131.65C124.163 128.032 124.342 124.418 124.432 120.8C124.5 117.945 124.449 115.09 124.449 112.236C124.449 110.993 124.504 109.75 124.436 108.512C124.278 105.72 124.317 102.904 123.724 100.151C123.332 98.3272 122.573 96.6856 121.03 95.5234C119.863 94.6411 118.499 94.183 117.08 93.9328C115.831 93.7165 114.556 93.5638 113.291 93.5341C110.887 93.4747 108.483 93.5086 106.079 93.5256C101.353 93.5595 96.6217 93.674 91.895 93.6359C86.5163 93.5892 81.1376 93.4195 75.7631 93.2753C72.7882 93.1947 69.8176 93.0675 66.8427 92.9529C64.2684 92.8554 61.6941 92.7451 59.1198 92.6433C56.4646 92.5373 53.8136 92.4015 51.1583 92.3294C48.7161 92.2658 46.274 92.2276 43.8318 92.2573C42.2975 92.2743 40.7972 92.5924 39.3694 93.1693C36.9699 94.1406 35.6018 95.9985 34.8815 98.3993C34.434 99.8881 34.2294 101.419 34.1612 102.968C33.9865 107.006 33.8373 111.044 33.6753 115.086C33.573 117.606 33.4665 120.125 33.3514 122.649C33.2534 124.868 33.1426 127.082 33.0318 129.3C32.9295 131.396 32.8187 133.495 32.7078 135.591C32.5502 138.662 32.3967 141.737 32.2262 144.808C32.06 147.747 31.8682 150.687 31.6935 153.626C31.604 155.141 31.5486 156.663 31.442 158.178C31.3014 160.239 31.3227 162.296 31.6082 164.345C31.8682 166.211 32.2902 168.035 33.2704 169.677C34.3487 171.488 36.0195 172.345 38.0738 172.481C38.9177 172.536 39.7829 172.532 40.614 172.404C42.0844 172.184 42.8643 170.296 42.0631 169.045C41.5559 168.252 40.8995 167.772 39.8852 167.895C39.4035 167.955 38.9049 167.925 38.4147 167.904C37.7626 167.878 37.2342 167.59 37.0253 166.958C36.7184 166.021 36.3903 165.075 36.2326 164.108C35.9044 162.076 35.9726 160.027 36.1047 157.978C36.2113 156.358 36.2752 154.733 36.3647 153.109C36.4883 150.865 36.6247 148.625 36.7483 146.381C36.8378 144.761 36.9145 143.137 37.004 141.512C37.1276 139.23 37.264 136.948 37.3833 134.666C37.4728 132.978 37.5495 131.289 37.6348 129.597C37.7669 126.984 37.9033 124.371 38.0269 121.758C38.1207 119.727 38.1974 117.691 38.2741 115.659C38.3892 112.596 38.4787 109.534 38.6151 106.471C38.7003 104.626 38.8537 102.785 38.9944 100.944C39.0242 100.58 39.1478 100.223 39.2245 99.8627C39.5783 98.2339 40.6225 97.3474 42.2421 97.0674C43.7935 96.7959 45.3576 96.7238 46.9261 96.7832C50.7363 96.9232 54.5424 97.0801 58.3484 97.2286C60.9099 97.3304 63.4671 97.4407 66.0286 97.5425C68.8799 97.6528 71.7355 97.7673 74.5868 97.8564C78.2351 97.9709 81.8877 98.1193 85.5361 98.1575C92.334 98.2254 99.1363 98.2381 105.934 98.2424C108.257 98.2424 110.58 98.1321 112.903 98.1151C114.215 98.1066 115.52 98.2339 116.811 98.5478C118.294 98.9083 119.083 99.8457 119.27 101.305C119.432 102.56 119.598 103.824 119.654 105.084C119.794 108.304 119.871 111.527 119.956 114.157L119.952 114.161Z" fill="#FFCE1F"/>
<path d="M93.1354 247.813C93.161 247.809 93.1823 247.801 93.2121 247.796C103.079 238.8 112.945 229.803 122.791 220.785C123.23 220.386 123.707 219.822 123.784 219.279C123.997 217.761 123.959 216.213 124.103 214.686C124.832 207.038 124.112 199.415 123.588 191.797C122.893 181.677 125.386 172.629 132.376 165.083C136.928 160.171 141.765 155.518 146.288 150.581C149.262 147.336 151.896 143.785 154.701 140.392C155.396 139.552 155.344 138.776 154.982 137.771C154.032 135.132 153.107 132.464 152.425 129.75C149.706 118.95 150.899 108.859 158.447 100.151C160.629 97.6314 162.973 95.167 165.582 93.1055C179.122 82.3825 194.594 76.1132 211.719 73.8821C223.934 72.2915 234.819 75.5024 244.477 83.0696C249.361 86.8957 253.713 91.2349 257.651 96.0153C258.324 96.834 259.275 97.5508 260.246 97.9793C264.611 99.8965 268.741 102.17 272.436 105.194C278.467 110.132 282.047 116.685 284.229 123.943C285.265 129.432 288.359 139.251 290.618 148.07C293.912 162.381 300.855 174.22 312.968 182.919C316.148 185.206 319.037 187.937 321.846 190.682C325.609 194.364 327.668 198.966 328.495 204.153C329.432 210.054 329.108 215.954 327.885 221.714C326.334 229.023 327.932 234.965 333.839 239.763C335.932 241.463 337.748 243.525 339.542 245.557C350.44 257.913 350.581 279.702 333.353 289.637C332.22 290.29 332.454 290.841 332.902 291.77C336.836 299.944 341.055 307.999 344.537 316.359C349.818 329.042 352.827 342.217 350.832 356.104C349.588 364.783 346.89 372.918 341.664 380.091C335.898 388.01 328.077 391.917 318.266 391.913C311.574 391.913 305.173 390.39 298.891 388.252C298.307 388.053 297.718 387.874 296.687 387.544C297.245 388.345 297.514 388.774 297.821 389.172C303.826 396.986 307.751 405.83 310.726 415.132C311.293 416.909 310.803 418.118 309.465 418.563C308.092 419.017 306.98 418.326 306.43 416.561C302.782 404.841 297.117 394.258 288.636 385.266C287.924 384.511 287.302 383.535 286.424 383.098C276.225 378.055 266.635 372.044 257.468 365.334C256.828 364.867 255.95 364.537 255.162 364.486C251.177 364.231 247.303 363.671 244.025 361.135C243.322 360.592 243.288 361.024 243.002 361.606C242.495 362.649 241.975 363.977 241.063 364.486C235.757 367.442 230.08 369.317 223.942 369.661C215.716 370.119 208.011 368.07 200.437 365.156C198.187 364.291 197.206 362.836 197.023 360.52C196.767 357.296 196.311 354.089 195.983 350.874C194.734 338.637 193.396 326.404 192.292 314.154C191.355 303.749 190.702 293.318 189.897 282.901C189.594 279.011 189.56 279.015 185.737 277.878C185.277 277.743 184.821 277.594 184.369 277.446C181.667 276.564 181.023 275.117 182.276 272.615C183.887 269.387 185.614 266.21 187.135 262.939C188.107 260.844 189.607 259.741 191.87 259.911C193.669 260.046 194.658 259.346 195.118 257.667C195.284 257.06 195.501 256.386 195.911 255.945C196.78 255.007 197.658 253.794 198.775 253.438C200.642 252.84 201.558 251.907 201.899 249.994C202.265 247.915 203.143 247.292 205.287 247.046C206.928 246.859 208.577 246.698 210.223 246.63C211.612 246.575 212.707 247.173 213.296 248.492C213.577 249.12 213.884 249.752 214.05 250.413C214.336 251.546 215.047 251.843 216.151 251.894C222.86 252.186 229.568 252.568 236.277 252.865C238.19 252.95 239.673 253.658 240.206 255.512C241.242 259.126 243.407 261.052 247.298 261.217C248.24 261.255 249.536 262.235 249.975 263.122C251.658 266.545 253.107 270.087 254.54 273.628C255.217 275.308 254.488 276.67 252.779 277.289C252.08 277.543 251.3 277.607 250.648 277.938C250.175 278.175 249.856 278.714 249.468 279.117C249.885 279.393 250.273 279.817 250.729 279.919C252.549 280.313 254.424 280.479 256.215 280.962C264.006 283.062 269.32 287.575 270.723 295.885C270.88 296.826 271.43 297.768 272.001 298.565C279.357 308.928 286.215 319.6 292.451 330.675C292.821 331.337 293.733 332.015 294.471 332.109C300.122 332.821 305.778 333.678 311.455 333.907C315.794 334.081 320.41 335.218 324.433 332.164C324.817 331.875 326.398 332.461 326.777 333.055C327.161 333.657 327.093 335.116 326.615 335.587C325.038 337.144 323.278 338.535 320.789 338.48C317.06 338.399 313.326 338.48 309.593 338.416C308.403 338.395 308.067 338.565 308.651 339.782C309.592 341.737 310.424 343.752 311.182 345.788C316.352 359.718 312.15 375.289 300.906 383.06C299.854 383.79 300.404 384.04 301.205 384.299C306.49 386.029 311.873 387.285 317.465 387.421C325.874 387.624 332.829 384.642 337.743 377.728C339.606 375.107 341.281 372.269 342.542 369.321C347.469 357.805 347.972 345.89 345.3 333.759C342.841 322.586 338.476 312.096 333.119 302.06C324.65 286.184 315.99 270.4 307.129 254.736C303.506 248.331 299.41 242.146 295.042 236.216C288.909 227.886 280.576 222.219 270.983 218.389C270.565 218.223 269.759 218.227 269.538 218.49C266.358 222.253 263.494 226.304 260.08 229.833C250.333 239.911 238.305 244.7 224.219 244.577C213.735 244.484 203.553 242.677 193.549 239.733C185.954 237.497 178.662 234.549 172.137 229.977C167.896 227.003 164.248 223.474 162.044 218.702C160.318 214.961 159.645 211.11 161.316 207.157C161.742 206.147 161.384 206.113 160.523 206.198C156.141 206.622 151.913 207.627 147.856 209.328C139.43 212.866 132.346 218.393 125.621 224.395C113.278 235.411 100.995 246.494 88.7199 257.582C87.876 258.345 87.1216 259.291 86.5718 260.288C82.0753 268.415 77.6556 276.585 73.1719 284.72C71.7356 287.325 70.2055 289.874 68.6627 292.415C67.9551 293.581 66.8513 293.942 65.6366 293.267C64.4176 292.593 64.2131 291.49 64.7757 290.252C64.9504 289.866 65.1805 289.505 65.3936 289.14C67.0132 286.336 68.6115 283.52 70.2652 280.733C70.8661 279.724 70.8747 279.27 69.4895 279.249C67.4693 279.219 65.4405 279.096 63.4288 278.888C56.7246 278.201 50.0971 277.03 43.9853 274.091C41.6923 272.988 39.6636 271.249 37.7201 269.565C36.8421 268.801 36.6461 268.576 36.0409 269.705C32.5034 276.313 29.294 283.066 26.9115 290.179C24.9808 295.94 23.5317 301.797 23.6042 307.923C23.6894 315.104 26.7538 320.525 33.4708 323.485C36.0323 324.614 38.7558 325.526 41.5006 326.056C52.5521 328.206 63.3734 326.777 73.9561 323.354C87.6416 318.93 99.52 311.316 110.606 302.366C118.162 296.266 125.05 289.48 131.473 282.218C131.814 281.832 131.916 281.077 131.848 280.525C131.242 275.486 131.2 270.485 132.295 265.493C134.183 256.899 138.313 249.395 143.875 242.715C145.908 240.272 146.624 238.312 144.455 235.801C144.387 235.724 144.348 235.618 144.306 235.521C143.688 234.146 143.995 232.963 145.128 232.352C146.253 231.746 147.472 232.11 148.248 233.383C148.968 234.562 149.608 235.788 150.273 236.997C151.692 239.567 151.628 240.293 149.74 242.562C145.955 247.109 142.494 251.868 139.941 257.234C136.498 264.475 135.198 272.012 136.421 279.982C137.559 287.401 140.027 294.353 143.325 301.059C143.73 301.882 144.054 302.858 144.037 303.757C143.884 313.195 143.675 322.633 143.419 332.071C143.385 333.326 143.995 333.564 145.013 333.678C154.701 334.764 164.384 335.867 174.068 336.982C176.501 337.262 178.931 337.581 181.356 337.937C182.788 338.149 183.636 339.214 183.423 340.478C183.188 341.86 182.268 342.442 180.908 342.369C180.269 342.335 179.63 342.276 178.995 342.204C168.68 340.982 158.366 339.74 148.048 338.569C147.366 338.492 146.403 338.764 145.929 339.235C133.523 351.481 122.902 365.012 116.368 381.321C113.985 387.268 112.08 393.406 109.975 399.463C109.433 401.019 108.475 401.711 107.175 401.401C105.896 401.096 105.291 399.942 105.602 398.377C105.632 398.22 105.696 398.071 105.738 397.919C110.648 380.227 118.256 363.883 130.198 349.737C133.352 346.005 136.706 342.433 139.924 338.755C140.201 338.442 140.402 337.576 140.248 337.453C138.999 336.473 138.82 335.163 138.837 333.738C138.935 326.416 138.756 319.078 139.2 311.778C139.528 306.366 139.242 301.259 136.331 296.542C136.276 296.453 136.255 296.343 136.221 296.245C135.317 293.586 134.384 290.934 133.531 288.258C133.237 287.329 132.969 287.257 132.338 287.986C131.575 288.873 130.761 289.717 129.955 290.561C119.824 301.208 108.671 310.616 96.008 318.175C81.0652 327.095 65.1124 332.427 47.4419 331.43C41.4324 331.091 35.6104 329.878 30.253 326.997C24.1369 323.71 20.3693 318.747 19.3933 311.804C18.7667 307.337 19.0779 302.913 19.9473 298.514C21.8312 289.013 25.4965 280.156 29.9205 271.597C39.4207 253.213 51.2351 236.352 64.2045 220.263C65.8199 218.261 65.8284 218.287 63.3436 217.447C51.8233 213.545 40.8698 208.535 31.2759 200.938C27.3335 197.812 23.8301 194.257 21.2345 189.91C19.6277 187.221 18.5579 184.379 18.8264 181.159C19.2398 176.213 23.2547 174.114 27.44 176.731C28.6078 177.46 29.6606 178.372 30.7516 179.225C33.3089 181.223 35.8533 183.233 38.4148 185.227C38.7941 185.52 39.2331 185.732 39.7233 186.029C39.0712 182.237 38.3125 178.712 37.8949 175.149C37.3877 170.805 37.4005 166.445 39.1138 162.292C40.7291 158.373 43.2096 157.227 47.2714 158.339C47.6933 158.453 48.4221 158.288 48.6906 157.978C51.0433 155.289 53.7454 154.928 56.7331 156.909C57.1551 157.189 57.918 157.333 58.357 157.147C61.6473 155.777 64.0639 156.438 65.7645 159.569C66.7192 161.325 67.4266 163.242 68.0446 165.151C70.5806 173.002 73.2998 180.756 78.8873 187.093C79.5309 187.823 80.4813 188.493 81.4105 188.726C84.6624 189.532 88.0081 189.982 91.2388 190.856C95.3346 191.963 99.4688 193.074 103.369 194.694C106.898 196.162 108.743 199.22 109.058 203.101C109.442 207.831 108.287 212.327 106.505 216.582C102.388 226.414 97.9941 236.127 93.7363 245.9C93.4806 246.49 93.3954 247.152 93.2291 247.779C93.1993 247.796 93.1652 247.809 93.1354 247.826V247.813ZM242.576 205.239C242.998 206.491 243.607 206.911 244.916 207.072C256.036 208.425 266.763 211.207 276.924 216.005C287.157 220.832 295.485 227.958 301.61 237.34C307.061 245.684 311.945 254.405 316.94 263.037C321.168 270.341 325.217 277.751 329.283 285.149C329.897 286.264 330.332 286.218 331.325 285.615C345.411 277.022 344.963 259.55 336.789 249.506C335.152 247.491 333.302 245.633 331.44 243.822C322.575 235.19 321.543 231.987 323.538 219.865C324.386 214.724 324.77 209.549 323.845 204.349C323.065 199.963 321.121 196.187 317.878 193.167C315.078 190.563 312.222 187.976 309.145 185.71C297.152 176.875 290.042 165.002 286.59 150.721C284.698 142.89 282.592 135.115 280.568 127.319C280.329 126.399 279.954 125.512 279.669 124.6C276.204 113.478 268.732 106.178 258.009 101.882C256.658 101.339 255.354 100.291 254.42 99.1627C250.606 94.5562 246.437 90.3442 241.724 86.6454C232.991 79.7951 223.132 76.8598 212.106 78.3826C195.779 80.6349 180.985 86.6115 168.075 96.94C166.502 98.1998 165.083 99.6547 163.672 101.101C156.508 108.431 154.185 117.135 156.533 127.026C157.352 130.466 158.507 133.843 159.696 137.181C160.301 138.891 160.241 140.307 159.257 141.834C156.039 146.818 152.173 151.259 148.014 155.463C144.723 158.788 141.488 162.173 138.13 165.435C130.066 173.27 127.249 182.767 128.204 193.821C128.796 200.722 128.549 207.695 128.681 214.635C128.685 214.927 128.766 215.22 128.813 215.513C129.086 215.385 129.384 215.288 129.636 215.122C133.033 212.836 136.323 210.376 139.83 208.276C149.386 202.559 159.858 200.794 170.863 201.464C178.074 201.905 185.132 203.182 192.053 205.201C193.315 205.57 193.532 205.362 193.226 204.098C191.529 197.095 191.069 189.965 191.095 182.779C191.095 182.152 190.609 181.244 190.072 180.934C181.343 175.887 176.02 168.336 173.292 158.784C172.994 157.745 172.341 156.638 171.523 155.946C165.462 150.839 162.833 144.545 163.949 136.596C164.278 134.25 164.989 132.363 166.532 130.645C167.7 129.338 168.727 127.909 169.831 126.547C173.407 122.14 176.697 117.665 178.896 112.27C183.632 100.656 193.208 94.7852 205.087 92.1002C212.571 90.4078 220.153 89.9497 227.804 90.2297C230.706 90.3357 232.709 91.4979 234.086 94.2508C241.007 108.07 246.689 122.314 249.655 137.529C249.915 138.865 250.299 138.844 251.407 138.39C258.12 135.646 262.65 138.458 263.217 145.703C263.78 152.884 261.299 158.95 256.121 163.887C251.82 167.984 246.936 168.68 241.54 166.22C240.892 165.923 239.754 165.384 239.592 165.579C238.872 166.44 238.075 167.484 237.956 168.536C237.709 170.682 237.883 172.875 237.883 175.051C237.909 185.35 239.281 195.445 242.584 205.248L242.576 205.239ZM206.587 104.728C207.346 105.385 208.045 106.552 208.083 107.506C208.237 111.676 208.433 115.883 208.049 120.028C207.58 125.126 205.223 129.563 201.75 133.334C200.731 134.441 200.42 135.476 200.816 136.888C201.187 138.212 201.396 139.582 201.656 140.935C201.869 142.025 201.745 143.043 200.471 143.332C199.171 143.624 198.643 142.717 198.417 141.643C197.965 139.518 197.432 137.393 197.215 135.243C197.125 134.369 197.513 133.173 198.123 132.549C204.264 126.267 205.918 118.636 205.053 110.234C204.993 109.635 204.605 108.927 204.141 108.528C199.248 104.321 195.361 103.96 189.662 107.099C189.245 107.328 188.797 107.735 188.384 107.71C186.342 107.582 185.652 109.114 184.897 110.471C183.598 112.812 181.923 115.005 182.05 117.928C182.085 118.738 182.276 118.861 182.924 118.679C183.994 118.373 185.111 118.149 186.112 117.686C187.135 117.215 187.868 117.385 188.738 118.03C189.756 118.781 190.881 119.421 192.032 119.947C194.231 120.948 196.448 121.02 198.626 119.769C199.461 119.29 200.616 118.768 201.068 119.947C201.294 120.532 200.693 121.826 200.083 122.272C197.292 124.299 194.257 124.163 191.12 122.963C189.986 122.53 188.708 122.339 187.489 122.284C185.217 122.174 182.894 122.543 180.81 121.224C180.691 121.147 180.162 121.402 180.098 121.593C179.77 122.598 179.493 123.625 179.263 124.66C177.443 132.855 175.922 141.083 176.48 149.546C177.141 159.526 180.648 168.167 188.691 174.504C199.674 183.157 216.552 182.402 227.181 172.926C231.921 168.697 235.561 163.62 238.595 158.084C238.851 157.618 239.068 157.126 239.375 156.697C240.1 155.692 241.106 155.45 242.192 155.98C243.224 156.481 243.603 157.389 243.326 158.513C243.241 158.869 243.075 159.208 242.917 159.543C241.975 161.507 241.983 161.478 243.953 162.322C246.927 163.594 249.732 163.318 252.178 161.219C257.169 156.93 259.509 151.539 258.456 144.948C257.979 141.957 256.679 141.283 253.832 142.318C252.639 142.75 251.505 143.361 250.384 143.968C248.07 145.223 246.454 144.511 245.939 141.961C245.431 139.467 244.882 136.982 244.413 134.483C244.221 133.474 244.089 133.219 242.776 133.376C240.841 133.61 238.808 132.99 236.814 132.778C235.373 132.626 233.869 132.248 232.492 132.502C230.169 132.927 228.23 132.418 226.597 130.869C225.532 129.856 224.624 128.647 223.776 127.434C223.192 126.598 223.034 125.398 224.044 124.918C224.709 124.6 225.826 124.918 226.615 125.241C227.194 125.482 227.633 126.161 228.03 126.717C229.679 129.02 231.904 129.864 234.444 128.651C236.946 127.455 239.013 127.947 241.11 129.376C241.591 129.703 242.12 129.974 242.661 130.187C242.776 130.233 243.224 129.868 243.202 129.788C242.107 126.191 240.973 122.602 239.848 119.014C236.963 117.041 234.853 113.584 230.591 114.233C230.067 114.314 229.525 114.297 228.993 114.289C227.467 114.267 226.508 113.487 226.508 112.193C226.508 110.802 227.288 109.911 228.647 109.911C230.864 109.911 233.08 110.132 235.296 110.259C235.642 110.28 235.987 110.289 236.336 110.306C236.268 110.004 236.255 109.678 236.127 109.402C233.996 104.838 231.87 100.266 229.675 95.7311C229.47 95.3112 228.827 94.8743 228.362 94.8489C218.099 94.2635 208.028 95.1119 198.387 98.993C197.794 99.2306 197.223 99.519 196.648 99.7905C196.507 99.8583 196.384 99.9516 196.252 100.036C200.309 100.558 203.685 102.191 206.591 104.719L206.587 104.728ZM58.617 193.299C58.9366 193.91 59.3202 194.499 59.5504 195.144C59.9638 196.294 59.61 197.273 58.5317 197.854C57.4577 198.431 56.4689 198.19 55.6762 197.252C55.5398 197.091 55.4247 196.909 55.3224 196.722C50.323 187.632 46.8921 178.08 46.713 167.577C46.696 166.572 46.7258 165.55 46.9006 164.566C47.0966 163.446 46.6832 162.937 45.6475 162.58C44.4968 162.186 43.7552 162.678 43.5336 163.624C42.9752 166.033 42.2422 168.481 42.2294 170.915C42.1995 178.05 44.143 184.845 46.4403 191.539C47.0242 193.244 47.7104 194.915 48.3326 196.607C48.9251 198.219 48.5159 199.437 47.2288 199.946C45.9416 200.455 44.842 199.861 44.1217 198.262C44.1004 198.215 44.0748 198.164 44.0663 198.113C43.2864 194.028 40.4436 191.806 37.0893 189.681C33.2876 187.271 29.912 184.2 26.3021 181.486C25.5988 180.955 24.6697 180.722 23.8429 180.353C23.7065 181.32 23.2078 182.423 23.5104 183.229C24.3372 185.435 25.2493 187.691 26.5791 189.617C29.5711 193.952 33.6115 197.278 37.9503 200.226C48.3113 207.275 59.7549 211.933 71.7867 215.275C71.9913 215.33 72.2002 215.373 72.4047 215.432C74.2673 215.958 75.0216 216.879 74.7276 218.261C74.442 219.619 73.4234 220.013 71.4287 219.873C70.8533 219.831 70.0308 220.293 69.6642 220.781C62.4741 230.388 55.2585 239.987 48.2176 249.705C45.6049 253.311 43.4014 257.213 41.0445 260.997C39.6892 263.173 39.9492 265.794 41.931 267.444C43.3375 268.615 44.9827 269.603 46.6704 270.32C52.5563 272.827 58.7917 273.929 65.1337 274.485C67.5204 274.693 69.9242 274.791 72.3152 274.782C72.9077 274.782 73.7771 274.324 74.0541 273.819C84.3214 255.105 94.1157 236.157 101.787 216.208C102.959 213.159 103.765 209.935 104.391 206.728C105.333 201.91 103.914 199.195 99.2131 197.757C93.6809 196.069 88.0209 194.682 82.3225 193.659C78.6273 192.998 76.2747 191.305 74.003 188.349C69.0846 181.961 66.4421 174.652 63.9531 167.2C63.4161 165.592 62.8407 163.993 62.1673 162.44C61.9414 161.914 61.3703 161.537 60.9568 161.096C60.4454 161.584 59.5589 162.021 59.4864 162.568C59.2435 164.379 58.992 166.279 59.2861 168.061C60.3857 174.754 62.9472 180.998 65.7261 187.144C66.6211 189.125 67.6525 191.047 68.5731 193.015C69.2082 194.368 68.8417 195.56 67.6952 196.158C66.5529 196.756 65.2999 196.408 64.6137 195.068C60.0448 186.169 55.9063 177.1 54.5808 167.06C54.3634 165.414 54.5339 163.662 54.8536 162.021C55.088 160.82 54.4274 160.701 53.6986 160.375C52.7481 159.951 52.3432 160.574 52.2068 161.261C51.7636 163.484 51.4269 165.724 51.0518 167.959C51.5334 177.074 54.4913 185.354 58.6298 193.295L58.617 193.299ZM266.725 303.571C266.678 301.191 266.456 298.803 266.12 296.449C265.438 291.706 262.774 288.419 258.363 286.506C253.593 284.436 248.568 284.037 243.475 284.364C237.308 284.759 231.367 286.188 225.766 288.831C224.334 289.505 223.009 290.425 221.692 291.312C221.351 291.541 221.21 292.071 220.98 292.461C221.385 292.691 221.79 293.115 222.19 293.11C223.401 293.094 224.637 293.034 225.813 292.771C229.189 292.025 232.496 290.879 235.906 290.417C242.307 289.547 248.645 290.065 254.761 292.389C255.345 292.61 256.108 292.415 256.786 292.355C258.674 292.19 259.756 292.831 259.918 294.243C260.076 295.609 259.279 296.478 257.485 296.784C247.754 298.451 238.177 300.712 228.997 304.385C226.981 305.191 224.922 306.09 223.209 307.375C221.837 308.406 220.763 309.98 219.927 311.511C219.194 312.851 219.808 313.662 221.385 313.653C222.574 313.645 223.844 313.441 224.94 312.991C234.9 308.911 245.099 305.526 255.464 302.629C256.078 302.459 256.7 302.285 257.327 302.205C258.61 302.039 259.556 302.544 259.867 303.833C260.178 305.11 259.607 306.052 258.388 306.463C256.828 306.989 255.196 307.32 253.64 307.859C244.345 311.087 235.053 314.336 225.775 317.611C224.113 318.196 223.286 319.833 223.618 321.521C223.917 323.014 225.029 323.854 227.058 323.523C229.508 323.125 231.942 322.489 234.299 321.708C242.022 319.142 249.706 316.461 257.412 313.84C258.064 313.619 258.746 313.458 259.428 313.365C260.775 313.182 261.768 313.695 262.058 315.078C262.326 316.359 261.696 317.22 260.494 317.678C260.246 317.772 259.978 317.814 259.726 317.899C252.566 320.3 245.406 322.701 238.241 325.097C235.62 325.975 232.982 326.802 230.374 327.723C229.905 327.888 229.274 328.368 229.231 328.754C229.176 329.275 229.491 330.183 229.883 330.331C230.932 330.739 232.202 331.226 233.208 330.976C235.88 330.323 238.527 329.453 241.063 328.389C246.084 326.281 251.168 324.423 256.534 323.413C257.11 323.307 257.685 323.188 258.269 323.142C259.569 323.036 260.477 323.613 260.732 324.889C261.009 326.268 260.276 327.159 258.985 327.506C257.442 327.918 255.865 328.185 254.309 328.546C253.325 328.775 252.353 329.063 251.377 329.326C250.128 329.661 248.871 329.992 248.773 331.621C248.773 331.672 248.743 331.727 248.709 331.765C245.457 335.095 245.964 339.506 245.316 343.57C244.822 346.658 244.49 349.771 244.191 352.885C244.123 353.61 244.311 354.479 244.69 355.103C246.702 358.424 249.949 359.79 253.61 359.773C256.692 359.76 259.053 360.821 261.47 362.602C271.294 369.86 281.723 376.133 292.907 381.126C294.168 381.69 295.076 381.609 296.257 380.85C308.433 373.024 310.513 360.095 307.704 350.293C306.605 346.45 304.785 342.806 303.187 339.116C302.944 338.56 302.168 337.937 301.576 337.869C291.739 336.724 282.234 334.208 272.892 331.023C271.149 330.429 271.14 330.433 271.277 332.287C271.315 332.817 271.396 333.343 271.4 333.873C271.417 335.324 270.599 336.333 269.346 336.448C268.067 336.562 267.036 335.765 266.899 334.272C266.674 331.791 266.537 329.296 266.486 326.807C266.418 323.625 266.469 320.44 266.469 317.259H266.738C266.738 312.699 266.806 308.135 266.712 303.579L266.725 303.571ZM261.355 221.918C262.591 220.459 263.711 218.906 264.939 217.438C265.638 216.603 265.467 216.166 264.453 215.937C258.175 214.529 251.944 212.857 245.606 211.793C239.72 210.804 239.716 211.076 237.862 205.468C234.687 195.852 233.481 185.94 233.216 175.878C233.208 175.56 233.233 175.238 233.199 174.924C233.165 174.627 233.076 174.334 233.012 174.037C232.709 174.207 232.398 174.355 232.113 174.546C231.938 174.661 231.806 174.839 231.652 174.987C221.956 184.323 210.47 186.822 197.552 183.814C195.642 183.369 195.668 183.322 195.655 185.244C195.612 193.477 197.032 201.485 199.273 209.388C199.806 211.258 200.126 213.226 200.254 215.169C200.492 218.855 198.677 221.243 195.084 222.151C193.963 222.435 192.774 222.528 191.61 222.545C190.434 222.562 189.735 221.82 189.603 220.675C189.462 219.457 190.063 218.652 191.214 218.244C191.312 218.21 191.423 218.202 191.525 218.185C195.859 217.332 196.874 215.394 195.045 211.326C194.883 210.961 194.398 210.63 193.993 210.503C185.899 207.89 177.631 206.206 169.098 205.909C167.871 205.867 167.142 206.295 166.456 207.254C164.721 209.68 164.61 212.259 165.484 214.982C166.677 218.698 169.051 221.591 171.971 224.072C177.533 228.806 184.066 231.767 190.911 234.091C201.464 237.68 212.298 239.784 223.435 239.97C239.35 240.721 251.458 233.599 261.355 221.913V221.918ZM233.949 295.312C231.051 296.003 228.196 296.877 225.289 297.509C223.239 297.954 221.151 297.921 219.207 296.894C215.857 295.125 215.086 291.49 217.771 288.835C219.326 287.295 221.261 286.031 223.23 285.047C225.92 283.702 228.801 282.739 231.921 281.488C228.775 281.726 225.95 281.946 223.12 282.15C213.926 282.812 204.801 282.307 195.779 280.394C194.466 280.114 194.227 280.385 194.329 281.637C195.305 293.581 196.132 305.534 197.211 317.466C198.289 329.398 199.597 341.309 200.816 353.224C201.025 355.281 201.208 357.343 201.558 359.379C201.664 359.994 202.155 360.825 202.679 361.041C208.582 363.442 214.668 365.113 221.104 365.224C226.93 365.326 232.36 363.807 237.581 361.317C238.621 360.821 238.719 360.015 238.83 359.133C239.622 352.876 240.402 346.615 241.178 340.359C241.425 338.361 241.587 336.35 241.907 334.361C242.124 333.021 241.638 333.101 240.667 333.496C237.751 334.679 234.785 335.964 231.576 335.515C229.909 335.281 228.136 334.624 226.798 333.636C225.758 332.872 224.893 331.362 224.714 330.077C224.509 328.584 224.108 327.846 222.698 327.205C219.855 325.912 218.546 322.824 219.224 319.392C219.433 318.34 219.22 317.933 218.257 317.496C215.414 316.207 214.459 313.611 215.452 310.255C216.535 306.603 219.015 304.02 222.352 302.506C226.794 300.487 231.401 298.811 235.991 297.136C238.369 296.266 240.863 295.715 243.305 295.023C240.108 294.307 237.01 294.578 233.949 295.308V295.312ZM248.091 273.917C249.417 273.607 249.583 273.174 249.02 272.012C248.142 270.201 247.435 268.305 246.599 266.473C246.425 266.091 246.007 265.815 245.704 265.493C245.453 265.794 245.103 266.053 244.963 266.4C244.502 267.52 243.705 268.017 242.503 268.08C230.301 268.742 218.103 268.933 205.931 267.69C201.822 267.27 197.645 266.909 194.01 264.53C192.906 263.809 191.58 264.331 190.958 265.544C189.82 267.762 188.772 270.031 187.57 272.212C186.952 273.331 187.357 273.607 188.397 273.9C197.517 276.479 206.783 278.023 213.914 277.874C227.049 277.785 237.632 276.36 248.095 273.917H248.091ZM237.355 263.817C238.646 263.826 238.855 263.597 238.42 262.222C237.227 258.46 235.126 256.908 230.919 257.064C225.306 257.272 219.659 256.555 214.02 256.292C211.94 256.195 210.896 255.037 210.244 253.226C209.468 251.067 209.413 251.033 207.175 251.487C206.698 251.584 206.02 252.144 205.952 252.572C205.534 255.207 204.068 256.708 201.464 257.268C200.305 257.518 198.447 260.085 198.562 261.238C198.591 261.552 199.235 261.993 199.644 262.053C203.587 262.63 207.525 263.351 211.493 263.601C215.678 263.864 219.897 263.66 224.1 263.66C224.1 263.707 224.1 263.754 224.1 263.8C228.515 263.8 232.935 263.779 237.351 263.813L237.355 263.817ZM271.025 324.304C271.012 325.25 271.379 325.75 272.278 326.026C276.698 327.383 281.105 328.783 285.529 330.141C285.887 330.251 286.313 330.141 286.71 330.136C286.573 329.801 286.479 329.436 286.292 329.131C281.655 321.772 277.013 314.417 272.355 307.07C272.155 306.752 271.78 306.54 271.485 306.277C271.4 306.671 271.247 307.061 271.243 307.456C271.221 310.209 271.23 312.966 271.23 315.719C271.166 315.719 271.106 315.719 271.042 315.719C271.042 318.582 271.068 321.441 271.029 324.304H271.025ZM173.232 129.758C166.196 134.891 167.312 145.27 171.421 149.003C172.022 142.606 172.64 136.066 173.232 129.758ZM244.579 279.533C244.374 279.524 244.17 279.486 243.97 279.516C243.829 279.537 243.701 279.647 243.565 279.719C243.582 279.766 243.599 279.813 243.616 279.859C243.936 279.753 244.255 279.643 244.579 279.537V279.533Z" fill="black"/>
<path d="M257.024 148.4C256.73 146.148 255.004 144.748 253.248 145.809C250.452 147.501 247.865 149.567 245.346 151.662C244.392 152.455 244.788 153.554 245.781 154.385C246.292 154.814 246.561 155.531 247.055 155.989C247.618 156.506 248.389 157.299 248.926 157.202C249.48 157.1 249.992 156.124 250.273 155.429C250.439 155.017 250.115 154.411 250.013 153.893C249.902 153.321 249.506 152.451 249.736 152.231C250.725 151.289 251.893 150.525 253.014 149.732C253.086 149.681 253.342 149.927 253.529 149.982C254.271 150.212 255.243 150.805 255.707 150.542C256.347 150.178 256.598 149.151 257.02 148.409L257.024 148.4Z" fill="black"/>
<path d="M201.007 156.027C201.246 155.777 202.158 155.242 202.171 154.686C202.184 154.088 201.446 153.041 200.884 152.926C196.332 151.984 192.914 149.579 190.446 145.669C190.139 145.185 189.022 145.206 188.285 144.994C188.076 145.728 187.497 146.606 187.714 147.179C189.325 151.391 196.042 155.98 201.007 156.027Z" fill="black"/>
<path d="M102.302 109.75C98.4657 110.17 94.5744 112.685 91.3949 114.725C87.7168 117.084 84.1707 119.548 80.9529 122.5C76.4394 126.64 72.4415 131.132 68.8998 136.01C66.6707 133.389 64.4246 130.78 62.1572 128.188C58.0827 123.527 50.1254 130.131 53.7993 134.763C57.3326 139.217 60.8956 143.632 64.544 147.989C67.3697 151.361 71.4954 149.524 73.4261 146.262C77.2491 139.802 81.8735 133.681 87.2692 128.439C89.9458 125.838 92.6309 123.247 95.5845 120.965C98.5083 118.704 101.867 116.634 104.292 113.851C105.813 112.108 104.641 109.495 102.306 109.75H102.302Z" fill="white"/>
<path d="M348.457 60.7244C348.248 60.1306 347.767 59.6555 347.17 59.4477C345.61 58.8963 343.978 60.1179 343.696 61.6576C343.573 62.332 343.696 63.0531 344.089 63.6258C344.344 63.999 344.647 64.2196 345.052 64.4105C345.58 64.6607 346.211 64.6014 346.735 64.3638C347.528 64.0075 348.155 63.2228 348.321 62.366C348.572 61.8612 348.645 61.2801 348.449 60.7287L348.457 60.7244Z" fill="white"/>
<path d="M289.858 11.8342C289.581 10.9901 288.886 10.3665 288.021 10.1799C286.095 9.76846 284.083 11.393 284.224 13.3994C284.292 14.3665 284.893 15.2572 285.805 15.6305C286.768 16.025 287.864 15.6984 288.601 15.0154C289.718 14.3919 290.263 13.0558 289.858 11.8342Z" fill="white"/>
<path d="M187.782 9.62434C187.236 8.37727 186.162 7.68588 184.773 7.83434C183.294 7.99128 182.135 9.21289 181.789 10.5999C181.696 10.9774 181.738 11.4101 181.896 11.7876C181.939 12.2075 182.084 12.619 182.344 12.9923C182.838 13.6964 183.707 14.1418 184.564 14.1672C186.814 14.2308 188.715 11.7579 187.782 9.62434Z" fill="white"/>
</g>
<defs>
<clipPath id="clip0_1367_12033">
<rect width="358" height="419" fill="white"/>
</clipPath>
</defs>
</svg>
