<svg width="390" height="537" viewBox="0 0 390 537" fill="none" xmlns="http://www.w3.org/2000/svg">
<circle opacity="0.3" cx="254" cy="210" r="210" fill="#006686"/>
<mask id="mask0_1347_39922" style="mask-type:alpha" maskUnits="userSpaceOnUse" x="0" y="0" width="377" height="537">
<rect width="377" height="537" fill="#D9D9D9"/>
</mask>
<g mask="url(#mask0_1347_39922)">
<g clip-path="url(#clip0_1347_39922)">
<path d="M5.34122 258.937C6.42862 260.209 18.4825 270.315 18.4825 271.229C18.4825 272.143 12.7679 285.634 12.7679 285.634L30.6 288.15L46.6044 294.496L62.3717 267.793C62.3717 267.793 98.9498 198.294 98.9498 196.466C98.9498 194.638 92.7551 153.19 92.7551 153.19C92.7551 153.19 82.0373 146.005 67.8607 146.885C53.6841 147.764 23.7402 155.77 23.7402 155.77C23.7402 155.77 13.5835 146.468 -5.06422 145.976C-23.7119 145.485 -32.7234 149.372 -47.8139 167.658C-62.8986 185.949 -71.3607 211.038 -76.6183 220.213C-81.876 229.388 -97.1921 243.786 -103.595 245.047C-109.998 246.308 -141.492 258.653 -148.855 278.316C-156.224 297.978 -154.344 319.012 -148.855 325.873C-143.366 332.734 -132.851 340.277 -131.254 346.449C-129.652 352.622 -133.77 379.371 -129.652 386.914C-125.54 394.458 -117.991 401.319 -115.25 401.544C-112.508 401.776 -58.5606 419.379 -58.5606 419.379L24.4169 407.26C24.4169 407.26 31.9593 354.901 31.7337 353.073C31.5023 351.245 18.7023 297.059 18.0198 296.602C17.3315 296.145 4.30588 276.17 4.30588 276.17L3.84895 262.998L5.33543 258.937H5.34122Z" fill="black"/>
<path d="M-135.586 541.925C-135.586 541.925 -168.735 530.494 -174.449 511.288C-180.164 492.082 -161.14 457.802 -148.392 444.074C-135.644 430.341 -115.244 401.55 -115.244 401.55C-115.244 401.55 -96.9549 404.066 -87.1279 402.695C-77.3008 401.324 -73.414 399.722 -73.8709 400.179C-74.3278 400.636 -38.6694 425.557 -16.9504 411.384C4.7686 397.211 4.7686 386.249 2.93507 378.584C1.10733 370.919 -3.46782 364.059 -1.17735 356.972C1.10733 349.886 12.2011 337.576 15.5674 327.383C18.9395 317.19 16.9787 303.7 16.701 302.56C16.4234 301.415 12.5366 293.189 13.6818 293.414C14.827 293.646 34.9438 295.699 47.2869 302.56C59.63 309.421 65.6223 320.007 65.6223 320.007L59.1731 329.841C59.1731 329.841 118.153 329.992 146.037 355.827C173.922 381.662 226.505 444.074 226.505 444.074C226.505 444.074 241.589 441.101 246.622 438.127C251.648 435.154 260.11 425.783 260.11 425.783C260.11 425.783 289.597 474.254 296 500.089C302.403 525.924 303.085 552.216 287.087 564.561C271.082 576.905 241.827 579.422 209.824 559.071C177.821 538.726 119.986 488.195 119.986 488.195C119.986 488.195 113.126 506.944 95.757 515.176C78.3818 523.407 62.3774 524.778 62.3774 524.778L33.1219 568.905C33.1219 568.905 -28.825 572.561 -77.0637 567.534C-125.297 562.507 -139.011 552.216 -139.011 552.216L-135.581 541.93L-135.586 541.925Z" fill="#343434"/>
<path d="M78.5667 229.469C78.5667 229.469 95.0627 205.612 95.9766 188.923C96.8904 172.234 91.4072 152.114 91.4072 152.114C91.4072 152.114 112.669 168.578 118.841 183.207C125.012 197.837 127.152 206.896 129.281 208.655C131.415 210.413 143.758 218.188 143.301 222.758C142.844 227.328 138.732 237.527 138.732 237.527C138.732 237.527 133.931 285.767 116.331 293.397C98.7298 301.027 85.4728 294.49 85.4728 294.49L67.1837 318.324C67.1837 318.324 57.0038 303.59 42.6595 300.327C28.3209 297.064 12.7734 291.349 12.7734 291.349L15.5787 284.945C15.5787 284.945 38.6049 294.774 46.153 291.806C53.6954 288.833 64.6677 257.739 64.6677 257.739C64.6677 257.739 48.8946 250.421 48.4377 235.219C47.9808 220.016 56.9923 216.586 65.6336 220.242C74.2691 223.898 78.5782 229.469 78.5782 229.469H78.5667Z" fill="white"/>
<path d="M92.7548 333.22C94.1488 332.04 98.267 313.522 112.212 309.178C126.158 304.834 143.313 306.205 143.313 306.205C143.313 306.205 153.36 287.942 154.956 281.642C156.558 275.343 159.526 267.568 163.644 267.793C167.762 268.019 171.417 272.624 168.67 281.642C165.923 290.661 157.923 315.94 157.923 315.94L167.068 334.787L177.456 329.836C177.456 329.836 194.496 292.263 195.41 292.038C196.323 291.806 205.011 294.218 204.323 294.496C203.634 294.78 174.506 361.993 174.506 361.993C174.506 361.993 170.428 343.702 170.347 343.933C170.266 344.165 167.75 342.562 167.293 343.245C166.837 343.933 155.656 365.164 155.656 365.164C155.656 365.164 140.375 347.971 124.231 342.29C108.088 336.61 92.749 333.22 92.749 333.22H92.7548Z" fill="white"/>
<path d="M224.347 442.929C225.279 442.616 235.1 443.744 245.939 436.525C256.778 429.305 259.231 426.737 258.907 427.078C258.583 427.42 247.535 404.975 247.767 402.458C247.998 399.942 258.901 363.821 258.936 354.218C258.97 344.616 273.598 322.147 270.4 319.776C267.201 317.41 268.572 312.573 262.4 316.478C256.229 320.383 247.605 339.357 247.605 339.357C247.605 339.357 237.026 342.788 230.854 350.331C224.683 357.874 226.534 378.225 224.347 381.65C222.167 385.081 197.29 382.795 197.29 382.795L175.299 380.51L189.944 401.99L224.342 442.929H224.347Z" fill="white"/>
<path d="M66.368 115.762C66.9464 116.219 71.9727 126.233 75.8596 128.541C79.7464 130.849 83.1763 133.215 83.1763 133.215V116.676C83.1763 116.676 93.495 113.02 102.281 109.59C111.067 106.16 121.351 91.9057 118.835 82.8004C116.319 73.6951 101.211 52.2045 72.0768 61.1189C42.9427 70.0333 40.8836 83.5004 41.7975 93.6875C42.7113 103.875 47.969 110.278 52.7697 112.563C57.5705 114.848 66.368 115.768 66.368 115.768V115.762Z" fill="#FFE380"/>
<path d="M134.712 108.676C130.362 116.179 122.745 137.027 131.652 152.114C140.56 167.201 151.075 174.652 154.731 176.642C158.386 178.632 171.417 184.804 171.417 184.804C171.417 184.804 172.106 192.122 176.218 196.692C180.331 201.262 184.906 204.692 184.906 204.692L187.422 188.229C187.422 188.229 204.618 192.197 216.452 189.143C228.286 186.088 236.112 176.636 236.112 176.636C236.112 176.636 229.79 169.336 237.026 150.384C244.261 131.428 249.369 130.386 249.369 130.386C249.369 130.386 248.75 120.101 232.716 105.922C216.683 91.7495 189.244 81.8285 165.431 89.5166C141.618 97.2046 138.223 102.613 134.718 108.664L134.712 108.676Z" fill="#FFE380"/>
<path d="M325.261 146.89C313.375 136.113 299.603 119.679 273.98 123.08C248.357 126.482 237.09 140.527 235.881 157.199C234.672 173.865 236.795 177.955 242.052 185.267C247.31 192.579 259.428 201.21 259.428 201.21C259.428 201.21 258.739 207.672 254.858 212.016C250.971 216.36 246.402 219.403 246.402 219.403C246.402 219.403 264.234 217.963 267.207 216.36C270.18 214.758 273.986 212.93 273.986 212.93C273.986 212.93 289.377 222.521 300.124 222.99C310.871 223.458 328.928 218.298 334.869 201.21C340.815 184.121 341.497 181.379 338.299 167.889C335.1 154.399 325.267 146.89 325.267 146.89H325.261Z" fill="#FFE380"/>
<path d="M215.764 273.595C215.764 273.595 170.209 374.57 170.354 375.252C170.498 375.941 220.241 383.154 220.241 383.154L224.342 369.184L228.437 354.861L239.762 344.847L266.507 276.17L215.758 273.595H215.764Z" fill="white"/>
<path d="M24.3588 264.826C21.9179 262.928 18.8003 262.136 16.3074 260.209C13.7451 258.231 11.981 254.992 9.12368 253.54C8.53371 253.239 7.9553 253.32 7.45209 253.603C9.05426 249.762 11.2638 246.083 13.3807 242.381C24.0117 223.806 27.3838 202.379 22.9243 181.438C22.398 178.95 18.5863 180.645 18.8293 182.78C20.9057 201.077 16.9437 219.693 7.90324 235.705C3.61728 243.295 -1.5247 250.838 -2.936 259.625C-4.37622 268.563 -1.67509 277.055 1.90522 285.142C5.27151 292.743 9.30298 300.31 10.2053 308.698C11.0324 316.398 9.6963 324.167 4.36921 330.044C-0.52985 335.453 -7.11206 339.519 -9.76114 346.664C-13.22 355.989 -8.10691 364.088 -6.57993 373.135C-5.08186 381.98 -7.41862 391.485 -13.0465 398.478C-18.5991 405.38 -26.8298 409.418 -35.5752 410.274C-40.1967 410.725 -40.561 418.511 -35.2918 418.043C-17.7026 416.492 -2.86081 403.193 1.00291 386.035C1.98041 381.691 2.2696 377.08 1.73748 372.655C1.16486 367.877 -0.443085 363.457 -1.75606 358.858C-2.87238 354.959 -3.59539 350.858 -1.47844 347.173C0.256767 344.153 3.1083 341.845 5.63013 339.519C12.0562 333.607 16.8511 326.972 18.2798 318.156C19.6911 309.467 18.1294 300.645 14.8846 292.541C11.605 284.35 6.6539 276.355 5.34671 267.51C4.83194 264.022 5.17318 260.759 6.04079 257.641C6.98936 262.46 12.7098 266.665 16.5851 268.748C17.4353 269.205 19.3209 269.662 19.8877 270.466C20.6165 271.501 19.4019 273.798 19.0606 274.834C17.9848 278.114 16.0471 281.914 16.8396 285.362C17.4989 288.225 21.0735 287.444 22.4848 285.813C25.0471 282.84 25.3305 277.599 26.1634 273.844C26.8748 270.634 27.2855 267.111 24.3588 264.832V264.826Z" fill="white"/>
<path d="M62.4759 315.634C57.6925 319.677 54.4187 324.722 51.1566 330.015C50.1154 331.704 50.9483 334.203 52.753 334.932C54.841 335.771 56.8249 334.203 57.7966 332.502C60.4978 327.776 63.6443 323.374 66.1083 318.515C67.3229 316.126 64.535 313.893 62.4759 315.634Z" fill="white"/>
<path d="M269.601 486.072C261.943 481.155 254.887 474.936 248.206 468.775C241.439 462.539 234.92 456.055 228.685 449.286C216.261 435.802 204.791 421.577 193.217 407.37C170.457 379.411 144.701 352.205 110.454 338.704C101.251 335.077 91.5228 332.381 81.6841 331.224C71.8455 330.067 61.3707 329.905 51.8964 333.063C49.2647 333.943 48.7152 339.201 52.122 339.207C60.7055 339.23 69.1386 338.6 77.699 339.728C86.1031 340.832 94.3107 342.932 102.258 345.888C118.667 351.991 133.59 361.334 147.009 372.504C160.74 383.935 173.182 397.026 185.056 410.349C197.041 423.793 208.227 437.913 220.188 451.375C226.799 458.82 233.625 466.114 240.895 472.917C248.426 479.963 256.593 485.939 264.905 491.99C268.375 494.512 273.1 488.322 269.601 486.072Z" fill="white"/>
<path d="M234.862 172.726C233.96 170.863 231.832 170.383 229.998 171.198C226.476 172.76 223.335 175.051 219.743 176.538C216.116 178.036 212.334 179.066 208.464 179.714C200.991 180.963 192.547 181.252 185.207 179.043C183.194 178.435 181.337 179.581 180.394 181.356C177.358 187.066 176.357 197.612 183.281 201.019C184.923 201.829 186.907 199.804 186.763 198.208C186.537 195.685 185.536 193.319 185.369 190.792C185.282 189.467 185.346 188.223 185.583 187.014C193.085 188.848 200.523 189.692 208.377 188.46C212.849 187.76 217.244 186.511 221.455 184.856C225.469 183.277 230.195 181.258 233.324 178.221C234.805 176.786 235.852 174.762 234.862 172.726Z" fill="white"/>
<path d="M246.639 119.216C244.655 115.774 242.347 112.511 239.773 109.486C234.359 103.128 228.002 97.9162 220.709 93.8552C212.837 89.4703 204.149 86.9077 195.161 86.2077C190.655 85.8548 186.097 85.9763 181.603 86.4854C179.197 86.7572 176.785 87.1159 174.448 87.7696C172.106 88.4291 170.104 89.5802 167.947 90.6794C166.42 91.4545 166.466 93.9073 168.462 93.7627C170.544 93.6065 172.574 93.7974 174.662 93.5949C176.484 93.4214 178.3 93.2015 180.128 93.1032C184.009 92.8949 187.919 93.0801 191.766 93.5776C199.36 94.5668 206.839 96.9675 213.67 100.421C219.731 103.487 225.197 107.721 229.986 112.523C232.352 114.895 234.48 117.498 236.412 120.234C238.396 123.04 239.779 126.268 241.774 129.027C242.636 130.219 243.984 130.693 245.418 130.444C247.691 130.045 249.461 127.795 249.363 125.469C249.27 123.288 247.691 121.055 246.633 119.21L246.639 119.216Z" fill="white"/>
<path d="M309.367 132.064C296.978 123.89 281.922 120.459 267.184 121.715C262.898 122.079 262.592 129.212 267.45 128.888C290.048 127.378 315.822 140.845 326.065 160.814C334.25 176.769 334.198 207.272 311.137 212.808C305.266 214.22 299.326 213.612 293.704 211.501C290.928 210.46 288.169 209.337 285.6 207.839C282.749 206.167 280.25 203.512 277.173 202.326C275.762 201.783 273.934 202.5 273.072 203.697C272.089 205.068 269.371 206.086 267.884 206.89C266.189 207.799 264.46 208.638 262.696 209.395C258.959 211.004 255.35 212.577 251.741 214.434C250.37 215.14 249.676 218.055 251.874 218.119C256.42 218.246 260.4 217.326 264.581 215.493C266.612 214.602 268.601 213.612 270.533 212.519C271.568 211.935 272.586 211.327 273.581 210.68C273.749 210.57 273.98 210.396 274.229 210.199C275.652 211.871 277.439 213.277 279.157 214.613C281.835 216.696 284.779 218.605 287.868 220.022C293.71 222.712 300.46 223.597 306.816 222.99C320.571 221.682 331.352 212.386 335.349 199.312C342.914 174.559 330.49 146.005 309.367 132.07V132.064Z" fill="white"/>
<path d="M118.048 84.3449C115.104 64.3468 91.783 57.4802 74.4772 60.7891C64.7022 62.6576 54.5918 67.5689 47.9922 75.1644C45.8001 77.6866 48.8887 81.4178 51.5956 79.0865C57.3739 74.1174 63.3314 70.0333 70.7986 68.0201C77.9419 66.0996 85.6924 65.8046 92.853 67.7888C100.326 69.8655 107.215 74.3661 109.87 81.9731C112.253 88.805 110.263 95.5443 104.751 100.149C97.6364 106.09 88.3242 107.004 79.5325 108.497C78.1212 108.74 77.0511 110.006 76.7156 111.343C75.339 116.867 76.2066 122.351 79.2664 127.158C80.1861 128.599 82.2857 126.927 81.8576 125.556C80.7355 121.981 80.6083 118.146 81.6205 114.553C90.5337 114.108 99.7187 112.251 107.064 106.998C114.156 101.925 119.367 93.2883 118.054 84.3449H118.048Z" fill="white"/>
<path d="M115.422 482.381C113.265 481.514 110.969 483.116 110.026 484.979C105.37 494.171 98.0299 501.894 89.2382 507.245C84.8828 509.894 80.1226 512.04 75.2178 513.44C72.6439 514.175 70.0584 514.869 67.4267 515.343C64.6561 515.847 61.8393 515.887 59.2018 516.946C57.1601 517.767 56.4833 521.122 58.7449 522.083C61.5096 523.257 64.7834 522.742 67.6927 522.453C70.4517 522.181 73.1991 521.73 75.8714 520.978C81.6959 519.335 87.2659 516.963 92.4368 513.816C102.906 507.453 111.449 498.515 117.135 487.64C118.118 485.766 117.458 483.197 115.428 482.381H115.422Z" fill="white"/>
<path d="M61.6142 518.664C61.2325 517.866 60.2145 517.761 59.4626 517.825C57.068 518.039 55.4485 520.243 54.1586 522.042C52.863 523.847 51.6252 525.669 50.4106 527.526C47.802 531.506 45.1009 535.423 42.3592 539.31C39.6176 543.203 36.8239 547.056 33.9435 550.845C31.1382 554.536 27.0663 558.267 25.6376 562.692C24.7469 565.452 27.9512 567.783 30.3805 566.452C32.7751 565.139 34.2385 563.016 35.9332 560.922C37.5296 558.949 39.1028 556.954 40.6529 554.946C43.5623 551.18 46.4138 547.368 49.1555 543.481C51.8913 539.588 54.523 535.613 57.0911 531.605C59.2717 528.197 63.6502 522.858 61.6258 518.658L61.6142 518.664Z" fill="white"/>
<path d="M298.024 512.445C292.703 492.904 284.709 474.624 275.507 456.627C272.91 451.554 270.336 446.44 267.519 441.483C266.195 439.157 264.795 436.866 263.424 434.564C261.856 431.932 260.029 429.797 257.975 427.524C256.315 425.679 253.423 427.674 254.06 429.948C254.644 432.048 255.101 434.263 255.986 436.259C257.015 438.59 258.247 440.852 259.364 443.143C261.457 447.435 263.702 451.647 265.888 455.887C270.168 464.194 274.286 472.588 278.052 481.143C281.858 489.792 285.49 498.585 288.642 507.493C291.766 516.321 294.588 525.49 295.502 534.844C296.428 544.325 294.536 553.992 287.746 561.043C285.635 563.236 288.677 566.834 291.025 564.613C305.532 550.908 302.767 529.84 298.024 512.434V512.445Z" fill="white"/>
<path d="M238.575 306.8C236.464 306.968 234.775 308.206 233.034 309.299C231.34 310.358 229.593 311.307 227.997 312.51C225.024 314.749 222.299 317.202 219.662 319.828C216.747 322.732 214.086 325.757 211.634 328.951C211.524 328.268 211.42 327.591 211.304 326.908C210.974 325.023 210.552 323.166 210.066 321.315C209.505 319.192 208.562 317.554 207.585 315.605C206.434 313.308 203.438 315.819 203.443 317.549C203.449 325.364 204.612 333.121 204.629 340.966C204.641 344.94 209.788 345.281 211.784 342.562C215.948 336.887 220.512 331.311 225.544 326.376C228.095 323.877 230.79 321.534 233.462 319.168C236.221 316.716 239.686 314.367 241.572 311.168C242.937 308.848 240.924 306.621 238.581 306.806L238.575 306.8Z" fill="#FFCE1F"/>
<path d="M302.374 514.817C300.101 500.812 295.323 487.611 289.285 474.85C278.07 451.184 265.027 428.519 251.33 406.23C250.474 404.836 250.329 403.667 250.838 402.111C253.782 393.058 256.061 383.843 257.172 374.361C257.912 367.981 258.508 361.571 259.601 355.254C261.036 346.924 264.917 339.479 268.734 332.034C270.163 329.24 271.568 326.394 272.523 323.42C273.986 318.891 272.089 315.721 267.496 314.54C266.172 314.199 265.912 313.771 266.444 312.487C268.948 306.436 271.372 300.345 273.818 294.27C276.005 288.862 278.486 283.54 280.296 277.998C282.165 272.271 279.203 267.77 273.251 267.302C264.934 266.648 256.576 266.278 248.236 266.202C239.305 266.127 230.375 266.723 221.45 266.665C215.596 266.631 211.837 269.031 209.72 274.434C207.84 279.213 205.677 283.887 203.756 288.648C203.167 290.129 202.6 290.36 201.102 289.741C196.255 287.71 192.68 289.272 190.806 294.207C190.106 296.052 189.805 298.048 189.296 299.969C189.152 300.501 189.082 301.201 188.712 301.513C186.219 303.59 185.41 306.517 184.669 309.444C184.016 312.036 183.68 314.662 181.372 316.554C180.511 317.271 180.065 318.607 179.66 319.741C178.908 321.853 178.359 324.039 177.659 326.174C177.474 326.741 177.167 327.539 176.722 327.689C174.067 328.609 172.367 330.536 170.869 333.179C170.631 332.549 170.504 332.323 170.464 332.08C169.37 325.977 166.548 320.667 162.748 315.894C161.498 314.321 161.417 313.06 161.938 311.214C164.871 300.906 167.763 290.58 170.406 280.202C171.372 276.395 171.285 272.404 170.215 268.551C169.006 264.201 165.426 262.622 161.354 264.583C158.577 265.919 156.559 268.077 155.367 270.877C154.442 273.052 153.603 275.314 153.088 277.616C151.232 285.911 147.727 293.542 143.782 300.998C143.481 301.559 142.735 302.167 142.134 302.242C137.385 302.82 132.659 303.844 127.824 303.087C127.153 302.977 126.424 303.208 125.724 303.277C123.688 303.463 121.658 303.729 119.616 303.815C112.207 304.145 106.18 306.847 102.276 313.499C99.6788 317.936 96.7058 322.165 94.2997 326.694C92.6512 329.807 90.8062 330.669 87.2258 330.154C80.0536 329.147 72.7773 328.858 65.5415 328.332C64.1707 328.233 63.789 328.019 64.7087 326.729C71.2851 317.525 77.8326 308.299 84.3627 299.06C84.9701 298.204 85.4559 297.874 86.5433 298.389C93.1718 301.478 100.072 301.669 107.077 299.997C120.154 296.874 128.807 288.619 133.984 276.459C139.085 264.461 140.45 251.816 140.474 238.927C140.474 237.741 140.977 236.48 141.503 235.375C142.573 233.125 144.048 231.037 144.95 228.723C147.067 223.314 146.072 219.612 141.694 215.799C138.299 212.849 134.794 210.02 131.427 207.035C130.675 206.37 130.08 205.34 129.785 204.368C125.186 189.01 118.65 174.652 108.066 162.405C102.75 156.25 96.4976 151.206 89.0131 147.966C76.7336 142.644 63.8931 142.639 50.9485 144.669C41.5899 146.144 32.4917 148.597 23.8041 152.455C23.2257 152.71 22.3349 152.912 21.8664 152.652C19.6396 151.414 17.4185 150.124 15.3536 148.632C5.20267 141.291 -5.83324 139.515 -17.7368 143.281C-31.8555 147.741 -43.1807 156.239 -52.3368 167.704C-60.3418 177.729 -65.8598 189.206 -71.1406 200.805C-74.2293 207.579 -77.3411 214.359 -80.7537 220.977C-85.6412 230.429 -93.0158 237.4 -102.756 241.767C-107.615 243.948 -112.502 246.083 -117.407 248.183C-125.175 251.509 -132.688 255.263 -139.062 260.95C-147.981 268.91 -154.055 278.484 -155.761 290.51C-156.877 298.383 -155.784 306.135 -154.454 313.887C-152.863 323.195 -149.046 331.235 -141.949 337.622C-140.04 339.34 -138.299 341.243 -136.512 343.089C-133.087 346.635 -131.682 350.904 -132.11 355.786C-132.249 357.383 -132.457 358.974 -132.665 360.57C-133.487 366.806 -134.776 372.996 -133.967 379.354C-132.781 388.598 -129.276 396.43 -120.721 401.174C-119.605 401.799 -119.553 402.227 -120.374 403.147C-122.347 405.351 -124.249 407.613 -126.152 409.88C-138.368 424.487 -150.237 439.354 -159.983 455.777C-167.323 468.151 -173.495 481.039 -176.196 495.334C-178.851 509.362 -175.062 521.134 -163.5 529.8C-158.855 533.282 -153.702 536.134 -148.606 538.957C-145.702 540.559 -142.458 541.543 -139.363 542.787C-138.692 543.053 -137.894 543.163 -138.484 544.198C-140.219 547.252 -141.492 550.532 -144.135 553.084C-153.447 562.073 -160.504 572.677 -165.883 584.42C-166.149 585.004 -166.461 585.589 -166.606 586.207C-166.941 587.631 -166.473 588.793 -165.114 589.395C-163.783 589.979 -162.563 589.673 -161.736 588.423C-161.313 587.787 -161.018 587.058 -160.689 586.364C-155.732 575.65 -149.271 565.972 -140.907 557.59C-139.999 556.682 -139.213 556.364 -137.882 556.699C-132.59 558.024 -127.269 559.233 -121.936 560.401C-86.4336 568.211 -50.5495 572.775 -14.1507 572.515C0.112717 572.411 14.3703 571.786 28.6337 571.317C30.0508 571.265 30.8259 571.682 31.5662 572.862C35.2449 578.733 38.1195 584.941 39.7275 591.697C40.0977 593.253 40.4273 594.833 40.8091 596.389C41.2371 598.142 42.4575 599.079 43.9787 598.761C45.6503 598.413 46.2865 597.274 46.1304 595.631C46.0783 595.122 45.9973 594.613 45.8932 594.11C44.1522 585.38 40.9074 577.253 36.0257 569.796C35.4126 568.859 35.1176 568.147 35.8695 567.054C44.8752 553.98 53.8174 540.86 62.8289 527.792C63.2222 527.214 64.1071 526.728 64.8128 526.635C67.485 526.288 70.1919 526.196 72.8699 525.866C84.7734 524.391 95.4796 520.208 104.439 511.982C110.356 506.55 115.423 500.43 119.611 493.604C120.686 491.863 121.363 491.938 122.693 493.199C124.377 494.784 126.204 496.213 127.997 497.682C148.536 514.505 168.96 531.466 189.661 548.074C200.911 557.104 212.988 564.96 226.43 570.461C241.844 576.761 257.698 578.739 273.963 574.441C289.771 570.27 299.684 560.332 302.686 543.955C304.474 534.208 303.947 524.507 302.374 514.805V514.817ZM265.663 319.816C267.172 319.932 267.809 320.672 267.201 322.119C266.259 324.363 265.327 326.619 264.211 328.783C260.382 336.216 256.362 343.615 254.731 351.882C253.389 358.667 252.643 365.58 251.851 372.464C250.717 382.333 248.484 391.947 245.326 401.336C244.47 403.876 244.673 405.952 246.124 408.232C249.473 413.484 252.591 418.887 255.83 424.203C256.362 425.077 256.495 425.702 255.691 426.552C248.01 434.755 238.715 439.481 227.39 440.025C225.904 440.094 224.862 439.736 223.885 438.585C211.235 423.613 198.551 408.683 185.878 393.735C184.316 391.889 182.795 390.004 181.257 388.141C181.332 388.019 181.407 387.892 181.476 387.771C182.645 387.979 183.825 388.152 184.982 388.395C191.703 389.795 198.424 391.23 205.156 392.589C206.66 392.896 208.204 393.041 209.743 393.122C215.741 393.434 220.357 391.085 223.387 385.838C225.175 382.749 226.366 379.556 226.378 375.836C226.401 369.965 227.344 364.203 229.605 358.708C231.346 354.473 234.024 351.06 237.957 348.665C239.282 347.867 240.549 346.982 241.896 346.241C247.622 343.106 251.452 338.397 253.811 332.358C254.933 329.494 256.16 326.648 257.594 323.929C259.266 320.753 262.135 319.556 265.663 319.822V319.816ZM196.185 295.63C196.764 294.195 199.413 294.114 200.182 295.445C200.367 295.769 200.182 296.417 199.985 296.839C199.164 298.644 198.308 300.443 197.406 302.207C197.111 302.786 196.631 303.254 196.231 303.769C195.595 303.046 194.953 302.311 194.323 301.588C194.994 299.396 195.445 297.452 196.185 295.624V295.63ZM190.968 307.795C191.043 307.558 191.535 307.246 191.737 307.304C192.616 307.541 193.617 309.97 193.218 310.856C192.593 312.25 191.94 313.638 191.205 314.98C190.985 315.385 190.476 315.628 190.1 315.946C189.724 315.489 189.348 315.032 188.938 314.529C189.638 312.18 190.268 309.976 190.962 307.795H190.968ZM185.01 321.21C185.19 320.724 185.797 320.401 186.208 320.001C186.688 320.771 187.746 321.754 187.55 322.263C186.595 324.762 185.311 327.14 184.108 329.541C184.016 329.714 183.437 329.882 183.391 329.818C183.073 329.396 182.83 328.91 182.57 328.447C183.408 325.919 184.149 323.542 185.01 321.205V321.21ZM176.213 335.175C176.635 334.319 177.856 333.862 178.706 333.22C179.302 334.434 180.684 335.95 180.354 336.812C178.891 340.642 176.942 344.292 175.16 348.006C174.993 347.948 174.819 347.89 174.651 347.838C174.414 343.534 174.246 339.207 176.207 335.181L176.213 335.175ZM174.171 369.78C188.145 339.809 202.137 309.849 216.065 279.86C217.308 277.182 219.483 276.129 222.034 276.17C235.655 276.384 249.271 276.794 262.887 277.095C264.344 277.124 264.674 277.506 264.084 278.912C255.483 299.604 246.928 320.308 238.316 340.994C238.021 341.706 237.414 342.464 236.754 342.828C227.164 348.087 223.272 356.868 221.675 367.067C221.363 369.091 221.386 371.191 220.906 373.175C220.484 374.876 219.593 376.473 218.83 378.075C218.679 378.382 218.136 378.498 217.991 378.579C212.49 377.745 207.285 376.959 202.085 376.16C193.201 374.801 184.322 373.43 175.438 372.082C173.257 371.752 173.246 371.781 174.177 369.786L174.171 369.78ZM170.342 356.816C170.417 357.394 170.192 358.089 169.926 358.644C168.41 361.831 166.785 364.978 165.304 368.183C164.685 369.519 164.165 369.433 163.286 368.467C162.083 367.142 160.012 366.02 159.781 364.579C159.584 363.324 161.51 361.791 162.366 360.31C164.639 356.382 166.849 352.408 169.058 348.503C169.469 351.135 169.96 353.97 170.336 356.822L170.342 356.816ZM98.2039 330.564C101.478 325.341 104.694 320.077 108.025 314.888C109.442 312.684 111.391 311.058 114.48 310.289C113.74 311.631 113.144 312.614 112.641 313.644C111.785 315.408 112.155 316.912 113.555 317.659C114.983 318.416 116.36 317.867 117.43 316.241C118.523 314.593 119.495 312.736 120.952 311.48C122.393 310.242 124.365 309.6 126.141 308.779C126.459 308.628 126.956 308.871 127.378 308.935C127.234 309.276 127.124 309.635 126.945 309.959C126.089 311.538 125.129 313.065 124.371 314.691C123.422 316.716 123.891 318.243 125.493 318.92C127.026 319.573 128.304 318.868 129.293 316.97C130.097 315.437 130.93 313.916 131.873 312.464C133.388 310.144 135.684 308.883 138.305 308.206C138.831 308.073 139.415 308.16 139.976 308.142C139.837 308.623 139.751 309.12 139.554 309.571C138.507 311.984 137.379 314.373 136.378 316.802C135.696 318.486 136.263 319.92 137.691 320.522C139.114 321.129 140.543 320.562 141.324 318.931C145.563 310.132 149.982 301.415 153.892 292.477C155.963 287.745 157.143 282.62 158.699 277.668C159.509 275.094 160.128 272.41 162.297 270.553C162.881 270.055 163.72 269.841 164.448 269.506C164.714 270.2 165.148 270.877 165.229 271.6C165.79 276.54 164.98 281.365 163.558 286.056C159.069 300.796 154.477 315.501 149.873 330.2C148.733 333.856 148.959 334.527 152.504 335.725C156.611 337.119 159.121 335.169 158.844 330.761C158.786 329.87 158.739 328.881 158.329 328.135C157.137 325.971 157.6 323.935 158.514 321.887C158.711 321.448 159.005 321.043 159.26 320.626C159.555 320.95 159.896 321.251 160.139 321.61C165.322 329.222 166.768 337.333 163.563 346.143C161.77 351.089 159.075 355.509 156.073 359.778C155.327 360.842 154.841 360.622 153.962 359.928C149.942 356.729 145.939 353.495 141.781 350.476C129.281 341.382 115.336 335.522 100.24 332.34C99.7367 332.236 99.2393 332.069 98.736 332.005C97.6255 331.872 97.6891 331.345 98.1692 330.576L98.2039 330.564ZM130.941 250.769C128.599 249.484 126.384 247.951 124.139 246.476C123.81 246.262 123.654 245.782 123.416 245.423C123.868 245.296 124.359 244.972 124.758 245.065C126.87 245.539 128.963 246.123 131.069 246.638C131.815 246.823 132.619 246.8 133.319 247.06C133.92 247.286 134.418 247.784 134.707 247.975C134.522 252.643 134.481 252.718 130.936 250.769H130.941ZM95.3987 158.159C96.2605 158.83 97.0645 159.42 97.8222 160.063C106.834 167.727 113.005 177.463 117.783 188.102C120.224 193.534 122.115 199.22 124.111 204.843C125.117 207.683 126.366 210.194 128.848 212.114C132.145 214.671 135.198 217.541 138.409 220.213C140.416 221.879 140.902 223.933 139.999 226.252C139.282 228.098 138.565 230.047 137.367 231.569C135.366 234.12 134.701 236.821 134.898 239.997C135.123 243.509 134.961 243.543 131.468 242.67C129.6 242.207 127.772 241.582 125.892 241.177C124.978 240.975 123.954 240.934 123.035 241.114C118.922 241.924 117.505 245.742 120.64 248.455C123.706 251.104 127.35 253.135 130.901 255.159C134.406 257.161 133.943 255.963 133.226 259.862C131.942 266.85 129.906 273.619 126.135 279.716C119.171 290.973 108.974 296.208 95.8093 295.231C92.9578 295.022 90.1121 293.796 87.4167 292.668C84.328 291.372 83.1192 291.482 81.1873 294.178C76.4444 300.819 71.69 307.454 66.9991 314.136C66.0968 315.426 65.6225 315.802 64.4484 314.321C54.8932 302.196 41.9196 296.197 27.0258 293.779C24.3651 293.345 21.6698 293.108 19.0033 292.749C18.5175 292.68 17.8523 292.61 17.6152 292.286C17.1756 291.69 16.9963 290.909 16.7071 290.204C17.3375 290.065 17.9738 289.799 18.6042 289.805C24.18 289.874 29.5881 290.84 34.7474 293.015C36.1645 293.611 37.6105 294.166 39.0739 294.641C43.4697 296.07 47.5995 295.416 50.8964 292.199C53.2563 289.897 55.4137 287.253 57.1316 284.436C61.244 277.691 63.6791 270.223 65.6977 262.633C66.0795 261.204 66.7562 260.857 68.1154 260.522C70.8802 259.833 73.616 258.867 76.2189 257.71C78.0119 256.918 78.411 255.281 77.6244 253.881C76.832 252.469 75.305 252.064 73.6103 253.013C67.4908 256.432 63.8353 256.056 58.3057 250.179C55.0089 246.673 52.4928 242.652 51.3244 237.915C49.8206 231.835 53.5918 225.084 59.5204 223.117C62.1001 222.261 64.4657 222.857 66.7446 224.072C70.4406 226.044 73.3153 228.989 75.9239 232.188C77.7921 234.478 79.7066 234.502 81.2452 231.951C88.828 219.438 94.8087 206.295 97.0645 191.688C97.5156 188.773 100.616 185.828 103.78 185.313C105.104 185.099 106.463 185.059 107.805 184.949C109.384 184.822 110.304 183.989 110.408 182.398C110.507 180.905 109.408 179.54 107.823 179.661C105.035 179.881 102.259 180.344 99.5169 180.923C98.4989 181.131 98.1114 181.212 98.1519 180.032C98.4179 172.772 97.5098 165.674 95.2367 158.761C95.202 158.668 95.2888 158.535 95.3813 158.159H95.3987ZM25.6145 223.296C28.2925 213.48 28.5065 203.495 27.3497 193.464C26.8696 189.328 25.9789 185.238 25.3658 181.113C25.2906 180.581 25.6087 179.609 25.9962 179.453C32.0521 176.943 32.4338 171.696 31.6067 166.727C31.1035 163.707 30.0739 160.768 29.1196 157.847C28.7263 156.644 28.9114 156.123 30.0913 155.707C44.1118 150.784 58.433 147.706 73.3673 149.511C77.526 150.014 81.5922 151.432 85.6468 152.612C86.4797 152.855 87.3415 153.798 87.7233 154.631C91.13 162.168 92.8479 170.082 92.7554 177.243C92.576 192.926 88.614 206.497 82.0086 219.369C81.0138 221.312 79.938 223.21 78.9431 225.153C78.4168 226.189 78.0177 226.218 77.1385 225.402C75.1662 223.574 73.1996 221.665 70.9612 220.213C60.9259 213.659 48.3167 219.363 45.7833 231.453C44.9852 235.254 45.552 238.887 46.9749 242.392C49.6818 249.022 53.7306 254.615 59.8038 258.624C60.3012 258.954 60.7466 260.013 60.5962 260.574C58.728 267.672 56.478 274.648 52.7646 281.017C51.3533 283.43 49.5661 285.674 47.6747 287.734C45.6734 289.914 43.1169 290.267 40.248 289.261C35.9563 287.757 31.6356 286.27 27.234 285.2C24.394 284.506 21.3748 284.488 18.4307 284.309C17.083 284.228 16.9326 283.852 17.4648 282.695C18.8182 279.716 20.0965 276.702 21.369 273.682C22.5605 270.836 22.1151 269.448 19.4082 267.95C15.5792 265.832 12.3691 263.003 9.67949 259.59C9.25148 259.047 9.05481 257.867 9.34979 257.276C11.2296 253.406 13.1962 249.577 15.2842 245.823C19.3215 238.58 23.4108 231.366 25.6145 223.291V223.296ZM15.5503 273.11C14.4976 275.846 13.2945 278.524 11.9642 281.642C9.21678 276.731 6.59662 272.265 6.75858 266.793C6.77014 266.376 6.94365 265.96 7.04198 265.543C7.40059 265.751 7.7939 265.913 8.11203 266.174C10.3562 267.984 12.6062 269.783 14.7984 271.658C15.1974 271.999 15.6891 272.768 15.5503 273.115V273.11ZM-128.264 380.135C-129.224 374.176 -128.119 368.357 -127.315 362.508C-126.962 359.905 -126.69 357.279 -126.557 354.652C-126.297 349.203 -127.957 344.373 -131.589 340.289C-133.296 338.368 -134.99 336.407 -136.928 334.735C-144.054 328.609 -147.814 320.823 -149.208 311.619C-150.393 303.763 -151.469 295.942 -149.63 288.075C-146.923 276.523 -140.092 267.718 -130.352 261.395C-124.625 257.687 -118.217 255.009 -112.045 252.012C-108.297 250.184 -104.405 248.657 -100.599 246.939C-89.6032 241.964 -81.2279 234.12 -75.7331 223.406C-71.933 215.979 -68.5262 208.348 -65.0153 200.77C-59.7345 189.38 -54.205 178.117 -45.8529 168.584C-37.2925 158.813 -27.0259 151.507 -14.3242 148.076C-5.47464 145.681 2.87749 146.862 10.524 152.085C12.4847 153.427 14.3183 154.943 16.2444 156.337C19.9635 159.039 21.5136 162.862 21.2591 167.236C21.074 170.383 20.0792 173.483 19.5528 176.619C19.3735 177.712 19.281 178.921 19.5297 179.985C21.6871 189.432 22.8497 198.954 22.3465 208.667C21.9243 216.939 20.0329 224.806 16.2733 232.182C13.5837 237.446 10.5702 242.537 7.8633 247.789C6.0182 251.382 4.24829 255.038 2.80229 258.804C0.384567 265.098 0.621719 271.426 3.58891 277.512C5.38776 281.203 7.40637 284.789 9.40764 288.382C13.4796 295.705 15.8857 303.468 15.8279 311.908C15.88 320.701 13.2309 328.598 7.92114 335.597C4.8961 339.589 1.72069 343.47 -1.21181 347.537C-3.97078 351.355 -5.50356 355.671 -4.64752 360.42C-4.12117 363.307 -3.01643 366.083 -2.20088 368.912C-1.35063 371.868 -0.228531 374.784 0.21106 377.803C0.910919 382.593 -0.350006 387.169 -2.69254 391.34C-9.47141 403.442 -19.5298 410.927 -33.5271 412.385C-40.0515 413.062 -46.2751 411.292 -52.3136 408.92C-58.7455 406.386 -64.7261 403.008 -70.2441 398.854C-72.1065 397.449 -73.9054 397.096 -76.1669 397.651C-85.1379 399.849 -94.2362 401.099 -103.479 400.202C-106.967 399.861 -110.484 399.196 -113.832 398.154C-122.601 395.424 -126.858 388.899 -128.269 380.14L-128.264 380.135ZM297.139 544.071C294.328 557.677 285.757 565.741 272.633 569.177C257.588 573.111 242.937 571.3 228.686 565.498C215.706 560.222 204.069 552.632 193.218 543.938C173.454 528.11 153.881 512.04 134.383 495.889C117.65 482.029 101.136 467.908 84.5189 453.92C83.981 453.463 83.3968 452.746 82.8184 452.734C81.7773 452.705 80.3371 452.78 79.776 453.428C79.215 454.076 79.3075 455.522 79.5215 456.535C79.6546 457.16 80.5222 457.651 81.1064 458.149C92.391 467.694 103.664 477.262 115.001 486.749C116.308 487.842 116.464 488.6 115.539 490.035C111.906 495.681 107.811 500.928 103.103 505.717C94.3402 514.643 83.553 519.202 71.2851 520.567C68.8616 520.833 66.4207 521.024 63.9799 521.065C61.6316 521.099 60.041 522.065 58.7222 524.003C49.6644 537.355 40.5257 550.642 31.4505 563.982C30.6234 565.203 29.75 565.862 28.2173 565.914C16.5914 566.342 4.97708 566.846 -6.64301 567.326C-49.7687 567.904 -92.1077 562.056 -133.961 552.106C-136.084 551.603 -136.078 551.585 -135.002 549.526C-114.162 509.842 -96.7869 468.735 -84.091 425.696C-82.9516 421.837 -84.8429 416.949 -88.4753 415.121C-89.2446 414.728 -90.7716 414.901 -91.4136 415.451C-92.0441 416.001 -92.1366 417.331 -92.2002 418.343C-92.2291 418.806 -91.7317 419.431 -91.3095 419.772C-88.938 421.728 -89.2041 423.92 -90.0312 426.627C-101.593 464.582 -116.557 501.147 -134.487 536.516C-135.262 538.043 -135.916 538.286 -137.524 537.702C-144.933 535.018 -151.926 531.593 -158.364 527.006C-169.642 518.97 -173.535 508.274 -170.527 494.825C-167.664 481.994 -162.146 470.303 -155.541 459.08C-146.437 443.64 -135.337 429.63 -123.972 415.833C-120.987 412.211 -117.933 408.648 -114.845 405.119C-114.44 404.657 -113.532 404.217 -112.994 404.344C-100.807 407.248 -88.7298 405.987 -76.7164 403.349C-74.8482 402.938 -73.5121 403.222 -71.9562 404.315C-63.604 410.233 -54.6272 414.919 -44.5341 417.048C-29.7906 420.148 -17.2451 415.63 -6.53311 405.507C0.0317535 399.306 4.54329 391.878 5.74637 382.72C6.30742 378.469 5.56126 374.402 4.20203 370.405C3.21295 367.489 2.18341 364.585 1.22325 361.652C0.141647 358.332 0.540741 355.115 2.43211 352.229C4.28879 349.382 6.3074 346.635 8.43015 343.979C12.2476 339.19 15.9899 334.377 18.2514 328.609C21.8549 319.394 22.2597 309.976 20.0676 300.397C19.5702 298.221 19.5817 298.112 21.7623 298.563C27.0316 299.656 32.3586 300.593 37.518 302.097C47.64 305.042 55.3848 311.48 61.7877 319.654C62.0654 320.001 62.0885 320.886 61.8456 321.257C60.469 323.351 59.0577 325.439 57.4555 327.36C56.9465 327.979 55.8417 328.262 54.9684 328.372C52.782 328.644 51.6888 329.477 51.7004 331.131C51.7177 332.861 52.9266 333.844 55.1997 333.787C68.9194 333.451 82.5176 334.544 96.0407 337.015C117.551 340.942 135.817 351.072 152.013 365.441C164.228 376.282 174.796 388.638 184.958 401.348C209.957 432.632 237.2 461.863 265.854 489.803C266.403 490.341 266.947 490.914 267.589 491.325C268.763 492.088 269.931 491.95 270.909 490.943C271.881 489.942 272.002 488.756 271.221 487.605C270.799 486.975 270.192 486.466 269.654 485.91C257.039 472.987 244.412 460.069 231.809 447.134C231.335 446.649 231.005 446.024 230.612 445.463C231.283 445.278 231.936 445.017 232.625 444.93C242.596 443.664 250.844 439.03 257.906 432.042C259.497 430.468 259.52 430.474 260.625 432.429C270.492 449.813 280.296 467.219 288.093 485.667C293.044 497.387 296.538 509.507 297.903 522.187C298.69 529.51 298.643 536.811 297.145 544.065L297.139 544.071Z" fill="black"/>
<path d="M254.811 215.794C261.006 214.515 266.362 212.566 271.336 209.702C273.899 208.227 275.888 208.453 278.127 210.362C294.322 224.176 313.698 219.866 324.491 210.807C331.409 204.999 334.752 197.224 335.811 188.483C338.09 169.654 331.467 154.243 317.053 142.234C304.294 131.601 289.527 126.198 272.805 126.667C267.311 126.817 261.989 127.963 256.87 130.039C249.525 133.024 244.192 138.063 241.34 145.473C240.033 148.869 239.125 152.432 238.205 155.967C237.598 158.298 236.609 159.38 234.845 159.062C233.162 158.761 232.439 157.448 232.82 155.174C233.786 149.361 235.603 143.836 238.535 138.699C243.486 130.033 251.352 125.354 260.682 122.947C276.53 118.857 291.684 121.443 306.139 128.57C319.858 135.327 330.796 145.126 337.077 159.328C342.815 172.286 343.717 185.689 338.865 199.133C333.491 214.035 322.224 221.81 306.977 224.21C295.479 226.021 285.206 222.874 276.149 215.707C274.766 214.613 273.754 214.561 272.233 215.383C264.604 219.473 256.321 221.474 247.813 222.654C247.558 222.689 247.298 222.689 247.043 222.718C245.349 222.897 243.723 222.811 243.075 220.878C242.474 219.085 243.556 218.009 244.897 217.043C249.519 213.723 253.325 209.743 255.361 204.27C255.904 202.812 255.76 202.078 254.337 201.222C246.673 196.582 239.987 190.884 236.557 182.328C235.018 178.487 234.145 174.368 233.115 170.336C232.647 168.497 233.607 167.12 235.192 166.837C236.794 166.553 238.003 167.479 238.431 169.37C238.801 170.996 239.079 172.645 239.478 174.264C241.427 182.132 245.742 188.426 252.249 193.198C254.522 194.864 256.94 196.345 259.329 197.843C261.526 199.22 262.082 200.47 261.428 203.015C260.381 207.111 258.692 210.894 255.997 214.191C255.685 214.579 255.401 214.989 254.805 215.788L254.811 215.794Z" fill="#FFCE1F"/>
<path d="M184.189 83.2979C209.604 83.6623 229.409 93.8147 244.684 113.067C245.286 113.824 245.887 114.571 246.477 115.34C248.166 117.55 248.276 119.083 246.847 120.228C245.396 121.391 244.048 120.789 242.191 118.753C237.784 113.917 233.567 108.832 228.674 104.528C217.898 95.0526 204.983 90.3264 190.777 89.1174C175.513 87.8158 161.244 90.9975 148.288 99.2871C138.328 105.662 131.641 114.449 130.276 126.458C128.356 143.385 133.961 157.419 147.356 168.15C154.187 173.622 161.811 177.729 170.007 180.714C172.552 181.646 174.009 183.051 174.657 185.753C175.779 190.433 177.896 194.679 181.297 198.19C181.598 198.503 181.985 198.728 182.338 199C182.46 198.543 182.616 198.092 182.697 197.623C183.223 194.407 183.535 191.144 184.305 187.992C185.016 185.076 186.624 184.544 189.574 185.163C194.207 186.135 198.869 187.164 203.566 187.633C212.004 188.472 219.506 185.683 226.308 180.807C226.985 180.321 227.639 179.795 228.333 179.326C229.866 178.29 231.323 178.412 232.289 179.621C233.29 180.876 233.093 182.502 231.601 183.676C223.237 190.277 213.902 194.106 203.062 193.111C198.927 192.729 194.82 191.896 190.725 191.139C189.441 190.901 188.932 191.081 188.649 192.446C187.81 196.501 188.14 200.504 188.932 204.496C189.221 205.954 189.088 207.22 187.839 208.111C186.48 209.077 185.172 208.655 183.923 207.764C176.936 202.807 171.875 196.437 169.631 188.055C169.278 186.742 168.613 186.059 167.334 185.556C156.293 181.206 145.835 175.722 137.819 166.802C124.33 151.802 120.871 134.447 127.546 115.392C130.727 106.321 137.339 99.802 145.286 94.6592C157.334 86.8613 170.678 83.4656 184.195 83.3036L184.189 83.2979Z" fill="#FFCE1F"/>
<path d="M83.923 57C93.9698 57.2198 102.935 59.366 110.657 65.4574C122.317 74.6553 127.598 96.0996 109.887 109.104C105.949 111.996 101.616 114.056 96.9255 115.305C93.7096 116.161 90.4185 116.792 87.1274 117.313C85.8144 117.521 85.0046 118.018 84.941 119.251C84.8137 121.715 84.6749 124.208 84.9121 126.649C85.0625 128.2 85.8664 129.698 86.4333 131.196C86.9538 132.585 87.0753 134.094 85.7218 134.806C84.7559 135.309 83.0843 135.471 82.2052 134.962C75.9469 131.352 70.4983 126.794 66.9527 120.344C66.1371 118.857 65.2406 118.221 63.4649 117.989C60.0524 117.55 56.6051 116.861 53.3487 115.756C44.5743 112.772 40.7395 105.737 38.9696 97.2335C38.6515 95.7121 39.4323 94.5435 40.9478 94.1559C42.5499 93.7452 43.7125 94.4163 44.2331 96.0244C44.4297 96.6318 44.5801 97.2624 44.7247 97.8871C46.5525 105.928 51.5904 110.585 59.6648 111.991C61.7471 112.355 63.864 112.714 65.9694 112.76C68.3409 112.812 69.5902 113.981 70.8106 115.895C72.7656 118.955 75.114 121.767 77.3408 124.648C77.6647 125.064 78.2489 125.284 78.7116 125.591C78.7926 125.053 78.862 124.52 78.9545 123.988C79.4635 121.171 79.8395 118.325 80.5336 115.554C81.1178 113.229 82.986 112.494 85.2822 112.019C90.3548 110.972 95.4043 109.752 100.344 108.201C102.611 107.49 104.728 106.038 106.672 104.598C118.523 95.793 118.835 79.3179 107.389 69.9233C101.703 65.2549 94.9936 63.2534 87.8157 62.6981C80.3311 62.1196 73.0953 63.3402 66.1371 66.2037C57.2587 69.8597 50.9136 76.2866 46.1013 84.4085C45.6733 85.1258 45.2916 85.8836 44.771 86.5258C43.8976 87.6017 42.735 87.8794 41.4857 87.2546C40.1553 86.5894 39.7331 85.4382 40.0975 84.0151C40.19 83.6507 40.3809 83.2978 40.566 82.9623C49.1842 67.3606 62.366 58.7759 80.1287 57.2545C81.5342 57.1331 82.9513 57.0636 83.9172 57H83.923Z" fill="#FFCE1F"/>
<path d="M95.4622 84.3275C95.3638 86.8555 94.4153 90.1066 92.4603 92.837C90.2392 95.9492 87.7174 98.8764 85.0683 101.636C83.0554 103.736 81.2393 103.55 79.2611 101.433C76.2361 98.1995 73.2457 94.9311 70.319 91.6106C68.3004 89.3198 66.7445 86.7629 66.4148 83.616C66.0099 79.7575 68.3872 77.1312 72.2567 77.2585C75.4957 77.3684 78.1737 78.8551 80.5452 80.9029C81.5516 81.7706 82.0779 81.7244 82.9918 80.7525C84.0272 79.6476 85.2707 78.641 86.6068 77.9411C91.5637 75.3495 95.5374 77.8601 95.4564 84.3217L95.4622 84.3275ZM89.9847 83.7085C89.9269 83.5581 89.8748 83.0722 89.603 82.835C89.4583 82.7078 88.8279 82.9218 88.6023 83.159C87.4224 84.4027 86.1904 85.6233 85.184 87.0001C83.4488 89.3719 81.5169 89.557 79.4347 87.5207C78.0696 86.1845 76.6294 84.8887 75.0561 83.8185C74.258 83.2747 73.0896 83.2863 72.0889 83.0433C72.3781 83.992 72.4186 85.149 72.997 85.8605C75.8312 89.3314 78.7984 92.6982 81.7714 96.0534C81.9681 96.279 82.7894 96.3195 82.9918 96.117C86.4044 92.7155 89.2096 88.9496 89.9847 83.7085Z" fill="white"/>
<path d="M3.1949 116.688C4.04515 110.07 4.88962 103.186 5.83242 96.3137C6.09848 94.3874 7.40567 93.456 9.01363 93.7337C10.5869 94.0056 11.4256 95.3535 11.1826 97.2277C10.3324 103.851 9.48792 110.475 8.62032 117.099C8.35425 119.123 7.13381 120.205 5.47958 119.985C4.01622 119.794 3.10236 118.58 3.1949 116.682V116.688Z" fill="black"/>
<path d="M64.0031 233.408C62.7306 233.663 61.3425 234.166 59.9774 234.131C59.1792 234.108 58.0514 233.385 57.739 232.679C57.5308 232.211 58.3232 230.759 58.9537 230.533C63.8354 228.763 68.908 228.879 72.5403 233.483C74.1078 235.473 73.8764 236.856 71.7074 238.215C71.5975 238.285 71.4876 238.348 71.3777 238.418C69.0468 239.876 69.1046 240.061 71.3951 241.507C72.2049 242.016 73.0609 242.971 73.2286 243.85C73.4658 245.076 71.9446 246.013 70.6374 245.394C69.0988 244.671 67.5487 243.775 66.3456 242.6C64.6047 240.9 64.9806 238.597 66.9703 236.677C68.7113 234.999 68.5783 234.438 66.2184 233.773C65.5474 233.582 64.836 233.541 64.0031 233.408Z" fill="black"/>
<path d="M102.518 200.493C101.952 198.578 102.385 197.028 104.034 195.917C105.74 194.771 108.586 194.8 110.153 196.357C112.374 198.572 114.352 201.112 114.809 204.345C114.937 205.23 114.405 206.665 113.71 207.076C113.028 207.481 111.426 207.278 110.824 206.711C108.875 204.872 107.094 202.807 107.921 199.706C108.302 198.271 106.961 198.595 106.475 198.751C105.15 199.168 103.912 199.856 102.518 200.487V200.493Z" fill="black"/>
<path d="M130.716 235.381C130.346 235.074 129.571 234.733 129.391 234.195C129.189 233.576 129.247 232.517 129.658 232.112C131.109 230.672 132.677 229.313 134.372 228.179C134.892 227.832 136.13 228.075 136.731 228.491C137.142 228.775 137.368 230.192 137.067 230.481C135.337 232.165 133.429 233.663 131.572 235.213C131.445 235.317 131.202 235.294 130.716 235.381Z" fill="black"/>
<path d="M313.549 168.364C317.534 168.665 319.402 171.869 317.8 175.52C316.07 179.465 312.826 181.97 309.268 184.133C307.551 185.175 307.464 185.788 309.355 186.551C311.345 187.355 313.514 187.743 315.637 188.183C317.239 188.518 318.234 189.305 318.239 190.994C318.245 192.544 317.031 193.655 315.261 193.58C310.408 193.383 306.058 192.024 302.802 188.084C302.351 187.541 301.356 187.286 300.575 187.199C298.551 186.962 296.451 187.141 294.479 186.702C291.39 186.013 288.793 184.318 287.983 181.067C287.515 179.181 286.85 179.129 285.444 179.945C285.01 180.2 284.484 180.309 283.992 180.46C277.728 182.398 270.504 180.807 267.323 176.179C265.692 173.807 264.141 173.258 261.382 173.316C253.713 173.478 250.809 168.115 250.578 161.989C250.52 160.439 251.382 159.397 252.961 159.224C254.54 159.05 255.518 159.889 255.876 161.416C256.009 161.977 256.032 162.562 256.131 163.129C256.767 166.692 258.508 168.034 262.134 167.936C263.65 167.895 264.332 167.467 264.483 165.755C265.09 158.958 270.44 152.432 276.589 150.726C278.532 150.188 280.423 150.136 281.997 151.669C283.587 153.219 283.512 155.111 282.928 157.049C282.726 157.72 282.471 158.385 282.159 159.016C279.949 163.418 276.739 166.941 272.684 169.712C270.319 171.326 270.267 171.979 272.54 173.83C273.078 174.27 273.72 174.617 274.368 174.872C278.231 176.393 281.95 175.901 285.45 173.813C287.04 172.864 288.388 171.47 290.037 170.672C290.956 170.227 292.42 170.244 293.368 170.672C294.583 171.21 294.75 172.581 294.294 173.871C294.056 174.536 293.773 175.184 293.542 175.855C292.315 179.471 293.403 181.2 297.203 181.709C297.712 181.779 298.227 181.767 298.741 181.802C299.95 181.883 300.477 181.49 300.685 180.119C300.986 178.129 301.755 176.208 302.056 175.178C305.243 170.452 308.673 167.999 313.543 168.364H313.549ZM277.358 157.193C274.206 157.448 270.891 161.254 270.602 164.141C270.776 164.239 270.949 164.332 271.117 164.43L277.358 157.193ZM311.831 174.924C312.016 174.75 312.016 174.374 312.103 174.097C311.802 174.079 311.466 173.964 311.212 174.056C308.944 174.901 307.383 176.422 306.66 178.719C306.828 178.898 306.995 179.077 307.163 179.257C308.725 177.816 310.298 176.387 311.836 174.918L311.831 174.924Z" fill="white"/>
<path d="M163.465 134.881C163.482 134.922 163.499 134.956 163.523 135.003C166.675 134.094 169.289 134.314 171.435 137.386C173.488 140.325 176.699 141.013 180.215 140.492C181.644 140.278 182.24 139.769 182.407 138.219C183.021 132.486 186.005 128.414 191.488 126.418C193.495 125.689 195.583 125.573 197.174 127.407C198.736 129.206 198.406 131.208 197.527 133.192C195.925 136.813 193.299 139.596 190.204 141.973C188.353 143.396 188.365 143.934 190.412 145.213C193.206 146.954 196.254 146.867 199.372 146.486C201.032 146.283 201.859 145.722 202.073 143.813C202.692 138.317 207.302 134.488 212.178 135.095C216.371 135.616 218.222 139.497 215.683 142.847C214.312 144.658 212.426 146.075 210.784 147.677C210.448 148.001 210.165 148.377 209.853 148.73C210.315 148.909 210.83 149.326 211.229 149.233C212.959 148.846 214.671 148.371 216.348 147.81C217.846 147.307 219.061 147.602 219.836 148.95C220.628 150.321 220.218 151.547 218.98 152.502C214.809 155.707 208.823 155.51 204.861 152.178C204.259 151.669 203.189 151.484 202.356 151.524C199.678 151.64 196.989 152.23 194.328 152.085C190.048 151.86 186.398 150.165 183.911 146.399C183.61 145.942 182.512 145.71 181.864 145.826C176.19 146.85 171.319 145.572 167.334 141.227C166.837 140.689 165.807 140.348 165.05 140.394C162.244 140.568 159.699 140.25 157.6 138.092C157.201 137.681 156.24 137.594 155.587 137.681C153.429 137.976 151.301 138.514 149.138 138.78C147.235 139.012 145.997 137.988 145.858 136.351C145.731 134.789 146.662 133.753 148.525 133.412C150.167 133.111 151.804 132.776 153.453 132.544C154.835 132.347 155.286 131.711 155.344 130.259C155.57 124.654 157.895 120.101 162.713 117.041C164.697 115.78 166.889 115.19 169.069 116.572C171.157 117.897 171.591 120.049 171.435 122.328C171.105 127.06 168.809 130.687 165.038 133.464C164.465 133.88 164.049 134.505 163.557 135.032C163.528 134.985 163.494 134.939 163.465 134.893V134.881ZM161.186 129.067C162.111 128.373 163.233 127.829 163.91 126.939C164.737 125.851 165.223 124.497 165.767 123.219C165.917 122.866 165.767 122.38 165.755 121.958C165.362 122.103 164.864 122.143 164.598 122.415C163.627 123.404 162.736 124.474 161.712 125.631C161.539 126.765 161.359 127.916 161.18 129.067H161.186ZM190.997 133.51C190.893 133.412 190.783 133.314 190.679 133.215C190.204 133.713 189.736 134.216 189.261 134.713C189.371 134.841 189.481 134.968 189.597 135.101C190.065 134.575 190.528 134.042 190.997 133.516V133.51ZM209.002 141.927C209.211 141.782 209.419 141.649 209.615 141.493C209.633 141.482 209.552 141.349 209.517 141.268C209.303 141.378 209.083 141.493 208.875 141.603C208.939 141.759 208.968 141.846 209.002 141.927Z" fill="white"/>
</g>
</g>
<defs>
<clipPath id="clip0_1347_39922">
<rect width="519" height="545" fill="white" transform="translate(-177 57)"/>
</clipPath>
</defs>
</svg>
