<svg width="390" height="439" viewBox="0 0 390 439" fill="none" xmlns="http://www.w3.org/2000/svg">
<g clip-path="url(#clip0_1367_12036)">
<path d="M155.959 72.6277L131.982 64.0641L85.1934 153.85L108.73 210.579L192.78 306.81C192.78 306.81 250.775 332.444 251.337 332.584C251.899 332.723 303.731 351.215 310.452 352.056C317.177 352.897 324.6 348.552 326.84 344.774C329.08 340.991 374.889 262.131 388.2 234.814C401.506 207.502 412.717 175.283 412.717 175.283L291.54 124.576L155.959 72.6277Z" fill="#FFCE1F"/>
<path d="M283.137 199.095C283.137 199.095 295.703 201.549 303.709 192.794C311.712 184.034 314.305 173.204 315.918 165.9C317.53 158.596 316.759 153.575 316.759 153.575C316.759 153.575 326.736 137.764 327.546 138.374C328.357 138.984 340.012 137.162 340.853 125.143C341.699 113.119 334.969 99.369 331.887 94.6056C328.806 89.8422 318.106 80.0365 310.5 77.2386C302.89 74.4363 277.676 65.1928 261.283 69.1151C244.895 73.0374 240.336 82.8431 233.511 83.9631C226.685 85.0832 205.319 83.8324 200.8 81.588C196.28 79.3435 162.654 71.6602 155.235 75.6435C147.813 79.6225 148.375 87.3276 144.871 89.1493C141.366 90.9709 123.858 91.4896 121.897 89.8291C119.935 88.1687 108.429 87.8593 102.985 93.9127C97.5413 99.9617 98.3607 117.747 100.745 122.149C103.125 126.55 106.629 130.333 105.23 132.852C103.831 135.376 95.5625 139.437 96.4037 146.859C97.2449 154.281 102.148 162.967 108.451 166.471C114.753 169.975 249.097 204.852 249.097 204.852L283.137 199.108V199.095Z" fill="#343434"/>
<path d="M107.748 188.313C107.33 187.895 102.287 177.976 102.287 177.976C102.287 177.976 103.015 172.908 106.223 171.365C109.431 169.822 126.804 154.307 151.879 146.027C176.953 137.746 189.284 133.127 201.191 134.805C213.099 136.487 225.848 140.265 225.848 140.265C225.848 140.265 213.766 145.421 213.984 150.49C214.206 155.558 214.219 157.38 214.219 157.38C214.219 157.38 214.781 177.157 215.06 177.972C215.339 178.782 225.991 198.472 239.856 201.584C253.721 204.696 263.096 196.725 265.576 189.573C268.051 182.421 266.613 174.302 266.613 174.302C266.613 174.302 283.564 189.569 285.943 198.394C288.323 207.219 287.626 217.443 283.42 227.249C279.218 237.054 260.864 268.149 261.287 268.149C261.71 268.149 268.71 269.269 276.276 266.467C283.843 263.665 288.576 262.405 288.576 262.405C288.576 262.405 283.856 274.73 289.801 281.176C295.746 287.617 308.216 289.578 307.793 290.14C307.37 290.703 283.136 304.426 273.892 307.93C264.647 311.434 239.852 320.115 228.502 307.93C217.157 295.745 219.118 285.939 220.238 279.777C221.358 273.615 226.541 257.463 226.541 257.463H209.59L190.818 263.669L183.953 279.358L170.926 249.244L156.215 235.939L144.308 222.49L138.847 210.021L131.001 202.643L123.858 181.214C123.858 181.214 120.776 174.163 117.695 174.725C114.613 175.287 111.392 180.186 110.83 181.868C110.268 183.55 107.748 188.309 107.748 188.309V188.313Z" fill="#343434"/>
<path d="M263.645 29.8879C262.011 35.0217 258.794 39.7589 254.562 43.1103C252.553 44.6967 249.066 45.8646 247.946 48.2877C246.712 50.9593 248.255 54.3978 249.855 56.542C250.687 57.6577 249.192 59.536 247.92 58.9825C244.25 57.3962 240.549 56.1149 237.08 54.1755C225.251 54.0361 212.022 48.4359 207.49 36.7388C203.318 25.9699 209.8 14.0113 218.983 8.2281C228.254 2.38825 241.547 0.649367 251.868 4.70676C262.019 8.69442 266.923 19.5679 263.641 29.8879H263.645Z" fill="#FFE380"/>
<path d="M242.668 27.212C241.13 29.8486 239.661 32.6291 237.826 35.087C237.904 35.9456 236.95 36.7823 236.117 36.4947C236.008 36.4598 235.908 36.4163 235.799 36.377C234.993 36.4119 234.199 36.0676 233.864 35.3877C231.767 34.0455 229.959 32.0407 228.285 30.2713C226.485 28.3712 224.711 25.8871 225.208 23.1066C225.753 20.0734 226.681 20.4003 229.2 21.3416C230.595 21.8689 232.412 22.9672 233.576 23.8649C233.955 23.0805 235.93 21.0409 236.653 20.4395C238.366 18.9969 241.055 18.596 242.821 20.1954C244.961 22.1304 243.889 25.1201 242.664 27.212H242.668Z" fill="white"/>
<path d="M202.027 349.676C202.027 349.676 198.383 326.705 194.321 308.497C190.259 290.289 177.231 261.852 173.235 254.583C169.238 247.313 164.622 241.962 158.054 237.604C151.485 233.241 141.509 216.75 140.38 213.534C139.255 210.313 133.52 206.247 132.26 204.848C131 203.449 127.357 193.36 125.787 187.023C124.218 180.687 120.771 174.315 117.602 173.195C114.433 172.075 110.406 178.8 108.863 192.105C107.32 205.41 111.666 210.736 116.007 219.561C120.348 228.386 126.515 247.854 126.655 249.536C126.655 249.536 126.515 262.841 126.236 289.038C125.957 315.23 138.706 329.158 138.706 329.158L73.4238 343.104C73.4238 343.104 76.2264 348.709 81.6964 353.751C87.1663 358.794 119.372 383.025 121.054 384.005C122.736 384.986 127.64 389.187 131.14 392.268C134.644 395.349 149.489 434.712 150.33 435.409C151.172 436.111 151.451 437.091 172.045 435.409C192.639 433.727 235.688 424.422 237.327 423.503C238.962 422.583 202.027 349.685 202.027 349.685V349.676Z" fill="white"/>
<path d="M46.4233 308.754C44.2571 306.034 42.0822 303.302 40.3998 300.343C42.4396 300.099 44.3748 299.397 46.0223 297.876C49.1823 294.96 49.2607 290.79 47.2602 287.199C45.4121 283.887 42.6183 280.927 39.9683 278.247C37.3532 275.606 34.4547 273.039 31.3297 270.991C31.4081 269.875 31.6783 268.555 31.7219 268.298C32.0488 266.254 32.088 264.31 31.735 262.266C31.0638 258.383 29.3247 254.744 27.6859 251.188C26.265 248.102 24.7352 245.043 22.6126 242.371C20.2938 239.443 17.439 237.503 14.4228 235.381C11.8687 233.577 9.91175 231.607 8.55624 228.761C7.43173 226.39 6.73436 223.806 5.99777 221.304C4.34588 215.695 2.48913 209.921 -2.30091 206.186C-3.31645 205.397 -4.46275 205.428 -5.44779 205.92C-7.60963 203.933 -10.3381 202.669 -13.4588 203.031C-17.5646 203.506 -20.4499 206.814 -21.74 210.544C-24.5687 218.711 -17.6866 225.078 -10.9788 228.848C-12.6263 229.824 -13.9862 231.297 -14.871 233.106C-16.8715 237.19 -15.7558 241.748 -13.6462 245.531C-10.325 251.488 -5.14705 256.4 0.710846 259.943C-2.00889 261.556 -4.19688 263.691 -4.44968 267.374C-4.63709 270.167 -3.2903 272.621 -1.93915 274.966C-0.422379 277.607 1.199 280.173 2.81167 282.758C5.63165 287.282 8.57367 292.062 13.3855 294.69C15.4079 295.793 17.7571 296.508 20.0541 296.564C19.7359 303.088 22.0242 309.865 24.9531 315.618C27.8603 321.331 32.3452 326.474 38.1769 329.307C41.2236 330.784 44.475 330.88 47.1468 329.734C48.1101 330.287 49.069 330.845 50.0278 331.399C51.8977 332.475 54.613 331.429 54.9007 329.084C55.4586 324.487 54.2774 320.612 52.3117 317.047C51.3093 313.862 48.9905 311.138 46.4277 308.754H46.4233Z" fill="white"/>
<path d="M125.679 292.189C125.958 279.72 126.097 247.457 126.097 247.457C126.097 247.457 101.445 189.8 101.027 189.8C100.609 189.8 86.4564 160.862 86.4564 160.862C82.6732 158.565 -7.40061 154.643 -7.82339 157.301C-8.24181 159.964 38.7477 277.262 38.7477 277.262C38.7477 277.262 47.6479 286.039 48.3496 290.167C49.0513 294.294 45.4642 298.961 46.1355 299.781C46.8067 300.6 62.4975 337.016 66.9824 337.997C71.463 338.977 136.044 328.614 136.044 328.614C136.044 328.614 125.396 304.662 125.679 292.193V292.189Z" fill="#FFCE1F"/>
<path d="M89.0074 235.089C79.5754 246.023 61.9015 248.952 48.913 243.356C35.9899 237.787 27.4995 224.708 28.6066 210.531C29.1644 203.353 32.0237 196.42 37.1057 191.255C39.6904 188.627 42.7936 186.601 46.2848 185.389C47.7842 184.871 49.4491 184.352 51.0705 184.217C63.9457 179.641 78.7865 184.84 86.8804 195.953C90.8074 201.353 93.0957 207.816 93.9064 214.41C94.7868 221.579 93.8758 229.436 89.0074 235.089Z" fill="#FFE380"/>
<path d="M260.584 168.563C261.147 168.563 271.79 162.54 271.79 162.54C271.79 162.54 285.236 172.332 298.125 165.263C311.013 158.195 314.373 154.133 314.373 154.133C314.373 154.133 322.615 156.107 326.394 150.071C330.173 144.035 328.351 138.98 328.351 138.98L321.242 137.463C321.242 137.463 324.472 123.317 321.242 112.53C318.013 101.744 308.066 85.4972 308.066 85.4972C308.066 85.4972 304.283 95.024 296.438 95.024C288.592 95.024 284.53 89.1406 284.53 89.1406C284.53 89.1406 276.545 98.3841 272.204 100.345C267.863 102.306 263.509 103.147 263.509 103.147C263.509 103.147 262.119 119.7 258.475 118.636C254.831 117.573 252.451 109.031 252.451 109.031C252.451 109.031 247.121 100.345 240.679 101.888C234.237 103.431 231.578 106.189 232.276 113.075C232.977 119.957 232.694 124.162 236.76 126.821C240.823 129.483 245.743 130.277 245.526 130.721C245.308 131.161 246.567 131.981 243.346 135.424C240.125 138.866 236.547 141.808 233.505 141.948C230.458 142.087 227.377 140.967 227.377 140.967C226.535 140.967 219.954 140.575 217.012 146.022C214.07 151.47 214.07 156.43 214.209 157.38C214.349 158.334 217.164 168.698 215.826 173.322C214.488 177.946 213.56 178.503 214.166 178.503C214.772 178.503 230.602 201.335 243.63 202.455C256.657 203.576 261.195 199.522 264.642 192.092C268.09 184.661 265.562 174.725 265.562 174.725C265.562 174.725 260.018 168.563 260.58 168.563H260.584Z" fill="white"/>
<path d="M370.134 226.272C370.134 222.773 364.111 214.928 363.692 214.785C363.274 214.645 368.508 208.901 369.533 206.522C370.557 204.142 372.152 191.534 369.533 192.096C366.913 192.658 362.851 194.759 360.75 198.538C358.649 202.32 355.006 206.94 354.308 207.223C353.606 207.502 340.16 209.463 333.997 216.75C327.834 224.032 323.951 230.339 322.107 235.939C320.268 241.543 317.81 246.586 317.81 246.586L291.828 260.871C291.266 260.871 283.578 269.697 289.806 279.781C296.034 289.866 306.63 289.609 306.63 289.609L341.982 266.336C341.982 266.336 367.576 243.173 370.138 240.998C372.706 238.824 370.138 229.776 370.138 226.277L370.134 226.272Z" fill="white"/>
<path d="M315.668 155.58C315.332 153.069 312.386 152.533 310.886 154.516C309.283 156.634 308.903 159.506 308.428 162.078C307.944 164.684 307.609 167.312 307.186 169.927C306.497 174.171 305.787 178.442 303.765 182.291C301.869 185.899 298.792 188.252 295.074 189.778C292.99 190.632 290.802 191.207 288.658 191.891C286.897 192.454 284.238 193.765 284.923 196.097L284.971 196.254C285.232 197.147 285.99 197.64 286.871 197.762C291.038 198.337 296.399 196.481 300.09 194.672C304.54 192.493 307.914 189.089 310.18 184.696C312.255 180.678 313.384 176.072 313.876 171.591C314.164 168.968 314.343 166.331 314.626 163.703C314.766 162.396 314.931 161.093 315.149 159.794C315.385 158.391 315.855 157.009 315.668 155.584V155.58Z" fill="white"/>
<path d="M339.352 115.594C337.84 104.294 332.278 94.379 323.827 86.8133C321.517 84.7476 319.229 82.7298 316.622 81.0345C314.103 79.3959 311.266 77.6483 308.241 77.3781C307.556 77.317 307.073 78.2628 307.596 78.7378C309.823 80.7774 312.73 82.0543 315.201 83.8193C317.742 85.6367 320.279 87.6937 322.245 90.1299C325.993 94.7756 329.179 100.018 331.202 105.649C333.276 111.424 334.667 117.664 334.161 123.835C333.886 127.195 332.941 130.773 330.543 133.266C329.619 134.229 328.486 135.044 327.244 135.546C325.719 136.164 324.019 136.156 322.554 136.94C321.146 137.69 320.035 139.982 321.63 141.189C323.975 142.963 327.427 141.856 329.781 140.588C332.553 139.089 334.841 136.897 336.489 134.212C339.871 128.708 340.198 121.852 339.361 115.599L339.352 115.594Z" fill="white"/>
<path d="M301.77 81.9889C301.234 84.9568 299.351 87.5455 296.788 89.1318C295.384 89.9991 293.785 90.5744 292.159 90.8228C290.621 91.0581 289.156 90.971 287.718 91.6552C286.754 92.1128 286.467 93.2982 287.19 94.0739C289.884 96.9677 296.23 94.6971 299.028 93.0105C302.794 90.7356 305.313 87.1794 306.717 83.0567C308.09 79.0254 302.458 78.193 301.77 81.9889Z" fill="white"/>
<path d="M284.487 85.2618C284.043 84.0764 282.639 83.8193 281.685 84.6168C280.273 85.7935 279.824 87.6065 278.904 89.1493C278.037 90.6005 276.903 91.9472 275.618 93.0454C272.689 95.5557 269.424 96.5319 266.016 98.1313C264.29 98.9419 263.065 99.6741 262.355 101.579C261.688 103.365 261.862 105.344 261.509 107.2C261.13 109.175 260.528 111.14 259.635 112.944C258.759 114.723 257.273 116.139 256.841 118.104C256.667 118.906 257.312 119.752 258.179 119.538C261.832 118.645 264.259 113.376 265.288 110.094C265.911 108.103 266.046 106.063 266.16 103.997C266.208 103.108 266.181 102.289 266.97 101.94C267.72 101.605 268.988 101.805 269.825 101.605C273.604 100.694 277.03 98.5105 279.689 95.7213C281.807 93.4986 285.73 88.5783 284.487 85.2749V85.2618Z" fill="white"/>
<path d="M214.202 161.372C214.053 157.184 213.465 153.479 210.17 150.62C209.12 149.709 207.254 151.296 207.812 152.499C209.242 155.588 209.329 159.328 209.189 162.675C209.019 166.828 208.858 170.973 208.47 175.113C207.681 183.511 206.3 191.848 204.482 200.085C200.886 216.406 195.495 232.348 189.567 247.958C186.172 256.897 182.559 265.752 178.889 274.582C177.507 277.912 181.478 280.121 183.7 277.297C183.823 277.14 183.949 276.983 184.071 276.826C184.455 276.338 184.751 275.645 184.825 274.944C198.027 242.981 210.519 210.2 213.552 175.47C213.958 170.807 214.367 166.052 214.197 161.372H214.202Z" fill="white"/>
<path d="M282.147 191.094C280.251 188.152 277.945 185.502 275.369 183.136C272.767 180.743 270.108 178.207 266.866 176.769C266.064 176.411 265.327 177.54 265.724 178.207C267.223 180.722 269.398 182.609 271.338 184.796C273.251 186.954 275.129 189.202 276.79 191.56C280.408 196.698 282.334 202.425 281.99 208.744C281.624 215.364 279.392 221.984 276.96 228.094C274.484 234.313 271.46 240.297 268.169 246.119C264.486 252.635 260.463 258.941 256.431 265.243C255.699 266.389 255.359 267.971 256.566 268.956C257.626 269.819 259.491 269.365 260.21 268.245C267.977 256.125 275.849 243.91 281.292 230.53C286.47 217.796 290.14 203.488 282.142 191.094H282.147Z" fill="white"/>
<path d="M316.244 278.666C313.52 279.528 311.17 281.477 308.791 283.019C306.263 284.662 303.682 286.222 301.059 287.709C295.772 290.703 290.502 293.675 284.989 296.237C273.774 301.45 261.945 305.437 249.806 307.817C243.181 309.116 235.602 309.534 229.844 305.333C228.916 304.657 227.6 306.004 228.236 306.941C229.888 309.364 231.653 311.003 234.338 312.232C237.119 313.504 240.27 314.171 243.321 314.149C250.151 314.093 256.937 312.179 263.453 310.279C276.049 306.605 288.214 301.489 299.594 294.952C302.88 293.065 306.027 290.942 309.113 288.75C311.99 286.706 315.655 284.562 317.656 281.59C318.384 280.509 318.087 278.082 316.248 278.666H316.244Z" fill="white"/>
<path d="M264.653 23.586C264.539 17.6372 261.249 10.8081 256.607 6.97731C252.279 3.40367 246.547 1.2159 240.92 1.25513C237.25 1.28128 233.502 1.89141 229.985 2.92428C226.428 3.96586 222.51 5.29073 219.498 7.50028C217.58 8.90795 218.809 11.7276 221.137 10.965C224.327 9.91903 227.235 8.21937 230.512 7.33467C233.69 6.47613 236.854 6.11876 240.136 6.50228C245.562 7.1342 250.989 9.19122 254.153 13.8675C257.156 18.304 258.137 23.8257 257.034 29.038C255.875 34.5205 252.366 39.1793 248.373 42.9708C246.334 44.9058 242.394 46.9411 242.677 50.1094C242.965 53.3301 244.268 56.0931 246.595 58.3026C247.593 59.2527 249.437 57.6097 248.905 56.4635C247.972 54.4588 247.297 52.3277 247.114 50.1356C249.668 48.5492 251.18 45.638 253.626 43.8512C260.211 39.0442 264.805 31.9579 264.648 23.586H264.653Z" fill="white"/>
<path d="M265.415 214.972C262.399 215.085 259.143 216.31 256.972 218.428C254.61 220.738 253.625 223.893 252.867 227.022C251.346 233.285 248.434 238.937 243.901 243.57C239.264 248.307 233.266 251.58 226.781 252.927C223.307 253.65 219.763 253.851 216.229 253.545C212.607 253.232 209.107 252.286 205.542 251.663C203.89 251.375 202.273 254.208 203.846 255.236C209.935 259.22 218.277 259.446 225.242 258.291C232.085 257.154 238.619 254.195 243.958 249.767C249.009 245.574 253.146 240.114 255.708 234.065C257.055 230.888 257.596 227.558 258.668 224.316C259.866 220.707 263.035 219.984 265.955 218.145C267.071 217.443 267.089 214.911 265.419 214.976L265.415 214.972Z" fill="white"/>
<path d="M63.3345 243.714C72.5616 243.57 80.0975 241.064 86.1341 234.875C91.1334 229.75 93.4347 223.706 92.2404 216.502C91.9702 214.863 92.5237 213.904 93.7398 213.721C94.9515 213.538 95.7621 214.331 96.028 215.948C97.8107 226.852 93.3388 235.228 84.6871 241.155C71.777 250.002 58.113 249.789 44.6974 242.262C34.9647 236.802 28.8017 228.495 26.9101 217.229C24.186 201 35.6708 184.426 51.9979 181.811C67.3139 179.358 79.6399 184.557 88.6185 197.348C88.771 197.561 88.9192 197.779 89.0456 198.01C89.5948 199.03 89.5163 199.98 88.5095 200.629C87.5201 201.27 86.6179 201.009 85.8726 200.106C84.0987 197.967 82.4729 195.674 80.5072 193.726C70.0336 183.354 52.0895 182.173 40.9534 191.02C28.9761 200.538 26.8404 217.391 36.2636 229.737C43.2198 238.85 52.6038 243.456 63.3389 243.718L63.3345 243.714Z" fill="white"/>
<path d="M93.8925 314.48C92.5631 314.119 90.2661 313.469 87.9561 312.872C87.3982 312.728 86.6529 312.511 86.2301 312.746C83.2314 314.424 80.0715 314.393 76.9028 313.626C75.1333 313.199 73.4421 312.428 71.7467 311.735C70.5437 311.242 69.8507 310.362 70.3955 308.994C70.8357 307.887 71.8861 307.721 73.3462 308.213C75.5212 308.946 77.7353 309.56 79.9407 310.196C80.2328 310.279 80.5771 310.279 80.8778 310.223C81.4662 310.109 82.0415 309.931 82.6256 309.778C82.242 309.368 81.8759 308.946 81.4749 308.553C80.6207 307.704 79.5485 306.993 78.9383 306C78.2583 304.884 77.6307 303.52 77.6089 302.256C77.5435 298.421 81.1001 296.416 84.4213 298.373C87.8079 300.365 89.3073 303.515 89.0632 307.377C88.9717 308.85 89.4685 309.434 90.7717 309.804C95.0039 311.007 98.9876 310.706 102.553 307.943C104.139 306.714 104.057 306.457 102.27 305.673C99.0399 304.256 96.2417 302.265 94.1322 299.41C93.5786 298.661 93.0774 297.824 92.7461 296.957C91.6347 294.032 93.1646 291.535 96.2853 291.138C101.119 290.524 108.882 293.88 108.934 301.742C108.943 303.114 109.487 303.363 110.625 303.197C112.229 302.962 113.842 302.77 115.445 302.517C116.701 302.321 117.86 302.395 118.204 303.851C118.544 305.285 117.655 306.056 116.356 306.244C113.977 306.592 111.579 306.793 109.195 307.124C108.646 307.202 107.892 307.416 107.648 307.817C104.754 312.624 100.195 314.123 93.8837 314.476L93.8925 314.48ZM97.4752 294.974C97.3226 295.022 96.8955 295.165 96.4684 295.305C96.6165 295.732 96.6819 296.216 96.9304 296.582C98.713 299.227 101.197 300.983 104.109 302.204C105.151 302.639 105.12 302.051 105.059 301.319C104.78 297.924 101.577 295.126 97.4795 294.974H97.4752ZM84.3516 306.562C84.6044 306.379 84.8615 306.196 85.1143 306.008C85.0054 304.461 84.3211 303.162 83.0963 302.186C82.752 301.912 82.1854 301.912 81.719 301.785C81.7539 302.321 81.597 302.984 81.8541 303.372C82.5994 304.496 83.5104 305.507 84.3559 306.562H84.3516Z" fill="white"/>
<path d="M79.252 197.849C79.1604 195.439 76.7632 194.419 74.9719 196.014C73.3723 197.431 71.8729 199.013 70.5915 200.721C66.403 206.299 62.3146 211.952 58.2525 217.626C57.5159 218.65 57.019 218.96 55.7725 218.28C53.1181 216.824 50.2938 215.804 47.1818 216.807C44.5318 217.661 42.8929 220.672 44.0305 222.934C44.3095 223.156 44.7192 223.57 45.1986 223.862C49.1823 226.303 53.1704 228.735 57.1759 231.132C59.1198 232.291 60.2966 231.982 61.4865 230.003C67.1439 220.546 72.8144 211.093 78.3803 201.584C79.0035 200.52 79.2999 199.091 79.2476 197.853L79.252 197.849Z" fill="white"/>
<path d="M107.504 264.637C108.864 264.545 109.88 264.903 110.023 266.289C110.167 267.657 109.309 268.263 108.04 268.415C102.161 269.121 96.2808 269.836 90.3968 270.533C80.2457 271.741 70.0947 272.939 59.9436 274.142C59.0588 274.246 58.174 274.351 57.2893 274.451C55.8117 274.621 54.8572 274.015 54.7221 272.826C54.587 271.64 55.3671 270.821 56.8665 270.638C59.5208 270.307 62.1752 270.002 64.8295 269.684C76.9594 268.241 89.0849 266.798 101.215 265.36C103.35 265.108 105.486 264.868 107.504 264.632V264.637Z" fill="white"/>
<path d="M74.1925 261.774C73.8177 261.678 73.469 261.521 73.1595 261.268C70.6359 259.22 74.5935 258.008 75.9272 257.803C79.2789 257.289 82.635 256.779 85.9867 256.265C92.6946 255.241 99.398 254.212 106.106 253.188C106.925 253.062 107.775 252.94 108.564 253.184C109.353 253.428 110.063 254.156 109.998 254.979C109.902 256.2 108.403 256.688 107.191 256.884C99.568 258.104 91.9449 259.324 84.3261 260.545C81.8636 260.937 79.401 261.333 76.9384 261.726C76.0362 261.869 75.0512 261.991 74.1882 261.774H74.1925Z" fill="white"/>
<path d="M62.5415 259.241C63.8447 259.167 64.9256 259.507 65.0345 260.993C65.1348 262.353 64.2413 262.92 62.9773 263.059C60.4276 263.334 57.8778 263.652 55.3281 263.926C54.0597 264.062 52.9178 263.787 52.7652 262.292C52.617 260.841 53.5672 260.287 54.8966 260.144C57.4463 259.869 59.9917 259.547 62.5415 259.241Z" fill="white"/>
<path d="M101.639 125.914C97.049 134.835 92.4638 143.752 87.8743 152.673C87.5822 153.235 87.3164 153.802 87.0025 154.355C86.3967 155.423 85.4988 155.859 84.3613 155.27C83.2106 154.678 83.1278 153.675 83.6247 152.573C83.7554 152.285 83.9036 152.01 84.0431 151.727L99.8777 120.902C100.126 121.896 100.431 122.868 100.789 123.822C101.037 124.476 101.303 125.204 101.63 125.91L101.639 125.914Z" fill="#FFE380"/>
<path d="M211.578 83.9806C205.058 82.769 198.651 81.0171 192.217 79.4133C185.906 77.84 179.538 76.3278 173.07 75.5259C168.35 74.9419 162.924 74.9767 158.439 76.9074C150.432 73.726 142.421 70.5402 134.419 67.3588C132.043 66.4131 132.492 65.9424 131.093 68.6662C127.462 75.7176 123.832 82.769 120.205 89.8204C119.421 89.6287 118.623 89.4979 117.834 89.4631C117.215 89.4326 116.597 89.4761 115.986 89.5807C119.665 82.4291 123.344 75.2818 127.027 68.1302C128.203 65.8465 129.463 63.589 130.906 61.4666C134.667 55.9406 138.542 54.7159 144.731 57.2001C150.528 59.5229 156.172 62.2249 161.991 64.4824C178.989 71.0762 195.996 77.6657 213.008 84.2333C212.528 84.1549 212.057 84.0677 211.582 83.9806H211.578Z" fill="#FFE380"/>
<path d="M414.521 176.651C412.86 185.149 409.666 193.147 406.288 201.061C397.056 222.712 386.156 243.548 374.95 264.218C360.009 291.775 344.457 318.978 327.908 345.606C327.328 346.543 326.731 347.467 326.117 348.382C322.978 353.05 320.442 354.388 313.638 354.348C308.186 354.148 301.831 352.54 295.528 350.709C277.052 345.344 259.182 338.306 241.508 330.797C225.813 324.129 210.271 317.104 194.663 310.227C194.092 309.974 193.338 309.787 193.046 309.325C192.64 308.706 192.231 307.643 192.51 307.154C192.841 306.57 193.861 306.235 194.637 306.091C195.112 306.004 195.696 306.475 196.219 306.714C223.416 319.183 250.792 331.211 278.983 341.3C288.668 344.765 298.418 348.06 308.582 349.838C311.202 350.295 313.9 350.356 316.567 350.439C319.03 350.513 320.882 349.254 322.203 347.245C324.02 344.482 325.833 341.714 327.546 338.89C351.575 299.292 374.479 259.076 394.677 217.369C400.208 205.933 405.451 194.367 409.195 182.19C409.609 180.839 409.932 179.458 410.293 178.089C410.476 177.401 410.376 177.017 409.565 176.695C382.433 165.956 355.314 155.196 328.2 144.414C328.645 142.584 328.732 140.714 328.353 138.984C330.475 137.821 333.666 137.223 335.435 135.424C336.25 134.596 335.976 132.896 336.773 131.758C349.474 136.753 362.136 141.847 374.732 147.108C384.552 151.209 394.18 155.785 403.886 160.178C405.32 160.823 406.693 161.611 408.057 162.396C414.355 166.022 415.929 169.482 414.525 176.651H414.521Z" fill="#FFE380"/>
<path d="M366.432 215.56C365.626 214.684 365.56 214.327 366.45 213.508C367.714 212.335 368.917 211.045 369.893 209.633C373.153 204.909 373.811 199.614 372.674 194.123C371.954 190.628 369.161 189.381 365.953 190.989C364.615 191.66 363.29 192.563 362.305 193.665C360.6 195.574 358.966 197.605 357.658 199.797C355.117 204.037 351.6 206.565 346.692 207.419C339.414 208.692 333.769 212.675 329.245 218.419C323.605 225.584 319.983 233.734 317.372 242.402C317.137 243.182 316.588 244.023 315.938 244.507C300.823 255.72 284.121 263.364 265.545 266.746C265.148 266.816 264.734 266.764 264.324 266.772C264.455 266.393 264.521 265.983 264.717 265.648C267.314 261.085 269.973 256.557 272.527 251.972C277.409 243.217 282.373 234.496 285.86 225.048C288.658 217.465 290.354 209.72 288.471 201.619C288.174 200.333 288.471 200.146 289.669 200.12C298.134 199.967 304.523 196.097 308.965 188.998C310.298 186.871 311.493 184.631 312.495 182.334C315.773 174.773 317.128 166.771 317.529 158.596C317.586 157.436 317.821 156.987 319.103 156.926C320.262 156.87 321.491 156.469 322.533 155.924C327.759 153.209 330.906 147.129 330.069 141.329C329.903 140.196 330.191 139.917 331.237 139.716C333.617 139.259 335.652 138.078 337.361 136.356C340.97 132.726 342.874 128.272 343.018 123.225C343.101 120.327 342.9 117.285 342.107 114.513C340.547 109.083 338.79 103.67 336.572 98.4799C332.475 88.9052 325.091 82.2983 316.052 77.487C307.387 72.8674 298.278 69.5204 288.453 68.2609C283.99 67.6943 279.592 66.5046 275.121 66.0644C265.963 65.1623 257.22 66.6266 249.292 71.6428C245.875 73.8044 242.484 76.0052 239.019 78.0884C230.35 83.3094 221.096 84.6604 211.303 82.0325C202.843 79.7619 194.439 77.2647 185.932 75.199C176.67 72.9546 167.246 71.7735 157.675 72.4447C151.037 72.911 147.755 75.5258 145.868 81.832C145.493 83.0871 145.105 84.3466 144.626 85.5582C143.632 88.0815 141.657 89.3759 139.029 89.4325C137.103 89.4761 135.137 89.3192 133.245 88.9575C126.991 87.759 120.736 86.8133 114.329 87.2448C104.605 87.8941 98.7649 92.9364 96.9518 102.433C95.9624 107.619 96.3808 112.779 97.2569 117.93C97.9717 122.118 99.2008 126.088 101.86 129.505C104.078 132.36 104.562 131.885 101.267 134.356C97.3441 137.298 94.9643 141.032 94.6287 145.979C94.3977 149.339 95.0079 152.568 96.2152 155.684C98.1983 160.792 101.69 164.571 106.44 167.242C108.236 168.249 108.223 168.266 106.51 169.534C105.538 170.253 104.571 170.981 103.612 171.709C102.025 172.916 102.086 172.886 101.14 171.151C98.6821 166.636 96.3677 162.034 93.6131 157.706C91.1854 153.893 87.4545 151.557 82.9696 150.72C80.7075 150.302 78.3931 150.067 76.0961 149.984C67.2265 149.679 58.3481 149.587 49.4828 149.191C36.4202 148.602 23.3707 147.818 10.3125 147.116C10.3125 147.221 10.3125 147.321 10.3125 147.426C4.4895 147.426 -1.34224 147.317 -7.16526 147.465C-11.7374 147.578 -15.0455 149.875 -16.7628 154.155C-17.774 156.682 -18.5585 159.302 -19.4171 161.886C-20.6898 165.695 -20.7073 169.491 -19.3997 173.313C-16.3618 182.195 -13.3675 191.098 -10.347 199.984C-9.74553 201.745 -9.71501 201.715 -11.4759 201.457C-14.8799 200.956 -17.944 201.749 -20.594 203.976C-25.092 207.746 -26.2252 213.198 -23.5621 218.45C-21.5616 222.381 -18.4888 225.379 -15.0063 227.976C-14.1346 228.63 -14.0692 228.948 -14.9409 229.663C-18.0747 232.239 -19.0728 235.616 -18.4147 239.543C-17.4166 245.548 -14.2959 250.381 -9.91551 254.439C-8.26362 255.969 -6.3938 257.259 -4.61987 258.653C-4.20145 258.984 -3.65227 259.246 -4.45424 259.782C-6.89939 261.425 -7.26115 263.839 -6.74684 266.472C-6.37637 268.372 -5.92308 270.272 -5.32596 272.107C-1.90885 282.579 3.88366 291.182 14.0522 296.203C15.8435 297.083 17.5608 297.767 17.0029 300.247C16.9942 300.295 17.0116 300.351 17.029 300.404C19.034 306.579 20.8646 312.824 23.1049 318.917C24.7698 323.454 28.1303 326.727 32.3711 329.05C36.4551 331.29 40.7701 332.854 45.3858 333.586C46.0788 333.7 46.9025 334.257 47.2861 334.85C49.6179 338.467 51.7623 342.202 54.116 345.811C56.3737 349.267 59.6731 351.276 63.6699 352.256C67.6362 353.228 71.6068 352.81 75.5731 352.387C76.6845 352.269 77.456 352.505 78.2667 353.22C93.3255 366.525 109.339 378.584 125.927 389.902C127.017 390.643 128.002 391.693 128.699 392.809C137.251 406.51 144.007 421.018 148.069 436.708C148.54 438.534 149.525 439.248 150.906 438.917C152.262 438.595 152.785 437.431 152.375 435.627C152.327 435.426 152.249 435.226 152.196 435.025C148.688 421.071 142.743 408.153 135.756 395.628C132.871 390.459 129.209 386.415 124.232 383.107C110.402 373.912 97.3005 363.723 84.6999 352.897C84.2728 352.527 83.9154 352.078 83.5231 351.668C84.0374 351.498 84.5386 351.254 85.066 351.176C91.8741 350.204 98.6778 349.249 105.486 348.308C118.113 346.56 130.748 344.835 143.375 343.065C144.586 342.895 145.367 343.209 146.225 344.142C149.172 347.349 152.257 350.426 155.291 353.555C155.587 353.856 155.897 354.139 156.224 354.405C157.383 355.346 158.599 355.364 159.471 354.466C160.382 353.529 160.29 352.248 159.192 351.119C156.372 348.221 153.434 345.427 150.732 342.429C137.334 327.546 129.915 310.079 128.534 290.101C127.597 276.552 128.464 263.02 128.913 249.479C128.965 247.945 128.813 246.307 128.316 244.86C124.951 235.015 120.963 225.418 115.72 216.401C110.607 207.615 109.326 198.302 111.509 188.462C112.39 184.5 113.519 180.608 116.129 177.366C117.324 175.888 118.226 175.841 119.211 177.453C120.484 179.545 121.687 181.741 122.506 184.042C124.049 188.383 125.256 192.85 126.686 197.239C128.02 201.318 129.785 205.236 133.006 208.169C136.915 211.721 139.626 215.979 141.583 220.82C143.845 226.399 147.524 230.927 152.17 234.705C154.206 236.361 156.198 238.083 158.325 239.621C165.577 244.864 170.524 251.78 173.606 260.144C176.016 266.689 178.478 273.227 181.146 279.672C189.941 300.931 195.878 322.944 198.946 345.737C199.225 347.794 199.456 350.025 200.424 351.781C213.273 374.94 224.57 398.84 235.079 423.137C235.262 423.568 235.449 424.012 235.711 424.396C236.351 425.359 237.28 425.629 238.326 425.215C239.459 424.766 239.895 423.838 239.633 422.666C239.503 422.06 239.21 421.48 238.962 420.905C228.51 396.822 217.444 373.04 204.538 350.147C204.137 349.437 203.889 348.6 203.745 347.794C202.219 339.169 200.886 330.505 199.19 321.915C196.44 308.026 191.907 294.668 186.716 281.52C186.433 280.81 186.315 279.842 186.564 279.149C188.076 274.9 189.68 270.681 191.358 266.493C191.567 265.966 192.339 265.343 192.883 265.304C199.456 264.876 205.519 262.863 211.272 259.743C211.909 259.398 212.767 259.316 213.512 259.359C216.603 259.542 219.68 259.921 222.766 260.022C224.16 260.065 224.182 260.327 223.668 261.486C220.194 269.322 217.88 277.454 217.631 286.092C217.357 295.815 220.225 304.221 228.074 310.432C234.787 315.744 242.628 316.564 250.782 315.792C258.737 315.034 266.321 312.737 273.678 309.734C300.13 298.944 323.191 282.566 345.951 265.722C347.682 264.441 349.294 262.998 350.929 261.599C356.316 256.993 361.764 252.456 367.042 247.727C369.727 245.326 371.876 242.384 372.717 238.802C374.788 229.964 372.6 222.185 366.45 215.543L366.432 215.56ZM313.58 159.781C313.04 167.36 311.667 174.755 308.507 181.733C306.759 185.585 304.554 189.128 301.35 191.987C298.134 194.859 294.25 195.918 290.092 196.28C289.678 196.319 289.142 196.18 288.854 196.389C287.067 197.675 286.771 196.271 286.213 195.073C282.203 186.461 275.931 179.676 268.792 173.6C267.275 172.31 265.693 171.081 264.085 169.905C263.204 169.26 263.414 168.968 264.242 168.545C266.53 167.373 268.814 166.192 271.05 164.924C271.839 164.475 272.418 164.483 273.194 164.95C276.677 167.059 280.381 168.615 284.448 169.203C290.022 170.001 295.309 168.955 300.413 166.758C304.959 164.801 308.891 161.951 312.308 158.382C312.661 158.016 313.075 157.715 313.463 157.384C313.519 157.916 313.594 158.456 313.628 158.992C313.646 159.249 313.598 159.515 313.58 159.777V159.781ZM310.691 154.32C304.998 160.831 297.999 164.893 289.225 165.512C284.5 165.847 280.198 164.448 276.14 162.169C270.056 158.739 265.131 153.98 260.755 148.602C260.554 148.358 260.363 148.106 260.171 147.857C259.395 146.859 258.497 146.179 257.224 147.012C256.183 147.692 256.034 148.973 257.128 150.154C260.476 153.762 263.889 157.319 267.38 160.792C268.26 161.668 268.583 161.969 267.262 162.683C258.719 167.312 249.806 170.92 240.209 172.694C239.847 172.755 239.494 172.86 239.141 172.955C238.069 173.252 237.532 173.975 237.689 175.065C237.868 176.25 238.696 176.769 239.847 176.647C240.78 176.551 241.721 176.381 242.619 176.115C247.688 174.59 252.753 173.06 257.787 171.448C258.767 171.134 259.334 171.177 260.284 171.77C262.228 172.982 262.886 174.673 263.305 176.747C264.006 180.168 264.486 183.611 263.897 187.063C262.411 195.809 253.973 201.754 245.003 200.595C238.687 199.78 233.287 197.112 228.624 192.85C223.764 188.405 219.994 183.123 216.899 177.344C216.633 176.847 216.598 176.137 216.672 175.553C217.352 170.175 218.054 164.767 216.407 159.467C215.483 156.491 215.757 153.667 216.581 150.816C217.88 146.314 221.785 143.259 226.422 143.063C226.754 143.046 227.142 143.203 227.434 143.386C229.539 144.693 231.762 144.589 233.963 143.83C238.252 142.349 241.952 139.817 245.177 136.709C246.097 135.824 246.306 134.09 246.594 132.691C246.794 131.728 246.947 131.061 248.063 130.817C249.296 130.542 250.015 129.68 249.601 128.363C249.187 127.069 248.163 126.821 246.934 127.174C243.273 128.215 240.243 126.982 237.868 124.28C234.067 119.965 232.782 114.897 234.333 109.323C235.78 104.145 241.276 101.984 245.705 105.043C247.832 106.512 249.501 108.756 251.074 110.87C251.715 111.729 251.358 113.263 251.802 114.339C252.447 115.895 253.114 117.642 254.3 118.728C256.823 121.042 260.323 120.209 262.546 117.059C264.778 113.895 265.715 110.208 266.434 106.499C266.791 104.677 267.371 103.579 269.363 103.069C271.259 102.581 273.094 101.631 274.768 100.581C277.941 98.5845 281.135 98.6586 284.339 100.193C285.786 100.886 287.072 101.949 288.353 102.938C289.255 103.631 290.145 104.276 291.095 103.226C292.115 102.106 291.347 101.208 290.467 100.424C287.708 97.9613 284.614 96.1745 280.656 95.7169C281.563 94.5228 282.321 93.4681 283.162 92.4876C283.275 92.3525 283.982 92.4483 284.104 92.6401C287.063 97.2815 291.57 98.1792 296.512 97.5386C301.39 96.911 305.203 94.5446 307.169 89.7812C307.383 89.2582 307.587 88.7396 307.94 87.8593C308.189 88.2994 308.302 88.4781 308.394 88.6611C311.113 93.9214 313.833 99.1816 316.531 104.455C316.684 104.751 316.662 105.135 316.719 105.479C316.379 105.418 316.021 105.396 315.699 105.283C306.764 102.102 299.058 106.686 297.863 116.265C297.388 120.07 297.772 123.997 297.977 127.858C298.042 129.113 298.016 129.958 296.765 130.508C296.103 130.8 295.34 131.153 294.952 131.715C294.582 132.251 294.355 133.214 294.599 133.75C294.791 134.168 295.963 134.569 296.412 134.36C297.964 133.619 299.568 132.804 300.788 131.632C301.394 131.044 301.459 129.592 301.324 128.594C300.771 124.467 300.383 120.371 301.128 116.217C302.789 106.895 311.41 105.383 318.061 110.343C318.471 110.652 318.785 111.262 318.902 111.785C319.748 115.516 320.955 119.238 321.204 123.012C321.421 126.302 320.702 129.688 320.11 132.983C318.697 140.836 316.039 148.197 310.686 154.32H310.691ZM320.175 152.734C319.482 153 318.597 152.782 317.804 152.786C317.908 152.045 317.869 151.252 318.139 150.581C319.473 147.286 320.868 144.013 322.293 140.754C322.476 140.322 323.06 139.655 323.287 139.721C324.246 139.991 325.684 139.35 326.055 140.902C326.251 141.712 326.325 142.553 326.399 143.024C326.408 146.973 323.47 151.492 320.175 152.738V152.734ZM98.5514 147.038C98.5034 143.551 99.8066 140.592 102.609 138.378C103.721 137.502 104.845 136.631 105.878 135.663C108.031 133.654 108.428 131.449 106.584 129.235C100.26 121.648 99.7979 112.735 100.774 103.601C101.559 96.253 105.974 92.1781 113.344 91.3196C114.957 91.1322 116.583 91.0494 118.204 90.9186C118.226 90.8271 118.252 90.7356 118.269 90.6354C123.343 91.4242 128.403 92.3002 133.49 92.9713C135.756 93.2677 138.101 93.4246 140.359 93.1849C144.233 92.7708 146.892 90.5003 148.309 86.8743C148.941 85.2662 149.442 83.6014 149.904 81.9366C150.719 78.9992 152.576 77.0773 155.592 76.794C159.336 76.441 163.132 76.1839 166.88 76.3582C178.657 76.9074 189.95 79.9755 201.213 83.2266C206.138 84.6517 211.128 85.9983 216.176 86.8482C223.986 88.1687 231.465 86.5605 238.4 82.8387C242.462 80.6553 246.35 78.132 250.22 75.6174C256.54 71.5164 263.444 69.5073 270.949 69.7906C274.663 69.9344 278.403 70.222 282.059 70.8409C289.395 72.0829 296.717 73.3991 303.713 76.1229C309.309 78.3019 314.696 80.8471 319.643 84.2856C325.885 88.6176 330.605 94.209 333.569 101.204C336.254 107.54 338.734 113.964 339.148 120.942C339.414 125.417 338.167 129.457 335.242 132.913C332.322 136.361 328.482 136.57 324.433 135.855C324.159 135.803 323.784 135.04 323.836 134.652C324.198 131.789 324.738 128.956 325.074 126.089C325.627 121.334 324.15 116.832 323.06 112.308C320.576 101.962 315.777 92.6706 309.889 83.8934C309.113 82.7341 308.193 82.0063 306.759 82.3419C305.304 82.6818 304.654 83.7016 304.401 85.1442C303.286 91.5941 298.282 94.9368 291.901 93.5858C288.946 92.9582 287.202 91.2237 286.653 88.2471C286.409 86.9353 286.448 85.3577 284.653 85.0657C282.853 84.7737 282.43 86.3339 281.754 87.4714C278.015 93.7514 273.046 98.4799 265.689 100.193C264.072 100.567 263.475 101.722 263.126 103.217C262.459 106.076 261.762 108.926 260.894 111.729C260.511 112.953 259.805 114.13 259.029 115.163C258.031 116.492 256.579 116.283 255.969 114.736C255.599 113.79 255.629 112.687 255.398 111.676C255.198 110.783 255.097 109.754 254.583 109.053C253.114 107.022 251.645 104.921 249.828 103.226C246.293 99.9181 242.026 98.9593 237.41 100.572C232.891 102.145 230.798 105.793 230.11 110.234C229.177 116.239 230.642 121.704 234.525 126.433C236.299 128.59 238.548 130.111 241.224 130.952C242.911 131.484 243.43 133.179 242.057 134.356C239.097 136.879 235.99 139.259 232.132 140.257C231.269 140.479 230.049 140.374 229.325 139.904C223.855 136.347 217.705 134.857 211.399 133.924C195.778 131.615 180.645 134.221 165.765 138.814C147.005 144.615 129.82 153.671 113.584 164.601C112.377 165.412 111.483 165.481 110.184 164.832C102.797 161.171 98.6516 155.41 98.547 147.042L98.5514 147.038ZM-15.3027 171.443C-16.1657 168.92 -16.1482 166.392 -15.3463 163.864C-14.5748 161.415 -13.8121 158.962 -12.9839 156.53C-11.9074 153.348 -9.5799 151.81 -6.29355 151.81C1.47774 151.81 9.2534 151.688 17.0116 151.976C35.6313 152.655 54.2511 153.536 72.8708 154.364C75.7997 154.495 78.7461 154.638 81.6489 155.044C85.1314 155.536 87.9601 157.38 89.952 160.265C91.5297 162.544 93.0073 164.919 94.2451 167.399C98.1242 175.135 101.877 182.94 105.656 190.728C105.926 191.277 106.188 191.909 106.188 192.506C106.24 196.358 106.214 200.211 106.214 204.408C105.795 203.571 105.486 202.992 105.203 202.399C99.3359 190.2 93.4911 177.993 87.5896 165.808C84.1246 158.652 83.7759 160.234 78.4018 160.034C63.2384 159.472 48.075 158.848 32.9116 158.304C22.9436 157.946 12.9712 157.663 2.99888 157.406C1.64773 157.367 0.252989 157.515 -1.05458 157.833C-3.44742 158.413 -4.63295 159.995 -4.40194 162.448C-4.24504 164.095 -3.83533 165.765 -3.27308 167.325C5.59657 192.118 14.5142 216.894 23.4143 241.674C23.6628 242.354 23.9025 243.034 24.1509 243.722C23.9635 243.779 23.8284 243.849 23.7892 243.818C19.6006 239.87 14.7931 236.78 9.92025 233.764C9.30134 233.381 8.69986 232.587 8.55603 231.89C6.97387 224.42 3.70932 217.609 0.401178 210.81C-0.147999 209.69 -0.823574 208.566 -1.66913 207.663C-3.45178 205.763 -4.4063 203.484 -5.21699 201.083C-8.56872 191.198 -11.9466 181.323 -15.307 171.448L-15.3027 171.443ZM-16.0567 221.065C-17.6127 219.422 -18.9333 217.452 -19.9489 215.421C-22.1761 210.941 -17.7478 205.715 -13.2193 205.824C-10.6172 206.038 -7.98031 206.543 -6.24997 209.08C-5.54388 210.117 -4.54577 211.015 -4.06198 212.139C-1.45556 218.188 1.04189 224.285 3.53934 230.373C3.70496 230.77 3.60907 231.271 3.63522 231.724C3.19065 231.672 2.72429 231.69 2.30151 231.554C-4.57193 229.38 -11.0182 226.386 -16.0611 221.065H-16.0567ZM-13.8164 239.769C-14.6838 236.187 -13.6857 233.803 -10.5911 232.06C-10.0986 231.785 -9.23993 231.711 -8.75613 231.955C-4.14043 234.283 0.70628 235.93 5.71425 237.159C6.12396 237.259 6.5511 237.333 6.91722 237.525C15.4338 241.979 23.5887 247.924 27.6813 256.919C28.4223 258.535 30.1614 263.399 30.1396 266.864C30.1221 269.57 29.0325 271.431 25.5631 270.246C24.8701 270.01 24.1509 269.792 23.5233 269.431C14.4706 264.258 5.30455 259.268 -3.55638 253.785C-8.71691 250.599 -12.3476 245.858 -13.8164 239.769ZM-1.66477 268.664C-1.97859 267.561 -2.14421 266.415 -2.35342 265.286C-2.60186 263.961 -1.93936 263.334 -0.688459 263.159C0.945997 262.933 2.4497 262.985 3.99262 263.883C8.97445 266.785 14.0042 269.614 19.0906 272.324C22.0501 273.902 25.1229 275.288 28.5923 275.384C28.9889 275.397 29.416 275.571 29.7691 275.785C34.4807 278.561 39.079 281.538 42.7706 285.612C44.4313 287.447 45.7824 289.631 46.9505 291.831C49.3085 296.29 40.9749 296.708 38.5254 296.813C33.0511 297.044 27.6116 296.547 22.3901 294.847C21.1784 294.455 19.217 293.174 17.9879 293.174C7.13514 288.436 1.43416 279.598 -1.67349 268.668L-1.66477 268.664ZM33.5218 272.638C33.8182 272.229 33.9882 271.989 34.1625 271.745C34.4066 272.159 34.6681 272.564 34.8773 272.991C34.9078 273.057 34.6202 273.366 34.6027 273.353C34.2453 273.144 33.9097 272.904 33.5218 272.638ZM47.735 303.302C48.8508 306.117 50.0276 308.911 51.1434 311.726C51.3308 312.219 51.3439 312.785 51.4354 313.312C51.4529 313.33 51.5313 313.278 51.5313 313.278L51.4703 313.339C49.6179 311.687 47.7002 310.157 46.0265 308.392C44.2743 306.549 42.7619 304.474 41.158 302.491C40.6088 301.807 40.7744 301.371 41.6854 301.258C42.2563 301.188 42.8229 301.097 43.3896 300.975C46.5844 300.29 46.5582 300.295 47.7394 303.289L47.735 303.302ZM47.4779 329.145C38.7085 329.289 29.4683 323.319 26.3476 315.152C24.5519 310.467 23.2313 305.594 21.6753 300.818C21.2438 299.484 21.6535 299.423 22.9 299.663C26.644 300.382 30.4229 300.957 34.1974 301.515C35.0734 301.646 35.7708 301.72 36.2023 302.666C38.2116 307.05 41.3192 310.545 45.0284 313.578C46.5669 314.838 48.0271 316.215 49.3608 317.684C51.1086 319.619 51.8844 321.998 51.9628 324.016C51.9715 327.781 50.6771 329.093 47.4822 329.141L47.4779 329.145ZM136.048 330.156C137.791 332.649 139.387 335.251 141.091 337.766C141.666 338.62 141.548 338.894 140.542 339.034C129 340.594 117.459 342.167 105.922 343.762C97.2438 344.961 88.5834 346.308 79.8881 347.358C75.377 347.898 70.8005 348.203 66.2632 348.125C62.5715 348.064 59.5511 346.155 57.52 342.969C55.6284 340.001 53.8021 336.999 52.0021 333.979C51.8277 333.682 51.9105 332.863 52.1197 332.75C55.6632 330.828 56.5219 327.629 56.4826 323.959C56.4826 323.82 56.5437 323.68 56.6483 323.266C57.3805 324.539 57.9515 325.633 58.614 326.67C59.9956 328.836 61.3206 331.054 62.8679 333.094C65.3436 336.354 68.7825 337.5 72.7749 337.012C86.6264 335.295 100.469 333.547 114.321 331.808C120.98 330.971 127.645 330.104 134.313 329.333C134.867 329.272 135.725 329.686 136.052 330.152L136.048 330.156ZM123.67 250.22C124.071 251.083 124.197 252.142 124.188 253.105C124.088 264.336 123.678 275.571 123.866 286.798C124.079 300.029 127.148 312.68 133.115 324.552C133.79 325.899 133.455 326.178 132.147 326.339C121.782 327.611 111.427 328.927 101.066 330.222C92.214 331.324 83.3618 332.414 74.5096 333.508C73.6771 333.608 72.8359 333.673 72.0034 333.769C69.0658 334.114 66.6947 333.068 65.0646 330.653C63.3343 328.091 61.4993 325.541 60.1918 322.756C56.6221 315.169 53.3227 307.455 49.8925 299.798C49.5264 298.983 49.5656 298.386 50.2499 297.706C51.9236 296.028 52.2156 293.945 51.6795 291.718C50.9473 288.68 49.3259 286.083 47.2512 283.839C45.2986 281.725 43.0583 279.881 40.9967 277.868C40.3822 277.262 39.7327 276.561 39.4494 275.776C26.2692 239.491 13.1281 203.192 0.000192642 166.889C-0.479248 165.564 -0.784346 164.17 -1.09816 162.797C-1.35096 161.677 -0.897667 160.94 0.314009 160.844C1.46467 160.753 2.61532 160.609 3.76598 160.648C14.8934 161.001 26.0207 161.398 37.1438 161.764C38.6126 161.812 40.0814 161.764 41.5502 161.764C41.5502 161.851 41.5502 161.938 41.5502 162.021C54.8264 162.457 68.1069 162.88 81.3787 163.385C82.0325 163.411 82.926 164.078 83.2529 164.693C85.0834 168.114 86.8661 171.565 88.5136 175.082C100.264 200.115 111.98 225.166 123.674 250.22H123.67ZM190.181 258.139C188.42 263.19 186.494 268.184 184.628 273.2C184.493 273.562 184.223 273.872 184.018 274.207C183.805 273.872 183.517 273.558 183.377 273.192C181.547 268.441 179.664 263.717 177.934 258.928C174.556 249.58 169.025 241.883 160.961 235.987C157.196 233.232 157.274 233.11 158.556 228.674C162.295 215.647 165.128 202.421 167.116 189.024C167.294 187.795 167.033 186.409 166.641 185.206C166.048 183.367 165.181 181.611 164.392 179.841C163.899 178.739 163.049 178.163 161.855 178.665C160.678 179.157 160.452 180.146 160.866 181.288C161.188 182.173 161.493 183.088 161.955 183.903C163.311 186.317 163.319 188.797 162.866 191.486C160.761 204.016 158.046 216.406 154.528 228.617C154.01 230.421 154.023 230.4 152.685 229.162C149.664 226.377 147.363 223.074 145.815 219.282C143.575 213.821 140.568 208.932 136.118 204.94C133.476 202.569 132.086 199.326 131.005 196.01C129.593 191.674 128.359 187.272 126.891 182.957C126.171 180.831 125.173 178.787 124.145 176.786C123.578 175.679 122.794 174.646 121.935 173.744C119.346 171.016 116.19 170.981 113.479 173.614C110.834 176.176 109.5 179.488 108.332 182.883C108.184 183.306 107.948 183.707 107.757 184.121C107.465 183.72 107.107 183.358 106.889 182.927C106.039 181.236 105.303 179.488 104.383 177.841C103.799 176.791 104.017 176.224 104.932 175.522C112.73 169.526 120.902 164.1 129.423 159.206C144.517 150.537 160.299 143.534 177.35 139.681C187.283 137.433 197.32 136.278 207.511 137.306C212.109 137.768 216.633 138.592 221.31 140.287C220.691 140.618 220.43 140.784 220.151 140.91C216.454 142.549 214.131 145.386 212.994 149.217C212.728 150.115 212.453 150.712 211.298 150.847C209.838 151.017 209.49 152.32 210.117 153.932C211.12 156.517 212.296 159.071 212.941 161.746C214.136 166.693 213.329 171.67 212.519 176.599C207.92 204.556 199.482 231.472 190.172 258.139H190.181ZM300.727 291.783C287.712 299.31 274.493 306.405 259.809 310.205C253.472 311.844 247.056 312.794 240.488 311.678C230.306 309.952 222.744 301.707 221.728 291.382C220.761 281.572 223.271 272.455 226.898 263.512C227.264 262.615 227.076 261.508 227.351 260.553C227.46 260.152 228.053 259.751 228.502 259.612C231.252 258.771 234.172 258.331 236.761 257.15C246.563 252.691 252.818 244.882 256.666 235.028C257.713 232.352 258.458 229.55 259.194 226.761C259.486 225.649 259.988 224.917 260.964 224.346C262.956 223.178 264.891 221.914 266.852 220.69C267.968 219.997 268.6 219.06 267.842 217.809C267.075 216.545 265.959 216.706 264.839 217.404C262.433 218.894 259.922 220.254 257.647 221.932C256.701 222.629 256.052 223.941 255.634 225.109C254.352 228.704 253.576 232.518 252.007 235.974C247.997 244.829 241.791 251.593 232.298 254.713C226.056 256.766 219.662 256.439 213.286 255.363C210.649 254.923 208.047 254.317 205.427 253.763C204.211 253.506 203.2 253.681 202.738 254.984C202.337 256.104 202.965 256.967 204.442 257.498C204.804 257.629 205.131 257.847 205.475 258.026C205.14 258.239 204.83 258.557 204.468 258.662C201.343 259.525 198.223 260.444 195.063 261.146C193.228 261.556 193.158 261.36 193.821 259.529C200.236 241.643 205.85 223.514 210.501 205.088C212.231 198.228 213.617 191.286 215.169 184.374C215.256 183.981 215.4 183.602 215.592 182.944C216.049 183.615 216.372 184.073 216.686 184.539C220.299 190.009 224.435 195.029 229.879 198.782C236.377 203.262 243.517 205.598 251.454 204.133C262.219 202.155 269.271 192.292 267.955 181.367C267.824 180.277 267.694 179.192 267.545 177.963C267.807 178.041 268.012 178.046 268.129 178.155C273.918 183.35 278.969 189.12 282.443 196.162C286.117 203.615 286 211.233 283.746 219.008C281.658 226.207 278.481 232.94 274.89 239.482C269.816 248.73 264.603 257.899 259.382 267.069C259.09 267.583 258.266 267.975 257.638 268.075C255.206 268.463 252.748 268.712 250.299 269.012C248.59 269.222 247.806 269.91 247.976 271.139C248.198 272.756 249.401 272.969 250.687 272.782C256.601 271.915 262.564 271.279 268.395 270.028C274.327 268.751 280.129 266.855 285.986 265.234C286.383 265.129 286.788 265.064 287.189 264.981C287.15 265.421 287.189 265.883 287.072 266.302C285.555 271.449 285.232 276.53 287.917 281.429C290.681 286.462 294.856 289.613 300.527 290.737C300.84 290.798 301.132 291.025 301.429 291.169C301.198 291.369 300.993 291.618 300.731 291.77L300.727 291.783ZM364.61 244.533C359.737 249.366 354.276 253.606 349.063 258.095C347.355 259.568 345.703 261.133 343.859 262.427C332.143 270.655 320.38 278.818 308.629 287.003C308.376 287.177 308.076 287.329 307.775 287.395C300.893 288.829 293.056 284.54 290.589 277.986C289.177 274.242 289.866 270.568 290.925 266.877C291.718 264.109 293.117 262.283 295.941 261.02C304.301 257.272 311.998 252.33 319.294 246.79C320.114 246.167 320.711 245.004 321.003 243.975C323.88 233.947 328.125 224.677 335.652 217.216C338.755 214.135 342.556 212.318 346.806 211.381C348.139 211.084 349.456 210.74 350.772 210.383C354.08 209.476 356.769 207.624 358.787 204.861C360.269 202.822 361.559 200.642 363.142 198.686C364.31 197.234 365.739 195.975 367.164 194.759C368.036 194.014 368.729 194.223 369.026 195.517C370.364 201.366 367.33 208.844 362.239 212.061C361.947 212.239 361.538 212.427 361.237 212.357C356.639 211.368 353.034 213.551 349.665 216.144C343.816 220.655 338.59 225.832 334.288 231.855C332.653 234.143 331.246 236.64 330.056 239.199C328.469 242.615 327.75 246.254 328.317 250.076C329.197 256.016 334.637 258.719 339.793 255.616C341.179 254.779 341.41 255.254 341.554 256.496C341.711 257.812 342.377 258.74 343.824 258.505C345.293 258.265 345.468 257.145 345.319 255.855C344.666 250.111 343.245 248.669 337.509 248.011C336.393 247.884 335.482 248.207 335.186 249.388C334.894 250.547 335.469 251.292 336.55 251.693C336.929 251.833 337.304 251.994 337.731 252.168C335.6 253.663 333.32 253.114 332.553 250.843C331.298 247.117 332.309 243.587 333.887 240.192C334.048 239.848 334.85 239.669 335.369 239.643C340.076 239.369 344.33 240.628 347.904 243.748C349.56 245.191 351.055 246.821 352.585 248.403C353.466 249.305 354.398 249.754 355.47 248.86C356.538 247.971 356.351 246.921 355.549 245.945C350.846 240.236 345.311 235.987 337.522 235.73C336.519 235.695 336.41 235.359 336.995 234.644C338.895 232.335 340.756 229.994 342.739 227.754C343.066 227.384 343.973 227.27 344.526 227.397C350.811 228.822 355.588 232.291 358.587 238.065C359.241 239.321 359.82 240.615 360.444 241.888C360.967 242.938 361.821 243.356 362.915 242.907C364 242.458 364.405 241.548 363.926 240.454C363.172 238.728 362.514 236.906 361.45 235.377C360.125 233.463 359.685 231.398 359.467 229.192C359.371 228.199 359.275 227.205 359.101 226.225C358.922 225.2 358.325 224.29 357.249 224.49C356.534 224.621 355.592 225.309 355.366 225.963C354.908 227.27 354.542 227.467 353.287 226.774C351.465 225.767 349.486 225.022 347.555 224.211C346.928 223.945 346.583 223.697 347.272 223.183C350.127 221.056 352.877 218.772 355.885 216.894C358.513 215.255 361.102 215.979 363.386 218.014C370.917 224.73 371.71 237.477 364.593 244.537L364.61 244.533Z" fill="black"/>
<path d="M106.214 204.408C105.795 203.571 105.486 202.992 105.203 202.399C99.336 190.201 93.4912 177.993 87.5897 165.808C84.1247 158.652 83.776 160.234 78.4019 160.034C63.2385 159.472 48.0751 158.848 32.9117 158.304C22.9437 157.946 12.9713 157.663 2.99898 157.406C1.64783 157.367 0.253092 157.515 -1.05447 157.833C-3.44732 158.413 -4.63284 159.995 -4.40184 162.448C-4.24493 164.095 -3.83523 165.765 -3.27297 167.325C5.59668 192.118 14.5143 216.894 23.4144 241.674C23.6629 242.354 23.9026 243.034 24.151 243.722C23.9636 243.779 23.8285 243.849 23.7893 243.818C19.6007 239.87 14.7932 236.78 9.92036 233.764C9.30145 233.381 8.69996 232.587 8.55613 231.89C6.97398 224.42 3.70942 217.609 0.401283 210.81C-0.147894 209.69 -0.823469 208.566 -1.66903 207.663C-3.45168 205.763 -4.4062 203.484 -5.21689 201.083C-8.56861 191.199 -11.9465 181.323 -15.3069 171.448C-16.1699 168.924 -16.1525 166.397 -15.3505 163.869C-14.5791 161.42 -13.8163 158.966 -12.9882 156.534C-11.9116 153.353 -9.58416 151.814 -6.29781 151.814C1.47349 151.814 9.24914 151.692 17.0074 151.98C35.6271 152.66 54.2468 153.54 72.8665 154.368C75.7955 154.499 78.7419 154.643 81.6447 155.048C85.1271 155.541 87.9558 157.384 89.9477 160.269C91.5255 162.548 93.003 164.924 94.2409 167.403C98.12 175.139 101.873 182.944 105.652 190.732C105.922 191.281 106.183 191.913 106.183 192.51C106.236 196.363 106.209 200.215 106.209 204.412L106.214 204.408Z" fill="black"/>
<path d="M51.432 313.312C49.6102 311.691 47.6968 310.162 46.0231 308.397C44.2709 306.553 42.7585 304.479 41.1546 302.496C40.6054 301.811 40.771 301.376 41.682 301.262C42.2529 301.193 42.8195 301.101 43.3862 300.979C46.581 300.295 46.5548 300.299 47.736 303.293C48.8518 306.109 50.0286 308.902 51.1444 311.717C51.3318 312.21 51.3449 312.776 51.4364 313.304L51.432 313.312Z" fill="black"/>
<path d="M140.542 339.034C129.001 340.594 117.459 342.167 105.922 343.762C97.2445 344.961 88.5841 346.308 79.8887 347.358C75.3776 347.898 70.8012 348.203 66.2639 348.125C62.5722 348.064 59.5518 346.155 57.5207 342.969C55.6291 340.001 53.8028 336.999 52.0027 333.979C51.8284 333.682 51.9112 332.863 52.1204 332.75C55.6639 330.828 56.5226 327.629 56.4833 323.959C56.4833 323.82 56.5444 323.68 56.649 323.266C57.3812 324.539 57.9522 325.633 58.6147 326.67C59.9963 328.836 61.3213 331.054 62.8686 333.094C65.3443 336.354 68.7832 337.5 72.7756 337.012C86.6271 335.295 100.47 333.547 114.321 331.808C120.981 330.971 127.645 330.104 134.314 329.333C134.868 329.272 135.726 329.686 136.053 330.152C137.796 332.645 139.392 335.247 141.096 337.761C141.671 338.616 141.554 338.89 140.547 339.03L140.542 339.034Z" fill="black"/>
<path d="M245.34 56.2456C245.026 53.6569 244.729 51.504 244.516 49.338C244.381 47.9783 245.043 46.9716 246.067 46.0782C249.027 43.4938 251.947 40.8572 254.846 38.2031C255.761 37.3663 256.654 36.8913 257.748 37.7934C258.672 38.5561 258.725 39.7764 257.644 40.8223C255.007 43.3718 252.331 45.8864 249.537 48.2572C248.504 49.1332 247.968 50.0179 248.417 51.212C249.127 53.1034 249.973 54.9469 250.875 56.7555C251.215 57.4397 251.86 57.9758 252.387 58.5598C253.111 59.3617 253.534 60.2376 252.906 61.2618C252.248 62.3339 251.272 62.4254 250.151 62.0593C245.588 60.5688 241.203 58.6905 237.276 55.9057C235.838 54.8859 234.413 54.4196 232.647 54.3673C226.689 54.1842 221.045 52.733 215.806 49.7956C201.07 41.5327 201.636 26.7674 207.346 17.3452C212.616 8.64646 220.722 3.7741 230.364 1.27256C236.457 -0.309434 242.598 -0.496832 248.726 1.20283C260.778 4.54113 267.459 15.249 265.101 27.5214C264.705 29.5741 264.129 31.6006 263.51 33.6009C263.066 35.0522 262.033 35.6231 260.913 35.1786C259.54 34.6338 259.527 33.5748 259.832 32.3066C260.459 29.7135 261.309 27.1204 261.492 24.4838C262.194 14.373 256.58 6.65045 246.621 4.76339C233.184 2.21826 221.66 6.21028 212.672 16.5738C208.174 21.76 206.605 27.9964 208.161 34.8256C209.133 39.0878 211.753 42.2343 215.2 44.749C219.864 48.1483 225.155 49.8392 230.852 50.3796C232.159 50.5016 233.493 50.4493 234.77 50.6934C235.912 50.9113 237.089 51.2687 238.096 51.8352C240.541 53.2124 242.899 54.7508 245.335 56.25L245.34 56.2456Z" fill="#FFCE1F"/>
<path d="M244.498 23.3986C244.324 27.0899 242.707 30.8815 240.423 34.3898C239.403 35.9543 238.209 37.4448 236.875 38.7479C235.624 39.9638 234.661 39.7851 233.475 38.5561C230.738 35.7277 227.992 32.9124 225.285 30.0578C223.106 27.7567 221.973 25.0896 222.792 21.8733C223.45 19.2977 225.604 18.012 228.079 18.9577C229.618 19.5417 231.065 20.4874 232.372 21.5072C233.427 22.3309 234.024 22.6403 234.617 21.1411C234.857 20.5267 235.349 19.9906 235.798 19.4851C237.577 17.4803 239.9 16.7395 241.839 17.5893C244.14 18.5917 244.528 20.6138 244.507 23.403L244.498 23.3986ZM240.689 22.5314C240.601 22.2917 240.427 21.8167 240.253 21.3416C239.756 21.5639 239.054 21.6467 238.801 22.0302C238.06 23.1546 237.367 24.3443 236.884 25.5995C235.859 28.2492 234.43 28.5891 232.324 26.6716C230.938 25.4034 229.43 24.2615 227.94 23.111C227.643 22.88 227.177 22.8713 226.789 22.758C226.68 23.1895 226.379 23.6906 226.501 24.0436C226.868 25.107 227.194 26.3011 227.909 27.103C230.106 29.5653 232.468 31.8839 234.809 34.2154C235.001 34.4072 235.746 34.429 235.859 34.2634C238.296 30.7987 240.279 27.1335 240.693 22.527L240.689 22.5314Z" fill="white"/>
<path d="M275.609 132.73C275.627 131.314 276.616 130.386 277.819 130.834C285.15 133.554 292.935 135.384 298.819 141.08C299.045 141.298 299.39 141.49 299.459 141.756C299.608 142.322 299.869 143.094 299.616 143.469C299.311 143.917 298.548 144.127 297.943 144.288C297.189 144.484 296.312 144.345 295.628 144.658C289.478 147.448 283.211 145.966 279.323 140.47C277.893 138.448 276.987 136.051 275.871 133.807C275.692 133.445 275.67 133 275.609 132.739V132.73ZM289.81 142.858C290.825 142.641 291.849 142.449 292.856 142.187C293.244 142.087 293.588 141.821 293.95 141.629C293.671 141.342 293.431 141.006 293.113 140.771C289.465 138.065 285.133 136.914 280.936 135.45C280.757 135.389 280.535 135.437 280.334 135.432C280.36 135.668 280.325 135.938 280.426 136.13C282.287 139.642 284.924 142.654 289.81 142.854V142.858Z" fill="black"/>
<path d="M243.361 110.208C246.155 110.081 248.086 111.484 249.385 113.781C250.099 115.045 250.622 116.44 251.076 117.83C251.533 119.229 250.832 120.031 249.511 120.619C248.696 120.985 247.894 121.696 247.436 122.463C246.874 123.395 246.329 124.049 245.226 123.67C244.071 123.273 243.91 122.201 244.363 121.329C244.974 120.161 245.797 119.059 246.735 118.131C247.271 117.599 247.497 117.307 247.192 116.588C246.159 114.121 244.86 113.276 242.345 113.581C241.221 113.716 240.11 113.716 239.887 112.326C239.648 110.831 240.807 110.504 241.949 110.308C242.411 110.229 242.89 110.242 243.361 110.212V110.208Z" fill="black"/>
<path d="M307.039 122.127C305.161 122.088 303.317 121.922 301.426 121.661C301.086 121.617 300.785 121.268 300.467 121.059C300.724 120.776 300.933 120.388 301.251 120.227C302.276 119.708 303.335 119.264 304.389 118.802C306.381 117.934 312.409 120.667 309.89 121.918C309.502 122.11 309.049 122.123 308.613 122.127C308.086 122.136 307.558 122.136 307.039 122.123V122.127Z" fill="black"/>
<path d="M274.703 107.148C277.492 107.222 279.855 107.545 281.027 110.19C281.21 110.609 281.376 111.097 281.341 111.532C281.297 112.055 281.167 112.718 280.814 113.01C280.591 113.193 279.802 112.936 279.432 112.661C277.584 111.301 275.775 109.885 273.984 108.443C273.661 108.181 273.496 107.723 273.256 107.353C273.683 107.283 274.11 107.205 274.537 107.144C274.69 107.122 274.851 107.144 274.703 107.144V107.148Z" fill="black"/>
</g>
<defs>
<clipPath id="clip0_1367_12036">
<rect width="440" height="439" fill="white" transform="translate(-25)"/>
</clipPath>
</defs>
</svg>
