<svg width="287" height="209" viewBox="0 0 287 209" fill="none" xmlns="http://www.w3.org/2000/svg">
<g clip-path="url(#clip0_1325_35203)">
<path d="M173.715 135.703C173.736 135.016 147.315 88.7911 147.315 88.7911C147.315 88.7911 124.912 82.0679 122.19 73.5649C119.468 65.0619 119.978 62.9129 125.984 62.4266C131.99 61.9404 139.055 65.0439 139.055 65.0439L107.588 12.4351L7.95312 51.0513C7.95312 51.0513 56.465 143.612 57.5995 142.781C58.7341 141.949 66.3637 131.465 68.5787 132.05C70.7938 132.633 74.6296 133.026 75.9082 138.948C77.1868 144.873 75.0858 149.564 74.6896 152.979C74.2904 156.395 68.3746 162.995 68.5787 162.794C68.7828 162.593 102.726 239.315 106.213 239.315C109.701 239.315 138.016 232.01 138.016 232.01L202.502 198.922C202.502 198.922 199.026 188.414 198.936 188.657C198.846 188.9 165.416 169.667 156.283 163.391C147.15 157.115 137.473 145.815 132.539 143.246C127.605 140.674 119.102 139.827 117.964 136.688C116.826 133.548 121.299 126.987 129.474 126.888C137.65 126.789 149.548 131.564 153.006 134.656C156.463 137.747 163.754 138.371 167.974 138.951C172.194 139.53 173.715 135.706 173.715 135.706V135.703Z" fill="#FFE380"/>
<path d="M213.975 33.2187C211.505 37.1566 207.36 39.4947 203.38 41.6377C199.289 43.8377 194.385 45.9687 189.793 43.9037C189.682 43.8557 189.586 43.7957 189.496 43.7327C188.607 43.8107 187.719 43.8917 186.863 44.0628C185.666 44.2999 184.486 45.5875 183.463 46.2899C181.035 47.9617 178.474 49.4324 175.815 50.699C174.657 51.2482 174.038 49.8616 174.669 49.0001C176.217 46.8872 176.986 44.5551 177.541 42.1059C168.204 39.3896 161.198 30.9376 161.754 20.8529C162.246 11.8936 168.864 3.93389 177.841 2.45119C183.058 1.58678 188.424 2.6853 193.493 3.90087C198.356 5.06842 203.158 6.74922 207.27 9.65459C214.593 14.829 219.174 24.9288 213.978 33.2157L213.975 33.2187Z" fill="#FFE380"/>
<path d="M198.401 14.4797C195.018 16.1185 192.32 19.399 189.589 21.9262C187.605 23.7601 185.678 25.66 183.757 27.5629C182.454 25.2548 180.729 23.1358 178.526 21.8452C176.178 20.4705 172.259 23.604 174.324 26.0441C176.491 28.6044 178.535 30.7984 179.699 34.0249C180.347 35.8228 182.749 36.4501 184.183 35.0574C187.143 32.179 190.15 29.3337 193.028 26.3713C195.748 23.574 199.208 20.7947 201.033 17.313C201.949 15.5632 200.235 13.5943 198.404 14.4827L198.401 14.4797Z" fill="white"/>
<path d="M90.9505 93.329C91.0015 93.7492 90.8905 94.1994 90.5543 94.5926C90.1972 95.4811 89.6839 96.3154 89.0356 97.0598C86.9736 99.4279 84.0533 100.538 81.1509 101.496C80.6317 101.667 80.1814 101.622 79.8273 101.442C74.1816 104.794 68.4069 107.919 62.4761 110.773C61.6237 111.184 61.0354 110.896 60.7623 110.356C58.6673 111.524 56.5663 112.682 54.4533 113.82C53.9251 114.105 53.2437 113.934 52.8956 113.46C51.749 111.908 50.6055 110.359 49.492 108.783C48.9037 107.952 49.66 106.925 50.5034 106.784C49.4079 98.3324 55.2697 90.2196 63.9678 89.1451C64.0788 89.1301 64.1749 89.1301 64.2739 89.1331C64.5351 89.013 64.7932 88.8929 65.0573 88.7759C66.9002 87.9505 68.8571 87.1191 70.3068 85.6634C71.6064 84.3608 72.3237 82.623 72.942 80.9242C74.2566 77.3345 75.2321 73.5587 78.3416 71.0465C78.9479 70.5573 80.0584 70.4643 80.5146 71.2296C82.3365 74.3001 84.1073 77.4035 85.8811 80.504C87.5019 83.3433 89.5639 86.2127 90.6924 89.2921C91.1816 90.6278 91.2386 92.0144 90.9475 93.335L90.9505 93.329Z" fill="white"/>
<path d="M27.5014 57.866C27.4234 57.707 27.3364 57.5509 27.2523 57.3918C27.0722 57.0587 26.8981 56.7165 26.7031 56.3923C26.1178 55.4199 24.473 56.5694 24.9112 57.5029C25.0883 57.878 25.2804 58.2442 25.4725 58.6104C25.6886 59.0216 25.8356 59.3878 26.3009 59.5678C26.8471 59.7809 27.5284 59.2977 27.6095 58.7394C27.6575 58.4063 27.6515 58.1752 27.5014 57.869V57.866Z" fill="white"/>
<path d="M29.6669 55.9938C29.4568 55.6366 29.2587 55.3304 28.9495 55.0453C28.6884 54.8052 28.2442 54.9012 27.9951 55.0993C27.6949 55.3365 27.5779 55.7086 27.6529 56.0778C27.74 56.492 27.935 56.8372 28.1301 57.2093C28.2082 57.3564 28.2802 57.5125 28.3642 57.6565C28.5413 57.9567 28.7514 58.0587 29.0846 58.1128C29.5648 58.1878 29.952 57.7196 30.0691 57.3174C30.2191 56.8071 29.913 56.411 29.6669 55.9938Z" fill="white"/>
<path d="M33.0595 55.4471C32.5433 54.8318 32.0631 54.1655 31.4328 53.6673C31.4208 53.6553 31.4058 53.6463 31.3907 53.6343C31.3787 53.6253 31.3667 53.6133 31.3547 53.6043C31.1386 53.4512 30.8175 53.4302 30.5774 53.5412C30.2232 53.7063 29.854 54.2406 30.0401 54.6518C30.2262 55.0569 30.4183 55.4081 30.6884 55.7623C30.9345 56.0864 31.1837 56.4106 31.4298 56.7377C31.7569 57.1669 32.3392 57.1729 32.7504 56.8488C33.1136 56.5637 33.4107 55.8643 33.0625 55.4501L33.0595 55.4471Z" fill="white"/>
<path d="M56.5999 75.9819C56.5398 78.4311 55.0271 81.0933 52.9081 82.8042C52.2598 83.3864 51.5215 83.8396 50.8672 84.0768C50.7891 84.1038 50.7141 84.1248 50.636 84.1518C49.6876 84.524 48.6881 84.698 47.6887 84.59C44.5882 84.2628 42.6733 81.9668 42.4392 79.3645C41.4757 75.9429 42.8834 71.924 46.5391 70.6814C50.57 69.3128 56.7349 70.8495 56.5999 75.9819Z" fill="#FFCE1F"/>
<path d="M116.734 206.709C116.265 208.288 114.483 209.125 113.225 209.987C112.045 210.791 110.788 211.755 109.266 211.53C107.798 211.313 106.862 210.095 106.154 208.9C105.244 207.37 103.945 205.62 103.609 203.858C103.521 203.396 103.705 202.861 104.032 202.486C104.227 202.039 104.605 201.661 105.031 201.406C106.715 200.397 108.384 199.344 110.089 198.371C111.298 197.684 112.721 197.411 113.888 198.356C115.029 199.284 115.404 200.902 115.851 202.225C116.319 203.612 117.172 205.224 116.734 206.709Z" fill="#FFCE1F"/>
<path d="M102.64 191.776C101.314 192.728 99.1228 193.838 97.448 193.535C95.6412 193.205 94.7648 191.113 93.8944 189.723C92.7298 187.863 91.0941 185.888 90.5118 183.748C90.4007 183.348 90.5628 182.886 90.8509 182.562C90.932 182.247 91.1181 181.932 91.4332 181.659C93.006 180.278 94.8848 179.173 96.6887 178.129C98.1414 177.289 100.185 175.734 101.773 177.117C103.079 178.252 104.012 180.416 104.672 181.98C105.387 183.673 105.69 185.527 105.375 187.352C105.072 189.117 104.099 190.729 102.64 191.773V191.776Z" fill="#FFCE1F"/>
<path d="M90.4329 176.536C88.8782 176.35 87.5245 175.113 86.8072 173.781C86.0508 172.379 85.3755 170.599 84.9523 169.069C84.8473 168.684 84.9223 168.3 85.1024 167.982C84.8202 167.352 84.9013 166.493 85.6096 165.89C87.0233 164.687 88.551 163.636 90.1778 162.745C91.5884 161.973 93.4973 160.86 94.935 162.162C96.1836 163.297 96.6368 165.587 97.2401 167.106C97.8914 168.747 98.6088 170.446 97.069 171.839C96.5438 172.313 95.8895 172.556 95.4152 173.094C94.953 173.616 94.6499 174.273 94.2027 174.813C93.2602 175.948 91.9516 176.713 90.4329 176.53V176.536Z" fill="#FFCE1F"/>
<path d="M87.9477 147.861C85.1624 142.881 82.302 137.944 79.3366 133.073C78.9884 132.505 78.2561 132.475 77.7068 132.697C76.8004 133.067 76.0651 133.646 75.5008 134.39C74.8315 134.153 74.0721 134.951 74.0811 135.615C74.0991 136.902 74.6964 138.124 75.1376 139.319C75.6059 140.591 76.023 141.885 76.3442 143.202C76.6714 144.544 76.8965 145.895 76.9085 147.278C76.9205 148.626 76.6263 149.974 76.7374 151.324C76.8725 152.972 77.5298 154.944 78.4632 156.526C78.5202 157.012 78.5893 157.501 78.6883 157.99C78.8594 158.846 78.9344 159.959 79.4837 160.677C80.7353 162.312 82.6292 160.677 83.6827 159.743C83.9018 159.548 84.0488 159.29 84.1209 159.026C84.5201 158.924 84.9132 158.789 85.2974 158.63C87.1793 157.858 89.3343 156.631 90.1027 154.638C91.0271 152.255 89.0552 149.839 87.9477 147.858V147.861Z" fill="#FFCE1F"/>
<path d="M118.662 139.141C115.781 133.994 112.891 128.849 110.018 123.699C109.706 123.14 108.929 123.101 108.413 123.329C106.798 124.038 105.222 124.824 103.7 125.71C102.299 126.523 100.759 127.339 99.6455 128.54C99.1202 128.615 98.724 129.239 98.8201 129.81C99.0422 131.124 99.9516 132.352 100.585 133.516C101.2 134.636 101.864 135.725 102.527 136.818C103.631 138.646 104.736 140.474 105.867 142.283C105.762 143.904 106.555 145.54 108.046 146.338C108.962 146.828 109.859 146.834 110.784 146.323C111.3 146.038 111.774 145.6 112.059 145.081C114.139 143.853 116.153 142.509 118.2 141.227C118.879 140.801 119.029 139.795 118.662 139.141Z" fill="#FFCE1F"/>
<path d="M140.784 128.61C138.947 127.061 136.789 125.978 134.427 125.509C133.214 125.269 131.939 125.176 130.705 125.263C129.775 125.332 128.781 125.71 127.842 125.671C127.469 125.99 126.881 126.074 126.521 125.653C124.993 123.883 124.057 121.89 123.264 119.702C122.991 118.96 123.541 118.237 124.141 117.886C127.016 116.19 129.946 114.584 132.851 112.945C133.349 112.666 134.094 112.822 134.403 113.306C137.233 117.706 140.063 122.106 142.894 126.509C143.662 127.7 141.975 129.618 140.784 128.616V128.61Z" fill="#FFCE1F"/>
<path d="M151.956 123.652C149.6 124.667 147.553 126.026 145.689 127.788C145.194 128.256 144.024 128.325 143.67 127.617C141.632 123.511 139.363 119.552 137.015 115.614C135.884 113.717 134.716 111.848 133.504 110.002C132.735 108.834 131.46 107.496 130.938 106.067C130.04 105.803 129.341 105.352 128.656 104.605C128.026 103.912 128.746 102.669 129.434 102.372C132.081 101.241 134.476 99.7518 136.661 97.879C137.165 97.4498 138.219 97.3597 138.585 98.044C142.85 106.067 147.49 113.955 152.749 121.368C153.295 122.139 152.749 123.31 151.95 123.652H151.956Z" fill="white"/>
<path d="M106.926 145.17C107.241 145.96 106.613 146.782 105.971 147.145C103.51 148.544 101.052 149.952 98.5906 151.347C96.8648 152.329 94.1575 154.64 92.0775 153.484C91.0571 152.917 90.5828 151.68 90.0426 150.705C89.3583 149.471 88.6739 148.241 88.0016 147.001C86.729 144.645 85.0752 142.211 84.2859 139.645C84.0097 138.738 84.9432 137.943 85.7175 138.195C85.7416 138.177 85.7656 138.156 85.7956 138.141C88.3288 136.511 90.862 134.884 93.3952 133.255C95.172 132.114 97.378 130.247 99.485 131.778C100.445 132.477 101.052 133.621 101.664 134.611C102.36 135.74 103.024 136.895 103.648 138.066C104.876 140.368 105.962 142.742 106.923 145.167L106.926 145.17Z" fill="white"/>
<path d="M125.302 124.899C125.773 125.719 125.248 127.111 124.203 127.18C122.745 127.282 121.382 127.676 120.152 128.483C118.987 129.245 118.381 130.29 117.525 131.28C117.576 131.499 117.621 131.722 117.648 131.947C117.735 132.622 116.877 133.126 116.337 132.769C115.181 132.01 114.545 130.848 113.828 129.702C113.155 128.63 112.48 127.565 111.823 126.484C110.409 124.17 109.022 121.841 107.621 119.515C107.149 118.737 107.591 117.744 108.368 117.369C110.415 116.375 112.459 115.388 114.506 114.394C115.968 113.686 117.543 112.963 118.948 114.19C120.344 115.415 121.157 117.642 122.063 119.233C123.144 121.121 124.218 123.011 125.302 124.896V124.899Z" fill="white"/>
<path d="M58.8643 123.478C59.2664 123.091 59.6146 122.566 60.1038 122.311C62.7391 120.927 65.4103 119.607 68.0696 118.268C89.1726 107.661 110.522 97.5791 132.147 88.0886C133.972 87.2873 134.245 87.3743 135.28 89.0821C141.814 99.8542 148.345 110.626 154.877 121.395C155.93 123.13 155.807 123.559 153.997 124.49C150.374 126.354 146.752 128.215 143.129 130.075C142.856 130.217 142.568 130.478 142.304 130.457C141.82 130.418 141.178 130.355 140.914 130.039C140.464 129.505 140.761 128.851 141.382 128.623C142.553 128.194 142.28 127.632 141.787 126.813C139.248 122.587 136.742 118.343 134.269 114.078C133.849 113.352 133.536 113.229 132.786 113.682C130.004 115.363 127.182 116.986 124.355 118.589C123.806 118.901 123.719 119.141 124.04 119.691C125.166 121.611 126.237 123.559 127.336 125.495C127.702 126.141 127.948 126.819 127.17 127.29C126.318 127.806 125.856 127.191 125.478 126.519C123.116 122.35 120.735 118.19 118.403 114.003C118.016 113.307 117.68 113.217 116.978 113.559C114.303 114.864 111.608 116.131 108.895 117.355C108.117 117.707 108.093 118.022 108.496 118.718C111.545 123.992 114.556 129.289 117.581 134.581C117.632 134.671 117.683 134.758 117.734 134.848C118.34 135.925 118.334 136.589 117.65 136.892C116.69 137.318 116.302 136.616 115.912 135.937C113.808 132.251 111.68 128.578 109.609 124.874C109.204 124.148 108.889 124.01 108.126 124.421C105.479 125.855 102.796 127.23 100.11 128.587C99.4764 128.905 99.3744 129.187 99.7225 129.829C102.433 134.824 105.119 139.83 107.775 144.851C108.105 145.473 108.385 145.5 108.958 145.203C112.758 143.237 116.569 141.298 120.381 139.353C120.714 139.182 121.069 138.906 121.405 138.918C121.822 138.933 122.473 139.101 122.581 139.377C122.722 139.734 122.497 140.298 122.293 140.703C122.176 140.932 121.789 141.025 121.513 141.166C108.099 148.012 94.6892 154.861 81.2758 161.704C79.6431 162.539 79.2289 162.404 78.3675 160.771C77.2179 158.592 76.0624 156.413 74.9458 154.219C74.7568 153.847 74.5917 153.348 74.6877 152.976C74.7658 152.679 75.273 152.271 75.5521 152.298C75.9483 152.34 76.4676 152.646 76.6596 152.994C77.7462 154.933 78.7907 156.902 79.7661 158.898C80.1473 159.675 80.4835 159.756 81.2338 159.357C83.8931 157.944 86.5853 156.59 89.2776 155.242C89.8419 154.96 90.115 154.78 89.7278 154.057C86.2102 147.481 82.7345 140.881 79.2679 134.274C78.9557 133.683 78.6766 133.668 78.1664 134.004C77.2509 134.608 76.3055 135.16 75.366 135.724C74.7357 136.105 74.0964 136.186 73.6762 135.463C73.2831 134.785 73.6612 134.292 74.2465 133.929C75.6422 133.059 77.0288 132.182 78.4365 131.333C79.2829 130.823 79.8982 130.997 80.3904 131.891C81.2788 133.512 82.1703 135.133 82.9986 136.784C83.3288 137.438 83.5929 137.624 84.3043 137.225C88.3952 134.932 92.5131 132.687 96.6191 130.424C97.0002 130.214 97.3994 130.093 97.1323 129.439C96.6761 128.335 96.8982 127.863 97.9907 127.29C100.992 125.717 103.991 124.139 107.022 122.626C107.847 122.215 107.973 121.864 107.454 121.101C106.86 120.228 106.371 119.276 105.869 118.343C105.317 117.319 105.497 116.641 106.527 116.149C110.137 114.42 113.76 112.712 117.389 111.022C118.388 110.557 118.974 110.752 119.541 111.719C120.441 113.253 121.321 114.804 122.164 116.368C122.479 116.953 122.716 117.145 123.389 116.737C126.168 115.05 128.98 113.415 131.808 111.809C132.489 111.422 132.54 111.125 132.138 110.473C130.775 108.258 129.47 106.007 128.158 103.759C127.453 102.549 127.63 101.931 128.875 101.271C131.444 99.9082 134.011 98.5336 136.607 97.225C137.315 96.8678 137.384 96.5827 136.964 95.9283C135.89 94.2596 134.851 92.5638 133.876 90.8349C133.455 90.0906 133.104 89.9405 132.285 90.3187C119.826 96.0694 107.295 101.667 94.8963 107.538C84.0071 112.691 73.265 118.148 62.4419 123.439C61.5865 123.857 61.3794 124.199 61.8357 125.111C63.3664 128.17 64.8011 131.279 66.2657 134.373C66.4248 134.71 66.6709 135.091 66.6289 135.418C66.5809 135.796 66.3348 136.324 66.0316 136.45C65.7285 136.58 65.2093 136.366 64.8671 136.165C64.639 136.03 64.5399 135.661 64.4079 135.385C62.7421 131.894 61.0763 128.404 59.4225 124.91C59.2334 124.514 59.1014 124.091 58.8643 123.469V123.478ZM153.007 122.473C152.872 122.227 152.779 122.047 152.674 121.873C148.099 114.327 143.522 106.787 138.957 99.2359C138.666 98.7557 138.408 98.6626 137.895 98.9388C135.544 100.202 133.185 101.439 130.808 102.652C130.244 102.94 130.277 103.21 130.556 103.684C135.052 111.275 139.542 118.868 144.011 126.474C144.291 126.951 144.534 126.978 144.984 126.744C147.469 125.447 149.966 124.172 152.454 122.881C152.649 122.779 152.812 122.617 153.004 122.473H153.007ZM106.212 146.421C106.113 146.223 106.053 146.1 105.989 145.983C103.561 141.466 101.127 136.952 98.7111 132.429C98.4289 131.897 98.1318 132.011 97.7236 132.239C93.5336 134.554 89.3406 136.865 85.1387 139.158C84.6404 139.428 84.5414 139.671 84.8235 140.19C87.1616 144.521 89.4697 148.873 91.8198 153.198C91.9248 153.393 92.4471 153.58 92.6332 153.487C97.0033 151.298 101.358 149.071 105.707 146.841C105.899 146.742 106.047 146.562 106.212 146.421Z" fill="white"/>
<path d="M53.5648 115.558C52.2712 115.494 51.2357 114.966 50.5123 113.988C49.807 113.03 49.1827 111.995 48.6395 110.935C44.0203 101.961 39.4341 92.9689 34.8179 83.9916C33.7404 81.8936 32.5939 79.8287 31.4864 77.7427C31.2793 77.3495 31.0932 76.9443 30.9131 76.5391C29.5084 73.3726 30.0817 71.6858 33.2482 70.2842C40.4426 67.0997 47.682 64.0112 54.8794 60.8357C59.5436 58.7767 64.1718 56.6427 68.809 54.5237C71.6003 53.2451 73.116 53.6683 74.5597 56.3936C76.3545 59.7792 78.0623 63.2128 79.7581 66.6465C80.1543 67.4508 80.3974 67.5709 81.0637 66.8716C85.5689 62.1233 90.8634 58.6777 97.3344 57.234C97.7006 57.153 98.0998 56.9249 98.4239 57.0059C98.8591 57.114 99.4114 57.3601 99.6035 57.7142C99.9036 58.2725 99.5525 58.7827 98.9462 58.9898C98.3669 59.1879 97.7666 59.338 97.1693 59.4791C90.9234 60.9558 86.0701 64.6355 81.7511 69.1766C81.2408 69.7139 81.553 70.0921 81.7811 70.5393C84.9266 76.7342 88.0841 82.9201 91.2025 89.1271C91.7998 90.3156 92.3191 91.5522 92.7393 92.8128C93.3335 94.5986 92.8023 96.1234 91.3376 97.2909C90.7793 97.7351 90.1821 98.1553 89.5457 98.4825C80.7516 103.006 71.9695 107.547 63.1363 111.998C60.8822 113.132 58.4871 113.997 56.131 114.918C55.3146 115.236 54.4202 115.353 53.5618 115.564L53.5648 115.558ZM48.9306 106.514C49.1227 105.938 49.2367 105.548 49.3778 105.167C50.6324 101.769 51.7849 98.3294 53.1836 94.9888C54.5432 91.7383 57.0314 89.5443 60.354 88.3377C61.9627 87.7554 63.5625 87.1491 65.1893 86.6239C68.3558 85.6004 70.5738 83.6045 71.7834 80.486C73.3231 76.5271 75.3791 72.8804 78.2694 69.7289C78.4675 69.5128 78.5155 68.9455 78.3805 68.6694C76.5286 64.9266 74.6557 61.1959 72.7318 57.4891C71.8464 55.7813 71.4292 55.7063 69.7244 56.4657C59.5676 60.9948 49.4078 65.5149 39.248 70.0321C37.4052 70.8514 35.5263 71.5988 33.7044 72.4632C32.2307 73.1655 32.0476 73.6758 32.6779 75.1555C33.2272 76.4431 33.8605 77.7007 34.5088 78.9432C39.182 87.9295 43.8672 96.9097 48.5494 105.893C48.6245 106.04 48.7235 106.175 48.9306 106.514ZM53.3937 113.424C54.2491 113.198 54.9064 113.108 55.4947 112.859C58.6402 111.527 61.8397 110.293 64.8921 108.765C71.9875 105.215 79.0108 101.517 86.0611 97.8762C87.0936 97.3419 88.1501 96.8467 89.1436 96.2494C90.9594 95.1539 91.2956 94.3405 90.3531 92.4256C86.9855 85.5824 83.5279 78.7872 80.1183 71.965C79.8302 71.3887 79.569 71.4427 79.2659 71.8989C77.9213 73.9129 76.5076 75.8878 75.277 77.9708C74.4636 79.3454 73.9294 80.8852 73.2631 82.3469C72.0085 85.0931 69.9795 87.0351 67.1642 88.1186C65.5074 88.7579 63.8446 89.4002 62.1488 89.9284C58.4601 91.072 55.9149 93.4281 54.5733 97.0208C53.3547 100.283 52.2532 103.594 51.0706 106.871C50.8695 107.427 50.4973 107.919 50.2512 108.462C50.1552 108.672 50.0861 108.993 50.1792 109.174C50.7465 110.263 51.2987 111.374 51.995 112.379C52.3252 112.856 52.9705 113.117 53.3937 113.421V113.424Z" fill="white"/>
<path d="M23.0193 69.5215C22.7491 69.2994 22.2869 69.1013 22.2059 68.8042C22.1098 68.45 22.2389 67.9278 22.47 67.6276C22.6951 67.3335 23.1543 67.2044 23.5295 67.0393C53.3126 53.7911 83.0986 40.5458 112.885 27.3006C113.134 27.1895 113.419 26.9584 113.635 27.0094C114.109 27.1175 114.725 27.2616 114.947 27.6067C115.097 27.8408 114.734 28.4831 114.478 28.8613C114.331 29.0804 113.95 29.1495 113.668 29.2755C83.948 42.4968 54.225 55.718 24.502 68.9332C24.0668 69.1253 23.6195 69.2874 23.0223 69.5245L23.0193 69.5215Z" fill="white"/>
<path d="M123.747 198.921C123.47 198.693 123.011 198.492 122.927 198.189C122.828 197.835 122.966 197.328 123.179 197.006C123.365 196.727 123.795 196.601 124.131 196.433C139.222 188.978 154.313 181.528 169.404 174.076C170.677 173.448 171.343 173.469 171.622 174.217C172.048 175.351 171.103 175.621 170.389 175.976C155.297 183.428 140.2 190.872 125.103 198.315C124.707 198.51 124.296 198.675 123.744 198.921H123.747Z" fill="white"/>
<path d="M24.9757 63.2973C24.6605 63.0392 24.1623 62.8051 23.9282 62.4119C22.7606 60.443 21.6591 58.432 20.5426 56.4331C20.1014 55.6377 20.3565 55.0434 21.1369 54.6622C25.2608 52.6573 29.3878 50.6554 33.5147 48.6624C34.4242 48.2242 35.1385 48.4043 35.7088 49.2987C35.8768 49.5658 36.321 49.6589 36.6452 49.821C36.6992 49.848 36.7833 49.797 36.8463 49.815C38.377 50.2141 38.395 51.7719 39.0523 52.8164C39.2804 53.1795 39.0313 53.8579 38.9713 54.3891C38.9353 54.7253 38.7342 55.0764 38.8002 55.3796C38.9773 56.187 38.6892 56.7392 38.0018 57.0784C33.9529 59.0833 29.898 61.0703 25.8401 63.0572C25.63 63.1593 25.3869 63.1863 24.9727 63.2973H24.9757ZM36.3421 55.3466C36.285 55.1785 36.273 55.1095 36.243 55.0494C35.5827 53.7738 34.9434 52.4862 34.2351 51.2376C34.145 51.0786 33.6318 50.9915 33.4187 51.0936C30.0541 52.6903 26.7075 54.3321 23.3489 55.9438C22.8417 56.187 22.8147 56.4421 23.0938 56.8893C23.7991 58.0208 24.4414 59.1914 25.1768 60.3049C25.3088 60.503 25.8311 60.6621 26.0382 60.563C29.3368 58.9843 32.6143 57.3605 35.8918 55.7368C36.0779 55.6467 36.213 55.4606 36.3421 55.3466Z" fill="white"/>
<path d="M111.907 181.688C111.619 181.423 111.175 181.195 111.058 180.856C110.956 180.556 111.127 180.061 111.343 179.779C111.553 179.506 111.961 179.371 112.297 179.208C124.528 173.239 136.762 167.272 148.996 161.311C149.722 160.957 150.511 160.408 151.148 161.419C151.574 162.1 151.202 162.611 149.893 163.247C137.689 169.193 125.485 175.142 113.279 181.084C112.883 181.276 112.471 181.438 111.904 181.688H111.907Z" fill="white"/>
<path d="M136.15 147.231C136.436 147.457 136.907 147.643 136.997 147.94C137.102 148.291 136.976 148.804 136.769 149.131C136.589 149.41 136.159 149.546 135.823 149.711C125.069 154.966 114.312 160.219 103.555 165.471C103.279 165.606 102.976 165.858 102.718 165.819C102.27 165.753 101.625 165.612 101.475 165.303C101.325 164.994 101.613 164.403 101.838 164.009C101.967 163.784 102.355 163.7 102.631 163.565C113.352 158.322 124.076 153.078 134.8 147.835C135.196 147.643 135.604 147.475 136.15 147.231Z" fill="white"/>
<path d="M103.222 75.4709C102.619 75.3629 101.946 75.3929 101.433 75.1198C100.545 74.6486 99.8783 74.8677 99.083 75.3269C97.7533 76.0922 96.3517 76.7315 94.968 77.4069C94.3137 77.725 93.6534 77.755 93.3112 76.9897C92.9661 76.2213 93.4553 75.7951 94.1036 75.4709C95.4813 74.7866 96.8409 74.0663 98.2186 73.385C98.7798 73.1088 98.9899 72.8057 98.8398 72.1094C98.5157 70.6057 98.8759 69.228 100.148 68.2555C101.502 67.2231 103.045 66.8509 104.693 67.3851C105.929 67.7873 106.37 69.0149 105.608 70.1224C104.996 71.0078 104.131 71.7162 103.39 72.5116C103.198 72.7157 103.042 72.9528 102.868 73.1779C103.162 73.2019 103.462 73.2709 103.753 73.2409C105.473 73.0578 107.016 72.3735 108.279 71.239C109.573 70.0834 110.683 68.7268 111.938 67.5262C112.277 67.2021 112.889 66.8989 113.304 66.9739C113.973 67.1 114.117 67.7333 113.859 68.3726C112.55 71.6081 106.839 75.3839 103.228 75.474L103.222 75.4709ZM103.444 69.5942C101.961 69.4021 101.034 69.9784 100.938 70.8788C100.92 71.0379 100.974 71.2089 100.995 71.371C101.145 71.341 101.337 71.362 101.442 71.278C102.12 70.7287 102.781 70.1554 103.447 69.5912L103.444 69.5942Z" fill="white"/>
<path d="M91.1404 69.5207C90.8553 69.2686 90.4051 69.0465 90.288 68.7103C90.183 68.4102 90.3601 67.9239 90.5672 67.6268C90.7413 67.3747 91.1284 67.2606 91.4376 67.1166C99.5144 63.3228 107.594 59.532 115.674 55.7412C116.959 55.1379 117.631 55.1799 117.877 55.9333C118.252 57.0768 117.304 57.3199 116.58 57.6591C108.534 61.4409 100.484 65.2137 92.4341 68.9834C92.0649 69.1545 91.6837 69.2956 91.1404 69.5177V69.5207Z" fill="white"/>
<path d="M157.354 166.874C157.093 167.084 156.712 167.507 156.24 167.753C151.291 170.323 146.327 172.862 141.365 175.41C138.505 176.878 135.642 178.345 132.781 179.813C132.508 179.954 132.232 180.095 131.947 180.209C131.332 180.461 130.758 180.266 130.617 179.675C130.524 179.291 130.839 178.787 131.038 178.366C131.11 178.216 131.377 178.153 131.557 178.057C139.466 173.987 147.377 169.92 155.289 165.856C155.562 165.715 155.844 165.568 156.138 165.505C156.784 165.37 157.378 165.898 157.351 166.871L157.354 166.874Z" fill="white"/>
<path d="M96.9839 86.9575C96.7077 86.7353 96.2905 86.5613 96.1975 86.2791C96.0894 85.949 96.1735 85.4718 96.3506 85.1596C96.4976 84.9015 96.8848 84.7574 97.1879 84.6103C104.881 80.8676 112.573 77.1278 120.269 73.3941C120.515 73.274 120.791 73.0609 121.019 73.0999C121.442 73.169 122.085 73.295 122.19 73.5711C122.331 73.9343 122.106 74.4896 121.917 74.9098C121.827 75.1079 121.469 75.1979 121.223 75.315C113.525 79.0457 105.826 82.7735 98.1244 86.4982C97.7912 86.6603 97.4371 86.7774 96.9808 86.9605L96.9839 86.9575Z" fill="white"/>
<path d="M153.411 188.655C153.696 188.898 154.107 189.084 154.197 189.369C154.299 189.699 154.197 190.158 154.029 190.485C153.909 190.72 153.552 190.855 153.279 190.99C146 194.627 138.722 198.262 131.44 201.894C131.197 202.014 130.909 202.23 130.69 202.182C130.273 202.092 129.727 201.942 129.537 201.633C129.378 201.375 129.564 200.798 129.763 200.462C129.913 200.207 130.315 200.087 130.621 199.934C137.779 196.359 144.935 192.785 152.096 189.216C152.489 189.021 152.904 188.868 153.411 188.652V188.655Z" fill="white"/>
<path d="M141.328 152.341C141.602 152.56 142.067 152.752 142.151 153.049C142.25 153.4 142.112 153.898 141.911 154.234C141.758 154.487 141.352 154.601 141.046 154.748C135.686 157.314 130.325 159.877 124.965 162.437C124.659 162.584 124.313 162.831 124.022 162.789C123.635 162.731 123.146 162.515 122.963 162.209C122.81 161.954 122.936 161.408 123.128 161.114C123.311 160.832 123.725 160.679 124.058 160.519C129.419 157.956 134.782 155.396 140.146 152.842C140.482 152.683 140.83 152.551 141.328 152.344V152.341Z" fill="white"/>
<path d="M102.351 178.375C102.018 180.068 101.7 181.71 101.376 183.348C101.106 184.72 100.844 186.095 100.559 187.466C100.268 188.871 99.4518 189.24 98.2783 188.478C97.0177 187.661 95.7871 186.797 94.5385 185.96C93.9352 185.554 93.542 185.038 94.0072 184.339C94.4695 183.643 95.1028 183.79 95.7091 184.192C96.4474 184.684 97.2038 185.155 97.9211 185.678C98.4704 186.077 98.6895 186.035 98.8215 185.311C99.2477 182.997 99.7039 180.686 100.226 178.39C100.313 178.009 100.733 177.601 101.106 177.421C101.328 177.316 101.784 177.583 102.072 177.778C102.234 177.889 102.27 178.189 102.351 178.375Z" fill="white"/>
<path d="M107.318 171.194C107.045 170.978 106.603 170.795 106.483 170.489C106.363 170.177 106.471 169.687 106.651 169.375C106.801 169.114 107.186 168.973 107.489 168.823C110.919 167.115 114.35 165.416 117.784 163.721C118.057 163.586 118.369 163.357 118.627 163.397C119.02 163.454 119.597 163.622 119.708 163.898C119.846 164.237 119.633 164.759 119.473 165.161C119.404 165.338 119.092 165.431 118.879 165.537C115.356 167.286 111.832 169.03 108.305 170.774C108.032 170.909 107.744 171.014 107.315 171.197L107.318 171.194Z" fill="white"/>
<path d="M95.7601 164.269C95.1748 167.289 94.6796 170.011 94.1003 172.715C93.9232 173.547 93.0769 173.877 92.2995 173.441C90.9879 172.709 89.6913 171.935 88.4847 171.049C88.1905 170.833 88.0675 170.047 88.2146 169.654C88.4367 169.065 89.07 169.044 89.6162 169.354C90.2405 169.708 90.8678 170.062 91.4531 170.473C92.0684 170.905 92.3505 170.857 92.4886 170.05C92.8187 168.132 93.2209 166.229 93.5961 164.32C93.7282 163.657 94.1454 163.195 94.8057 163.402C95.2169 163.528 95.508 164.032 95.7571 164.275L95.7601 164.269Z" fill="white"/>
<path d="M160.017 187.666C159.78 187.471 159.32 187.272 159.239 186.972C159.143 186.618 159.338 186.162 159.486 185.784C159.543 185.634 159.81 185.553 159.996 185.469C162.979 184.112 165.966 182.761 168.952 181.408C169.612 181.111 170.261 181.057 170.612 181.819C170.969 182.593 170.483 183.031 169.825 183.329C166.839 184.682 163.853 186.033 160.866 187.381C160.65 187.477 160.416 187.531 160.017 187.666Z" fill="white"/>
<path d="M107.004 26.2521C106.797 26.4622 106.539 26.9485 106.218 26.9935C105.837 27.0445 105.225 26.8344 105.023 26.5313C104.384 25.5678 103.886 24.5113 103.343 23.4848C102.88 22.6084 102.346 21.756 102.022 20.8316C101.902 20.4864 102.163 19.7511 102.463 19.589C102.766 19.4239 103.583 19.604 103.748 19.8831C104.855 21.765 105.852 23.7129 106.875 25.6398C106.935 25.7539 106.935 25.904 107.004 26.2521Z" fill="white"/>
<path d="M118.534 185.501C118.36 185.36 117.922 185.174 117.808 184.868C117.691 184.556 117.763 183.899 117.97 183.779C119.804 182.734 121.674 181.744 123.574 180.831C123.811 180.717 124.516 181.053 124.624 181.332C124.759 181.675 124.639 182.416 124.384 182.563C122.613 183.586 120.779 184.499 118.961 185.444C118.904 185.474 118.826 185.465 118.528 185.507L118.534 185.501Z" fill="white"/>
<path d="M104.234 27.4489C103.91 27.8481 103.721 28.3103 103.42 28.3973C103.069 28.4964 102.412 28.4063 102.253 28.1632C101.349 26.7676 100.518 25.3209 99.7527 23.8442C99.6266 23.6011 99.8277 22.9648 100.068 22.8057C100.368 22.6106 101.121 22.5476 101.244 22.7277C102.277 24.2314 103.21 25.8011 104.231 27.4489H104.234Z" fill="white"/>
<path d="M101.615 28.6741C101.249 29.0853 101.035 29.5355 100.732 29.6075C100.378 29.6916 99.7628 29.5745 99.5797 29.3194C98.9374 28.41 98.3732 27.4285 97.9079 26.417C97.7789 26.1379 97.992 25.5286 98.2501 25.2975C98.4722 25.0964 99.2046 25.0544 99.3336 25.2255C100.132 26.3 100.825 27.4525 101.612 28.6741H101.615Z" fill="white"/>
<path d="M286.875 162.713C286.719 162.302 286.458 161.929 286.233 161.545C278.996 149.287 270.914 137.615 262.044 126.492C251.96 113.847 242.274 100.929 234.017 86.9811C232.024 83.6165 229.548 80.495 227.012 77.4996C222.057 71.6468 215.643 70.3082 208.403 72.094C207.848 72.2321 207.566 72.082 207.17 71.7309C205.768 70.4883 204.42 69.1226 202.845 68.1292C197.607 64.8366 192.415 65.1848 187.645 69.1106C186.229 70.2752 185.07 71.7489 183.759 73.0455C183.476 73.3246 183.029 73.6488 182.69 73.6188C179.025 73.2766 175.457 73.7898 171.912 74.6813C171.513 74.7833 170.918 74.7173 170.609 74.4772C167.119 71.7729 163.196 69.927 158.976 68.7625C154.033 67.3998 149.047 66.1933 144.065 64.9687C143.179 64.7496 142.684 64.3084 142.276 63.507C134.859 48.9651 127.434 34.4293 119.96 19.9174C118.19 16.4808 116.383 13.0502 114.342 9.76965C111.977 5.95785 109.281 4.84732 104.965 6.10192C98.0411 8.11286 91.1199 10.1928 84.3367 12.639C68.9904 18.1796 53.7432 23.9994 38.43 29.627C29.0176 33.0876 19.5691 36.4582 10.6519 41.0894C8.41585 42.248 6.31485 43.6946 4.26189 45.1623C2.79419 46.2128 1.69267 47.6835 1.3295 49.5024C0.621168 53.0471 0.861282 56.6488 2.35299 59.8723C8.36182 72.8144 14.5627 85.6665 20.7487 98.5245C21.397 99.8691 21.8472 101.031 20.7787 102.312C20.6526 102.462 20.6046 102.681 20.5356 102.874C18.8518 107.358 17.0659 111.803 15.5112 116.329C11.6454 127.578 8.99512 139.116 8.49688 151.019C8.1037 160.321 8.22075 169.64 8.07368 178.953C7.90861 189.497 7.85458 200.047 7.4734 210.582C7.17626 218.719 6.50694 226.847 5.89165 234.972C5.47746 240.431 4.89218 245.876 4.34593 251.324C4.01877 254.592 3.60758 257.852 3.27142 261.12C3.15436 262.27 3.62258 262.93 4.49299 263.032C5.36341 263.137 5.9787 262.576 6.11376 261.459C6.52495 258.098 6.97817 254.739 7.28431 251.366C8.1037 242.265 9.03114 233.168 9.5834 224.05C10.2437 213.083 10.7329 202.097 10.9761 191.112C11.2072 180.571 10.955 170.018 11.0421 159.471C11.1051 152.139 11.6964 144.836 12.987 137.609C14.9949 126.378 18.5096 115.594 22.7746 105.041C22.8977 104.737 23.0538 104.446 23.2428 104.041C23.4259 104.335 23.549 104.494 23.636 104.674C27.4538 112.673 31.2746 120.669 35.0624 128.683C35.2365 129.058 35.2065 129.61 35.0894 130.03C33.8618 134.478 33.0905 138.987 33.3036 143.612C33.3966 145.617 33.3666 147.67 34.3601 149.522C34.7683 150.284 35.3866 150.656 36.23 150.314C37.0614 149.978 37.3735 149.245 37.0283 148.459C36.1879 146.535 36.272 144.506 36.221 142.498C36.1429 139.524 36.5181 136.588 37.2444 133.512C37.4575 133.812 37.5926 133.953 37.6706 134.121C40.0598 139.122 42.4309 144.134 44.841 149.125C45.1712 149.801 44.859 150.002 44.3698 150.299C41.3834 152.103 38.334 153.817 35.4526 155.78C31.1996 158.673 28.4803 162.698 27.4778 167.785C26.8505 170.973 26.3523 174.184 25.785 177.384C23.4409 190.62 19.8993 203.535 15.4632 216.213C15.3731 216.471 15.2651 216.732 15.2261 216.996C15.109 217.771 15.3941 218.359 16.1535 218.62C16.9038 218.878 17.5191 218.632 17.8853 217.93C18.1044 217.507 18.2515 217.044 18.4076 216.591C23.684 201.434 27.7059 185.965 29.912 170.048C30.6563 164.676 33.2195 160.474 37.7667 157.505C39.2584 156.536 40.7621 155.581 42.2838 154.666C46.2697 152.265 50.2916 149.918 54.2535 147.481C54.9768 147.033 55.34 147.012 55.9493 147.631C58.2634 149.975 60.9977 150.545 64.0321 149.2C68.5612 147.195 71.5236 143.804 72.8622 139.017C72.9403 138.743 73.0333 138.473 73.1594 138.068C73.3125 138.332 73.3995 138.437 73.4445 138.563C75.3354 143.963 75.4375 149.26 72.274 154.246C71.0344 156.203 69.5787 158.046 68.039 159.783C63.9781 164.373 59.8391 168.893 55.6911 173.407C54.6857 174.499 54.5356 175.544 55.0789 176.949C57.9602 184.38 60.8416 191.815 63.5549 199.309C66.061 206.23 67.7478 213.344 67.5347 220.784C67.3577 226.973 66.2921 233.033 64.6023 238.979C64.0621 240.885 63.4078 242.761 62.7985 244.651C62.4473 245.738 62.6965 246.494 63.5158 246.812C64.3772 247.143 65.0886 246.722 65.5328 245.615C65.5958 245.456 65.6498 245.294 65.7099 245.132C67.4237 240.356 68.6813 235.455 69.5247 230.452C70.3741 225.403 70.7102 220.325 70.275 215.208C69.7618 209.196 68.2221 203.409 66.1391 197.784C63.4888 190.632 60.6615 183.546 57.9032 176.432C57.6961 175.898 57.462 175.355 58.0923 175.019C58.1823 174.971 58.7136 175.55 58.8997 175.913C67.6548 192.925 76.3979 209.937 85.117 226.967C85.4442 227.609 85.6663 228.399 85.6453 229.11C85.5702 231.808 85.5192 234.522 85.2041 237.199C84.3457 244.492 81.3863 250.771 75.9147 255.796C72.7692 258.683 69.3506 261.177 65.6078 263.224C63.3418 264.464 61.9701 266.607 60.3043 268.45C59.8121 268.996 59.9892 269.71 60.5354 270.202C61.1147 270.725 61.808 270.785 62.4023 270.26C63.0176 269.716 63.5819 269.11 64.1041 268.483C65.3137 267.012 66.7634 265.883 68.4322 264.938C70.3621 263.846 72.1959 262.561 73.9818 261.24C81.6714 255.559 86.6658 248.19 87.9774 238.565C88.1875 236.998 88.3676 235.425 88.5927 233.615C88.9018 234.134 89.0939 234.447 89.274 234.765C90.3125 236.614 91.2099 238.559 92.4075 240.299C96.7715 246.644 102.945 249.277 110.533 248.802C113.766 248.598 116.704 247.296 119.663 246.152C139.182 238.619 158.277 230.113 177.131 221.069C186.601 216.528 195.914 211.657 205.234 206.807C207.329 205.717 209.28 204.24 211.071 202.677C213.007 200.987 213.374 198.706 212.458 196.287C212.167 195.518 211.777 194.795 211.438 194.048C211.33 193.807 211.258 193.552 211.167 193.303C211.432 193.297 211.696 193.255 211.954 193.288C216.744 193.858 221.525 194.468 226.319 194.993C227.171 195.086 227.639 195.398 228.065 196.119C234.732 207.488 241.428 218.836 248.121 230.191C248.328 230.545 248.526 230.905 248.766 231.238C249.258 231.922 249.928 232.103 250.657 231.694C251.395 231.283 251.567 230.62 251.239 229.845C251.149 229.626 251.026 229.419 250.906 229.212C243.943 217.381 236.974 205.558 230.028 193.717C229.407 192.655 228.567 192.181 227.366 192.118C225.385 192.013 223.404 191.881 221.429 191.679C213.265 190.857 205.282 189.185 197.529 186.463C191.187 184.233 185.445 180.856 179.821 177.231C173.755 173.32 167.704 169.364 161.461 165.747C156.242 162.719 151.562 159.168 147.631 154.591C144.725 151.208 141.64 148 137.903 145.494C137.609 145.296 137.417 144.689 137.456 144.296C137.636 142.372 137.234 140.598 136.162 139.02C133.716 135.412 130.393 132.945 126.098 132.128C124.264 131.777 122.311 132.068 120.414 132.068C120.36 131.996 120.306 131.924 120.249 131.852C120.498 131.672 120.753 131.498 120.993 131.309C125.843 127.515 131.183 125.879 137.096 128.296C140.112 129.529 142.903 131.333 145.764 132.939C149.137 134.827 152.403 136.91 155.842 138.665C159.459 140.514 163.376 141.055 167.428 140.529C172.434 139.878 177.005 138.035 181.354 135.568C183.083 134.587 183.29 133.824 182.336 132.047C176.039 120.342 169.301 108.9 161.692 97.9903C159.852 95.355 157.967 92.7468 156.116 90.1175C155.554 89.3192 154.831 88.896 153.861 88.6709C150.335 87.8455 146.784 87.0831 143.329 86.0116C137.903 84.3278 132.777 81.9687 128.397 78.2469C125.636 75.8998 123.412 73.1625 122.503 69.5488C122.148 68.1382 121.98 66.7155 122.491 65.3048C122.569 65.0917 122.749 64.9147 122.881 64.7226C123.022 64.8997 123.154 65.0797 123.295 65.2538C124.135 66.3133 124.802 67.6189 125.858 68.3933C129.928 71.3887 134.535 71.8599 139.347 70.7074C140.631 70.3982 141.628 69.5819 141.925 68.1862C142.051 67.5979 142.303 67.5379 142.855 67.676C146.604 68.6154 150.35 69.5819 154.12 70.4163C161.998 72.1631 168.646 75.9148 174.292 81.7556C181.73 89.4392 189.005 97.2519 195.863 105.452C196.256 105.926 196.62 106.436 197.076 106.847C197.655 107.37 198.333 107.37 198.946 106.868C199.522 106.394 199.633 105.77 199.285 105.116C199.093 104.758 198.817 104.44 198.553 104.125C190.968 95.0129 183.05 86.2037 174.529 77.9498C174.343 77.7697 174.208 77.5296 174.049 77.3195C174.289 77.2145 174.52 77.0464 174.766 77.0224C176.807 76.8273 178.848 76.5481 180.892 76.5091C185.061 76.4311 188.606 77.9918 191.379 81.0893C193.18 83.0972 194.84 85.2402 196.476 87.3893C199.915 91.9124 203.289 96.4865 206.71 101.025C207.545 102.132 208.364 102.336 209.121 101.76C209.904 101.163 209.841 100.325 208.94 99.1758C207.692 97.5881 206.41 96.0213 205.21 94.4006C202.007 90.0845 198.901 85.6965 195.632 81.4284C193.36 78.466 190.644 75.9629 187.051 74.6212C186.469 74.4051 186.556 74.138 186.907 73.8289C188.267 72.6373 189.554 71.3377 191.028 70.3052C193.267 68.7355 195.785 68.5494 198.396 69.3177C201.011 70.0891 203.211 71.5598 204.88 73.6458C206.881 76.152 208.736 78.7932 210.495 81.4765C213.359 85.8615 216.06 90.3456 218.893 94.7487C219.872 96.2704 221.018 97.6841 222.129 99.1128C222.729 99.8841 223.536 99.9952 224.197 99.509C224.89 98.9987 224.968 98.1763 224.389 97.3269C224.215 97.0748 224.017 96.8377 223.836 96.5856C222.579 94.8358 221.237 93.137 220.076 91.3211C216.693 86.0116 213.386 80.6511 210.03 75.3176C209.583 74.6062 210.171 74.6903 210.522 74.6242C215.417 73.7298 219.86 74.5522 223.536 78.1569C224.368 78.9703 225.256 79.7567 225.937 80.6901C228.116 83.6705 230.416 86.5939 232.297 89.7604C239.405 101.706 247.509 112.94 256.183 123.778C266.336 136.462 275.848 149.597 284.081 163.625C284.186 163.802 284.288 163.985 284.42 164.138C284.936 164.751 285.576 164.88 286.26 164.49C286.95 164.096 287.13 163.448 286.857 162.719L286.875 162.713ZM55.8592 142.852C53.4701 144.452 51.111 146.091 48.7729 147.76C47.9595 148.342 47.5993 148.255 47.1521 147.307C42.698 137.867 38.1959 128.452 33.7028 119.027C24.2693 99.2238 14.8419 79.4175 5.39042 59.6232C4.15684 57.0389 3.96475 54.2956 3.94674 51.5193C3.93473 49.7845 4.74811 48.3829 6.10175 47.3894C7.72552 46.2008 9.3853 45.0183 11.1561 44.0818C18.6747 40.105 26.5954 37.0555 34.5582 34.1201C52.3386 27.559 70.0799 20.9019 87.8963 14.4428C93.7071 12.3359 99.6739 10.6371 105.614 8.90824C108.774 7.98681 110.188 8.6141 111.956 11.3694C113.135 13.2093 114.192 15.1362 115.194 17.0811C122.959 32.1392 130.697 47.2093 138.44 62.2734C138.578 62.5435 138.683 62.8287 138.917 63.3569C137.681 62.9727 136.678 62.7416 135.757 62.3334C135.394 62.1684 135.151 61.6311 134.947 61.2169C130.078 51.5223 125.294 41.7857 120.333 32.1392C117.877 27.3639 115.131 22.7358 112.469 18.0686C110.08 13.8816 108.021 12.9421 103.372 14.3408C100.337 15.2562 97.4378 16.6189 94.4905 17.8014C75.0263 25.6081 55.5711 33.4298 36.1009 41.2275C29.846 43.7337 23.561 46.1738 17.291 48.644C13.3082 50.2137 12.4527 52.2577 14.1425 56.1955C14.3166 56.6037 14.4847 57.0209 14.7098 57.4021C20.1424 66.6225 24.0652 76.5872 28.8465 86.1287C37.9888 104.365 47.1041 122.608 56.2614 140.835C56.7086 141.724 56.7356 142.264 55.8592 142.849V142.852ZM70.4641 135.901C70.4311 140.586 66.9435 145.329 62.4804 146.832C60.6705 147.442 59.2028 146.925 57.8792 145.683C57.537 145.362 57.486 145.164 57.8582 144.785C60.5504 142.063 63.2007 139.296 65.893 136.573C66.6613 135.796 67.4567 135.025 68.3451 134.406C68.7893 134.097 69.5157 133.959 70.0319 134.082C70.275 134.139 70.3321 134.998 70.4581 135.493C70.4911 135.622 70.4641 135.766 70.4641 135.904V135.901ZM201.788 192.946C201.851 192.613 201.914 192.25 201.845 191.929C201.665 191.094 201.884 190.845 202.709 191.172C203.184 191.358 203.7 191.439 204.192 191.586C205.195 191.887 206.629 191.899 207.11 192.58C208.295 194.255 209.139 196.2 209.934 198.111C210.33 199.063 209.796 200.044 209.027 200.678C207.761 201.716 206.497 202.812 205.072 203.583C199.081 206.819 193.093 210.072 186.991 213.086C164.736 224.068 142.135 234.282 119.006 243.304C116.53 244.27 113.955 245.009 111.403 245.759C110.566 246.005 109.642 245.96 108.777 246.044C102.468 245.753 97.4198 243.298 94.2173 237.709C92.4135 234.561 90.7237 231.349 89.0519 228.129C83.0671 216.603 77.0972 205.075 71.1514 193.528C67.6728 186.775 64.2632 179.983 60.7936 173.227C60.4394 172.542 60.4754 172.098 61.0157 171.528C63.4168 168.995 65.7699 166.411 68.144 163.85C68.9094 163.028 68.9214 163.031 69.4646 164.075C79.4564 183.336 89.4301 202.608 99.4548 221.847C100.685 224.206 102.054 226.52 103.612 228.675C105.578 231.397 108.234 233.222 111.686 233.642C113.612 233.879 115.446 233.462 117.208 232.763C123.76 230.167 130.33 227.618 136.825 224.881C154.108 217.597 171.276 210.06 188.075 201.704C191.199 200.152 194.399 198.76 197.577 197.322C199.573 196.419 201.344 195.32 201.794 192.943L201.788 192.946ZM120.555 135.193C121.596 134.998 122.641 134.83 123.652 134.656C128.295 135.19 131.822 137.348 134.109 141.394C134.403 141.913 134.352 142.621 134.463 143.243C133.974 143.02 133.473 142.81 132.99 142.573C129.826 141.022 126.657 139.491 123.514 137.903C122.449 137.366 121.443 136.709 120.432 136.072C120.222 135.943 120.099 135.679 119.933 135.475C120.141 135.376 120.339 135.232 120.555 135.19V135.193ZM174.121 123.097C174.151 123.271 174.184 123.448 174.217 123.622C174.223 123.64 174.229 123.661 174.232 123.679C174.463 123.98 174.721 124.262 174.907 124.589C176.378 127.203 177.84 129.82 179.277 132.453C179.403 132.69 179.337 133.029 179.361 133.317C179.16 133.125 178.893 132.969 178.77 132.735C177.305 129.925 175.856 127.107 174.409 124.286C174.313 124.1 174.286 123.88 174.232 123.673C174.22 123.658 174.211 123.643 174.199 123.628C174.172 123.448 174.148 123.268 174.121 123.085V123.097ZM173.239 121.464C173.239 121.512 173.239 121.557 173.239 121.605C173.266 121.852 173.29 122.098 173.317 122.347C173.449 122.416 173.581 122.485 173.713 122.551C173.578 122.485 173.446 122.416 173.314 122.347C173.29 122.101 173.266 121.855 173.239 121.605C173.224 121.62 173.206 121.635 173.191 121.653C173.176 121.632 173.14 121.602 173.146 121.59C173.17 121.545 173.206 121.506 173.239 121.464ZM150.191 90.982C152.055 91.3451 153.876 91.3001 154.798 93.236C155.368 94.4336 156.251 95.4781 156.86 96.6576C163.268 109.023 169.655 121.407 176.03 133.788C176.24 134.193 176.891 134.83 175.916 135.04C175.232 135.187 174.52 136.465 173.737 135.013C166.041 120.771 158.319 106.544 150.599 92.3116C150.437 92.0114 150.257 91.7143 150.134 91.3991C150.086 91.2791 150.173 91.108 150.191 90.979V90.982ZM125.153 60.7487C121.107 61.0068 119.156 63.3089 119.264 67.3698C119.42 71.5088 121.215 74.9394 123.91 77.9558C127.671 82.1608 132.431 84.9011 137.579 87.0111C140.01 88.0075 142.546 88.7459 145.01 89.6733C145.56 89.8804 146.172 90.3036 146.442 90.7959C154.6 105.761 162.71 120.75 170.858 135.718C171.33 136.582 171.186 136.805 170.276 137.042C165.363 138.338 160.615 137.969 156.128 135.565C153.204 133.998 150.419 132.182 147.525 130.559C144.365 128.788 141.286 126.771 137.939 125.471C130.871 122.731 124.511 124.637 118.85 129.343C118.103 129.961 117.478 130.79 116.971 131.627C115.596 133.896 115.915 136.072 117.929 137.792C118.931 138.653 120.069 139.401 121.239 140.016C123.601 141.259 126.008 142.423 128.43 143.54C134.832 146.496 140.442 150.488 144.953 155.957C149.419 161.371 154.912 165.438 161.023 168.863C166.449 171.9 171.645 175.367 176.849 178.782C183.335 183.038 189.944 187.021 197.349 189.5C198.459 189.873 198.628 190.842 198.874 191.755C199.105 192.622 198.685 193.288 197.988 193.78C197.625 194.036 197.241 194.264 196.839 194.456C190.908 197.271 184.977 200.089 179.037 202.887C158.823 212.413 138.383 221.42 117.556 229.545C116.794 229.845 116.014 230.101 115.233 230.353C112.328 231.283 109.768 230.629 107.511 228.639C105.473 226.835 104.119 224.53 102.885 222.153C99.5899 215.808 96.3453 209.43 93.0498 203.085C86.0475 189.599 79.0272 176.126 72.0098 162.65C71.9618 162.557 71.9318 162.446 71.8598 162.383C70.5542 161.182 71.2895 160.294 72.1749 159.231C74.7231 156.17 76.7431 152.808 77.2983 148.765C77.9586 143.981 77.2533 139.41 74.8972 135.166C74.3569 134.193 73.6246 133.29 72.8202 132.513C71.0554 130.808 68.9394 130.592 66.9314 131.993C65.6829 132.867 64.5783 133.968 63.5038 135.064C62.2342 136.36 61.0787 137.762 59.8601 139.107C59.0707 139.977 59.0527 139.971 58.5245 138.933C53.305 128.611 47.9955 118.334 42.8961 107.955C36.1759 94.2925 29.6449 80.54 22.9817 66.8506C21.457 63.7171 19.7102 60.6887 18.1044 57.5882C17.4741 56.3786 16.9219 55.124 16.3936 53.8664C16.0154 52.963 16.3216 52.2607 17.24 51.8645C17.8343 51.6064 18.4286 51.3453 19.0319 51.1021C45.2312 40.6092 71.4276 30.1162 97.6299 19.6323C99.815 18.7559 101.985 17.7894 104.236 17.1141C107.418 16.1597 108.3 16.5498 109.909 19.4792C114.603 28.0273 119.303 36.5723 123.862 45.1954C126.468 50.1207 128.797 55.1961 131.243 60.2084C131.378 60.4756 131.441 60.7817 131.537 61.0698C131.213 61.0698 130.892 61.0849 130.57 61.0638C128.764 60.9528 126.948 60.6376 125.159 60.7547L125.153 60.7487ZM138.257 67.9521C137.267 68.1982 136.243 68.2943 135.673 68.3783C133.044 68.2852 130.88 68.0271 128.986 66.9136C127.983 66.3253 127.167 65.4099 126.308 64.5995C126.11 64.4164 126.086 64.0532 125.981 63.7711C126.263 63.7141 126.561 63.573 126.828 63.612C128.719 63.8882 130.627 64.0983 132.482 64.5335C134.442 64.9927 136.357 65.656 138.269 66.2953C138.602 66.4064 139.064 66.8476 139.049 67.1207C139.034 67.4178 138.587 67.868 138.254 67.9521H138.257Z" fill="black"/>
<path d="M175.913 135.043C175.228 135.19 174.517 136.469 173.734 135.016C166.038 120.774 158.315 106.548 150.596 92.3151C150.434 92.0149 150.254 91.7178 150.13 91.4026C150.082 91.2826 150.17 91.1115 150.188 90.9824C152.051 91.3456 153.873 91.3006 154.795 93.2365C155.365 94.4341 156.247 95.4785 156.857 96.6581C163.265 109.024 169.652 121.408 176.027 133.789C176.237 134.194 176.888 134.83 175.913 135.04V135.043Z" fill="black"/>
<path d="M209.03 200.678C207.763 201.717 206.5 202.812 205.074 203.583C199.083 206.819 193.095 210.072 186.993 213.086C164.738 224.068 142.137 234.282 119.008 243.304C116.532 244.271 113.957 245.009 111.406 245.759C110.568 246.005 109.644 245.96 108.779 246.044C102.47 245.753 97.4221 243.298 94.2196 237.709C92.4157 234.561 90.726 231.349 89.0542 228.129C83.0693 216.604 77.0995 205.075 71.1537 193.529C67.6751 186.775 64.2655 179.983 60.7958 173.227C60.4417 172.543 60.4777 172.099 61.0179 171.528C63.4191 168.995 65.7722 166.411 68.1463 163.851C68.9117 163.028 68.9237 163.031 69.4669 164.076C79.4586 183.336 89.4323 202.608 99.4571 221.847C100.688 224.206 102.056 226.52 103.614 228.675C105.58 231.398 108.236 233.222 111.688 233.643C113.615 233.88 115.449 233.462 117.21 232.763C123.763 230.167 130.333 227.619 136.828 224.881C154.11 217.597 171.278 210.06 188.077 201.705C191.201 200.153 194.401 198.76 197.579 197.322C199.575 196.419 201.346 195.321 201.796 192.943C201.859 192.61 201.922 192.247 201.853 191.926C201.673 191.092 201.892 190.842 202.718 191.17C203.192 191.356 203.708 191.437 204.2 191.584C205.203 191.884 206.638 191.896 207.118 192.577C208.303 194.252 209.147 196.197 209.942 198.109C210.338 199.06 209.804 200.042 209.036 200.675L209.03 200.678Z" fill="black"/>
<path d="M138.924 63.36C137.687 62.9758 136.685 62.7447 135.763 62.3365C135.4 62.1714 135.157 61.6342 134.953 61.22C130.085 51.5254 125.301 41.7888 120.339 32.1423C117.884 27.367 115.138 22.7388 112.475 18.0716C110.086 13.8846 108.027 12.9452 103.378 14.3439C100.344 15.2593 97.4444 16.6219 94.497 17.8045C75.0328 25.6112 55.5776 33.4329 36.1074 41.2305C29.8525 43.7367 23.5675 46.1769 17.2976 48.647C13.3147 50.2168 12.4593 52.2607 14.1491 56.1986C14.3231 56.6068 14.4912 57.024 14.7163 57.4052C20.1489 66.6255 24.0717 76.5902 28.853 86.1317C37.9953 104.368 47.1106 122.611 56.2679 140.839C56.7151 141.727 56.7422 142.267 55.8657 142.852C53.4766 144.452 51.1175 146.091 48.7794 147.76C47.966 148.342 47.6058 148.255 47.1586 147.307C42.7045 137.867 38.2024 128.452 33.7093 119.027C24.2758 99.2239 14.8484 79.4175 5.39694 59.6232C4.16336 57.039 3.97126 54.2957 3.95326 51.5194C3.94125 49.7846 4.75463 48.3829 6.10827 47.3894C7.73204 46.2009 9.39182 45.0183 11.1627 44.0819C18.6812 40.105 26.6019 37.0556 34.5647 34.1202C52.3451 27.5591 70.0865 20.9019 87.9029 14.4429C93.7136 12.3359 99.6804 10.6371 105.62 8.90829C108.781 7.98686 110.194 8.61415 111.962 11.3695C113.142 13.2093 114.198 15.1362 115.201 17.0811C122.965 32.1392 130.703 47.2094 138.447 62.2735C138.585 62.5436 138.69 62.8287 138.924 63.357V63.36Z" fill="black"/>
<path d="M176.239 48.9359C177.188 48.4166 178.145 47.9724 179.015 47.3992C180.525 46.3997 182.026 45.3702 183.449 44.2507C184.385 43.5123 185.351 43.1462 186.546 43.1372C191.729 43.0951 196.868 42.6359 201.886 41.2493C202.841 40.9851 203.777 40.649 204.699 40.2828C210.647 37.9327 213.586 33.3135 214.285 27.1786C215.144 19.6331 212.166 13.8403 205.836 9.73741C200.281 6.13871 194.122 4.17278 187.624 3.19732C184.004 2.65407 180.378 2.63606 176.833 3.69556C170.158 5.6885 166.121 10.2687 164.14 16.8177C164.011 17.2439 163.897 17.6732 163.753 18.0934C163.432 19.0238 162.79 19.423 161.973 19.2159C161.136 19.0058 160.716 18.2614 161.001 17.271C161.379 15.9593 161.772 14.6417 162.295 13.3811C165.875 4.73705 172.562 0.294956 181.711 0.021827C192.003 -0.287319 201.478 2.68708 209.72 8.96905C219.829 16.6737 219.015 30.9274 212.802 38.1638C209.93 41.5074 206.115 43.1882 201.979 44.2747C197.015 45.5773 191.934 45.9345 186.828 46.1386C186.234 46.1626 185.541 46.3967 185.081 46.7659C181.165 49.9144 176.764 52.1534 172.082 53.8912C171.212 54.2124 170.374 54.3204 169.807 53.411C169.234 52.4986 169.72 51.8053 170.38 51.1569C172.481 49.086 174.165 46.7479 175.054 43.8905C175.231 43.3172 175.288 42.9871 174.528 42.807C166.25 40.8321 162.118 35.1024 160.491 27.1546C160.266 26.0501 160.128 24.9276 159.981 23.808C159.839 22.7275 160.317 22.0132 161.199 21.9021C162.124 21.7851 162.7 22.4064 162.895 23.5349C163.216 25.3868 163.486 27.2597 164.008 29.0575C165.806 35.2494 169.873 39.0192 176.257 40.2198C178.289 40.601 178.811 41.3423 178.235 43.2932C177.686 45.1511 176.948 46.955 176.239 48.9359Z" fill="#FFCE1F"/>
<path d="M81.7144 17.7908C78.3018 18.7662 74.9882 20.426 71.6987 21.7587L61.3348 25.9606C57.9612 27.3293 54.5996 28.7129 51.238 30.1116C47.8885 31.5043 44.2838 32.6748 41.2553 34.7038C40.3699 35.295 40.7001 36.8798 41.8736 36.6817C45.3282 36.1024 48.6508 34.4066 51.8893 33.128C55.2719 31.7924 58.6485 30.4478 62.0191 29.0821C65.3057 27.7495 68.5922 26.4169 71.8788 25.0842C75.2884 23.7006 78.9801 22.554 82.2277 20.8252C83.5573 20.1199 83.7194 17.2175 81.7204 17.7908H81.7144Z" fill="white"/>
</g>
<defs>
<clipPath id="clip0_1325_35203">
<rect width="286.044" height="270.629" fill="white" transform="translate(0.956055)"/>
</clipPath>
</defs>
</svg>
