<svg width="289" height="316" viewBox="0 0 289 316" fill="none" xmlns="http://www.w3.org/2000/svg">
    <g clip-path="url(#gcx56xqdta)">
        <path d="M126.085 125.454c-1.352.195-11.031 3.925-16.683 6.808-5.651 2.882-17.035 15.959-17.035 15.959l-23.278-4.942s-18.082-25.957-18.108-25.348c-.023.609-.713 10.302-10.03 11.348-9.313 1.043-18.568-5.055-18.743-4.923-.175.133 4.148 18.57 10.192 27.777 6.04 9.208 14.304 19.25 14.304 19.25h48.368s120.617 52.529 121.12 52.325c.499-.204 25.532-.997 25.532-.997s11.948 13.708 19.69 16.694c7.741 2.986 13.072 1.513 16.488 0 3.415-1.512 9.767-15.383 9.187-25.02-.58-9.638-1.303-16.316-3.86-25.352-2.557-9.035-20.464-47.114-20.464-47.114l-21.235-41.353s-74.822-1.736-73.318-1.93c1.503-.194-42.124 26.818-42.124 26.818h-.003z" fill="#000"/>
        <path d="M221.451 29.01c-5.791-8.125-12.126-12.947-17.936-15.457-5.811-2.506-19.324-7.717-32.451-5.207-13.128 2.506-27.36 4.92-32.046 13.79s-3.283 15.506-2.897 20.535c.385 5.033 3.088 9.767 2.508 14.732-.58 4.965-3.86 10.25-7.337 13.78-3.474 3.53-8.493 8.663-8.688 14.298-.194 5.632 1.737 12.193 3.669 15.28 1.931 3.086 2.897 5.787 1.545 8.102-1.351 2.316-8.224 10.658-8.214 16.4.009 5.742 5.181 14.059 12.103 15.05 6.925.988 15.389-2.701 18.202-6.947 2.813-4.246 2.34-11.574 5.47-15.435 3.134-3.857 5.749-7.581 10.111-8.491 4.362-.91 37.782 8.268 41.077 7.319 3.296-.949 17.195-7.701 17.195-7.701s20.85 7.439 29.729 23.204a7942.713 7942.713 0 0 1 19.689 35.241s16.411-13.686 14.674-27.576c-1.737-13.89-9.845-17.556-9.845-20.066 0-2.509 3.859-14.084-2.508-23.732-6.371-9.647-22.973-12.708-30.504-21.691-7.528-8.984-10.619-24.95-12.547-30.277-1.932-5.331-11.005-15.147-11.005-15.147l.006-.003z" fill="#343434"/>
        <path d="M214.5 219.884c.771-.282 19.126-.153 20.85 1.415 1.724 1.564 16.215 46.923 18.532 51.36 2.317 4.437 4.349 8.443 3.86 12.154-.489 3.711-7.917 2.895-7.917 2.895s-21.621-46.955-25.289-48.299c-3.669-1.344-50.579 0-50.579 0h-41.119s-20.85-12.974-22.587-13.592c-1.737-.616-73.166 1.499-73.166 1.499s-11.377-30.97-12.35-33.713c-.972-2.743-5.314-16.905-3.172-18.612 2.142-1.707 26.077-1.982 26.3-1.739.224.243-7.884-25.808-7.884-25.808l4.968-2.367 74.656-3.155 4.67 7.264 58.327.865 9.883 3.65 2.175 2.979 19.842 63.207v-.003z" fill="#fff"/>
        <path d="M83.419 102.62c1.351-1.092 4.634-.318 0-23.085s-10.23-46.071-10.23-46.071L18.94 35.498s.318 10.57 2.039 15.94c1.72 5.37 10.01 47.392 11.416 49.514 1.407 2.121 7.165 2.697 8.309 3.144 1.144.447 42.714-1.476 42.714-1.476z" fill="#FFE380"/>
        <path d="M207.03 119.453c.739-.693 1.111-2.733-.457-2.697a11.486 11.486 0 0 1-6.971-2.144 1.412 1.412 0 0 0-.168-.849c-6.783-12.368-2.327-26.802 1.857-39.254 5.032-2.024 8.775-6.759 9.585-12.128.104-.69-.246-1.58-1.082-1.571-10.146.097-17.794-8.265-20.655-17.359-1.53-4.854-1.698-9.76-1.916-14.797-.155-3.63-.657-7.549-3.14-10.275.454-.674.418-1.646-.589-1.707-3.646-.227-7.22.2-10.72 1.017-6.514-.178-12.943 2.419-18.264 6.079-2.891 1.985-5.528 4.585-6.847 7.892-1.42 3.55-1.403 7.384-1.945 11.115-1.15 7.966-4.06 15.875-3.188 24.023.713 6.675 4.161 12.9 9.54 16.947 4.342 3.265 9.637 4.82 14.942 4.696 1.896 5.726 3.61 11.49 4.945 17.352a1.561 1.561 0 0 0-.074.499c.055 2.678-4.634 2.652-6.387 3.148-2.282.647-4.148 2.03-5.406 4.038-2.54 4.055-1.947 9.256 1.102 12.864 7.262 8.585 21.154 6.269 30.419 2.762 5.713-2.163 10.97-5.473 15.419-9.651zM41.85 104.543c-.286-.314-.691-.593-1.145-.447-3.496 1.134-7.24-.654-9.378-3.494a12.504 12.504 0 0 1-1.215-1.976c.152-.288.224-.618.142-.958-.619-2.656-1.238-5.315-1.863-7.97.35.149.7.298 1.047.453.398.178.813.097 1.166-.126 2.33.91 4.683 1.664 7.094 1.82 1.073.071 2.116-1.331 1.436-2.293-4.994-7.03-13.053-10.749-21.015-13.602 3.616-1.308 7.489-1.658 11.36-.92 4.395.836 9.24 4.372 13.433.991.674-.547.943-1.654.21-2.276a15.586 15.586 0 0 0-2.543-1.765c.35-.26.677-.548.972-.859.606.881 2.136.302 2.453-.842.551-1.991.055-3.572-1.043-4.831-.853-2.436-3.503-4.256-6.115-3.443-2.36-.729-4.76-1.156-6.387-1.448-6.064-1.075-12.353-1.421-18.03-3.89 4.248-3.244 9.4-5.136 14.815-5.155 1.448-.006 2.88.123 4.31.353 1.478.233 3.078.486 4.394-.42 2.19-1.51 2.12-4.525-.538-5.374-3.01-.962-6.397-1.548-9.54-1.813-3.305-.279-6.66.029-9.748 1.298-2.858 1.18-5.402 3.07-7.66 5.153C6.284 52.71 4.217 55 3.076 57.769c-2.654 6.448.823 13.718 2.706 19.92 2.17 7.144 4.332 14.292 6.513 21.436 3.445 11.296 7.061 27.356 20.834 29.879 5.946 1.091 13.772-1.02 16.945-6.574 1.74-3.048.765-6.073-1.06-8.816-2.136-3.216-4.566-6.208-7.158-9.068l-.007-.003z" fill="#fff"/>
        <path d="M55.233 145.073c-1.16-.385-15.25 2.368-15.25 2.368l24.385 78.375 120.043 12.683h34.318l-26.741-86.579-64.549-1.694-7.829-8.307-64.371 3.154h-.006z" fill="#FFE380"/>
        <path d="M256.468 212.765c2.512-3.986 3.73-8.579 2.79-13.647a19.138 19.138 0 0 0-4.731-9.45c-2.878-3.109-6.64-4.605-10.493-6.143-3.007-1.199-6.795-2.918-8.552-5.83.149-.437.14-.916-.123-1.354l-.797-1.318a5.297 5.297 0 0 1-.045-.573c-.03-.803-.477-1.14-1.008-1.169-2.651-4.378-5.321-8.75-8.053-13.074-1.218-1.933-2.761-3.909-4.99-4.709a6.849 6.849 0 0 0-3.397-.32c-5.512-4.635-11.789-8.21-19.19-9.8-4.356-.936-9.126-1.169-13.484-.12-1.079.259-2.213 2.474-.609 2.869 3.438.842 6.87 1.691 10.305 2.543 2.803.693 6.552 1.438 7.22 4.76 0 .02.013.036.016.055-.47.23-.94.463-1.407.693-2.469.742-4.783 1.937-6.928 3.404a.548.548 0 0 0-.071.065l-.162.078c-3.166 1.564-6.572 2.937-9.573 4.796-1.925 1.195-3.383 4.029-1.063 5.661.914.641 2.145.767 3.228.693.418-.026.969-.149 1.523-.214-.83 1.396-.885 3.277.21 4.709 2.087 2.73 5.218 2.076 8.212 1.907-.01.039-.016.072-.023.107-.382 2.374 1.731 4.136 3.902 4.401 2.751.337 5.849-.968 8.448-1.729 1.348-.395 2.758-1.04 4.155-1.182.557-.058 1.357-.071 1.701.453.042.068.084.169.113.282-.609.272-1.127.881-1.069 1.564a18.469 18.469 0 0 0 2.848 8.417c.846 1.859 1.877 3.611 3.221 5.153 2.583 2.966 6.064 5.01 9.949 5.152 1.316 1.464 2.311 3.252 3.357 4.894 1.426 2.244 2.852 4.482 4.281 6.726 1.429 2.244 2.852 4.486 4.281 6.727.567.89 1.021 2.14 2.109 2.429.93.242 1.967.239 2.923.2a14.698 14.698 0 0 0 4.975-1.094c2.962-.392 5.58-2.355 6.572-5.253.265-.774-.052-1.458-.568-1.755l-.003-.004z" fill="#fff"/>
        <path d="M235.349 222.711c.83.181 6.371 0 6.371 0s16.485 12.436 16.096 13.482c-.389 1.046-1.147 3.232.356 8.754 1.504 5.521 20.614 66.341 18.297 68.44-2.317 2.098-170.636 1.518-188.598 2.484-17.966.965-29.133-3.945-31.385-5.017-2.249-1.072-30.062-63.521-29.943-65.911.12-2.386 6.682-16.4 9.77-17.209 3.089-.807 71.429-5.273 73.361-3.427 1.931 1.846 23.166 15.092 23.166 15.092s87.839-1.668 88.996-1.282c1.157.385 13.513-15.413 13.513-15.413v.007z" fill="#FFE380"/>
        <path d="M249.829 287.708c1.545.386 11.319 2.011 7.988-5.596-7.603-17.365-20.928-57.876-22.467-59.401-1.539-1.526-.071-1.762-1.799-2.028-1.727-.265-19.051-.799-19.051-.799s3.283 16.697 4.054 16.888c.771.195 7.696 4.583 10.026 8.175 2.33 3.591 21.249 42.758 21.249 42.758v.003zM184.897 237.126s-19.24-42.888-19.82-43.131c-.58-.243-75.8 4.09-75.8 4.09l10.25 25.834s10.227.505 12.22 1.898c1.993 1.392 18.835 12.189 19.966 12.889 1.13.703 53.187-1.58 53.187-1.58h-.003zM36.682 226.212S23.396 184.069 22.2 181.018c-1.195-3.047-.764-5.013 1.757-6.033 2.52-1.021 23.685-1.056 23.909-.506.223.554 18.056 51.483 16.5 51.331-1.558-.152-27.684.398-27.684.398v.004zM158.752 10.813c-4.54.353-8.83 3.093-12.11 6.124-3.454 3.19-6.238 7.164-7.962 11.546-1.847 4.693-2.433 9.592-1.886 14.596.619 5.648 2.363 11.383 1.754 17.106-1.212 11.383-15.37 15.933-15.769 27.738-.156 4.631 2.372 8.75 4.352 12.757.509 1.026 1.014 2.101 1.4 3.209a7.667 7.667 0 0 0-4.135-1.263c-4.42-.055-8.076 3.352-8.448 7.74-.327 3.864 2.262 7.209 5.836 8.226-.752 2.393-1.021 4.91-.716 7.419.172 1.412.502 2.834 1.079 4.142.619 1.409 1.821 2.523 2.745 3.731.204.269.486.233.693.065 1.459 1.781 3.332 3.209 5.525 4.071 1.848.725 3.503-2.445 1.533-3.265-3.616-1.505-6.131-4.974-6.844-8.786-.34-1.817-.253-3.776.389-5.521.298-.813.716-1.568 1.186-2.293.82-.376 1.572-.939 2.213-1.558 1.591-1.532 2.534-3.592 2.577-5.807a7.742 7.742 0 0 0-.023-.764c.713-2.555.609-5.217-.405-8.025-1.455-4.045-4.083-7.624-5.088-11.837-1.212-5.068 1.912-9.424 5.162-12.98 3.442-3.763 7.395-7.296 9.184-12.212 3.704-10.182-2.304-20.542-.544-30.877.823-4.841 3.127-9.353 6.348-13.038 3.406-3.9 7.703-6.215 12.24-8.543.832-.428.819-1.778-.286-1.694v-.007zm-40.105 99.809c.062-2.925 2.421-5.172 5.344-5.062a5.507 5.507 0 0 1 4.994 3.669c-.354 1.409-1.089 2.688-1.984 3.942-.81 1.133-1.656 2.244-2.401 3.407a.41.41 0 0 1-.052.025c-.165-.226-.424-.391-.781-.434-2.754-.323-5.181-2.684-5.123-5.55l.003.003zM63.812 138.545c-2.112-3.498-4.216-7.002-6.335-10.497a411.702 411.702 0 0 0-3.143-5.087c-.92-1.467-1.945-3.514-3.562-4.269-.706-.327-1.403.493-1.403 1.131-.003 1.82 1.358 3.753 2.24 5.291.994 1.736 1.999 3.466 3.02 5.185 2.09 3.517 4.19 7.025 6.286 10.535.386.645 1.316.755 1.945.447.31-.152.521-.353.755-.602.521-.557.583-1.5.2-2.134h-.003zM85.07 95.456c-.599-4.82-1.655-9.619-2.491-14.405-1.737-9.936-3.562-19.859-5.347-29.785-.493-2.74-.992-5.483-1.484-8.223-.493-2.723-.661-5.845-1.809-8.378-.59-1.305-2.132-.427-2.203.723-.172 2.759.66 5.673 1.118 8.39l1.439 8.553c.956 5.661 1.908 11.322 2.851 16.983.924 5.548 1.893 11.09 2.858 16.63.496 2.844.995 5.687 1.485 8.53.265 1.539 1.192 5.94-1.517 5.804-1.899-.094-2.861 3.167-.7 3.333 4.482.34 6.26-4.463 5.8-8.155zM212.543 112.999c-1.546.787-2.738 1.616-4.563 1.448-1.656-.156-3.15-1.033-4.277-2.228-2.952-3.135-3.166-7.773-3.082-11.834.094-4.596.528-9.175 1.215-13.719.328-2.166.726-4.32 1.186-6.46.428-2.008 1.296-4.372.898-6.42l-.062.05c-.223-.626-1.011-1.001-1.698-.188-1.601 1.894-2.038 5.032-2.573 7.403a102.63 102.63 0 0 0-1.494 8.093c-.742 5.227-1.341 10.758-.917 16.037.363 4.502 2.032 9.298 6.115 11.72 3.283 1.95 11.028-.32 12.894-4.252.535-1.124-2.424-.272-3.648.35h.006zM210.588 57.594c-1.87-.557-3.733-.971-5.512-1.804-1.769-.825-3.386-1.936-4.871-3.2-2.991-2.548-5.369-5.722-7.132-9.223-2.097-4.161-3.163-8.792-3.902-13.365-.389-2.416-.648-4.848-.852-7.287-.194-2.306-.146-4.777-.969-6.956-.402-1.063-1.721-.499-1.938.379-.625 2.497-.346 5.168-.204 7.717.146 2.62.353 5.243.739 7.84.726 4.904 2.038 9.749 4.294 14.176 1.925 3.779 4.617 7.296 7.939 9.952 3.105 2.484 7.304 4.8 11.387 4.809 1.413.003 2.829-2.503 1.024-3.038h-.003zM275.324 202.904c-1.033-1.017-2.349-1.166-3.694-1.49-1.772-.427-3.257-1.596-4.776-2.552l-4.897-3.076c-1.342-.842-3.085-2.342-4.747-1.911-.454.117-.934.573-.866 1.088.224 1.668 1.893 2.516 3.196 3.404l5.006 3.4c1.41.959 2.829 2.037 4.42 2.688.937.382 2.074.418 3.027.794-.023.285.055.563.311.728.959.622 1.886.551 2.751-.233.856-.771 1.148-1.972.266-2.84h.003z" fill="#fff"/>
        <path d="M65.028 214.793c-.73-2.471-1.455-4.942-2.18-7.417-1.45-4.938-2.937-9.868-4.385-14.806-2.868-9.787-5.658-19.593-8.462-29.4-.784-2.746-1.565-5.495-2.342-8.245-.759-2.688-1.423-5.616-2.713-8.1-.635-1.227-2.375.065-2.313 1.085.155 2.478.933 4.997 1.548 7.394.639 2.497 1.33 4.981 2 7.471a1463.32 1463.32 0 0 0 4.102 14.907c2.758 9.829 5.571 19.642 8.439 29.438.803 2.743 1.64 5.48 2.47 8.217.414 1.366.832 2.736 1.247 4.103.421 1.376.71 2.879 1.65 4.009 1.043 1.26 2.624.049 2.715-1.273.162-2.409-1.102-5.094-1.78-7.377l.004-.006zM127.811 189.137c-.178-.738-.414-1.467-.628-2.193-.486-1.638-.979-3.274-1.468-4.912l-2.852-9.554c-.923-3.093-1.824-6.192-2.787-9.272-.509-1.626-.998-3.261-1.536-4.88-.441-1.335-.755-2.611-2.129-3.223-.327-.146-.716.123-.849.408-.632 1.344-.353 2.504 0 3.89.399 1.57.849 3.128 1.28 4.689.885 3.209 1.828 6.403 2.755 9.599l2.699 9.314 1.348 4.657c.211.729.425 1.461.645 2.186.34 1.121.564 1.36 1.322 2.183.658.716 1.948.337 2.077-.687.101-.8.321-1.402.123-2.208v.003zM60.34 308.108c-.645-2.604-2.25-5.104-3.403-7.517a655.35 655.35 0 0 1-3.75-7.98 855.468 855.468 0 0 1-7.015-15.561 690.89 690.89 0 0 1-6.559-15.506c-1.118-2.733-2.22-5.473-3.318-8.213-1.021-2.552-2.22-5.101-3.027-7.727-.91-2.96 1.28-5.723 2.631-8.213 1.595-2.941 3.16-5.82 4.336-8.948.473-1.257-.991-2.167-1.844-1.04a41.928 41.928 0 0 0-1.101 1.535 1.46 1.46 0 0 0-1.093.298c-1.4 1.082-3.094 3.051-3.094 4.975l-1.5 2.519c-1.245 2.096-2.648 4.191-3.099 6.63-.424 2.305-.107 4.741.72 6.924.713 1.881 1.77 4.543 3.36 5.916.204.324.613.418 1.024.331.315.78.626 1.561.94 2.338 4.485 11.111 9.19 22.145 14.285 32.994a732.307 732.307 0 0 0 4.16 8.712 593.497 593.497 0 0 0 2.217 4.518c.768 1.551 1.442 3.274 2.55 4.611 1.083 1.305 2.936-.155 2.58-1.596z" fill="#fff"/>
        <path d="M274.878 166.888c.476.046 1.063-.395 1.491-.745 7.66-6.247 12.009-14.236 12.573-24.162.36-6.325-.995-12.142-5.301-17.038-.882-1.001-1.699-2.066-2.492-3.142-1.131-1.519-1.527-3.267-1.323-5.126.172-1.542.354-3.09.665-4.609 1.101-5.402.658-10.577-2.645-15.133-1.62-2.232-3.555-4.298-5.625-6.121-4.07-3.582-8.96-5.946-13.633-8.634-3.351-1.924-6.682-3.909-9.868-6.088-4.375-2.996-7.349-7.125-8.963-12.187-.716-2.238-1.423-4.482-1.964-6.762-1.828-7.685-4.342-15.088-9.031-21.556a322.048 322.048 0 0 0-9.392-12.342c-6.452-8.041-14.939-12.857-24.884-15.23-9.683-2.313-19.424-2.345-29.184-.564-6.141 1.12-12.123 2.785-17.678 5.726-8.662 4.585-13.315 11.68-13.646 21.571-.217 6.442.804 12.673 2.752 18.78.395 1.231.544 2.43.372 3.722-.661 4.961-2.352 9.372-6.377 12.643-1.008.82-1.945 1.733-2.858 2.659-7.201 7.303-8.779 16.675-4.369 25.927a181.61 181.61 0 0 0 2.249 4.573c1.439 2.815 1.18 5.422-.829 7.873-1.19 1.457-2.327 2.957-3.49 4.437-2.499 3.177-3.769 6.733-3.222 10.807.094.693-.139.962-.774 1.13-6.52 1.726-11.715 5.528-16.222 10.389-.243.263-.493.538-.668.849-.385.686-.285 1.347.298 1.862.587.518 1.258.547 1.893.081.314-.233.57-.551.846-.839 4.041-4.278 8.668-7.636 14.394-9.327.83-.246 1.228-.21 1.64.69 4.796 10.454 18.468 13.79 27.564 6.714 4.573-3.56 7.065-8.411 8.306-13.975.311-1.396.596-2.791.894-4.19.292.625.382 1.227.441 1.833.638 6.584 4.054 10.525 10.525 11.969 6.141 1.373 12.227.732 18.254-.777 10.001-2.5 18.183-8.012 25.293-15.292.249-.256.512-.522.82-.687 3.571-1.904 7.142-3.796 10.732-5.661.305-.159.785-.204 1.099-.084 7.074 2.824 13.659 6.438 19.242 11.727 5.791 5.479 10.37 11.872 14.11 18.861 4.514 8.446 8.905 16.96 13.335 25.455 2.939 5.638 6.157 11.156 8.707 16.966 5.512 12.54 7.59 25.659 5.363 39.294-.69 4.203-1.97 8.225-4.523 11.73-2.386 3.267-5.581 4.964-9.641 4.427-2.233-.295-4.505-.817-6.582-1.662-7.016-2.856-12.641-7.649-17.645-13.229-.23-.259-.395-.58-.586-.871.337-.081.667-.208 1.008-.23 7.093-.45 11.225-4.528 13.429-10.956 1.341-3.916 1.493-7.935.93-11.996-.243-1.742-.59-3.468-.917-5.373.486.279.858.477 1.218.697 3.96 2.464 7.917 4.935 11.877 7.406.34.208.667.444 1.03.596.788.334 1.439.075 1.863-.628.409-.667.302-1.334-.281-1.862-.318-.288-.7-.509-1.067-.745-9.9-6.37-19.971-12.449-30.276-18.133-.457.952-.93 1.895-1.416 2.837 4.024 2.264 8.043 4.541 12.051 6.83.464.263.976.723 1.131 1.199 1.559 4.828 2.528 9.77 1.653 14.829-.379 2.202-1.173 4.404-2.161 6.419-1.848 3.773-5.13 5.544-9.272 5.784-2.413.14-4.315-.764-5.706-2.711a109.759 109.759 0 0 1-8.789-14.531c-.661.894-1.322 1.781-1.999 2.668 1.024 1.966 2.071 3.919 3.198 5.823 4.777 8.071 10.305 15.568 17.574 21.617 4.851 4.039 10.114 7.374 16.348 8.874 7.36 1.771 13.028-.67 16.806-7.222.506-.874.956-1.784 1.358-2.714 2.045-4.702 2.929-9.677 3.208-14.755.577-10.531-1.024-20.752-4.67-30.652-2.407-6.539-5.723-12.634-9.099-18.7-.34-.612-.768-1.149.528-1.03v-.003zm-69.721-48.435c-7.609 6.852-16.426 11.098-26.644 12.283-3.393.396-6.785.409-10.149-.333-5.496-1.211-8.046-4.026-8.494-9.609-.152-1.901-.022-3.825-.013-5.739 0-.783.324-1.327 1.076-1.709 2.716-1.383 5.61-2.08 8.617-2.403.574-.062.774.155.885.654.564 2.503 1.16 4.997 1.688 7.507.065.298-.159.741-.386 1-.447.515-1.024.917-1.484 1.425-.593.655-.609 1.396-.013 2.054.564.618 1.306.706 1.958.2a29.493 29.493 0 0 0 2.679-2.364c.681-.677.629-1.545.422-2.442-1.88-8.2-3.74-16.409-5.603-24.616-.259-1.127-.499-2.257-.762-3.384-.123-.531-.013-.774.606-.82 6.002-.433 11.449-2.61 16.699-5.382l.191-.097c.995-.59 1.306-1.425.839-2.244-.44-.774-1.244-.904-2.278-.467-3.188 1.35-6.316 2.912-9.605 3.951-6.348 2.002-12.635 1.782-18.601-1.509-6.973-3.844-10.544-9.978-11.727-17.656-1.264-8.19.227-16.112 2.437-23.965.567-2.011 1.004-4.061 1.435-6.108.14-.651.389-1.037.989-1.4 2.537-1.534 5.078-1.389 7.686-.258a4.273 4.273 0 0 1 2.586 4.216c-.045.654-.262.483-.658.256-.683-.395-1.377-.829-2.125-1.046-1.621-.466-3.497.515-3.416 1.882.081 1.35.421 2.665.34 4.067-.055.943 1.212 1.354 2.223.913 1.206-.524 1.993-1.972 1.906-3.504-.013-.24-.052-.476-.081-.758 1.581.881 1.633.995 1.127 2.543-.946 2.892-2.534 5.424-4.423 7.782-.949 1.185-.946 1.7.029 2.837.613.716 1.238 1.412 1.864 2.115.489.55 1.066.816 1.701.281.632-.53.483-1.13.019-1.72-.57-.725-1.529-1.45-1.565-2.208-.032-.716.94-1.457 1.436-2.212 2.414-3.656 4.151-7.526 3.859-12.06-.091-1.383-.376-2.636-1.481-3.592-.24-.207-.518-.479-.583-.767-.314-1.438-1.449-1.866-2.641-2.27-2.353-.804-4.709-1.13-7.103-.201-.529.204-.707.103-.619-.509.165-1.175.505-2.16 1.477-2.998 5.043-4.356 10.464-7.983 17.117-9.392 4.637-.985 9.32-1.156 14.028-.726.315.03.807.418.853.693.709 4.606 1.361 9.217 2.019 13.829.019.14-.02.285-.033.427-1.675-.53-3.328-1.185-5.039-1.56-2.767-.606-5.545-.276-8.273.391-.998.243-1.468.981-1.293 1.82.181.884.962 1.37 1.999 1.124 4.592-1.078 8.918-.525 12.882 2.115.476.32.871.923 1.075 1.48 1.481 4.064 2.771 8.206 4.385 12.219 1.128 2.795 2.845 5.318 5.24 7.222 1.196.955 2.618 1.642 3.979 2.374.506.268.58.392.149.796-3.104 2.928-2.109 2.925-.664 5.665.256.476.464 1.049.859 1.36.35.272 1.069.456 1.387.275.311-.181.547-.955.421-1.331-.285-.842-.791-1.62-1.26-2.387-.321-.528-.244-.89.171-1.33 1.39-1.478 2.936-2.278 5.091-2.019 2.055.253 2.103.098 1.701 2.148-.563 2.901-1.429 5.71-3.496 7.928-.797.858-1.779 1.593-2.793 2.18-1.229.705-2.136.491-3.141-.51-.482-.479-.865-1.062-1.302-1.59-.564-.683-1.274-.855-2.026-.391-.81.502-1.03 1.344-.463 2.053a25.626 25.626 0 0 0 3.04 3.174c.46.408.713.612.508 1.289-1.824 6.026-3.227 12.15-3.898 18.42-.489 4.583-.668 9.178.596 13.677 1.102 3.912 3.195 6.972 7.473 7.902.914.197 1.854.281 2.91.434-.204.239-.356.453-.544.625h.022zm68.172 46.55c-.104.101-.473.111-.557.013-.217-.23-.347-.544-.499-.832-3.753-7.215-7.493-14.434-11.258-21.643-3.105-5.943-6.64-11.604-10.953-16.766-6.18-7.39-13.743-12.88-22.6-16.62-.664-.282-1.374-.408-.716-1.438.194-.301-.039-1.114-.344-1.435-.304-.32-.956-.437-1.445-.417-.389.012-.771.359-1.144.576-3.632 2.089-7.223 4.265-10.914 6.247-2.437 1.312-5.078 2.05-7.923 1.891-2.952-.165-4.965-1.561-6.083-4.281-1.325-3.222-1.497-6.607-1.374-10.02.263-7.348 1.896-14.45 3.827-21.504.373-1.367.888-2.19 2.282-2.801 2.673-1.176 4.42-3.43 5.723-6.01 1.319-2.62 1.963-5.429 2.3-8.314.075-.658.328-.89.973-1.027a63.844 63.844 0 0 0 4.831-1.211c1.147-.334 1.591-1.098 1.313-1.995-.282-.9-1.076-1.24-2.22-.897-3.237.975-6.53 1.587-9.923 1.567-4.741-.022-8.428-1.926-10.992-5.99-2.699-4.279-4.248-9.007-5.557-13.83-1.838-6.78-3.004-13.685-3.562-20.69-.142-1.808-.719-2.4-2.663-2.614-12.635-1.392-23.981 1.454-33.618 10.101-1.734 1.555-3.007 3.138-3.312 5.574-.765 6.14-2.761 12.027-4.06 18.058-1.578 7.351-2.142 14.76-.101 22.125 2.871 10.35 9.618 16.705 20.131 19.024.142.029.285.058.427.077 2.353.35 2.34.353 2.846 2.643 1.046 4.725 2.077 9.453 3.175 14.168.224.953-.058 1.183-.939 1.276a25.797 25.797 0 0 0-8.031 2.151c-3.752 1.694-6.137 4.482-7.002 8.537-.422 1.975-.781 3.973-1.323 5.916-1.156 4.172-3.214 7.821-6.656 10.555-7.926 6.292-22.139 3.102-24.103-9.437-.379-2.416.12-4.703 1.455-6.743.969-1.477 2.097-2.85 3.156-4.272.671-.897 1.368-1.778 2.022-2.684 2.133-2.951 2.476-6.111.999-9.431-.837-1.878-1.786-3.711-2.664-5.573-3.746-7.948-2.437-15.837 3.697-22.162a44.853 44.853 0 0 1 3.17-2.96c4.297-3.617 6.163-8.423 6.967-13.802.304-2.024.11-3.929-.519-5.862-1.756-5.399-2.741-10.946-2.495-16.636.094-2.258.438-4.534.943-6.743 1.128-4.913 4.239-8.456 8.299-11.25 4.576-3.149 9.761-4.83 15.075-6.164 5.707-1.428 11.517-2.114 17.898-2.137 6.607.039 13.552 1.027 20.253 3.488 6.491 2.38 12.123 6.056 16.508 11.396 3.714 4.521 7.246 9.204 10.658 13.955 4.096 5.7 6.241 12.261 7.868 19.017.558 2.315 1.261 4.598 1.938 6.882 1.905 6.425 5.648 11.558 11.248 15.198 4.054 2.64 8.354 4.903 12.47 7.452 3.561 2.205 7.158 4.391 10.476 6.93 3.542 2.711 6.102 6.26 6.968 10.791.505 2.653.006 5.25-.389 7.86a58.427 58.427 0 0 0-.58 5.379c-.12 2.05.512 3.938 1.675 5.616.804 1.156 1.646 2.299 2.593 3.339 4.332 4.748 5.33 10.434 4.74 16.565-.79 8.193-4.523 14.826-10.765 20.114-.596.506-1.056 1.163-1.617 1.71h-.003zM68.415 141.793c-.638.44-1.315.391-1.886-.149-.31-.295-.563-.658-.82-1.008-4.371-5.991-8.742-11.979-13.108-17.97-.693-.959-.693-.965-1.189.129-2.06 4.528-5.862 6.733-10.5 7.721-5.385 1.147-10.411.11-15.107-2.707-.366-.217-.735-.428-1.102-.642-.07.068-.142.133-.213.201.81 2.27 1.597 4.554 2.437 6.814 3.02 8.145 6.3 16.186 10.888 23.59 2.2 3.549 4.883 6.8 7.353 10.185.233.32.538.602.719.945.356.693.237 1.357-.366 1.856-.606.496-1.287.515-1.886 0-.438-.372-.804-.829-1.186-1.263-5.827-6.62-9.955-14.266-13.53-22.252-4.685-10.48-8.273-21.342-11.51-32.346-1.056-3.589-2.66-7.018-4.015-10.519-.191-.496-.383-.991-.574-1.49a62.843 62.843 0 0 0 2.907-.233c.1-.013.204-.019.305-.032a600.403 600.403 0 0 0 3.36 8.517c1.345 3.336 2.171 6.882 3.208 10.341.237.799.467 1.463 1.481 1.586.45.055.859.502 1.27.794 3.935 2.769 8.206 4.411 13.112 3.912 2.41-.246 4.673-.92 6.727-2.241 2.447-1.567 3.662-3.938 4.278-6.662.084-.372-.169-.9-.409-1.263-2.138-3.222-4.313-6.428-6.474-9.638-.204-.298-.412-.599-.574-.919-.402-.804-.227-1.506.512-1.986.749-.485 1.452-.32 2.02.363.184.224.336.473.502.709 7.774 10.976 15.548 21.958 23.322 32.933.188.266.402.525.538.813.356.754.2 1.435-.486 1.914l-.004-.003z" fill="#000"/>
        <path d="M47.54 13.32c-.14.437-.707.959-1.16 1.037-2.168.366-4.366.595-6.546.877-1.75-.097-2.689.713-2.816 2.43-.075 1.08-.075 2.179-.282 3.234-.091.457-.613.83-.937 1.238-.314-.373-.823-.706-.91-1.13-.419-1.94-.688-3.91-1.093-5.853-.07-.346-.495-.829-.813-.88-1.426-.237-2.868-.367-4.31-.486-1.153-.098-2.323-.056-3.458-.234-.47-.074-.875-.563-1.309-.864.37-.386.684-1.014 1.118-1.111 1.582-.36 3.195-.541 4.806-.78.357-.052.723-.05 1.08-.088 1.862-.207 1.882-.204 2.203-2.095.392-2.352.752-4.71 1.13-7.06.043-.25.02-.567.166-.73.301-.34.687-.79 1.066-.822.279-.026.807.502.888.855a166.233 166.233 0 0 1 1.51 7.653c.11.622.37.803.91.981 2.645.858 5.286 1.74 7.898 2.701.395.146.937.858.852 1.13l.007-.003zM109.402 50.553c-.376.422-.697 1.128-1.135 1.209a27.356 27.356 0 0 1-4.51.414c-.824.013-1.092.188-1.024 1.02.074.936.016 1.879.016 2.814.048 0 .094.007.146.007-.14 1.438-.26 2.872-.422 4.31-.074.664-.414 1.312-1.144 1.13-.414-.1-.884-.705-.998-1.165-.512-2.102-.917-4.23-1.332-6.354-.178-.923-.66-1.29-1.62-1.357-1.685-.123-3.367-.363-5.032-.66-.409-.072-.742-.558-1.109-.856.373-.327.704-.848 1.128-.942 1.653-.37 3.331-.635 5.01-.875.658-.093.93-.356.966-1.02.11-1.836.288-3.672.411-5.509.042-.654.114-1.276.91-1.366.775-.088 1.041.489 1.258 1.1.583 1.669 1.144 3.35 1.808 4.985.169.411.652.842 1.076.968 1.449.44 2.952.693 4.401 1.137.46.143.804.664 1.199 1.01h-.003zM102.133 78.486c-.584.521-.862.955-1.241 1.069-.785.24-1.624.433-2.437.417-.869-.02-1.15.35-1.238 1.095-.15 1.257-.243 2.523-.502 3.76-.094.466-.506 1.127-.888 1.214-.775.178-.97-.518-1.04-1.182-.124-1.22-.305-2.438-.396-3.662-.071-.985-.512-1.493-1.513-1.59-.97-.091-1.935-.266-2.897-.428-.354-.058-.749-.104-1.034-.288-.363-.23-.635-.603-.943-.914.34-.269.648-.712 1.02-.777 1.206-.21 2.434-.395 3.653-.376.923.017 1.212-.34 1.277-1.146.087-1.078.204-2.157.31-3.235.059-.593.127-1.23.908-1.25.762-.02.885.553.963 1.182.158 1.292.333 2.578.59 3.847.067.314.447.722.751.797 1.05.252 2.145.317 3.195.57.441.107.81.492 1.455.907l.007-.01z" fill="#FFCE1F"/>
        <path d="M172.421 62.876c-2.431-.34-4.878-.553-6.854-.77-1.961.139-3.448.155-4.91.369a58.2 58.2 0 0 0-5.732 1.13c-.383.097-.878.845-.83 1.237.042.34.791.871 1.186.839.694-.058.843.314 1.141.728 2.087 2.915 4.88 4.366 8.5 3.819 3.516-.535 6.115-2.65 8.373-5.218.794-.903.357-1.965-.878-2.134h.004zm-2.616 2.432c-2.268 1.85-4.689 3.44-7.767 2.51-1.173-.356-2.194-1.279-3.221-2.037-.584-.43-.373-.748.33-.813 2.003-.19 4.009-.411 5.574-.576 1.928.146 3.399.252 4.874.372.149.013.288.133.437.204-.074.117-.126.26-.23.34h.003zM180.195 38.759c2.126-.285 3.684.78 4.864 2.58.334.51.687 1.121.01 1.484-.299.162-1.125-.09-1.319-.398-.697-1.111-1.805-1.082-2.849-1.257-.564-.094-.56.24-.421.664.46 1.373-.139 2.468-.992 3.462-.547.641-1.357.952-2.031.486-.506-.353-.804-1.104-1.018-1.74-.123-.362.159-.844.146-1.269-.01-.398-.055-.87-.276-1.172-.44-.606-.272-1.075.133-1.558.953-1.133 2.223-1.402 3.75-1.282h.003z" fill="#000"/>
        <path d="M195.095 158.102c-.833.379-1.63.039-2.107-.946-.363-.748-.719-1.502-.998-2.283-.259-.728-.684-.952-1.455-.929-6.368.178-12.735.311-19.103.466-7.343.178-14.686.382-22.029.554-10.928.253-21.855.486-32.779.725-1.51.033-1.558.046-1.17 1.506 1.728 6.49 3.474 12.98 5.244 19.461 1.101 4.041 2.284 8.064 3.37 12.109.253.936.661 1.211 1.64 1.204 11.18-.1 22.359-.158 33.543-.184 1.108 0 2.236.204 3.325.45 2.035.45 3.626 1.603 4.698 3.397.483.803.963 1.636 1.267 2.516 2.528 7.255 6.073 14.059 9.265 21.022 2.923 6.373 5.648 12.834 8.458 19.256.13.298.25.602.347.91.285.904-.01 1.603-.878 1.943-.875.34-1.569 0-1.967-.842-.321-.686-.574-1.402-.885-2.095-4.475-9.874-8.97-19.739-13.423-29.626-1.02-2.27-1.908-4.605-2.819-6.921-.227-.57-.466-.855-1.157-.848-24.21.294-48.42.563-72.63.845-2.032.022-1.864-.117-1.106 1.674 3.092 7.326 6.174 14.651 9.259 21.98.113.266.207.541.304.813.376 1.104.078 1.937-.813 2.247-.862.305-1.585-.074-2.019-1.13-1.205-2.94-2.346-5.91-3.59-8.835-2.065-4.854-4.213-9.673-6.27-14.534-.662-1.561-1.271-3.161-1.667-4.8-.716-2.96.474-5.11 3.461-5.696 2.816-.557 5.733-.7 8.614-.816 6.977-.282 13.96-.441 20.94-.651 1.284-.039 1.274-.042.943-1.241-2.796-10.169-5.616-20.334-8.367-30.516-.586-2.16-1.001-4.366-.619-6.643.357-2.14 1.536-3.61 3.61-4.168 1.562-.414 3.199-.537 4.796-.825.305-.055.584-.266.872-.402-.308-.107-.619-.317-.924-.311-5.35.204-10.703.431-16.053.654-6.614.276-13.232.551-19.849.829-.865.039-1.733.091-2.599.136l-34.168 1.39c-1.481.061-2.965.178-4.446.175-.856 0-1.057.21-.797 1.065 1.704 5.596 3.37 11.209 5.042 16.818 4.128 13.845 8.15 27.728 12.43 41.524 1.796 5.788 4.13 11.41 6.236 17.1.443 1.195.255 2.027-.636 2.406-.884.382-1.73.019-2.177-1.182-2.327-6.263-4.81-12.478-6.844-18.835-3.01-9.389-5.71-18.878-8.49-28.341-.286-.965-.645-1.298-1.682-1.292-7.418.055-14.84.045-22.257.023-.858 0-1.098.155-.95 1.078.921 5.736 2.639 11.254 4.521 16.721 3.387 9.838 6.87 19.645 10.325 29.457.557 1.587.418 2.39-.584 2.779-1.007.395-1.724-.104-2.297-1.645-4.893-13.1-9.65-26.252-13.442-39.721-.924-3.284-1.507-6.703-1.85-10.101-.354-3.504 1.396-5.298 4.938-5.638a55.71 55.71 0 0 1 4.767-.217c4.884-.036 9.774-.029 14.657-.039.89 0 1.205-.439.943-1.318-1.886-6.296-3.807-12.585-5.625-18.903-.383-1.328-.62-2.789-.51-4.155.276-3.469 2.412-5.467 6.213-5.959 1.896-.246 3.82-.343 5.733-.408 16.744-.544 33.49-1.017 50.232-1.629 4.404-.159 8.788-.774 13.185-1.108a18.461 18.461 0 0 1 3.782.123c1.932.259 3.545 1.247 4.424 2.983.774 1.525 1.276 3.203 1.766 4.855.188.634.402.799 1.014.764 5.418-.305 10.84-.599 16.261-.878 5.311-.272 10.623-.586 15.934-.767 8.066-.276 16.135-.447 24.201-.661.398-.013.842-.117 1.182.016.532.211 1.232.486 1.426.926.198.438.029 1.25-.291 1.646-.422.524-.347.829-.052 1.311.92 1.487 2.359 1.921 3.973 2.063.68.058 1.354.204 2.031.224.273.006.59-.175.824-.353 1.082-.852 2.057-.687 2.637.557a153.719 153.719 0 0 1 2.437 5.563c.399.953.094 1.759-.693 2.118l-.003.01zM221.975 220.965c-1.782 0-3.376.042-4.964-.016-.898-.032-1.112.178-.81 1.079 1.542 4.627 3.033 9.271 4.54 13.909.522 1.61.324 2.416-.671 2.756-1.043.356-1.708-.188-2.252-1.859l-17.234-52.976a2.15 2.15 0 0 0-.029-.103c-.473-1.493-.236-2.329.752-2.646.995-.318 1.685.213 2.165 1.697 3.675 11.302 7.356 22.605 10.998 33.92.292.907.678 1.182 1.65 1.214 5.168.162 10.337.357 15.493.7 3.078.204 5.327 1.92 6.458 4.764 1.147 2.879 2.055 5.858 3.008 8.812 5.068 15.684 10.616 31.194 17.068 46.369.615 1.451 1.186 2.98 1.409 4.528.477 3.3-1.808 6.163-5.139 6.37-1.617.1-3.289-.272-4.9-.609-1.06-.22-1.452-1.107-1.15-1.972.288-.826 1.024-1.14 2.048-.92.949.204 1.905.499 2.864.531 2.499.078 3.85-1.583 3.059-3.931-.865-2.562-1.986-5.04-3.007-7.546a569.329 569.329 0 0 1-16.724-46.839 36.89 36.89 0 0 0-1.329-3.55c-.8-1.868-2.281-2.856-4.287-3.018-3.066-.246-6.131-.453-9.012-.664h-.004z" fill="#FFCE1F"/>
        <path d="M169.54 178.43c-.525-.12-1.16-.094-1.549-.392-.859-.657-1.468-.314-2.285.107-1.827.946-3.655.735-5.275-.547-.528-.418-.976-.547-1.653-.479-.431.042-1.108-.337-1.312-.723-.14-.259.356-.851.56-1.298.153-.331.444-.677.418-.994-.149-1.72.198-3.245 1.543-4.418 1.351-1.182 3.023-.903 3.97.628 1.062 1.727.68 3.799-.93 5.143-.227.191-.393.454-.587.684.305.097.606.252.917.275 1.089.078 1.812-.45 2.395-1.36.311-.489.839-1.043 1.358-1.147.777-.158 1.05.599 1.202 1.257.162.699.664 1.026 1.273.871.892-.223 1.873-.46 2.567-1.004 1.095-.858 2.009-1.953 2.946-2.996.502-.56 1.001-1.036 1.743-.534.8.544.613 1.299.078 1.872-1.199 1.289-2.366 2.649-3.756 3.702-.988.748-3.584 1.408-3.626 1.347l.003.006zm-8.856-5.214c.068.195.168.473.269.755.272-.146.573-.259.813-.45.185-.149.421-.412.402-.6-.055-.521-.23-1.029-.357-1.541-.324.33-.683.631-.956.997-.133.179-.103.48-.168.839h-.003zM168.133 160.049c-4.514.116-9.032.242-13.546.349-1.166.029-1.763-.421-1.772-1.269-.01-.842.586-1.312 1.727-1.347 9.028-.269 18.059-.541 27.088-.804.356-.009.826-.097 1.053.088.405.327.891.816.92 1.266.026.379-.473.92-.878 1.163-.363.217-.907.158-1.374.171-4.407.123-8.814.237-13.218.357v.032-.006zM157.287 166.007c-.36 0-.84.091-1.054-.1-.382-.343-.823-.852-.852-1.312-.045-.806.584-1.169 1.377-1.182 2.386-.039 4.771-.09 7.156-.12 4.083-.045 8.166-.074 12.249-.11.181 0 .363 0 .541.007.807.029 1.329.424 1.348 1.243.02.875-.509 1.319-1.367 1.338-2.421.052-4.842.094-7.262.129-.94.013-9.035.107-12.143.104l.007.003z" fill="#fff"/>
        <path d="M243.295 181.866a310.796 310.796 0 0 0-2.845-1.548c-.612-.33-1.16-.958-1.51-1.574-1.296-2.299-2.404-4.702-3.746-6.972-9.754-16.478-23.983-26.508-42.98-29.552-2.679-.43-5.421-.508-8.026.554-2.048.836-3.017 2.422-2.852 4.502.155 1.969 1.397 3.462 3.49 3.896 1.371.285 2.793.372 4.2.404 3.211.072 6.095 1.098 8.753 2.834.197.126.343.334.515.502-.178.1-.344.217-.528.304-4.472 2.125-8.987 4.159-13.39 6.406-1.75.894-3.374 2.125-4.842 3.44-1.844 1.658-1.824 3.951.029 5.596.934.829 2.201 1.315 3.38 1.81.571.24.917.366.827 1.082-.149 1.12.272 2.16 1.14 2.791 1.06.771 2.23 1.513 3.468 1.876 1.215.349 2.573.217 3.869.272.408.016.729-.068.787.563.243 2.688 1.838 4.534 4.521 4.842 1.575.175 3.244-.023 4.809-.35 2.362-.492 4.683-1.215 7.006-1.898.933-.272 1.238.02 1.439.939.797 3.657 2.051 7.145 3.979 10.377 2.593 4.339 6.339 6.946 11.355 7.688.707.104 1.118.414 1.458 1.075.496.955.986 1.911 1.481 2.866.182.353.367.706.548 1.059.674-.884 1.338-1.775 1.999-2.668-.175-.34-.34-.687-.512-1.03-.343-.703-.68-1.409-1.011-2.118-.573-1.237-1.341-1.956-2.741-2.096-5.211-.514-8.769-3.387-10.837-8.057-1.105-2.494-1.837-5.156-2.744-7.74-.25-.713.022-1.02.742-1.02.288 0 .58-.016.868-.046.995-.097 1.591-.719 1.559-1.59-.032-.874-.674-1.528-1.698-1.402-2.826.343-5.661.706-8.452 1.25-2.122.418-4.173 1.176-6.276 1.684-1.161.282-2.376.366-3.474-.324-1.122-.703-1.254-1.405-.221-2.202 1.079-.829 2.256-1.584 3.49-2.157 4.732-2.205 9.78-3.326 14.936-3.899a44.952 44.952 0 0 1 6.805-.22c2.087.081 2.871 1.026 2.94 3.138.029.933-.117 1.869-.185 2.808-.081 1.153.334 1.826 1.218 1.972.921.155 1.659-.395 1.783-1.567.149-1.468.301-2.97.145-4.421-.346-3.213-2.66-5-6.452-5.149-4.993-.195-9.9.557-14.686 1.862-3.331.91-6.572 2.17-9.825 3.358-2.46.9-4.89 1.814-7.58 1.315-.071-.013-.155 0-.214-.039-.748-.453-1.49-.913-2.239-1.373.493-.622.881-1.389 1.504-1.836 1.254-.907 2.573-1.775 3.979-2.41 5.548-2.516 11.264-4.53 17.337-5.359 3.442-.473 6.783-.068 10.007 1.23.567.23 1.128.486 1.695.722 1.089.457 1.928.227 2.304-.634.379-.862.042-1.717-1.066-2.138-1.987-.758-3.996-1.49-6.051-2.027-1.383-.363-2.861-.366-4.293-.531-4.962.184-9.641 1.548-14.272 3.131-3.905 1.335-7.741 2.821-11.163 5.211-1.216.852-4.168.331-5.182-.754-.464-.502-.493-.969.036-1.39.907-.715 1.769-1.535 2.783-2.056 4.3-2.222 8.571-4.531 13.001-6.464 5.558-2.432 11.32-1.827 17.033-.405.842.207 1.656.602 2.505.68.602.055 1.464-.078 1.814-.476.577-.651.875-.492 1.381-.049 3.205 2.789 6.092 5.872 8.587 9.318 2.917 4.025 5.344 8.336 7.447 12.831.483 1.033 1.183 1.748 2.181 2.302 1.115.622 2.23 1.247 3.344 1.872.286.159.567.318.849.476.486-.939.96-1.885 1.417-2.837-.282-.152-.558-.311-.84-.46h-.01zm-31.647-27.385c-2.621-.252-5.256-.362-7.887-.434-.804-.022-1.433-.168-2.078-.67-2.971-2.322-6.205-4.136-10.006-4.657-1.536-.207-3.102-.24-4.654-.327-1.747-.101-2.515-.505-2.605-1.409-.094-.884.674-1.46 2.375-1.726 3.328-.515 6.559.126 9.767.891 7.155 1.7 13.701 4.744 19.631 9.226-1.51-.311-3.01-.748-4.54-.894h-.003zM75.489 224.327c12.486-.233 22.363-.405 32.24-.615 2.91-.062 5.46.89 7.832 2.467 5.571 3.705 11.129 7.433 16.731 11.092.675.441 1.595.732 2.392.719 19.648-.311 39.295-.664 58.943-1.023 7.307-.133 14.615-.324 21.925-.444a37.002 37.002 0 0 1 4.868.24c3.499.405 6.176 2.17 7.92 5.237a186.485 186.485 0 0 1 3.872 7.15c8.983 17.534 17.943 35.077 26.91 52.62.165.321.33.648.424.994.211.761-.055 1.383-.748 1.736-.733.369-1.433.23-1.922-.453-.292-.408-.496-.881-.726-1.331l-29.097-56.736c-.181-.353-.399-.693-.561-1.053-1.74-3.889-4.893-5.421-8.982-5.36-4.414.065-8.828.153-13.241.243-8.792.178-17.584.386-26.375.544-14.508.263-29.02.483-43.528.755-1.367.026-2.508-.321-3.642-1.088-5.451-3.689-10.972-7.277-16.41-10.985-2.469-1.684-5.101-2.355-8.076-2.277-12.985.347-25.976.515-38.96.913-9.003.279-17.996.855-26.995 1.244-3.01.129-5.071 1.428-6.403 4.174-1.812 3.741-3.834 7.378-5.687 11.096-.22.437-.11 1.191.113 1.677 7.388 16.173 14.806 32.334 22.22 48.497l7.37 16.063c.149.327.301.658.411 1.001.266.819-.045 1.444-.784 1.794-.742.35-1.426.172-1.902-.531-.201-.298-.344-.635-.493-.962-9.99-21.74-19.975-43.484-29.985-65.214-.586-1.27-.531-2.355.136-3.585 1.831-3.365 3.555-6.788 5.328-10.185.386-.739.78-1.467 1.183-2.196 1.552-2.834 3.982-4.346 7.168-4.576 4.653-.34 9.31-.69 13.97-.881 8.386-.34 16.78-.567 22.564-.758l-.003-.003z" fill="#000"/>
        <path d="M77.14 47.247c-.885.207-1.647-.282-1.874-1.338-.457-2.153-.859-4.32-1.26-6.486-.27-1.464-.253-1.458-1.786-1.461-14.398-.02-28.796-.042-43.19-.068-2.858-.006-5.716-.02-8.575-.026-1.338 0-1.345 0-.991 1.328.149.557.356 1.101.502 1.658.26.994-.097 1.755-.927 2.03-.833.28-1.701-.074-1.938-1.062-.499-2.056-1.101-4.145-1.18-6.24-.126-3.647 1.838-5.71 5.7-6.235 2.033-.278 4.107-.317 6.165-.333 5.933-.039 32.337.052 39.606.074.826 0 1.656.153 2.472.298 3.607.632 5.814 2.773 6.562 6.329.668 3.18 1.232 6.38 1.809 9.58.188 1.048-.247 1.745-1.093 1.942l-.003.01zM87.822 98.332c-.444 2.817-1.915 4.922-4.628 5.764-2.22.687-4.569 1.169-6.886 1.276-4.368.198-25.425.143-31.566.392-3.043.123-6.08.172-9.07-.531-3.03-.706-4.962-2.471-5.649-5.587-.69-3.105-1.474-6.188-2.216-9.284a42.91 42.91 0 0 0 3.467 1.195c.61 2.415 1.206 4.831 1.737 7.264.428 1.956 1.546 3.215 3.451 3.368 3.377.268 6.773.375 10.163.369 7.015-.013 14.028-.204 21.047-.204 4.232 0 8.47.327 12.654-.557 3.478-.735 4.82-2.206 4.489-5.755-.328-3.54-1.008-7.076-1.847-10.538-2.515-10.367-4.511-20.827-6.154-31.359a8.673 8.673 0 0 1-.107-1.078c-.026-.946.496-1.597 1.345-1.652.962-.062 1.497.476 1.662 1.367.227 1.24.386 2.497.583 3.747 1.734 10.959 4.08 21.795 6.718 32.57.736 3.015 1.3 6.078.807 9.23v.003z" fill="#FFCE1F"/>
        <path d="M110.287 168.618c-1.05-.256-2.09-.567-3.15-.794-.949-.204-1.312-.657-1.325-1.7-.046-3.222-1.663-5.551-4.518-6.976-1.4-.699-2.897-1.088-4.258.117-.988.871-1.02 2.442-.162 4.242 1.011 2.112 2.57 3.738 4.505 5.026.755.506.774.949-.081 1.238-.788.262-1.773.482-2.515.242-2.324-.754-4.595-1.68-6.84-2.649-1.534-.66-2.674-.149-2.817 1.429-.159 1.742-.564 2.186-2.275 1.667-2.369-.719-4.666-1.684-6.944-2.671-.532-.23-1.002-.898-1.238-1.471-.872-2.14-2.327-3.549-4.624-3.977-.98-.181-1.9-.013-2.434.975-.502.936-.201 1.804.457 2.487.852.881 1.782 1.691 2.738 2.455 1.147.917 1.157 1.655-.133 2.41-.486.285-1.082.579-1.614.557-1.75-.075-3.496-.272-5.236-.476-.69-.081-.966-.46-.956-1.26.045-3.184-2.434-5.881-5.299-5.888-2.589-.006-3.83 2.005-2.58 4.256.396.719.96 1.357 1.52 1.962.396.428.561.671.124 1.237-.817 1.059-.26 2.338 1.076 2.462.881.08 1.782-.124 2.68-.162.55-.023 1.15-.111 1.642.068 2.172.793 4.395 1.201 6.702 1.007 1.773-.149 3.406-.68 4.692-1.985.503-.515.914-1.445 1.455-1.519.626-.088 1.352.566 2.035.89.328.156.658.301.995.434 2.162.858 4.356 1.581 6.737 1.341 1.313-.13 2.379-.706 2.953-1.911.333-.693.641-.609 1.237-.375 1.579.615 3.163 1.272 4.803 1.648 2.719.622 5.266.379 7.081-2.176.142-.201.693-.233 1.017-.162 1.374.298 2.719.732 4.1.981 1.046.188 1.727-.327 1.879-1.179.159-.907-.36-1.548-1.432-1.81l.003.01zm-47.15-.606c-.253-.301-.503-.602-.752-.904l.123-.123c.262.285.531.574.797.862-.055.052-.11.107-.165.162l-.003.003zm39.071-2.513c-.894-1.104-1.785-2.215-2.68-3.32 1.796.282 2.939 1.701 2.962 3.187-.094.045-.188.091-.282.133zM75.555 69.117a9192.704 9192.704 0 0 0-4.664-24.354c-.317-1.652-.917-2.121-2.611-2.092-6.362.113-12.723.23-19.087.363-1.96.038-2.687.936-2.334 2.863 1.478 8.021 2.962 16.04 4.46 24.059.314 1.7.968 2.186 2.66 2.176 3.182-.02 16.193-.512 19.518-.547 1.591-.013 2.346-.94 2.054-2.468h.004zm-4.223-.522c-2.706-.025-13.406.392-16.044.431-.748.013-1.06-.178-1.202-.971a2162.015 2162.015 0 0 0-3.866-20.756c-.181-.952.013-1.247 1.014-1.26 5.24-.062 10.483-.168 15.723-.31.85-.024 1.093.287 1.238 1.065 1.29 6.953 2.612 13.906 3.95 20.85.146.747-.09.955-.81.948l-.003.003zM153.959 180.548a12693.1 12693.1 0 0 0-6.082-21.691c-.5-1.772-.969-2.115-2.868-2.102-7.272.055-14.541.11-21.813.168-1.837.016-2.453.813-1.941 2.546 2.227 7.513 4.466 15.02 6.708 22.527.428 1.431.921 1.775 2.437 1.775 3.578 0 17.901-.37 21.482-.396 2.071-.012 2.638-.799 2.071-2.827h.006zm-3.791.256c-6.187.045-12.37.133-18.553.262-.9.017-1.241-.275-1.484-1.114a1731.171 1731.171 0 0 0-5.726-19.201c-.285-.926-.149-1.195.839-1.182 3.179.042 6.365.016 9.547.016v-.12c3.111 0 6.219.026 9.33-.019.816-.013 1.212.201 1.442 1.03a2392.03 2392.03 0 0 0 5.399 19.185c.226.787.207 1.137-.794 1.143z" fill="#fff"/>
        <path d="M258.172 244.95c.979.019 1.368.654 1.595 1.489.926 3.414 1.866 6.824 2.796 10.237 5.042 18.496 10.082 36.988 15.121 55.483.453 1.665.191 2.51-.872 2.785-1.053.272-1.688-.314-2.149-2.005-5.93-21.805-11.857-43.61-17.784-65.418-.428-1.577.072-2.565 1.29-2.571h.003z" fill="#000"/>
        <path d="M156.203 210.706c-.201-.638-.836-.729-1.452-.451-.758.341-1.481.8-2.269 1.027-.991.285-2.041.557-3.062.541-1.588-.026-2.126-1.318-1.325-2.639a13.82 13.82 0 0 0 1.328-2.941c.25-.764.208-1.645-.657-2.095-.869-.451-1.618-.075-2.243.563-1.001 1.023-1.491 2.267-1.601 3.695-.032.421-.191 1.004-.496 1.195-2.21 1.396-4.543 2.585-7.164 2.928-.736.097-1.582-.324-2.311-.648-.587-.259-.645-.722-.191-1.308.502-.648.998-1.373 1.221-2.141.15-.524.023-1.383-.333-1.729-.36-.353-1.209-.46-1.753-.318-1.559.409-2.428 1.84-2.457 3.55-.006.453-.126 1.091-.434 1.318-1.296.965-2.612 1.956-4.057 2.659-1.799.877-2.541.502-3.458-1.279-.583-1.131-1.251-1.254-2.375-.619-1.092.615-2.217 1.25-3.406 1.584-.668.184-1.533-.143-2.252-.395-.6-.208-.755-.616-.211-1.225.862-.965 1.688-1.988 2.379-3.086a2.6 2.6 0 0 0-.389-3.287c-.846-.81-2.013-.91-3.221-.285-1.974 1.023-3.092 3.491-2.596 5.706.331 1.458.198 1.781-1.212 2.326-.48.187-1.053.2-1.585.191-.729-.017-1.338.116-1.448.945-.107.833.476 1.137 1.163 1.292 1.494.34 2.797-.152 3.96-1.023.554-.418.914-.46 1.471.029 1.112.981 2.483 1.428 3.934 1.111 1.183-.259 2.295-.816 3.458-1.179.282-.087.804-.042.937.146 1.319 1.817 3.137 2.154 5.016 1.373 1.711-.709 3.283-1.781 4.851-2.798.548-.353.82-.476 1.339.026.994.968 2.229 1.457 3.658 1.428.567-.094 1.173-.091 1.701-.291 2.048-.8 4.09-1.623 6.093-2.526.593-.263.904-.36 1.306.265.68 1.056 1.72 1.668 2.971 1.781 2.534.23 4.757-.725 6.828-2.04.301-.194.464-.981.337-1.383l.007.007zm-42.445-.392c-.182-1.335.376-2.513 1.26-2.921.166-.078.386-.042.584-.055-.007.2.068.456-.026.592-.548.765-1.135 1.496-1.815 2.381l-.003.003z" fill="#FFE380"/>
        <path d="M87.881 182.346c-8.464.175-16.929.35-25.39.518-.36.006-.803.078-1.056-.1-.34-.237-.703-.671-.733-1.047-.026-.31.357-.751.671-.965.263-.178.694-.149 1.05-.155 16.893-.321 33.783-.638 50.676-.955.071 0 .146-.004.217-.007.823-.003 1.737-.026 1.724 1.114-.013 1.04-.852 1.075-1.656 1.092-8.5.165-17 .34-25.5.511v-.01l-.003.004zM89.174 188.357l-24.832.66c-.253.007-.506.01-.759.016-.77.02-1.432-.191-1.429-1.088 0-.887.658-1.085 1.43-1.107 9.614-.272 19.229-.551 28.844-.826 7.3-.207 14.602-.411 21.906-.619 1.484-.042 2.135.282 2.067 1.108-.1 1.247-1.095 1.137-1.957 1.159-8.422.23-16.844.457-25.267.684v.013h-.003zM61.38 91.99c-4.806.198-9.612.402-14.421.597-1.653.067-2.411-.373-2.476-1.419-.068-1.066.616-1.6 2.294-1.668 8.095-.324 16.194-.628 24.288-.942 1.773-.068 3.542-.156 5.315-.208 1.377-.038 2.07.473 2.093 1.47.023.972-.576 1.503-1.915 1.565-5.058.223-10.12.421-15.179.625v-.026.007zM45.228 85.478c-.253 0-.509.006-.758-.02-.846-.087-1.33-.586-1.371-1.412-.045-.877.405-1.476 1.306-1.567 1.008-.1 2.022-.126 3.033-.146 9.08-.19 18.16-.375 27.237-.56.181-.003.363-.01.541 0 1.024.065 1.624.635 1.61 1.522-.012.858-.644 1.467-1.652 1.5a442.69 442.69 0 0 1-8.03.2c-2.424.033-17.036.48-21.92.48l.004.003z" fill="#fff"/>
        <path d="m156.23 233.327-17.132.359c-.36.007-.801.12-1.067-.039-.408-.243-.9-.651-.965-1.052-.049-.301.46-.813.839-1.024.344-.191.843-.132 1.277-.142 11.53-.243 23.06-.479 34.59-.716h.217c.846-.01 1.834-.094 1.853 1.095.02 1.192-1.001 1.146-1.827 1.162-5.927.123-11.854.23-17.785.344v.013zM153.394 226.921c-5.891.129-11.782.262-17.67.385-.357.007-.785.049-1.054-.123-.32-.204-.719-.628-.703-.936.02-.375.386-.79.703-1.075.172-.155.551-.097.84-.103 11.818-.243 23.636-.48 35.455-.719.217-.004.492-.085.638.019.425.301 1.037.622 1.131 1.033.156.693-.398 1.108-1.124 1.13-1.698.059-3.396.133-5.095.14-4.371.019-13.121.168-13.121.252v-.003zM149.872 221.053c-5.82.11-11.637.223-17.457.333-.252.004-.505.01-.758-.003-.658-.039-1.137-.343-1.147-1.043-.01-.738.447-1.117 1.17-1.136 2.239-.068 4.481-.133 6.721-.179 9.721-.2 19.443-.395 29.165-.586.321-.006.719-.068.953.091.346.236.816.664.79.975-.032.392-.47.787-.81 1.098-.146.132-.486.061-.739.068-5.962.126-11.925.252-17.888.375v.01-.003z" fill="#FFE380"/>
        <path d="M56.007 78.687c-.395 0-.807.045-1.186-.033-.752-.155-1.215-.641-1.25-1.425-.033-.78.35-1.315 1.12-1.506.347-.087.713-.12 1.07-.13 5.778-.145 11.553-.287 17.33-.424 1.32-.032 2.061.528 2.071 1.52.01.98-.69 1.56-2.045 1.57-2.962.026-14.368.43-17.113.43l.003-.002zM184.284 217.176c-.111 0-.218 0-.324.003-.743.01-1.316-.252-1.358-1.068-.042-.833.554-1.147 1.264-1.182 2.022-.098 4.047-.153 6.072-.217 3.581-.11 7.159-.214 10.74-.321.071 0 .145 0 .217-.003.755-.023 1.439.133 1.471 1.043.032.897-.606 1.127-1.381 1.149-2.838.091-16.053.596-16.701.596zM194.703 222.529c-2.599.088-5.201.137-7.797.137-.324 0-.722.119-.959-.026-.408-.247-.92-.609-1.017-1.011-.156-.648.33-1.075 1.011-1.12 1.153-.075 2.31-.123 3.467-.166 4.478-.155 8.96-.301 13.439-.453.071 0 .145 0 .22-.006.807-.036 1.633.346 1.455 1.259-.243 1.244-2.149 1.014-3.017 1.066-2.262.133-4.53.24-6.799.317l-.003.003zM196.998 229.029c-2.865.139-5.727.343-8.601.182-.467-.026-.979-.24-1.124-.684-.094-.288-.007-.612.171-.858.461-.625 1.345-.706 2.12-.732 3.321-.11 6.643-.22 9.964-.334 1.815-.061 4.958-.786 6.666-.1.593.24 1.245 1.137.739 1.535-.904.716-3.863.917-5.088.888-1.62-.039-3.237.022-4.851.1l.004.003zM173.459 191.167c-.48-.009-1.122-.207-1.394-.55-.577-.725.088-1.564 1.245-1.61 3.642-.142 7.288-.265 10.93-.391 1.769-.062 3.535-.12 5.305-.182.8-.026 1.516.159 1.536 1.105.019.952-.703 1.162-1.494 1.165-2.742.007-13.497.519-16.128.467v-.004zM176.112 196.64c-.645 0-1.254-.084-1.458-.835-.221-.797.359-1.357 1.455-1.357 3.791 0 7.586.016 11.377.029 1.374.003 2.745.007 4.119.023.762.01 1.416.259 1.413 1.137 0 .871-.635 1.133-1.413 1.133-2.599 0-12.93-.126-15.493-.126v-.004z" fill="#fff"/>
        <path d="M33.987 192.223c-.79.003-1.54-.116-1.588-1.059-.055-1.033.745-1.201 1.562-1.214 4.812-.094 9.621-.175 14.434-.266.777-.016 1.539.062 1.59 1.036.059 1.069-.77 1.186-1.565 1.192-2.423.02-12.045.301-14.43.314l-.003-.003zM40.42 213.53c-.797.003-1.52-.133-1.53-1.101-.006-.904.681-1.082 1.436-1.102l14.648-.33c.803-.019 1.513.185 1.513 1.137 0 .955-.736 1.137-1.526 1.137-2.46.003-12.152.249-14.54.262v-.003zM32.085 185.811c-.182 0-.363.01-.541 0-.69-.026-1.235-.275-1.254-1.049-.02-.816.502-1.137 1.26-1.156 2.022-.049 4.044-.111 6.067-.149 2.851-.052 5.706-.091 8.561-.136h.434c.697.016 1.238.275 1.254 1.042.02.813-.502 1.15-1.263 1.15-2.528.003-12.208.292-14.518.292v.006z" fill="#FFE380"/>
        <path d="M1.063 67.491C.547 65.548.249 63.527.058 61.522c-.363-3.773.992-7.03 3.694-9.582 1.932-1.827 4.096-3.433 6.303-4.926 2-1.354 4.18-2.445 6.306-3.608 2.969-1.626 6.154-1.538 9.307-.858 3.247.7 6.44 1.639 9.647 2.52.755.21 1.494.56 2.172.965 2.096 1.243 2.628 3.277 1.4 5.392-1.365 2.344-3.497 3.28-6.135 3.054-1.656-.146-3.296-.46-4.945-.645-3.526-.395-6.757.687-9.945 2.218 1.617.25 3.234.457 4.838.758 4.9.917 9.822 1.74 14.67 2.876 1.96.46 3.804 1.535 5.6 2.52 1.484.813 2.547 2.13 3.208 3.718 1.102 2.639.46 4.922-1.893 6.551-.567.395-.674.619-.26 1.237 1.443 2.14.83 4.233-1.584 5.315-2.942 1.318-5.988 1.178-9.031.372-2.862-.755-5.707-1.57-8.568-2.332-.47-.123-.979-.097-1.526.081.385.153.777.285 1.153.463 3.432 1.607 6.919 3.11 10.26 4.884 1.465.774 2.728 2.024 3.898 3.236.697.718 1.228 1.732 1.507 2.704.907 3.183-1.293 5.767-4.566 5.262-1.977-.304-3.999-.803-5.81-1.632-4.628-2.121-9.401-3.711-14.395-4.663-.175-.036-.36-.062-.528-.124-.869-.307-1.322-.91-1.108-1.836.204-.877.855-1.276 1.717-1.104 1.84.366 3.659.884 5.51 1.185 3.194.531 5.975 2.118 8.933 3.274 1.647.642 3.335 1.17 5.02 1.71.402.127.856.123 1.29.136.813.02 1.186-.486.965-1.185-.22-.7-.547-1.49-1.079-1.94-1.429-1.208-2.907-2.4-4.52-3.332C27.185 81.66 22.44 80 17.58 78.664c-.794-.217-1.552-.56-2.317-.874-.781-.318-1.238-.885-1.134-1.769.1-.868.748-1.182 1.49-1.36 4.359-1.04 8.701-1.256 13.073.052 2.692.81 5.418 1.551 8.179 2.063 1.183.223 2.514-.104 3.733-.379 1.176-.262 1.277-.719.386-1.5-.892-.78-1.857-1.509-2.878-2.108-4.855-2.85-10.179-4.35-15.717-4.929-4.054-.424-8.15-.411-12.233-.557-1.086-.039-1.782-.495-1.863-1.396-.088-.948.538-1.677 1.695-1.677 3.182 0 6.37-.033 9.54.188 5.548.385 10.966 1.47 16.102 3.675 1.49.638 2.975 1.35 4.342 2.216.92.582 1.556.23 2.272-.195.781-.463 1.562-1.075 1.245-2.053-.315-.955-.759-2.053-1.5-2.64a16.218 16.218 0 0 0-4.217-2.367c-4.248-1.619-8.756-2.16-13.221-2.846-5.04-.778-10.078-1.552-15.111-2.352-1.186-.187-1.727-.851-1.582-1.78.14-.882.807-1.241 1.97-1.254.775-.01 1.582-.104 2.315-.34 1.928-.615 3.85-1.263 5.726-2.027 4.494-1.83 9.09-2.232 13.83-1.228.697.15 1.465.23 2.152.1.67-.126 1.39-.446 1.896-.89.956-.842.836-1.603-.363-2.014-4.514-1.549-9.048-3.08-13.89-3.165-.984-.016-2.076.15-2.945.577-3.992 1.972-7.91 4.074-11.335 6.976-3.234 2.74-4.783 6.104-3.928 10.376.233 1.17.45 2.345.762 3.494 3.169 11.701 7.093 23.143 11.416 34.449.182.492.373.981.56 1.473-.1.013-.203.02-.304.033-.966.1-1.938.178-2.907.233-.19-.492-.379-.985-.567-1.48L1.062 67.491z" fill="#000"/>
        <path d="M119.172 152.807c.36-.421.535-.997.373-1.545-.166-.544-.593-.89-1.099-1.017-.823-.272-1.821-.009-2.333.768-.399.602-.59 1.386-.049 1.975.127.136.269.23.418.295.256.246.6.402.985.411.36.01.704-.081 1.005-.249.288-.117.544-.366.703-.638h-.003zM45.212 143.279c-1.64-.09-2.998 1.93-2.032 3.352.402.59 1.16.939 1.866.764a2.2 2.2 0 0 0 .895-.469c.372-.175.693-.489.884-.855.639-1.227-.262-2.714-1.617-2.788l.004-.004zM94.307 195.274a1.82 1.82 0 0 0-1.043-1.134c-.013-.006-.026-.013-.039-.016-.314-.12-.6-.149-.878-.116-.052.003-.104.006-.152.013-.512.064-.917.359-1.245.738-.039.042-.071.091-.103.139a2.555 2.555 0 0 0-.276.441c-.305.628-.311 1.315.013 1.93.25.476.781.754 1.303.809.573.062 1.205-.165 1.64-.534.628-.534 1.046-1.444.78-2.267v-.003zM25.692 174.285c-.061-.363-.26-.564-.573-.732-.438-.233-.914-.369-1.41-.272-.697.136-1.303.709-1.462 1.402-.116.502.023.998.383 1.331.155.269.392.486.696.638.448.224 1.018-.1 1.303-.437.263-.311.528-.622.794-.933.237-.275.33-.651.272-1l-.003.003zM22.536 31.615c-.69-.347-1.562-.175-2.149.298a1.55 1.55 0 0 0-.499.692c-.395.68-.444 1.549.104 2.213.538.65 1.302.835 2.093.55.703-.253 1.251-.959 1.406-1.678.189-.858-.174-1.68-.959-2.072l.004-.003z" fill="#fff"/>
    </g>
    <defs>
        <clipPath id="gcx56xqdta">
            <path fill="#fff" d="M0 0h289v316H0z"/>
        </clipPath>
    </defs>
</svg>
