<svg width="100%" height="100%" viewBox="0 0 203 172" fill="none" xmlns="http://www.w3.org/2000/svg">
<g clip-path="url(#clip0_1367_12035)">
<path d="M75.0661 33.1489C72.9381 33.8974 65.4097 36.1429 66.452 44.1897C67.4923 52.2385 70.3089 55.7943 72.0623 57.5402C73.8139 59.286 83.8543 66.1922 83.8543 66.1922L93.7169 68.0908C93.7169 68.0908 102.291 56.6955 101.79 56.0262C101.289 55.3569 89.6671 37.7021 89.6671 37.7021L75.0661 33.1489Z" fill="white"/>
<path d="M89.6677 66.688L82.5138 60.3625L76.3795 60.9243C76.3795 60.9243 74.5636 65.1947 74.3763 68.5715C74.189 71.9482 76.6292 74.5236 76.6292 74.5236C76.6292 74.5236 72.5207 79.8216 71.5598 85.5663C70.5989 91.3111 56.0547 129.609 56.0547 129.609L69.7458 130.035L79.0087 132.695L90.7137 102.625L92.5296 104.497C92.5296 104.497 94.9621 116.724 97.0636 118.534C99.1633 120.344 99.6021 121.966 101.042 122.028C102.481 122.09 104.95 120.655 104.95 120.655C104.95 120.655 108.489 105.497 114.373 100.38C120.256 95.2648 130.145 91.2715 130.145 91.2715L132.523 89.5256L129.394 85.2835C129.394 85.2835 121.695 87.529 116.751 81.8521C111.806 76.1752 111.432 75.6134 111.212 74.616C110.993 73.6186 109.866 65.5209 110.117 62.9869C110.367 60.4549 111.456 55.896 111.456 55.896L113.393 45.8601C113.393 45.8601 108.125 43.0245 101.919 44.7289C95.7131 46.4333 95.3726 46.9932 95.3726 46.9932L91.9054 51.4559L96.7251 55.8979L89.6714 66.688H89.6677Z" fill="#D5D5D5"/>
<path d="M142.661 75.2571C142.848 75.1949 145.544 72.3876 145.51 70.1421C145.478 67.8966 144.35 61.1582 144.35 61.1582L123.725 50.6189C123.725 50.6189 113.429 50.9356 113.308 51.1543C112.118 53.298 110.217 56.9331 110.229 62.0707C110.24 67.2084 111.031 74.4257 111.73 75.8076C112.43 77.1896 114.337 80.3156 117.125 83.1173C122.879 88.896 127.347 86.1113 127.869 86.1735C128.391 86.2357 128.641 86.1735 128.641 86.1735L131.821 90.0423C131.821 90.0423 129.33 92.35 129.267 94.4711C129.205 96.5921 129.394 99.1657 134.149 100.896C138.905 102.627 144.802 100.404 149.921 96.1547C155.041 91.9051 156.367 88.4397 156.367 88.4397C156.367 88.4397 151.862 87.4838 149.357 85.4872C146.853 83.4906 142.661 75.2571 142.661 75.2571Z" fill="white"/>
<path d="M136.047 68.0907C135.338 68.0417 132.418 65.0439 132.001 62.7155C131.585 60.387 132.001 54.6083 132.001 54.6083C132.001 54.6083 127.893 55.2324 126.276 54.6083C124.658 53.9842 122.88 52.6531 122.88 52.6531C122.88 52.6531 118.984 53.5412 117.399 53.7618C115.813 53.9823 112.976 54.1501 112.976 54.1501C112.976 54.1501 110.89 58.3923 109.221 57.0612C107.553 55.7301 108.132 54.2331 108.132 54.2331C108.132 54.2331 105.883 53.2942 106.218 52.2666C106.55 51.2391 112.307 46.1995 121.117 44.1878C129.928 42.1779 139.95 43.4204 143.905 50.0739C147.86 56.7275 146.943 62.4232 146.691 64.1917C146.44 65.9602 145.515 66.5466 145.515 66.5466C145.515 66.5466 143.939 63.2547 140.6 64.1917C137.262 65.1287 136.051 68.0888 136.051 68.0888L136.047 68.0907Z" fill="#343434"/>
<path d="M92.3618 51.0847C92.8233 51.2581 95.7098 46.4334 95.7098 46.4334C95.7098 46.4334 102.209 44.235 104.379 44.318C106.548 44.401 113.392 45.8602 113.392 45.8602C113.392 45.8602 118.825 44.3576 121.115 43.6713C123.406 42.9869 125.967 42.0706 125.967 42.0706C125.967 42.0706 124.257 37.4363 121.507 35.9978C118.757 34.5592 114.109 35.0004 112.541 34.0031C110.973 33.0057 108.964 28.181 105.866 26.5162C102.767 24.8533 95.2048 23.937 93.1997 25.1021C91.1947 26.2673 89.9255 29.957 89.9255 29.957C89.9255 29.957 85.1171 26.9725 79.3441 28.5467C73.573 30.121 71.2501 32.7549 70.1644 33.6712C69.0786 34.5856 62.5471 40.3606 63.4891 46.4334C64.4292 52.5043 65.4676 52.6194 67.0773 54.0918C68.6871 55.5643 70.1644 54.8517 70.1644 54.8517C70.1644 54.8517 67.433 46.9632 67.1606 44.235C66.8882 41.5069 69.1637 38.4959 70.1644 37.4967C71.165 36.4993 73.0849 35.1022 73.7527 35.5095C74.4204 35.9167 79.1776 44.0239 80.2615 45.0854C81.3473 46.1468 83.8536 46.8331 85.9173 46.4315C87.9809 46.0299 89.0591 43.5243 89.6682 43.6713C90.2754 43.8184 92.6171 43.6807 93.1997 45.4964C93.7823 47.312 92.3637 51.0828 92.3637 51.0828L92.3618 51.0847Z" fill="#343434"/>
<path d="M128.792 91.8523C128.792 91.8523 119.443 96.7148 114.309 101.489C109.177 106.262 105.477 118.74 104.949 121.858C104.422 124.977 103.482 128.221 103.669 128.284C103.856 128.346 111.874 131.421 111.874 131.421C111.874 131.421 118.815 131.37 120.004 132.29C121.194 133.212 137.028 140.199 137.967 140.386C138.905 140.573 167.132 136.83 168.886 136.519C170.638 136.208 186.661 135.522 191.104 136.457C195.547 137.392 201.994 140.393 201.994 140.393C201.994 140.393 200.583 130.578 195.485 122.109C190.385 113.64 182.216 105.951 180.965 104.516C179.713 103.082 167.885 92.2898 164.942 91.0416C162.001 89.7935 155.929 88.8979 155.929 88.8979C155.929 88.8979 150.275 99.4636 142.241 101.087C134.21 102.708 131.269 100.401 130.079 97.5311C128.889 94.6616 128.789 91.8542 128.789 91.8542L128.792 91.8523Z" fill="black"/>
<path d="M124.01 152.933C124.01 152.933 127.203 151.555 127.452 151.742C127.702 151.928 135.463 152.933 135.463 152.933L181.403 154.734L184.22 169.83L124.01 152.931V152.933Z" fill="black"/>
<path d="M128.754 91.445C123.259 94.0562 117.718 96.8296 113.585 101.407C109.479 105.955 107.063 111.754 105.478 117.595C104.982 119.424 104.614 121.287 104.264 123.148C103.936 124.892 103.322 126.964 103.651 128.73C103.834 129.711 105.069 129.172 105.381 128.623C106.132 127.303 106.305 125.495 106.622 124.023C106.95 122.51 107.296 121.002 107.687 119.505C108.453 116.568 109.301 113.668 110.538 110.889C112.825 105.749 116.23 101.56 120.955 98.468C123.663 96.6958 126.603 95.2855 129.506 93.8658C130.965 93.1531 130.429 90.6475 128.754 91.4431V91.445Z" fill="white"/>
<path d="M123.198 132.396C123.08 131.987 123.003 131.647 122.967 131.238C122.936 130.91 122.931 130.58 122.861 130.256C122.713 129.579 122.447 128.902 122.233 128.244C121.819 126.962 121.361 125.701 120.871 124.447C120.381 123.195 119.87 121.951 119.331 120.718C118.794 119.49 118.185 118.532 117.247 117.577C116.963 117.288 116.473 117.72 116.503 118.04C116.634 119.387 116.929 120.535 117.423 121.798C117.914 123.054 118.382 124.317 118.826 125.589C119.25 126.806 119.658 128.029 120.063 129.253C120.283 129.915 120.445 130.612 120.704 131.259C120.973 131.924 121.357 132.465 121.556 133.161C121.868 134.258 123.476 133.372 123.198 132.398V132.396Z" fill="white"/>
<path d="M169.24 134.224C167.97 132.722 166.688 131.228 165.407 129.733C164.274 128.41 163.064 126.579 161.424 125.865C160.83 125.604 160.287 126.345 160.416 126.875C160.841 128.606 162.381 130.129 163.467 131.496C164.651 132.988 165.831 134.483 167.025 135.966C168.069 137.265 170.229 135.399 169.236 134.224H169.24Z" fill="white"/>
<path d="M144.573 49.959C144.058 48.9334 142.982 48.0981 142.086 47.4043C141.104 46.6445 140.028 46.011 138.944 45.4096C136.748 44.1916 134.353 43.4393 131.86 43.1358C126.333 42.4627 120.832 43.8956 115.833 46.1939C112.816 47.5815 109.991 49.3029 107.249 51.1657C106.541 51.6464 106.356 53.0793 107.33 53.3904C107.824 53.5469 108.278 53.7449 108.73 53.9523C108.55 54.6989 108.69 55.487 109.373 56.0092C110.391 56.7898 112.246 56.3655 112.297 54.9477C112.303 54.7762 112.174 54.565 112.002 54.5179C111.766 54.4538 111.408 54.4632 111.21 54.3802C110.996 54.2916 110.986 54.1389 110.898 54.2068C111.596 53.66 111.66 52.5854 110.822 52.1611C110.705 52.1027 110.589 52.0442 110.472 51.9896C115.636 48.922 121.163 46.3598 127.224 45.8394C130.103 45.5925 133.072 45.9431 135.847 46.7312C137.251 47.1309 138.607 47.6551 139.833 48.4507C140.453 48.8542 141.049 49.2953 141.609 49.778C142.169 50.2607 142.645 50.8489 143.258 51.2637C144.087 51.8274 144.966 50.7433 144.571 49.9552L144.573 49.959Z" fill="white"/>
<path d="M79.2905 72.5533C77.7489 73.0662 76.5686 75.0213 75.7287 76.3354C74.7432 77.8777 73.875 79.4953 73.1921 81.1922C71.834 84.5783 70.8977 88.1116 69.9141 91.6165C67.6612 99.6463 64.8731 107.444 61.769 115.184C60.0004 119.596 58.0918 123.951 56.0546 128.248C55.1353 130.188 57.8876 131.057 58.7425 129.253C60.5282 125.487 62.2154 121.677 63.7968 117.821C65.3592 114.007 66.6965 110.146 68.0414 106.255C69.4052 102.31 70.6707 98.3322 71.8246 94.3201C72.8346 90.8058 73.6783 87.2311 74.8908 83.7789C75.5566 81.8841 76.3075 79.9931 77.2344 78.2076C77.6657 77.3762 78.1518 76.5843 78.6606 75.7981C79.2149 74.9402 79.892 74.2332 80.1569 73.2359C80.3082 72.6684 79.754 72.3987 79.2924 72.5515L79.2905 72.5533Z" fill="white"/>
<path d="M105.859 119.943C105.594 119.396 104.888 119.164 104.34 119.468C103.067 120.165 101.954 118.798 101.279 117.886C100.309 116.579 99.4178 115.193 98.5893 113.793C96.902 110.94 95.7198 107.916 94.931 104.705C94.5735 103.246 93.9814 101.598 92.8806 100.536C91.7872 99.4825 90.4234 98.7491 89.3055 97.7159C87.1681 95.7419 85.5432 93.2683 84.7866 90.4534C84.3175 88.7037 84.2532 86.8768 83.4303 85.2346C82.8137 84.0035 81.6409 82.4084 80.1315 82.5216C79.6264 82.5593 79.4221 83.1946 79.6189 83.583C79.9537 84.2429 80.576 84.6294 80.9486 85.2705C81.3477 85.9586 81.4518 86.8372 81.5993 87.6102C81.9133 89.275 82.0514 90.9719 82.5337 92.6027C83.4114 95.5666 85.0306 98.3418 87.3326 100.425C88.5394 101.519 89.9278 102.373 91.1328 103.468C92.2847 104.515 92.646 106.132 93.0451 107.593C93.9512 110.904 95.2393 114.153 96.9758 117.12C97.8989 118.7 99.0641 120.576 100.556 121.679C101.981 122.731 104.024 122.961 105.374 121.655C105.836 121.208 106.163 120.576 105.855 119.943H105.859Z" fill="white"/>
<path d="M89.3357 74.4143C87.412 73.3887 86.3622 73.087 84.2777 72.446C82.2027 71.8069 80.0879 71.4392 77.9807 70.9415C77.9694 70.9396 77.958 70.9377 77.9467 70.9358C77.4303 69.4954 77.2733 67.8758 77.3603 66.4128C77.4208 65.3984 77.627 64.352 77.9391 63.3848C78.2588 62.3912 78.8773 61.4674 78.9851 60.4172C79.0457 59.8196 78.5444 59.1974 77.8994 59.5594C75.6409 60.8226 74.9561 64.2634 74.8086 66.6277C74.6421 69.2936 75.3798 71.6277 76.4939 73.9882C76.528 74.0674 76.5639 74.1466 76.6074 74.2258C76.8496 74.7292 77.6005 74.7499 78.0356 74.5539C78.4177 74.3804 79.2178 73.6055 79.354 73.2303C82.9196 73.8525 85.2197 74.8291 88.4921 76.1941C89.7084 76.7013 90.5425 75.0591 89.3376 74.4162L89.3357 74.4143Z" fill="white"/>
<path d="M59.9939 153.674C60.0431 153.487 48.7145 123.917 47.1502 120.797C45.5859 117.676 43.2063 116.741 40.4541 115.369C37.7 113.996 5.96725 104.514 4.5902 104.452C3.21314 104.39 1.2724 104.217 1.14756 105.706C1.02272 107.197 11.7876 136.892 12.5385 138.949C13.2895 141.008 18.0751 146.061 18.0751 146.061C18.0751 146.061 16.2308 149.055 17.7952 150.116C19.3595 151.176 44.521 160.908 54.41 161.97C64.2991 163.029 73.562 161.659 76.5034 161.221C79.4448 160.784 94.477 157.79 95.5363 156.979C96.5955 156.168 97.0325 154.796 96.3439 153.174C95.6554 151.553 87.5823 147.997 86.7046 147.873C85.8269 147.748 65.801 142.641 65.6118 142.45C65.4246 142.26 55.8646 139.24 55.8646 139.24L59.992 153.676L59.9939 153.674Z" fill="#343434"/>
<path d="M57.9804 143.879C58.2301 143.879 83.14 151.347 83.14 151.347C83.14 151.347 66.0536 155.358 64.9262 155.107C63.7988 154.858 60.6078 153.921 60.6078 153.921L57.9785 143.877L57.9804 143.879Z" fill="#EDEDED"/>
<path d="M26.3133 131.983C26.0353 131.574 25.6456 131.136 25.1765 130.944C24.5239 130.674 23.7446 130.872 23.302 131.436C23.1601 131.615 23.0636 131.802 23.0012 131.994C22.5605 132.901 23.0163 133.8 23.5649 134.581C23.8846 135.035 24.2553 135.537 24.8001 135.723C25.5 135.963 26.2377 135.567 26.6198 134.986C27.2232 134.066 26.8902 132.835 26.3114 131.983H26.3133Z" fill="white"/>
<path d="M92.9294 31.1635C89.7573 29.7382 86.6324 28.7314 83.1047 28.8369C79.8228 28.9369 76.5845 29.7815 73.7339 31.4199C68.4716 34.4403 63.9356 40.5358 63.8373 46.7519C63.7843 50.1625 65.3259 53.6279 68.6361 54.9759C69.3928 55.2851 70.0624 53.9974 69.266 53.6392C63.1809 50.8903 65.2824 42.8246 68.2711 38.5618C71.3638 34.1518 76.6658 31.2766 82.0378 30.975C85.2327 30.7959 89.0082 31.3162 91.7831 33.0055C92.9653 33.7257 94.2157 31.7404 92.9294 31.1635Z" fill="white"/>
<path d="M113.88 34.5402C109.808 32.2401 107.88 27.0383 103.18 25.6883C100.427 24.8965 97.4841 24.9078 94.6865 25.4527C93.4929 25.6846 92.2426 26.1126 91.4046 27.0383C90.6575 27.8622 90.1675 29.0839 90.8466 30.053C91.1001 30.4131 91.59 30.202 91.7546 29.8758C92.2426 28.9067 92.8649 28.3203 93.9204 28.013C95.0402 27.6868 96.2281 27.5096 97.3914 27.4285C99.8239 27.2589 102.02 27.7547 104.301 28.524C105.279 28.8539 108.414 31.369 108.958 32.2287C109.463 33.0281 109.985 33.8238 110.613 34.5346C111.3 35.3095 113.935 36.0297 115.062 35.7714C115.849 35.5904 114.722 35.0191 113.882 34.544L113.88 34.5402Z" fill="white"/>
<path d="M55.7267 55.7018L49.5905 56.4126C49.5905 56.4126 47.4663 63.7223 38.89 64.9364C30.3136 66.1506 23.6175 60.5963 21.115 54.6083C18.6106 48.6203 17.434 41.8103 23.0557 36.8291C28.6774 31.8479 36.6825 29.7797 43.5129 33.1488C50.3433 36.518 52.0968 42.9717 52.2841 46.0147C52.4713 49.0577 52.2841 51.6011 52.2841 51.6011L55.7267 55.7037V55.7018Z" fill="#FFE380"/>
<path d="M65.7416 24.5817C65.2441 24.6194 63.5114 29.1802 57.2352 29.7797C50.0303 30.466 45.2011 23.2243 44.017 20.1077C42.8329 16.9912 41.0454 10.6902 47.3027 6.07479C53.558 1.45748 59.7321 0.584546 65.1779 4.32892C70.6237 8.07141 70.4988 11.5009 70.3721 14.6514C70.2473 17.8038 69.4112 21.9837 69.4112 21.9837V27.5984C69.4112 27.5984 66.1936 24.5497 65.7397 24.5855L65.7416 24.5817Z" fill="#FFE380"/>
<path d="M136.047 31.6084L135.13 38.096L140.93 34.4365C140.93 34.4365 151.486 33.5221 154.74 32.5228C157.995 31.5255 162 28.2524 163.085 25.0642C164.171 21.8761 163.462 17.402 162.709 15.6675C161.956 13.9329 157.827 5.98791 150.149 3.28615C142.471 0.58251 135.603 -0.578888 129.87 2.91096C124.136 6.4027 121.817 11.6441 122.067 15.1377C122.317 18.6313 124.486 24.163 128.284 27.2815C132.081 30.3999 136.046 31.6065 136.046 31.6065L136.047 31.6084Z" fill="#FFE380"/>
<path d="M68.9824 7.98268C68.4509 6.37822 66.6936 4.51923 65.2523 3.85557C63.6558 3.12027 61.9496 2.76582 60.1999 2.66589C56.6854 2.46793 52.978 3.16363 49.7094 4.44381C46.2232 5.80883 43.5391 9.14596 43.1948 12.8734C42.8222 16.8874 44.6589 20.8222 46.7983 24.114C47.9805 25.9316 49.4464 27.6114 51.321 28.7408C52.3216 29.3422 53.326 29.7985 54.5007 29.9003C55.0114 29.9437 55.5524 29.9776 56.0612 29.9248C56.6476 29.8645 57.0448 29.5892 57.5934 29.395C57.9755 29.2593 57.966 28.6842 57.565 28.6069C57.1905 28.5353 56.7384 28.2506 56.3563 28.1393C55.9685 28.0262 55.6016 27.8999 55.2384 27.7208C54.5082 27.3644 53.7497 26.9968 53.0763 26.5386C51.7106 25.6092 50.6324 24.3554 49.7207 22.9922C47.971 20.3772 46.3064 17.0721 46.1059 13.8877C46.0133 12.4039 46.3008 10.905 47.1974 9.68707C48.0353 8.5483 49.1627 7.81677 50.3487 7.08335C52.908 5.49963 55.9118 4.7549 58.9137 4.73793C60.5896 4.7285 62.3128 4.9359 63.9263 5.39593C64.6999 5.61652 65.4301 5.90687 66.1224 6.31977C66.896 6.78169 67.4578 7.23041 68.3544 7.43592C68.6949 7.51322 69.1073 8.35033 68.9862 7.98268H68.9824Z" fill="white"/>
<path d="M158.436 9.09139C157.725 8.29387 156.946 7.57554 156.164 6.84778C155.334 6.07477 154.717 5.14151 153.732 4.56269C151.784 3.42203 149.727 2.65845 147.571 2.01554C143.188 0.708963 138.613 0.661828 134.198 1.88356C129.605 3.15619 125.538 5.95411 123.77 10.5111C122.114 14.7702 122.459 19.5195 124.696 23.5033C125.888 25.6243 127.568 27.3834 129.579 28.7484C130.564 29.4177 131.633 30.0588 132.745 30.4943C133.313 30.7168 133.942 30.9581 134.546 31.0524C135.179 31.1523 135.855 31.1089 136.496 31.1693C136.804 31.1994 136.965 30.7545 136.687 30.6036C135.857 30.1512 135.121 29.5063 134.321 28.9973C133.466 28.4543 132.605 27.9094 131.805 27.2872C130.286 26.1089 128.956 24.6722 127.869 23.0923C125.71 19.9531 124.99 16.0485 125.977 12.3588C128.196 4.07249 138.855 2.97331 146.011 4.01782C148.148 4.33079 150.221 5.08306 152.134 6.07666C152.618 6.3293 153.091 6.66678 153.607 6.85155C154.142 7.04386 154.528 7.05329 155.024 7.38512C156.009 8.04123 156.851 8.83498 157.638 9.71734C158.035 10.1623 158.807 9.50429 158.436 9.0895V9.09139Z" fill="white"/>
<path d="M48.5037 37.3042C46.8165 35.366 44.626 33.6578 42.3448 32.4587C40.0258 31.2389 37.1222 30.8354 34.5308 30.9843C29.1058 31.2954 23.8397 34.0255 20.9172 38.6692C17.8889 43.4863 17.6732 49.2368 20.4425 54.2161C23.0282 58.8654 27.568 62.7776 32.6676 64.4179C35.3404 65.2776 38.3404 65.0174 41.0302 64.3406C43.5176 63.7128 46.3682 62.3458 47.6355 60.0061C47.889 59.5385 47.3404 59.1859 46.9526 59.4669C45.1594 60.7716 43.5876 61.9801 41.3707 62.5061C39.2181 63.0189 37.16 62.7286 35.0907 62.0121C32.9135 61.258 31.0011 60.3643 29.1966 58.905C27.4356 57.4816 25.8845 55.7696 24.5736 53.9295C23.2647 52.0912 22.1808 49.9947 21.9387 47.7247C21.7155 45.6187 22.0427 43.4599 22.9072 41.5236C24.6928 37.5247 28.5421 34.9568 32.8038 34.214C35.3744 33.7653 37.9299 34.0651 40.4306 34.7268C41.7111 35.0643 43.0712 35.3151 44.2723 35.8863C45.4867 36.4633 46.667 37.2664 47.7584 38.0432C48.1689 38.3355 48.8461 37.7076 48.4962 37.3079L48.5037 37.3042Z" fill="white"/>
<path d="M139.703 19.2554C139.321 19.3987 138.961 19.5382 138.6 19.6683C137.993 19.8889 137.367 20.0416 136.723 20.1095C135.66 20.2207 134.694 20.0058 133.916 19.2215C133.572 18.8746 133.356 18.4485 133.188 17.9979C133.056 17.6434 133.056 17.6509 132.67 17.6359C132.085 17.6113 131.501 17.585 130.918 17.5397C130.547 17.5114 130.286 17.3267 130.19 16.942C130.095 16.5612 130.201 16.2539 130.487 15.9975C130.722 15.7844 131.009 15.8165 131.287 15.8334C131.637 15.8561 131.987 15.8975 132.337 15.9202C132.88 15.956 132.882 15.9522 132.954 15.4168C133.162 13.8613 133.788 12.5152 134.96 11.4443C135.551 10.9031 136.23 10.5317 137.03 10.3997C137.858 10.2621 138.571 10.6392 138.923 11.4009C139.167 11.9269 139.188 12.485 139.12 13.0468C139.029 13.784 138.776 14.4703 138.397 15.1113C137.703 16.2822 136.652 16.9647 135.363 17.3323C135.273 17.3587 135.182 17.3776 135.091 17.404C134.838 17.4756 134.83 17.4982 134.966 17.7358C135.163 18.0827 135.452 18.2901 135.853 18.3523C136.387 18.4353 136.905 18.3598 137.418 18.2298C138.403 17.9828 139.302 17.5303 140.193 17.0627C140.336 16.9873 140.482 16.9043 140.635 16.8553C141.339 16.6272 141.931 17.1211 141.823 17.8451C141.8 17.9922 141.74 18.1355 141.702 18.2807C141.624 18.5842 141.528 18.8859 141.484 19.1951C141.433 19.5495 141.56 19.7098 141.901 19.8229C141.955 19.8418 142.012 19.8625 142.069 19.8682C142.786 19.9228 143.495 19.9228 144.189 19.6872C144.386 19.6212 144.475 19.5212 144.477 19.3139C144.483 18.7501 144.577 18.2015 144.783 17.6736C145.415 16.0597 146.637 15.1773 148.315 14.87C148.496 14.8361 148.689 14.8417 148.875 14.8549C149.858 14.919 150.477 15.741 150.214 16.6875C150.114 17.0514 149.93 17.404 149.724 17.7226C149.064 18.7388 148.148 19.4986 147.146 20.1642C146.979 20.2735 146.809 20.3753 146.639 20.479C146.42 20.6167 146.414 20.6185 146.527 20.8636C146.9 21.6687 147.537 22.1627 148.385 22.3908C149.13 22.5925 149.892 22.5869 150.653 22.502C150.884 22.4756 151.181 22.4832 151.319 22.3456C151.453 22.2117 151.425 21.9138 151.462 21.6876C151.701 20.2905 152.442 19.2648 153.732 18.6464C154.328 18.3598 154.962 18.1958 155.622 18.1449C156.025 18.1147 156.418 18.16 156.791 18.324C157.474 18.6276 157.792 19.3139 157.582 20.0284C157.474 20.3923 157.273 20.7072 157.033 20.9956C156.254 21.9251 155.268 22.5888 154.209 23.1544C154.012 23.2581 153.812 23.3542 153.611 23.4485C153.485 23.5088 153.469 23.5805 153.549 23.6936C153.772 24.0122 154.05 24.2649 154.457 24.2837C154.816 24.2988 155.187 24.3064 155.537 24.2404C156.195 24.1178 156.715 24.6589 156.585 25.3113C156.53 25.5846 156.392 25.7902 156.118 25.8712C154.729 26.2841 152.993 26.1748 152.005 24.5062C151.756 24.0858 151.754 24.0933 151.283 24.1725C150.101 24.3705 148.928 24.3705 147.772 24.0122C146.469 23.6088 145.517 22.8075 144.942 21.5725C144.821 21.3124 144.821 21.3237 144.52 21.3897C144.087 21.4839 143.652 21.5782 143.213 21.6461C142.578 21.7441 141.95 21.6668 141.341 21.4707C140.42 21.1728 139.863 20.5601 139.748 19.5853C139.737 19.4835 139.72 19.3836 139.705 19.2629L139.703 19.2554ZM137.393 12.6396C137.429 12.1136 137.34 12.0287 136.784 12.2776C136.773 12.2832 136.763 12.287 136.752 12.2927C135.526 13.0016 134.926 14.1121 134.703 15.4601C134.669 15.6619 134.72 15.6939 134.909 15.6543C136.268 15.3753 137.384 14.0178 137.391 12.6396H137.393ZM155.647 19.9436C154.546 19.9134 153.29 20.858 153.32 21.6687C154.16 21.2011 154.939 20.6826 155.647 19.9436ZM148.304 16.6913C147.303 16.8798 146.338 17.8489 146.372 18.5974C147.127 18.0582 147.795 17.453 148.304 16.6913Z" fill="white"/>
<path d="M43.5915 50.4509C43.7258 50.4717 43.8601 50.5037 43.9963 50.5113C44.5657 50.5452 45.1161 50.4415 45.6552 50.2699C45.8217 50.2171 45.9919 50.1662 46.1527 50.0965C46.7845 49.8193 47.3936 50.4792 47.2914 51.0429C47.2404 51.3257 47.1231 51.5539 46.845 51.6651C45.8122 52.0761 44.7586 52.3684 43.6294 52.2364C43.0298 52.1666 42.4925 51.9385 42.0669 51.5124C41.8873 51.3333 41.734 51.3163 41.5089 51.4012C40.4705 51.7933 39.3961 52.0139 38.2819 52.0064C37.6937 52.0026 37.1167 51.914 36.5606 51.7066C35.978 51.4879 35.473 51.1579 35.0966 50.6621C34.9887 50.5188 34.8942 50.4773 34.7145 50.5301C34.4364 50.615 34.147 50.6715 33.8595 50.7224C32.995 50.8714 32.1798 50.7036 31.4099 50.3114C30.8481 50.0248 30.4358 49.5931 30.1842 49.0124C30.0915 48.7993 30.082 48.7956 29.8948 48.92C28.9263 49.561 27.8405 49.7326 26.7094 49.7137C26.3273 49.7081 26.0701 49.5177 25.9433 49.1575C25.8185 48.8069 25.8885 48.4958 26.1381 48.2167C26.3008 48.0357 26.5127 47.9999 26.7416 47.9811C27.1615 47.9452 27.5814 47.9075 27.9975 47.851C28.4023 47.7963 28.7561 47.6153 29.0701 47.3627C29.5865 46.9479 30.0139 46.4596 30.3185 45.8675C30.3885 45.7337 30.4528 45.5942 30.536 45.4678C30.7933 45.0719 31.2662 44.9249 31.6691 45.1077C32.0682 45.2887 32.263 45.7035 32.1457 46.1598C32.0966 46.3502 32.0171 46.535 31.9433 46.7179C31.7769 47.1364 31.7201 47.5701 31.7372 48.0188C31.7504 48.3544 31.8998 48.6014 32.193 48.7522C32.3576 48.837 32.5373 48.9143 32.717 48.9426C33.1464 49.0124 33.5795 49.0218 34.007 48.9143C34.357 48.8257 34.3645 48.8238 34.3513 48.4694C34.3059 47.2099 34.6804 46.0787 35.4219 45.0663C35.9629 44.3272 36.642 43.7446 37.4988 43.3939C37.7334 43.2978 37.9906 43.2355 38.2441 43.211C39.1142 43.1281 39.7422 43.705 39.7498 44.5761C39.7536 44.9663 39.6552 45.3378 39.5133 45.6979C38.9799 47.0497 38.1287 48.1753 37.0505 49.1406C36.9295 49.2499 36.799 49.3499 36.676 49.4592C36.4869 49.6251 36.4755 49.6911 36.6987 49.8212C36.937 49.9607 37.1962 50.0984 37.4629 50.153C38.4238 50.3453 39.3753 50.2435 40.3097 49.9758C40.5234 49.9155 40.7315 49.8344 40.9434 49.7703C41.0909 49.7251 41.1325 49.6364 41.1344 49.4856C41.1344 49.1255 41.1155 48.7578 41.1817 48.4072C41.439 47.0667 42.1748 46.0391 43.3362 45.3151C43.6275 45.1341 43.9434 45.0154 44.2876 44.9758C45.0405 44.8909 45.6439 45.3227 45.8217 46.058C45.9219 46.4803 45.8765 46.8932 45.7687 47.3023C45.4888 48.3581 44.9383 49.248 44.1042 49.9588C43.9358 50.1021 43.7618 50.236 43.5897 50.3736C43.5897 50.4 43.5897 50.4264 43.5915 50.4547V50.4509ZM37.7882 45.2454C36.9541 45.7884 36.3885 46.5161 36.2088 47.5097C36.8973 46.8668 37.4383 46.1221 37.7882 45.2454ZM44.0625 46.9498C43.3854 47.4343 42.8917 48.2318 42.9768 48.6523C43.4799 48.1998 43.8488 47.67 44.0625 46.9498Z" fill="white"/>
<path d="M62.6325 20.6412C61.2952 20.5884 60.0732 20.1246 59.1615 19.0066C59.031 18.8463 58.9232 18.8294 58.7453 18.8991C58.0776 19.1631 57.391 19.3516 56.6684 19.3818C56.0537 19.4063 55.454 19.3346 54.879 19.0952C54.2605 18.8369 53.7932 18.4183 53.4887 17.8226C53.3431 17.536 53.3412 17.5379 53.0858 17.7076C52.4446 18.1318 51.7674 18.2204 51.0486 17.9225C50.6116 17.7415 50.2163 17.4945 49.8721 17.1721C49.577 16.8968 49.5145 16.5763 49.6715 16.22C49.8096 15.9051 50.2125 15.6487 50.5511 15.694C50.693 15.7128 50.833 15.7939 50.9616 15.8693C51.1526 15.9824 51.3229 16.1295 51.5177 16.2351C51.8222 16.401 52.0152 16.3897 52.246 16.1389C52.5051 15.858 52.7283 15.5431 52.9534 15.232C53.0688 15.0718 53.1426 14.8832 53.2579 14.7211C53.4849 14.4025 53.8613 14.2611 54.2151 14.3648C54.5877 14.476 54.8033 14.7381 54.8525 15.1208C54.8695 15.2566 54.8582 15.3998 54.8468 15.5375C54.809 15.9598 54.8298 16.3727 54.9433 16.7837C55.0568 17.1966 55.3216 17.4398 55.7283 17.5492C56.1199 17.6548 56.5209 17.6849 56.9124 17.6114C57.3248 17.536 57.7239 17.3965 58.1287 17.2833C58.3141 17.2324 58.3803 17.1212 58.3651 16.9213C58.2781 15.7543 58.5827 14.6796 59.1993 13.6936C59.8992 12.5755 60.8998 11.8402 62.1861 11.5254C62.485 11.4518 62.8179 11.4556 63.1262 11.4952C63.7277 11.5706 64.1817 12.0703 64.2517 12.6717C64.2914 13.0129 64.2498 13.3448 64.1363 13.6691C63.9112 14.3157 63.5556 14.887 63.1508 15.4338C62.4925 16.3237 61.7056 17.0835 60.8147 17.7396C60.5272 17.9508 60.5253 17.9791 60.8034 18.2223C61.2876 18.6484 61.8683 18.8426 62.5039 18.8878C63.3589 18.9481 64.1136 18.6484 64.8362 18.2373C65.0707 18.1054 65.2901 17.9451 65.5304 17.8282C65.9068 17.6453 66.3456 17.8018 66.5877 18.1827C66.8072 18.5258 66.758 19.0254 66.4345 19.2573C65.3223 20.053 64.1155 20.6148 62.6344 20.6412H62.6325ZM62.4396 13.2863C61.2517 13.5974 60.0278 15.1321 60.2227 16.0145C61.0984 15.2339 61.8815 14.4044 62.4396 13.2863Z" fill="white"/>
<path d="M202.992 140.584C201.808 132.245 198.972 124.56 193.774 117.831C188.088 110.47 181.483 103.734 174.751 97.2727C168.904 91.6599 161.928 88.2436 153.93 86.8823C153.34 86.7805 152.65 86.7013 152.217 86.3526C150.546 85.0007 148.889 83.6169 147.369 82.1048C146.351 81.0923 145.407 79.9875 145.403 78.3227C145.399 77.2518 144.959 76.1809 144.692 75.1175C144.571 74.6405 144.658 74.2597 144.883 73.8015C145.426 72.6967 145.878 71.5447 146.287 70.3833C146.468 69.8648 146.404 69.2653 146.538 68.7261C147.529 64.7818 147.857 60.7905 147.172 56.7708C146.109 50.5415 142.736 46.0487 136.838 43.5826C133.793 42.3099 130.579 42.0196 127.31 42.2326C126.834 42.2628 126.639 42.1648 126.437 41.7028C125.971 40.6357 125.457 39.578 124.836 38.592C123.565 36.5652 121.67 35.4547 119.302 35.1492C118.116 34.9965 116.928 34.8476 115.74 34.7288C113.78 34.5308 112.201 33.7201 111.145 32.0063C110.812 31.469 110.432 30.9637 110.076 30.4414C108.554 28.1884 106.467 26.6707 103.923 25.7487C100.98 24.6835 97.9327 24.4497 94.84 24.6476C92.5172 24.7966 90.845 25.9863 89.6912 27.9584C89.3602 28.5278 88.5695 28.8219 87.9283 28.6277C82.8286 27.0892 77.8841 27.4776 73.5675 30.6394C70.7226 32.7246 68.0272 35.1624 65.78 37.8717C62.2333 42.144 61.7075 47.1045 64.0095 52.2195C65.0518 54.5348 66.8828 55.9092 69.4761 56.2165C69.8128 56.2561 70.21 56.5201 70.4143 56.7991C71.6363 58.4602 73.0039 59.9609 74.8897 60.8734C75.4364 61.1374 75.4137 61.3693 75.2473 61.8746C74.6949 63.5563 74.1047 65.24 73.7435 66.9689C73.1892 69.6103 73.9761 72.0066 75.4761 74.1994C75.6483 74.4501 75.8431 74.6575 75.5556 74.9912C73.316 77.5874 72.0638 80.6889 71.1747 83.9298C67.1457 98.649 61.9723 112.974 56.2636 127.116C55.6923 128.532 55.1986 129.962 53.7573 130.765C53.7365 130.776 53.7213 130.797 53.7043 130.812C53.1028 131.377 53.1255 131.368 52.7831 130.62C51.2112 127.199 49.6526 123.776 48.041 120.374C47.0649 118.316 45.5006 116.766 43.435 115.814C41.3732 114.865 39.302 113.887 37.1418 113.219C32.6229 111.822 28.0548 110.578 23.481 109.36C18.0182 107.906 12.6443 106.191 7.31198 104.326C6.0976 103.902 4.74892 103.691 3.45888 103.675C0.946888 103.64 -0.380985 105.316 0.0900124 107.755C0.282951 108.762 0.540203 109.767 0.880683 110.732C2.92546 116.553 4.94375 122.386 7.09256 128.17C8.57932 132.175 10.2117 136.132 11.8801 140.067C12.8618 142.388 14.4072 144.33 16.5409 145.748C16.8587 145.959 16.9003 146.108 16.6752 146.459C15.5365 148.252 15.9677 149.909 17.8063 150.967C18.2111 151.2 18.6348 151.408 19.0567 151.61C30.0201 156.792 41.4394 160.584 53.3752 162.824C57.1753 163.536 60.9849 164.004 64.8418 163.486C72.531 162.454 80.2183 161.408 87.8923 160.273C90.0827 159.947 92.241 159.345 94.386 158.761C95.9144 158.344 96.9207 157.285 97.3274 155.731C97.8684 153.674 97.2952 151.911 95.5664 150.723C94.2877 149.845 92.8709 149.076 91.4049 148.582C88.1458 147.479 84.8166 146.581 81.5159 145.599C81.1659 145.495 80.8217 145.388 80.4736 145.28C80.4812 145.241 80.4869 145.203 80.4944 145.163C80.606 145.146 80.7139 145.114 80.8236 145.111C83.1672 145.028 85.4238 144.537 87.6048 143.693C87.7902 143.621 88.0361 143.566 88.2139 143.627C89.8444 144.185 91.4636 144.775 93.0941 145.339C93.4194 145.454 93.7656 145.51 94.1099 145.569C94.4068 145.62 94.7246 145.591 95.0083 145.674C96.5178 146.106 98.0235 146.553 99.5178 147.03C99.741 147.102 100.006 147.332 100.074 147.545C100.396 148.567 101.095 149.159 102.096 149.396C102.824 149.568 103.568 149.722 104.311 149.762C107.124 149.909 109.814 150.518 112.445 151.54C114.446 152.317 116.515 152.95 118.596 153.487C119.875 153.819 121.276 153.687 122.549 154.038C141.732 159.309 160.901 164.628 180.074 169.937C182.489 170.605 184.905 171.278 187.324 171.938C187.785 172.066 188.255 172.064 188.41 171.493C188.559 170.94 188.215 170.68 187.723 170.552C187.269 170.431 186.828 170.26 186.367 170.179C185.85 170.09 185.642 169.824 185.531 169.317C184.585 164.981 183.62 160.648 182.627 156.321C182.487 155.703 182.612 155.571 183.231 155.563C185.527 155.539 187.833 155.559 190.118 155.375C194.93 154.984 198.622 151.902 199.757 147.266C200.162 145.605 200.171 143.844 200.355 142.13C200.387 141.832 200.372 141.53 200.379 141.234C200.657 141.378 200.922 141.587 201.217 141.657C201.643 141.758 202.197 141.937 202.5 141.758C202.801 141.579 203.047 140.967 202.992 140.591V140.584ZM128.899 44.1897C132.573 44.1538 136.023 44.9174 139.082 47.0536C142.679 49.5687 144.548 53.1132 145.239 57.3572C145.606 59.614 145.57 61.8746 145.312 64.137C145.292 64.3143 145.22 64.4877 145.172 64.6631C145.027 64.5631 144.86 64.4821 144.734 64.3614C142.937 62.7117 141.034 62.5137 139.059 63.941C137.983 64.7159 136.619 65.1985 136.017 66.5466C136.01 66.5617 135.709 66.5164 135.673 66.4391C135.471 65.9942 135.304 65.5322 135.124 65.0741C134.916 64.5443 134.548 64.2615 133.954 64.2257C133.768 64.2143 133.477 64.0258 133.43 63.8618C133.104 62.74 132.785 61.6144 132.552 60.4719C132.179 58.6242 132.711 56.9085 133.452 55.2399C133.814 54.4235 133.621 53.7354 132.944 53.56C132.622 53.4771 132.255 53.56 131.909 53.5883C130.49 53.7071 129.068 53.9465 127.653 53.9069C126.804 53.8843 125.949 53.4808 125.133 53.149C124.581 52.9247 124.365 52.4043 124.536 51.8029C124.691 51.2542 124.649 50.764 124.136 50.4378C123.594 50.0947 123.115 50.3266 122.653 50.6697C120.542 52.2327 118.182 53.149 115.554 52.7719C114.075 52.5589 113.129 52.9982 112.352 54.1313C112.257 54.2633 112.1 54.3594 112.03 54.5027C111.489 55.634 110.44 55.5453 109.447 55.5887C108.964 55.6094 108.996 55.3832 109.235 55.091C109.471 54.8006 109.802 54.5499 109.933 54.2199C110.078 53.8447 110.216 53.3074 110.05 53.017C109.882 52.721 109.35 52.5627 108.949 52.491C108.548 52.4175 108.111 52.5476 107.691 52.5457C107.474 52.5457 107.258 52.4495 107.041 52.3986C107.15 52.1799 107.205 51.9009 107.377 51.7519C107.882 51.3032 108.401 50.8526 108.972 50.4944C112.797 48.1132 116.88 46.3239 121.256 45.2115C123.764 44.5743 126.306 44.1821 128.903 44.1934L128.899 44.1897ZM91.3539 28.0715C92.2202 26.9685 93.3022 26.2559 94.7284 26.1427C95.4529 26.0843 96.1792 26.0598 96.5594 26.0391C99.1017 26.0805 101.252 26.3671 103.331 27.1024C105.635 27.9169 107.521 29.2725 108.889 31.3106C109.189 31.7555 109.515 32.1892 109.793 32.6473C111.196 34.9701 113.326 36.0259 115.969 36.2428C117.066 36.3351 118.155 36.4992 119.249 36.6387C121.163 36.8838 122.629 37.851 123.652 39.4611C124.089 40.1493 124.469 40.8789 124.819 41.6161C125.196 42.4023 125.158 42.3684 124.326 42.5588C122.137 43.0622 119.941 43.5524 117.781 44.1595C116.5 44.5215 115.274 45.0758 114.039 45.583C113.617 45.7545 113.332 45.6942 112.895 45.5207C111.813 45.0965 110.669 44.8118 109.528 44.5554C105.323 43.6071 101.285 44.316 97.3312 45.8186C97.1174 45.9016 96.8904 45.9487 96.6691 46.0128C96.6824 45.7658 96.6767 45.5151 96.7126 45.27C97.2461 41.4087 96.444 37.7775 94.7152 34.3442C94.3406 33.6032 94.1212 32.8585 94.1439 32.0968C94.1685 31.3615 93.9283 30.7846 93.4724 30.3283C92.869 29.7231 92.1786 29.1971 91.4768 28.7031C91.159 28.4806 91.1231 28.3618 91.3539 28.0696V28.0715ZM66.0562 52.7512C64.6148 50.7753 64.123 48.5204 64.1949 46.126C64.333 41.454 66.7315 38.0848 70.4143 35.4528C70.8267 35.1568 71.2258 34.8118 71.5417 34.4158C75.5839 29.3856 82.4163 28.2487 87.6842 30.0926C90.3551 31.0259 92.4037 32.7152 93.567 35.3001C95.2656 39.0765 96.1395 42.966 94.6906 47.0573C94.6206 47.2553 94.5392 47.4476 94.456 47.6418C94.4295 47.7059 94.3879 47.7606 94.3331 47.8492C94.142 47.1459 94.0323 46.4974 93.7921 45.9035C93.0676 44.1067 91.8816 43.3903 89.9863 43.4845C89.8293 43.4921 89.5947 43.2979 89.5096 43.1376C89.2334 42.6229 89.0254 42.0724 88.7662 41.5501C87.0903 38.1677 84.3286 35.8695 81.1338 34.0161C80.6987 33.7635 80.2542 33.7277 79.9875 34.2367C79.7416 34.7062 80.0197 35.0041 80.4093 35.2756C81.6199 36.1146 82.8589 36.9253 84.0014 37.851C85.9364 39.4178 87.2378 41.4596 88.1647 43.756C88.3141 44.1312 88.2858 44.3612 87.9604 44.6535C87.3494 45.204 86.7214 45.664 85.9364 45.9789C83.9427 46.7764 82.1685 46.422 80.7006 44.9476C79.8872 44.1293 79.2479 43.1188 78.6388 42.1289C77.6703 40.5565 76.8362 38.903 75.862 37.3363C75.4118 36.6123 74.8216 35.943 74.1842 35.3755C73.3462 34.6308 72.5537 34.742 71.763 35.5376C71.5663 35.7356 71.3696 35.9468 71.135 36.0957C68.3052 37.883 67.0341 40.5603 66.5101 43.7617C66.0959 46.2824 66.9963 48.5506 67.6054 50.8752C67.9345 52.1271 68.5133 53.3149 69.0108 54.6102C67.7151 54.3783 66.7712 53.7316 66.0581 52.7531L66.0562 52.7512ZM93.1981 51.9707C93.0657 51.9047 92.8236 51.8462 92.8198 51.7727C92.8122 51.5955 92.9125 51.4107 92.9655 51.2278C93.0279 51.241 93.0884 51.2542 93.1489 51.2655C93.1641 51.5012 93.1792 51.735 93.1962 51.9707H93.1981ZM72.7126 57.3025C70.367 54.6253 69.1148 51.4277 68.3355 48.0132C68.2617 47.6927 68.2031 47.3741 68.135 47.0536C67.9326 46.0977 67.9629 46.0675 68.9578 45.8978C70.1173 45.698 71.0177 46.141 71.763 46.9876C71.9843 47.2383 72.1432 47.4382 71.676 47.6625C71.1501 47.9152 71.1085 48.4205 71.4112 48.8541C71.6949 49.2632 72.1148 49.5762 72.4477 49.9571C72.5783 50.1079 72.722 50.3285 72.7126 50.5095C72.6861 51.0676 72.5934 51.6237 72.5196 52.178C72.4156 52.9209 73.386 54.0238 74.1274 53.9409C74.3431 53.9164 74.6457 53.7222 74.7119 53.5374C74.7895 53.3206 74.7384 52.8775 74.5909 52.7927C73.874 52.3854 74.0631 51.7783 74.1464 51.1901C74.3374 49.8383 74.188 48.5279 73.6489 47.276C72.7315 45.138 70.768 44.0897 68.4717 44.5064C68.0064 44.5912 67.8986 44.4913 67.961 44.0219C68.3525 41.0844 69.5991 38.6806 72.2321 37.127C72.2926 37.0912 72.3532 37.0535 72.4061 37.0082C73.2498 36.3257 73.3273 36.271 73.9459 37.2118C75.0108 38.8314 75.9698 40.5188 76.9421 42.1949C77.0121 42.3118 76.8872 42.6625 76.751 42.753C76.3273 43.0339 75.9396 43.3186 76.2346 43.8729C76.5051 44.3801 76.9629 44.3103 77.3923 44.0784C77.7555 43.8861 77.9976 43.971 78.2246 44.2971C78.5348 44.7364 78.8998 45.1361 79.1968 45.583C79.299 45.7357 79.333 46.0034 79.2782 46.1806C78.9963 47.046 79.4219 48.0528 80.2542 48.4016C80.8406 48.6448 81.4099 48.4544 81.6237 47.8398C81.758 47.4457 81.915 47.4627 82.2309 47.572C83.7309 48.0811 85.1685 47.8605 86.6136 47.2742C87.4346 46.9404 88.1325 46.5181 88.7624 45.8941C89.3753 45.2851 90.1092 44.6535 91.0588 44.9853C92.0575 45.336 92.4661 46.2523 92.6704 47.2195C93.1319 49.4386 91.5827 51.3013 89.328 51.2674C89.1634 51.2674 88.9989 51.2636 88.8343 51.2674C88.3936 51.2806 88.055 51.5163 88.1269 51.9424C88.1723 52.2082 88.5033 52.6041 88.7359 52.6268C89.4472 52.6946 90.1754 52.5909 90.898 52.5947C91.1742 52.5966 91.5165 52.6287 91.7132 52.787C92.973 53.8014 94.1931 54.861 95.4434 55.8866C95.7593 56.1449 95.7933 56.3297 95.5645 56.6898C93.7164 59.5933 91.8892 62.5043 90.0771 65.4285C89.8274 65.8301 89.676 65.9678 89.2807 65.5718C87.5953 63.8844 85.8892 62.2158 84.1773 60.5548C83.7252 60.1174 83.7082 59.8666 84.2832 59.4651C85.2422 58.7995 86.1143 58.0095 87.0108 57.2573C87.4194 56.9141 87.7126 56.4824 87.2435 56.0073C86.8084 55.5661 86.4207 55.8677 86.0197 56.1769C84.7448 57.1611 83.5096 58.2226 82.1325 59.0484C80.4282 60.0722 78.5291 60.5397 76.5316 59.9553C74.973 59.499 73.7643 58.4979 72.7163 57.2988L72.7126 57.3025ZM87.9623 68.3509C88.038 68.398 87.8526 68.9335 87.7164 69.205C87.6729 69.2917 87.3305 69.3426 87.234 69.271C85.3047 67.7985 83.8387 66.0488 83.8595 63.4489C83.8595 63.332 83.8444 63.2132 83.8633 63.0982C83.8879 62.97 83.9427 62.8437 83.9844 62.7174C84.096 62.7871 84.2208 62.8399 84.3154 62.9266C85.4522 64.0032 86.5739 65.0911 87.7183 66.1582C87.9661 66.3901 88.0626 66.5579 87.811 66.8445C87.3324 67.3893 87.2246 67.889 87.9642 68.349L87.9623 68.3509ZM57.4004 128.185C59.1577 123.678 60.9244 119.171 62.6854 114.665C66.4931 104.922 69.5612 94.9405 72.4213 84.8895C72.809 83.5207 73.3008 82.1783 73.804 80.8453C74.693 78.4943 76.1855 76.5429 77.7819 74.6123C78.828 73.3528 79.804 73.4886 81.0297 73.9524C83.241 74.7895 85.4579 75.6134 87.6729 76.4392C87.8696 76.5127 88.0758 76.5636 88.282 76.6126C88.7851 76.7295 89.3242 76.8125 89.4888 76.1564C89.6363 75.5549 89.171 75.3815 88.6943 75.2118C86.6004 74.4633 84.5159 73.6884 82.4295 72.9248C81.8564 72.7174 81.2889 72.4968 80.7101 72.3102C79.3973 71.8879 78.1546 72.0462 77.0348 72.8645C76.647 73.1492 76.4749 73.0738 76.2403 72.6835C74.9862 70.5888 74.7838 68.3584 75.4005 66.0526C75.758 64.7253 76.2668 63.4376 76.6962 62.1291C76.8267 61.7407 77.0442 61.588 77.4774 61.6276C79.0058 61.7652 80.4547 61.4296 81.8677 60.8546C82.0644 60.7735 82.4371 60.8131 82.5619 60.9507C82.6886 61.0865 82.6262 61.4146 82.6262 61.6578C82.6262 62.8814 82.4106 64.1465 82.6508 65.3211C83.1672 67.8588 84.9396 69.5538 87.0411 70.9075C87.7221 71.3449 88.2631 71.1205 88.7322 70.3664C91.0834 66.5918 93.4819 62.8474 95.7612 59.0314C98.2524 54.861 101.638 51.6614 105.862 49.3009C106.023 49.2086 106.252 49.1313 106.314 48.988C106.424 48.7353 106.547 48.3771 106.443 48.1791C106.339 47.9774 105.97 47.8322 105.709 47.8171C105.484 47.8039 105.234 47.9887 105.015 48.1188C101.994 49.8722 99.2076 51.9141 97.021 54.6762C96.8053 54.9477 96.6729 54.9703 96.3438 54.7912C94.7114 53.8937 94.6073 52.3383 94.683 50.7998C94.7152 50.1531 95.2751 49.546 95.5172 48.8937C95.7725 48.2055 96.1509 47.8134 96.898 47.5325C99.1244 46.6972 101.37 45.9732 103.738 45.7055C106.269 45.4189 108.743 45.7602 111.175 46.4634C111.297 46.4993 111.395 46.6011 111.505 46.6727C111.397 46.7576 111.3 46.8556 111.183 46.9235C110.084 47.5513 108.96 48.1377 107.89 48.8089C107.22 49.2293 106.598 49.7402 106.012 50.2738C105.673 50.583 105.393 50.9865 105.189 51.3994C104.481 52.8096 105.032 54.0106 106.558 54.4367C106.861 54.5235 107.139 54.4933 106.967 54.991C106.46 56.4598 107.107 57.4043 108.663 57.5552C109.136 57.6004 109.607 57.6475 110.08 57.6928C109.959 58.1415 109.785 58.5846 109.73 59.0427C109.503 60.9413 109.288 62.838 109.127 64.7441C109.091 65.1702 109 65.3493 108.586 65.4644C103.322 66.9482 98.4907 69.3388 94.0039 72.4403C93.9453 72.4799 93.8848 72.5195 93.828 72.5591C93.0752 73.0832 92.8766 73.4848 93.2208 73.8826C93.724 74.4652 94.1836 74.0768 94.6338 73.7676C98.8671 70.849 103.403 68.5432 108.338 67.0481C109.24 66.7728 109.178 66.7747 109.331 67.708C109.651 69.665 110.056 71.6088 110.392 73.564C110.474 74.0278 110.498 74.5274 110.417 74.9893C110.237 76.0414 111.331 77.5233 112.394 77.4875C112.702 77.4762 113.177 77.2028 113.26 76.9482C113.366 76.6221 113.285 76.015 113.05 75.8434C112.409 75.3739 112.431 74.88 112.71 74.2748C113.052 73.5319 113.372 72.7797 113.74 72.05C114.45 70.6379 114.788 69.1597 114.662 67.5779C114.51 65.6699 113.529 64.4085 111.724 63.7807C111.493 63.6996 111.153 63.4225 111.16 63.249C111.285 60.3248 111.819 57.5344 113.973 55.3116C114.361 54.91 114.747 54.7139 115.324 54.7667C117.72 54.9835 119.992 54.5612 122.111 53.3847C122.254 53.3036 122.636 53.3602 122.706 53.4752C123.675 55.0834 125.249 55.6547 126.962 55.8602C128.094 55.9922 129.251 55.913 130.396 55.8772C130.872 55.8621 131.029 55.93 130.865 56.4352C130.241 58.364 130.314 60.3041 130.861 62.2385C131.165 63.3169 131.461 64.3991 131.792 65.47C132.039 66.2694 132.437 66.9218 133.424 66.9651C133.581 66.9708 133.763 67.2347 133.867 67.4157C134.196 67.9795 134.43 68.6073 134.814 69.1277C135.488 70.0345 136.683 69.978 137.075 68.9372C137.582 67.593 138.662 66.82 139.651 65.9753C141.63 64.286 143.945 65.1552 144.353 67.7457C144.722 70.0666 143.971 72.1141 142.32 73.7544C141.87 74.2012 141.098 74.3879 140.436 74.5463C139.73 74.7178 139.329 74.995 139.341 75.5832C139.352 76.1941 139.789 76.607 140.559 76.5052C141.325 76.4034 141.609 76.7427 141.906 77.3593C143.678 81.064 146.099 84.2635 149.368 86.8088C150.718 87.859 152.067 88.796 153.857 88.9299C154.626 88.9864 154.623 89.0769 154.171 89.7029C151.579 93.2813 148.645 96.4997 144.686 98.6321C142.278 99.9292 139.761 100.834 136.971 100.687C134.788 100.57 132.925 99.7256 131.455 98.0985C130.36 96.89 129.949 95.4872 130.405 93.879C130.657 92.9853 131.311 92.4235 132.011 91.9031C132.111 91.8296 132.435 91.888 132.524 91.9936C132.985 92.5517 133.449 93.1192 133.817 93.7376C133.954 93.9676 133.903 94.3673 133.817 94.6539C133.655 95.2421 133.787 95.6777 134.328 95.951C134.839 96.2075 135.351 95.9869 135.664 95.4024C136.22 94.3598 136.119 93.3341 135.387 92.4499C133.912 90.6663 132.395 88.9148 130.851 87.1897C130.078 86.3224 130.036 86.362 131.043 85.802C133.223 84.5897 135.019 82.9174 136.645 81.0565C137.116 80.5173 137.097 79.9517 136.655 79.5652C136.214 79.1824 135.671 79.2578 135.16 79.748C134.099 80.7699 133.082 81.8484 131.947 82.7816C130.199 84.2164 128.198 85.1629 125.915 85.4325C123.465 85.7209 121.216 85.1742 119.334 83.5923C118.248 82.6817 117.35 81.5524 116.372 80.5154C116.243 80.3815 116.158 80.2081 116.031 80.0704C115.645 79.65 115.182 79.5539 114.711 79.8895C114.244 80.2213 114.121 80.7096 114.438 81.1866C117.622 85.9792 121.787 88.2964 127.208 87.2519C127.74 87.1482 128.092 87.2311 128.451 87.6139C129.123 88.3303 129.813 89.0336 130.532 89.7066C130.978 90.1214 130.827 90.3609 130.379 90.572C130.059 90.721 129.728 90.8379 129.41 90.9831C126.752 92.2067 124.027 93.3059 121.454 94.686C114.442 98.4435 109.579 104.113 106.948 111.613C105.991 114.341 105.204 117.133 104.406 119.916C103.961 121.472 101.873 122.422 100.558 121.449C99.7145 120.823 98.8936 120.007 98.4113 119.09C97.2366 116.866 96.1055 114.59 95.2524 112.228C94.2404 109.42 93.5178 106.505 92.7139 103.628C92.5323 102.98 92.2391 102.557 91.5846 102.341C86.9427 100.791 84.0184 97.5876 82.7643 92.9288C82.2517 91.0227 82.0796 89.0279 81.7712 87.1897C82.5033 85.0931 81.164 83.9449 80.0821 82.6892C79.7529 82.3084 79.3633 82.1142 78.9301 82.4988C78.5215 82.8589 78.6256 83.302 78.9755 83.6055C80.2977 84.7519 80.5228 86.2017 80.5133 87.8741C80.5001 90.1177 80.9163 92.3387 81.6918 94.4691C83.0915 98.3078 85.5089 101.251 89.2902 102.974C89.7309 103.174 89.8047 103.363 89.6212 103.817C85.8608 113.112 82.1098 122.412 78.3759 131.719C78.1981 132.162 78.0127 132.267 77.5531 132.15C74.1029 131.278 70.6413 130.448 67.1949 129.567C64.0587 128.768 60.9111 128.236 57.6652 128.753C56.9521 128.866 57.2945 128.436 57.391 128.189L57.4004 128.185ZM112.197 68.5074C112.87 69.4086 112.403 70.1627 112.036 70.9414C111.951 70.9508 111.868 70.9603 111.783 70.9697C111.586 69.3577 111.385 67.7476 111.211 66.1337C111.204 66.062 111.478 65.8659 111.567 65.8961C112.354 66.1488 112.628 66.9953 112.235 67.6816C112.108 67.9003 112.066 68.3301 112.197 68.5074ZM103.868 129.718C105.041 130.018 106.201 130.376 107.364 130.71C107.349 130.774 107.334 130.836 107.319 130.899C106.348 131.002 105.372 131.063 104.406 131.215C101.47 131.673 99.1092 133.189 97.1723 135.359C96.4875 136.127 95.8671 136.287 94.8778 136.053C90.0884 134.922 85.2801 133.877 80.4774 132.801C79.5978 132.605 79.5827 132.599 79.9118 131.781C83.5606 122.718 87.2113 113.653 90.8658 104.592C90.951 104.382 91.0644 104.186 91.2347 103.845C91.6149 105.254 91.9365 106.513 92.2902 107.763C93.2284 111.098 94.2688 114.401 95.8444 117.497C96.5292 118.843 97.3406 120.154 98.2694 121.343C99.5443 122.982 101.19 123.834 103.331 122.957C103.836 122.752 103.689 123.121 103.649 123.346C103.375 124.935 103.097 126.524 102.805 128.108C102.628 129.075 102.915 129.479 103.867 129.72L103.868 129.718ZM59.9937 130.599C58.3708 131.17 56.7535 131.741 55.1967 132.29C55.8664 131.021 58.5732 130.361 59.9937 130.599ZM12.5327 136.828C10.3877 130.868 8.12724 124.954 5.96141 119.004C4.72244 115.601 3.56669 112.171 2.39015 108.745C2.21801 108.24 2.11209 107.706 2.02318 107.177C1.87753 106.285 2.17829 105.781 3.08624 105.731C3.98284 105.678 4.93997 105.702 5.78549 105.962C8.33909 106.741 10.8227 107.746 13.3839 108.489C19.2572 110.188 25.1607 111.779 31.0491 113.423C34.6166 114.417 38.1462 115.514 41.5302 117.052C43.8758 118.119 45.5498 119.747 46.7074 122.058C49.5694 127.778 51.9035 133.713 54.2604 139.643C55.6867 143.225 57.0902 146.819 58.401 150.442C58.8891 151.792 59.0858 153.246 59.3657 154.432C59.2617 155.243 59.2409 155.81 59.1123 156.348C58.9382 157.075 58.0852 157.55 57.355 157.383C49.7963 155.646 42.2623 153.812 34.8606 151.481C30.4552 150.094 26.1273 148.516 21.9091 146.613C17.428 144.594 14.2124 141.498 12.5327 136.826V136.828ZM56.0555 138.455C56.1387 138.384 56.2068 138.284 56.3033 138.242C59.9275 136.651 63.6615 136.008 67.5694 137.009C66.6482 137.258 65.7138 137.467 64.8096 137.765C63.6634 138.142 62.5606 138.604 62.0971 139.884C62.0593 139.99 61.7453 140.08 61.5959 140.043C59.85 139.607 58.1116 139.145 56.3714 138.68C56.2541 138.647 56.1614 138.532 56.0555 138.455ZM58.681 144.958C58.8588 144.977 59.0461 144.971 59.2144 145.022C66.2113 147.036 73.2044 149.055 80.1993 151.076C80.3488 151.119 80.4906 151.193 80.6344 151.249C80.6344 151.295 80.6382 151.338 80.6401 151.381C79.5487 151.598 78.461 151.821 77.3696 152.03C73.5751 152.756 69.7825 153.485 65.9843 154.193C65.6079 154.264 65.1898 154.245 64.821 154.153C63.775 153.896 62.7365 153.604 61.7132 153.267C61.4559 153.182 61.1552 152.916 61.0738 152.667C60.2888 150.299 59.5454 147.92 58.7945 145.54C58.7358 145.352 58.7188 145.15 58.6829 144.954L58.681 144.958ZM89.6704 150.069C91.2423 150.541 92.7271 151.355 94.1798 152.143C95.0746 152.63 95.6174 153.485 95.5266 154.592C95.4283 155.795 94.8097 156.638 93.6332 156.932C91.5676 157.45 89.5039 158.033 87.4024 158.34C80.0537 159.426 72.6899 160.412 65.326 161.415C64.1665 161.574 62.99 161.623 62.0877 161.7C58.6772 161.789 55.6148 161.195 52.5523 160.603C41.2106 158.414 30.3701 154.722 19.94 149.8C19.6014 149.641 19.2666 149.473 18.9375 149.292C17.9804 148.766 17.8593 148.391 18.3795 147.428C18.4438 147.309 18.7654 147.203 18.8807 147.264C29.7667 152.846 41.5889 155.574 53.3544 158.474C54.5593 158.772 55.7775 159.023 56.9918 159.279C58.9836 159.7 60.7844 158.491 61.1362 156.495C61.2138 156.059 61.2649 155.612 61.2724 155.171C61.28 154.777 61.4143 154.666 61.7794 154.811C61.908 154.862 62.0555 154.873 62.1804 154.932C64.5164 156.014 66.8601 155.58 69.251 155.088C74.0707 154.098 78.9131 153.218 83.746 152.292C83.8387 152.275 83.9579 152.286 84.0184 152.234C84.2775 152.004 84.7296 151.738 84.7145 151.515C84.6937 151.217 84.3513 150.795 84.0562 150.693C82.7965 150.26 81.5007 149.924 80.2164 149.554C73.0114 147.477 65.8065 145.399 58.6034 143.321C57.9471 143.133 56.9862 141.796 57.0618 141.146C57.0694 141.08 57.2623 140.967 57.3323 140.989C59.3714 141.651 61.5467 141.847 63.495 142.859C64.2119 143.233 65.1085 143.27 65.9276 143.434C66.5461 143.559 67.1892 143.57 67.7907 143.744C75.0884 145.829 82.3954 147.895 89.6666 150.067L89.6704 150.069ZM91.8665 142.85C91.8608 142.931 91.5619 143.088 91.4484 143.054C90.323 142.727 89.1956 142.407 88.0966 142.005C87.3513 141.734 86.7536 141.794 85.9724 142.073C84.5594 142.58 83.0367 142.848 81.5367 143.046C79.8191 143.274 78.1092 142.937 76.4673 142.45C73.1855 141.476 69.8393 141.263 66.4458 141.4C65.867 141.425 65.2731 141.351 64.7113 141.221C64.471 141.164 64.1514 140.857 64.1268 140.637C64.106 140.44 64.4048 140.071 64.6281 140.007C66.1545 139.579 67.6829 139.111 69.2453 138.849C71.0442 138.548 72.8771 138.446 74.6949 138.259C75.3834 138.189 75.7958 137.793 75.7655 137.209C75.7372 136.641 75.3229 136.227 74.6571 136.312C73.3727 136.476 72.2151 136.1 71.0291 135.708C65.8878 134.008 60.8014 134.066 55.7983 136.268C55.5221 136.391 55.1532 136.662 55.0379 136.115C54.9395 135.657 54.2358 135.197 55.0965 134.713C58.3065 132.901 61.7661 132.156 65.4263 132.224C68.048 132.171 70.6035 132.629 73.1457 133.201C80.0499 134.75 86.9541 136.285 93.8583 137.825C94.6073 137.993 94.6092 137.999 94.0758 138.582C92.9522 139.805 91.9554 141.089 91.8684 142.85H91.8665ZM95.0178 143.248C94.7303 143.389 94.369 143.382 94.0418 143.444C94.0153 143.101 93.8753 142.712 93.9907 142.43C94.2517 141.79 94.5449 141.117 94.997 140.612C96.4497 138.994 97.9497 137.416 99.4932 135.884C101.275 134.115 103.458 133.193 105.976 133.044C107.75 132.939 109.524 132.816 111.298 132.699C111.31 132.741 111.321 132.784 111.331 132.825C111.064 132.957 110.799 133.093 110.529 133.219C108.785 134.053 107.175 135.071 105.8 136.453C105.488 136.766 104.943 136.941 104.483 136.994C103.019 137.16 101.869 137.818 100.798 138.821C99.4876 140.05 98.0462 141.144 96.6313 142.26C96.1376 142.648 95.5777 142.963 95.0159 143.246L95.0178 143.248ZM100.454 145.301C100.303 145.431 100.153 145.567 100.047 145.661C98.9806 145.337 98.0405 145.054 97.1042 144.752C97.0645 144.739 97.0361 144.454 97.0947 144.407C99.0979 142.756 101.109 141.115 103.131 139.486C103.301 139.349 103.547 139.262 103.766 139.238C103.865 139.226 104.095 139.453 104.078 139.536C103.863 140.64 103.931 141.713 104.281 142.784C104.313 142.882 104.103 143.138 103.955 143.193C103.411 143.401 102.783 143.453 102.304 143.755C101.631 144.181 101.063 144.777 100.45 145.301H100.454ZM120.431 151.711C118.292 151.583 116.298 150.912 114.329 150.145C112.034 149.253 109.751 148.327 107.275 148.042C105.877 147.884 104.476 147.767 103.085 147.56C102.72 147.505 102.092 147.139 102.115 146.99C102.177 146.56 102.412 146.027 102.754 145.795C103.257 145.454 103.98 145.439 104.493 145.107C105.431 144.492 106.032 145.043 106.768 145.49C107.375 145.857 108.102 146.016 108.766 146.289C108.943 146.362 109.152 146.478 109.239 146.634C110.347 148.602 112.089 149.04 114.174 148.74C114.402 148.708 114.777 148.851 114.896 149.032C115.677 150.218 116.822 150.804 118.165 151.008C119.914 151.276 121.585 150.987 123.073 149.981C123.399 149.762 123.616 149.722 123.923 150.009C124.382 150.437 124.889 150.816 125.536 151.347C123.743 151.657 122.099 151.813 120.431 151.715V151.711ZM183.348 168.561C183.526 169.353 183.505 169.377 182.724 169.161C164.007 163.98 145.292 158.799 126.577 153.616C126.378 153.559 126.187 153.487 125.837 153.372C127.083 153.076 128.09 152.68 129.291 153.154C131.069 153.853 132.97 153.732 134.85 153.536C135.535 153.465 136.237 153.504 136.927 153.548C140.695 153.776 144.463 154.053 148.233 154.253C154.579 154.59 160.927 154.913 167.277 155.18C171.378 155.354 175.485 155.431 179.589 155.516C180.202 155.529 180.476 155.663 180.616 156.319C181.496 160.407 182.43 164.481 183.346 168.561H183.348ZM197.727 147.19C196.625 150.844 193.579 153.25 189.509 153.429C185.856 153.589 182.194 153.514 178.536 153.529C169.076 153.57 159.641 152.861 150.2 152.366C146.079 152.149 141.953 151.938 137.841 151.587C136.382 151.462 134.96 151.495 133.519 151.632C130.216 151.945 127.543 150.563 125.173 148.446C125.018 148.308 124.963 147.974 124.982 147.741C125.035 147.051 125.203 146.366 125.22 145.676C125.23 145.252 125.298 145.007 125.75 144.956C125.933 144.935 126.119 144.884 126.297 144.828C126.862 144.643 127.167 144.26 127.042 143.659C126.923 143.084 126.499 142.805 125.947 142.925C125.128 143.103 124.252 143.24 123.539 143.642C122.495 144.234 121.541 145.003 120.614 145.776C120.124 146.185 120.181 146.821 120.58 147.205C120.985 147.597 121.532 147.575 122.024 147.13C122.285 146.894 122.527 146.638 122.795 146.413C122.909 146.319 123.07 146.285 123.21 146.227C123.208 146.385 123.238 146.555 123.196 146.7C122.958 147.541 122.389 148.12 121.641 148.517C120.569 149.089 119.432 149.264 118.235 148.983C116.718 148.625 116.092 147.714 116.597 146.238C116.947 145.22 117.435 144.162 118.144 143.372C119.26 142.132 120.609 141.098 121.867 139.984C122.041 139.832 122.262 139.733 122.455 139.6C122.983 139.221 123.128 138.678 122.839 138.204C122.544 137.727 121.988 137.588 121.42 137.925C119.633 138.985 118.034 140.28 116.705 141.881C115.647 143.155 114.802 144.545 114.507 146.21C114.478 146.372 114.353 146.617 114.228 146.649C113.353 146.866 112.447 147.015 111.662 146.419C110.939 145.869 110.635 145.088 110.771 144.187C110.937 143.078 111.559 142.196 112.297 141.395C114.217 139.315 116.604 137.88 119.084 136.581C119.355 136.44 119.638 136.319 119.89 136.151C120.338 135.851 120.482 135.422 120.249 134.93C120.019 134.439 119.597 134.287 119.075 134.409C118.961 134.436 118.853 134.486 118.747 134.537C116.19 135.791 113.752 137.228 111.656 139.179C110.264 140.474 109.108 141.924 108.749 143.87C108.732 143.964 108.404 144.104 108.291 144.059C106.087 143.178 105.249 140.84 106.57 138.874C107.207 137.929 108.092 137.085 109.023 136.415C111.493 134.637 114.365 133.729 117.287 132.991C117.597 132.914 117.993 133.016 118.309 133.14C120.524 134.025 122.776 134.837 124.931 135.859C128.506 137.556 132.009 139.398 135.77 140.697C137.292 141.225 138.76 141.436 140.372 141.223C145.973 140.484 151.585 139.833 157.193 139.157C162.406 138.525 167.62 137.914 172.833 137.275C177.005 136.764 181.174 137.118 185.334 137.381C188.298 137.569 191.255 137.986 194.192 138.434C195.378 138.614 196.521 139.126 197.661 139.543C197.886 139.626 198.145 139.941 198.176 140.178C198.48 142.543 198.416 144.896 197.722 147.192L197.727 147.19ZM200.12 138.54C197.512 136.973 194.625 136.298 191.65 135.927C186.357 135.267 181.04 135.035 175.706 134.997C172.893 135.099 170.079 135.209 167.266 135.278C167.018 135.284 166.64 135.06 166.532 134.841C165.518 132.803 164.387 130.829 163.114 128.94C162.467 127.978 161.748 126.213 160.318 126.611C160.112 126.668 159.91 126.783 159.809 126.971C159.669 127.23 159.758 127.558 159.915 127.807C161.531 130.386 161.2 129.892 162.91 132.418C163.6 133.44 164.094 134.594 164.703 135.672C164.969 136.144 164.801 136.266 164.334 136.321C158.003 137.071 151.674 137.831 145.341 138.591C143.222 138.845 141.109 139.132 138.989 139.358C138.543 139.405 138.051 139.33 137.619 139.19C134.309 138.127 131.147 136.715 128.046 135.148C126.041 134.136 123.976 133.242 121.955 132.252C121.67 132.113 121.371 131.779 121.288 131.475C120.654 129.204 120.145 126.894 119.457 124.639C118.797 122.475 117.968 120.361 117.21 118.225C117.047 117.767 116.733 117.505 116.235 117.69C115.723 117.88 115.713 118.315 115.863 118.745C116.234 119.807 116.676 120.842 116.998 121.915C117.887 124.89 118.732 127.878 119.591 130.863C119.689 131.202 119.733 131.477 119.192 131.296C116.975 130.559 114.682 130.48 112.375 130.599C111.943 130.621 111.65 130.54 111.37 130.152C111.179 129.882 110.769 129.726 110.426 129.615C108.777 129.081 107.12 128.57 105.459 128.072C105.088 127.961 104.896 127.825 104.966 127.396C105.943 121.428 107.334 115.578 109.774 110.012C112.029 104.867 115.481 100.725 120.261 97.778C122.667 96.2942 125.243 95.0913 127.747 93.7678C128.078 93.5924 128.44 93.4077 128.317 94.0996C127.952 96.1396 128.604 97.8949 129.947 99.4013C131.967 101.669 134.572 102.667 137.459 102.729C140.633 102.659 143.41 101.668 146.037 100.186C149.939 97.9854 152.92 94.8104 155.536 91.2508C155.62 91.1358 155.701 91.0227 155.784 90.9095C156.775 89.5351 156.768 89.5615 158.436 90.0177C164.334 91.6241 169.318 94.7991 173.663 98.9827C177.232 102.42 180.647 106.011 184.031 109.628C187.309 113.129 190.576 116.656 193.307 120.61C194.222 121.935 195.083 123.3 195.866 124.709C198.214 128.921 199.617 133.461 200.578 138.154C200.616 138.331 200.608 138.517 200.62 138.698C200.455 138.647 200.268 138.629 200.124 138.542L200.12 138.54Z" fill="black"/>
<path d="M164.139 17.8547C163.106 12.4814 160.106 8.3618 155.807 5.11894C151.948 2.20602 147.55 0.654346 142.761 0.164146C138.42 -0.277034 134.183 0.126438 130.148 1.88739C126.594 3.43906 123.785 5.80334 122.478 9.55902C120.616 14.9097 121.621 19.8759 124.778 24.4781C127.195 28 130.555 30.3756 134.366 32.1723C134.932 32.4382 135.038 32.7361 134.915 33.3073C134.533 35.0645 134.198 36.833 133.859 38.5996C133.749 39.169 133.727 39.7441 134.341 40.0778C134.913 40.3851 135.374 40.1211 135.809 39.7497C137.169 38.5996 138.569 37.4967 139.88 36.2938C141.064 35.2059 142.587 35.3341 144.081 35.3285C145.906 35.3209 147.783 35.0664 149.589 34.8175C152.814 34.3726 155.932 33.5355 158.758 31.8462C160.863 30.5867 162.526 28.9144 163.462 26.6105C164.614 23.7673 164.71 20.8299 164.137 17.8547H164.139ZM162.418 22.1308C162.25 25.6489 160.742 28.3959 157.627 30.1946C153.828 32.3873 149.408 33.1886 145.065 33.2941C144.342 33.3111 143.621 33.3092 142.899 33.2885C142.246 33.2696 141.546 33.1377 140.907 33.2791C140.504 33.3677 140.124 33.5355 139.797 33.7844C138.756 34.5781 137.786 35.4661 136.785 36.3127C136.681 36.3994 136.551 36.4465 136.432 36.5144C136.418 36.3673 136.369 36.2108 136.396 36.0713C136.609 34.9005 136.848 33.7316 137.058 32.5607C137.217 31.6671 136.958 31.2523 136.146 30.8224C134.655 30.0343 133.127 29.3009 131.718 28.3865C127.935 25.9298 125.156 22.6342 124.048 18.2016C123.009 14.0406 123.499 10.0888 126.509 6.77808C128.582 4.50053 131.298 3.24298 134.27 2.65097C142.923 0.929613 150.69 2.68302 157.114 8.94062C160.789 12.5229 162.666 16.9384 162.416 22.1308H162.418Z" fill="#FFCE1F"/>
<path d="M57.4916 54.9627C57.3195 54.6535 56.9638 54.4405 56.6725 54.2048C55.8554 53.5393 55.0685 52.8247 54.1965 52.2402C53.2904 51.6331 52.7948 50.9299 53.0502 49.81C53.1126 49.5422 53.0597 49.25 53.0597 48.9691C53.088 48.9653 53.1183 48.9615 53.1467 48.9578C52.95 47.359 52.844 45.7451 52.5414 44.167C51.3743 38.0829 47.9789 33.7239 42.047 31.714C35.8314 29.6081 29.854 30.4866 24.3591 34.0595C20.7897 36.3785 18.6939 39.7024 18.1983 43.9709C17.7935 47.4514 18.3723 50.796 19.8155 53.9541C22.7929 60.4737 27.465 65.0269 34.8705 66.0375C39.5104 66.671 43.6492 65.4926 46.8175 61.8595C47.8579 60.6698 48.7223 59.318 49.6095 58.0039C49.8743 57.6117 50.1221 57.4307 50.5987 57.3949C52.6549 57.2422 54.7129 57.0687 56.7614 56.8311C57.136 56.7878 57.6486 56.4729 57.7677 56.16C57.8926 55.8357 57.6883 55.3191 57.4897 54.9646L57.4916 54.9627ZM53.8768 55.106C52.6889 55.2248 51.4991 55.3832 50.3074 55.4284C49.1498 55.4718 48.5124 56.1618 47.9052 57.0065C46.9688 58.3168 46.0817 59.68 44.9997 60.864C42.4991 63.5903 39.2532 64.4839 35.6687 64.1163C29.105 63.4451 24.8509 59.5782 22.0192 53.9333C20.4019 50.7131 19.7172 47.2798 20.2733 43.6636C20.7708 40.4358 22.3881 37.8623 25.0495 36.0297C30.2683 32.4399 35.9676 31.6122 41.9089 33.8049C46.9045 35.6488 49.6605 39.5158 50.595 44.6742C50.89 46.2994 50.9865 47.9604 51.1738 49.6063C51.0697 52.5607 50.6006 51.8537 53.0805 53.8598C53.3907 54.1105 53.7085 54.3519 54.0092 54.612C54.1265 54.7139 54.2097 54.8496 54.3119 54.9722C54.1681 55.0174 54.0244 55.0928 53.8768 55.106Z" fill="#FFCE1F"/>
<path d="M71.3946 14.8814C71.1431 8.98009 68.6916 4.9152 63.7717 2.46608C58.1329 -0.341257 50.5137 1.04639 45.7735 5.64484C43.2369 8.10339 41.9639 11.0729 42.0131 14.6231C42.1058 21.0541 46.7609 27.8226 52.7685 30.1681C54.8227 30.9693 56.9337 31.2408 59.1203 30.843C61.8536 30.3491 63.8454 28.7898 65.3795 26.5594C65.9489 25.7336 65.9526 25.7355 66.696 26.4482C67.3543 27.0836 68.0125 27.7171 68.6689 28.3524C69.0491 28.722 69.4842 28.9199 70.0081 28.6918C70.5434 28.4599 70.6569 27.9942 70.6229 27.4701C70.5378 26.2106 70.4583 24.9493 70.3581 23.6918C70.2313 22.0892 70.1273 20.5281 70.6569 18.9255C71.1242 17.5039 71.2131 15.956 71.3946 14.8851V14.8814ZM68.5535 19.0895C68.2471 20.1548 68.1563 21.1861 68.2509 22.2645C68.3228 23.079 68.3814 23.8954 68.4362 24.7118C68.4457 24.8569 68.3965 25.0096 68.3738 25.1567C68.2433 25.0737 68.0939 25.0078 67.9804 24.9022C67.517 24.4742 67.0781 24.016 66.5995 23.6013C65.8864 22.9791 65.1544 23.1054 64.6569 23.9105C64.3751 24.3667 64.1197 24.8437 63.819 25.2887C61.5529 28.6277 58.2351 29.8249 54.3725 28.59C50.0806 27.2155 47.2584 24.197 45.382 20.2302C44.3246 17.9979 43.8157 15.6412 44.0881 13.1487C44.2584 11.58 44.7785 10.149 45.6676 8.85C49.1726 3.72552 56.9961 1.51773 62.6254 4.14219C66.9646 6.16333 69.138 9.66637 69.4104 14.9209C69.1985 15.9956 68.9886 17.5775 68.5516 19.0933L68.5535 19.0895Z" fill="#FFCE1F"/>
<path d="M122.375 62.0727C123.767 62.3913 125.071 62.6515 126.349 62.9984C127.083 63.1983 127.348 63.7375 127.146 64.3182C126.947 64.8895 126.444 65.0459 125.693 64.8649C124.741 64.6368 123.78 64.3427 122.816 64.3144C121.932 64.2899 121.023 64.5199 120.154 64.7499C119.42 64.946 118.906 64.8706 118.651 64.3238C118.397 63.7808 118.603 63.2001 119.324 62.9381C120.321 62.5761 121.367 62.3498 122.375 62.0708V62.0727Z" fill="black"/>
<path d="M138.232 72.1593C138.215 70.5681 140.065 68.298 141.454 68.0944C141.696 68.0586 142.125 68.2792 142.214 68.4904C142.305 68.7053 142.163 69.1182 141.985 69.3256C141.768 69.5763 141.404 69.7008 141.104 69.8799C140.792 70.0665 140.782 70.1891 141.06 70.4964C141.384 70.8546 141.603 71.3411 141.758 71.8067C141.896 72.2215 141.711 72.608 141.238 72.723C140.769 72.8362 140.483 72.5892 140.345 72.1499C140.304 72.0179 140.313 71.8331 140.224 71.7577C139.746 71.3486 139.776 71.852 139.681 72.0877C139.517 72.4968 139.258 72.8211 138.794 72.6627C138.537 72.5741 138.352 72.2743 138.23 72.1612L138.232 72.1593Z" fill="black"/>
<path d="M119.276 79.9141C119.159 79.9197 119.041 79.9311 118.924 79.9311C118.48 79.9311 118.109 79.7934 118.077 79.2919C118.043 78.7715 118.359 78.5359 118.858 78.5057C120.377 78.4133 121.809 78.0023 123.159 77.3085C123.326 77.2236 123.494 77.1388 123.657 77.0464C124.088 76.8032 124.525 76.7108 124.816 77.2142C125.108 77.7157 124.822 78.0589 124.387 78.3002C122.794 79.1844 121.122 79.8292 119.274 79.916L119.276 79.9141Z" fill="black"/>
<path d="M124.083 66.1921C124.344 66.2261 124.743 66.2053 125.076 66.3449C125.305 66.441 125.583 66.7615 125.577 66.9746C125.571 67.1612 125.204 67.4799 124.989 67.4874C124.47 67.5063 124.194 67.5157 124.291 68.1944C124.378 68.8034 123.701 69.2691 123.097 69.1522C122.515 69.0372 121.86 68.1152 121.875 67.4327C121.892 66.7728 122.333 66.3637 123.127 66.2751C123.407 66.2449 123.687 66.2261 124.083 66.194V66.1921Z" fill="black"/>
<path d="M80.3285 53.7883C78.6224 54.1974 76.9237 54.6518 75.2421 55.1514C74.5933 55.3456 74.5725 56.0413 75.1305 56.4618C75.3121 56.5975 75.507 56.7408 75.6337 56.9218C76.1406 57.642 76.8556 57.9022 77.6974 57.9229C79.186 57.9022 81.0606 56.2091 81.2592 54.6989C81.3348 54.122 80.9187 53.6469 80.3285 53.7902V53.7883ZM76.9256 56.1733C77.6955 55.9697 78.28 55.8132 78.942 55.6379C78.4351 56.4429 77.8506 56.6183 76.9256 56.1733Z" fill="black"/>
<path d="M89.1607 49.5724C88.7805 49.4913 88.3739 49.5121 88.1204 49.3254C87.7345 49.0407 87.8215 48.5939 88.1469 48.2866C88.8259 47.6474 89.5277 47.0328 90.2465 46.4408C90.5927 46.1542 91.005 46.1391 91.3001 46.5313C91.616 46.9536 91.4684 47.3533 91.0599 47.6078C90.6097 47.8869 90.5246 48.2017 90.6343 48.7164C90.7232 49.1275 90.6437 49.595 90.5548 50.0192C90.4678 50.4416 90.1784 50.7545 89.6961 50.6433C89.2043 50.5302 89.0189 50.1833 89.157 49.6836C89.174 49.6214 89.1589 49.5517 89.1589 49.5724H89.1607Z" fill="black"/>
</g>
<defs>
<clipPath id="clip0_1367_12035">
<rect width="203" height="172" fill="white"/>
</clipPath>
</defs>
</svg>
